M48
; DRILL file {KiCad (5.1.9-0-10_14)} date Wednesday, March 10, 2021 at 03:44:10 PM
; FORMAT={-:-/ absolute / metric / decimal}
; #@! TF.CreationDate,2021-03-10T15:44:10+00:00
; #@! TF.GenerationSoftware,Kicad,Pcbnew,(5.1.9-0-10_14)
; #@! TF.FileFunction,Plated,1,4,PTH
FMAT,2
METRIC
T1C0.600
T2C0.700
T3C0.800
T4C1.000
T5C1.110
T6C1.200
T7C2.540
%
G90
G05
T1
X-271.78Y-109.982
X-270.28Y-109.982
T2
X-335.692Y-70.899
X-328.072Y-70.899
X-306.17Y-44.8
X-298.55Y-44.8
T3
X-326.85Y-53.47
X-315.214Y-109.982
X-311.658Y-106.68
X-305.562Y-103.886
X-297.688Y-105.156
X-295.148Y-103.886
X-294.02Y-71.1
X-292.608Y-104.902
X-288.544Y-87.884
X-287.47Y-40.83
X-278.81Y-82.976
X-278.04Y-51.1
X-277.32Y-67.12
X-276.098Y-109.982
X-275.61Y-61.59
X-274.32Y-106.934
X-273.812Y-103.886
X-265.684Y-54.356
X-263.906Y-67.056
X-261.47Y-55.91
X-259.85Y-105.48
X-259.04Y-39.08
X-258.318Y-85.09
X-254.0Y-85.852
X-248.706Y-54.316
X-245.364Y-82.296
X-245.11Y-68.326
X-243.37Y-59.84
X-241.01Y-102.92
X-240.49Y-94.536
X-239.91Y-37.7
X-239.1Y-99.99
X-237.42Y-24.69
X-237.15Y-94.7
X-235.204Y-54.102
X-234.756Y-78.8
X-233.132Y-62.19
X-231.394Y-49.276
X-231.35Y-92.91
X-230.124Y-58.674
X-228.346Y-49.276
X-228.238Y-72.79
X-227.33Y-62.23
X-226.538Y-64.994
X-224.758Y-70.136
X-224.49Y-38.83
X-219.96Y-39.76
X-217.54Y-49.48
X-216.89Y-38.888
X-216.662Y-26.67
X-214.69Y-79.15
X-214.51Y-61.42
X-212.11Y-76.7
X-208.72Y-65.56
X-208.52Y-54.21
X-208.001Y-37.719
X-206.502Y-45.974
X-204.34Y-58.75
X-203.89Y-34.86
X-203.47Y-65.53
X-201.06Y-37.37
T4
X-278.02Y-43.15
X-278.02Y-45.69
X-278.02Y-48.23
X-262.5Y-36.58
X-262.5Y-39.12
X-247.3Y-37.84
X-244.76Y-37.84
X-240.45Y-54.57
X-240.45Y-57.11
X-240.45Y-59.65
X-240.45Y-62.19
X-240.45Y-64.73
X-240.45Y-67.27
X-240.45Y-69.81
X-240.45Y-72.35
X-240.45Y-74.89
X-240.45Y-77.43
X-240.45Y-79.97
X-240.45Y-82.51
X-240.45Y-85.05
X-240.45Y-87.59
X-237.91Y-54.57
X-237.91Y-57.11
X-237.91Y-59.65
X-237.91Y-62.19
X-237.91Y-64.73
X-237.91Y-67.27
X-237.91Y-69.81
X-237.91Y-72.35
X-237.91Y-74.89
X-237.91Y-77.43
X-237.91Y-79.97
X-237.91Y-82.51
X-237.91Y-85.05
X-237.91Y-87.59
X-220.36Y-53.67
X-220.36Y-56.21
X-220.36Y-58.75
X-220.36Y-61.29
X-220.36Y-63.83
X-220.36Y-66.37
X-220.36Y-68.91
X-220.36Y-71.45
X-220.36Y-73.99
X-220.36Y-76.53
X-220.36Y-79.07
X-220.36Y-81.61
X-220.36Y-84.15
X-220.36Y-86.69
X-220.36Y-89.23
X-220.36Y-91.77
X-220.36Y-94.31
X-220.36Y-96.85
X-220.36Y-99.39
X-220.36Y-101.93
X-217.82Y-53.67
X-217.82Y-56.21
X-217.82Y-58.75
X-217.82Y-61.29
X-217.82Y-63.83
X-217.82Y-66.37
X-217.82Y-68.91
X-217.82Y-71.45
X-217.82Y-73.99
X-217.82Y-76.53
X-217.82Y-79.07
X-217.82Y-81.61
X-217.82Y-84.15
X-217.82Y-86.69
X-217.82Y-89.23
X-217.82Y-91.77
X-217.82Y-94.31
X-217.82Y-96.85
X-217.82Y-99.39
X-217.82Y-101.93
X-215.621Y-29.616
X-215.621Y-32.156
X-213.081Y-29.616
X-213.081Y-32.156
X-210.541Y-29.616
X-210.541Y-32.156
X-208.001Y-29.616
X-208.001Y-32.156
X-205.461Y-29.616
X-205.461Y-32.156
X-198.93Y-85.21
X-198.93Y-87.75
T5
X-305.308Y-109.982
X-302.768Y-109.982
X-300.228Y-109.982
X-297.688Y-109.982
X-295.148Y-109.982
X-292.608Y-109.982
X-290.068Y-109.982
X-287.528Y-109.982
X-284.988Y-109.982
X-282.448Y-109.982
T6
X-312.65Y-56.2
X-312.65Y-76.52
X-302.87Y-30.81
X-299.69Y-55.97
X-299.69Y-76.29
X-288.79Y-56.28
X-288.79Y-76.6
X-282.55Y-30.81
X-278.81Y-56.58
X-278.81Y-76.9
X-269.342Y-44.78
X-258.866Y-30.302
X-255.366Y-30.302
X-251.866Y-30.302
X-249.022Y-44.78
X-248.366Y-30.302
X-244.866Y-30.302
X-241.366Y-30.302
X-237.866Y-30.302
X-234.366Y-30.302
T7
X-305.308Y-122.428
X-282.448Y-122.428
T0
M30
