%TF.GenerationSoftware,KiCad,Pcbnew,(5.1.9-0-10_14)*%
%TF.CreationDate,2021-03-10T15:44:04+00:00*%
%TF.ProjectId,base8x,62617365-3878-42e6-9b69-6361645f7063,rev?*%
%TF.SameCoordinates,Original*%
%TF.FileFunction,Copper,L4,Bot*%
%TF.FilePolarity,Positive*%
%FSLAX46Y46*%
G04 Gerber Fmt 4.6, Leading zero omitted, Abs format (unit mm)*
G04 Created by KiCad (PCBNEW (5.1.9-0-10_14)) date 2021-03-10 15:44:04*
%MOMM*%
%LPD*%
G01*
G04 APERTURE LIST*
%TA.AperFunction,ComponentPad*%
%ADD10C,3.810000*%
%TD*%
%TA.AperFunction,ComponentPad*%
%ADD11C,1.665000*%
%TD*%
%TA.AperFunction,ComponentPad*%
%ADD12O,1.700000X1.700000*%
%TD*%
%TA.AperFunction,ComponentPad*%
%ADD13R,1.700000X1.700000*%
%TD*%
%TA.AperFunction,ComponentPad*%
%ADD14O,1.400000X1.400000*%
%TD*%
%TA.AperFunction,ComponentPad*%
%ADD15C,1.400000*%
%TD*%
%TA.AperFunction,ComponentPad*%
%ADD16O,2.400000X2.400000*%
%TD*%
%TA.AperFunction,ComponentPad*%
%ADD17C,2.400000*%
%TD*%
%TA.AperFunction,ComponentPad*%
%ADD18C,1.700000*%
%TD*%
%TA.AperFunction,ComponentPad*%
%ADD19O,1.800000X3.600000*%
%TD*%
%TA.AperFunction,ComponentPad*%
%ADD20R,1.200000X1.200000*%
%TD*%
%TA.AperFunction,ComponentPad*%
%ADD21C,1.200000*%
%TD*%
%TA.AperFunction,ViaPad*%
%ADD22C,1.800000*%
%TD*%
%TA.AperFunction,Conductor*%
%ADD23C,2.000000*%
%TD*%
%TA.AperFunction,Conductor*%
%ADD24C,1.000000*%
%TD*%
%TA.AperFunction,Conductor*%
%ADD25C,0.300000*%
%TD*%
%TA.AperFunction,Conductor*%
%ADD26C,0.100000*%
%TD*%
G04 APERTURE END LIST*
D10*
%TO.P,IC1,MH2*%
%TO.N,Net-(IC1-PadMH2)*%
X-305308000Y-122428000D03*
%TO.P,IC1,MH1*%
%TO.N,Net-(IC1-PadMH1)*%
X-282448000Y-122428000D03*
D11*
%TO.P,IC1,10*%
%TO.N,Net-(IC1-Pad10)*%
X-305308000Y-109982000D03*
%TO.P,IC1,9*%
%TO.N,Net-(IC1-Pad9)*%
X-302768000Y-109982000D03*
%TO.P,IC1,8*%
%TO.N,Net-(IC1-Pad8)*%
X-300228000Y-109982000D03*
%TO.P,IC1,7*%
%TO.N,A_V_D_LOC*%
X-297688000Y-109982000D03*
%TO.P,IC1,6*%
%TO.N,Net-(IC1-Pad6)*%
X-295148000Y-109982000D03*
%TO.P,IC1,5*%
%TO.N,Net-(IC1-Pad5)*%
X-292608000Y-109982000D03*
%TO.P,IC1,4*%
%TO.N,SDA*%
X-290068000Y-109982000D03*
%TO.P,IC1,3*%
%TO.N,SCL*%
X-287528000Y-109982000D03*
%TO.P,IC1,2*%
%TO.N,GND*%
X-284988000Y-109982000D03*
%TO.P,IC1,1*%
%TO.N,+5V*%
X-282448000Y-109982000D03*
%TD*%
D12*
%TO.P,Raspberry_header1,40*%
%TO.N,Net-(Raspberry_header1-Pad40)*%
X-220360000Y-101930000D03*
%TO.P,Raspberry_header1,39*%
%TO.N,GND*%
X-217820000Y-101930000D03*
%TO.P,Raspberry_header1,38*%
%TO.N,Net-(Raspberry_header1-Pad38)*%
X-220360000Y-99390000D03*
%TO.P,Raspberry_header1,37*%
%TO.N,Net-(Raspberry_header1-Pad37)*%
X-217820000Y-99390000D03*
%TO.P,Raspberry_header1,36*%
%TO.N,Net-(Raspberry_header1-Pad36)*%
X-220360000Y-96850000D03*
%TO.P,Raspberry_header1,35*%
%TO.N,Net-(Raspberry_header1-Pad35)*%
X-217820000Y-96850000D03*
%TO.P,Raspberry_header1,34*%
%TO.N,Net-(Raspberry_header1-Pad34)*%
X-220360000Y-94310000D03*
%TO.P,Raspberry_header1,33*%
%TO.N,Net-(Raspberry_header1-Pad33)*%
X-217820000Y-94310000D03*
%TO.P,Raspberry_header1,32*%
%TO.N,Net-(Raspberry_header1-Pad32)*%
X-220360000Y-91770000D03*
%TO.P,Raspberry_header1,31*%
%TO.N,GPIO6*%
X-217820000Y-91770000D03*
%TO.P,Raspberry_header1,30*%
%TO.N,Net-(Raspberry_header1-Pad30)*%
X-220360000Y-89230000D03*
%TO.P,Raspberry_header1,29*%
%TO.N,Net-(Raspberry_header1-Pad29)*%
X-217820000Y-89230000D03*
%TO.P,Raspberry_header1,28*%
%TO.N,Net-(Raspberry_header1-Pad28)*%
X-220360000Y-86690000D03*
%TO.P,Raspberry_header1,27*%
%TO.N,Net-(Raspberry_header1-Pad27)*%
X-217820000Y-86690000D03*
%TO.P,Raspberry_header1,26*%
%TO.N,Net-(Raspberry_header1-Pad26)*%
X-220360000Y-84150000D03*
%TO.P,Raspberry_header1,25*%
%TO.N,Net-(Raspberry_header1-Pad25)*%
X-217820000Y-84150000D03*
%TO.P,Raspberry_header1,24*%
%TO.N,SCK*%
X-220360000Y-81610000D03*
%TO.P,Raspberry_header1,23*%
%TO.N,SCLK*%
X-217820000Y-81610000D03*
%TO.P,Raspberry_header1,22*%
%TO.N,Net-(Raspberry_header1-Pad22)*%
X-220360000Y-79070000D03*
%TO.P,Raspberry_header1,21*%
%TO.N,MISO*%
X-217820000Y-79070000D03*
%TO.P,Raspberry_header1,20*%
%TO.N,Net-(Raspberry_header1-Pad20)*%
X-220360000Y-76530000D03*
%TO.P,Raspberry_header1,19*%
%TO.N,MOSI*%
X-217820000Y-76530000D03*
%TO.P,Raspberry_header1,18*%
%TO.N,Net-(Raspberry_header1-Pad18)*%
X-220360000Y-73990000D03*
%TO.P,Raspberry_header1,17*%
%TO.N,Net-(Raspberry_header1-Pad17)*%
X-217820000Y-73990000D03*
%TO.P,Raspberry_header1,16*%
%TO.N,Net-(Raspberry_header1-Pad16)*%
X-220360000Y-71450000D03*
%TO.P,Raspberry_header1,15*%
%TO.N,Net-(Raspberry_header1-Pad15)*%
X-217820000Y-71450000D03*
%TO.P,Raspberry_header1,14*%
%TO.N,Net-(Raspberry_header1-Pad14)*%
X-220360000Y-68910000D03*
%TO.P,Raspberry_header1,13*%
%TO.N,Net-(Raspberry_header1-Pad13)*%
X-217820000Y-68910000D03*
%TO.P,Raspberry_header1,12*%
%TO.N,Net-(Raspberry_header1-Pad12)*%
X-220360000Y-66370000D03*
%TO.P,Raspberry_header1,11*%
%TO.N,Net-(Raspberry_header1-Pad11)*%
X-217820000Y-66370000D03*
%TO.P,Raspberry_header1,10*%
%TO.N,Net-(Raspberry_header1-Pad10)*%
X-220360000Y-63830000D03*
%TO.P,Raspberry_header1,9*%
%TO.N,Net-(Raspberry_header1-Pad9)*%
X-217820000Y-63830000D03*
%TO.P,Raspberry_header1,8*%
%TO.N,Net-(Raspberry_header1-Pad8)*%
X-220360000Y-61290000D03*
%TO.P,Raspberry_header1,7*%
%TO.N,CLK0*%
X-217820000Y-61290000D03*
%TO.P,Raspberry_header1,6*%
%TO.N,Net-(Raspberry_header1-Pad6)*%
X-220360000Y-58750000D03*
%TO.P,Raspberry_header1,5*%
%TO.N,SCL*%
X-217820000Y-58750000D03*
%TO.P,Raspberry_header1,4*%
%TO.N,Net-(Raspberry_header1-Pad4)*%
X-220360000Y-56210000D03*
%TO.P,Raspberry_header1,3*%
%TO.N,SDA*%
X-217820000Y-56210000D03*
%TO.P,Raspberry_header1,2*%
%TO.N,+5V*%
X-220360000Y-53670000D03*
D13*
%TO.P,Raspberry_header1,1*%
%TO.N,+3V3*%
X-217820000Y-53670000D03*
%TD*%
D14*
%TO.P,D2,2*%
%TO.N,Net-(D2-Pad2)*%
X-328071640Y-70898520D03*
D15*
%TO.P,D2,1*%
%TO.N,Net-(D2-Pad1)*%
X-335691640Y-70898520D03*
%TD*%
D14*
%TO.P,D1,2*%
%TO.N,Net-(D1-Pad2)*%
X-298550000Y-44800000D03*
D15*
%TO.P,D1,1*%
%TO.N,Net-(D1-Pad1)*%
X-306170000Y-44800000D03*
%TD*%
D16*
%TO.P,Resistor1,2*%
%TO.N,+3V3*%
X-282550000Y-30810000D03*
D17*
%TO.P,Resistor1,1*%
%TO.N,CLK0*%
X-302870000Y-30810000D03*
%TD*%
D16*
%TO.P,R5,2*%
%TO.N,A_I-*%
X-249021600Y-44780200D03*
D17*
%TO.P,R5,1*%
%TO.N,A_I-_EXT*%
X-269341600Y-44780200D03*
%TD*%
D16*
%TO.P,R4,2*%
%TO.N,Net-(J4-Pad2)*%
X-299690000Y-55970000D03*
D17*
%TO.P,R4,1*%
%TO.N,Net-(IC1-Pad5)*%
X-299690000Y-76290000D03*
%TD*%
D16*
%TO.P,R3,2*%
%TO.N,+5V*%
X-278810000Y-56580000D03*
D17*
%TO.P,R3,1*%
%TO.N,Net-(IC1-Pad6)*%
X-278810000Y-76900000D03*
%TD*%
D16*
%TO.P,R2,2*%
%TO.N,+5V*%
X-312650000Y-56200000D03*
D17*
%TO.P,R2,1*%
%TO.N,Net-(IC1-Pad10)*%
X-312650000Y-76520000D03*
%TD*%
D16*
%TO.P,R1,2*%
%TO.N,+5V*%
X-288790000Y-56280000D03*
D17*
%TO.P,R1,1*%
%TO.N,Net-(IC1-Pad9)*%
X-288790000Y-76600000D03*
%TD*%
%TO.P,J1,1*%
%TO.N,MISO*%
%TA.AperFunction,ComponentPad*%
G36*
G01*
X-215020600Y-33006400D02*
X-216220600Y-33006400D01*
G75*
G02*
X-216470600Y-32756400I0J250000D01*
G01*
X-216470600Y-31556400D01*
G75*
G02*
X-216220600Y-31306400I250000J0D01*
G01*
X-215020600Y-31306400D01*
G75*
G02*
X-214770600Y-31556400I0J-250000D01*
G01*
X-214770600Y-32756400D01*
G75*
G02*
X-215020600Y-33006400I-250000J0D01*
G01*
G37*
%TD.AperFunction*%
D18*
%TO.P,J1,3*%
%TO.N,SCK*%
X-213080600Y-32156400D03*
%TO.P,J1,5*%
%TO.N,A_V_D_EXT*%
X-210540600Y-32156400D03*
%TO.P,J1,7*%
%TO.N,SDA*%
X-208000600Y-32156400D03*
%TO.P,J1,9*%
%TO.N,/Vin*%
X-205460600Y-32156400D03*
%TO.P,J1,2*%
%TO.N,+5V*%
X-215620600Y-29616400D03*
%TO.P,J1,4*%
%TO.N,MOSI*%
X-213080600Y-29616400D03*
%TO.P,J1,6*%
%TO.N,GND*%
X-210540600Y-29616400D03*
%TO.P,J1,8*%
%TO.N,SCL*%
X-208000600Y-29616400D03*
%TO.P,J1,10*%
%TO.N,~A_CS*%
X-205460600Y-29616400D03*
%TD*%
D13*
%TO.P,J3,1*%
%TO.N,+5V*%
X-237910000Y-54570000D03*
D12*
%TO.P,J3,2*%
X-240450000Y-54570000D03*
%TO.P,J3,3*%
%TO.N,+3V3*%
X-237910000Y-57110000D03*
%TO.P,J3,4*%
%TO.N,A_V_D*%
X-240450000Y-57110000D03*
%TO.P,J3,5*%
X-237910000Y-59650000D03*
%TO.P,J3,6*%
%TO.N,SCL*%
X-240450000Y-59650000D03*
%TO.P,J3,7*%
%TO.N,SDA*%
X-237910000Y-62190000D03*
%TO.P,J3,8*%
X-240450000Y-62190000D03*
%TO.P,J3,9*%
%TO.N,SCL*%
X-237910000Y-64730000D03*
%TO.P,J3,10*%
%TO.N,Net-(J3-Pad10)*%
X-240450000Y-64730000D03*
%TO.P,J3,11*%
%TO.N,~A_CS*%
X-237910000Y-67270000D03*
%TO.P,J3,12*%
X-240450000Y-67270000D03*
%TO.P,J3,13*%
%TO.N,MISO*%
X-237910000Y-69810000D03*
%TO.P,J3,14*%
%TO.N,Net-(J3-Pad14)*%
X-240450000Y-69810000D03*
%TO.P,J3,15*%
%TO.N,MOSI*%
X-237910000Y-72350000D03*
%TO.P,J3,16*%
%TO.N,Net-(J3-Pad16)*%
X-240450000Y-72350000D03*
%TO.P,J3,17*%
%TO.N,SCK*%
X-237910000Y-74890000D03*
%TO.P,J3,18*%
%TO.N,Net-(J3-Pad18)*%
X-240450000Y-74890000D03*
%TO.P,J3,19*%
%TO.N,GND*%
X-237910000Y-77430000D03*
%TO.P,J3,20*%
X-240450000Y-77430000D03*
%TO.P,J3,21*%
%TO.N,A_I+*%
X-237910000Y-79970000D03*
%TO.P,J3,22*%
%TO.N,Net-(J3-Pad22)*%
X-240450000Y-79970000D03*
%TO.P,J3,23*%
%TO.N,A_V+*%
X-237910000Y-82510000D03*
%TO.P,J3,24*%
%TO.N,Net-(J3-Pad24)*%
X-240450000Y-82510000D03*
%TO.P,J3,25*%
%TO.N,A_V-*%
X-237910000Y-85050000D03*
%TO.P,J3,26*%
%TO.N,Net-(J3-Pad26)*%
X-240450000Y-85050000D03*
%TO.P,J3,27*%
%TO.N,A_I-*%
X-237910000Y-87590000D03*
%TO.P,J3,28*%
%TO.N,Net-(J3-Pad28)*%
X-240450000Y-87590000D03*
%TD*%
%TO.P,J9,1*%
%TO.N,GND*%
%TA.AperFunction,ComponentPad*%
G36*
G01*
X-233465800Y-28752200D02*
X-233465800Y-31852200D01*
G75*
G02*
X-233715800Y-32102200I-250000J0D01*
G01*
X-235015800Y-32102200D01*
G75*
G02*
X-235265800Y-31852200I0J250000D01*
G01*
X-235265800Y-28752200D01*
G75*
G02*
X-235015800Y-28502200I250000J0D01*
G01*
X-233715800Y-28502200D01*
G75*
G02*
X-233465800Y-28752200I0J-250000D01*
G01*
G37*
%TD.AperFunction*%
D19*
%TO.P,J9,2*%
%TO.N,/Vin*%
X-237865800Y-30302200D03*
%TO.P,J9,3*%
%TO.N,Net-(J9-Pad3)*%
X-241365800Y-30302200D03*
%TO.P,J9,4*%
%TO.N,A_I-*%
X-244865800Y-30302200D03*
%TO.P,J9,5*%
%TO.N,A_I-_EXT*%
X-248365800Y-30302200D03*
%TO.P,J9,6*%
%TO.N,A_V-*%
X-251865800Y-30302200D03*
%TO.P,J9,7*%
%TO.N,A_V+*%
X-255365800Y-30302200D03*
%TO.P,J9,8*%
%TO.N,A_I+*%
X-258865800Y-30302200D03*
%TD*%
D12*
%TO.P,P3,2*%
%TO.N,GND*%
X-262500000Y-39120000D03*
D13*
%TO.P,P3,1*%
%TO.N,A_I-_EXT*%
X-262500000Y-36580000D03*
%TD*%
%TO.P,P4,1*%
%TO.N,A_I-_EXT*%
X-247300000Y-37840000D03*
D12*
%TO.P,P4,2*%
%TO.N,A_I-*%
X-244760000Y-37840000D03*
%TD*%
D13*
%TO.P,Temp_sensor1,1*%
%TO.N,+3V3*%
X-278020000Y-43150000D03*
D12*
%TO.P,Temp_sensor1,2*%
%TO.N,CLK0*%
X-278020000Y-45690000D03*
%TO.P,Temp_sensor1,3*%
%TO.N,GND*%
X-278020000Y-48230000D03*
%TD*%
D20*
%TO.P,C1,1*%
%TO.N,+5V*%
X-271780000Y-109982000D03*
D21*
%TO.P,C1,2*%
%TO.N,GND*%
X-270280000Y-109982000D03*
%TD*%
D13*
%TO.P,J5,1*%
%TO.N,GPIO6*%
X-198930000Y-87750000D03*
D12*
%TO.P,J5,2*%
%TO.N,GND*%
X-198930000Y-85210000D03*
%TD*%
D22*
%TO.N,+5V*%
X-276098000Y-109982000D03*
X-248706000Y-54316000D03*
X-265684000Y-54356000D03*
X-230124000Y-58674000D03*
X-235204000Y-54102000D03*
X-216662000Y-26670000D03*
%TO.N,GND*%
X-259850000Y-105480000D03*
X-326850000Y-53470000D03*
X-259040000Y-39080000D03*
X-278040000Y-51100000D03*
%TO.N,MISO*%
X-214690000Y-79150000D03*
X-224758000Y-70136000D03*
X-216890000Y-38888000D03*
%TO.N,SCK*%
X-228346000Y-49276000D03*
X-227330000Y-62230000D03*
%TO.N,A_V_D_EXT*%
X-206502000Y-45974000D03*
%TO.N,SDA*%
X-208000600Y-37719400D03*
X-224490000Y-38830000D03*
X-233132000Y-62190000D03*
X-231394000Y-49276000D03*
X-258318000Y-85090000D03*
X-273812000Y-103886000D03*
%TO.N,/Vin*%
X-237420000Y-24690000D03*
X-203890000Y-34860000D03*
%TO.N,MOSI*%
X-212109992Y-76700008D03*
X-208720000Y-65560000D03*
X-203470000Y-65530000D03*
X-219960000Y-39760000D03*
X-228238010Y-72790010D03*
%TO.N,SCL*%
X-243370000Y-59840000D03*
X-217540000Y-49480000D03*
X-208520000Y-54210000D03*
X-204340000Y-58750000D03*
X-226538000Y-64994000D03*
X-245110000Y-68326000D03*
X-254000000Y-85852000D03*
X-274320000Y-106934000D03*
%TO.N,~A_CS*%
X-201060000Y-37370000D03*
X-245364000Y-82296000D03*
%TO.N,A_V_D_LOC*%
X-297688000Y-105156000D03*
%TO.N,A_V_D*%
X-263906000Y-67056000D03*
%TO.N,A_I+*%
X-231350000Y-92910000D03*
X-241010000Y-102920000D03*
X-240490000Y-94536000D03*
X-234756000Y-78800000D03*
%TO.N,A_V-*%
X-239100000Y-99990000D03*
X-237150000Y-94700000D03*
%TO.N,A_I-*%
X-239910000Y-37700000D03*
X-287470000Y-40830000D03*
%TO.N,Net-(J4-Pad2)*%
X-275610000Y-61590000D03*
%TO.N,CLK0*%
X-214510000Y-61420000D03*
%TO.N,Net-(IC1-Pad9)*%
X-277320000Y-67120000D03*
X-261470000Y-55910000D03*
X-311658000Y-106680000D03*
%TO.N,Net-(IC1-Pad10)*%
X-294020000Y-71100000D03*
X-315214000Y-109982000D03*
%TO.N,Net-(IC1-Pad6)*%
X-295148000Y-103886000D03*
X-278810000Y-82976000D03*
%TO.N,Net-(IC1-Pad5)*%
X-292608000Y-104902000D03*
X-288544000Y-87884000D03*
%TO.N,Net-(IC1-Pad8)*%
X-305562000Y-103886000D03*
%TD*%
D23*
%TO.N,+5V*%
X-237910000Y-54570000D02*
X-240450000Y-54570000D01*
X-220500000Y-53810000D02*
X-220360000Y-53670000D01*
X-220360000Y-53670000D02*
X-222970000Y-53670000D01*
X-222970000Y-53670000D02*
X-223490000Y-54190000D01*
%TO.N,GND*%
X-210540600Y-29600600D02*
X-210540600Y-29616400D01*
X-278020000Y-48230000D02*
X-278020000Y-48300000D01*
X-278020000Y-48300000D02*
X-278040000Y-48320000D01*
X-278040000Y-48320000D02*
X-278040000Y-51100000D01*
%TO.N,+5V*%
X-282448000Y-109982000D02*
X-276098000Y-109982000D01*
D24*
X-240450000Y-54570000D02*
X-248706000Y-54570000D01*
D23*
X-248706000Y-54570000D02*
X-248706000Y-54316000D01*
D24*
X-276098000Y-109982000D02*
X-271780000Y-109982000D01*
D23*
X-265684000Y-54356000D02*
X-266700000Y-53340000D01*
D24*
X-266700000Y-53340000D02*
X-275570000Y-53340000D01*
D23*
X-275570000Y-53340000D02*
X-278810000Y-56580000D01*
D24*
X-222970000Y-53670000D02*
X-227660000Y-53670000D01*
X-227660000Y-53670000D02*
X-230124000Y-56134000D01*
D23*
X-230124000Y-56134000D02*
X-230124000Y-58674000D01*
X-237910000Y-54570000D02*
X-235672000Y-54570000D01*
X-235672000Y-54570000D02*
X-235204000Y-54102000D01*
X-215620600Y-29616400D02*
X-216509600Y-29616400D01*
X-216509600Y-29616400D02*
X-216662000Y-29464000D01*
X-216662000Y-29464000D02*
X-216662000Y-28072000D01*
X-216662000Y-28072000D02*
X-216662000Y-26670000D01*
X-216662000Y-26670000D02*
X-216662000Y-26670000D01*
%TO.N,GND*%
X-262500000Y-39120000D02*
X-259080000Y-39120000D01*
X-259080000Y-39120000D02*
X-259040000Y-39080000D01*
X-259040000Y-39080000D02*
X-258970000Y-39010000D01*
X-278040000Y-51100000D02*
X-278040000Y-51320000D01*
X-198930000Y-85210000D02*
X-194890000Y-85210000D01*
X-284988000Y-109982000D02*
X-284988000Y-112014000D01*
D24*
X-284988000Y-112014000D02*
X-284988000Y-112268000D01*
X-284988000Y-112268000D02*
X-282702000Y-114554000D01*
X-282702000Y-114554000D02*
X-270256000Y-114554000D01*
X-269494000Y-113792000D02*
X-269494000Y-109982000D01*
X-270256000Y-114554000D02*
X-269494000Y-113792000D01*
X-269494000Y-109982000D02*
X-267208000Y-109982000D01*
X-270280000Y-109982000D02*
X-269494000Y-109982000D01*
D23*
X-234365800Y-30302200D02*
X-234365800Y-28625800D01*
D24*
X-234365800Y-30302200D02*
X-234365800Y-19227800D01*
X-234365800Y-19227800D02*
X-234035600Y-19558000D01*
X-234035600Y-19558000D02*
X-210312000Y-19558000D01*
X-210312000Y-29387800D02*
X-210540600Y-29616400D01*
X-210312000Y-19558000D02*
X-210312000Y-29387800D01*
D23*
X-237910000Y-77430000D02*
X-240450000Y-77430000D01*
D24*
X-240450000Y-77430000D02*
X-245150000Y-77430000D01*
D23*
%TO.N,MISO*%
X-214770000Y-79070000D02*
X-214690000Y-79150000D01*
X-217820000Y-79070000D02*
X-214770000Y-79070000D01*
X-237910000Y-69810000D02*
X-235244000Y-69810000D01*
D24*
X-235244000Y-69810000D02*
X-227116000Y-69810000D01*
D23*
X-226790000Y-70136000D02*
X-227116000Y-69810000D01*
X-224758000Y-70136000D02*
X-226790000Y-70136000D01*
X-215620600Y-32156400D02*
X-215620600Y-32994600D01*
X-216890000Y-34264000D02*
X-216890000Y-38888000D01*
X-215620600Y-32994600D02*
X-216890000Y-34264000D01*
%TO.N,SCK*%
X-213080600Y-38520600D02*
X-213080600Y-32156400D01*
D24*
X-221120000Y-82370000D02*
X-220360000Y-81610000D01*
X-229796000Y-75766000D02*
X-229796000Y-82370000D01*
X-230672000Y-74890000D02*
X-229796000Y-75766000D01*
X-237910000Y-74890000D02*
X-230672000Y-74890000D01*
X-225732000Y-82370000D02*
X-225732000Y-75364000D01*
X-229796000Y-82370000D02*
X-225732000Y-82370000D01*
X-225732000Y-82370000D02*
X-221120000Y-82370000D01*
X-225732000Y-75364000D02*
X-222758000Y-72390000D01*
X-222758000Y-72390000D02*
X-222758000Y-63500000D01*
X-224282000Y-47244000D02*
X-227330000Y-47244000D01*
D23*
X-227330000Y-47244000D02*
X-227330000Y-48006000D01*
X-227330000Y-47244000D02*
X-227330000Y-48260000D01*
X-227330000Y-48260000D02*
X-228346000Y-49276000D01*
D24*
X-222758000Y-63500000D02*
X-223520000Y-63500000D01*
X-223520000Y-63500000D02*
X-223520000Y-62230000D01*
X-223520000Y-62230000D02*
X-226314000Y-62230000D01*
D23*
X-226314000Y-62230000D02*
X-226822000Y-62230000D01*
X-226314000Y-62230000D02*
X-227330000Y-62230000D01*
D24*
X-213080600Y-38520600D02*
X-213080600Y-41630600D01*
X-218694000Y-47244000D02*
X-224282000Y-47244000D01*
X-213080600Y-41630600D02*
X-218694000Y-47244000D01*
D23*
%TO.N,A_V_D_EXT*%
X-210540600Y-40899400D02*
X-210400600Y-40899400D01*
X-210540600Y-32156400D02*
X-210540600Y-40899400D01*
D24*
X-210540600Y-40899400D02*
X-209544600Y-40899400D01*
X-209544600Y-40899400D02*
X-207518000Y-42926000D01*
D23*
X-207518000Y-42926000D02*
X-207518000Y-44958000D01*
X-207518000Y-44958000D02*
X-206502000Y-45974000D01*
%TO.N,SDA*%
X-240450000Y-62190000D02*
X-237910000Y-62190000D01*
X-237910000Y-62190000D02*
X-233132000Y-62190000D01*
X-231470000Y-48670000D02*
X-231470000Y-40010000D01*
X-231470000Y-40010000D02*
X-230290000Y-38830000D01*
X-230290000Y-38830000D02*
X-224490000Y-38830000D01*
X-208000600Y-32156400D02*
X-208000600Y-37719400D01*
X-290068000Y-109982000D02*
X-290068000Y-105664000D01*
X-290068000Y-105664000D02*
X-289306000Y-105664000D01*
X-289306000Y-105664000D02*
X-287528000Y-103886000D01*
X-287528000Y-103886000D02*
X-273812000Y-103886000D01*
X-217820000Y-56210000D02*
X-212420000Y-56210000D01*
D24*
X-205308000Y-56210000D02*
X-202438000Y-53340000D01*
X-202438000Y-43282000D02*
X-208000600Y-37719400D01*
X-212420000Y-56210000D02*
X-205308000Y-56210000D01*
X-202438000Y-53340000D02*
X-202438000Y-43282000D01*
D23*
X-240450000Y-62190000D02*
X-242276000Y-62190000D01*
D24*
X-242276000Y-62190000D02*
X-250209990Y-70123990D01*
X-258318000Y-70612000D02*
X-258806010Y-70123990D01*
X-250209990Y-70123990D02*
X-258806010Y-70123990D01*
X-258318000Y-70612000D02*
X-258318000Y-84582000D01*
D23*
X-258318000Y-84582000D02*
X-258318000Y-85090000D01*
%TO.N,/Vin*%
X-237420000Y-29856400D02*
X-237865800Y-30302200D01*
X-237420000Y-24690000D02*
X-237420000Y-29856400D01*
X-203890000Y-34860000D02*
X-205180000Y-34860000D01*
X-205460600Y-34579400D02*
X-205460600Y-32156400D01*
X-205180000Y-34860000D02*
X-205460600Y-34579400D01*
%TO.N,MOSI*%
X-217610000Y-76740000D02*
X-217820000Y-76530000D01*
X-212280000Y-76530000D02*
X-212109992Y-76700008D01*
X-217820000Y-76530000D02*
X-212280000Y-76530000D01*
X-203500000Y-65560000D02*
X-203470000Y-65530000D01*
X-208720000Y-65560000D02*
X-203500000Y-65560000D01*
X-228238010Y-72790010D02*
X-229723990Y-72790010D01*
X-237910000Y-72350000D02*
X-236260000Y-72350000D01*
D24*
X-230164000Y-72350000D02*
X-229723990Y-72790010D01*
X-236260000Y-72350000D02*
X-230164000Y-72350000D01*
D23*
X-219960000Y-28117294D02*
X-219960000Y-39760000D01*
D24*
X-213080600Y-27152600D02*
X-213080600Y-29616400D01*
X-212090000Y-26162000D02*
X-213080600Y-27152600D01*
X-212090000Y-21336000D02*
X-212090000Y-26162000D01*
X-219194000Y-21336000D02*
X-212090000Y-21336000D01*
X-219960000Y-22102000D02*
X-219194000Y-21336000D01*
X-219960000Y-28117294D02*
X-219960000Y-22102000D01*
D23*
%TO.N,SCL*%
X-240640000Y-59840000D02*
X-240450000Y-59650000D01*
X-243370000Y-59840000D02*
X-240640000Y-59840000D01*
X-208000000Y-23300000D02*
X-208000600Y-23300600D01*
X-197570000Y-55100000D02*
X-197570000Y-23450000D01*
X-197720000Y-23300000D02*
X-208000000Y-23300000D01*
X-198861401Y-56391401D02*
X-197570000Y-55100000D01*
X-197570000Y-23450000D02*
X-197720000Y-23300000D01*
D24*
X-201981401Y-56391401D02*
X-198861401Y-56391401D01*
D23*
X-208000600Y-23300600D02*
X-208000600Y-29616400D01*
D24*
X-203340000Y-57750000D02*
X-201981401Y-56391401D01*
X-203820001Y-58230001D02*
X-203340000Y-57750000D01*
D23*
X-211260000Y-49480000D02*
X-211260000Y-51470000D01*
D24*
X-204340000Y-58750000D02*
X-203340000Y-57750000D01*
D23*
X-287528000Y-107696000D02*
X-285750000Y-107696000D01*
X-287528000Y-109982000D02*
X-287528000Y-107696000D01*
X-285750000Y-107696000D02*
X-284988000Y-106934000D01*
X-284988000Y-106934000D02*
X-274320000Y-106934000D01*
X-237910000Y-64730000D02*
X-235498000Y-64730000D01*
X-217540000Y-49480000D02*
X-211260000Y-49480000D01*
D24*
X-235498000Y-64730000D02*
X-229910000Y-64730000D01*
X-229616000Y-65024000D02*
X-229616000Y-65278000D01*
X-229910000Y-64730000D02*
X-229616000Y-65024000D01*
D23*
X-229586000Y-64994000D02*
X-229616000Y-65024000D01*
X-226538000Y-64994000D02*
X-229586000Y-64994000D01*
X-217820000Y-58750000D02*
X-215468000Y-58750000D01*
D24*
X-215468000Y-58750000D02*
X-207442000Y-58750000D01*
D23*
X-207442000Y-58750000D02*
X-204340000Y-58750000D01*
X-208520000Y-54210000D02*
X-211260000Y-51470000D01*
X-245110000Y-68326000D02*
X-245110000Y-68580000D01*
D24*
X-245110000Y-68326000D02*
X-248412000Y-71628000D01*
X-254000000Y-71628000D02*
X-254000000Y-85090000D01*
X-248412000Y-71628000D02*
X-254000000Y-71628000D01*
D23*
X-254000000Y-85090000D02*
X-254000000Y-85852000D01*
%TO.N,~A_CS*%
X-205460600Y-29616400D02*
X-201063600Y-29616400D01*
X-201063600Y-29616400D02*
X-201060000Y-29620000D01*
X-201060000Y-29620000D02*
X-201060000Y-37370000D01*
X-237910000Y-67270000D02*
X-240450000Y-67270000D01*
D24*
X-240450000Y-67270000D02*
X-241260000Y-67270000D01*
X-241260000Y-67270000D02*
X-242824000Y-68834000D01*
X-242824000Y-68834000D02*
X-242824000Y-72644000D01*
X-242824000Y-72644000D02*
X-243586000Y-73406000D01*
D23*
X-245364000Y-81280000D02*
X-245364000Y-82296000D01*
D24*
X-243586000Y-73406000D02*
X-246634000Y-73406000D01*
X-246634000Y-73406000D02*
X-248158000Y-74930000D01*
X-248158000Y-78486000D02*
X-245364000Y-81280000D01*
X-248158000Y-74930000D02*
X-248158000Y-78486000D01*
D23*
%TO.N,A_V_D_LOC*%
X-297688000Y-109982000D02*
X-297688000Y-105156000D01*
D24*
%TO.N,A_V_D*%
X-237910000Y-59650000D02*
X-240450000Y-57110000D01*
D23*
X-240450000Y-57110000D02*
X-247102000Y-57110000D01*
D24*
X-247102000Y-57110000D02*
X-247102000Y-60412000D01*
X-247102000Y-60412000D02*
X-253746000Y-67056000D01*
D23*
X-262636000Y-67056000D02*
X-263906000Y-67056000D01*
D24*
X-263906000Y-67056000D02*
X-264414000Y-67056000D01*
X-253746000Y-67056000D02*
X-262636000Y-67056000D01*
%TO.N,+3V3*%
X-237910000Y-57110000D02*
X-234020000Y-57110000D01*
D23*
X-282550000Y-30810000D02*
X-278170000Y-30810000D01*
X-278170000Y-30810000D02*
X-278020000Y-30960000D01*
X-217290000Y-53140000D02*
X-217820000Y-53670000D01*
X-237680000Y-50880000D02*
X-238200000Y-50360000D01*
X-233100000Y-50880000D02*
X-237680000Y-50880000D01*
D24*
X-232490000Y-51490000D02*
X-233100000Y-50880000D01*
X-217920000Y-51490000D02*
X-232490000Y-51490000D01*
X-217820000Y-51590000D02*
X-217920000Y-51490000D01*
X-217820000Y-53670000D02*
X-217820000Y-51590000D01*
X-233100000Y-56190000D02*
X-234020000Y-57110000D01*
X-233100000Y-50880000D02*
X-233100000Y-56190000D01*
X-272356000Y-43400000D02*
X-278020000Y-37736000D01*
X-272356000Y-50360000D02*
X-272356000Y-43400000D01*
D23*
X-278020000Y-30960000D02*
X-278020000Y-37736000D01*
X-238200000Y-50360000D02*
X-272356000Y-50360000D01*
X-278020000Y-37736000D02*
X-278020000Y-43150000D01*
X-272356000Y-50360000D02*
X-274080000Y-50360000D01*
D24*
%TO.N,A_I+*%
X-237910000Y-79970000D02*
X-236740000Y-78800000D01*
X-236740000Y-78800000D02*
X-235810000Y-78800000D01*
D23*
X-258865800Y-30302200D02*
X-258865800Y-20044200D01*
X-258865800Y-20044200D02*
X-301755800Y-20044200D01*
X-301755800Y-20044200D02*
X-341681600Y-59970000D01*
X-341681600Y-59970000D02*
X-341681600Y-80898400D01*
X-341681600Y-80898400D02*
X-328620000Y-93960000D01*
X-231350000Y-101220000D02*
X-233050000Y-102920000D01*
X-233050000Y-102920000D02*
X-241010000Y-102920000D01*
X-247122000Y-93960000D02*
X-246654000Y-93960000D01*
D24*
X-328620000Y-93960000D02*
X-247122000Y-93960000D01*
D23*
X-246078000Y-94536000D02*
X-240490000Y-94536000D01*
X-246654000Y-93960000D02*
X-246078000Y-94536000D01*
X-235810000Y-78800000D02*
X-234756000Y-78800000D01*
X-231350000Y-101220000D02*
X-231350000Y-100032000D01*
X-231350000Y-100032000D02*
X-230632000Y-99314000D01*
X-230632000Y-93628000D02*
X-231350000Y-92910000D01*
X-230632000Y-99314000D02*
X-230632000Y-93628000D01*
D24*
%TO.N,A_V+*%
X-233630000Y-84960000D02*
X-236080000Y-82510000D01*
D23*
X-312272188Y-27132188D02*
X-344750000Y-59610000D01*
D24*
X-233630000Y-96190000D02*
X-233630000Y-84960000D01*
D23*
X-234790000Y-97350000D02*
X-233630000Y-96190000D01*
X-236080000Y-82510000D02*
X-237910000Y-82510000D01*
X-344750000Y-59610000D02*
X-344750000Y-82680000D01*
X-330080000Y-97350000D02*
X-234790000Y-97350000D01*
X-255365800Y-30302200D02*
X-255365800Y-18265800D01*
X-254700000Y-17600000D02*
X-302760000Y-17600000D01*
X-312272188Y-27112188D02*
X-312272188Y-27132188D01*
X-255365800Y-18265800D02*
X-254700000Y-17600000D01*
X-344750000Y-82680000D02*
X-330080000Y-97350000D01*
X-302760000Y-17600000D02*
X-312272188Y-27112188D01*
%TO.N,A_V-*%
X-237910000Y-85050000D02*
X-236670000Y-85050000D01*
D24*
X-236670000Y-85050000D02*
X-235170000Y-86550000D01*
X-235170000Y-86550000D02*
X-235170000Y-92720000D01*
D23*
X-237200000Y-94750000D02*
X-237150000Y-94700000D01*
X-251865800Y-30302200D02*
X-251865800Y-15694200D01*
X-251865800Y-15694200D02*
X-251881600Y-15710000D01*
D24*
X-251881600Y-15710000D02*
X-305240000Y-15710000D01*
D23*
X-305240000Y-15710000D02*
X-305450000Y-15710000D01*
X-305450000Y-15710000D02*
X-347370000Y-57630000D01*
X-347370000Y-57630000D02*
X-347370000Y-83530000D01*
X-347370000Y-83530000D02*
X-330910000Y-99990000D01*
X-330910000Y-99990000D02*
X-239100000Y-99990000D01*
D24*
X-237150000Y-94700000D02*
X-235170000Y-92720000D01*
D23*
%TO.N,A_I-*%
X-244865800Y-37734200D02*
X-244760000Y-37840000D01*
X-244865800Y-30302200D02*
X-244865800Y-37734200D01*
X-240050000Y-37840000D02*
X-239910000Y-37700000D01*
X-244760000Y-37840000D02*
X-240050000Y-37840000D01*
X-249021600Y-44780200D02*
X-245050200Y-44780200D01*
X-244760000Y-44490000D02*
X-244760000Y-37840000D01*
X-245050200Y-44780200D02*
X-244760000Y-44490000D01*
D24*
X-237910000Y-87590000D02*
X-237910000Y-92730000D01*
X-237910000Y-92730000D02*
X-242220000Y-92730000D01*
X-242220000Y-92730000D02*
X-243350000Y-91600000D01*
D23*
X-243350000Y-91260000D02*
X-243240000Y-91150000D01*
X-243350000Y-91600000D02*
X-243350000Y-91260000D01*
X-243240000Y-91150000D02*
X-328150000Y-91150000D01*
X-328150000Y-91150000D02*
X-338190000Y-81110000D01*
X-338190000Y-81110000D02*
X-338190000Y-80860000D01*
X-338190000Y-80860000D02*
X-338940000Y-80110000D01*
X-338940000Y-80110000D02*
X-338940000Y-61340000D01*
X-338940000Y-61340000D02*
X-318430000Y-40830000D01*
X-318430000Y-40830000D02*
X-287470000Y-40830000D01*
%TO.N,A_I-_EXT*%
X-248365800Y-33934200D02*
X-248365800Y-30302200D01*
X-247300000Y-35000000D02*
X-248365800Y-33934200D01*
X-247300000Y-35670000D02*
X-247300000Y-35000000D01*
X-247300000Y-37840000D02*
X-247300000Y-35670000D01*
X-262394400Y-36474400D02*
X-262500000Y-36580000D01*
X-251894400Y-36474400D02*
X-262394400Y-36474400D01*
X-251090000Y-35670000D02*
X-251894400Y-36474400D01*
X-247300000Y-35670000D02*
X-251090000Y-35670000D01*
X-262500000Y-36580000D02*
X-268780000Y-36580000D01*
X-269341600Y-37141600D02*
X-269341600Y-44780200D01*
X-268780000Y-36580000D02*
X-269341600Y-37141600D01*
%TO.N,CLK0*%
X-278020000Y-45690000D02*
X-283600000Y-45690000D01*
X-283600000Y-45690000D02*
X-283890000Y-45400000D01*
X-283890000Y-45400000D02*
X-283890000Y-38020000D01*
X-283890000Y-38020000D02*
X-283900000Y-38010000D01*
X-214640000Y-61290000D02*
X-214510000Y-61420000D01*
X-217820000Y-61290000D02*
X-214640000Y-61290000D01*
X-302870000Y-30810000D02*
X-302870000Y-36590000D01*
X-302870000Y-36590000D02*
X-301450000Y-38010000D01*
X-283900000Y-38010000D02*
X-301450000Y-38010000D01*
%TO.N,GPIO6*%
X-198958200Y-87778200D02*
X-198930000Y-87750000D01*
X-198958200Y-92098200D02*
X-198958200Y-87778200D01*
X-199080000Y-92220000D02*
X-198958200Y-92098200D01*
X-204176000Y-91770000D02*
X-203726000Y-92220000D01*
X-217820000Y-91770000D02*
X-204176000Y-91770000D01*
X-199080000Y-92220000D02*
X-203726000Y-92220000D01*
%TO.N,Net-(IC1-Pad9)*%
X-277320000Y-67120000D02*
X-272680000Y-67120000D01*
X-272680000Y-67120000D02*
X-261470000Y-55910000D01*
X-302768000Y-106680000D02*
X-311658000Y-106680000D01*
X-302768000Y-109982000D02*
X-302768000Y-106680000D01*
%TO.N,Net-(IC1-Pad10)*%
X-305308000Y-109982000D02*
X-315214000Y-109982000D01*
%TO.N,Net-(IC1-Pad6)*%
X-295148000Y-109982000D02*
X-295148000Y-103886000D01*
X-278810000Y-76900000D02*
X-278810000Y-82976000D01*
%TO.N,Net-(IC1-Pad5)*%
X-292608000Y-109982000D02*
X-292608000Y-104902000D01*
X-288544000Y-87884000D02*
X-288544000Y-87630000D01*
X-288544000Y-87630000D02*
X-289306000Y-86868000D01*
D24*
X-289306000Y-86868000D02*
X-290576000Y-86868000D01*
X-290576000Y-86868000D02*
X-290576000Y-86360000D01*
X-290576000Y-86360000D02*
X-296926000Y-80010000D01*
X-296926000Y-80010000D02*
X-297180000Y-80010000D01*
D23*
X-299690000Y-76290000D02*
X-303620000Y-76290000D01*
X-303620000Y-76290000D02*
X-304546000Y-77216000D01*
D24*
X-301752000Y-80010000D02*
X-304546000Y-77216000D01*
X-296926000Y-80010000D02*
X-301752000Y-80010000D01*
D23*
%TO.N,Net-(IC1-Pad8)*%
X-300228000Y-109982000D02*
X-300228000Y-105156000D01*
X-300228000Y-105156000D02*
X-301498000Y-103886000D01*
X-301498000Y-103886000D02*
X-305562000Y-103886000D01*
%TD*%
D25*
%TO.N,GND*%
X-185336936Y-10229196D02*
X-185010004Y-25981357D01*
X-185209977Y-104370408D01*
X-186819923Y-117153530D01*
X-329452415Y-118267027D01*
X-351961107Y-96545230D01*
X-352639911Y-57630000D01*
X-349530402Y-57630000D01*
X-349520000Y-57735612D01*
X-349519999Y-83424378D01*
X-349530402Y-83530000D01*
X-349488890Y-83951473D01*
X-349365951Y-84356749D01*
X-349302045Y-84476309D01*
X-349166308Y-84730255D01*
X-348897634Y-85057635D01*
X-348815597Y-85124961D01*
X-332504961Y-101435598D01*
X-332437635Y-101517635D01*
X-332110255Y-101786309D01*
X-331736750Y-101985951D01*
X-331331474Y-102108890D01*
X-331015612Y-102140000D01*
X-331015605Y-102140000D01*
X-330910001Y-102150401D01*
X-330804396Y-102140000D01*
X-306823557Y-102140000D01*
X-307089635Y-102358365D01*
X-307358309Y-102685745D01*
X-307557951Y-103059250D01*
X-307680890Y-103464526D01*
X-307722402Y-103886000D01*
X-307680890Y-104307474D01*
X-307613388Y-104530000D01*
X-311763612Y-104530000D01*
X-312079474Y-104561110D01*
X-312484750Y-104684049D01*
X-312858255Y-104883691D01*
X-313185635Y-105152365D01*
X-313454309Y-105479745D01*
X-313653951Y-105853250D01*
X-313776890Y-106258526D01*
X-313818402Y-106680000D01*
X-313776890Y-107101474D01*
X-313653951Y-107506750D01*
X-313480102Y-107832000D01*
X-315319612Y-107832000D01*
X-315635474Y-107863110D01*
X-316040750Y-107986049D01*
X-316414255Y-108185691D01*
X-316741635Y-108454365D01*
X-317010309Y-108781745D01*
X-317209951Y-109155250D01*
X-317332890Y-109560526D01*
X-317374402Y-109982000D01*
X-317332890Y-110403474D01*
X-317209951Y-110808750D01*
X-317010309Y-111182255D01*
X-316741635Y-111509635D01*
X-316414255Y-111778309D01*
X-316040750Y-111977951D01*
X-315635474Y-112100890D01*
X-315319612Y-112132000D01*
X-305202388Y-112132000D01*
X-304886526Y-112100890D01*
X-304481250Y-111977951D01*
X-304107745Y-111778309D01*
X-304038000Y-111721071D01*
X-303968255Y-111778309D01*
X-303594750Y-111977951D01*
X-303189474Y-112100890D01*
X-302768000Y-112142402D01*
X-302346527Y-112100890D01*
X-301941251Y-111977951D01*
X-301567745Y-111778309D01*
X-301498000Y-111721071D01*
X-301428255Y-111778309D01*
X-301054750Y-111977951D01*
X-300649474Y-112100890D01*
X-300228000Y-112142402D01*
X-299806527Y-112100890D01*
X-299401251Y-111977951D01*
X-299027745Y-111778309D01*
X-298958000Y-111721071D01*
X-298888255Y-111778309D01*
X-298514750Y-111977951D01*
X-298109474Y-112100890D01*
X-297688000Y-112142402D01*
X-297266527Y-112100890D01*
X-296861251Y-111977951D01*
X-296487745Y-111778309D01*
X-296418000Y-111721071D01*
X-296348255Y-111778309D01*
X-295974750Y-111977951D01*
X-295569474Y-112100890D01*
X-295148000Y-112142402D01*
X-294726527Y-112100890D01*
X-294321251Y-111977951D01*
X-293947745Y-111778309D01*
X-293878000Y-111721071D01*
X-293808255Y-111778309D01*
X-293434750Y-111977951D01*
X-293029474Y-112100890D01*
X-292608000Y-112142402D01*
X-292186527Y-112100890D01*
X-291781251Y-111977951D01*
X-291407745Y-111778309D01*
X-291338000Y-111721071D01*
X-291268255Y-111778309D01*
X-290894750Y-111977951D01*
X-290489474Y-112100890D01*
X-290068000Y-112142402D01*
X-289646527Y-112100890D01*
X-289241251Y-111977951D01*
X-288867745Y-111778309D01*
X-288798000Y-111721071D01*
X-288728255Y-111778309D01*
X-288354750Y-111977951D01*
X-287949474Y-112100890D01*
X-287528000Y-112142402D01*
X-287106527Y-112100890D01*
X-286701251Y-111977951D01*
X-286327745Y-111778309D01*
X-286119581Y-111607473D01*
X-286118102Y-111622517D01*
X-285776339Y-111811467D01*
X-285404279Y-111930112D01*
X-285016223Y-111973892D01*
X-284627083Y-111941124D01*
X-284251811Y-111833068D01*
X-283904831Y-111653878D01*
X-283857898Y-111622517D01*
X-283856419Y-111607473D01*
X-283648255Y-111778309D01*
X-283274750Y-111977951D01*
X-282869474Y-112100890D01*
X-282553612Y-112132000D01*
X-275992388Y-112132000D01*
X-275676526Y-112100890D01*
X-275271250Y-111977951D01*
X-274897745Y-111778309D01*
X-274719467Y-111632000D01*
X-272855146Y-111632000D01*
X-272822215Y-111649602D01*
X-272605439Y-111715360D01*
X-272380000Y-111737564D01*
X-271180000Y-111737564D01*
X-270954561Y-111715360D01*
X-270774934Y-111660871D01*
X-270641722Y-111702862D01*
X-270299048Y-111740364D01*
X-269955642Y-111710293D01*
X-269624701Y-111613805D01*
X-269318943Y-111454608D01*
X-269287267Y-111433444D01*
X-269275825Y-111056886D01*
X-270024436Y-110308275D01*
X-270024436Y-110166853D01*
X-269205114Y-110986175D01*
X-268828556Y-110974733D01*
X-268662773Y-110672495D01*
X-268559138Y-110343722D01*
X-268521636Y-110001048D01*
X-268551707Y-109657642D01*
X-268648195Y-109326701D01*
X-268807392Y-109020943D01*
X-268828556Y-108989267D01*
X-269205114Y-108977825D01*
X-270024436Y-109797147D01*
X-270024436Y-109655725D01*
X-269275825Y-108907114D01*
X-269287267Y-108530556D01*
X-269589505Y-108364773D01*
X-269918278Y-108261138D01*
X-270260952Y-108223636D01*
X-270604358Y-108253707D01*
X-270774412Y-108303287D01*
X-270954561Y-108248640D01*
X-271180000Y-108226436D01*
X-272380000Y-108226436D01*
X-272605439Y-108248640D01*
X-272621584Y-108253537D01*
X-272523691Y-108134255D01*
X-272324049Y-107760750D01*
X-272201110Y-107355474D01*
X-272159598Y-106934000D01*
X-272201110Y-106512526D01*
X-272324049Y-106107250D01*
X-272523691Y-105733745D01*
X-272584353Y-105659829D01*
X-272284365Y-105413635D01*
X-272015691Y-105086255D01*
X-271816049Y-104712750D01*
X-271693110Y-104307474D01*
X-271651598Y-103886000D01*
X-271693110Y-103464526D01*
X-271816049Y-103059250D01*
X-272015691Y-102685745D01*
X-272284365Y-102358365D01*
X-272550443Y-102140000D01*
X-243020132Y-102140000D01*
X-243128890Y-102498526D01*
X-243170402Y-102920000D01*
X-243128890Y-103341474D01*
X-243005951Y-103746750D01*
X-242806309Y-104120255D01*
X-242537635Y-104447635D01*
X-242210255Y-104716309D01*
X-241836750Y-104915951D01*
X-241431474Y-105038890D01*
X-241115612Y-105070000D01*
X-233155612Y-105070000D01*
X-233050000Y-105080402D01*
X-232944388Y-105070000D01*
X-232628526Y-105038890D01*
X-232223250Y-104915951D01*
X-231849745Y-104716309D01*
X-231522365Y-104447635D01*
X-231455034Y-104365592D01*
X-229904403Y-102814962D01*
X-229822365Y-102747635D01*
X-229553691Y-102420255D01*
X-229354049Y-102046750D01*
X-229231110Y-101641474D01*
X-229200000Y-101325612D01*
X-229200000Y-101325611D01*
X-229189598Y-101220001D01*
X-229200000Y-101114389D01*
X-229200000Y-100922558D01*
X-229186408Y-100908966D01*
X-229104365Y-100841635D01*
X-228835691Y-100514255D01*
X-228636049Y-100140750D01*
X-228513110Y-99735474D01*
X-228482000Y-99419612D01*
X-228482000Y-99419606D01*
X-228471599Y-99314001D01*
X-228482000Y-99208396D01*
X-228482000Y-93733604D01*
X-228471599Y-93627999D01*
X-228482000Y-93522394D01*
X-228482000Y-93522388D01*
X-228513110Y-93206526D01*
X-228523472Y-93172365D01*
X-228559544Y-93053455D01*
X-228636049Y-92801250D01*
X-228835691Y-92427745D01*
X-229104365Y-92100365D01*
X-229186408Y-92033034D01*
X-229904400Y-91315042D01*
X-230149746Y-91113692D01*
X-230523251Y-90914049D01*
X-230928527Y-90791110D01*
X-231350000Y-90749598D01*
X-231771473Y-90791110D01*
X-231980000Y-90854366D01*
X-231980000Y-85041041D01*
X-231972018Y-84959999D01*
X-231980000Y-84878957D01*
X-231980000Y-84878948D01*
X-232003875Y-84636544D01*
X-232098223Y-84325517D01*
X-232251438Y-84038874D01*
X-232457629Y-83787629D01*
X-232520588Y-83735960D01*
X-233938504Y-82318044D01*
X-233961110Y-82088526D01*
X-234084049Y-81683250D01*
X-234283691Y-81309745D01*
X-234552365Y-80982365D01*
X-234598080Y-80944848D01*
X-234334526Y-80918890D01*
X-233929250Y-80795951D01*
X-233555745Y-80596309D01*
X-233228365Y-80327635D01*
X-232959691Y-80000255D01*
X-232760049Y-79626750D01*
X-232637110Y-79221474D01*
X-232595598Y-78800000D01*
X-232637110Y-78378526D01*
X-232760049Y-77973250D01*
X-232959691Y-77599745D01*
X-233228365Y-77272365D01*
X-233555745Y-77003691D01*
X-233929250Y-76804049D01*
X-234334526Y-76681110D01*
X-234650388Y-76650000D01*
X-235915612Y-76650000D01*
X-236064939Y-76664708D01*
X-236073347Y-76638349D01*
X-236127734Y-76540000D01*
X-231446000Y-76540000D01*
X-231445999Y-82288938D01*
X-231453983Y-82370000D01*
X-231422125Y-82693456D01*
X-231327777Y-83004483D01*
X-231174562Y-83291126D01*
X-230968371Y-83542371D01*
X-230717126Y-83748562D01*
X-230430483Y-83901777D01*
X-230119456Y-83996125D01*
X-229877052Y-84020000D01*
X-229796000Y-84027983D01*
X-229714948Y-84020000D01*
X-225813052Y-84020000D01*
X-225732000Y-84027983D01*
X-225650948Y-84020000D01*
X-222360000Y-84020000D01*
X-222360000Y-84346983D01*
X-222283141Y-84733378D01*
X-222132377Y-85097355D01*
X-221916792Y-85420000D01*
X-222132377Y-85742645D01*
X-222283141Y-86106622D01*
X-222360000Y-86493017D01*
X-222360000Y-86886983D01*
X-222283141Y-87273378D01*
X-222132377Y-87637355D01*
X-221916792Y-87960000D01*
X-222132377Y-88282645D01*
X-222283141Y-88646622D01*
X-222360000Y-89033017D01*
X-222360000Y-89426983D01*
X-222283141Y-89813378D01*
X-222132377Y-90177355D01*
X-221916792Y-90500000D01*
X-222132377Y-90822645D01*
X-222283141Y-91186622D01*
X-222360000Y-91573017D01*
X-222360000Y-91966983D01*
X-222283141Y-92353378D01*
X-222132377Y-92717355D01*
X-221916792Y-93040000D01*
X-222132377Y-93362645D01*
X-222283141Y-93726622D01*
X-222360000Y-94113017D01*
X-222360000Y-94506983D01*
X-222283141Y-94893378D01*
X-222132377Y-95257355D01*
X-221916792Y-95580000D01*
X-222132377Y-95902645D01*
X-222283141Y-96266622D01*
X-222360000Y-96653017D01*
X-222360000Y-97046983D01*
X-222283141Y-97433378D01*
X-222132377Y-97797355D01*
X-221916792Y-98120000D01*
X-222132377Y-98442645D01*
X-222283141Y-98806622D01*
X-222360000Y-99193017D01*
X-222360000Y-99586983D01*
X-222283141Y-99973378D01*
X-222132377Y-100337355D01*
X-221916792Y-100660000D01*
X-222132377Y-100982645D01*
X-222283141Y-101346622D01*
X-222360000Y-101733017D01*
X-222360000Y-102126983D01*
X-222283141Y-102513378D01*
X-222132377Y-102877355D01*
X-221913501Y-103204926D01*
X-221634926Y-103483501D01*
X-221307355Y-103702377D01*
X-220943378Y-103853141D01*
X-220556983Y-103930000D01*
X-220163017Y-103930000D01*
X-219776622Y-103853141D01*
X-219412645Y-103702377D01*
X-219085074Y-103483501D01*
X-219075851Y-103474278D01*
X-218907304Y-103608624D01*
X-218558928Y-103788492D01*
X-218182156Y-103896939D01*
X-217870000Y-103641876D01*
X-217870000Y-101980000D01*
X-217770000Y-101980000D01*
X-217770000Y-103641876D01*
X-217457844Y-103896939D01*
X-217081072Y-103788492D01*
X-216732696Y-103608624D01*
X-216426105Y-103364247D01*
X-216173081Y-103064753D01*
X-215983347Y-102721651D01*
X-215864194Y-102348126D01*
X-215853062Y-102292156D01*
X-216108230Y-101980000D01*
X-217770000Y-101980000D01*
X-217870000Y-101980000D01*
X-217890000Y-101980000D01*
X-217890000Y-101880000D01*
X-217870000Y-101880000D01*
X-217870000Y-101860000D01*
X-217770000Y-101860000D01*
X-217770000Y-101880000D01*
X-216108230Y-101880000D01*
X-215853062Y-101567844D01*
X-215864194Y-101511874D01*
X-215983347Y-101138349D01*
X-216173081Y-100795247D01*
X-216275542Y-100673969D01*
X-216266499Y-100664926D01*
X-216047623Y-100337355D01*
X-215896859Y-99973378D01*
X-215820000Y-99586983D01*
X-215820000Y-99193017D01*
X-215896859Y-98806622D01*
X-216047623Y-98442645D01*
X-216263208Y-98120000D01*
X-216047623Y-97797355D01*
X-215896859Y-97433378D01*
X-215820000Y-97046983D01*
X-215820000Y-96653017D01*
X-215896859Y-96266622D01*
X-216047623Y-95902645D01*
X-216263208Y-95580000D01*
X-216047623Y-95257355D01*
X-215896859Y-94893378D01*
X-215820000Y-94506983D01*
X-215820000Y-94113017D01*
X-215858394Y-93920000D01*
X-205043608Y-93920000D01*
X-204926255Y-94016309D01*
X-204552750Y-94215951D01*
X-204147474Y-94338890D01*
X-203726001Y-94380402D01*
X-203620389Y-94370000D01*
X-199185612Y-94370000D01*
X-199080000Y-94380402D01*
X-198974388Y-94370000D01*
X-198658526Y-94338890D01*
X-198253250Y-94215951D01*
X-197879745Y-94016309D01*
X-197552365Y-93747635D01*
X-197497463Y-93680737D01*
X-197430565Y-93625835D01*
X-197161891Y-93298455D01*
X-196962249Y-92924950D01*
X-196839310Y-92519674D01*
X-196808200Y-92203812D01*
X-196808200Y-92203805D01*
X-196797799Y-92098201D01*
X-196808200Y-91992596D01*
X-196808200Y-88141928D01*
X-196769598Y-87750000D01*
X-196811110Y-87328527D01*
X-196924436Y-86954940D01*
X-196924436Y-86900000D01*
X-196946640Y-86674561D01*
X-197012398Y-86457785D01*
X-197119184Y-86258003D01*
X-197188441Y-86173613D01*
X-197093347Y-86001651D01*
X-196974194Y-85628126D01*
X-196963062Y-85572156D01*
X-197218230Y-85260000D01*
X-198880000Y-85260000D01*
X-198880000Y-85280000D01*
X-198980000Y-85280000D01*
X-198980000Y-85260000D01*
X-200641770Y-85260000D01*
X-200896938Y-85572156D01*
X-200885806Y-85628126D01*
X-200766653Y-86001651D01*
X-200671559Y-86173613D01*
X-200740816Y-86258003D01*
X-200847602Y-86457785D01*
X-200913360Y-86674561D01*
X-200935564Y-86900000D01*
X-200935564Y-86916677D01*
X-200954151Y-86951451D01*
X-201077090Y-87356727D01*
X-201118602Y-87778200D01*
X-201108199Y-87883822D01*
X-201108200Y-90070000D01*
X-202858392Y-90070000D01*
X-202975745Y-89973691D01*
X-203349250Y-89774049D01*
X-203754526Y-89651110D01*
X-204070388Y-89620000D01*
X-204176000Y-89609598D01*
X-204281612Y-89620000D01*
X-215858394Y-89620000D01*
X-215820000Y-89426983D01*
X-215820000Y-89033017D01*
X-215896859Y-88646622D01*
X-216047623Y-88282645D01*
X-216263208Y-87960000D01*
X-216047623Y-87637355D01*
X-215896859Y-87273378D01*
X-215820000Y-86886983D01*
X-215820000Y-86493017D01*
X-215896859Y-86106622D01*
X-216047623Y-85742645D01*
X-216263208Y-85420000D01*
X-216047623Y-85097355D01*
X-215944273Y-84847844D01*
X-200896938Y-84847844D01*
X-200641770Y-85160000D01*
X-198980000Y-85160000D01*
X-198980000Y-83498124D01*
X-198880000Y-83498124D01*
X-198880000Y-85160000D01*
X-197218230Y-85160000D01*
X-196963062Y-84847844D01*
X-196974194Y-84791874D01*
X-197093347Y-84418349D01*
X-197283081Y-84075247D01*
X-197536105Y-83775753D01*
X-197842696Y-83531376D01*
X-198191072Y-83351508D01*
X-198567844Y-83243061D01*
X-198880000Y-83498124D01*
X-198980000Y-83498124D01*
X-199292156Y-83243061D01*
X-199668928Y-83351508D01*
X-200017304Y-83531376D01*
X-200323895Y-83775753D01*
X-200576919Y-84075247D01*
X-200766653Y-84418349D01*
X-200885806Y-84791874D01*
X-200896938Y-84847844D01*
X-215944273Y-84847844D01*
X-215896859Y-84733378D01*
X-215820000Y-84346983D01*
X-215820000Y-83953017D01*
X-215896859Y-83566622D01*
X-216047623Y-83202645D01*
X-216263208Y-82880000D01*
X-216047623Y-82557355D01*
X-215896859Y-82193378D01*
X-215820000Y-81806983D01*
X-215820000Y-81413017D01*
X-215858394Y-81220000D01*
X-215272641Y-81220000D01*
X-215111473Y-81268890D01*
X-214690001Y-81310402D01*
X-214268527Y-81268890D01*
X-213863251Y-81145950D01*
X-213489746Y-80946308D01*
X-213162366Y-80677634D01*
X-212893692Y-80350254D01*
X-212694050Y-79976749D01*
X-212571110Y-79571473D01*
X-212529598Y-79149999D01*
X-212563156Y-78809285D01*
X-212531465Y-78818898D01*
X-212109992Y-78860410D01*
X-211688518Y-78818898D01*
X-211283242Y-78695959D01*
X-210909738Y-78496316D01*
X-210582357Y-78227643D01*
X-210313684Y-77900262D01*
X-210114041Y-77526758D01*
X-209991102Y-77121482D01*
X-209949590Y-76700008D01*
X-209991102Y-76278535D01*
X-210114041Y-75873259D01*
X-210313684Y-75499754D01*
X-210515034Y-75254408D01*
X-210685034Y-75084408D01*
X-210752365Y-75002365D01*
X-211079745Y-74733691D01*
X-211453250Y-74534049D01*
X-211858526Y-74411110D01*
X-212174388Y-74380000D01*
X-212280000Y-74369598D01*
X-212385612Y-74380000D01*
X-215858394Y-74380000D01*
X-215820000Y-74186983D01*
X-215820000Y-73793017D01*
X-215896859Y-73406622D01*
X-216047623Y-73042645D01*
X-216263208Y-72720000D01*
X-216047623Y-72397355D01*
X-215896859Y-72033378D01*
X-215820000Y-71646983D01*
X-215820000Y-71253017D01*
X-215896859Y-70866622D01*
X-216047623Y-70502645D01*
X-216263208Y-70180000D01*
X-216047623Y-69857355D01*
X-215896859Y-69493378D01*
X-215820000Y-69106983D01*
X-215820000Y-68713017D01*
X-215896859Y-68326622D01*
X-216047623Y-67962645D01*
X-216263208Y-67640000D01*
X-216047623Y-67317355D01*
X-215896859Y-66953378D01*
X-215820000Y-66566983D01*
X-215820000Y-66173017D01*
X-215896859Y-65786622D01*
X-215990728Y-65560000D01*
X-210880402Y-65560000D01*
X-210838890Y-65981474D01*
X-210715951Y-66386750D01*
X-210516309Y-66760255D01*
X-210247635Y-67087635D01*
X-209920255Y-67356309D01*
X-209546750Y-67555951D01*
X-209141474Y-67678890D01*
X-208825612Y-67710000D01*
X-203605612Y-67710000D01*
X-203500000Y-67720402D01*
X-203394388Y-67710000D01*
X-203078526Y-67678890D01*
X-202673250Y-67555951D01*
X-202299745Y-67356309D01*
X-201972365Y-67087635D01*
X-201905034Y-67005592D01*
X-201875042Y-66975600D01*
X-201673692Y-66730254D01*
X-201474050Y-66356750D01*
X-201351110Y-65951474D01*
X-201309599Y-65530001D01*
X-201351110Y-65108527D01*
X-201474050Y-64703251D01*
X-201673692Y-64329746D01*
X-201942366Y-64002366D01*
X-202269746Y-63733692D01*
X-202643251Y-63534050D01*
X-203048527Y-63411110D01*
X-203470001Y-63369599D01*
X-203880204Y-63410000D01*
X-208825612Y-63410000D01*
X-209141474Y-63441110D01*
X-209546750Y-63564049D01*
X-209920255Y-63763691D01*
X-210247635Y-64032365D01*
X-210516309Y-64359745D01*
X-210715951Y-64733250D01*
X-210838890Y-65138526D01*
X-210880402Y-65560000D01*
X-215990728Y-65560000D01*
X-216047623Y-65422645D01*
X-216263208Y-65100000D01*
X-216047623Y-64777355D01*
X-215896859Y-64413378D01*
X-215820000Y-64026983D01*
X-215820000Y-63633017D01*
X-215858394Y-63440000D01*
X-215257470Y-63440000D01*
X-214931473Y-63538890D01*
X-214510000Y-63580402D01*
X-214088527Y-63538890D01*
X-213683250Y-63415951D01*
X-213309746Y-63216308D01*
X-212982365Y-62947635D01*
X-212713692Y-62620254D01*
X-212514049Y-62246750D01*
X-212391110Y-61841473D01*
X-212349598Y-61420000D01*
X-212391110Y-60998527D01*
X-212514049Y-60593251D01*
X-212617344Y-60400000D01*
X-208820533Y-60400000D01*
X-208642255Y-60546309D01*
X-208268750Y-60745951D01*
X-207863474Y-60868890D01*
X-207547612Y-60900000D01*
X-204234388Y-60900000D01*
X-203918526Y-60868890D01*
X-203513250Y-60745951D01*
X-203139745Y-60546309D01*
X-202812365Y-60277635D01*
X-202543691Y-59950255D01*
X-202344049Y-59576750D01*
X-202221110Y-59171474D01*
X-202198504Y-58941955D01*
X-202115962Y-58859413D01*
X-201297949Y-58041401D01*
X-200239932Y-58041401D01*
X-200061655Y-58187709D01*
X-199688150Y-58387352D01*
X-199282874Y-58510291D01*
X-198861401Y-58551803D01*
X-198439928Y-58510291D01*
X-198034652Y-58387352D01*
X-197661147Y-58187709D01*
X-197415801Y-57986359D01*
X-196124408Y-56694966D01*
X-196042365Y-56627635D01*
X-195773691Y-56300255D01*
X-195574049Y-55926750D01*
X-195451110Y-55521474D01*
X-195430011Y-55307250D01*
X-195409598Y-55100000D01*
X-195420000Y-54994388D01*
X-195420000Y-23555611D01*
X-195409598Y-23449999D01*
X-195451110Y-23028527D01*
X-195452748Y-23023126D01*
X-195574049Y-22623250D01*
X-195773691Y-22249745D01*
X-196042365Y-21922365D01*
X-196124408Y-21855034D01*
X-196125034Y-21854408D01*
X-196192365Y-21772365D01*
X-196519745Y-21503691D01*
X-196893250Y-21304049D01*
X-197298526Y-21181110D01*
X-197614388Y-21150000D01*
X-197720000Y-21139598D01*
X-197825612Y-21150000D01*
X-207894385Y-21150000D01*
X-208000000Y-21139598D01*
X-208421473Y-21181109D01*
X-208630295Y-21244455D01*
X-208826750Y-21304049D01*
X-209200255Y-21503691D01*
X-209527635Y-21772365D01*
X-209527905Y-21772695D01*
X-209528235Y-21772965D01*
X-209796909Y-22100345D01*
X-209970683Y-22425456D01*
X-209996551Y-22473851D01*
X-210119490Y-22879127D01*
X-210161002Y-23300600D01*
X-210150600Y-23406212D01*
X-210150599Y-27647748D01*
X-210511687Y-27606931D01*
X-210904271Y-27639901D01*
X-211282879Y-27748827D01*
X-211407912Y-27813363D01*
X-210980594Y-27386045D01*
X-210917629Y-27334371D01*
X-210711438Y-27083126D01*
X-210558223Y-26796483D01*
X-210487819Y-26564389D01*
X-210463875Y-26485457D01*
X-210432017Y-26162000D01*
X-210440000Y-26080948D01*
X-210440000Y-21417052D01*
X-210432017Y-21336000D01*
X-210447272Y-21181110D01*
X-210463875Y-21012544D01*
X-210558223Y-20701517D01*
X-210711438Y-20414874D01*
X-210917629Y-20163629D01*
X-211041333Y-20062108D01*
X-211168874Y-19957438D01*
X-211455517Y-19804223D01*
X-211766544Y-19709875D01*
X-212008948Y-19686000D01*
X-212090000Y-19678017D01*
X-212171052Y-19686000D01*
X-219112948Y-19686000D01*
X-219194000Y-19678017D01*
X-219275052Y-19686000D01*
X-219517456Y-19709875D01*
X-219828483Y-19804223D01*
X-220115126Y-19957438D01*
X-220366371Y-20163629D01*
X-220418045Y-20226594D01*
X-221069411Y-20877960D01*
X-221132370Y-20929629D01*
X-221184038Y-20992587D01*
X-221338561Y-21180874D01*
X-221491777Y-21467518D01*
X-221586124Y-21778544D01*
X-221617982Y-22102000D01*
X-221609999Y-22183052D01*
X-221610000Y-26738761D01*
X-221756309Y-26917039D01*
X-221955951Y-27290545D01*
X-222078890Y-27695821D01*
X-222110000Y-28011683D01*
X-222109999Y-39865612D01*
X-222078889Y-40181474D01*
X-221955950Y-40586750D01*
X-221756308Y-40960255D01*
X-221487634Y-41287635D01*
X-221160254Y-41556309D01*
X-220786749Y-41755951D01*
X-220381473Y-41878890D01*
X-219960000Y-41920402D01*
X-219538526Y-41878890D01*
X-219133250Y-41755951D01*
X-218759745Y-41556309D01*
X-218432365Y-41287635D01*
X-218163691Y-40960255D01*
X-218032652Y-40715098D01*
X-217716749Y-40883951D01*
X-217311473Y-41006890D01*
X-216890000Y-41048402D01*
X-216468526Y-41006890D01*
X-216063250Y-40883951D01*
X-215689745Y-40684309D01*
X-215362365Y-40415635D01*
X-215093691Y-40088255D01*
X-214894049Y-39714750D01*
X-214889025Y-39698188D01*
X-214876909Y-39720855D01*
X-214730600Y-39899133D01*
X-214730599Y-40947146D01*
X-219377451Y-45594000D01*
X-225951467Y-45594000D01*
X-226129745Y-45447691D01*
X-226503251Y-45248049D01*
X-226908527Y-45125110D01*
X-227330000Y-45083598D01*
X-227751474Y-45125110D01*
X-228156750Y-45248049D01*
X-228530255Y-45447691D01*
X-228857635Y-45716365D01*
X-229126309Y-46043745D01*
X-229320000Y-46406117D01*
X-229320000Y-40980000D01*
X-224384388Y-40980000D01*
X-224068526Y-40948890D01*
X-223663250Y-40825951D01*
X-223289745Y-40626309D01*
X-222962365Y-40357635D01*
X-222693691Y-40030255D01*
X-222494049Y-39656750D01*
X-222371110Y-39251474D01*
X-222329598Y-38830000D01*
X-222371110Y-38408526D01*
X-222494049Y-38003250D01*
X-222693691Y-37629745D01*
X-222962365Y-37302365D01*
X-223289745Y-37033691D01*
X-223663250Y-36834049D01*
X-224068526Y-36711110D01*
X-224384388Y-36680000D01*
X-230184389Y-36680000D01*
X-230290001Y-36669598D01*
X-230554122Y-36695612D01*
X-230711474Y-36711110D01*
X-231116750Y-36834049D01*
X-231490255Y-37033691D01*
X-231817635Y-37302365D01*
X-231884966Y-37384408D01*
X-232915597Y-38415039D01*
X-232997634Y-38482365D01*
X-233266308Y-38809745D01*
X-233337039Y-38942074D01*
X-233465951Y-39183251D01*
X-233588890Y-39588527D01*
X-233630402Y-40010000D01*
X-233619999Y-40115622D01*
X-233620000Y-48730000D01*
X-236797097Y-48730000D01*
X-236999745Y-48563691D01*
X-237373250Y-48364049D01*
X-237778526Y-48241110D01*
X-238094388Y-48210000D01*
X-238200000Y-48199598D01*
X-238305612Y-48210000D01*
X-270706000Y-48210000D01*
X-270706000Y-46694858D01*
X-270454743Y-46862743D01*
X-270027070Y-47039891D01*
X-269573055Y-47130200D01*
X-269110145Y-47130200D01*
X-268656130Y-47039891D01*
X-268228457Y-46862743D01*
X-267843562Y-46605564D01*
X-267516236Y-46278238D01*
X-267259057Y-45893343D01*
X-267081909Y-45465670D01*
X-266991600Y-45011655D01*
X-266991600Y-44548745D01*
X-267081909Y-44094730D01*
X-267191600Y-43829913D01*
X-267191600Y-39482156D01*
X-264466938Y-39482156D01*
X-264455806Y-39538126D01*
X-264336653Y-39911651D01*
X-264146919Y-40254753D01*
X-263893895Y-40554247D01*
X-263587304Y-40798624D01*
X-263238928Y-40978492D01*
X-262862156Y-41086939D01*
X-262550000Y-40831876D01*
X-262550000Y-39170000D01*
X-262450000Y-39170000D01*
X-262450000Y-40831876D01*
X-262137844Y-41086939D01*
X-261761072Y-40978492D01*
X-261412696Y-40798624D01*
X-261106105Y-40554247D01*
X-260853081Y-40254753D01*
X-260663347Y-39911651D01*
X-260544194Y-39538126D01*
X-260533062Y-39482156D01*
X-260788230Y-39170000D01*
X-262450000Y-39170000D01*
X-262550000Y-39170000D01*
X-264211770Y-39170000D01*
X-264466938Y-39482156D01*
X-267191600Y-39482156D01*
X-267191600Y-38730000D01*
X-264461400Y-38730000D01*
X-264466938Y-38757844D01*
X-264211770Y-39070000D01*
X-262550000Y-39070000D01*
X-262550000Y-39050000D01*
X-262450000Y-39050000D01*
X-262450000Y-39070000D01*
X-260788230Y-39070000D01*
X-260533062Y-38757844D01*
X-260544194Y-38701874D01*
X-260568908Y-38624400D01*
X-252000012Y-38624400D01*
X-251894400Y-38634802D01*
X-251788788Y-38624400D01*
X-251472926Y-38593290D01*
X-251067650Y-38470351D01*
X-250694145Y-38270709D01*
X-250366765Y-38002035D01*
X-250299434Y-37919992D01*
X-250199442Y-37820000D01*
X-249450000Y-37820000D01*
X-249450000Y-37945611D01*
X-249418890Y-38261473D01*
X-249305564Y-38635059D01*
X-249305564Y-38690000D01*
X-249283360Y-38915439D01*
X-249217602Y-39132215D01*
X-249110816Y-39331997D01*
X-248967107Y-39507107D01*
X-248791997Y-39650816D01*
X-248592215Y-39757602D01*
X-248375439Y-39823360D01*
X-248150000Y-39845564D01*
X-248095060Y-39845564D01*
X-247721474Y-39958890D01*
X-247300000Y-40000402D01*
X-246909999Y-39961990D01*
X-246910000Y-42630200D01*
X-248071313Y-42630200D01*
X-248336130Y-42520509D01*
X-248790145Y-42430200D01*
X-249253055Y-42430200D01*
X-249707070Y-42520509D01*
X-250134743Y-42697657D01*
X-250519638Y-42954836D01*
X-250846964Y-43282162D01*
X-251104143Y-43667057D01*
X-251281291Y-44094730D01*
X-251371600Y-44548745D01*
X-251371600Y-45011655D01*
X-251281291Y-45465670D01*
X-251104143Y-45893343D01*
X-250846964Y-46278238D01*
X-250519638Y-46605564D01*
X-250134743Y-46862743D01*
X-249707070Y-47039891D01*
X-249253055Y-47130200D01*
X-248790145Y-47130200D01*
X-248336130Y-47039891D01*
X-248071313Y-46930200D01*
X-245155812Y-46930200D01*
X-245050200Y-46940602D01*
X-244944588Y-46930200D01*
X-244628726Y-46899090D01*
X-244223450Y-46776151D01*
X-243849945Y-46576509D01*
X-243522565Y-46307835D01*
X-243455234Y-46225792D01*
X-243314408Y-46084966D01*
X-243232365Y-46017635D01*
X-242963691Y-45690255D01*
X-242764049Y-45316750D01*
X-242641110Y-44911474D01*
X-242610000Y-44595612D01*
X-242610000Y-44595611D01*
X-242599598Y-44490000D01*
X-242610000Y-44384388D01*
X-242610000Y-39990000D01*
X-240155612Y-39990000D01*
X-240050000Y-40000402D01*
X-239944388Y-39990000D01*
X-239628526Y-39958890D01*
X-239223250Y-39835951D01*
X-238849745Y-39636309D01*
X-238522365Y-39367635D01*
X-238455034Y-39285592D01*
X-238315042Y-39145600D01*
X-238113692Y-38900254D01*
X-237914049Y-38526749D01*
X-237791110Y-38121473D01*
X-237749598Y-37700000D01*
X-237791110Y-37278527D01*
X-237914049Y-36873250D01*
X-238113692Y-36499746D01*
X-238382366Y-36172366D01*
X-238709746Y-35903692D01*
X-239083250Y-35704049D01*
X-239488527Y-35581110D01*
X-239910000Y-35539598D01*
X-240331473Y-35581110D01*
X-240690436Y-35690000D01*
X-242715800Y-35690000D01*
X-242715800Y-32746253D01*
X-242510230Y-32914960D01*
X-242154097Y-33105317D01*
X-241767670Y-33222538D01*
X-241365800Y-33262119D01*
X-240963931Y-33222538D01*
X-240577504Y-33105317D01*
X-240221370Y-32914960D01*
X-239909217Y-32658783D01*
X-239653040Y-32346630D01*
X-239615800Y-32276959D01*
X-239578560Y-32346630D01*
X-239322383Y-32658783D01*
X-239010230Y-32914960D01*
X-238654097Y-33105317D01*
X-238267670Y-33222538D01*
X-237865800Y-33262119D01*
X-237463931Y-33222538D01*
X-237077504Y-33105317D01*
X-236721370Y-32914960D01*
X-236409217Y-32658783D01*
X-236326285Y-32557730D01*
X-236226616Y-32744197D01*
X-236082907Y-32919307D01*
X-235907797Y-33063016D01*
X-235708015Y-33169802D01*
X-235491239Y-33235560D01*
X-235265800Y-33257764D01*
X-234703300Y-33252200D01*
X-234415800Y-32964700D01*
X-234415800Y-30352200D01*
X-234315800Y-30352200D01*
X-234315800Y-32964700D01*
X-234028300Y-33252200D01*
X-233465800Y-33257764D01*
X-233240361Y-33235560D01*
X-233023585Y-33169802D01*
X-232823803Y-33063016D01*
X-232648693Y-32919307D01*
X-232504984Y-32744197D01*
X-232398198Y-32544415D01*
X-232332440Y-32327639D01*
X-232310236Y-32102200D01*
X-232315800Y-30639700D01*
X-232603300Y-30352200D01*
X-234315800Y-30352200D01*
X-234415800Y-30352200D01*
X-234435800Y-30352200D01*
X-234435800Y-30252200D01*
X-234415800Y-30252200D01*
X-234415800Y-27639700D01*
X-234315800Y-27639700D01*
X-234315800Y-30252200D01*
X-232603300Y-30252200D01*
X-232344285Y-29993185D01*
X-232325491Y-30087670D01*
X-232148343Y-30515343D01*
X-231891164Y-30900238D01*
X-231563838Y-31227564D01*
X-231178943Y-31484743D01*
X-230751270Y-31661891D01*
X-230297255Y-31752200D01*
X-229834345Y-31752200D01*
X-229380330Y-31661891D01*
X-228952657Y-31484743D01*
X-228567762Y-31227564D01*
X-228240436Y-30900238D01*
X-227983257Y-30515343D01*
X-227806109Y-30087670D01*
X-227715800Y-29633655D01*
X-227715800Y-29170745D01*
X-227806109Y-28716730D01*
X-227983257Y-28289057D01*
X-228240436Y-27904162D01*
X-228567762Y-27576836D01*
X-228952657Y-27319657D01*
X-229380330Y-27142509D01*
X-229834345Y-27052200D01*
X-230297255Y-27052200D01*
X-230751270Y-27142509D01*
X-231178943Y-27319657D01*
X-231563838Y-27576836D01*
X-231891164Y-27904162D01*
X-232148343Y-28289057D01*
X-232310918Y-28681548D01*
X-232310236Y-28502200D01*
X-232332440Y-28276761D01*
X-232398198Y-28059985D01*
X-232504984Y-27860203D01*
X-232648693Y-27685093D01*
X-232823803Y-27541384D01*
X-233023585Y-27434598D01*
X-233240361Y-27368840D01*
X-233465800Y-27346636D01*
X-234028300Y-27352200D01*
X-234315800Y-27639700D01*
X-234415800Y-27639700D01*
X-234703300Y-27352200D01*
X-235265800Y-27346636D01*
X-235270000Y-27347050D01*
X-235270000Y-24584388D01*
X-235301110Y-24268526D01*
X-235424049Y-23863250D01*
X-235623691Y-23489745D01*
X-235892365Y-23162365D01*
X-236219745Y-22893691D01*
X-236593251Y-22694049D01*
X-236998527Y-22571110D01*
X-237420000Y-22529598D01*
X-237841474Y-22571110D01*
X-238246750Y-22694049D01*
X-238620255Y-22893691D01*
X-238947635Y-23162365D01*
X-239216309Y-23489745D01*
X-239415951Y-23863251D01*
X-239538890Y-24268527D01*
X-239570000Y-24584389D01*
X-239569999Y-28247340D01*
X-239578559Y-28257770D01*
X-239615800Y-28327442D01*
X-239653040Y-28257770D01*
X-239909217Y-27945617D01*
X-240221370Y-27689440D01*
X-240577503Y-27499083D01*
X-240963930Y-27381862D01*
X-241365800Y-27342281D01*
X-241767669Y-27381862D01*
X-242154096Y-27499083D01*
X-242510229Y-27689440D01*
X-242822382Y-27945617D01*
X-243078559Y-28257770D01*
X-243115800Y-28327442D01*
X-243153040Y-28257770D01*
X-243409217Y-27945617D01*
X-243721370Y-27689440D01*
X-244077503Y-27499083D01*
X-244463930Y-27381862D01*
X-244865800Y-27342281D01*
X-245267669Y-27381862D01*
X-245654096Y-27499083D01*
X-246010229Y-27689440D01*
X-246322382Y-27945617D01*
X-246578559Y-28257770D01*
X-246615800Y-28327442D01*
X-246653040Y-28257770D01*
X-246909217Y-27945617D01*
X-247221370Y-27689440D01*
X-247577503Y-27499083D01*
X-247963930Y-27381862D01*
X-248365800Y-27342281D01*
X-248767669Y-27381862D01*
X-249154096Y-27499083D01*
X-249510229Y-27689440D01*
X-249715800Y-27858148D01*
X-249715800Y-15799814D01*
X-249705398Y-15694200D01*
X-249746909Y-15272726D01*
X-249869849Y-14867450D01*
X-249911849Y-14788874D01*
X-250069491Y-14493945D01*
X-250338165Y-14166565D01*
X-250665545Y-13897891D01*
X-251039050Y-13698249D01*
X-251444326Y-13575309D01*
X-251865800Y-13533798D01*
X-252287273Y-13575309D01*
X-252692549Y-13698249D01*
X-253066054Y-13897891D01*
X-253263584Y-14060000D01*
X-303861467Y-14060000D01*
X-304039745Y-13913691D01*
X-304413250Y-13714049D01*
X-304818526Y-13591110D01*
X-305134388Y-13560000D01*
X-305344385Y-13560000D01*
X-305450000Y-13549598D01*
X-305871474Y-13591109D01*
X-306276750Y-13714049D01*
X-306650255Y-13913691D01*
X-306977635Y-14182365D01*
X-307044959Y-14264400D01*
X-348815592Y-56035034D01*
X-348897635Y-56102365D01*
X-349166309Y-56429745D01*
X-349360674Y-56793378D01*
X-349365951Y-56803251D01*
X-349488890Y-57208527D01*
X-349530402Y-57630000D01*
X-352639911Y-57630000D01*
X-352748912Y-51381092D01*
X-310863257Y-9540341D01*
X-185336936Y-10229196D01*
%TA.AperFunction,Conductor*%
D26*
G36*
X-185336936Y-10229196D02*
G01*
X-185010004Y-25981357D01*
X-185209977Y-104370408D01*
X-186819923Y-117153530D01*
X-329452415Y-118267027D01*
X-351961107Y-96545230D01*
X-352639911Y-57630000D01*
X-349530402Y-57630000D01*
X-349520000Y-57735612D01*
X-349519999Y-83424378D01*
X-349530402Y-83530000D01*
X-349488890Y-83951473D01*
X-349365951Y-84356749D01*
X-349302045Y-84476309D01*
X-349166308Y-84730255D01*
X-348897634Y-85057635D01*
X-348815597Y-85124961D01*
X-332504961Y-101435598D01*
X-332437635Y-101517635D01*
X-332110255Y-101786309D01*
X-331736750Y-101985951D01*
X-331331474Y-102108890D01*
X-331015612Y-102140000D01*
X-331015605Y-102140000D01*
X-330910001Y-102150401D01*
X-330804396Y-102140000D01*
X-306823557Y-102140000D01*
X-307089635Y-102358365D01*
X-307358309Y-102685745D01*
X-307557951Y-103059250D01*
X-307680890Y-103464526D01*
X-307722402Y-103886000D01*
X-307680890Y-104307474D01*
X-307613388Y-104530000D01*
X-311763612Y-104530000D01*
X-312079474Y-104561110D01*
X-312484750Y-104684049D01*
X-312858255Y-104883691D01*
X-313185635Y-105152365D01*
X-313454309Y-105479745D01*
X-313653951Y-105853250D01*
X-313776890Y-106258526D01*
X-313818402Y-106680000D01*
X-313776890Y-107101474D01*
X-313653951Y-107506750D01*
X-313480102Y-107832000D01*
X-315319612Y-107832000D01*
X-315635474Y-107863110D01*
X-316040750Y-107986049D01*
X-316414255Y-108185691D01*
X-316741635Y-108454365D01*
X-317010309Y-108781745D01*
X-317209951Y-109155250D01*
X-317332890Y-109560526D01*
X-317374402Y-109982000D01*
X-317332890Y-110403474D01*
X-317209951Y-110808750D01*
X-317010309Y-111182255D01*
X-316741635Y-111509635D01*
X-316414255Y-111778309D01*
X-316040750Y-111977951D01*
X-315635474Y-112100890D01*
X-315319612Y-112132000D01*
X-305202388Y-112132000D01*
X-304886526Y-112100890D01*
X-304481250Y-111977951D01*
X-304107745Y-111778309D01*
X-304038000Y-111721071D01*
X-303968255Y-111778309D01*
X-303594750Y-111977951D01*
X-303189474Y-112100890D01*
X-302768000Y-112142402D01*
X-302346527Y-112100890D01*
X-301941251Y-111977951D01*
X-301567745Y-111778309D01*
X-301498000Y-111721071D01*
X-301428255Y-111778309D01*
X-301054750Y-111977951D01*
X-300649474Y-112100890D01*
X-300228000Y-112142402D01*
X-299806527Y-112100890D01*
X-299401251Y-111977951D01*
X-299027745Y-111778309D01*
X-298958000Y-111721071D01*
X-298888255Y-111778309D01*
X-298514750Y-111977951D01*
X-298109474Y-112100890D01*
X-297688000Y-112142402D01*
X-297266527Y-112100890D01*
X-296861251Y-111977951D01*
X-296487745Y-111778309D01*
X-296418000Y-111721071D01*
X-296348255Y-111778309D01*
X-295974750Y-111977951D01*
X-295569474Y-112100890D01*
X-295148000Y-112142402D01*
X-294726527Y-112100890D01*
X-294321251Y-111977951D01*
X-293947745Y-111778309D01*
X-293878000Y-111721071D01*
X-293808255Y-111778309D01*
X-293434750Y-111977951D01*
X-293029474Y-112100890D01*
X-292608000Y-112142402D01*
X-292186527Y-112100890D01*
X-291781251Y-111977951D01*
X-291407745Y-111778309D01*
X-291338000Y-111721071D01*
X-291268255Y-111778309D01*
X-290894750Y-111977951D01*
X-290489474Y-112100890D01*
X-290068000Y-112142402D01*
X-289646527Y-112100890D01*
X-289241251Y-111977951D01*
X-288867745Y-111778309D01*
X-288798000Y-111721071D01*
X-288728255Y-111778309D01*
X-288354750Y-111977951D01*
X-287949474Y-112100890D01*
X-287528000Y-112142402D01*
X-287106527Y-112100890D01*
X-286701251Y-111977951D01*
X-286327745Y-111778309D01*
X-286119581Y-111607473D01*
X-286118102Y-111622517D01*
X-285776339Y-111811467D01*
X-285404279Y-111930112D01*
X-285016223Y-111973892D01*
X-284627083Y-111941124D01*
X-284251811Y-111833068D01*
X-283904831Y-111653878D01*
X-283857898Y-111622517D01*
X-283856419Y-111607473D01*
X-283648255Y-111778309D01*
X-283274750Y-111977951D01*
X-282869474Y-112100890D01*
X-282553612Y-112132000D01*
X-275992388Y-112132000D01*
X-275676526Y-112100890D01*
X-275271250Y-111977951D01*
X-274897745Y-111778309D01*
X-274719467Y-111632000D01*
X-272855146Y-111632000D01*
X-272822215Y-111649602D01*
X-272605439Y-111715360D01*
X-272380000Y-111737564D01*
X-271180000Y-111737564D01*
X-270954561Y-111715360D01*
X-270774934Y-111660871D01*
X-270641722Y-111702862D01*
X-270299048Y-111740364D01*
X-269955642Y-111710293D01*
X-269624701Y-111613805D01*
X-269318943Y-111454608D01*
X-269287267Y-111433444D01*
X-269275825Y-111056886D01*
X-270024436Y-110308275D01*
X-270024436Y-110166853D01*
X-269205114Y-110986175D01*
X-268828556Y-110974733D01*
X-268662773Y-110672495D01*
X-268559138Y-110343722D01*
X-268521636Y-110001048D01*
X-268551707Y-109657642D01*
X-268648195Y-109326701D01*
X-268807392Y-109020943D01*
X-268828556Y-108989267D01*
X-269205114Y-108977825D01*
X-270024436Y-109797147D01*
X-270024436Y-109655725D01*
X-269275825Y-108907114D01*
X-269287267Y-108530556D01*
X-269589505Y-108364773D01*
X-269918278Y-108261138D01*
X-270260952Y-108223636D01*
X-270604358Y-108253707D01*
X-270774412Y-108303287D01*
X-270954561Y-108248640D01*
X-271180000Y-108226436D01*
X-272380000Y-108226436D01*
X-272605439Y-108248640D01*
X-272621584Y-108253537D01*
X-272523691Y-108134255D01*
X-272324049Y-107760750D01*
X-272201110Y-107355474D01*
X-272159598Y-106934000D01*
X-272201110Y-106512526D01*
X-272324049Y-106107250D01*
X-272523691Y-105733745D01*
X-272584353Y-105659829D01*
X-272284365Y-105413635D01*
X-272015691Y-105086255D01*
X-271816049Y-104712750D01*
X-271693110Y-104307474D01*
X-271651598Y-103886000D01*
X-271693110Y-103464526D01*
X-271816049Y-103059250D01*
X-272015691Y-102685745D01*
X-272284365Y-102358365D01*
X-272550443Y-102140000D01*
X-243020132Y-102140000D01*
X-243128890Y-102498526D01*
X-243170402Y-102920000D01*
X-243128890Y-103341474D01*
X-243005951Y-103746750D01*
X-242806309Y-104120255D01*
X-242537635Y-104447635D01*
X-242210255Y-104716309D01*
X-241836750Y-104915951D01*
X-241431474Y-105038890D01*
X-241115612Y-105070000D01*
X-233155612Y-105070000D01*
X-233050000Y-105080402D01*
X-232944388Y-105070000D01*
X-232628526Y-105038890D01*
X-232223250Y-104915951D01*
X-231849745Y-104716309D01*
X-231522365Y-104447635D01*
X-231455034Y-104365592D01*
X-229904403Y-102814962D01*
X-229822365Y-102747635D01*
X-229553691Y-102420255D01*
X-229354049Y-102046750D01*
X-229231110Y-101641474D01*
X-229200000Y-101325612D01*
X-229200000Y-101325611D01*
X-229189598Y-101220001D01*
X-229200000Y-101114389D01*
X-229200000Y-100922558D01*
X-229186408Y-100908966D01*
X-229104365Y-100841635D01*
X-228835691Y-100514255D01*
X-228636049Y-100140750D01*
X-228513110Y-99735474D01*
X-228482000Y-99419612D01*
X-228482000Y-99419606D01*
X-228471599Y-99314001D01*
X-228482000Y-99208396D01*
X-228482000Y-93733604D01*
X-228471599Y-93627999D01*
X-228482000Y-93522394D01*
X-228482000Y-93522388D01*
X-228513110Y-93206526D01*
X-228523472Y-93172365D01*
X-228559544Y-93053455D01*
X-228636049Y-92801250D01*
X-228835691Y-92427745D01*
X-229104365Y-92100365D01*
X-229186408Y-92033034D01*
X-229904400Y-91315042D01*
X-230149746Y-91113692D01*
X-230523251Y-90914049D01*
X-230928527Y-90791110D01*
X-231350000Y-90749598D01*
X-231771473Y-90791110D01*
X-231980000Y-90854366D01*
X-231980000Y-85041041D01*
X-231972018Y-84959999D01*
X-231980000Y-84878957D01*
X-231980000Y-84878948D01*
X-232003875Y-84636544D01*
X-232098223Y-84325517D01*
X-232251438Y-84038874D01*
X-232457629Y-83787629D01*
X-232520588Y-83735960D01*
X-233938504Y-82318044D01*
X-233961110Y-82088526D01*
X-234084049Y-81683250D01*
X-234283691Y-81309745D01*
X-234552365Y-80982365D01*
X-234598080Y-80944848D01*
X-234334526Y-80918890D01*
X-233929250Y-80795951D01*
X-233555745Y-80596309D01*
X-233228365Y-80327635D01*
X-232959691Y-80000255D01*
X-232760049Y-79626750D01*
X-232637110Y-79221474D01*
X-232595598Y-78800000D01*
X-232637110Y-78378526D01*
X-232760049Y-77973250D01*
X-232959691Y-77599745D01*
X-233228365Y-77272365D01*
X-233555745Y-77003691D01*
X-233929250Y-76804049D01*
X-234334526Y-76681110D01*
X-234650388Y-76650000D01*
X-235915612Y-76650000D01*
X-236064939Y-76664708D01*
X-236073347Y-76638349D01*
X-236127734Y-76540000D01*
X-231446000Y-76540000D01*
X-231445999Y-82288938D01*
X-231453983Y-82370000D01*
X-231422125Y-82693456D01*
X-231327777Y-83004483D01*
X-231174562Y-83291126D01*
X-230968371Y-83542371D01*
X-230717126Y-83748562D01*
X-230430483Y-83901777D01*
X-230119456Y-83996125D01*
X-229877052Y-84020000D01*
X-229796000Y-84027983D01*
X-229714948Y-84020000D01*
X-225813052Y-84020000D01*
X-225732000Y-84027983D01*
X-225650948Y-84020000D01*
X-222360000Y-84020000D01*
X-222360000Y-84346983D01*
X-222283141Y-84733378D01*
X-222132377Y-85097355D01*
X-221916792Y-85420000D01*
X-222132377Y-85742645D01*
X-222283141Y-86106622D01*
X-222360000Y-86493017D01*
X-222360000Y-86886983D01*
X-222283141Y-87273378D01*
X-222132377Y-87637355D01*
X-221916792Y-87960000D01*
X-222132377Y-88282645D01*
X-222283141Y-88646622D01*
X-222360000Y-89033017D01*
X-222360000Y-89426983D01*
X-222283141Y-89813378D01*
X-222132377Y-90177355D01*
X-221916792Y-90500000D01*
X-222132377Y-90822645D01*
X-222283141Y-91186622D01*
X-222360000Y-91573017D01*
X-222360000Y-91966983D01*
X-222283141Y-92353378D01*
X-222132377Y-92717355D01*
X-221916792Y-93040000D01*
X-222132377Y-93362645D01*
X-222283141Y-93726622D01*
X-222360000Y-94113017D01*
X-222360000Y-94506983D01*
X-222283141Y-94893378D01*
X-222132377Y-95257355D01*
X-221916792Y-95580000D01*
X-222132377Y-95902645D01*
X-222283141Y-96266622D01*
X-222360000Y-96653017D01*
X-222360000Y-97046983D01*
X-222283141Y-97433378D01*
X-222132377Y-97797355D01*
X-221916792Y-98120000D01*
X-222132377Y-98442645D01*
X-222283141Y-98806622D01*
X-222360000Y-99193017D01*
X-222360000Y-99586983D01*
X-222283141Y-99973378D01*
X-222132377Y-100337355D01*
X-221916792Y-100660000D01*
X-222132377Y-100982645D01*
X-222283141Y-101346622D01*
X-222360000Y-101733017D01*
X-222360000Y-102126983D01*
X-222283141Y-102513378D01*
X-222132377Y-102877355D01*
X-221913501Y-103204926D01*
X-221634926Y-103483501D01*
X-221307355Y-103702377D01*
X-220943378Y-103853141D01*
X-220556983Y-103930000D01*
X-220163017Y-103930000D01*
X-219776622Y-103853141D01*
X-219412645Y-103702377D01*
X-219085074Y-103483501D01*
X-219075851Y-103474278D01*
X-218907304Y-103608624D01*
X-218558928Y-103788492D01*
X-218182156Y-103896939D01*
X-217870000Y-103641876D01*
X-217870000Y-101980000D01*
X-217770000Y-101980000D01*
X-217770000Y-103641876D01*
X-217457844Y-103896939D01*
X-217081072Y-103788492D01*
X-216732696Y-103608624D01*
X-216426105Y-103364247D01*
X-216173081Y-103064753D01*
X-215983347Y-102721651D01*
X-215864194Y-102348126D01*
X-215853062Y-102292156D01*
X-216108230Y-101980000D01*
X-217770000Y-101980000D01*
X-217870000Y-101980000D01*
X-217890000Y-101980000D01*
X-217890000Y-101880000D01*
X-217870000Y-101880000D01*
X-217870000Y-101860000D01*
X-217770000Y-101860000D01*
X-217770000Y-101880000D01*
X-216108230Y-101880000D01*
X-215853062Y-101567844D01*
X-215864194Y-101511874D01*
X-215983347Y-101138349D01*
X-216173081Y-100795247D01*
X-216275542Y-100673969D01*
X-216266499Y-100664926D01*
X-216047623Y-100337355D01*
X-215896859Y-99973378D01*
X-215820000Y-99586983D01*
X-215820000Y-99193017D01*
X-215896859Y-98806622D01*
X-216047623Y-98442645D01*
X-216263208Y-98120000D01*
X-216047623Y-97797355D01*
X-215896859Y-97433378D01*
X-215820000Y-97046983D01*
X-215820000Y-96653017D01*
X-215896859Y-96266622D01*
X-216047623Y-95902645D01*
X-216263208Y-95580000D01*
X-216047623Y-95257355D01*
X-215896859Y-94893378D01*
X-215820000Y-94506983D01*
X-215820000Y-94113017D01*
X-215858394Y-93920000D01*
X-205043608Y-93920000D01*
X-204926255Y-94016309D01*
X-204552750Y-94215951D01*
X-204147474Y-94338890D01*
X-203726001Y-94380402D01*
X-203620389Y-94370000D01*
X-199185612Y-94370000D01*
X-199080000Y-94380402D01*
X-198974388Y-94370000D01*
X-198658526Y-94338890D01*
X-198253250Y-94215951D01*
X-197879745Y-94016309D01*
X-197552365Y-93747635D01*
X-197497463Y-93680737D01*
X-197430565Y-93625835D01*
X-197161891Y-93298455D01*
X-196962249Y-92924950D01*
X-196839310Y-92519674D01*
X-196808200Y-92203812D01*
X-196808200Y-92203805D01*
X-196797799Y-92098201D01*
X-196808200Y-91992596D01*
X-196808200Y-88141928D01*
X-196769598Y-87750000D01*
X-196811110Y-87328527D01*
X-196924436Y-86954940D01*
X-196924436Y-86900000D01*
X-196946640Y-86674561D01*
X-197012398Y-86457785D01*
X-197119184Y-86258003D01*
X-197188441Y-86173613D01*
X-197093347Y-86001651D01*
X-196974194Y-85628126D01*
X-196963062Y-85572156D01*
X-197218230Y-85260000D01*
X-198880000Y-85260000D01*
X-198880000Y-85280000D01*
X-198980000Y-85280000D01*
X-198980000Y-85260000D01*
X-200641770Y-85260000D01*
X-200896938Y-85572156D01*
X-200885806Y-85628126D01*
X-200766653Y-86001651D01*
X-200671559Y-86173613D01*
X-200740816Y-86258003D01*
X-200847602Y-86457785D01*
X-200913360Y-86674561D01*
X-200935564Y-86900000D01*
X-200935564Y-86916677D01*
X-200954151Y-86951451D01*
X-201077090Y-87356727D01*
X-201118602Y-87778200D01*
X-201108199Y-87883822D01*
X-201108200Y-90070000D01*
X-202858392Y-90070000D01*
X-202975745Y-89973691D01*
X-203349250Y-89774049D01*
X-203754526Y-89651110D01*
X-204070388Y-89620000D01*
X-204176000Y-89609598D01*
X-204281612Y-89620000D01*
X-215858394Y-89620000D01*
X-215820000Y-89426983D01*
X-215820000Y-89033017D01*
X-215896859Y-88646622D01*
X-216047623Y-88282645D01*
X-216263208Y-87960000D01*
X-216047623Y-87637355D01*
X-215896859Y-87273378D01*
X-215820000Y-86886983D01*
X-215820000Y-86493017D01*
X-215896859Y-86106622D01*
X-216047623Y-85742645D01*
X-216263208Y-85420000D01*
X-216047623Y-85097355D01*
X-215944273Y-84847844D01*
X-200896938Y-84847844D01*
X-200641770Y-85160000D01*
X-198980000Y-85160000D01*
X-198980000Y-83498124D01*
X-198880000Y-83498124D01*
X-198880000Y-85160000D01*
X-197218230Y-85160000D01*
X-196963062Y-84847844D01*
X-196974194Y-84791874D01*
X-197093347Y-84418349D01*
X-197283081Y-84075247D01*
X-197536105Y-83775753D01*
X-197842696Y-83531376D01*
X-198191072Y-83351508D01*
X-198567844Y-83243061D01*
X-198880000Y-83498124D01*
X-198980000Y-83498124D01*
X-199292156Y-83243061D01*
X-199668928Y-83351508D01*
X-200017304Y-83531376D01*
X-200323895Y-83775753D01*
X-200576919Y-84075247D01*
X-200766653Y-84418349D01*
X-200885806Y-84791874D01*
X-200896938Y-84847844D01*
X-215944273Y-84847844D01*
X-215896859Y-84733378D01*
X-215820000Y-84346983D01*
X-215820000Y-83953017D01*
X-215896859Y-83566622D01*
X-216047623Y-83202645D01*
X-216263208Y-82880000D01*
X-216047623Y-82557355D01*
X-215896859Y-82193378D01*
X-215820000Y-81806983D01*
X-215820000Y-81413017D01*
X-215858394Y-81220000D01*
X-215272641Y-81220000D01*
X-215111473Y-81268890D01*
X-214690001Y-81310402D01*
X-214268527Y-81268890D01*
X-213863251Y-81145950D01*
X-213489746Y-80946308D01*
X-213162366Y-80677634D01*
X-212893692Y-80350254D01*
X-212694050Y-79976749D01*
X-212571110Y-79571473D01*
X-212529598Y-79149999D01*
X-212563156Y-78809285D01*
X-212531465Y-78818898D01*
X-212109992Y-78860410D01*
X-211688518Y-78818898D01*
X-211283242Y-78695959D01*
X-210909738Y-78496316D01*
X-210582357Y-78227643D01*
X-210313684Y-77900262D01*
X-210114041Y-77526758D01*
X-209991102Y-77121482D01*
X-209949590Y-76700008D01*
X-209991102Y-76278535D01*
X-210114041Y-75873259D01*
X-210313684Y-75499754D01*
X-210515034Y-75254408D01*
X-210685034Y-75084408D01*
X-210752365Y-75002365D01*
X-211079745Y-74733691D01*
X-211453250Y-74534049D01*
X-211858526Y-74411110D01*
X-212174388Y-74380000D01*
X-212280000Y-74369598D01*
X-212385612Y-74380000D01*
X-215858394Y-74380000D01*
X-215820000Y-74186983D01*
X-215820000Y-73793017D01*
X-215896859Y-73406622D01*
X-216047623Y-73042645D01*
X-216263208Y-72720000D01*
X-216047623Y-72397355D01*
X-215896859Y-72033378D01*
X-215820000Y-71646983D01*
X-215820000Y-71253017D01*
X-215896859Y-70866622D01*
X-216047623Y-70502645D01*
X-216263208Y-70180000D01*
X-216047623Y-69857355D01*
X-215896859Y-69493378D01*
X-215820000Y-69106983D01*
X-215820000Y-68713017D01*
X-215896859Y-68326622D01*
X-216047623Y-67962645D01*
X-216263208Y-67640000D01*
X-216047623Y-67317355D01*
X-215896859Y-66953378D01*
X-215820000Y-66566983D01*
X-215820000Y-66173017D01*
X-215896859Y-65786622D01*
X-215990728Y-65560000D01*
X-210880402Y-65560000D01*
X-210838890Y-65981474D01*
X-210715951Y-66386750D01*
X-210516309Y-66760255D01*
X-210247635Y-67087635D01*
X-209920255Y-67356309D01*
X-209546750Y-67555951D01*
X-209141474Y-67678890D01*
X-208825612Y-67710000D01*
X-203605612Y-67710000D01*
X-203500000Y-67720402D01*
X-203394388Y-67710000D01*
X-203078526Y-67678890D01*
X-202673250Y-67555951D01*
X-202299745Y-67356309D01*
X-201972365Y-67087635D01*
X-201905034Y-67005592D01*
X-201875042Y-66975600D01*
X-201673692Y-66730254D01*
X-201474050Y-66356750D01*
X-201351110Y-65951474D01*
X-201309599Y-65530001D01*
X-201351110Y-65108527D01*
X-201474050Y-64703251D01*
X-201673692Y-64329746D01*
X-201942366Y-64002366D01*
X-202269746Y-63733692D01*
X-202643251Y-63534050D01*
X-203048527Y-63411110D01*
X-203470001Y-63369599D01*
X-203880204Y-63410000D01*
X-208825612Y-63410000D01*
X-209141474Y-63441110D01*
X-209546750Y-63564049D01*
X-209920255Y-63763691D01*
X-210247635Y-64032365D01*
X-210516309Y-64359745D01*
X-210715951Y-64733250D01*
X-210838890Y-65138526D01*
X-210880402Y-65560000D01*
X-215990728Y-65560000D01*
X-216047623Y-65422645D01*
X-216263208Y-65100000D01*
X-216047623Y-64777355D01*
X-215896859Y-64413378D01*
X-215820000Y-64026983D01*
X-215820000Y-63633017D01*
X-215858394Y-63440000D01*
X-215257470Y-63440000D01*
X-214931473Y-63538890D01*
X-214510000Y-63580402D01*
X-214088527Y-63538890D01*
X-213683250Y-63415951D01*
X-213309746Y-63216308D01*
X-212982365Y-62947635D01*
X-212713692Y-62620254D01*
X-212514049Y-62246750D01*
X-212391110Y-61841473D01*
X-212349598Y-61420000D01*
X-212391110Y-60998527D01*
X-212514049Y-60593251D01*
X-212617344Y-60400000D01*
X-208820533Y-60400000D01*
X-208642255Y-60546309D01*
X-208268750Y-60745951D01*
X-207863474Y-60868890D01*
X-207547612Y-60900000D01*
X-204234388Y-60900000D01*
X-203918526Y-60868890D01*
X-203513250Y-60745951D01*
X-203139745Y-60546309D01*
X-202812365Y-60277635D01*
X-202543691Y-59950255D01*
X-202344049Y-59576750D01*
X-202221110Y-59171474D01*
X-202198504Y-58941955D01*
X-202115962Y-58859413D01*
X-201297949Y-58041401D01*
X-200239932Y-58041401D01*
X-200061655Y-58187709D01*
X-199688150Y-58387352D01*
X-199282874Y-58510291D01*
X-198861401Y-58551803D01*
X-198439928Y-58510291D01*
X-198034652Y-58387352D01*
X-197661147Y-58187709D01*
X-197415801Y-57986359D01*
X-196124408Y-56694966D01*
X-196042365Y-56627635D01*
X-195773691Y-56300255D01*
X-195574049Y-55926750D01*
X-195451110Y-55521474D01*
X-195430011Y-55307250D01*
X-195409598Y-55100000D01*
X-195420000Y-54994388D01*
X-195420000Y-23555611D01*
X-195409598Y-23449999D01*
X-195451110Y-23028527D01*
X-195452748Y-23023126D01*
X-195574049Y-22623250D01*
X-195773691Y-22249745D01*
X-196042365Y-21922365D01*
X-196124408Y-21855034D01*
X-196125034Y-21854408D01*
X-196192365Y-21772365D01*
X-196519745Y-21503691D01*
X-196893250Y-21304049D01*
X-197298526Y-21181110D01*
X-197614388Y-21150000D01*
X-197720000Y-21139598D01*
X-197825612Y-21150000D01*
X-207894385Y-21150000D01*
X-208000000Y-21139598D01*
X-208421473Y-21181109D01*
X-208630295Y-21244455D01*
X-208826750Y-21304049D01*
X-209200255Y-21503691D01*
X-209527635Y-21772365D01*
X-209527905Y-21772695D01*
X-209528235Y-21772965D01*
X-209796909Y-22100345D01*
X-209970683Y-22425456D01*
X-209996551Y-22473851D01*
X-210119490Y-22879127D01*
X-210161002Y-23300600D01*
X-210150600Y-23406212D01*
X-210150599Y-27647748D01*
X-210511687Y-27606931D01*
X-210904271Y-27639901D01*
X-211282879Y-27748827D01*
X-211407912Y-27813363D01*
X-210980594Y-27386045D01*
X-210917629Y-27334371D01*
X-210711438Y-27083126D01*
X-210558223Y-26796483D01*
X-210487819Y-26564389D01*
X-210463875Y-26485457D01*
X-210432017Y-26162000D01*
X-210440000Y-26080948D01*
X-210440000Y-21417052D01*
X-210432017Y-21336000D01*
X-210447272Y-21181110D01*
X-210463875Y-21012544D01*
X-210558223Y-20701517D01*
X-210711438Y-20414874D01*
X-210917629Y-20163629D01*
X-211041333Y-20062108D01*
X-211168874Y-19957438D01*
X-211455517Y-19804223D01*
X-211766544Y-19709875D01*
X-212008948Y-19686000D01*
X-212090000Y-19678017D01*
X-212171052Y-19686000D01*
X-219112948Y-19686000D01*
X-219194000Y-19678017D01*
X-219275052Y-19686000D01*
X-219517456Y-19709875D01*
X-219828483Y-19804223D01*
X-220115126Y-19957438D01*
X-220366371Y-20163629D01*
X-220418045Y-20226594D01*
X-221069411Y-20877960D01*
X-221132370Y-20929629D01*
X-221184038Y-20992587D01*
X-221338561Y-21180874D01*
X-221491777Y-21467518D01*
X-221586124Y-21778544D01*
X-221617982Y-22102000D01*
X-221609999Y-22183052D01*
X-221610000Y-26738761D01*
X-221756309Y-26917039D01*
X-221955951Y-27290545D01*
X-222078890Y-27695821D01*
X-222110000Y-28011683D01*
X-222109999Y-39865612D01*
X-222078889Y-40181474D01*
X-221955950Y-40586750D01*
X-221756308Y-40960255D01*
X-221487634Y-41287635D01*
X-221160254Y-41556309D01*
X-220786749Y-41755951D01*
X-220381473Y-41878890D01*
X-219960000Y-41920402D01*
X-219538526Y-41878890D01*
X-219133250Y-41755951D01*
X-218759745Y-41556309D01*
X-218432365Y-41287635D01*
X-218163691Y-40960255D01*
X-218032652Y-40715098D01*
X-217716749Y-40883951D01*
X-217311473Y-41006890D01*
X-216890000Y-41048402D01*
X-216468526Y-41006890D01*
X-216063250Y-40883951D01*
X-215689745Y-40684309D01*
X-215362365Y-40415635D01*
X-215093691Y-40088255D01*
X-214894049Y-39714750D01*
X-214889025Y-39698188D01*
X-214876909Y-39720855D01*
X-214730600Y-39899133D01*
X-214730599Y-40947146D01*
X-219377451Y-45594000D01*
X-225951467Y-45594000D01*
X-226129745Y-45447691D01*
X-226503251Y-45248049D01*
X-226908527Y-45125110D01*
X-227330000Y-45083598D01*
X-227751474Y-45125110D01*
X-228156750Y-45248049D01*
X-228530255Y-45447691D01*
X-228857635Y-45716365D01*
X-229126309Y-46043745D01*
X-229320000Y-46406117D01*
X-229320000Y-40980000D01*
X-224384388Y-40980000D01*
X-224068526Y-40948890D01*
X-223663250Y-40825951D01*
X-223289745Y-40626309D01*
X-222962365Y-40357635D01*
X-222693691Y-40030255D01*
X-222494049Y-39656750D01*
X-222371110Y-39251474D01*
X-222329598Y-38830000D01*
X-222371110Y-38408526D01*
X-222494049Y-38003250D01*
X-222693691Y-37629745D01*
X-222962365Y-37302365D01*
X-223289745Y-37033691D01*
X-223663250Y-36834049D01*
X-224068526Y-36711110D01*
X-224384388Y-36680000D01*
X-230184389Y-36680000D01*
X-230290001Y-36669598D01*
X-230554122Y-36695612D01*
X-230711474Y-36711110D01*
X-231116750Y-36834049D01*
X-231490255Y-37033691D01*
X-231817635Y-37302365D01*
X-231884966Y-37384408D01*
X-232915597Y-38415039D01*
X-232997634Y-38482365D01*
X-233266308Y-38809745D01*
X-233337039Y-38942074D01*
X-233465951Y-39183251D01*
X-233588890Y-39588527D01*
X-233630402Y-40010000D01*
X-233619999Y-40115622D01*
X-233620000Y-48730000D01*
X-236797097Y-48730000D01*
X-236999745Y-48563691D01*
X-237373250Y-48364049D01*
X-237778526Y-48241110D01*
X-238094388Y-48210000D01*
X-238200000Y-48199598D01*
X-238305612Y-48210000D01*
X-270706000Y-48210000D01*
X-270706000Y-46694858D01*
X-270454743Y-46862743D01*
X-270027070Y-47039891D01*
X-269573055Y-47130200D01*
X-269110145Y-47130200D01*
X-268656130Y-47039891D01*
X-268228457Y-46862743D01*
X-267843562Y-46605564D01*
X-267516236Y-46278238D01*
X-267259057Y-45893343D01*
X-267081909Y-45465670D01*
X-266991600Y-45011655D01*
X-266991600Y-44548745D01*
X-267081909Y-44094730D01*
X-267191600Y-43829913D01*
X-267191600Y-39482156D01*
X-264466938Y-39482156D01*
X-264455806Y-39538126D01*
X-264336653Y-39911651D01*
X-264146919Y-40254753D01*
X-263893895Y-40554247D01*
X-263587304Y-40798624D01*
X-263238928Y-40978492D01*
X-262862156Y-41086939D01*
X-262550000Y-40831876D01*
X-262550000Y-39170000D01*
X-262450000Y-39170000D01*
X-262450000Y-40831876D01*
X-262137844Y-41086939D01*
X-261761072Y-40978492D01*
X-261412696Y-40798624D01*
X-261106105Y-40554247D01*
X-260853081Y-40254753D01*
X-260663347Y-39911651D01*
X-260544194Y-39538126D01*
X-260533062Y-39482156D01*
X-260788230Y-39170000D01*
X-262450000Y-39170000D01*
X-262550000Y-39170000D01*
X-264211770Y-39170000D01*
X-264466938Y-39482156D01*
X-267191600Y-39482156D01*
X-267191600Y-38730000D01*
X-264461400Y-38730000D01*
X-264466938Y-38757844D01*
X-264211770Y-39070000D01*
X-262550000Y-39070000D01*
X-262550000Y-39050000D01*
X-262450000Y-39050000D01*
X-262450000Y-39070000D01*
X-260788230Y-39070000D01*
X-260533062Y-38757844D01*
X-260544194Y-38701874D01*
X-260568908Y-38624400D01*
X-252000012Y-38624400D01*
X-251894400Y-38634802D01*
X-251788788Y-38624400D01*
X-251472926Y-38593290D01*
X-251067650Y-38470351D01*
X-250694145Y-38270709D01*
X-250366765Y-38002035D01*
X-250299434Y-37919992D01*
X-250199442Y-37820000D01*
X-249450000Y-37820000D01*
X-249450000Y-37945611D01*
X-249418890Y-38261473D01*
X-249305564Y-38635059D01*
X-249305564Y-38690000D01*
X-249283360Y-38915439D01*
X-249217602Y-39132215D01*
X-249110816Y-39331997D01*
X-248967107Y-39507107D01*
X-248791997Y-39650816D01*
X-248592215Y-39757602D01*
X-248375439Y-39823360D01*
X-248150000Y-39845564D01*
X-248095060Y-39845564D01*
X-247721474Y-39958890D01*
X-247300000Y-40000402D01*
X-246909999Y-39961990D01*
X-246910000Y-42630200D01*
X-248071313Y-42630200D01*
X-248336130Y-42520509D01*
X-248790145Y-42430200D01*
X-249253055Y-42430200D01*
X-249707070Y-42520509D01*
X-250134743Y-42697657D01*
X-250519638Y-42954836D01*
X-250846964Y-43282162D01*
X-251104143Y-43667057D01*
X-251281291Y-44094730D01*
X-251371600Y-44548745D01*
X-251371600Y-45011655D01*
X-251281291Y-45465670D01*
X-251104143Y-45893343D01*
X-250846964Y-46278238D01*
X-250519638Y-46605564D01*
X-250134743Y-46862743D01*
X-249707070Y-47039891D01*
X-249253055Y-47130200D01*
X-248790145Y-47130200D01*
X-248336130Y-47039891D01*
X-248071313Y-46930200D01*
X-245155812Y-46930200D01*
X-245050200Y-46940602D01*
X-244944588Y-46930200D01*
X-244628726Y-46899090D01*
X-244223450Y-46776151D01*
X-243849945Y-46576509D01*
X-243522565Y-46307835D01*
X-243455234Y-46225792D01*
X-243314408Y-46084966D01*
X-243232365Y-46017635D01*
X-242963691Y-45690255D01*
X-242764049Y-45316750D01*
X-242641110Y-44911474D01*
X-242610000Y-44595612D01*
X-242610000Y-44595611D01*
X-242599598Y-44490000D01*
X-242610000Y-44384388D01*
X-242610000Y-39990000D01*
X-240155612Y-39990000D01*
X-240050000Y-40000402D01*
X-239944388Y-39990000D01*
X-239628526Y-39958890D01*
X-239223250Y-39835951D01*
X-238849745Y-39636309D01*
X-238522365Y-39367635D01*
X-238455034Y-39285592D01*
X-238315042Y-39145600D01*
X-238113692Y-38900254D01*
X-237914049Y-38526749D01*
X-237791110Y-38121473D01*
X-237749598Y-37700000D01*
X-237791110Y-37278527D01*
X-237914049Y-36873250D01*
X-238113692Y-36499746D01*
X-238382366Y-36172366D01*
X-238709746Y-35903692D01*
X-239083250Y-35704049D01*
X-239488527Y-35581110D01*
X-239910000Y-35539598D01*
X-240331473Y-35581110D01*
X-240690436Y-35690000D01*
X-242715800Y-35690000D01*
X-242715800Y-32746253D01*
X-242510230Y-32914960D01*
X-242154097Y-33105317D01*
X-241767670Y-33222538D01*
X-241365800Y-33262119D01*
X-240963931Y-33222538D01*
X-240577504Y-33105317D01*
X-240221370Y-32914960D01*
X-239909217Y-32658783D01*
X-239653040Y-32346630D01*
X-239615800Y-32276959D01*
X-239578560Y-32346630D01*
X-239322383Y-32658783D01*
X-239010230Y-32914960D01*
X-238654097Y-33105317D01*
X-238267670Y-33222538D01*
X-237865800Y-33262119D01*
X-237463931Y-33222538D01*
X-237077504Y-33105317D01*
X-236721370Y-32914960D01*
X-236409217Y-32658783D01*
X-236326285Y-32557730D01*
X-236226616Y-32744197D01*
X-236082907Y-32919307D01*
X-235907797Y-33063016D01*
X-235708015Y-33169802D01*
X-235491239Y-33235560D01*
X-235265800Y-33257764D01*
X-234703300Y-33252200D01*
X-234415800Y-32964700D01*
X-234415800Y-30352200D01*
X-234315800Y-30352200D01*
X-234315800Y-32964700D01*
X-234028300Y-33252200D01*
X-233465800Y-33257764D01*
X-233240361Y-33235560D01*
X-233023585Y-33169802D01*
X-232823803Y-33063016D01*
X-232648693Y-32919307D01*
X-232504984Y-32744197D01*
X-232398198Y-32544415D01*
X-232332440Y-32327639D01*
X-232310236Y-32102200D01*
X-232315800Y-30639700D01*
X-232603300Y-30352200D01*
X-234315800Y-30352200D01*
X-234415800Y-30352200D01*
X-234435800Y-30352200D01*
X-234435800Y-30252200D01*
X-234415800Y-30252200D01*
X-234415800Y-27639700D01*
X-234315800Y-27639700D01*
X-234315800Y-30252200D01*
X-232603300Y-30252200D01*
X-232344285Y-29993185D01*
X-232325491Y-30087670D01*
X-232148343Y-30515343D01*
X-231891164Y-30900238D01*
X-231563838Y-31227564D01*
X-231178943Y-31484743D01*
X-230751270Y-31661891D01*
X-230297255Y-31752200D01*
X-229834345Y-31752200D01*
X-229380330Y-31661891D01*
X-228952657Y-31484743D01*
X-228567762Y-31227564D01*
X-228240436Y-30900238D01*
X-227983257Y-30515343D01*
X-227806109Y-30087670D01*
X-227715800Y-29633655D01*
X-227715800Y-29170745D01*
X-227806109Y-28716730D01*
X-227983257Y-28289057D01*
X-228240436Y-27904162D01*
X-228567762Y-27576836D01*
X-228952657Y-27319657D01*
X-229380330Y-27142509D01*
X-229834345Y-27052200D01*
X-230297255Y-27052200D01*
X-230751270Y-27142509D01*
X-231178943Y-27319657D01*
X-231563838Y-27576836D01*
X-231891164Y-27904162D01*
X-232148343Y-28289057D01*
X-232310918Y-28681548D01*
X-232310236Y-28502200D01*
X-232332440Y-28276761D01*
X-232398198Y-28059985D01*
X-232504984Y-27860203D01*
X-232648693Y-27685093D01*
X-232823803Y-27541384D01*
X-233023585Y-27434598D01*
X-233240361Y-27368840D01*
X-233465800Y-27346636D01*
X-234028300Y-27352200D01*
X-234315800Y-27639700D01*
X-234415800Y-27639700D01*
X-234703300Y-27352200D01*
X-235265800Y-27346636D01*
X-235270000Y-27347050D01*
X-235270000Y-24584388D01*
X-235301110Y-24268526D01*
X-235424049Y-23863250D01*
X-235623691Y-23489745D01*
X-235892365Y-23162365D01*
X-236219745Y-22893691D01*
X-236593251Y-22694049D01*
X-236998527Y-22571110D01*
X-237420000Y-22529598D01*
X-237841474Y-22571110D01*
X-238246750Y-22694049D01*
X-238620255Y-22893691D01*
X-238947635Y-23162365D01*
X-239216309Y-23489745D01*
X-239415951Y-23863251D01*
X-239538890Y-24268527D01*
X-239570000Y-24584389D01*
X-239569999Y-28247340D01*
X-239578559Y-28257770D01*
X-239615800Y-28327442D01*
X-239653040Y-28257770D01*
X-239909217Y-27945617D01*
X-240221370Y-27689440D01*
X-240577503Y-27499083D01*
X-240963930Y-27381862D01*
X-241365800Y-27342281D01*
X-241767669Y-27381862D01*
X-242154096Y-27499083D01*
X-242510229Y-27689440D01*
X-242822382Y-27945617D01*
X-243078559Y-28257770D01*
X-243115800Y-28327442D01*
X-243153040Y-28257770D01*
X-243409217Y-27945617D01*
X-243721370Y-27689440D01*
X-244077503Y-27499083D01*
X-244463930Y-27381862D01*
X-244865800Y-27342281D01*
X-245267669Y-27381862D01*
X-245654096Y-27499083D01*
X-246010229Y-27689440D01*
X-246322382Y-27945617D01*
X-246578559Y-28257770D01*
X-246615800Y-28327442D01*
X-246653040Y-28257770D01*
X-246909217Y-27945617D01*
X-247221370Y-27689440D01*
X-247577503Y-27499083D01*
X-247963930Y-27381862D01*
X-248365800Y-27342281D01*
X-248767669Y-27381862D01*
X-249154096Y-27499083D01*
X-249510229Y-27689440D01*
X-249715800Y-27858148D01*
X-249715800Y-15799814D01*
X-249705398Y-15694200D01*
X-249746909Y-15272726D01*
X-249869849Y-14867450D01*
X-249911849Y-14788874D01*
X-250069491Y-14493945D01*
X-250338165Y-14166565D01*
X-250665545Y-13897891D01*
X-251039050Y-13698249D01*
X-251444326Y-13575309D01*
X-251865800Y-13533798D01*
X-252287273Y-13575309D01*
X-252692549Y-13698249D01*
X-253066054Y-13897891D01*
X-253263584Y-14060000D01*
X-303861467Y-14060000D01*
X-304039745Y-13913691D01*
X-304413250Y-13714049D01*
X-304818526Y-13591110D01*
X-305134388Y-13560000D01*
X-305344385Y-13560000D01*
X-305450000Y-13549598D01*
X-305871474Y-13591109D01*
X-306276750Y-13714049D01*
X-306650255Y-13913691D01*
X-306977635Y-14182365D01*
X-307044959Y-14264400D01*
X-348815592Y-56035034D01*
X-348897635Y-56102365D01*
X-349166309Y-56429745D01*
X-349360674Y-56793378D01*
X-349365951Y-56803251D01*
X-349488890Y-57208527D01*
X-349530402Y-57630000D01*
X-352639911Y-57630000D01*
X-352748912Y-51381092D01*
X-310863257Y-9540341D01*
X-185336936Y-10229196D01*
G37*
%TD.AperFunction*%
D25*
X-284903147Y-109967858D02*
X-284917289Y-109982000D01*
X-284903147Y-109996142D01*
X-284973858Y-110066853D01*
X-284988000Y-110052711D01*
X-285002142Y-110066853D01*
X-285072853Y-109996142D01*
X-285058711Y-109982000D01*
X-285072853Y-109967858D01*
X-285002142Y-109897147D01*
X-284988000Y-109911289D01*
X-284973858Y-109897147D01*
X-284903147Y-109967858D01*
%TA.AperFunction,Conductor*%
D26*
G36*
X-284903147Y-109967858D02*
G01*
X-284917289Y-109982000D01*
X-284903147Y-109996142D01*
X-284973858Y-110066853D01*
X-284988000Y-110052711D01*
X-285002142Y-110066853D01*
X-285072853Y-109996142D01*
X-285058711Y-109982000D01*
X-285072853Y-109967858D01*
X-285002142Y-109897147D01*
X-284988000Y-109911289D01*
X-284973858Y-109897147D01*
X-284903147Y-109967858D01*
G37*
%TD.AperFunction*%
D25*
X-274005999Y-44083453D02*
X-274006000Y-48210000D01*
X-274185612Y-48210000D01*
X-274501474Y-48241110D01*
X-274906750Y-48364049D01*
X-275280255Y-48563691D01*
X-275607635Y-48832365D01*
X-275876309Y-49159745D01*
X-276075951Y-49533250D01*
X-276198890Y-49938526D01*
X-276240402Y-50360000D01*
X-276198890Y-50781474D01*
X-276075951Y-51186750D01*
X-276048361Y-51238367D01*
X-276396750Y-51344049D01*
X-276770255Y-51543692D01*
X-277015601Y-51745042D01*
X-279658323Y-54387765D01*
X-279923143Y-54497457D01*
X-280308038Y-54754636D01*
X-280635364Y-55081962D01*
X-280892543Y-55466857D01*
X-281069691Y-55894530D01*
X-281160000Y-56348545D01*
X-281160000Y-56811455D01*
X-281069691Y-57265470D01*
X-280892543Y-57693143D01*
X-280635364Y-58078038D01*
X-280308038Y-58405364D01*
X-279923143Y-58662543D01*
X-279495470Y-58839691D01*
X-279041455Y-58930000D01*
X-278578545Y-58930000D01*
X-278124530Y-58839691D01*
X-277696857Y-58662543D01*
X-277311962Y-58405364D01*
X-276984636Y-58078038D01*
X-276727457Y-57693143D01*
X-276617765Y-57428323D01*
X-274179441Y-54990000D01*
X-268090558Y-54990000D01*
X-267129600Y-55950958D01*
X-266884254Y-56152308D01*
X-266510750Y-56351951D01*
X-266105474Y-56474890D01*
X-265684000Y-56516402D01*
X-265262527Y-56474890D01*
X-264993989Y-56393430D01*
X-273570558Y-64970000D01*
X-277425612Y-64970000D01*
X-277741474Y-65001110D01*
X-278146750Y-65124049D01*
X-278520255Y-65323691D01*
X-278847635Y-65592365D01*
X-279116309Y-65919745D01*
X-279315951Y-66293250D01*
X-279438890Y-66698526D01*
X-279480402Y-67120000D01*
X-279438890Y-67541474D01*
X-279315951Y-67946750D01*
X-279116309Y-68320255D01*
X-278847635Y-68647635D01*
X-278520255Y-68916309D01*
X-278146750Y-69115951D01*
X-277741474Y-69238890D01*
X-277425612Y-69270000D01*
X-272785612Y-69270000D01*
X-272680000Y-69280402D01*
X-272574388Y-69270000D01*
X-272258526Y-69238890D01*
X-271853250Y-69115951D01*
X-271479745Y-68916309D01*
X-271152365Y-68647635D01*
X-271085034Y-68565592D01*
X-259875042Y-57355601D01*
X-259673692Y-57110255D01*
X-259474050Y-56736750D01*
X-259351110Y-56331474D01*
X-259309598Y-55910001D01*
X-259351110Y-55488527D01*
X-259474050Y-55083251D01*
X-259673692Y-54709746D01*
X-259942366Y-54382366D01*
X-260269746Y-54113692D01*
X-260643251Y-53914050D01*
X-261048527Y-53791110D01*
X-261470001Y-53749598D01*
X-261891474Y-53791110D01*
X-262296750Y-53914050D01*
X-262670255Y-54113692D01*
X-262915601Y-54315042D01*
X-263646570Y-55046011D01*
X-263565110Y-54777473D01*
X-263523598Y-54356000D01*
X-263565110Y-53934526D01*
X-263688049Y-53529250D01*
X-263887692Y-53155746D01*
X-264089042Y-52910400D01*
X-264489442Y-52510000D01*
X-249888123Y-52510000D01*
X-249906254Y-52519691D01*
X-250233635Y-52788365D01*
X-250502309Y-53115745D01*
X-250701951Y-53489250D01*
X-250824890Y-53894526D01*
X-250856000Y-54210388D01*
X-250856000Y-54675611D01*
X-250824890Y-54991473D01*
X-250701951Y-55396749D01*
X-250502309Y-55770255D01*
X-250233635Y-56097635D01*
X-249906255Y-56366309D01*
X-249532750Y-56565951D01*
X-249213119Y-56662910D01*
X-249220890Y-56688526D01*
X-249262402Y-57110000D01*
X-249220890Y-57531474D01*
X-249097951Y-57936750D01*
X-248898309Y-58310255D01*
X-248752000Y-58488533D01*
X-248751999Y-59728547D01*
X-254429451Y-65406000D01*
X-261257467Y-65406000D01*
X-261435745Y-65259691D01*
X-261809250Y-65060049D01*
X-262214526Y-64937110D01*
X-262530388Y-64906000D01*
X-264011612Y-64906000D01*
X-264327474Y-64937110D01*
X-264732750Y-65060049D01*
X-265106255Y-65259691D01*
X-265433635Y-65528365D01*
X-265702309Y-65855745D01*
X-265901951Y-66229250D01*
X-266024890Y-66634526D01*
X-266031861Y-66705300D01*
X-266040125Y-66732544D01*
X-266071983Y-67056000D01*
X-266040125Y-67379456D01*
X-266031861Y-67406700D01*
X-266024890Y-67477474D01*
X-265901951Y-67882750D01*
X-265702309Y-68256255D01*
X-265433635Y-68583635D01*
X-265106255Y-68852309D01*
X-264732750Y-69051951D01*
X-264327474Y-69174890D01*
X-264011612Y-69206000D01*
X-262530388Y-69206000D01*
X-262214526Y-69174890D01*
X-261809250Y-69051951D01*
X-261435745Y-68852309D01*
X-261257467Y-68706000D01*
X-259653372Y-68706000D01*
X-259727136Y-68745428D01*
X-259978381Y-68951619D01*
X-260184572Y-69202864D01*
X-260337787Y-69489507D01*
X-260432135Y-69800534D01*
X-260463993Y-70123990D01*
X-260432135Y-70447446D01*
X-260337787Y-70758473D01*
X-260184572Y-71045116D01*
X-259978381Y-71296361D01*
X-259968000Y-71304880D01*
X-259967999Y-83203466D01*
X-260114309Y-83381745D01*
X-260313951Y-83755251D01*
X-260436890Y-84160527D01*
X-260468000Y-84476389D01*
X-260468000Y-85195612D01*
X-260436890Y-85511474D01*
X-260313951Y-85916750D01*
X-260114309Y-86290255D01*
X-259845634Y-86617635D01*
X-259518254Y-86886309D01*
X-259144749Y-87085951D01*
X-258739473Y-87208890D01*
X-258318000Y-87250402D01*
X-257896526Y-87208890D01*
X-257491250Y-87085951D01*
X-257117745Y-86886309D01*
X-256790365Y-86617635D01*
X-256521691Y-86290255D01*
X-256322049Y-85916749D01*
X-256199110Y-85511473D01*
X-256168000Y-85195611D01*
X-256168000Y-84476388D01*
X-256199110Y-84160526D01*
X-256322049Y-83755250D01*
X-256521691Y-83381745D01*
X-256668000Y-83203467D01*
X-256668000Y-71773990D01*
X-255650000Y-71773990D01*
X-255649999Y-83711466D01*
X-255796309Y-83889745D01*
X-255995951Y-84263251D01*
X-256118890Y-84668527D01*
X-256150000Y-84984389D01*
X-256150000Y-85957612D01*
X-256118890Y-86273474D01*
X-255995951Y-86678750D01*
X-255796308Y-87052255D01*
X-255527634Y-87379635D01*
X-255200254Y-87648309D01*
X-254826749Y-87847951D01*
X-254421473Y-87970890D01*
X-254000000Y-88012402D01*
X-253578526Y-87970890D01*
X-253173250Y-87847951D01*
X-252799745Y-87648309D01*
X-252472365Y-87379635D01*
X-252203691Y-87052255D01*
X-252004049Y-86678749D01*
X-251881110Y-86273473D01*
X-251850000Y-85957611D01*
X-251850000Y-84984388D01*
X-251881110Y-84668526D01*
X-252004049Y-84263250D01*
X-252203691Y-83889745D01*
X-252350000Y-83711467D01*
X-252350000Y-73278000D01*
X-248839452Y-73278000D01*
X-249267407Y-73705956D01*
X-249330371Y-73757629D01*
X-249536562Y-74008875D01*
X-249689777Y-74295518D01*
X-249784125Y-74606545D01*
X-249808000Y-74848949D01*
X-249808000Y-74848958D01*
X-249815982Y-74930000D01*
X-249808000Y-75011042D01*
X-249807999Y-78404949D01*
X-249815982Y-78486000D01*
X-249784124Y-78809456D01*
X-249689777Y-79120482D01*
X-249553456Y-79375518D01*
X-249536561Y-79407126D01*
X-249330370Y-79658371D01*
X-249267411Y-79710040D01*
X-247514000Y-81463452D01*
X-247514000Y-82401612D01*
X-247482890Y-82717474D01*
X-247359951Y-83122750D01*
X-247160308Y-83496255D01*
X-246891634Y-83823635D01*
X-246564254Y-84092309D01*
X-246190749Y-84291951D01*
X-245785473Y-84414890D01*
X-245364000Y-84456402D01*
X-244942526Y-84414890D01*
X-244537250Y-84291951D01*
X-244163745Y-84092309D01*
X-243836365Y-83823635D01*
X-243567691Y-83496255D01*
X-243368049Y-83122749D01*
X-243245110Y-82717473D01*
X-243214000Y-82401611D01*
X-243214000Y-81174388D01*
X-243245110Y-80858526D01*
X-243368049Y-80453250D01*
X-243567691Y-80079745D01*
X-243836365Y-79752365D01*
X-244163745Y-79483691D01*
X-244537251Y-79284049D01*
X-244942527Y-79161110D01*
X-245172044Y-79138504D01*
X-246508000Y-77802549D01*
X-246508000Y-75613452D01*
X-245950548Y-75056000D01*
X-243667042Y-75056000D01*
X-243586000Y-75063982D01*
X-243504958Y-75056000D01*
X-243504948Y-75056000D01*
X-243262544Y-75032125D01*
X-242951517Y-74937777D01*
X-242664874Y-74784562D01*
X-242429842Y-74591677D01*
X-242450000Y-74693017D01*
X-242450000Y-75086983D01*
X-242373141Y-75473378D01*
X-242222377Y-75837355D01*
X-242003501Y-76164926D01*
X-241994458Y-76173969D01*
X-242096919Y-76295247D01*
X-242286653Y-76638349D01*
X-242405806Y-77011874D01*
X-242416938Y-77067844D01*
X-242161770Y-77380000D01*
X-240500000Y-77380000D01*
X-240500000Y-77360000D01*
X-240400000Y-77360000D01*
X-240400000Y-77380000D01*
X-237960000Y-77380000D01*
X-237960000Y-77360000D01*
X-237860000Y-77360000D01*
X-237860000Y-77380000D01*
X-237840000Y-77380000D01*
X-237840000Y-77480000D01*
X-237860000Y-77480000D01*
X-237860000Y-77500000D01*
X-237960000Y-77500000D01*
X-237960000Y-77480000D01*
X-240400000Y-77480000D01*
X-240400000Y-77500000D01*
X-240500000Y-77500000D01*
X-240500000Y-77480000D01*
X-242161770Y-77480000D01*
X-242416938Y-77792156D01*
X-242405806Y-77848126D01*
X-242286653Y-78221651D01*
X-242096919Y-78564753D01*
X-241994458Y-78686031D01*
X-242003501Y-78695074D01*
X-242222377Y-79022645D01*
X-242373141Y-79386622D01*
X-242450000Y-79773017D01*
X-242450000Y-80166983D01*
X-242373141Y-80553378D01*
X-242222377Y-80917355D01*
X-242006792Y-81240000D01*
X-242222377Y-81562645D01*
X-242373141Y-81926622D01*
X-242450000Y-82313017D01*
X-242450000Y-82706983D01*
X-242373141Y-83093378D01*
X-242222377Y-83457355D01*
X-242006792Y-83780000D01*
X-242222377Y-84102645D01*
X-242373141Y-84466622D01*
X-242450000Y-84853017D01*
X-242450000Y-85246983D01*
X-242373141Y-85633378D01*
X-242222377Y-85997355D01*
X-242006792Y-86320000D01*
X-242222377Y-86642645D01*
X-242373141Y-87006622D01*
X-242450000Y-87393017D01*
X-242450000Y-87786983D01*
X-242373141Y-88173378D01*
X-242222377Y-88537355D01*
X-242003501Y-88864926D01*
X-241724926Y-89143501D01*
X-241397355Y-89362377D01*
X-241033378Y-89513141D01*
X-240646983Y-89590000D01*
X-240253017Y-89590000D01*
X-239866622Y-89513141D01*
X-239560000Y-89386134D01*
X-239559999Y-91080000D01*
X-241086492Y-91080000D01*
X-241121110Y-90728526D01*
X-241244049Y-90323250D01*
X-241443691Y-89949745D01*
X-241712365Y-89622365D01*
X-242039745Y-89353691D01*
X-242413250Y-89154049D01*
X-242818526Y-89031110D01*
X-243134388Y-89000000D01*
X-243134396Y-89000000D01*
X-243240001Y-88989599D01*
X-243345605Y-89000000D01*
X-286702656Y-89000000D01*
X-286548049Y-88710750D01*
X-286425110Y-88305474D01*
X-286394000Y-87989612D01*
X-286394000Y-87735612D01*
X-286383598Y-87630000D01*
X-286425110Y-87208526D01*
X-286548049Y-86803251D01*
X-286594619Y-86716125D01*
X-286747691Y-86429745D01*
X-287016365Y-86102365D01*
X-287098408Y-86035034D01*
X-287860400Y-85273042D01*
X-288105746Y-85071692D01*
X-288479251Y-84872049D01*
X-288884527Y-84749110D01*
X-289306000Y-84707598D01*
X-289727473Y-84749110D01*
X-289824120Y-84778428D01*
X-295701955Y-78900594D01*
X-295753629Y-78837629D01*
X-296004874Y-78631438D01*
X-296291517Y-78478223D01*
X-296602544Y-78383875D01*
X-296844948Y-78360000D01*
X-296844958Y-78360000D01*
X-296926000Y-78352018D01*
X-297007042Y-78360000D01*
X-298558085Y-78360000D01*
X-298191962Y-78115364D01*
X-297864636Y-77788038D01*
X-297607457Y-77403143D01*
X-297430309Y-76975470D01*
X-297340000Y-76521455D01*
X-297340000Y-76368545D01*
X-291140000Y-76368545D01*
X-291140000Y-76831455D01*
X-291049691Y-77285470D01*
X-290872543Y-77713143D01*
X-290615364Y-78098038D01*
X-290288038Y-78425364D01*
X-289903143Y-78682543D01*
X-289475470Y-78859691D01*
X-289021455Y-78950000D01*
X-288558545Y-78950000D01*
X-288104530Y-78859691D01*
X-287676857Y-78682543D01*
X-287291962Y-78425364D01*
X-286964636Y-78098038D01*
X-286707457Y-77713143D01*
X-286530309Y-77285470D01*
X-286440000Y-76831455D01*
X-286440000Y-76668545D01*
X-281160000Y-76668545D01*
X-281160000Y-77131455D01*
X-281069691Y-77585470D01*
X-280960000Y-77850288D01*
X-280959999Y-83081612D01*
X-280928889Y-83397474D01*
X-280805950Y-83802750D01*
X-280606308Y-84176255D01*
X-280337634Y-84503635D01*
X-280010254Y-84772309D01*
X-279636749Y-84971951D01*
X-279231473Y-85094890D01*
X-278810000Y-85136402D01*
X-278388526Y-85094890D01*
X-277983250Y-84971951D01*
X-277609745Y-84772309D01*
X-277282365Y-84503635D01*
X-277013691Y-84176255D01*
X-276814049Y-83802750D01*
X-276691110Y-83397474D01*
X-276660000Y-83081612D01*
X-276660000Y-77850287D01*
X-276550309Y-77585470D01*
X-276460000Y-77131455D01*
X-276460000Y-76668545D01*
X-276550309Y-76214530D01*
X-276727457Y-75786857D01*
X-276984636Y-75401962D01*
X-277311962Y-75074636D01*
X-277696857Y-74817457D01*
X-278124530Y-74640309D01*
X-278578545Y-74550000D01*
X-279041455Y-74550000D01*
X-279495470Y-74640309D01*
X-279923143Y-74817457D01*
X-280308038Y-75074636D01*
X-280635364Y-75401962D01*
X-280892543Y-75786857D01*
X-281069691Y-76214530D01*
X-281160000Y-76668545D01*
X-286440000Y-76668545D01*
X-286440000Y-76368545D01*
X-286530309Y-75914530D01*
X-286707457Y-75486857D01*
X-286964636Y-75101962D01*
X-287291962Y-74774636D01*
X-287676857Y-74517457D01*
X-288104530Y-74340309D01*
X-288558545Y-74250000D01*
X-289021455Y-74250000D01*
X-289475470Y-74340309D01*
X-289903143Y-74517457D01*
X-290288038Y-74774636D01*
X-290615364Y-75101962D01*
X-290872543Y-75486857D01*
X-291049691Y-75914530D01*
X-291140000Y-76368545D01*
X-297340000Y-76368545D01*
X-297340000Y-76058545D01*
X-297430309Y-75604530D01*
X-297607457Y-75176857D01*
X-297864636Y-74791962D01*
X-298191962Y-74464636D01*
X-298576857Y-74207457D01*
X-299004530Y-74030309D01*
X-299458545Y-73940000D01*
X-299921455Y-73940000D01*
X-300375470Y-74030309D01*
X-300640287Y-74140000D01*
X-303514388Y-74140000D01*
X-303620000Y-74129598D01*
X-303725612Y-74140000D01*
X-304041474Y-74171110D01*
X-304446750Y-74294049D01*
X-304820255Y-74493691D01*
X-305147635Y-74762365D01*
X-305214966Y-74844408D01*
X-306140958Y-75770400D01*
X-306342308Y-76015746D01*
X-306541951Y-76389251D01*
X-306664890Y-76794527D01*
X-306706402Y-77216000D01*
X-306664890Y-77637473D01*
X-306541951Y-78042749D01*
X-306342308Y-78416254D01*
X-306073634Y-78743634D01*
X-305746254Y-79012308D01*
X-305372749Y-79211951D01*
X-304967473Y-79334890D01*
X-304737956Y-79357496D01*
X-302976040Y-81119412D01*
X-302924371Y-81182371D01*
X-302768364Y-81310402D01*
X-302673126Y-81388562D01*
X-302386483Y-81541777D01*
X-302075456Y-81636125D01*
X-301752000Y-81667983D01*
X-301670948Y-81660000D01*
X-297609451Y-81660000D01*
X-292215686Y-87053765D01*
X-292202125Y-87191456D01*
X-292107777Y-87502483D01*
X-291954562Y-87789126D01*
X-291766745Y-88017982D01*
X-291748371Y-88040371D01*
X-291497126Y-88246562D01*
X-291210483Y-88399777D01*
X-290899456Y-88494125D01*
X-290700874Y-88513684D01*
X-290555688Y-88658870D01*
X-290539951Y-88710749D01*
X-290385344Y-89000000D01*
X-327259441Y-89000000D01*
X-336180053Y-80079389D01*
X-336194049Y-80033251D01*
X-336393691Y-79659745D01*
X-336662365Y-79332365D01*
X-336744408Y-79265034D01*
X-336790000Y-79219442D01*
X-336790000Y-76288545D01*
X-315000000Y-76288545D01*
X-315000000Y-76751455D01*
X-314909691Y-77205470D01*
X-314732543Y-77633143D01*
X-314475364Y-78018038D01*
X-314148038Y-78345364D01*
X-313763143Y-78602543D01*
X-313335470Y-78779691D01*
X-312881455Y-78870000D01*
X-312418545Y-78870000D01*
X-311964530Y-78779691D01*
X-311536857Y-78602543D01*
X-311151962Y-78345364D01*
X-310824636Y-78018038D01*
X-310567457Y-77633143D01*
X-310390309Y-77205470D01*
X-310300000Y-76751455D01*
X-310300000Y-76288545D01*
X-310390309Y-75834530D01*
X-310567457Y-75406857D01*
X-310824636Y-75021962D01*
X-311151962Y-74694636D01*
X-311536857Y-74437457D01*
X-311964530Y-74260309D01*
X-312418545Y-74170000D01*
X-312881455Y-74170000D01*
X-313335470Y-74260309D01*
X-313763143Y-74437457D01*
X-314148038Y-74694636D01*
X-314475364Y-75021962D01*
X-314732543Y-75406857D01*
X-314909691Y-75834530D01*
X-315000000Y-76288545D01*
X-336790000Y-76288545D01*
X-336790000Y-72389595D01*
X-336567943Y-72537968D01*
X-336231265Y-72677425D01*
X-335873849Y-72748520D01*
X-335509431Y-72748520D01*
X-335152015Y-72677425D01*
X-334815337Y-72537968D01*
X-334512334Y-72335509D01*
X-334254651Y-72077826D01*
X-334052192Y-71774823D01*
X-333912735Y-71438145D01*
X-333841640Y-71080729D01*
X-333841640Y-70716311D01*
X-329921640Y-70716311D01*
X-329921640Y-71080729D01*
X-329850545Y-71438145D01*
X-329711088Y-71774823D01*
X-329508629Y-72077826D01*
X-329250946Y-72335509D01*
X-328947943Y-72537968D01*
X-328611265Y-72677425D01*
X-328253849Y-72748520D01*
X-327889431Y-72748520D01*
X-327532015Y-72677425D01*
X-327195337Y-72537968D01*
X-326892334Y-72335509D01*
X-326634651Y-72077826D01*
X-326432192Y-71774823D01*
X-326292735Y-71438145D01*
X-326221640Y-71080729D01*
X-326221640Y-70898093D01*
X-296070000Y-70898093D01*
X-296070000Y-71301907D01*
X-295991220Y-71697963D01*
X-295836686Y-72071039D01*
X-295612339Y-72406799D01*
X-295326799Y-72692339D01*
X-294991039Y-72916686D01*
X-294617963Y-73071220D01*
X-294221907Y-73150000D01*
X-293818093Y-73150000D01*
X-293422037Y-73071220D01*
X-293048961Y-72916686D01*
X-292713201Y-72692339D01*
X-292427661Y-72406799D01*
X-292203314Y-72071039D01*
X-292048780Y-71697963D01*
X-291970000Y-71301907D01*
X-291970000Y-70898093D01*
X-292048780Y-70502037D01*
X-292203314Y-70128961D01*
X-292427661Y-69793201D01*
X-292713201Y-69507661D01*
X-293048961Y-69283314D01*
X-293422037Y-69128780D01*
X-293818093Y-69050000D01*
X-294221907Y-69050000D01*
X-294617963Y-69128780D01*
X-294991039Y-69283314D01*
X-295326799Y-69507661D01*
X-295612339Y-69793201D01*
X-295836686Y-70128961D01*
X-295991220Y-70502037D01*
X-296070000Y-70898093D01*
X-326221640Y-70898093D01*
X-326221640Y-70716311D01*
X-326292735Y-70358895D01*
X-326432192Y-70022217D01*
X-326634651Y-69719214D01*
X-326892334Y-69461531D01*
X-327195337Y-69259072D01*
X-327532015Y-69119615D01*
X-327889431Y-69048520D01*
X-328253849Y-69048520D01*
X-328611265Y-69119615D01*
X-328947943Y-69259072D01*
X-329250946Y-69461531D01*
X-329508629Y-69719214D01*
X-329711088Y-70022217D01*
X-329850545Y-70358895D01*
X-329921640Y-70716311D01*
X-333841640Y-70716311D01*
X-333912735Y-70358895D01*
X-334052192Y-70022217D01*
X-334254651Y-69719214D01*
X-334512334Y-69461531D01*
X-334815337Y-69259072D01*
X-335152015Y-69119615D01*
X-335509431Y-69048520D01*
X-335873849Y-69048520D01*
X-336231265Y-69119615D01*
X-336567943Y-69259072D01*
X-336790000Y-69407445D01*
X-336790000Y-62230558D01*
X-335947535Y-61388093D01*
X-277660000Y-61388093D01*
X-277660000Y-61791907D01*
X-277581220Y-62187963D01*
X-277426686Y-62561039D01*
X-277202339Y-62896799D01*
X-276916799Y-63182339D01*
X-276581039Y-63406686D01*
X-276207963Y-63561220D01*
X-275811907Y-63640000D01*
X-275408093Y-63640000D01*
X-275012037Y-63561220D01*
X-274638961Y-63406686D01*
X-274303201Y-63182339D01*
X-274017661Y-62896799D01*
X-273793314Y-62561039D01*
X-273638780Y-62187963D01*
X-273560000Y-61791907D01*
X-273560000Y-61388093D01*
X-273638780Y-60992037D01*
X-273793314Y-60618961D01*
X-274017661Y-60283201D01*
X-274303201Y-59997661D01*
X-274638961Y-59773314D01*
X-275012037Y-59618780D01*
X-275408093Y-59540000D01*
X-275811907Y-59540000D01*
X-276207963Y-59618780D01*
X-276581039Y-59773314D01*
X-276916799Y-59997661D01*
X-277202339Y-60283201D01*
X-277426686Y-60618961D01*
X-277581220Y-60992037D01*
X-277660000Y-61388093D01*
X-335947535Y-61388093D01*
X-330527987Y-55968545D01*
X-315000000Y-55968545D01*
X-315000000Y-56431455D01*
X-314909691Y-56885470D01*
X-314732543Y-57313143D01*
X-314475364Y-57698038D01*
X-314148038Y-58025364D01*
X-313763143Y-58282543D01*
X-313335470Y-58459691D01*
X-312881455Y-58550000D01*
X-312418545Y-58550000D01*
X-311964530Y-58459691D01*
X-311536857Y-58282543D01*
X-311151962Y-58025364D01*
X-310824636Y-57698038D01*
X-310567457Y-57313143D01*
X-310390309Y-56885470D01*
X-310300000Y-56431455D01*
X-310300000Y-55968545D01*
X-310345749Y-55738545D01*
X-302040000Y-55738545D01*
X-302040000Y-56201455D01*
X-301949691Y-56655470D01*
X-301772543Y-57083143D01*
X-301515364Y-57468038D01*
X-301188038Y-57795364D01*
X-300803143Y-58052543D01*
X-300375470Y-58229691D01*
X-299921455Y-58320000D01*
X-299458545Y-58320000D01*
X-299004530Y-58229691D01*
X-298576857Y-58052543D01*
X-298191962Y-57795364D01*
X-297864636Y-57468038D01*
X-297607457Y-57083143D01*
X-297430309Y-56655470D01*
X-297340000Y-56201455D01*
X-297340000Y-56048545D01*
X-291140000Y-56048545D01*
X-291140000Y-56511455D01*
X-291049691Y-56965470D01*
X-290872543Y-57393143D01*
X-290615364Y-57778038D01*
X-290288038Y-58105364D01*
X-289903143Y-58362543D01*
X-289475470Y-58539691D01*
X-289021455Y-58630000D01*
X-288558545Y-58630000D01*
X-288104530Y-58539691D01*
X-287676857Y-58362543D01*
X-287291962Y-58105364D01*
X-286964636Y-57778038D01*
X-286707457Y-57393143D01*
X-286530309Y-56965470D01*
X-286440000Y-56511455D01*
X-286440000Y-56048545D01*
X-286530309Y-55594530D01*
X-286707457Y-55166857D01*
X-286964636Y-54781962D01*
X-287291962Y-54454636D01*
X-287676857Y-54197457D01*
X-288104530Y-54020309D01*
X-288558545Y-53930000D01*
X-289021455Y-53930000D01*
X-289475470Y-54020309D01*
X-289903143Y-54197457D01*
X-290288038Y-54454636D01*
X-290615364Y-54781962D01*
X-290872543Y-55166857D01*
X-291049691Y-55594530D01*
X-291140000Y-56048545D01*
X-297340000Y-56048545D01*
X-297340000Y-55738545D01*
X-297430309Y-55284530D01*
X-297607457Y-54856857D01*
X-297864636Y-54471962D01*
X-298191962Y-54144636D01*
X-298576857Y-53887457D01*
X-299004530Y-53710309D01*
X-299458545Y-53620000D01*
X-299921455Y-53620000D01*
X-300375470Y-53710309D01*
X-300803143Y-53887457D01*
X-301188038Y-54144636D01*
X-301515364Y-54471962D01*
X-301772543Y-54856857D01*
X-301949691Y-55284530D01*
X-302040000Y-55738545D01*
X-310345749Y-55738545D01*
X-310390309Y-55514530D01*
X-310567457Y-55086857D01*
X-310824636Y-54701962D01*
X-311151962Y-54374636D01*
X-311536857Y-54117457D01*
X-311964530Y-53940309D01*
X-312418545Y-53850000D01*
X-312881455Y-53850000D01*
X-313335470Y-53940309D01*
X-313763143Y-54117457D01*
X-314148038Y-54374636D01*
X-314475364Y-54701962D01*
X-314732543Y-55086857D01*
X-314909691Y-55514530D01*
X-315000000Y-55968545D01*
X-330527987Y-55968545D01*
X-323151598Y-48592156D01*
X-279986938Y-48592156D01*
X-279975806Y-48648126D01*
X-279856653Y-49021651D01*
X-279666919Y-49364753D01*
X-279413895Y-49664247D01*
X-279107304Y-49908624D01*
X-278758928Y-50088492D01*
X-278382156Y-50196939D01*
X-278070000Y-49941876D01*
X-278070000Y-48280000D01*
X-277970000Y-48280000D01*
X-277970000Y-49941876D01*
X-277657844Y-50196939D01*
X-277281072Y-50088492D01*
X-276932696Y-49908624D01*
X-276626105Y-49664247D01*
X-276373081Y-49364753D01*
X-276183347Y-49021651D01*
X-276064194Y-48648126D01*
X-276053062Y-48592156D01*
X-276308230Y-48280000D01*
X-277970000Y-48280000D01*
X-278070000Y-48280000D01*
X-279731770Y-48280000D01*
X-279986938Y-48592156D01*
X-323151598Y-48592156D01*
X-317539441Y-42980000D01*
X-306503028Y-42980000D01*
X-306709625Y-43021095D01*
X-307046303Y-43160552D01*
X-307349306Y-43363011D01*
X-307606989Y-43620694D01*
X-307809448Y-43923697D01*
X-307948905Y-44260375D01*
X-308020000Y-44617791D01*
X-308020000Y-44982209D01*
X-307948905Y-45339625D01*
X-307809448Y-45676303D01*
X-307606989Y-45979306D01*
X-307349306Y-46236989D01*
X-307046303Y-46439448D01*
X-306709625Y-46578905D01*
X-306352209Y-46650000D01*
X-305987791Y-46650000D01*
X-305630375Y-46578905D01*
X-305293697Y-46439448D01*
X-304990694Y-46236989D01*
X-304733011Y-45979306D01*
X-304530552Y-45676303D01*
X-304391095Y-45339625D01*
X-304320000Y-44982209D01*
X-304320000Y-44617791D01*
X-304391095Y-44260375D01*
X-304530552Y-43923697D01*
X-304733011Y-43620694D01*
X-304990694Y-43363011D01*
X-305293697Y-43160552D01*
X-305630375Y-43021095D01*
X-305836972Y-42980000D01*
X-298883028Y-42980000D01*
X-299089625Y-43021095D01*
X-299426303Y-43160552D01*
X-299729306Y-43363011D01*
X-299986989Y-43620694D01*
X-300189448Y-43923697D01*
X-300328905Y-44260375D01*
X-300400000Y-44617791D01*
X-300400000Y-44982209D01*
X-300328905Y-45339625D01*
X-300189448Y-45676303D01*
X-299986989Y-45979306D01*
X-299729306Y-46236989D01*
X-299426303Y-46439448D01*
X-299089625Y-46578905D01*
X-298732209Y-46650000D01*
X-298367791Y-46650000D01*
X-298010375Y-46578905D01*
X-297673697Y-46439448D01*
X-297370694Y-46236989D01*
X-297113011Y-45979306D01*
X-296910552Y-45676303D01*
X-296771095Y-45339625D01*
X-296700000Y-44982209D01*
X-296700000Y-44617791D01*
X-296771095Y-44260375D01*
X-296910552Y-43923697D01*
X-297113011Y-43620694D01*
X-297370694Y-43363011D01*
X-297673697Y-43160552D01*
X-298010375Y-43021095D01*
X-298216972Y-42980000D01*
X-287364388Y-42980000D01*
X-287048526Y-42948890D01*
X-286643250Y-42825951D01*
X-286269745Y-42626309D01*
X-286040000Y-42437762D01*
X-286040000Y-45294388D01*
X-286050402Y-45400000D01*
X-286040000Y-45505611D01*
X-286008890Y-45821473D01*
X-285885951Y-46226749D01*
X-285686309Y-46600255D01*
X-285417635Y-46927635D01*
X-285335592Y-46994966D01*
X-285194966Y-47135592D01*
X-285127635Y-47217635D01*
X-284800255Y-47486309D01*
X-284426750Y-47685951D01*
X-284021474Y-47808890D01*
X-283705612Y-47840000D01*
X-283600000Y-47850402D01*
X-283494388Y-47840000D01*
X-279981400Y-47840000D01*
X-279986938Y-47867844D01*
X-279731770Y-48180000D01*
X-278070000Y-48180000D01*
X-278070000Y-48160000D01*
X-277970000Y-48160000D01*
X-277970000Y-48180000D01*
X-276308230Y-48180000D01*
X-276053062Y-47867844D01*
X-276064194Y-47811874D01*
X-276183347Y-47438349D01*
X-276373081Y-47095247D01*
X-276382639Y-47083934D01*
X-276223691Y-46890255D01*
X-276024049Y-46516750D01*
X-275901110Y-46111474D01*
X-275859598Y-45690000D01*
X-275901110Y-45268526D01*
X-276024049Y-44863250D01*
X-276175747Y-44579442D01*
X-276102398Y-44442215D01*
X-276036640Y-44225439D01*
X-276014436Y-44000000D01*
X-276014436Y-43945060D01*
X-275901110Y-43571474D01*
X-275870000Y-43255612D01*
X-275870000Y-42219452D01*
X-274005999Y-44083453D01*
%TA.AperFunction,Conductor*%
D26*
G36*
X-274005999Y-44083453D02*
G01*
X-274006000Y-48210000D01*
X-274185612Y-48210000D01*
X-274501474Y-48241110D01*
X-274906750Y-48364049D01*
X-275280255Y-48563691D01*
X-275607635Y-48832365D01*
X-275876309Y-49159745D01*
X-276075951Y-49533250D01*
X-276198890Y-49938526D01*
X-276240402Y-50360000D01*
X-276198890Y-50781474D01*
X-276075951Y-51186750D01*
X-276048361Y-51238367D01*
X-276396750Y-51344049D01*
X-276770255Y-51543692D01*
X-277015601Y-51745042D01*
X-279658323Y-54387765D01*
X-279923143Y-54497457D01*
X-280308038Y-54754636D01*
X-280635364Y-55081962D01*
X-280892543Y-55466857D01*
X-281069691Y-55894530D01*
X-281160000Y-56348545D01*
X-281160000Y-56811455D01*
X-281069691Y-57265470D01*
X-280892543Y-57693143D01*
X-280635364Y-58078038D01*
X-280308038Y-58405364D01*
X-279923143Y-58662543D01*
X-279495470Y-58839691D01*
X-279041455Y-58930000D01*
X-278578545Y-58930000D01*
X-278124530Y-58839691D01*
X-277696857Y-58662543D01*
X-277311962Y-58405364D01*
X-276984636Y-58078038D01*
X-276727457Y-57693143D01*
X-276617765Y-57428323D01*
X-274179441Y-54990000D01*
X-268090558Y-54990000D01*
X-267129600Y-55950958D01*
X-266884254Y-56152308D01*
X-266510750Y-56351951D01*
X-266105474Y-56474890D01*
X-265684000Y-56516402D01*
X-265262527Y-56474890D01*
X-264993989Y-56393430D01*
X-273570558Y-64970000D01*
X-277425612Y-64970000D01*
X-277741474Y-65001110D01*
X-278146750Y-65124049D01*
X-278520255Y-65323691D01*
X-278847635Y-65592365D01*
X-279116309Y-65919745D01*
X-279315951Y-66293250D01*
X-279438890Y-66698526D01*
X-279480402Y-67120000D01*
X-279438890Y-67541474D01*
X-279315951Y-67946750D01*
X-279116309Y-68320255D01*
X-278847635Y-68647635D01*
X-278520255Y-68916309D01*
X-278146750Y-69115951D01*
X-277741474Y-69238890D01*
X-277425612Y-69270000D01*
X-272785612Y-69270000D01*
X-272680000Y-69280402D01*
X-272574388Y-69270000D01*
X-272258526Y-69238890D01*
X-271853250Y-69115951D01*
X-271479745Y-68916309D01*
X-271152365Y-68647635D01*
X-271085034Y-68565592D01*
X-259875042Y-57355601D01*
X-259673692Y-57110255D01*
X-259474050Y-56736750D01*
X-259351110Y-56331474D01*
X-259309598Y-55910001D01*
X-259351110Y-55488527D01*
X-259474050Y-55083251D01*
X-259673692Y-54709746D01*
X-259942366Y-54382366D01*
X-260269746Y-54113692D01*
X-260643251Y-53914050D01*
X-261048527Y-53791110D01*
X-261470001Y-53749598D01*
X-261891474Y-53791110D01*
X-262296750Y-53914050D01*
X-262670255Y-54113692D01*
X-262915601Y-54315042D01*
X-263646570Y-55046011D01*
X-263565110Y-54777473D01*
X-263523598Y-54356000D01*
X-263565110Y-53934526D01*
X-263688049Y-53529250D01*
X-263887692Y-53155746D01*
X-264089042Y-52910400D01*
X-264489442Y-52510000D01*
X-249888123Y-52510000D01*
X-249906254Y-52519691D01*
X-250233635Y-52788365D01*
X-250502309Y-53115745D01*
X-250701951Y-53489250D01*
X-250824890Y-53894526D01*
X-250856000Y-54210388D01*
X-250856000Y-54675611D01*
X-250824890Y-54991473D01*
X-250701951Y-55396749D01*
X-250502309Y-55770255D01*
X-250233635Y-56097635D01*
X-249906255Y-56366309D01*
X-249532750Y-56565951D01*
X-249213119Y-56662910D01*
X-249220890Y-56688526D01*
X-249262402Y-57110000D01*
X-249220890Y-57531474D01*
X-249097951Y-57936750D01*
X-248898309Y-58310255D01*
X-248752000Y-58488533D01*
X-248751999Y-59728547D01*
X-254429451Y-65406000D01*
X-261257467Y-65406000D01*
X-261435745Y-65259691D01*
X-261809250Y-65060049D01*
X-262214526Y-64937110D01*
X-262530388Y-64906000D01*
X-264011612Y-64906000D01*
X-264327474Y-64937110D01*
X-264732750Y-65060049D01*
X-265106255Y-65259691D01*
X-265433635Y-65528365D01*
X-265702309Y-65855745D01*
X-265901951Y-66229250D01*
X-266024890Y-66634526D01*
X-266031861Y-66705300D01*
X-266040125Y-66732544D01*
X-266071983Y-67056000D01*
X-266040125Y-67379456D01*
X-266031861Y-67406700D01*
X-266024890Y-67477474D01*
X-265901951Y-67882750D01*
X-265702309Y-68256255D01*
X-265433635Y-68583635D01*
X-265106255Y-68852309D01*
X-264732750Y-69051951D01*
X-264327474Y-69174890D01*
X-264011612Y-69206000D01*
X-262530388Y-69206000D01*
X-262214526Y-69174890D01*
X-261809250Y-69051951D01*
X-261435745Y-68852309D01*
X-261257467Y-68706000D01*
X-259653372Y-68706000D01*
X-259727136Y-68745428D01*
X-259978381Y-68951619D01*
X-260184572Y-69202864D01*
X-260337787Y-69489507D01*
X-260432135Y-69800534D01*
X-260463993Y-70123990D01*
X-260432135Y-70447446D01*
X-260337787Y-70758473D01*
X-260184572Y-71045116D01*
X-259978381Y-71296361D01*
X-259968000Y-71304880D01*
X-259967999Y-83203466D01*
X-260114309Y-83381745D01*
X-260313951Y-83755251D01*
X-260436890Y-84160527D01*
X-260468000Y-84476389D01*
X-260468000Y-85195612D01*
X-260436890Y-85511474D01*
X-260313951Y-85916750D01*
X-260114309Y-86290255D01*
X-259845634Y-86617635D01*
X-259518254Y-86886309D01*
X-259144749Y-87085951D01*
X-258739473Y-87208890D01*
X-258318000Y-87250402D01*
X-257896526Y-87208890D01*
X-257491250Y-87085951D01*
X-257117745Y-86886309D01*
X-256790365Y-86617635D01*
X-256521691Y-86290255D01*
X-256322049Y-85916749D01*
X-256199110Y-85511473D01*
X-256168000Y-85195611D01*
X-256168000Y-84476388D01*
X-256199110Y-84160526D01*
X-256322049Y-83755250D01*
X-256521691Y-83381745D01*
X-256668000Y-83203467D01*
X-256668000Y-71773990D01*
X-255650000Y-71773990D01*
X-255649999Y-83711466D01*
X-255796309Y-83889745D01*
X-255995951Y-84263251D01*
X-256118890Y-84668527D01*
X-256150000Y-84984389D01*
X-256150000Y-85957612D01*
X-256118890Y-86273474D01*
X-255995951Y-86678750D01*
X-255796308Y-87052255D01*
X-255527634Y-87379635D01*
X-255200254Y-87648309D01*
X-254826749Y-87847951D01*
X-254421473Y-87970890D01*
X-254000000Y-88012402D01*
X-253578526Y-87970890D01*
X-253173250Y-87847951D01*
X-252799745Y-87648309D01*
X-252472365Y-87379635D01*
X-252203691Y-87052255D01*
X-252004049Y-86678749D01*
X-251881110Y-86273473D01*
X-251850000Y-85957611D01*
X-251850000Y-84984388D01*
X-251881110Y-84668526D01*
X-252004049Y-84263250D01*
X-252203691Y-83889745D01*
X-252350000Y-83711467D01*
X-252350000Y-73278000D01*
X-248839452Y-73278000D01*
X-249267407Y-73705956D01*
X-249330371Y-73757629D01*
X-249536562Y-74008875D01*
X-249689777Y-74295518D01*
X-249784125Y-74606545D01*
X-249808000Y-74848949D01*
X-249808000Y-74848958D01*
X-249815982Y-74930000D01*
X-249808000Y-75011042D01*
X-249807999Y-78404949D01*
X-249815982Y-78486000D01*
X-249784124Y-78809456D01*
X-249689777Y-79120482D01*
X-249553456Y-79375518D01*
X-249536561Y-79407126D01*
X-249330370Y-79658371D01*
X-249267411Y-79710040D01*
X-247514000Y-81463452D01*
X-247514000Y-82401612D01*
X-247482890Y-82717474D01*
X-247359951Y-83122750D01*
X-247160308Y-83496255D01*
X-246891634Y-83823635D01*
X-246564254Y-84092309D01*
X-246190749Y-84291951D01*
X-245785473Y-84414890D01*
X-245364000Y-84456402D01*
X-244942526Y-84414890D01*
X-244537250Y-84291951D01*
X-244163745Y-84092309D01*
X-243836365Y-83823635D01*
X-243567691Y-83496255D01*
X-243368049Y-83122749D01*
X-243245110Y-82717473D01*
X-243214000Y-82401611D01*
X-243214000Y-81174388D01*
X-243245110Y-80858526D01*
X-243368049Y-80453250D01*
X-243567691Y-80079745D01*
X-243836365Y-79752365D01*
X-244163745Y-79483691D01*
X-244537251Y-79284049D01*
X-244942527Y-79161110D01*
X-245172044Y-79138504D01*
X-246508000Y-77802549D01*
X-246508000Y-75613452D01*
X-245950548Y-75056000D01*
X-243667042Y-75056000D01*
X-243586000Y-75063982D01*
X-243504958Y-75056000D01*
X-243504948Y-75056000D01*
X-243262544Y-75032125D01*
X-242951517Y-74937777D01*
X-242664874Y-74784562D01*
X-242429842Y-74591677D01*
X-242450000Y-74693017D01*
X-242450000Y-75086983D01*
X-242373141Y-75473378D01*
X-242222377Y-75837355D01*
X-242003501Y-76164926D01*
X-241994458Y-76173969D01*
X-242096919Y-76295247D01*
X-242286653Y-76638349D01*
X-242405806Y-77011874D01*
X-242416938Y-77067844D01*
X-242161770Y-77380000D01*
X-240500000Y-77380000D01*
X-240500000Y-77360000D01*
X-240400000Y-77360000D01*
X-240400000Y-77380000D01*
X-237960000Y-77380000D01*
X-237960000Y-77360000D01*
X-237860000Y-77360000D01*
X-237860000Y-77380000D01*
X-237840000Y-77380000D01*
X-237840000Y-77480000D01*
X-237860000Y-77480000D01*
X-237860000Y-77500000D01*
X-237960000Y-77500000D01*
X-237960000Y-77480000D01*
X-240400000Y-77480000D01*
X-240400000Y-77500000D01*
X-240500000Y-77500000D01*
X-240500000Y-77480000D01*
X-242161770Y-77480000D01*
X-242416938Y-77792156D01*
X-242405806Y-77848126D01*
X-242286653Y-78221651D01*
X-242096919Y-78564753D01*
X-241994458Y-78686031D01*
X-242003501Y-78695074D01*
X-242222377Y-79022645D01*
X-242373141Y-79386622D01*
X-242450000Y-79773017D01*
X-242450000Y-80166983D01*
X-242373141Y-80553378D01*
X-242222377Y-80917355D01*
X-242006792Y-81240000D01*
X-242222377Y-81562645D01*
X-242373141Y-81926622D01*
X-242450000Y-82313017D01*
X-242450000Y-82706983D01*
X-242373141Y-83093378D01*
X-242222377Y-83457355D01*
X-242006792Y-83780000D01*
X-242222377Y-84102645D01*
X-242373141Y-84466622D01*
X-242450000Y-84853017D01*
X-242450000Y-85246983D01*
X-242373141Y-85633378D01*
X-242222377Y-85997355D01*
X-242006792Y-86320000D01*
X-242222377Y-86642645D01*
X-242373141Y-87006622D01*
X-242450000Y-87393017D01*
X-242450000Y-87786983D01*
X-242373141Y-88173378D01*
X-242222377Y-88537355D01*
X-242003501Y-88864926D01*
X-241724926Y-89143501D01*
X-241397355Y-89362377D01*
X-241033378Y-89513141D01*
X-240646983Y-89590000D01*
X-240253017Y-89590000D01*
X-239866622Y-89513141D01*
X-239560000Y-89386134D01*
X-239559999Y-91080000D01*
X-241086492Y-91080000D01*
X-241121110Y-90728526D01*
X-241244049Y-90323250D01*
X-241443691Y-89949745D01*
X-241712365Y-89622365D01*
X-242039745Y-89353691D01*
X-242413250Y-89154049D01*
X-242818526Y-89031110D01*
X-243134388Y-89000000D01*
X-243134396Y-89000000D01*
X-243240001Y-88989599D01*
X-243345605Y-89000000D01*
X-286702656Y-89000000D01*
X-286548049Y-88710750D01*
X-286425110Y-88305474D01*
X-286394000Y-87989612D01*
X-286394000Y-87735612D01*
X-286383598Y-87630000D01*
X-286425110Y-87208526D01*
X-286548049Y-86803251D01*
X-286594619Y-86716125D01*
X-286747691Y-86429745D01*
X-287016365Y-86102365D01*
X-287098408Y-86035034D01*
X-287860400Y-85273042D01*
X-288105746Y-85071692D01*
X-288479251Y-84872049D01*
X-288884527Y-84749110D01*
X-289306000Y-84707598D01*
X-289727473Y-84749110D01*
X-289824120Y-84778428D01*
X-295701955Y-78900594D01*
X-295753629Y-78837629D01*
X-296004874Y-78631438D01*
X-296291517Y-78478223D01*
X-296602544Y-78383875D01*
X-296844948Y-78360000D01*
X-296844958Y-78360000D01*
X-296926000Y-78352018D01*
X-297007042Y-78360000D01*
X-298558085Y-78360000D01*
X-298191962Y-78115364D01*
X-297864636Y-77788038D01*
X-297607457Y-77403143D01*
X-297430309Y-76975470D01*
X-297340000Y-76521455D01*
X-297340000Y-76368545D01*
X-291140000Y-76368545D01*
X-291140000Y-76831455D01*
X-291049691Y-77285470D01*
X-290872543Y-77713143D01*
X-290615364Y-78098038D01*
X-290288038Y-78425364D01*
X-289903143Y-78682543D01*
X-289475470Y-78859691D01*
X-289021455Y-78950000D01*
X-288558545Y-78950000D01*
X-288104530Y-78859691D01*
X-287676857Y-78682543D01*
X-287291962Y-78425364D01*
X-286964636Y-78098038D01*
X-286707457Y-77713143D01*
X-286530309Y-77285470D01*
X-286440000Y-76831455D01*
X-286440000Y-76668545D01*
X-281160000Y-76668545D01*
X-281160000Y-77131455D01*
X-281069691Y-77585470D01*
X-280960000Y-77850288D01*
X-280959999Y-83081612D01*
X-280928889Y-83397474D01*
X-280805950Y-83802750D01*
X-280606308Y-84176255D01*
X-280337634Y-84503635D01*
X-280010254Y-84772309D01*
X-279636749Y-84971951D01*
X-279231473Y-85094890D01*
X-278810000Y-85136402D01*
X-278388526Y-85094890D01*
X-277983250Y-84971951D01*
X-277609745Y-84772309D01*
X-277282365Y-84503635D01*
X-277013691Y-84176255D01*
X-276814049Y-83802750D01*
X-276691110Y-83397474D01*
X-276660000Y-83081612D01*
X-276660000Y-77850287D01*
X-276550309Y-77585470D01*
X-276460000Y-77131455D01*
X-276460000Y-76668545D01*
X-276550309Y-76214530D01*
X-276727457Y-75786857D01*
X-276984636Y-75401962D01*
X-277311962Y-75074636D01*
X-277696857Y-74817457D01*
X-278124530Y-74640309D01*
X-278578545Y-74550000D01*
X-279041455Y-74550000D01*
X-279495470Y-74640309D01*
X-279923143Y-74817457D01*
X-280308038Y-75074636D01*
X-280635364Y-75401962D01*
X-280892543Y-75786857D01*
X-281069691Y-76214530D01*
X-281160000Y-76668545D01*
X-286440000Y-76668545D01*
X-286440000Y-76368545D01*
X-286530309Y-75914530D01*
X-286707457Y-75486857D01*
X-286964636Y-75101962D01*
X-287291962Y-74774636D01*
X-287676857Y-74517457D01*
X-288104530Y-74340309D01*
X-288558545Y-74250000D01*
X-289021455Y-74250000D01*
X-289475470Y-74340309D01*
X-289903143Y-74517457D01*
X-290288038Y-74774636D01*
X-290615364Y-75101962D01*
X-290872543Y-75486857D01*
X-291049691Y-75914530D01*
X-291140000Y-76368545D01*
X-297340000Y-76368545D01*
X-297340000Y-76058545D01*
X-297430309Y-75604530D01*
X-297607457Y-75176857D01*
X-297864636Y-74791962D01*
X-298191962Y-74464636D01*
X-298576857Y-74207457D01*
X-299004530Y-74030309D01*
X-299458545Y-73940000D01*
X-299921455Y-73940000D01*
X-300375470Y-74030309D01*
X-300640287Y-74140000D01*
X-303514388Y-74140000D01*
X-303620000Y-74129598D01*
X-303725612Y-74140000D01*
X-304041474Y-74171110D01*
X-304446750Y-74294049D01*
X-304820255Y-74493691D01*
X-305147635Y-74762365D01*
X-305214966Y-74844408D01*
X-306140958Y-75770400D01*
X-306342308Y-76015746D01*
X-306541951Y-76389251D01*
X-306664890Y-76794527D01*
X-306706402Y-77216000D01*
X-306664890Y-77637473D01*
X-306541951Y-78042749D01*
X-306342308Y-78416254D01*
X-306073634Y-78743634D01*
X-305746254Y-79012308D01*
X-305372749Y-79211951D01*
X-304967473Y-79334890D01*
X-304737956Y-79357496D01*
X-302976040Y-81119412D01*
X-302924371Y-81182371D01*
X-302768364Y-81310402D01*
X-302673126Y-81388562D01*
X-302386483Y-81541777D01*
X-302075456Y-81636125D01*
X-301752000Y-81667983D01*
X-301670948Y-81660000D01*
X-297609451Y-81660000D01*
X-292215686Y-87053765D01*
X-292202125Y-87191456D01*
X-292107777Y-87502483D01*
X-291954562Y-87789126D01*
X-291766745Y-88017982D01*
X-291748371Y-88040371D01*
X-291497126Y-88246562D01*
X-291210483Y-88399777D01*
X-290899456Y-88494125D01*
X-290700874Y-88513684D01*
X-290555688Y-88658870D01*
X-290539951Y-88710749D01*
X-290385344Y-89000000D01*
X-327259441Y-89000000D01*
X-336180053Y-80079389D01*
X-336194049Y-80033251D01*
X-336393691Y-79659745D01*
X-336662365Y-79332365D01*
X-336744408Y-79265034D01*
X-336790000Y-79219442D01*
X-336790000Y-76288545D01*
X-315000000Y-76288545D01*
X-315000000Y-76751455D01*
X-314909691Y-77205470D01*
X-314732543Y-77633143D01*
X-314475364Y-78018038D01*
X-314148038Y-78345364D01*
X-313763143Y-78602543D01*
X-313335470Y-78779691D01*
X-312881455Y-78870000D01*
X-312418545Y-78870000D01*
X-311964530Y-78779691D01*
X-311536857Y-78602543D01*
X-311151962Y-78345364D01*
X-310824636Y-78018038D01*
X-310567457Y-77633143D01*
X-310390309Y-77205470D01*
X-310300000Y-76751455D01*
X-310300000Y-76288545D01*
X-310390309Y-75834530D01*
X-310567457Y-75406857D01*
X-310824636Y-75021962D01*
X-311151962Y-74694636D01*
X-311536857Y-74437457D01*
X-311964530Y-74260309D01*
X-312418545Y-74170000D01*
X-312881455Y-74170000D01*
X-313335470Y-74260309D01*
X-313763143Y-74437457D01*
X-314148038Y-74694636D01*
X-314475364Y-75021962D01*
X-314732543Y-75406857D01*
X-314909691Y-75834530D01*
X-315000000Y-76288545D01*
X-336790000Y-76288545D01*
X-336790000Y-72389595D01*
X-336567943Y-72537968D01*
X-336231265Y-72677425D01*
X-335873849Y-72748520D01*
X-335509431Y-72748520D01*
X-335152015Y-72677425D01*
X-334815337Y-72537968D01*
X-334512334Y-72335509D01*
X-334254651Y-72077826D01*
X-334052192Y-71774823D01*
X-333912735Y-71438145D01*
X-333841640Y-71080729D01*
X-333841640Y-70716311D01*
X-329921640Y-70716311D01*
X-329921640Y-71080729D01*
X-329850545Y-71438145D01*
X-329711088Y-71774823D01*
X-329508629Y-72077826D01*
X-329250946Y-72335509D01*
X-328947943Y-72537968D01*
X-328611265Y-72677425D01*
X-328253849Y-72748520D01*
X-327889431Y-72748520D01*
X-327532015Y-72677425D01*
X-327195337Y-72537968D01*
X-326892334Y-72335509D01*
X-326634651Y-72077826D01*
X-326432192Y-71774823D01*
X-326292735Y-71438145D01*
X-326221640Y-71080729D01*
X-326221640Y-70898093D01*
X-296070000Y-70898093D01*
X-296070000Y-71301907D01*
X-295991220Y-71697963D01*
X-295836686Y-72071039D01*
X-295612339Y-72406799D01*
X-295326799Y-72692339D01*
X-294991039Y-72916686D01*
X-294617963Y-73071220D01*
X-294221907Y-73150000D01*
X-293818093Y-73150000D01*
X-293422037Y-73071220D01*
X-293048961Y-72916686D01*
X-292713201Y-72692339D01*
X-292427661Y-72406799D01*
X-292203314Y-72071039D01*
X-292048780Y-71697963D01*
X-291970000Y-71301907D01*
X-291970000Y-70898093D01*
X-292048780Y-70502037D01*
X-292203314Y-70128961D01*
X-292427661Y-69793201D01*
X-292713201Y-69507661D01*
X-293048961Y-69283314D01*
X-293422037Y-69128780D01*
X-293818093Y-69050000D01*
X-294221907Y-69050000D01*
X-294617963Y-69128780D01*
X-294991039Y-69283314D01*
X-295326799Y-69507661D01*
X-295612339Y-69793201D01*
X-295836686Y-70128961D01*
X-295991220Y-70502037D01*
X-296070000Y-70898093D01*
X-326221640Y-70898093D01*
X-326221640Y-70716311D01*
X-326292735Y-70358895D01*
X-326432192Y-70022217D01*
X-326634651Y-69719214D01*
X-326892334Y-69461531D01*
X-327195337Y-69259072D01*
X-327532015Y-69119615D01*
X-327889431Y-69048520D01*
X-328253849Y-69048520D01*
X-328611265Y-69119615D01*
X-328947943Y-69259072D01*
X-329250946Y-69461531D01*
X-329508629Y-69719214D01*
X-329711088Y-70022217D01*
X-329850545Y-70358895D01*
X-329921640Y-70716311D01*
X-333841640Y-70716311D01*
X-333912735Y-70358895D01*
X-334052192Y-70022217D01*
X-334254651Y-69719214D01*
X-334512334Y-69461531D01*
X-334815337Y-69259072D01*
X-335152015Y-69119615D01*
X-335509431Y-69048520D01*
X-335873849Y-69048520D01*
X-336231265Y-69119615D01*
X-336567943Y-69259072D01*
X-336790000Y-69407445D01*
X-336790000Y-62230558D01*
X-335947535Y-61388093D01*
X-277660000Y-61388093D01*
X-277660000Y-61791907D01*
X-277581220Y-62187963D01*
X-277426686Y-62561039D01*
X-277202339Y-62896799D01*
X-276916799Y-63182339D01*
X-276581039Y-63406686D01*
X-276207963Y-63561220D01*
X-275811907Y-63640000D01*
X-275408093Y-63640000D01*
X-275012037Y-63561220D01*
X-274638961Y-63406686D01*
X-274303201Y-63182339D01*
X-274017661Y-62896799D01*
X-273793314Y-62561039D01*
X-273638780Y-62187963D01*
X-273560000Y-61791907D01*
X-273560000Y-61388093D01*
X-273638780Y-60992037D01*
X-273793314Y-60618961D01*
X-274017661Y-60283201D01*
X-274303201Y-59997661D01*
X-274638961Y-59773314D01*
X-275012037Y-59618780D01*
X-275408093Y-59540000D01*
X-275811907Y-59540000D01*
X-276207963Y-59618780D01*
X-276581039Y-59773314D01*
X-276916799Y-59997661D01*
X-277202339Y-60283201D01*
X-277426686Y-60618961D01*
X-277581220Y-60992037D01*
X-277660000Y-61388093D01*
X-335947535Y-61388093D01*
X-330527987Y-55968545D01*
X-315000000Y-55968545D01*
X-315000000Y-56431455D01*
X-314909691Y-56885470D01*
X-314732543Y-57313143D01*
X-314475364Y-57698038D01*
X-314148038Y-58025364D01*
X-313763143Y-58282543D01*
X-313335470Y-58459691D01*
X-312881455Y-58550000D01*
X-312418545Y-58550000D01*
X-311964530Y-58459691D01*
X-311536857Y-58282543D01*
X-311151962Y-58025364D01*
X-310824636Y-57698038D01*
X-310567457Y-57313143D01*
X-310390309Y-56885470D01*
X-310300000Y-56431455D01*
X-310300000Y-55968545D01*
X-310345749Y-55738545D01*
X-302040000Y-55738545D01*
X-302040000Y-56201455D01*
X-301949691Y-56655470D01*
X-301772543Y-57083143D01*
X-301515364Y-57468038D01*
X-301188038Y-57795364D01*
X-300803143Y-58052543D01*
X-300375470Y-58229691D01*
X-299921455Y-58320000D01*
X-299458545Y-58320000D01*
X-299004530Y-58229691D01*
X-298576857Y-58052543D01*
X-298191962Y-57795364D01*
X-297864636Y-57468038D01*
X-297607457Y-57083143D01*
X-297430309Y-56655470D01*
X-297340000Y-56201455D01*
X-297340000Y-56048545D01*
X-291140000Y-56048545D01*
X-291140000Y-56511455D01*
X-291049691Y-56965470D01*
X-290872543Y-57393143D01*
X-290615364Y-57778038D01*
X-290288038Y-58105364D01*
X-289903143Y-58362543D01*
X-289475470Y-58539691D01*
X-289021455Y-58630000D01*
X-288558545Y-58630000D01*
X-288104530Y-58539691D01*
X-287676857Y-58362543D01*
X-287291962Y-58105364D01*
X-286964636Y-57778038D01*
X-286707457Y-57393143D01*
X-286530309Y-56965470D01*
X-286440000Y-56511455D01*
X-286440000Y-56048545D01*
X-286530309Y-55594530D01*
X-286707457Y-55166857D01*
X-286964636Y-54781962D01*
X-287291962Y-54454636D01*
X-287676857Y-54197457D01*
X-288104530Y-54020309D01*
X-288558545Y-53930000D01*
X-289021455Y-53930000D01*
X-289475470Y-54020309D01*
X-289903143Y-54197457D01*
X-290288038Y-54454636D01*
X-290615364Y-54781962D01*
X-290872543Y-55166857D01*
X-291049691Y-55594530D01*
X-291140000Y-56048545D01*
X-297340000Y-56048545D01*
X-297340000Y-55738545D01*
X-297430309Y-55284530D01*
X-297607457Y-54856857D01*
X-297864636Y-54471962D01*
X-298191962Y-54144636D01*
X-298576857Y-53887457D01*
X-299004530Y-53710309D01*
X-299458545Y-53620000D01*
X-299921455Y-53620000D01*
X-300375470Y-53710309D01*
X-300803143Y-53887457D01*
X-301188038Y-54144636D01*
X-301515364Y-54471962D01*
X-301772543Y-54856857D01*
X-301949691Y-55284530D01*
X-302040000Y-55738545D01*
X-310345749Y-55738545D01*
X-310390309Y-55514530D01*
X-310567457Y-55086857D01*
X-310824636Y-54701962D01*
X-311151962Y-54374636D01*
X-311536857Y-54117457D01*
X-311964530Y-53940309D01*
X-312418545Y-53850000D01*
X-312881455Y-53850000D01*
X-313335470Y-53940309D01*
X-313763143Y-54117457D01*
X-314148038Y-54374636D01*
X-314475364Y-54701962D01*
X-314732543Y-55086857D01*
X-314909691Y-55514530D01*
X-315000000Y-55968545D01*
X-330527987Y-55968545D01*
X-323151598Y-48592156D01*
X-279986938Y-48592156D01*
X-279975806Y-48648126D01*
X-279856653Y-49021651D01*
X-279666919Y-49364753D01*
X-279413895Y-49664247D01*
X-279107304Y-49908624D01*
X-278758928Y-50088492D01*
X-278382156Y-50196939D01*
X-278070000Y-49941876D01*
X-278070000Y-48280000D01*
X-277970000Y-48280000D01*
X-277970000Y-49941876D01*
X-277657844Y-50196939D01*
X-277281072Y-50088492D01*
X-276932696Y-49908624D01*
X-276626105Y-49664247D01*
X-276373081Y-49364753D01*
X-276183347Y-49021651D01*
X-276064194Y-48648126D01*
X-276053062Y-48592156D01*
X-276308230Y-48280000D01*
X-277970000Y-48280000D01*
X-278070000Y-48280000D01*
X-279731770Y-48280000D01*
X-279986938Y-48592156D01*
X-323151598Y-48592156D01*
X-317539441Y-42980000D01*
X-306503028Y-42980000D01*
X-306709625Y-43021095D01*
X-307046303Y-43160552D01*
X-307349306Y-43363011D01*
X-307606989Y-43620694D01*
X-307809448Y-43923697D01*
X-307948905Y-44260375D01*
X-308020000Y-44617791D01*
X-308020000Y-44982209D01*
X-307948905Y-45339625D01*
X-307809448Y-45676303D01*
X-307606989Y-45979306D01*
X-307349306Y-46236989D01*
X-307046303Y-46439448D01*
X-306709625Y-46578905D01*
X-306352209Y-46650000D01*
X-305987791Y-46650000D01*
X-305630375Y-46578905D01*
X-305293697Y-46439448D01*
X-304990694Y-46236989D01*
X-304733011Y-45979306D01*
X-304530552Y-45676303D01*
X-304391095Y-45339625D01*
X-304320000Y-44982209D01*
X-304320000Y-44617791D01*
X-304391095Y-44260375D01*
X-304530552Y-43923697D01*
X-304733011Y-43620694D01*
X-304990694Y-43363011D01*
X-305293697Y-43160552D01*
X-305630375Y-43021095D01*
X-305836972Y-42980000D01*
X-298883028Y-42980000D01*
X-299089625Y-43021095D01*
X-299426303Y-43160552D01*
X-299729306Y-43363011D01*
X-299986989Y-43620694D01*
X-300189448Y-43923697D01*
X-300328905Y-44260375D01*
X-300400000Y-44617791D01*
X-300400000Y-44982209D01*
X-300328905Y-45339625D01*
X-300189448Y-45676303D01*
X-299986989Y-45979306D01*
X-299729306Y-46236989D01*
X-299426303Y-46439448D01*
X-299089625Y-46578905D01*
X-298732209Y-46650000D01*
X-298367791Y-46650000D01*
X-298010375Y-46578905D01*
X-297673697Y-46439448D01*
X-297370694Y-46236989D01*
X-297113011Y-45979306D01*
X-296910552Y-45676303D01*
X-296771095Y-45339625D01*
X-296700000Y-44982209D01*
X-296700000Y-44617791D01*
X-296771095Y-44260375D01*
X-296910552Y-43923697D01*
X-297113011Y-43620694D01*
X-297370694Y-43363011D01*
X-297673697Y-43160552D01*
X-298010375Y-43021095D01*
X-298216972Y-42980000D01*
X-287364388Y-42980000D01*
X-287048526Y-42948890D01*
X-286643250Y-42825951D01*
X-286269745Y-42626309D01*
X-286040000Y-42437762D01*
X-286040000Y-45294388D01*
X-286050402Y-45400000D01*
X-286040000Y-45505611D01*
X-286008890Y-45821473D01*
X-285885951Y-46226749D01*
X-285686309Y-46600255D01*
X-285417635Y-46927635D01*
X-285335592Y-46994966D01*
X-285194966Y-47135592D01*
X-285127635Y-47217635D01*
X-284800255Y-47486309D01*
X-284426750Y-47685951D01*
X-284021474Y-47808890D01*
X-283705612Y-47840000D01*
X-283600000Y-47850402D01*
X-283494388Y-47840000D01*
X-279981400Y-47840000D01*
X-279986938Y-47867844D01*
X-279731770Y-48180000D01*
X-278070000Y-48180000D01*
X-278070000Y-48160000D01*
X-277970000Y-48160000D01*
X-277970000Y-48180000D01*
X-276308230Y-48180000D01*
X-276053062Y-47867844D01*
X-276064194Y-47811874D01*
X-276183347Y-47438349D01*
X-276373081Y-47095247D01*
X-276382639Y-47083934D01*
X-276223691Y-46890255D01*
X-276024049Y-46516750D01*
X-275901110Y-46111474D01*
X-275859598Y-45690000D01*
X-275901110Y-45268526D01*
X-276024049Y-44863250D01*
X-276175747Y-44579442D01*
X-276102398Y-44442215D01*
X-276036640Y-44225439D01*
X-276014436Y-44000000D01*
X-276014436Y-43945060D01*
X-275901110Y-43571474D01*
X-275870000Y-43255612D01*
X-275870000Y-42219452D01*
X-274005999Y-44083453D01*
G37*
%TD.AperFunction*%
D25*
X-210455747Y-29602258D02*
X-210469889Y-29616400D01*
X-210455747Y-29630542D01*
X-210526458Y-29701253D01*
X-210540600Y-29687111D01*
X-210554742Y-29701253D01*
X-210625453Y-29630542D01*
X-210611311Y-29616400D01*
X-210625453Y-29602258D01*
X-210554742Y-29531547D01*
X-210540600Y-29545689D01*
X-210526458Y-29531547D01*
X-210455747Y-29602258D01*
%TA.AperFunction,Conductor*%
D26*
G36*
X-210455747Y-29602258D02*
G01*
X-210469889Y-29616400D01*
X-210455747Y-29630542D01*
X-210526458Y-29701253D01*
X-210540600Y-29687111D01*
X-210554742Y-29701253D01*
X-210625453Y-29630542D01*
X-210611311Y-29616400D01*
X-210625453Y-29602258D01*
X-210554742Y-29531547D01*
X-210540600Y-29545689D01*
X-210526458Y-29531547D01*
X-210455747Y-29602258D01*
G37*
%TD.AperFunction*%
%TD*%
M02*
