%TF.GenerationSoftware,KiCad,Pcbnew,(5.1.9-0-10_14)*%
%TF.CreationDate,2021-02-22T09:57:15+00:00*%
%TF.ProjectId,Solar_Multiplexer,536f6c61-725f-44d7-956c-7469706c6578,rev?*%
%TF.SameCoordinates,Original*%
%TF.FileFunction,Soldermask,Top*%
%TF.FilePolarity,Negative*%
%FSLAX46Y46*%
G04 Gerber Fmt 4.6, Leading zero omitted, Abs format (unit mm)*
G04 Created by KiCad (PCBNEW (5.1.9-0-10_14)) date 2021-02-22 09:57:15*
%MOMM*%
%LPD*%
G01*
G04 APERTURE LIST*
%ADD10C,2.200000*%
%ADD11O,1.600000X1.600000*%
%ADD12R,1.600000X1.600000*%
%ADD13R,2.500000X2.500000*%
%ADD14R,0.900000X0.900000*%
%ADD15C,1.600000*%
%ADD16R,1.000000X1.500000*%
%ADD17C,0.200000*%
%ADD18R,1.500000X1.000000*%
%ADD19O,1.700000X1.700000*%
%ADD20R,1.700000X1.700000*%
G04 APERTURE END LIST*
D10*
%TO.C,REF\u002A\u002A*%
X-310000000Y-253000000D03*
%TD*%
%TO.C,REF\u002A\u002A*%
X-200000000Y-254000000D03*
%TD*%
%TO.C,REF\u002A\u002A*%
X-200000000Y-75000000D03*
%TD*%
%TO.C,REF\u002A\u002A*%
X-310000000Y-75000000D03*
%TD*%
D11*
%TO.C,U10*%
X-292380000Y-225000000D03*
X-300000000Y-230080000D03*
X-292380000Y-227540000D03*
X-300000000Y-227540000D03*
X-292380000Y-230080000D03*
D12*
X-300000000Y-225000000D03*
%TD*%
D11*
%TO.C,U22*%
X-186870000Y-119550000D03*
X-194490000Y-152570000D03*
X-186870000Y-122090000D03*
X-194490000Y-150030000D03*
X-186870000Y-124630000D03*
X-194490000Y-147490000D03*
X-186870000Y-127170000D03*
X-194490000Y-144950000D03*
X-186870000Y-129710000D03*
X-194490000Y-142410000D03*
X-186870000Y-132250000D03*
X-194490000Y-139870000D03*
X-186870000Y-134790000D03*
X-194490000Y-137330000D03*
X-186870000Y-137330000D03*
X-194490000Y-134790000D03*
X-186870000Y-139870000D03*
X-194490000Y-132250000D03*
X-186870000Y-142410000D03*
X-194490000Y-129710000D03*
X-186870000Y-144950000D03*
X-194490000Y-127170000D03*
X-186870000Y-147490000D03*
X-194490000Y-124630000D03*
X-186870000Y-150030000D03*
X-194490000Y-122090000D03*
X-186870000Y-152570000D03*
D12*
X-194490000Y-119550000D03*
%TD*%
D11*
%TO.C,U21*%
X-251290000Y-237300000D03*
X-258910000Y-242380000D03*
X-251290000Y-239840000D03*
X-258910000Y-239840000D03*
X-251290000Y-242380000D03*
D12*
X-258910000Y-237300000D03*
%TD*%
D11*
%TO.C,U20*%
X-267380000Y-225000000D03*
X-275000000Y-230080000D03*
X-267380000Y-227540000D03*
X-275000000Y-227540000D03*
X-267380000Y-230080000D03*
D12*
X-275000000Y-225000000D03*
%TD*%
D11*
%TO.C,U17*%
X-267380000Y-210000000D03*
X-275000000Y-215080000D03*
X-267380000Y-212540000D03*
X-275000000Y-212540000D03*
X-267380000Y-215080000D03*
D12*
X-275000000Y-210000000D03*
%TD*%
D11*
%TO.C,U16*%
X-267380000Y-195000000D03*
X-275000000Y-200080000D03*
X-267380000Y-197540000D03*
X-275000000Y-197540000D03*
X-267380000Y-200080000D03*
D12*
X-275000000Y-195000000D03*
%TD*%
D11*
%TO.C,U15*%
X-267380000Y-180000000D03*
X-275000000Y-185080000D03*
X-267380000Y-182540000D03*
X-275000000Y-182540000D03*
X-267380000Y-185080000D03*
D12*
X-275000000Y-180000000D03*
%TD*%
D11*
%TO.C,U14*%
X-267380000Y-165000000D03*
X-275000000Y-170080000D03*
X-267380000Y-167540000D03*
X-275000000Y-167540000D03*
X-267380000Y-170080000D03*
D12*
X-275000000Y-165000000D03*
%TD*%
D11*
%TO.C,U13*%
X-267380000Y-150000000D03*
X-275000000Y-155080000D03*
X-267380000Y-152540000D03*
X-275000000Y-152540000D03*
X-267380000Y-155080000D03*
D12*
X-275000000Y-150000000D03*
%TD*%
D11*
%TO.C,U12*%
X-267380000Y-135000000D03*
X-275000000Y-140080000D03*
X-267380000Y-137540000D03*
X-275000000Y-137540000D03*
X-267380000Y-140080000D03*
D12*
X-275000000Y-135000000D03*
%TD*%
D11*
%TO.C,U11*%
X-267380000Y-120000000D03*
X-275000000Y-125080000D03*
X-267380000Y-122540000D03*
X-275000000Y-122540000D03*
X-267380000Y-125080000D03*
D12*
X-275000000Y-120000000D03*
%TD*%
D11*
%TO.C,U7*%
X-292380000Y-210000000D03*
X-300000000Y-215080000D03*
X-292380000Y-212540000D03*
X-300000000Y-212540000D03*
X-292380000Y-215080000D03*
D12*
X-300000000Y-210000000D03*
%TD*%
D11*
%TO.C,U6*%
X-292380000Y-195000000D03*
X-300000000Y-200080000D03*
X-292380000Y-197540000D03*
X-300000000Y-197540000D03*
X-292380000Y-200080000D03*
D12*
X-300000000Y-195000000D03*
%TD*%
D11*
%TO.C,U5*%
X-292380000Y-180000000D03*
X-300000000Y-185080000D03*
X-292380000Y-182540000D03*
X-300000000Y-182540000D03*
X-292380000Y-185080000D03*
D12*
X-300000000Y-180000000D03*
%TD*%
D11*
%TO.C,U4*%
X-292380000Y-165000000D03*
X-300000000Y-170080000D03*
X-292380000Y-167540000D03*
X-300000000Y-167540000D03*
X-292380000Y-170080000D03*
D12*
X-300000000Y-165000000D03*
%TD*%
D11*
%TO.C,U3*%
X-292380000Y-150000000D03*
X-300000000Y-155080000D03*
X-292380000Y-152540000D03*
X-300000000Y-152540000D03*
X-292380000Y-155080000D03*
D12*
X-300000000Y-150000000D03*
%TD*%
D11*
%TO.C,U2*%
X-292380000Y-135000000D03*
X-300000000Y-140080000D03*
X-292380000Y-137540000D03*
X-300000000Y-137540000D03*
X-292380000Y-140080000D03*
D12*
X-300000000Y-135000000D03*
%TD*%
D11*
%TO.C,U1*%
X-292380000Y-120000000D03*
X-300000000Y-125080000D03*
X-292380000Y-122540000D03*
X-300000000Y-122540000D03*
X-292380000Y-125080000D03*
D12*
X-300000000Y-120000000D03*
%TD*%
D13*
%TO.C,TP1*%
X-194740000Y-158580000D03*
%TD*%
D14*
%TO.C,RN4*%
X-207450000Y-121140000D03*
X-207450000Y-119800000D03*
X-207450000Y-123800000D03*
X-207450000Y-122460000D03*
X-204450000Y-121140000D03*
X-204450000Y-122460000D03*
X-204450000Y-119800000D03*
X-204450000Y-123800000D03*
%TD*%
%TO.C,RN1*%
X-204410000Y-133340000D03*
X-204410000Y-134680000D03*
X-204410000Y-130680000D03*
X-204410000Y-132020000D03*
X-207410000Y-133340000D03*
X-207410000Y-132020000D03*
X-207410000Y-134680000D03*
X-207410000Y-130680000D03*
%TD*%
D11*
%TO.C,R4*%
X-171958000Y-148082000D03*
D15*
X-171958000Y-132842000D03*
%TD*%
D11*
%TO.C,R3*%
X-166980000Y-164890000D03*
D15*
X-182220000Y-164890000D03*
%TD*%
D11*
%TO.C,R2*%
X-158460000Y-156870000D03*
D15*
X-158460000Y-141630000D03*
%TD*%
D11*
%TO.C,R1*%
X-158320000Y-120730000D03*
D15*
X-158320000Y-135970000D03*
%TD*%
D16*
%TO.C,JP5*%
X-200090000Y-164310000D03*
D17*
G36*
X-198790000Y-163560602D02*
G01*
X-198765466Y-163560602D01*
X-198716635Y-163565412D01*
X-198668510Y-163574984D01*
X-198621555Y-163589228D01*
X-198576222Y-163608005D01*
X-198532949Y-163631136D01*
X-198492150Y-163658396D01*
X-198454221Y-163689524D01*
X-198419524Y-163724221D01*
X-198388396Y-163762150D01*
X-198361136Y-163802949D01*
X-198338005Y-163846222D01*
X-198319228Y-163891555D01*
X-198304984Y-163938510D01*
X-198295412Y-163986635D01*
X-198290602Y-164035466D01*
X-198290602Y-164060000D01*
X-198290000Y-164060000D01*
X-198290000Y-164560000D01*
X-198290602Y-164560000D01*
X-198290602Y-164584534D01*
X-198295412Y-164633365D01*
X-198304984Y-164681490D01*
X-198319228Y-164728445D01*
X-198338005Y-164773778D01*
X-198361136Y-164817051D01*
X-198388396Y-164857850D01*
X-198419524Y-164895779D01*
X-198454221Y-164930476D01*
X-198492150Y-164961604D01*
X-198532949Y-164988864D01*
X-198576222Y-165011995D01*
X-198621555Y-165030772D01*
X-198668510Y-165045016D01*
X-198716635Y-165054588D01*
X-198765466Y-165059398D01*
X-198790000Y-165059398D01*
X-198790000Y-165060000D01*
X-199340000Y-165060000D01*
X-199340000Y-163560000D01*
X-198790000Y-163560000D01*
X-198790000Y-163560602D01*
G37*
G36*
X-200840000Y-165060000D02*
G01*
X-201390000Y-165060000D01*
X-201390000Y-165059398D01*
X-201414534Y-165059398D01*
X-201463365Y-165054588D01*
X-201511490Y-165045016D01*
X-201558445Y-165030772D01*
X-201603778Y-165011995D01*
X-201647051Y-164988864D01*
X-201687850Y-164961604D01*
X-201725779Y-164930476D01*
X-201760476Y-164895779D01*
X-201791604Y-164857850D01*
X-201818864Y-164817051D01*
X-201841995Y-164773778D01*
X-201860772Y-164728445D01*
X-201875016Y-164681490D01*
X-201884588Y-164633365D01*
X-201889398Y-164584534D01*
X-201889398Y-164560000D01*
X-201890000Y-164560000D01*
X-201890000Y-164060000D01*
X-201889398Y-164060000D01*
X-201889398Y-164035466D01*
X-201884588Y-163986635D01*
X-201875016Y-163938510D01*
X-201860772Y-163891555D01*
X-201841995Y-163846222D01*
X-201818864Y-163802949D01*
X-201791604Y-163762150D01*
X-201760476Y-163724221D01*
X-201725779Y-163689524D01*
X-201687850Y-163658396D01*
X-201647051Y-163631136D01*
X-201603778Y-163608005D01*
X-201558445Y-163589228D01*
X-201511490Y-163574984D01*
X-201463365Y-163565412D01*
X-201414534Y-163560602D01*
X-201390000Y-163560602D01*
X-201390000Y-163560000D01*
X-200840000Y-163560000D01*
X-200840000Y-165060000D01*
G37*
%TD*%
D16*
%TO.C,JP4*%
X-248666000Y-164846000D03*
D17*
G36*
X-249966000Y-165595398D02*
G01*
X-249990534Y-165595398D01*
X-250039365Y-165590588D01*
X-250087490Y-165581016D01*
X-250134445Y-165566772D01*
X-250179778Y-165547995D01*
X-250223051Y-165524864D01*
X-250263850Y-165497604D01*
X-250301779Y-165466476D01*
X-250336476Y-165431779D01*
X-250367604Y-165393850D01*
X-250394864Y-165353051D01*
X-250417995Y-165309778D01*
X-250436772Y-165264445D01*
X-250451016Y-165217490D01*
X-250460588Y-165169365D01*
X-250465398Y-165120534D01*
X-250465398Y-165096000D01*
X-250466000Y-165096000D01*
X-250466000Y-164596000D01*
X-250465398Y-164596000D01*
X-250465398Y-164571466D01*
X-250460588Y-164522635D01*
X-250451016Y-164474510D01*
X-250436772Y-164427555D01*
X-250417995Y-164382222D01*
X-250394864Y-164338949D01*
X-250367604Y-164298150D01*
X-250336476Y-164260221D01*
X-250301779Y-164225524D01*
X-250263850Y-164194396D01*
X-250223051Y-164167136D01*
X-250179778Y-164144005D01*
X-250134445Y-164125228D01*
X-250087490Y-164110984D01*
X-250039365Y-164101412D01*
X-249990534Y-164096602D01*
X-249966000Y-164096602D01*
X-249966000Y-164096000D01*
X-249416000Y-164096000D01*
X-249416000Y-165596000D01*
X-249966000Y-165596000D01*
X-249966000Y-165595398D01*
G37*
G36*
X-247916000Y-164096000D02*
G01*
X-247366000Y-164096000D01*
X-247366000Y-164096602D01*
X-247341466Y-164096602D01*
X-247292635Y-164101412D01*
X-247244510Y-164110984D01*
X-247197555Y-164125228D01*
X-247152222Y-164144005D01*
X-247108949Y-164167136D01*
X-247068150Y-164194396D01*
X-247030221Y-164225524D01*
X-246995524Y-164260221D01*
X-246964396Y-164298150D01*
X-246937136Y-164338949D01*
X-246914005Y-164382222D01*
X-246895228Y-164427555D01*
X-246880984Y-164474510D01*
X-246871412Y-164522635D01*
X-246866602Y-164571466D01*
X-246866602Y-164596000D01*
X-246866000Y-164596000D01*
X-246866000Y-165096000D01*
X-246866602Y-165096000D01*
X-246866602Y-165120534D01*
X-246871412Y-165169365D01*
X-246880984Y-165217490D01*
X-246895228Y-165264445D01*
X-246914005Y-165309778D01*
X-246937136Y-165353051D01*
X-246964396Y-165393850D01*
X-246995524Y-165431779D01*
X-247030221Y-165466476D01*
X-247068150Y-165497604D01*
X-247108949Y-165524864D01*
X-247152222Y-165547995D01*
X-247197555Y-165566772D01*
X-247244510Y-165581016D01*
X-247292635Y-165590588D01*
X-247341466Y-165595398D01*
X-247366000Y-165595398D01*
X-247366000Y-165596000D01*
X-247916000Y-165596000D01*
X-247916000Y-164096000D01*
G37*
%TD*%
D16*
%TO.C,JP3*%
X-239806000Y-165100000D03*
D17*
G36*
X-238506000Y-164350602D02*
G01*
X-238481466Y-164350602D01*
X-238432635Y-164355412D01*
X-238384510Y-164364984D01*
X-238337555Y-164379228D01*
X-238292222Y-164398005D01*
X-238248949Y-164421136D01*
X-238208150Y-164448396D01*
X-238170221Y-164479524D01*
X-238135524Y-164514221D01*
X-238104396Y-164552150D01*
X-238077136Y-164592949D01*
X-238054005Y-164636222D01*
X-238035228Y-164681555D01*
X-238020984Y-164728510D01*
X-238011412Y-164776635D01*
X-238006602Y-164825466D01*
X-238006602Y-164850000D01*
X-238006000Y-164850000D01*
X-238006000Y-165350000D01*
X-238006602Y-165350000D01*
X-238006602Y-165374534D01*
X-238011412Y-165423365D01*
X-238020984Y-165471490D01*
X-238035228Y-165518445D01*
X-238054005Y-165563778D01*
X-238077136Y-165607051D01*
X-238104396Y-165647850D01*
X-238135524Y-165685779D01*
X-238170221Y-165720476D01*
X-238208150Y-165751604D01*
X-238248949Y-165778864D01*
X-238292222Y-165801995D01*
X-238337555Y-165820772D01*
X-238384510Y-165835016D01*
X-238432635Y-165844588D01*
X-238481466Y-165849398D01*
X-238506000Y-165849398D01*
X-238506000Y-165850000D01*
X-239056000Y-165850000D01*
X-239056000Y-164350000D01*
X-238506000Y-164350000D01*
X-238506000Y-164350602D01*
G37*
G36*
X-240556000Y-165850000D02*
G01*
X-241106000Y-165850000D01*
X-241106000Y-165849398D01*
X-241130534Y-165849398D01*
X-241179365Y-165844588D01*
X-241227490Y-165835016D01*
X-241274445Y-165820772D01*
X-241319778Y-165801995D01*
X-241363051Y-165778864D01*
X-241403850Y-165751604D01*
X-241441779Y-165720476D01*
X-241476476Y-165685779D01*
X-241507604Y-165647850D01*
X-241534864Y-165607051D01*
X-241557995Y-165563778D01*
X-241576772Y-165518445D01*
X-241591016Y-165471490D01*
X-241600588Y-165423365D01*
X-241605398Y-165374534D01*
X-241605398Y-165350000D01*
X-241606000Y-165350000D01*
X-241606000Y-164850000D01*
X-241605398Y-164850000D01*
X-241605398Y-164825466D01*
X-241600588Y-164776635D01*
X-241591016Y-164728510D01*
X-241576772Y-164681555D01*
X-241557995Y-164636222D01*
X-241534864Y-164592949D01*
X-241507604Y-164552150D01*
X-241476476Y-164514221D01*
X-241441779Y-164479524D01*
X-241403850Y-164448396D01*
X-241363051Y-164421136D01*
X-241319778Y-164398005D01*
X-241274445Y-164379228D01*
X-241227490Y-164364984D01*
X-241179365Y-164355412D01*
X-241130534Y-164350602D01*
X-241106000Y-164350602D01*
X-241106000Y-164350000D01*
X-240556000Y-164350000D01*
X-240556000Y-165850000D01*
G37*
%TD*%
D18*
%TO.C,JP2*%
X-178910000Y-152490000D03*
D17*
G36*
X-178160602Y-153790000D02*
G01*
X-178160602Y-153814534D01*
X-178165412Y-153863365D01*
X-178174984Y-153911490D01*
X-178189228Y-153958445D01*
X-178208005Y-154003778D01*
X-178231136Y-154047051D01*
X-178258396Y-154087850D01*
X-178289524Y-154125779D01*
X-178324221Y-154160476D01*
X-178362150Y-154191604D01*
X-178402949Y-154218864D01*
X-178446222Y-154241995D01*
X-178491555Y-154260772D01*
X-178538510Y-154275016D01*
X-178586635Y-154284588D01*
X-178635466Y-154289398D01*
X-178660000Y-154289398D01*
X-178660000Y-154290000D01*
X-179160000Y-154290000D01*
X-179160000Y-154289398D01*
X-179184534Y-154289398D01*
X-179233365Y-154284588D01*
X-179281490Y-154275016D01*
X-179328445Y-154260772D01*
X-179373778Y-154241995D01*
X-179417051Y-154218864D01*
X-179457850Y-154191604D01*
X-179495779Y-154160476D01*
X-179530476Y-154125779D01*
X-179561604Y-154087850D01*
X-179588864Y-154047051D01*
X-179611995Y-154003778D01*
X-179630772Y-153958445D01*
X-179645016Y-153911490D01*
X-179654588Y-153863365D01*
X-179659398Y-153814534D01*
X-179659398Y-153790000D01*
X-179660000Y-153790000D01*
X-179660000Y-153240000D01*
X-178160000Y-153240000D01*
X-178160000Y-153790000D01*
X-178160602Y-153790000D01*
G37*
G36*
X-179660000Y-151740000D02*
G01*
X-179660000Y-151190000D01*
X-179659398Y-151190000D01*
X-179659398Y-151165466D01*
X-179654588Y-151116635D01*
X-179645016Y-151068510D01*
X-179630772Y-151021555D01*
X-179611995Y-150976222D01*
X-179588864Y-150932949D01*
X-179561604Y-150892150D01*
X-179530476Y-150854221D01*
X-179495779Y-150819524D01*
X-179457850Y-150788396D01*
X-179417051Y-150761136D01*
X-179373778Y-150738005D01*
X-179328445Y-150719228D01*
X-179281490Y-150704984D01*
X-179233365Y-150695412D01*
X-179184534Y-150690602D01*
X-179160000Y-150690602D01*
X-179160000Y-150690000D01*
X-178660000Y-150690000D01*
X-178660000Y-150690602D01*
X-178635466Y-150690602D01*
X-178586635Y-150695412D01*
X-178538510Y-150704984D01*
X-178491555Y-150719228D01*
X-178446222Y-150738005D01*
X-178402949Y-150761136D01*
X-178362150Y-150788396D01*
X-178324221Y-150819524D01*
X-178289524Y-150854221D01*
X-178258396Y-150892150D01*
X-178231136Y-150932949D01*
X-178208005Y-150976222D01*
X-178189228Y-151021555D01*
X-178174984Y-151068510D01*
X-178165412Y-151116635D01*
X-178160602Y-151165466D01*
X-178160602Y-151190000D01*
X-178160000Y-151190000D01*
X-178160000Y-151740000D01*
X-179660000Y-151740000D01*
G37*
%TD*%
%TO.C,JP1*%
G36*
X-205530000Y-146509398D02*
G01*
X-205554534Y-146509398D01*
X-205603365Y-146504588D01*
X-205651490Y-146495016D01*
X-205698445Y-146480772D01*
X-205743778Y-146461995D01*
X-205787051Y-146438864D01*
X-205827850Y-146411604D01*
X-205865779Y-146380476D01*
X-205900476Y-146345779D01*
X-205931604Y-146307850D01*
X-205958864Y-146267051D01*
X-205981995Y-146223778D01*
X-206000772Y-146178445D01*
X-206015016Y-146131490D01*
X-206024588Y-146083365D01*
X-206029398Y-146034534D01*
X-206029398Y-146010000D01*
X-206030000Y-146010000D01*
X-206030000Y-145510000D01*
X-206029398Y-145510000D01*
X-206029398Y-145485466D01*
X-206024588Y-145436635D01*
X-206015016Y-145388510D01*
X-206000772Y-145341555D01*
X-205981995Y-145296222D01*
X-205958864Y-145252949D01*
X-205931604Y-145212150D01*
X-205900476Y-145174221D01*
X-205865779Y-145139524D01*
X-205827850Y-145108396D01*
X-205787051Y-145081136D01*
X-205743778Y-145058005D01*
X-205698445Y-145039228D01*
X-205651490Y-145024984D01*
X-205603365Y-145015412D01*
X-205554534Y-145010602D01*
X-205530000Y-145010602D01*
X-205530000Y-145010000D01*
X-205030000Y-145010000D01*
X-205030000Y-146510000D01*
X-205530000Y-146510000D01*
X-205530000Y-146509398D01*
G37*
G36*
X-204730000Y-145010000D02*
G01*
X-204230000Y-145010000D01*
X-204230000Y-145010602D01*
X-204205466Y-145010602D01*
X-204156635Y-145015412D01*
X-204108510Y-145024984D01*
X-204061555Y-145039228D01*
X-204016222Y-145058005D01*
X-203972949Y-145081136D01*
X-203932150Y-145108396D01*
X-203894221Y-145139524D01*
X-203859524Y-145174221D01*
X-203828396Y-145212150D01*
X-203801136Y-145252949D01*
X-203778005Y-145296222D01*
X-203759228Y-145341555D01*
X-203744984Y-145388510D01*
X-203735412Y-145436635D01*
X-203730602Y-145485466D01*
X-203730602Y-145510000D01*
X-203730000Y-145510000D01*
X-203730000Y-146010000D01*
X-203730602Y-146010000D01*
X-203730602Y-146034534D01*
X-203735412Y-146083365D01*
X-203744984Y-146131490D01*
X-203759228Y-146178445D01*
X-203778005Y-146223778D01*
X-203801136Y-146267051D01*
X-203828396Y-146307850D01*
X-203859524Y-146345779D01*
X-203894221Y-146380476D01*
X-203932150Y-146411604D01*
X-203972949Y-146438864D01*
X-204016222Y-146461995D01*
X-204061555Y-146480772D01*
X-204108510Y-146495016D01*
X-204156635Y-146504588D01*
X-204205466Y-146509398D01*
X-204230000Y-146509398D01*
X-204230000Y-146510000D01*
X-204730000Y-146510000D01*
X-204730000Y-145010000D01*
G37*
%TD*%
D19*
%TO.C,J3*%
X-291430000Y-110150000D03*
X-291430000Y-107610000D03*
X-288890000Y-110150000D03*
X-288890000Y-107610000D03*
X-286350000Y-110150000D03*
X-286350000Y-107610000D03*
X-283810000Y-110150000D03*
X-283810000Y-107610000D03*
X-281270000Y-110150000D03*
X-281270000Y-107610000D03*
X-278730000Y-110150000D03*
D20*
X-278730000Y-107610000D03*
%TD*%
D19*
%TO.C,J2*%
X-278870000Y-236580000D03*
X-278870000Y-239120000D03*
X-281410000Y-236580000D03*
X-281410000Y-239120000D03*
X-283950000Y-236580000D03*
X-283950000Y-239120000D03*
X-286490000Y-236580000D03*
X-286490000Y-239120000D03*
X-289030000Y-236580000D03*
X-289030000Y-239120000D03*
X-291570000Y-236580000D03*
D20*
X-291570000Y-239120000D03*
%TD*%
D19*
%TO.C,J1*%
X-216610000Y-135930000D03*
X-216610000Y-138470000D03*
X-216610000Y-141010000D03*
X-216610000Y-143550000D03*
X-216610000Y-146090000D03*
X-216610000Y-148630000D03*
X-216610000Y-151170000D03*
X-216610000Y-153710000D03*
X-216610000Y-156250000D03*
X-216610000Y-158790000D03*
X-216610000Y-161330000D03*
X-216610000Y-163870000D03*
X-216610000Y-166410000D03*
D20*
X-216610000Y-168950000D03*
%TD*%
D15*
%TO.C,C1*%
X-190300000Y-164850000D03*
D12*
X-187800000Y-164850000D03*
%TD*%
M02*
