%TF.GenerationSoftware,KiCad,Pcbnew,(5.1.9-0-10_14)*%
%TF.CreationDate,2021-02-22T09:56:50+00:00*%
%TF.ProjectId,Solar_Multiplexer,536f6c61-725f-44d7-956c-7469706c6578,rev?*%
%TF.SameCoordinates,Original*%
%TF.FileFunction,Plated,1,2,PTH,Drill*%
%TF.FilePolarity,Positive*%
%FSLAX46Y46*%
G04 Gerber Fmt 4.6, Leading zero omitted, Abs format (unit mm)*
G04 Created by KiCad (PCBNEW (5.1.9-0-10_14)) date 2021-02-22 09:56:50*
%MOMM*%
%LPD*%
G01*
G04 APERTURE LIST*
%TA.AperFunction,ViaDrill*%
%ADD10C,0.400000*%
%TD*%
%TA.AperFunction,ComponentDrill*%
%ADD11C,0.800000*%
%TD*%
%TA.AperFunction,ComponentDrill*%
%ADD12C,1.000000*%
%TD*%
G04 APERTURE END LIST*
D10*
X-329692000Y-218186000D03*
X-326644000Y-205486000D03*
X-317500000Y-205486000D03*
X-315214000Y-218186000D03*
X-312166000Y-132080000D03*
X-310388000Y-147320000D03*
X-308474000Y-162170000D03*
X-305829000Y-177051000D03*
X-304546000Y-192024000D03*
X-302228000Y-207550000D03*
X-300482000Y-101346000D03*
X-299900000Y-117690000D03*
X-298048000Y-236580000D03*
X-291592000Y-242570000D03*
X-290180000Y-125080000D03*
X-290068000Y-230124000D03*
X-288890000Y-112410000D03*
X-288036000Y-170180000D03*
X-288036000Y-185166000D03*
X-288036000Y-200152000D03*
X-288002000Y-155160000D03*
X-287970000Y-140080000D03*
X-287970000Y-215072000D03*
X-286490000Y-242040000D03*
X-283910000Y-113820000D03*
X-283610000Y-100620000D03*
X-282320000Y-137540000D03*
X-282306000Y-122540000D03*
X-281410000Y-242294000D03*
X-278730000Y-104556000D03*
X-278730000Y-115440000D03*
X-271100000Y-128696000D03*
X-270002000Y-159004000D03*
X-269910000Y-104556000D03*
X-269870000Y-174140000D03*
X-268224000Y-144780000D03*
X-267716000Y-177038000D03*
X-267462000Y-189992000D03*
X-267380000Y-232836000D03*
X-267208000Y-205486000D03*
X-264540000Y-135000000D03*
X-264160000Y-144780000D03*
X-254508000Y-249174000D03*
X-249174000Y-169164000D03*
X-243332000Y-167386000D03*
X-236220000Y-108966000D03*
X-228854000Y-112522000D03*
X-227838000Y-164846000D03*
X-219112000Y-222160000D03*
X-211810000Y-156250000D03*
X-200840000Y-145760000D03*
X-196550000Y-137330000D03*
X-196540000Y-126920000D03*
X-196520000Y-132250000D03*
X-196500000Y-134790000D03*
X-196420000Y-129710000D03*
X-196410000Y-119550000D03*
X-196370000Y-124630000D03*
X-196340000Y-122090000D03*
X-194310000Y-109728000D03*
X-183980000Y-147490000D03*
X-183134000Y-113538000D03*
X-182058000Y-151190000D03*
X-179578000Y-146812000D03*
X-178910000Y-155288000D03*
D11*
%TO.C,U1*%
X-300000000Y-120000000D03*
X-300000000Y-122540000D03*
X-300000000Y-125080000D03*
%TO.C,U2*%
X-300000000Y-135000000D03*
X-300000000Y-137540000D03*
X-300000000Y-140080000D03*
%TO.C,U3*%
X-300000000Y-150000000D03*
X-300000000Y-152540000D03*
X-300000000Y-155080000D03*
%TO.C,U4*%
X-300000000Y-165000000D03*
X-300000000Y-167540000D03*
X-300000000Y-170080000D03*
%TO.C,U5*%
X-300000000Y-180000000D03*
X-300000000Y-182540000D03*
X-300000000Y-185080000D03*
%TO.C,U6*%
X-300000000Y-195000000D03*
X-300000000Y-197540000D03*
X-300000000Y-200080000D03*
%TO.C,U7*%
X-300000000Y-210000000D03*
X-300000000Y-212540000D03*
X-300000000Y-215080000D03*
%TO.C,U10*%
X-300000000Y-225000000D03*
X-300000000Y-227540000D03*
X-300000000Y-230080000D03*
%TO.C,U1*%
X-292380000Y-120000000D03*
X-292380000Y-122540000D03*
X-292380000Y-125080000D03*
%TO.C,U2*%
X-292380000Y-135000000D03*
X-292380000Y-137540000D03*
X-292380000Y-140080000D03*
%TO.C,U3*%
X-292380000Y-150000000D03*
X-292380000Y-152540000D03*
X-292380000Y-155080000D03*
%TO.C,U4*%
X-292380000Y-165000000D03*
X-292380000Y-167540000D03*
X-292380000Y-170080000D03*
%TO.C,U5*%
X-292380000Y-180000000D03*
X-292380000Y-182540000D03*
X-292380000Y-185080000D03*
%TO.C,U6*%
X-292380000Y-195000000D03*
X-292380000Y-197540000D03*
X-292380000Y-200080000D03*
%TO.C,U7*%
X-292380000Y-210000000D03*
X-292380000Y-212540000D03*
X-292380000Y-215080000D03*
%TO.C,U10*%
X-292380000Y-225000000D03*
X-292380000Y-227540000D03*
X-292380000Y-230080000D03*
%TO.C,U11*%
X-275000000Y-120000000D03*
X-275000000Y-122540000D03*
X-275000000Y-125080000D03*
%TO.C,U12*%
X-275000000Y-135000000D03*
X-275000000Y-137540000D03*
X-275000000Y-140080000D03*
%TO.C,U13*%
X-275000000Y-150000000D03*
X-275000000Y-152540000D03*
X-275000000Y-155080000D03*
%TO.C,U14*%
X-275000000Y-165000000D03*
X-275000000Y-167540000D03*
X-275000000Y-170080000D03*
%TO.C,U15*%
X-275000000Y-180000000D03*
X-275000000Y-182540000D03*
X-275000000Y-185080000D03*
%TO.C,U16*%
X-275000000Y-195000000D03*
X-275000000Y-197540000D03*
X-275000000Y-200080000D03*
%TO.C,U17*%
X-275000000Y-210000000D03*
X-275000000Y-212540000D03*
X-275000000Y-215080000D03*
%TO.C,U20*%
X-275000000Y-225000000D03*
X-275000000Y-227540000D03*
X-275000000Y-230080000D03*
%TO.C,U11*%
X-267380000Y-120000000D03*
X-267380000Y-122540000D03*
X-267380000Y-125080000D03*
%TO.C,U12*%
X-267380000Y-135000000D03*
X-267380000Y-137540000D03*
X-267380000Y-140080000D03*
%TO.C,U13*%
X-267380000Y-150000000D03*
X-267380000Y-152540000D03*
X-267380000Y-155080000D03*
%TO.C,U14*%
X-267380000Y-165000000D03*
X-267380000Y-167540000D03*
X-267380000Y-170080000D03*
%TO.C,U15*%
X-267380000Y-180000000D03*
X-267380000Y-182540000D03*
X-267380000Y-185080000D03*
%TO.C,U16*%
X-267380000Y-195000000D03*
X-267380000Y-197540000D03*
X-267380000Y-200080000D03*
%TO.C,U17*%
X-267380000Y-210000000D03*
X-267380000Y-212540000D03*
X-267380000Y-215080000D03*
%TO.C,U20*%
X-267380000Y-225000000D03*
X-267380000Y-227540000D03*
X-267380000Y-230080000D03*
%TO.C,U21*%
X-258910000Y-237300000D03*
X-258910000Y-239840000D03*
X-258910000Y-242380000D03*
X-251290000Y-237300000D03*
X-251290000Y-239840000D03*
X-251290000Y-242380000D03*
%TO.C,U22*%
X-194490000Y-119550000D03*
X-194490000Y-122090000D03*
X-194490000Y-124630000D03*
X-194490000Y-127170000D03*
X-194490000Y-129710000D03*
X-194490000Y-132250000D03*
X-194490000Y-134790000D03*
X-194490000Y-137330000D03*
X-194490000Y-139870000D03*
X-194490000Y-142410000D03*
X-194490000Y-144950000D03*
X-194490000Y-147490000D03*
X-194490000Y-150030000D03*
X-194490000Y-152570000D03*
%TO.C,C1*%
X-190300000Y-164850000D03*
X-187800000Y-164850000D03*
%TO.C,U22*%
X-186870000Y-119550000D03*
X-186870000Y-122090000D03*
X-186870000Y-124630000D03*
X-186870000Y-127170000D03*
X-186870000Y-129710000D03*
X-186870000Y-132250000D03*
X-186870000Y-134790000D03*
X-186870000Y-137330000D03*
X-186870000Y-139870000D03*
X-186870000Y-142410000D03*
X-186870000Y-144950000D03*
X-186870000Y-147490000D03*
X-186870000Y-150030000D03*
X-186870000Y-152570000D03*
%TO.C,R3*%
X-182220000Y-164890000D03*
%TO.C,R4*%
X-171958000Y-132842000D03*
X-171958000Y-148082000D03*
%TO.C,R3*%
X-166980000Y-164890000D03*
%TO.C,R2*%
X-158460000Y-141630000D03*
X-158460000Y-156870000D03*
%TO.C,R1*%
X-158320000Y-120730000D03*
X-158320000Y-135970000D03*
D12*
%TO.C,J2*%
X-291570000Y-236580000D03*
X-291570000Y-239120000D03*
%TO.C,J3*%
X-291430000Y-107610000D03*
X-291430000Y-110150000D03*
%TO.C,J2*%
X-289030000Y-236580000D03*
X-289030000Y-239120000D03*
%TO.C,J3*%
X-288890000Y-107610000D03*
X-288890000Y-110150000D03*
%TO.C,J2*%
X-286490000Y-236580000D03*
X-286490000Y-239120000D03*
%TO.C,J3*%
X-286350000Y-107610000D03*
X-286350000Y-110150000D03*
%TO.C,J2*%
X-283950000Y-236580000D03*
X-283950000Y-239120000D03*
%TO.C,J3*%
X-283810000Y-107610000D03*
X-283810000Y-110150000D03*
%TO.C,J2*%
X-281410000Y-236580000D03*
X-281410000Y-239120000D03*
%TO.C,J3*%
X-281270000Y-107610000D03*
X-281270000Y-110150000D03*
%TO.C,J2*%
X-278870000Y-236580000D03*
X-278870000Y-239120000D03*
%TO.C,J3*%
X-278730000Y-107610000D03*
X-278730000Y-110150000D03*
%TO.C,J1*%
X-216610000Y-135930000D03*
X-216610000Y-138470000D03*
X-216610000Y-141010000D03*
X-216610000Y-143550000D03*
X-216610000Y-146090000D03*
X-216610000Y-148630000D03*
X-216610000Y-151170000D03*
X-216610000Y-153710000D03*
X-216610000Y-156250000D03*
X-216610000Y-158790000D03*
X-216610000Y-161330000D03*
X-216610000Y-163870000D03*
X-216610000Y-166410000D03*
X-216610000Y-168950000D03*
M02*
