%TF.GenerationSoftware,KiCad,Pcbnew,(5.1.9-0-10_14)*%
%TF.CreationDate,2021-02-25T13:49:12+00:00*%
%TF.ProjectId,SSR-PCB,5353522d-5043-4422-9e6b-696361645f70,rev?*%
%TF.SameCoordinates,Original*%
%TF.FileFunction,Legend,Top*%
%TF.FilePolarity,Positive*%
%FSLAX46Y46*%
G04 Gerber Fmt 4.6, Leading zero omitted, Abs format (unit mm)*
G04 Created by KiCad (PCBNEW (5.1.9-0-10_14)) date 2021-02-25 13:49:12*
%MOMM*%
%LPD*%
G01*
G04 APERTURE LIST*
%ADD10C,0.120000*%
%ADD11C,0.150000*%
G04 APERTURE END LIST*
D10*
%TO.C,SSR-Ithink1*%
X-152340000Y-45285000D02*
X-154340000Y-45285000D01*
X-158290000Y-45485000D02*
X-130090000Y-45485000D01*
X-130090000Y-45485000D02*
X-130090000Y-50685000D01*
X-130090000Y-50685000D02*
X-158290000Y-50685000D01*
X-158290000Y-50685000D02*
X-158290000Y-47885000D01*
X-158290000Y-45485000D02*
X-158290000Y-45885000D01*
%TO.C,Resistor_SSR1*%
X-153060000Y-20100000D02*
X-153060000Y-20950000D01*
X-153060000Y-37540000D02*
X-153060000Y-36690000D01*
X-155680000Y-20950000D02*
X-155680000Y-36690000D01*
X-150440000Y-20950000D02*
X-155680000Y-20950000D01*
X-150440000Y-36690000D02*
X-150440000Y-20950000D01*
X-155680000Y-36690000D02*
X-150440000Y-36690000D01*
%TO.C,J2*%
X-139920000Y-34890000D02*
X-139420000Y-34890000D01*
X-139920000Y-34150000D02*
X-139920000Y-34890000D01*
X-133347000Y-31013000D02*
X-133394000Y-31059000D01*
X-131050000Y-28715000D02*
X-131085000Y-28751000D01*
X-133154000Y-31229000D02*
X-133189000Y-31264000D01*
X-130845000Y-28921000D02*
X-130892000Y-28967000D01*
X-129560000Y-24729000D02*
X-129560000Y-34650000D01*
X-139680000Y-24729000D02*
X-139680000Y-34650000D01*
X-139680000Y-34650000D02*
X-129560000Y-34650000D01*
X-139680000Y-24729000D02*
X-129560000Y-24729000D01*
X-139680000Y-27689000D02*
X-129560000Y-27689000D01*
X-139680000Y-32590000D02*
X-129560000Y-32590000D01*
X-139680000Y-34090000D02*
X-129560000Y-34090000D01*
X-130440000Y-29990000D02*
G75*
G03*
X-130440000Y-29990000I-1680000J0D01*
G01*
X-137091195Y-31670253D02*
G75*
G02*
X-137804000Y-31525000I-28805J1680253D01*
G01*
X-138655426Y-30673042D02*
G75*
G02*
X-138655000Y-29306000I1535426J683042D01*
G01*
X-137803042Y-28454574D02*
G75*
G02*
X-136436000Y-28455000I683042J-1535426D01*
G01*
X-135584574Y-29306958D02*
G75*
G02*
X-135585000Y-30674000I-1535426J-683042D01*
G01*
X-136436682Y-31524756D02*
G75*
G02*
X-137120000Y-31670000I-683318J1534756D01*
G01*
%TO.C,J1*%
X-162360000Y-23790000D02*
X-161030000Y-23790000D01*
X-162360000Y-25120000D02*
X-162360000Y-23790000D01*
X-162360000Y-26390000D02*
X-159700000Y-26390000D01*
X-159700000Y-26390000D02*
X-159700000Y-28990000D01*
X-162360000Y-26390000D02*
X-162360000Y-28990000D01*
X-162360000Y-28990000D02*
X-159700000Y-28990000D01*
%TO.C,REF\u002A\u002A*%
D11*
X-166333333Y-58252380D02*
X-166666666Y-57776190D01*
X-166904761Y-58252380D02*
X-166904761Y-57252380D01*
X-166523809Y-57252380D01*
X-166428571Y-57300000D01*
X-166380952Y-57347619D01*
X-166333333Y-57442857D01*
X-166333333Y-57585714D01*
X-166380952Y-57680952D01*
X-166428571Y-57728571D01*
X-166523809Y-57776190D01*
X-166904761Y-57776190D01*
X-165904761Y-57728571D02*
X-165571428Y-57728571D01*
X-165428571Y-58252380D02*
X-165904761Y-58252380D01*
X-165904761Y-57252380D01*
X-165428571Y-57252380D01*
X-164666666Y-57728571D02*
X-165000000Y-57728571D01*
X-165000000Y-58252380D02*
X-165000000Y-57252380D01*
X-164523809Y-57252380D01*
X-164000000Y-57252380D02*
X-164000000Y-57490476D01*
X-164238095Y-57395238D02*
X-164000000Y-57490476D01*
X-163761904Y-57395238D01*
X-164142857Y-57680952D02*
X-164000000Y-57490476D01*
X-163857142Y-57680952D01*
X-163238095Y-57252380D02*
X-163238095Y-57490476D01*
X-163476190Y-57395238D02*
X-163238095Y-57490476D01*
X-163000000Y-57395238D01*
X-163380952Y-57680952D02*
X-163238095Y-57490476D01*
X-163095238Y-57680952D01*
X-116333333Y-58252380D02*
X-116666666Y-57776190D01*
X-116904761Y-58252380D02*
X-116904761Y-57252380D01*
X-116523809Y-57252380D01*
X-116428571Y-57300000D01*
X-116380952Y-57347619D01*
X-116333333Y-57442857D01*
X-116333333Y-57585714D01*
X-116380952Y-57680952D01*
X-116428571Y-57728571D01*
X-116523809Y-57776190D01*
X-116904761Y-57776190D01*
X-115904761Y-57728571D02*
X-115571428Y-57728571D01*
X-115428571Y-58252380D02*
X-115904761Y-58252380D01*
X-115904761Y-57252380D01*
X-115428571Y-57252380D01*
X-114666666Y-57728571D02*
X-115000000Y-57728571D01*
X-115000000Y-58252380D02*
X-115000000Y-57252380D01*
X-114523809Y-57252380D01*
X-114000000Y-57252380D02*
X-114000000Y-57490476D01*
X-114238095Y-57395238D02*
X-114000000Y-57490476D01*
X-113761904Y-57395238D01*
X-114142857Y-57680952D02*
X-114000000Y-57490476D01*
X-113857142Y-57680952D01*
X-113238095Y-57252380D02*
X-113238095Y-57490476D01*
X-113476190Y-57395238D02*
X-113238095Y-57490476D01*
X-113000000Y-57395238D01*
X-113380952Y-57680952D02*
X-113238095Y-57490476D01*
X-113095238Y-57680952D01*
X-116333333Y-8252380D02*
X-116666666Y-7776190D01*
X-116904761Y-8252380D02*
X-116904761Y-7252380D01*
X-116523809Y-7252380D01*
X-116428571Y-7300000D01*
X-116380952Y-7347619D01*
X-116333333Y-7442857D01*
X-116333333Y-7585714D01*
X-116380952Y-7680952D01*
X-116428571Y-7728571D01*
X-116523809Y-7776190D01*
X-116904761Y-7776190D01*
X-115904761Y-7728571D02*
X-115571428Y-7728571D01*
X-115428571Y-8252380D02*
X-115904761Y-8252380D01*
X-115904761Y-7252380D01*
X-115428571Y-7252380D01*
X-114666666Y-7728571D02*
X-115000000Y-7728571D01*
X-115000000Y-8252380D02*
X-115000000Y-7252380D01*
X-114523809Y-7252380D01*
X-114000000Y-7252380D02*
X-114000000Y-7490476D01*
X-114238095Y-7395238D02*
X-114000000Y-7490476D01*
X-113761904Y-7395238D01*
X-114142857Y-7680952D02*
X-114000000Y-7490476D01*
X-113857142Y-7680952D01*
X-113238095Y-7252380D02*
X-113238095Y-7490476D01*
X-113476190Y-7395238D02*
X-113238095Y-7490476D01*
X-113000000Y-7395238D01*
X-113380952Y-7680952D02*
X-113238095Y-7490476D01*
X-113095238Y-7680952D01*
X-166333333Y-8252380D02*
X-166666666Y-7776190D01*
X-166904761Y-8252380D02*
X-166904761Y-7252380D01*
X-166523809Y-7252380D01*
X-166428571Y-7300000D01*
X-166380952Y-7347619D01*
X-166333333Y-7442857D01*
X-166333333Y-7585714D01*
X-166380952Y-7680952D01*
X-166428571Y-7728571D01*
X-166523809Y-7776190D01*
X-166904761Y-7776190D01*
X-165904761Y-7728571D02*
X-165571428Y-7728571D01*
X-165428571Y-8252380D02*
X-165904761Y-8252380D01*
X-165904761Y-7252380D01*
X-165428571Y-7252380D01*
X-164666666Y-7728571D02*
X-165000000Y-7728571D01*
X-165000000Y-8252380D02*
X-165000000Y-7252380D01*
X-164523809Y-7252380D01*
X-164000000Y-7252380D02*
X-164000000Y-7490476D01*
X-164238095Y-7395238D02*
X-164000000Y-7490476D01*
X-163761904Y-7395238D01*
X-164142857Y-7680952D02*
X-164000000Y-7490476D01*
X-163857142Y-7680952D01*
X-163238095Y-7252380D02*
X-163238095Y-7490476D01*
X-163476190Y-7395238D02*
X-163238095Y-7490476D01*
X-163000000Y-7395238D01*
X-163380952Y-7680952D02*
X-163238095Y-7490476D01*
X-163095238Y-7680952D01*
%TO.C,SSR-Ithink1*%
X-147518571Y-45089761D02*
X-147375714Y-45137380D01*
X-147137619Y-45137380D01*
X-147042380Y-45089761D01*
X-146994761Y-45042142D01*
X-146947142Y-44946904D01*
X-146947142Y-44851666D01*
X-146994761Y-44756428D01*
X-147042380Y-44708809D01*
X-147137619Y-44661190D01*
X-147328095Y-44613571D01*
X-147423333Y-44565952D01*
X-147470952Y-44518333D01*
X-147518571Y-44423095D01*
X-147518571Y-44327857D01*
X-147470952Y-44232619D01*
X-147423333Y-44185000D01*
X-147328095Y-44137380D01*
X-147090000Y-44137380D01*
X-146947142Y-44185000D01*
X-146566190Y-45089761D02*
X-146423333Y-45137380D01*
X-146185238Y-45137380D01*
X-146090000Y-45089761D01*
X-146042380Y-45042142D01*
X-145994761Y-44946904D01*
X-145994761Y-44851666D01*
X-146042380Y-44756428D01*
X-146090000Y-44708809D01*
X-146185238Y-44661190D01*
X-146375714Y-44613571D01*
X-146470952Y-44565952D01*
X-146518571Y-44518333D01*
X-146566190Y-44423095D01*
X-146566190Y-44327857D01*
X-146518571Y-44232619D01*
X-146470952Y-44185000D01*
X-146375714Y-44137380D01*
X-146137619Y-44137380D01*
X-145994761Y-44185000D01*
X-144994761Y-45137380D02*
X-145328095Y-44661190D01*
X-145566190Y-45137380D02*
X-145566190Y-44137380D01*
X-145185238Y-44137380D01*
X-145090000Y-44185000D01*
X-145042380Y-44232619D01*
X-144994761Y-44327857D01*
X-144994761Y-44470714D01*
X-145042380Y-44565952D01*
X-145090000Y-44613571D01*
X-145185238Y-44661190D01*
X-145566190Y-44661190D01*
X-144566190Y-44756428D02*
X-143804285Y-44756428D01*
X-143328095Y-45137380D02*
X-143328095Y-44137380D01*
X-142994761Y-44470714D02*
X-142613809Y-44470714D01*
X-142851904Y-44137380D02*
X-142851904Y-44994523D01*
X-142804285Y-45089761D01*
X-142709047Y-45137380D01*
X-142613809Y-45137380D01*
X-142280476Y-45137380D02*
X-142280476Y-44137380D01*
X-141851904Y-45137380D02*
X-141851904Y-44613571D01*
X-141899523Y-44518333D01*
X-141994761Y-44470714D01*
X-142137619Y-44470714D01*
X-142232857Y-44518333D01*
X-142280476Y-44565952D01*
X-141375714Y-45137380D02*
X-141375714Y-44470714D01*
X-141375714Y-44137380D02*
X-141423333Y-44185000D01*
X-141375714Y-44232619D01*
X-141328095Y-44185000D01*
X-141375714Y-44137380D01*
X-141375714Y-44232619D01*
X-140899523Y-44470714D02*
X-140899523Y-45137380D01*
X-140899523Y-44565952D02*
X-140851904Y-44518333D01*
X-140756666Y-44470714D01*
X-140613809Y-44470714D01*
X-140518571Y-44518333D01*
X-140470952Y-44613571D01*
X-140470952Y-45137380D01*
X-139994761Y-45137380D02*
X-139994761Y-44137380D01*
X-139899523Y-44756428D02*
X-139613809Y-45137380D01*
X-139613809Y-44470714D02*
X-139994761Y-44851666D01*
X-138661428Y-45137380D02*
X-139232857Y-45137380D01*
X-138947142Y-45137380D02*
X-138947142Y-44137380D01*
X-139042380Y-44280238D01*
X-139137619Y-44375476D01*
X-139232857Y-44423095D01*
%TO.C,Resistor_SSR1*%
X-156227619Y-33343809D02*
X-156703809Y-33677142D01*
X-156227619Y-33915238D02*
X-157227619Y-33915238D01*
X-157227619Y-33534285D01*
X-157180000Y-33439047D01*
X-157132380Y-33391428D01*
X-157037142Y-33343809D01*
X-156894285Y-33343809D01*
X-156799047Y-33391428D01*
X-156751428Y-33439047D01*
X-156703809Y-33534285D01*
X-156703809Y-33915238D01*
X-156275238Y-32534285D02*
X-156227619Y-32629523D01*
X-156227619Y-32820000D01*
X-156275238Y-32915238D01*
X-156370476Y-32962857D01*
X-156751428Y-32962857D01*
X-156846666Y-32915238D01*
X-156894285Y-32820000D01*
X-156894285Y-32629523D01*
X-156846666Y-32534285D01*
X-156751428Y-32486666D01*
X-156656190Y-32486666D01*
X-156560952Y-32962857D01*
X-156275238Y-32105714D02*
X-156227619Y-32010476D01*
X-156227619Y-31820000D01*
X-156275238Y-31724761D01*
X-156370476Y-31677142D01*
X-156418095Y-31677142D01*
X-156513333Y-31724761D01*
X-156560952Y-31820000D01*
X-156560952Y-31962857D01*
X-156608571Y-32058095D01*
X-156703809Y-32105714D01*
X-156751428Y-32105714D01*
X-156846666Y-32058095D01*
X-156894285Y-31962857D01*
X-156894285Y-31820000D01*
X-156846666Y-31724761D01*
X-156227619Y-31248571D02*
X-156894285Y-31248571D01*
X-157227619Y-31248571D02*
X-157180000Y-31296190D01*
X-157132380Y-31248571D01*
X-157180000Y-31200952D01*
X-157227619Y-31248571D01*
X-157132380Y-31248571D01*
X-156275238Y-30820000D02*
X-156227619Y-30724761D01*
X-156227619Y-30534285D01*
X-156275238Y-30439047D01*
X-156370476Y-30391428D01*
X-156418095Y-30391428D01*
X-156513333Y-30439047D01*
X-156560952Y-30534285D01*
X-156560952Y-30677142D01*
X-156608571Y-30772380D01*
X-156703809Y-30820000D01*
X-156751428Y-30820000D01*
X-156846666Y-30772380D01*
X-156894285Y-30677142D01*
X-156894285Y-30534285D01*
X-156846666Y-30439047D01*
X-156894285Y-30105714D02*
X-156894285Y-29724761D01*
X-157227619Y-29962857D02*
X-156370476Y-29962857D01*
X-156275238Y-29915238D01*
X-156227619Y-29820000D01*
X-156227619Y-29724761D01*
X-156227619Y-29248571D02*
X-156275238Y-29343809D01*
X-156322857Y-29391428D01*
X-156418095Y-29439047D01*
X-156703809Y-29439047D01*
X-156799047Y-29391428D01*
X-156846666Y-29343809D01*
X-156894285Y-29248571D01*
X-156894285Y-29105714D01*
X-156846666Y-29010476D01*
X-156799047Y-28962857D01*
X-156703809Y-28915238D01*
X-156418095Y-28915238D01*
X-156322857Y-28962857D01*
X-156275238Y-29010476D01*
X-156227619Y-29105714D01*
X-156227619Y-29248571D01*
X-156227619Y-28486666D02*
X-156894285Y-28486666D01*
X-156703809Y-28486666D02*
X-156799047Y-28439047D01*
X-156846666Y-28391428D01*
X-156894285Y-28296190D01*
X-156894285Y-28200952D01*
X-156132380Y-28105714D02*
X-156132380Y-27343809D01*
X-156275238Y-27153333D02*
X-156227619Y-27010476D01*
X-156227619Y-26772380D01*
X-156275238Y-26677142D01*
X-156322857Y-26629523D01*
X-156418095Y-26581904D01*
X-156513333Y-26581904D01*
X-156608571Y-26629523D01*
X-156656190Y-26677142D01*
X-156703809Y-26772380D01*
X-156751428Y-26962857D01*
X-156799047Y-27058095D01*
X-156846666Y-27105714D01*
X-156941904Y-27153333D01*
X-157037142Y-27153333D01*
X-157132380Y-27105714D01*
X-157180000Y-27058095D01*
X-157227619Y-26962857D01*
X-157227619Y-26724761D01*
X-157180000Y-26581904D01*
X-156275238Y-26200952D02*
X-156227619Y-26058095D01*
X-156227619Y-25820000D01*
X-156275238Y-25724761D01*
X-156322857Y-25677142D01*
X-156418095Y-25629523D01*
X-156513333Y-25629523D01*
X-156608571Y-25677142D01*
X-156656190Y-25724761D01*
X-156703809Y-25820000D01*
X-156751428Y-26010476D01*
X-156799047Y-26105714D01*
X-156846666Y-26153333D01*
X-156941904Y-26200952D01*
X-157037142Y-26200952D01*
X-157132380Y-26153333D01*
X-157180000Y-26105714D01*
X-157227619Y-26010476D01*
X-157227619Y-25772380D01*
X-157180000Y-25629523D01*
X-156227619Y-24629523D02*
X-156703809Y-24962857D01*
X-156227619Y-25200952D02*
X-157227619Y-25200952D01*
X-157227619Y-24820000D01*
X-157180000Y-24724761D01*
X-157132380Y-24677142D01*
X-157037142Y-24629523D01*
X-156894285Y-24629523D01*
X-156799047Y-24677142D01*
X-156751428Y-24724761D01*
X-156703809Y-24820000D01*
X-156703809Y-25200952D01*
X-156227619Y-23677142D02*
X-156227619Y-24248571D01*
X-156227619Y-23962857D02*
X-157227619Y-23962857D01*
X-157084761Y-24058095D01*
X-156989523Y-24153333D01*
X-156941904Y-24248571D01*
%TO.C,J2*%
X-134953333Y-23182380D02*
X-134953333Y-23896666D01*
X-135000952Y-24039523D01*
X-135096190Y-24134761D01*
X-135239047Y-24182380D01*
X-135334285Y-24182380D01*
X-134524761Y-23277619D02*
X-134477142Y-23230000D01*
X-134381904Y-23182380D01*
X-134143809Y-23182380D01*
X-134048571Y-23230000D01*
X-134000952Y-23277619D01*
X-133953333Y-23372857D01*
X-133953333Y-23468095D01*
X-134000952Y-23610952D01*
X-134572380Y-24182380D01*
X-133953333Y-24182380D01*
%TO.C,J1*%
X-161363333Y-22242380D02*
X-161363333Y-22956666D01*
X-161410952Y-23099523D01*
X-161506190Y-23194761D01*
X-161649047Y-23242380D01*
X-161744285Y-23242380D01*
X-160363333Y-23242380D02*
X-160934761Y-23242380D01*
X-160649047Y-23242380D02*
X-160649047Y-22242380D01*
X-160744285Y-22385238D01*
X-160839523Y-22480476D01*
X-160934761Y-22528095D01*
%TD*%
M02*
