M48
; DRILL file {KiCad (5.1.9-0-10_14)} date Wednesday, March 10, 2021 at 04:23:30 PM
; FORMAT={-:-/ absolute / metric / decimal}
; #@! TF.CreationDate,2021-03-10T16:23:30+00:00
; #@! TF.GenerationSoftware,Kicad,Pcbnew,(5.1.9-0-10_14)
; #@! TF.FileFunction,Plated,1,2,PTH
FMAT,2
METRIC
T1C0.800
T2C1.000
%
G90
G05
T1
X-329.692Y-218.186
X-326.644Y-205.486
X-317.5Y-205.486
X-315.214Y-218.186
X-312.166Y-132.08
X-310.388Y-147.32
X-308.474Y-162.17
X-308.102Y-177.292
X-304.546Y-192.024
X-302.228Y-207.55
X-300.0Y-120.0
X-300.0Y-122.54
X-300.0Y-125.08
X-300.0Y-135.0
X-300.0Y-137.54
X-300.0Y-140.08
X-300.0Y-150.0
X-300.0Y-152.54
X-300.0Y-155.08
X-300.0Y-165.0
X-300.0Y-167.54
X-300.0Y-170.08
X-300.0Y-180.0
X-300.0Y-182.54
X-300.0Y-185.08
X-300.0Y-195.0
X-300.0Y-197.54
X-300.0Y-200.08
X-300.0Y-210.0
X-300.0Y-212.54
X-300.0Y-215.08
X-300.0Y-225.0
X-300.0Y-227.54
X-300.0Y-230.08
X-299.9Y-101.928
X-299.9Y-117.066
X-298.048Y-236.58
X-292.38Y-120.0
X-292.38Y-122.54
X-292.38Y-125.08
X-292.38Y-135.0
X-292.38Y-137.54
X-292.38Y-140.08
X-292.38Y-150.0
X-292.38Y-152.54
X-292.38Y-155.08
X-292.38Y-165.0
X-292.38Y-167.54
X-292.38Y-170.08
X-292.38Y-180.0
X-292.38Y-182.54
X-292.38Y-185.08
X-292.38Y-195.0
X-292.38Y-197.54
X-292.38Y-200.08
X-292.38Y-210.0
X-292.38Y-212.54
X-292.38Y-215.08
X-292.38Y-225.0
X-292.38Y-227.54
X-292.38Y-230.08
X-291.592Y-242.57
X-290.068Y-230.124
X-289.814Y-113.03
X-289.814Y-125.08
X-288.036Y-170.18
X-288.036Y-185.166
X-288.036Y-200.152
X-288.002Y-155.16
X-287.97Y-140.08
X-287.97Y-215.072
X-286.49Y-242.04
X-283.81Y-114.392
X-283.61Y-100.62
X-282.32Y-137.54
X-282.306Y-122.54
X-281.41Y-242.294
X-278.73Y-104.556
X-278.73Y-115.916
X-275.0Y-120.0
X-275.0Y-122.54
X-275.0Y-125.08
X-275.0Y-135.0
X-275.0Y-137.54
X-275.0Y-140.08
X-275.0Y-150.0
X-275.0Y-152.54
X-275.0Y-155.08
X-275.0Y-165.0
X-275.0Y-167.54
X-275.0Y-170.08
X-275.0Y-180.0
X-275.0Y-182.54
X-275.0Y-185.08
X-275.0Y-195.0
X-275.0Y-197.54
X-275.0Y-200.08
X-275.0Y-210.0
X-275.0Y-212.54
X-275.0Y-215.08
X-275.0Y-225.0
X-275.0Y-227.54
X-275.0Y-230.08
X-271.1Y-128.696
X-270.002Y-159.004
X-269.91Y-104.556
X-269.87Y-174.14
X-269.494Y-144.78
X-267.716Y-177.038
X-267.462Y-189.992
X-267.38Y-120.0
X-267.38Y-122.54
X-267.38Y-125.08
X-267.38Y-135.0
X-267.38Y-137.54
X-267.38Y-140.08
X-267.38Y-150.0
X-267.38Y-152.54
X-267.38Y-155.08
X-267.38Y-165.0
X-267.38Y-167.54
X-267.38Y-170.08
X-267.38Y-180.0
X-267.38Y-182.54
X-267.38Y-185.08
X-267.38Y-195.0
X-267.38Y-197.54
X-267.38Y-200.08
X-267.38Y-210.0
X-267.38Y-212.54
X-267.38Y-215.08
X-267.38Y-225.0
X-267.38Y-227.54
X-267.38Y-230.08
X-267.38Y-232.836
X-267.208Y-205.486
X-264.922Y-142.494
X-264.54Y-135.0
X-258.91Y-237.3
X-258.91Y-239.84
X-258.91Y-242.38
X-254.508Y-249.174
X-251.29Y-237.3
X-251.29Y-239.84
X-251.29Y-242.38
X-249.174Y-169.164
X-243.332Y-167.386
X-236.22Y-108.966
X-228.854Y-112.522
X-227.838Y-164.846
X-219.112Y-222.16
X-213.868Y-118.872
X-213.868Y-122.682
X-213.73Y-130.97
X-213.59Y-126.82
X-213.07Y-136.21
X-211.81Y-156.25
X-207.264Y-115.062
X-200.84Y-145.76
X-198.628Y-118.872
X-198.628Y-122.682
X-198.49Y-130.97
X-198.35Y-126.82
X-197.83Y-136.21
X-194.49Y-119.55
X-194.49Y-122.09
X-194.49Y-124.63
X-194.49Y-127.17
X-194.49Y-129.71
X-194.49Y-132.25
X-194.49Y-134.79
X-194.49Y-137.33
X-194.49Y-139.87
X-194.49Y-142.41
X-194.49Y-144.95
X-194.49Y-147.49
X-194.49Y-150.03
X-194.49Y-152.57
X-194.31Y-109.728
X-192.024Y-115.062
X-190.3Y-164.85
X-187.8Y-164.85
X-186.87Y-119.55
X-186.87Y-122.09
X-186.87Y-124.63
X-186.87Y-127.17
X-186.87Y-129.71
X-186.87Y-132.25
X-186.87Y-134.79
X-186.87Y-137.33
X-186.87Y-139.87
X-186.87Y-142.41
X-186.87Y-144.95
X-186.87Y-147.49
X-186.87Y-150.03
X-186.87Y-152.57
X-183.98Y-147.49
X-183.642Y-153.67
X-183.134Y-113.538
X-182.22Y-164.89
X-179.578Y-146.812
X-178.91Y-156.972
X-171.958Y-132.842
X-171.958Y-148.082
X-166.98Y-164.89
X-158.46Y-141.63
X-158.46Y-156.87
X-158.32Y-120.73
X-158.32Y-135.97
T2
X-291.57Y-236.58
X-291.57Y-239.12
X-291.43Y-107.61
X-291.43Y-110.15
X-289.03Y-236.58
X-289.03Y-239.12
X-288.89Y-107.61
X-288.89Y-110.15
X-286.49Y-236.58
X-286.49Y-239.12
X-286.35Y-107.61
X-286.35Y-110.15
X-283.95Y-236.58
X-283.95Y-239.12
X-283.81Y-107.61
X-283.81Y-110.15
X-281.41Y-236.58
X-281.41Y-239.12
X-281.27Y-107.61
X-281.27Y-110.15
X-278.87Y-236.58
X-278.87Y-239.12
X-278.73Y-107.61
X-278.73Y-110.15
X-216.61Y-135.93
X-216.61Y-138.47
X-216.61Y-141.01
X-216.61Y-143.55
X-216.61Y-146.09
X-216.61Y-148.63
X-216.61Y-151.17
X-216.61Y-153.71
X-216.61Y-156.25
X-216.61Y-158.79
X-216.61Y-161.33
X-216.61Y-163.87
X-216.61Y-166.41
X-216.61Y-168.95
T0
M30
