%TF.GenerationSoftware,KiCad,Pcbnew,(5.1.9-0-10_14)*%
%TF.CreationDate,2021-03-09T15:00:21+00:00*%
%TF.ProjectId,Solar_Multiplexer,536f6c61-725f-44d7-956c-7469706c6578,rev?*%
%TF.SameCoordinates,Original*%
%TF.FileFunction,Legend,Top*%
%TF.FilePolarity,Positive*%
%FSLAX46Y46*%
G04 Gerber Fmt 4.6, Leading zero omitted, Abs format (unit mm)*
G04 Created by KiCad (PCBNEW (5.1.9-0-10_14)) date 2021-03-09 15:00:21*
%MOMM*%
%LPD*%
G01*
G04 APERTURE LIST*
%ADD10C,0.120000*%
%ADD11C,0.150000*%
G04 APERTURE END LIST*
D10*
%TO.C,R10*%
X-200830000Y-137930000D02*
X-200830000Y-134490000D01*
X-200830000Y-134490000D02*
X-210070000Y-134490000D01*
X-210070000Y-134490000D02*
X-210070000Y-137930000D01*
X-210070000Y-137930000D02*
X-200830000Y-137930000D01*
X-198870000Y-136210000D02*
X-200830000Y-136210000D01*
X-212030000Y-136210000D02*
X-210070000Y-136210000D01*
%TO.C,R9*%
X-201490000Y-132690000D02*
X-201490000Y-129250000D01*
X-201490000Y-129250000D02*
X-210730000Y-129250000D01*
X-210730000Y-129250000D02*
X-210730000Y-132690000D01*
X-210730000Y-132690000D02*
X-201490000Y-132690000D01*
X-199530000Y-130970000D02*
X-201490000Y-130970000D01*
X-212690000Y-130970000D02*
X-210730000Y-130970000D01*
%TO.C,R8*%
X-201350000Y-128540000D02*
X-201350000Y-125100000D01*
X-201350000Y-125100000D02*
X-210590000Y-125100000D01*
X-210590000Y-125100000D02*
X-210590000Y-128540000D01*
X-210590000Y-128540000D02*
X-201350000Y-128540000D01*
X-199390000Y-126820000D02*
X-201350000Y-126820000D01*
X-212550000Y-126820000D02*
X-210590000Y-126820000D01*
%TO.C,R7*%
X-201628000Y-124402000D02*
X-201628000Y-120962000D01*
X-201628000Y-120962000D02*
X-210868000Y-120962000D01*
X-210868000Y-120962000D02*
X-210868000Y-124402000D01*
X-210868000Y-124402000D02*
X-201628000Y-124402000D01*
X-199668000Y-122682000D02*
X-201628000Y-122682000D01*
X-212828000Y-122682000D02*
X-210868000Y-122682000D01*
%TO.C,R6*%
X-201628000Y-120592000D02*
X-201628000Y-117152000D01*
X-201628000Y-117152000D02*
X-210868000Y-117152000D01*
X-210868000Y-117152000D02*
X-210868000Y-120592000D01*
X-210868000Y-120592000D02*
X-201628000Y-120592000D01*
X-199668000Y-118872000D02*
X-201628000Y-118872000D01*
X-212828000Y-118872000D02*
X-210868000Y-118872000D01*
%TO.C,R5*%
X-195024000Y-116782000D02*
X-195024000Y-113342000D01*
X-195024000Y-113342000D02*
X-204264000Y-113342000D01*
X-204264000Y-113342000D02*
X-204264000Y-116782000D01*
X-204264000Y-116782000D02*
X-195024000Y-116782000D01*
X-193064000Y-115062000D02*
X-195024000Y-115062000D01*
X-206224000Y-115062000D02*
X-204264000Y-115062000D01*
%TO.C,U10*%
X-293540000Y-223670000D02*
X-295190000Y-223670000D01*
X-293540000Y-231410000D02*
X-293540000Y-223670000D01*
X-298840000Y-231410000D02*
X-293540000Y-231410000D01*
X-298840000Y-223670000D02*
X-298840000Y-231410000D01*
X-297190000Y-223670000D02*
X-298840000Y-223670000D01*
X-295190000Y-223670000D02*
G75*
G02*
X-297190000Y-223670000I-1000000J0D01*
G01*
%TO.C,U22*%
X-188030000Y-118220000D02*
X-189680000Y-118220000D01*
X-188030000Y-153900000D02*
X-188030000Y-118220000D01*
X-193330000Y-153900000D02*
X-188030000Y-153900000D01*
X-193330000Y-118220000D02*
X-193330000Y-153900000D01*
X-191680000Y-118220000D02*
X-193330000Y-118220000D01*
X-189680000Y-118220000D02*
G75*
G02*
X-191680000Y-118220000I-1000000J0D01*
G01*
%TO.C,U21*%
X-252450000Y-235970000D02*
X-254100000Y-235970000D01*
X-252450000Y-243710000D02*
X-252450000Y-235970000D01*
X-257750000Y-243710000D02*
X-252450000Y-243710000D01*
X-257750000Y-235970000D02*
X-257750000Y-243710000D01*
X-256100000Y-235970000D02*
X-257750000Y-235970000D01*
X-254100000Y-235970000D02*
G75*
G02*
X-256100000Y-235970000I-1000000J0D01*
G01*
%TO.C,U20*%
X-268540000Y-223670000D02*
X-270190000Y-223670000D01*
X-268540000Y-231410000D02*
X-268540000Y-223670000D01*
X-273840000Y-231410000D02*
X-268540000Y-231410000D01*
X-273840000Y-223670000D02*
X-273840000Y-231410000D01*
X-272190000Y-223670000D02*
X-273840000Y-223670000D01*
X-270190000Y-223670000D02*
G75*
G02*
X-272190000Y-223670000I-1000000J0D01*
G01*
%TO.C,U17*%
X-268540000Y-208670000D02*
X-270190000Y-208670000D01*
X-268540000Y-216410000D02*
X-268540000Y-208670000D01*
X-273840000Y-216410000D02*
X-268540000Y-216410000D01*
X-273840000Y-208670000D02*
X-273840000Y-216410000D01*
X-272190000Y-208670000D02*
X-273840000Y-208670000D01*
X-270190000Y-208670000D02*
G75*
G02*
X-272190000Y-208670000I-1000000J0D01*
G01*
%TO.C,U16*%
X-268540000Y-193670000D02*
X-270190000Y-193670000D01*
X-268540000Y-201410000D02*
X-268540000Y-193670000D01*
X-273840000Y-201410000D02*
X-268540000Y-201410000D01*
X-273840000Y-193670000D02*
X-273840000Y-201410000D01*
X-272190000Y-193670000D02*
X-273840000Y-193670000D01*
X-270190000Y-193670000D02*
G75*
G02*
X-272190000Y-193670000I-1000000J0D01*
G01*
%TO.C,U15*%
X-268540000Y-178670000D02*
X-270190000Y-178670000D01*
X-268540000Y-186410000D02*
X-268540000Y-178670000D01*
X-273840000Y-186410000D02*
X-268540000Y-186410000D01*
X-273840000Y-178670000D02*
X-273840000Y-186410000D01*
X-272190000Y-178670000D02*
X-273840000Y-178670000D01*
X-270190000Y-178670000D02*
G75*
G02*
X-272190000Y-178670000I-1000000J0D01*
G01*
%TO.C,U14*%
X-268540000Y-163670000D02*
X-270190000Y-163670000D01*
X-268540000Y-171410000D02*
X-268540000Y-163670000D01*
X-273840000Y-171410000D02*
X-268540000Y-171410000D01*
X-273840000Y-163670000D02*
X-273840000Y-171410000D01*
X-272190000Y-163670000D02*
X-273840000Y-163670000D01*
X-270190000Y-163670000D02*
G75*
G02*
X-272190000Y-163670000I-1000000J0D01*
G01*
%TO.C,U13*%
X-268540000Y-148670000D02*
X-270190000Y-148670000D01*
X-268540000Y-156410000D02*
X-268540000Y-148670000D01*
X-273840000Y-156410000D02*
X-268540000Y-156410000D01*
X-273840000Y-148670000D02*
X-273840000Y-156410000D01*
X-272190000Y-148670000D02*
X-273840000Y-148670000D01*
X-270190000Y-148670000D02*
G75*
G02*
X-272190000Y-148670000I-1000000J0D01*
G01*
%TO.C,U12*%
X-268540000Y-133670000D02*
X-270190000Y-133670000D01*
X-268540000Y-141410000D02*
X-268540000Y-133670000D01*
X-273840000Y-141410000D02*
X-268540000Y-141410000D01*
X-273840000Y-133670000D02*
X-273840000Y-141410000D01*
X-272190000Y-133670000D02*
X-273840000Y-133670000D01*
X-270190000Y-133670000D02*
G75*
G02*
X-272190000Y-133670000I-1000000J0D01*
G01*
%TO.C,U11*%
X-268540000Y-118670000D02*
X-270190000Y-118670000D01*
X-268540000Y-126410000D02*
X-268540000Y-118670000D01*
X-273840000Y-126410000D02*
X-268540000Y-126410000D01*
X-273840000Y-118670000D02*
X-273840000Y-126410000D01*
X-272190000Y-118670000D02*
X-273840000Y-118670000D01*
X-270190000Y-118670000D02*
G75*
G02*
X-272190000Y-118670000I-1000000J0D01*
G01*
%TO.C,U7*%
X-293540000Y-208670000D02*
X-295190000Y-208670000D01*
X-293540000Y-216410000D02*
X-293540000Y-208670000D01*
X-298840000Y-216410000D02*
X-293540000Y-216410000D01*
X-298840000Y-208670000D02*
X-298840000Y-216410000D01*
X-297190000Y-208670000D02*
X-298840000Y-208670000D01*
X-295190000Y-208670000D02*
G75*
G02*
X-297190000Y-208670000I-1000000J0D01*
G01*
%TO.C,U6*%
X-293540000Y-193670000D02*
X-295190000Y-193670000D01*
X-293540000Y-201410000D02*
X-293540000Y-193670000D01*
X-298840000Y-201410000D02*
X-293540000Y-201410000D01*
X-298840000Y-193670000D02*
X-298840000Y-201410000D01*
X-297190000Y-193670000D02*
X-298840000Y-193670000D01*
X-295190000Y-193670000D02*
G75*
G02*
X-297190000Y-193670000I-1000000J0D01*
G01*
%TO.C,U5*%
X-293540000Y-178670000D02*
X-295190000Y-178670000D01*
X-293540000Y-186410000D02*
X-293540000Y-178670000D01*
X-298840000Y-186410000D02*
X-293540000Y-186410000D01*
X-298840000Y-178670000D02*
X-298840000Y-186410000D01*
X-297190000Y-178670000D02*
X-298840000Y-178670000D01*
X-295190000Y-178670000D02*
G75*
G02*
X-297190000Y-178670000I-1000000J0D01*
G01*
%TO.C,U4*%
X-293540000Y-163670000D02*
X-295190000Y-163670000D01*
X-293540000Y-171410000D02*
X-293540000Y-163670000D01*
X-298840000Y-171410000D02*
X-293540000Y-171410000D01*
X-298840000Y-163670000D02*
X-298840000Y-171410000D01*
X-297190000Y-163670000D02*
X-298840000Y-163670000D01*
X-295190000Y-163670000D02*
G75*
G02*
X-297190000Y-163670000I-1000000J0D01*
G01*
%TO.C,U3*%
X-293540000Y-148670000D02*
X-295190000Y-148670000D01*
X-293540000Y-156410000D02*
X-293540000Y-148670000D01*
X-298840000Y-156410000D02*
X-293540000Y-156410000D01*
X-298840000Y-148670000D02*
X-298840000Y-156410000D01*
X-297190000Y-148670000D02*
X-298840000Y-148670000D01*
X-295190000Y-148670000D02*
G75*
G02*
X-297190000Y-148670000I-1000000J0D01*
G01*
%TO.C,U2*%
X-293540000Y-133670000D02*
X-295190000Y-133670000D01*
X-293540000Y-141410000D02*
X-293540000Y-133670000D01*
X-298840000Y-141410000D02*
X-293540000Y-141410000D01*
X-298840000Y-133670000D02*
X-298840000Y-141410000D01*
X-297190000Y-133670000D02*
X-298840000Y-133670000D01*
X-295190000Y-133670000D02*
G75*
G02*
X-297190000Y-133670000I-1000000J0D01*
G01*
%TO.C,U1*%
X-293540000Y-118670000D02*
X-295190000Y-118670000D01*
X-293540000Y-126410000D02*
X-293540000Y-118670000D01*
X-298840000Y-126410000D02*
X-293540000Y-126410000D01*
X-298840000Y-118670000D02*
X-298840000Y-126410000D01*
X-297190000Y-118670000D02*
X-298840000Y-118670000D01*
X-295190000Y-118670000D02*
G75*
G02*
X-297190000Y-118670000I-1000000J0D01*
G01*
%TO.C,TP1*%
X-196190000Y-160030000D02*
X-196190000Y-157130000D01*
X-193290000Y-160030000D02*
X-196190000Y-160030000D01*
X-193290000Y-157130000D02*
X-193290000Y-160030000D01*
X-196190000Y-157130000D02*
X-193290000Y-157130000D01*
%TO.C,R4*%
X-171958000Y-147042000D02*
X-171958000Y-145082000D01*
X-171958000Y-133882000D02*
X-171958000Y-135842000D01*
X-170238000Y-145082000D02*
X-170238000Y-135842000D01*
X-173678000Y-145082000D02*
X-170238000Y-145082000D01*
X-173678000Y-135842000D02*
X-173678000Y-145082000D01*
X-170238000Y-135842000D02*
X-173678000Y-135842000D01*
%TO.C,R3*%
X-168020000Y-164890000D02*
X-169980000Y-164890000D01*
X-181180000Y-164890000D02*
X-179220000Y-164890000D01*
X-169980000Y-163170000D02*
X-179220000Y-163170000D01*
X-169980000Y-166610000D02*
X-169980000Y-163170000D01*
X-179220000Y-166610000D02*
X-169980000Y-166610000D01*
X-179220000Y-163170000D02*
X-179220000Y-166610000D01*
%TO.C,R2*%
X-158460000Y-155830000D02*
X-158460000Y-153870000D01*
X-158460000Y-142670000D02*
X-158460000Y-144630000D01*
X-156740000Y-153870000D02*
X-156740000Y-144630000D01*
X-160180000Y-153870000D02*
X-156740000Y-153870000D01*
X-160180000Y-144630000D02*
X-160180000Y-153870000D01*
X-156740000Y-144630000D02*
X-160180000Y-144630000D01*
%TO.C,R1*%
X-158320000Y-121770000D02*
X-158320000Y-123730000D01*
X-158320000Y-134930000D02*
X-158320000Y-132970000D01*
X-160040000Y-123730000D02*
X-160040000Y-132970000D01*
X-156600000Y-123730000D02*
X-160040000Y-123730000D01*
X-156600000Y-132970000D02*
X-156600000Y-123730000D01*
X-160040000Y-132970000D02*
X-156600000Y-132970000D01*
%TO.C,JP5*%
X-201490000Y-163310000D02*
X-198690000Y-163310000D01*
X-198040000Y-164010000D02*
X-198040000Y-164610000D01*
X-198690000Y-165310000D02*
X-201490000Y-165310000D01*
X-202140000Y-164610000D02*
X-202140000Y-164010000D01*
X-202140000Y-164010000D02*
G75*
G02*
X-201440000Y-163310000I700000J0D01*
G01*
X-201440000Y-165310000D02*
G75*
G02*
X-202140000Y-164610000I0J700000D01*
G01*
X-198040000Y-164610000D02*
G75*
G02*
X-198740000Y-165310000I-700000J0D01*
G01*
X-198740000Y-163310000D02*
G75*
G02*
X-198040000Y-164010000I0J-700000D01*
G01*
%TO.C,JP4*%
X-247266000Y-165846000D02*
X-250066000Y-165846000D01*
X-250716000Y-165146000D02*
X-250716000Y-164546000D01*
X-250066000Y-163846000D02*
X-247266000Y-163846000D01*
X-246616000Y-164546000D02*
X-246616000Y-165146000D01*
X-246616000Y-165146000D02*
G75*
G02*
X-247316000Y-165846000I-700000J0D01*
G01*
X-247316000Y-163846000D02*
G75*
G02*
X-246616000Y-164546000I0J-700000D01*
G01*
X-250716000Y-164546000D02*
G75*
G02*
X-250016000Y-163846000I700000J0D01*
G01*
X-250016000Y-165846000D02*
G75*
G02*
X-250716000Y-165146000I0J700000D01*
G01*
%TO.C,JP3*%
X-241206000Y-164100000D02*
X-238406000Y-164100000D01*
X-237756000Y-164800000D02*
X-237756000Y-165400000D01*
X-238406000Y-166100000D02*
X-241206000Y-166100000D01*
X-241856000Y-165400000D02*
X-241856000Y-164800000D01*
X-241856000Y-164800000D02*
G75*
G02*
X-241156000Y-164100000I700000J0D01*
G01*
X-241156000Y-166100000D02*
G75*
G02*
X-241856000Y-165400000I0J700000D01*
G01*
X-237756000Y-165400000D02*
G75*
G02*
X-238456000Y-166100000I-700000J0D01*
G01*
X-238456000Y-164100000D02*
G75*
G02*
X-237756000Y-164800000I0J-700000D01*
G01*
%TO.C,JP2*%
X-177910000Y-151090000D02*
X-177910000Y-153890000D01*
X-178610000Y-154540000D02*
X-179210000Y-154540000D01*
X-179910000Y-153890000D02*
X-179910000Y-151090000D01*
X-179210000Y-150440000D02*
X-178610000Y-150440000D01*
X-178610000Y-150440000D02*
G75*
G02*
X-177910000Y-151140000I0J-700000D01*
G01*
X-179910000Y-151140000D02*
G75*
G02*
X-179210000Y-150440000I700000J0D01*
G01*
X-179210000Y-154540000D02*
G75*
G02*
X-179910000Y-153840000I0J700000D01*
G01*
X-177910000Y-153840000D02*
G75*
G02*
X-178610000Y-154540000I-700000J0D01*
G01*
%TO.C,JP1*%
X-204180000Y-146760000D02*
X-205580000Y-146760000D01*
X-206280000Y-146060000D02*
X-206280000Y-145460000D01*
X-205580000Y-144760000D02*
X-204180000Y-144760000D01*
X-203480000Y-145460000D02*
X-203480000Y-146060000D01*
X-203480000Y-146060000D02*
G75*
G02*
X-204180000Y-146760000I-700000J0D01*
G01*
X-204180000Y-144760000D02*
G75*
G02*
X-203480000Y-145460000I0J-700000D01*
G01*
X-206280000Y-145460000D02*
G75*
G02*
X-205580000Y-144760000I700000J0D01*
G01*
X-205580000Y-146760000D02*
G75*
G02*
X-206280000Y-146060000I0J700000D01*
G01*
%TO.C,J3*%
X-277400000Y-106280000D02*
X-277400000Y-107610000D01*
X-278730000Y-106280000D02*
X-277400000Y-106280000D01*
X-277400000Y-108880000D02*
X-277400000Y-111480000D01*
X-280000000Y-108880000D02*
X-277400000Y-108880000D01*
X-280000000Y-106280000D02*
X-280000000Y-108880000D01*
X-277400000Y-111480000D02*
X-292760000Y-111480000D01*
X-280000000Y-106280000D02*
X-292760000Y-106280000D01*
X-292760000Y-106280000D02*
X-292760000Y-111480000D01*
%TO.C,J2*%
X-292900000Y-240450000D02*
X-292900000Y-239120000D01*
X-291570000Y-240450000D02*
X-292900000Y-240450000D01*
X-292900000Y-237850000D02*
X-292900000Y-235250000D01*
X-290300000Y-237850000D02*
X-292900000Y-237850000D01*
X-290300000Y-240450000D02*
X-290300000Y-237850000D01*
X-292900000Y-235250000D02*
X-277540000Y-235250000D01*
X-290300000Y-240450000D02*
X-277540000Y-240450000D01*
X-277540000Y-240450000D02*
X-277540000Y-235250000D01*
%TO.C,J1*%
X-215280000Y-170280000D02*
X-216610000Y-170280000D01*
X-215280000Y-168950000D02*
X-215280000Y-170280000D01*
X-215280000Y-167680000D02*
X-217940000Y-167680000D01*
X-217940000Y-167680000D02*
X-217940000Y-134600000D01*
X-215280000Y-167680000D02*
X-215280000Y-134600000D01*
X-215280000Y-134600000D02*
X-217940000Y-134600000D01*
%TO.C,C1*%
X-185040302Y-167565000D02*
X-185040302Y-166765000D01*
X-184640302Y-167165000D02*
X-185440302Y-167165000D01*
X-193131000Y-165383000D02*
X-193131000Y-164317000D01*
X-193091000Y-165618000D02*
X-193091000Y-164082000D01*
X-193051000Y-165798000D02*
X-193051000Y-163902000D01*
X-193011000Y-165948000D02*
X-193011000Y-163752000D01*
X-192971000Y-166079000D02*
X-192971000Y-163621000D01*
X-192931000Y-166196000D02*
X-192931000Y-163504000D01*
X-192891000Y-166303000D02*
X-192891000Y-163397000D01*
X-192851000Y-166402000D02*
X-192851000Y-163298000D01*
X-192811000Y-166495000D02*
X-192811000Y-163205000D01*
X-192771000Y-166581000D02*
X-192771000Y-163119000D01*
X-192731000Y-166663000D02*
X-192731000Y-163037000D01*
X-192691000Y-166740000D02*
X-192691000Y-162960000D01*
X-192651000Y-166814000D02*
X-192651000Y-162886000D01*
X-192611000Y-166884000D02*
X-192611000Y-162816000D01*
X-192571000Y-166952000D02*
X-192571000Y-162748000D01*
X-192531000Y-167016000D02*
X-192531000Y-162684000D01*
X-192491000Y-167078000D02*
X-192491000Y-162622000D01*
X-192451000Y-167137000D02*
X-192451000Y-162563000D01*
X-192411000Y-167195000D02*
X-192411000Y-162505000D01*
X-192371000Y-167250000D02*
X-192371000Y-162450000D01*
X-192331000Y-167304000D02*
X-192331000Y-162396000D01*
X-192291000Y-167355000D02*
X-192291000Y-162345000D01*
X-192251000Y-167406000D02*
X-192251000Y-162294000D01*
X-192211000Y-167454000D02*
X-192211000Y-162246000D01*
X-192171000Y-167501000D02*
X-192171000Y-162199000D01*
X-192131000Y-167547000D02*
X-192131000Y-162153000D01*
X-192091000Y-167591000D02*
X-192091000Y-162109000D01*
X-192051000Y-167634000D02*
X-192051000Y-162066000D01*
X-192011000Y-167676000D02*
X-192011000Y-162024000D01*
X-191971000Y-167717000D02*
X-191971000Y-161983000D01*
X-191931000Y-167757000D02*
X-191931000Y-161943000D01*
X-191891000Y-167795000D02*
X-191891000Y-161905000D01*
X-191851000Y-167833000D02*
X-191851000Y-161867000D01*
X-191811000Y-167869000D02*
X-191811000Y-161831000D01*
X-191771000Y-167905000D02*
X-191771000Y-161795000D01*
X-191731000Y-167940000D02*
X-191731000Y-161760000D01*
X-191691000Y-167974000D02*
X-191691000Y-161726000D01*
X-191651000Y-168006000D02*
X-191651000Y-161694000D01*
X-191611000Y-168039000D02*
X-191611000Y-161661000D01*
X-191571000Y-168070000D02*
X-191571000Y-161630000D01*
X-191531000Y-168100000D02*
X-191531000Y-161600000D01*
X-191491000Y-168130000D02*
X-191491000Y-161570000D01*
X-191451000Y-168159000D02*
X-191451000Y-161541000D01*
X-191411000Y-168188000D02*
X-191411000Y-161512000D01*
X-191371000Y-168215000D02*
X-191371000Y-161485000D01*
X-191331000Y-163810000D02*
X-191331000Y-161458000D01*
X-191331000Y-168242000D02*
X-191331000Y-165890000D01*
X-191291000Y-163810000D02*
X-191291000Y-161432000D01*
X-191291000Y-168268000D02*
X-191291000Y-165890000D01*
X-191251000Y-163810000D02*
X-191251000Y-161406000D01*
X-191251000Y-168294000D02*
X-191251000Y-165890000D01*
X-191211000Y-163810000D02*
X-191211000Y-161381000D01*
X-191211000Y-168319000D02*
X-191211000Y-165890000D01*
X-191171000Y-163810000D02*
X-191171000Y-161357000D01*
X-191171000Y-168343000D02*
X-191171000Y-165890000D01*
X-191131000Y-163810000D02*
X-191131000Y-161333000D01*
X-191131000Y-168367000D02*
X-191131000Y-165890000D01*
X-191091000Y-163810000D02*
X-191091000Y-161310000D01*
X-191091000Y-168390000D02*
X-191091000Y-165890000D01*
X-191051000Y-163810000D02*
X-191051000Y-161288000D01*
X-191051000Y-168412000D02*
X-191051000Y-165890000D01*
X-191011000Y-163810000D02*
X-191011000Y-161266000D01*
X-191011000Y-168434000D02*
X-191011000Y-165890000D01*
X-190971000Y-163810000D02*
X-190971000Y-161244000D01*
X-190971000Y-168456000D02*
X-190971000Y-165890000D01*
X-190931000Y-163810000D02*
X-190931000Y-161223000D01*
X-190931000Y-168477000D02*
X-190931000Y-165890000D01*
X-190891000Y-163810000D02*
X-190891000Y-161203000D01*
X-190891000Y-168497000D02*
X-190891000Y-165890000D01*
X-190851000Y-163810000D02*
X-190851000Y-161184000D01*
X-190851000Y-168516000D02*
X-190851000Y-165890000D01*
X-190811000Y-163810000D02*
X-190811000Y-161164000D01*
X-190811000Y-168536000D02*
X-190811000Y-165890000D01*
X-190771000Y-163810000D02*
X-190771000Y-161146000D01*
X-190771000Y-168554000D02*
X-190771000Y-165890000D01*
X-190731000Y-163810000D02*
X-190731000Y-161128000D01*
X-190731000Y-168572000D02*
X-190731000Y-165890000D01*
X-190691000Y-163810000D02*
X-190691000Y-161110000D01*
X-190691000Y-168590000D02*
X-190691000Y-165890000D01*
X-190651000Y-163810000D02*
X-190651000Y-161093000D01*
X-190651000Y-168607000D02*
X-190651000Y-165890000D01*
X-190611000Y-163810000D02*
X-190611000Y-161076000D01*
X-190611000Y-168624000D02*
X-190611000Y-165890000D01*
X-190571000Y-163810000D02*
X-190571000Y-161060000D01*
X-190571000Y-168640000D02*
X-190571000Y-165890000D01*
X-190531000Y-163810000D02*
X-190531000Y-161045000D01*
X-190531000Y-168655000D02*
X-190531000Y-165890000D01*
X-190491000Y-163810000D02*
X-190491000Y-161029000D01*
X-190491000Y-168671000D02*
X-190491000Y-165890000D01*
X-190451000Y-163810000D02*
X-190451000Y-161015000D01*
X-190451000Y-168685000D02*
X-190451000Y-165890000D01*
X-190411000Y-163810000D02*
X-190411000Y-161000000D01*
X-190411000Y-168700000D02*
X-190411000Y-165890000D01*
X-190371000Y-163810000D02*
X-190371000Y-160987000D01*
X-190371000Y-168713000D02*
X-190371000Y-165890000D01*
X-190331000Y-163810000D02*
X-190331000Y-160973000D01*
X-190331000Y-168727000D02*
X-190331000Y-165890000D01*
X-190291000Y-163810000D02*
X-190291000Y-160961000D01*
X-190291000Y-168739000D02*
X-190291000Y-165890000D01*
X-190251000Y-163810000D02*
X-190251000Y-160948000D01*
X-190251000Y-168752000D02*
X-190251000Y-165890000D01*
X-190211000Y-163810000D02*
X-190211000Y-160936000D01*
X-190211000Y-168764000D02*
X-190211000Y-165890000D01*
X-190171000Y-163810000D02*
X-190171000Y-160925000D01*
X-190171000Y-168775000D02*
X-190171000Y-165890000D01*
X-190131000Y-163810000D02*
X-190131000Y-160914000D01*
X-190131000Y-168786000D02*
X-190131000Y-165890000D01*
X-190091000Y-163810000D02*
X-190091000Y-160903000D01*
X-190091000Y-168797000D02*
X-190091000Y-165890000D01*
X-190051000Y-163810000D02*
X-190051000Y-160893000D01*
X-190051000Y-168807000D02*
X-190051000Y-165890000D01*
X-190011000Y-163810000D02*
X-190011000Y-160883000D01*
X-190011000Y-168817000D02*
X-190011000Y-165890000D01*
X-189971000Y-163810000D02*
X-189971000Y-160874000D01*
X-189971000Y-168826000D02*
X-189971000Y-165890000D01*
X-189931000Y-163810000D02*
X-189931000Y-160865000D01*
X-189931000Y-168835000D02*
X-189931000Y-165890000D01*
X-189891000Y-163810000D02*
X-189891000Y-160856000D01*
X-189891000Y-168844000D02*
X-189891000Y-165890000D01*
X-189851000Y-163810000D02*
X-189851000Y-160848000D01*
X-189851000Y-168852000D02*
X-189851000Y-165890000D01*
X-189811000Y-163810000D02*
X-189811000Y-160840000D01*
X-189811000Y-168860000D02*
X-189811000Y-165890000D01*
X-189771000Y-163810000D02*
X-189771000Y-160833000D01*
X-189771000Y-168867000D02*
X-189771000Y-165890000D01*
X-189730000Y-163810000D02*
X-189730000Y-160826000D01*
X-189730000Y-168874000D02*
X-189730000Y-165890000D01*
X-189690000Y-163810000D02*
X-189690000Y-160820000D01*
X-189690000Y-168880000D02*
X-189690000Y-165890000D01*
X-189650000Y-163810000D02*
X-189650000Y-160813000D01*
X-189650000Y-168887000D02*
X-189650000Y-165890000D01*
X-189610000Y-163810000D02*
X-189610000Y-160808000D01*
X-189610000Y-168892000D02*
X-189610000Y-165890000D01*
X-189570000Y-163810000D02*
X-189570000Y-160802000D01*
X-189570000Y-168898000D02*
X-189570000Y-165890000D01*
X-189530000Y-163810000D02*
X-189530000Y-160798000D01*
X-189530000Y-168902000D02*
X-189530000Y-165890000D01*
X-189490000Y-163810000D02*
X-189490000Y-160793000D01*
X-189490000Y-168907000D02*
X-189490000Y-165890000D01*
X-189450000Y-163810000D02*
X-189450000Y-160789000D01*
X-189450000Y-168911000D02*
X-189450000Y-165890000D01*
X-189410000Y-163810000D02*
X-189410000Y-160785000D01*
X-189410000Y-168915000D02*
X-189410000Y-165890000D01*
X-189370000Y-163810000D02*
X-189370000Y-160782000D01*
X-189370000Y-168918000D02*
X-189370000Y-165890000D01*
X-189330000Y-163810000D02*
X-189330000Y-160779000D01*
X-189330000Y-168921000D02*
X-189330000Y-165890000D01*
X-189290000Y-163810000D02*
X-189290000Y-160776000D01*
X-189290000Y-168924000D02*
X-189290000Y-165890000D01*
X-189250000Y-168926000D02*
X-189250000Y-160774000D01*
X-189210000Y-168927000D02*
X-189210000Y-160773000D01*
X-189170000Y-168929000D02*
X-189170000Y-160771000D01*
X-189130000Y-168930000D02*
X-189130000Y-160770000D01*
X-189090000Y-168930000D02*
X-189090000Y-160770000D01*
X-189050000Y-168930000D02*
X-189050000Y-160770000D01*
X-184930000Y-164850000D02*
G75*
G03*
X-184930000Y-164850000I-4120000J0D01*
G01*
%TO.C,R10*%
D11*
X-206092857Y-139382380D02*
X-206426190Y-138906190D01*
X-206664285Y-139382380D02*
X-206664285Y-138382380D01*
X-206283333Y-138382380D01*
X-206188095Y-138430000D01*
X-206140476Y-138477619D01*
X-206092857Y-138572857D01*
X-206092857Y-138715714D01*
X-206140476Y-138810952D01*
X-206188095Y-138858571D01*
X-206283333Y-138906190D01*
X-206664285Y-138906190D01*
X-205140476Y-139382380D02*
X-205711904Y-139382380D01*
X-205426190Y-139382380D02*
X-205426190Y-138382380D01*
X-205521428Y-138525238D01*
X-205616666Y-138620476D01*
X-205711904Y-138668095D01*
X-204521428Y-138382380D02*
X-204426190Y-138382380D01*
X-204330952Y-138430000D01*
X-204283333Y-138477619D01*
X-204235714Y-138572857D01*
X-204188095Y-138763333D01*
X-204188095Y-139001428D01*
X-204235714Y-139191904D01*
X-204283333Y-139287142D01*
X-204330952Y-139334761D01*
X-204426190Y-139382380D01*
X-204521428Y-139382380D01*
X-204616666Y-139334761D01*
X-204664285Y-139287142D01*
X-204711904Y-139191904D01*
X-204759523Y-139001428D01*
X-204759523Y-138763333D01*
X-204711904Y-138572857D01*
X-204664285Y-138477619D01*
X-204616666Y-138430000D01*
X-204521428Y-138382380D01*
%TO.C,R9*%
X-206276666Y-134142380D02*
X-206610000Y-133666190D01*
X-206848095Y-134142380D02*
X-206848095Y-133142380D01*
X-206467142Y-133142380D01*
X-206371904Y-133190000D01*
X-206324285Y-133237619D01*
X-206276666Y-133332857D01*
X-206276666Y-133475714D01*
X-206324285Y-133570952D01*
X-206371904Y-133618571D01*
X-206467142Y-133666190D01*
X-206848095Y-133666190D01*
X-205800476Y-134142380D02*
X-205610000Y-134142380D01*
X-205514761Y-134094761D01*
X-205467142Y-134047142D01*
X-205371904Y-133904285D01*
X-205324285Y-133713809D01*
X-205324285Y-133332857D01*
X-205371904Y-133237619D01*
X-205419523Y-133190000D01*
X-205514761Y-133142380D01*
X-205705238Y-133142380D01*
X-205800476Y-133190000D01*
X-205848095Y-133237619D01*
X-205895714Y-133332857D01*
X-205895714Y-133570952D01*
X-205848095Y-133666190D01*
X-205800476Y-133713809D01*
X-205705238Y-133761428D01*
X-205514761Y-133761428D01*
X-205419523Y-133713809D01*
X-205371904Y-133666190D01*
X-205324285Y-133570952D01*
%TO.C,R8*%
X-206136666Y-129992380D02*
X-206470000Y-129516190D01*
X-206708095Y-129992380D02*
X-206708095Y-128992380D01*
X-206327142Y-128992380D01*
X-206231904Y-129040000D01*
X-206184285Y-129087619D01*
X-206136666Y-129182857D01*
X-206136666Y-129325714D01*
X-206184285Y-129420952D01*
X-206231904Y-129468571D01*
X-206327142Y-129516190D01*
X-206708095Y-129516190D01*
X-205565238Y-129420952D02*
X-205660476Y-129373333D01*
X-205708095Y-129325714D01*
X-205755714Y-129230476D01*
X-205755714Y-129182857D01*
X-205708095Y-129087619D01*
X-205660476Y-129040000D01*
X-205565238Y-128992380D01*
X-205374761Y-128992380D01*
X-205279523Y-129040000D01*
X-205231904Y-129087619D01*
X-205184285Y-129182857D01*
X-205184285Y-129230476D01*
X-205231904Y-129325714D01*
X-205279523Y-129373333D01*
X-205374761Y-129420952D01*
X-205565238Y-129420952D01*
X-205660476Y-129468571D01*
X-205708095Y-129516190D01*
X-205755714Y-129611428D01*
X-205755714Y-129801904D01*
X-205708095Y-129897142D01*
X-205660476Y-129944761D01*
X-205565238Y-129992380D01*
X-205374761Y-129992380D01*
X-205279523Y-129944761D01*
X-205231904Y-129897142D01*
X-205184285Y-129801904D01*
X-205184285Y-129611428D01*
X-205231904Y-129516190D01*
X-205279523Y-129468571D01*
X-205374761Y-129420952D01*
%TO.C,R7*%
X-206414666Y-125854380D02*
X-206748000Y-125378190D01*
X-206986095Y-125854380D02*
X-206986095Y-124854380D01*
X-206605142Y-124854380D01*
X-206509904Y-124902000D01*
X-206462285Y-124949619D01*
X-206414666Y-125044857D01*
X-206414666Y-125187714D01*
X-206462285Y-125282952D01*
X-206509904Y-125330571D01*
X-206605142Y-125378190D01*
X-206986095Y-125378190D01*
X-206081333Y-124854380D02*
X-205414666Y-124854380D01*
X-205843238Y-125854380D01*
%TO.C,R6*%
X-206414666Y-122044380D02*
X-206748000Y-121568190D01*
X-206986095Y-122044380D02*
X-206986095Y-121044380D01*
X-206605142Y-121044380D01*
X-206509904Y-121092000D01*
X-206462285Y-121139619D01*
X-206414666Y-121234857D01*
X-206414666Y-121377714D01*
X-206462285Y-121472952D01*
X-206509904Y-121520571D01*
X-206605142Y-121568190D01*
X-206986095Y-121568190D01*
X-205557523Y-121044380D02*
X-205748000Y-121044380D01*
X-205843238Y-121092000D01*
X-205890857Y-121139619D01*
X-205986095Y-121282476D01*
X-206033714Y-121472952D01*
X-206033714Y-121853904D01*
X-205986095Y-121949142D01*
X-205938476Y-121996761D01*
X-205843238Y-122044380D01*
X-205652761Y-122044380D01*
X-205557523Y-121996761D01*
X-205509904Y-121949142D01*
X-205462285Y-121853904D01*
X-205462285Y-121615809D01*
X-205509904Y-121520571D01*
X-205557523Y-121472952D01*
X-205652761Y-121425333D01*
X-205843238Y-121425333D01*
X-205938476Y-121472952D01*
X-205986095Y-121520571D01*
X-206033714Y-121615809D01*
%TO.C,R5*%
X-199810666Y-118234380D02*
X-200144000Y-117758190D01*
X-200382095Y-118234380D02*
X-200382095Y-117234380D01*
X-200001142Y-117234380D01*
X-199905904Y-117282000D01*
X-199858285Y-117329619D01*
X-199810666Y-117424857D01*
X-199810666Y-117567714D01*
X-199858285Y-117662952D01*
X-199905904Y-117710571D01*
X-200001142Y-117758190D01*
X-200382095Y-117758190D01*
X-198905904Y-117234380D02*
X-199382095Y-117234380D01*
X-199429714Y-117710571D01*
X-199382095Y-117662952D01*
X-199286857Y-117615333D01*
X-199048761Y-117615333D01*
X-198953523Y-117662952D01*
X-198905904Y-117710571D01*
X-198858285Y-117805809D01*
X-198858285Y-118043904D01*
X-198905904Y-118139142D01*
X-198953523Y-118186761D01*
X-199048761Y-118234380D01*
X-199286857Y-118234380D01*
X-199382095Y-118186761D01*
X-199429714Y-118139142D01*
%TO.C,U10*%
X-297428095Y-222122380D02*
X-297428095Y-222931904D01*
X-297380476Y-223027142D01*
X-297332857Y-223074761D01*
X-297237619Y-223122380D01*
X-297047142Y-223122380D01*
X-296951904Y-223074761D01*
X-296904285Y-223027142D01*
X-296856666Y-222931904D01*
X-296856666Y-222122380D01*
X-295856666Y-223122380D02*
X-296428095Y-223122380D01*
X-296142380Y-223122380D02*
X-296142380Y-222122380D01*
X-296237619Y-222265238D01*
X-296332857Y-222360476D01*
X-296428095Y-222408095D01*
X-295237619Y-222122380D02*
X-295142380Y-222122380D01*
X-295047142Y-222170000D01*
X-294999523Y-222217619D01*
X-294951904Y-222312857D01*
X-294904285Y-222503333D01*
X-294904285Y-222741428D01*
X-294951904Y-222931904D01*
X-294999523Y-223027142D01*
X-295047142Y-223074761D01*
X-295142380Y-223122380D01*
X-295237619Y-223122380D01*
X-295332857Y-223074761D01*
X-295380476Y-223027142D01*
X-295428095Y-222931904D01*
X-295475714Y-222741428D01*
X-295475714Y-222503333D01*
X-295428095Y-222312857D01*
X-295380476Y-222217619D01*
X-295332857Y-222170000D01*
X-295237619Y-222122380D01*
%TO.C,U22*%
X-191918095Y-116672380D02*
X-191918095Y-117481904D01*
X-191870476Y-117577142D01*
X-191822857Y-117624761D01*
X-191727619Y-117672380D01*
X-191537142Y-117672380D01*
X-191441904Y-117624761D01*
X-191394285Y-117577142D01*
X-191346666Y-117481904D01*
X-191346666Y-116672380D01*
X-190918095Y-116767619D02*
X-190870476Y-116720000D01*
X-190775238Y-116672380D01*
X-190537142Y-116672380D01*
X-190441904Y-116720000D01*
X-190394285Y-116767619D01*
X-190346666Y-116862857D01*
X-190346666Y-116958095D01*
X-190394285Y-117100952D01*
X-190965714Y-117672380D01*
X-190346666Y-117672380D01*
X-189965714Y-116767619D02*
X-189918095Y-116720000D01*
X-189822857Y-116672380D01*
X-189584761Y-116672380D01*
X-189489523Y-116720000D01*
X-189441904Y-116767619D01*
X-189394285Y-116862857D01*
X-189394285Y-116958095D01*
X-189441904Y-117100952D01*
X-190013333Y-117672380D01*
X-189394285Y-117672380D01*
%TO.C,U21*%
X-256338095Y-234422380D02*
X-256338095Y-235231904D01*
X-256290476Y-235327142D01*
X-256242857Y-235374761D01*
X-256147619Y-235422380D01*
X-255957142Y-235422380D01*
X-255861904Y-235374761D01*
X-255814285Y-235327142D01*
X-255766666Y-235231904D01*
X-255766666Y-234422380D01*
X-255338095Y-234517619D02*
X-255290476Y-234470000D01*
X-255195238Y-234422380D01*
X-254957142Y-234422380D01*
X-254861904Y-234470000D01*
X-254814285Y-234517619D01*
X-254766666Y-234612857D01*
X-254766666Y-234708095D01*
X-254814285Y-234850952D01*
X-255385714Y-235422380D01*
X-254766666Y-235422380D01*
X-253814285Y-235422380D02*
X-254385714Y-235422380D01*
X-254100000Y-235422380D02*
X-254100000Y-234422380D01*
X-254195238Y-234565238D01*
X-254290476Y-234660476D01*
X-254385714Y-234708095D01*
%TO.C,U20*%
X-272428095Y-222122380D02*
X-272428095Y-222931904D01*
X-272380476Y-223027142D01*
X-272332857Y-223074761D01*
X-272237619Y-223122380D01*
X-272047142Y-223122380D01*
X-271951904Y-223074761D01*
X-271904285Y-223027142D01*
X-271856666Y-222931904D01*
X-271856666Y-222122380D01*
X-271428095Y-222217619D02*
X-271380476Y-222170000D01*
X-271285238Y-222122380D01*
X-271047142Y-222122380D01*
X-270951904Y-222170000D01*
X-270904285Y-222217619D01*
X-270856666Y-222312857D01*
X-270856666Y-222408095D01*
X-270904285Y-222550952D01*
X-271475714Y-223122380D01*
X-270856666Y-223122380D01*
X-270237619Y-222122380D02*
X-270142380Y-222122380D01*
X-270047142Y-222170000D01*
X-269999523Y-222217619D01*
X-269951904Y-222312857D01*
X-269904285Y-222503333D01*
X-269904285Y-222741428D01*
X-269951904Y-222931904D01*
X-269999523Y-223027142D01*
X-270047142Y-223074761D01*
X-270142380Y-223122380D01*
X-270237619Y-223122380D01*
X-270332857Y-223074761D01*
X-270380476Y-223027142D01*
X-270428095Y-222931904D01*
X-270475714Y-222741428D01*
X-270475714Y-222503333D01*
X-270428095Y-222312857D01*
X-270380476Y-222217619D01*
X-270332857Y-222170000D01*
X-270237619Y-222122380D01*
%TO.C,U17*%
X-272428095Y-207122380D02*
X-272428095Y-207931904D01*
X-272380476Y-208027142D01*
X-272332857Y-208074761D01*
X-272237619Y-208122380D01*
X-272047142Y-208122380D01*
X-271951904Y-208074761D01*
X-271904285Y-208027142D01*
X-271856666Y-207931904D01*
X-271856666Y-207122380D01*
X-270856666Y-208122380D02*
X-271428095Y-208122380D01*
X-271142380Y-208122380D02*
X-271142380Y-207122380D01*
X-271237619Y-207265238D01*
X-271332857Y-207360476D01*
X-271428095Y-207408095D01*
X-270523333Y-207122380D02*
X-269856666Y-207122380D01*
X-270285238Y-208122380D01*
%TO.C,U16*%
X-272428095Y-192122380D02*
X-272428095Y-192931904D01*
X-272380476Y-193027142D01*
X-272332857Y-193074761D01*
X-272237619Y-193122380D01*
X-272047142Y-193122380D01*
X-271951904Y-193074761D01*
X-271904285Y-193027142D01*
X-271856666Y-192931904D01*
X-271856666Y-192122380D01*
X-270856666Y-193122380D02*
X-271428095Y-193122380D01*
X-271142380Y-193122380D02*
X-271142380Y-192122380D01*
X-271237619Y-192265238D01*
X-271332857Y-192360476D01*
X-271428095Y-192408095D01*
X-269999523Y-192122380D02*
X-270190000Y-192122380D01*
X-270285238Y-192170000D01*
X-270332857Y-192217619D01*
X-270428095Y-192360476D01*
X-270475714Y-192550952D01*
X-270475714Y-192931904D01*
X-270428095Y-193027142D01*
X-270380476Y-193074761D01*
X-270285238Y-193122380D01*
X-270094761Y-193122380D01*
X-269999523Y-193074761D01*
X-269951904Y-193027142D01*
X-269904285Y-192931904D01*
X-269904285Y-192693809D01*
X-269951904Y-192598571D01*
X-269999523Y-192550952D01*
X-270094761Y-192503333D01*
X-270285238Y-192503333D01*
X-270380476Y-192550952D01*
X-270428095Y-192598571D01*
X-270475714Y-192693809D01*
%TO.C,U15*%
X-272428095Y-177122380D02*
X-272428095Y-177931904D01*
X-272380476Y-178027142D01*
X-272332857Y-178074761D01*
X-272237619Y-178122380D01*
X-272047142Y-178122380D01*
X-271951904Y-178074761D01*
X-271904285Y-178027142D01*
X-271856666Y-177931904D01*
X-271856666Y-177122380D01*
X-270856666Y-178122380D02*
X-271428095Y-178122380D01*
X-271142380Y-178122380D02*
X-271142380Y-177122380D01*
X-271237619Y-177265238D01*
X-271332857Y-177360476D01*
X-271428095Y-177408095D01*
X-269951904Y-177122380D02*
X-270428095Y-177122380D01*
X-270475714Y-177598571D01*
X-270428095Y-177550952D01*
X-270332857Y-177503333D01*
X-270094761Y-177503333D01*
X-269999523Y-177550952D01*
X-269951904Y-177598571D01*
X-269904285Y-177693809D01*
X-269904285Y-177931904D01*
X-269951904Y-178027142D01*
X-269999523Y-178074761D01*
X-270094761Y-178122380D01*
X-270332857Y-178122380D01*
X-270428095Y-178074761D01*
X-270475714Y-178027142D01*
%TO.C,U14*%
X-272428095Y-162122380D02*
X-272428095Y-162931904D01*
X-272380476Y-163027142D01*
X-272332857Y-163074761D01*
X-272237619Y-163122380D01*
X-272047142Y-163122380D01*
X-271951904Y-163074761D01*
X-271904285Y-163027142D01*
X-271856666Y-162931904D01*
X-271856666Y-162122380D01*
X-270856666Y-163122380D02*
X-271428095Y-163122380D01*
X-271142380Y-163122380D02*
X-271142380Y-162122380D01*
X-271237619Y-162265238D01*
X-271332857Y-162360476D01*
X-271428095Y-162408095D01*
X-269999523Y-162455714D02*
X-269999523Y-163122380D01*
X-270237619Y-162074761D02*
X-270475714Y-162789047D01*
X-269856666Y-162789047D01*
%TO.C,U13*%
X-272428095Y-147122380D02*
X-272428095Y-147931904D01*
X-272380476Y-148027142D01*
X-272332857Y-148074761D01*
X-272237619Y-148122380D01*
X-272047142Y-148122380D01*
X-271951904Y-148074761D01*
X-271904285Y-148027142D01*
X-271856666Y-147931904D01*
X-271856666Y-147122380D01*
X-270856666Y-148122380D02*
X-271428095Y-148122380D01*
X-271142380Y-148122380D02*
X-271142380Y-147122380D01*
X-271237619Y-147265238D01*
X-271332857Y-147360476D01*
X-271428095Y-147408095D01*
X-270523333Y-147122380D02*
X-269904285Y-147122380D01*
X-270237619Y-147503333D01*
X-270094761Y-147503333D01*
X-269999523Y-147550952D01*
X-269951904Y-147598571D01*
X-269904285Y-147693809D01*
X-269904285Y-147931904D01*
X-269951904Y-148027142D01*
X-269999523Y-148074761D01*
X-270094761Y-148122380D01*
X-270380476Y-148122380D01*
X-270475714Y-148074761D01*
X-270523333Y-148027142D01*
%TO.C,U12*%
X-272428095Y-132122380D02*
X-272428095Y-132931904D01*
X-272380476Y-133027142D01*
X-272332857Y-133074761D01*
X-272237619Y-133122380D01*
X-272047142Y-133122380D01*
X-271951904Y-133074761D01*
X-271904285Y-133027142D01*
X-271856666Y-132931904D01*
X-271856666Y-132122380D01*
X-270856666Y-133122380D02*
X-271428095Y-133122380D01*
X-271142380Y-133122380D02*
X-271142380Y-132122380D01*
X-271237619Y-132265238D01*
X-271332857Y-132360476D01*
X-271428095Y-132408095D01*
X-270475714Y-132217619D02*
X-270428095Y-132170000D01*
X-270332857Y-132122380D01*
X-270094761Y-132122380D01*
X-269999523Y-132170000D01*
X-269951904Y-132217619D01*
X-269904285Y-132312857D01*
X-269904285Y-132408095D01*
X-269951904Y-132550952D01*
X-270523333Y-133122380D01*
X-269904285Y-133122380D01*
%TO.C,U11*%
X-272428095Y-117122380D02*
X-272428095Y-117931904D01*
X-272380476Y-118027142D01*
X-272332857Y-118074761D01*
X-272237619Y-118122380D01*
X-272047142Y-118122380D01*
X-271951904Y-118074761D01*
X-271904285Y-118027142D01*
X-271856666Y-117931904D01*
X-271856666Y-117122380D01*
X-270856666Y-118122380D02*
X-271428095Y-118122380D01*
X-271142380Y-118122380D02*
X-271142380Y-117122380D01*
X-271237619Y-117265238D01*
X-271332857Y-117360476D01*
X-271428095Y-117408095D01*
X-269904285Y-118122380D02*
X-270475714Y-118122380D01*
X-270190000Y-118122380D02*
X-270190000Y-117122380D01*
X-270285238Y-117265238D01*
X-270380476Y-117360476D01*
X-270475714Y-117408095D01*
%TO.C,U7*%
X-296951904Y-207122380D02*
X-296951904Y-207931904D01*
X-296904285Y-208027142D01*
X-296856666Y-208074761D01*
X-296761428Y-208122380D01*
X-296570952Y-208122380D01*
X-296475714Y-208074761D01*
X-296428095Y-208027142D01*
X-296380476Y-207931904D01*
X-296380476Y-207122380D01*
X-295999523Y-207122380D02*
X-295332857Y-207122380D01*
X-295761428Y-208122380D01*
%TO.C,U6*%
X-296951904Y-192122380D02*
X-296951904Y-192931904D01*
X-296904285Y-193027142D01*
X-296856666Y-193074761D01*
X-296761428Y-193122380D01*
X-296570952Y-193122380D01*
X-296475714Y-193074761D01*
X-296428095Y-193027142D01*
X-296380476Y-192931904D01*
X-296380476Y-192122380D01*
X-295475714Y-192122380D02*
X-295666190Y-192122380D01*
X-295761428Y-192170000D01*
X-295809047Y-192217619D01*
X-295904285Y-192360476D01*
X-295951904Y-192550952D01*
X-295951904Y-192931904D01*
X-295904285Y-193027142D01*
X-295856666Y-193074761D01*
X-295761428Y-193122380D01*
X-295570952Y-193122380D01*
X-295475714Y-193074761D01*
X-295428095Y-193027142D01*
X-295380476Y-192931904D01*
X-295380476Y-192693809D01*
X-295428095Y-192598571D01*
X-295475714Y-192550952D01*
X-295570952Y-192503333D01*
X-295761428Y-192503333D01*
X-295856666Y-192550952D01*
X-295904285Y-192598571D01*
X-295951904Y-192693809D01*
%TO.C,U5*%
X-296951904Y-177122380D02*
X-296951904Y-177931904D01*
X-296904285Y-178027142D01*
X-296856666Y-178074761D01*
X-296761428Y-178122380D01*
X-296570952Y-178122380D01*
X-296475714Y-178074761D01*
X-296428095Y-178027142D01*
X-296380476Y-177931904D01*
X-296380476Y-177122380D01*
X-295428095Y-177122380D02*
X-295904285Y-177122380D01*
X-295951904Y-177598571D01*
X-295904285Y-177550952D01*
X-295809047Y-177503333D01*
X-295570952Y-177503333D01*
X-295475714Y-177550952D01*
X-295428095Y-177598571D01*
X-295380476Y-177693809D01*
X-295380476Y-177931904D01*
X-295428095Y-178027142D01*
X-295475714Y-178074761D01*
X-295570952Y-178122380D01*
X-295809047Y-178122380D01*
X-295904285Y-178074761D01*
X-295951904Y-178027142D01*
%TO.C,U4*%
X-296951904Y-162122380D02*
X-296951904Y-162931904D01*
X-296904285Y-163027142D01*
X-296856666Y-163074761D01*
X-296761428Y-163122380D01*
X-296570952Y-163122380D01*
X-296475714Y-163074761D01*
X-296428095Y-163027142D01*
X-296380476Y-162931904D01*
X-296380476Y-162122380D01*
X-295475714Y-162455714D02*
X-295475714Y-163122380D01*
X-295713809Y-162074761D02*
X-295951904Y-162789047D01*
X-295332857Y-162789047D01*
%TO.C,U3*%
X-296951904Y-147122380D02*
X-296951904Y-147931904D01*
X-296904285Y-148027142D01*
X-296856666Y-148074761D01*
X-296761428Y-148122380D01*
X-296570952Y-148122380D01*
X-296475714Y-148074761D01*
X-296428095Y-148027142D01*
X-296380476Y-147931904D01*
X-296380476Y-147122380D01*
X-295999523Y-147122380D02*
X-295380476Y-147122380D01*
X-295713809Y-147503333D01*
X-295570952Y-147503333D01*
X-295475714Y-147550952D01*
X-295428095Y-147598571D01*
X-295380476Y-147693809D01*
X-295380476Y-147931904D01*
X-295428095Y-148027142D01*
X-295475714Y-148074761D01*
X-295570952Y-148122380D01*
X-295856666Y-148122380D01*
X-295951904Y-148074761D01*
X-295999523Y-148027142D01*
%TO.C,U2*%
X-296951904Y-132122380D02*
X-296951904Y-132931904D01*
X-296904285Y-133027142D01*
X-296856666Y-133074761D01*
X-296761428Y-133122380D01*
X-296570952Y-133122380D01*
X-296475714Y-133074761D01*
X-296428095Y-133027142D01*
X-296380476Y-132931904D01*
X-296380476Y-132122380D01*
X-295951904Y-132217619D02*
X-295904285Y-132170000D01*
X-295809047Y-132122380D01*
X-295570952Y-132122380D01*
X-295475714Y-132170000D01*
X-295428095Y-132217619D01*
X-295380476Y-132312857D01*
X-295380476Y-132408095D01*
X-295428095Y-132550952D01*
X-295999523Y-133122380D01*
X-295380476Y-133122380D01*
%TO.C,U1*%
X-296951904Y-117122380D02*
X-296951904Y-117931904D01*
X-296904285Y-118027142D01*
X-296856666Y-118074761D01*
X-296761428Y-118122380D01*
X-296570952Y-118122380D01*
X-296475714Y-118074761D01*
X-296428095Y-118027142D01*
X-296380476Y-117931904D01*
X-296380476Y-117122380D01*
X-295380476Y-118122380D02*
X-295951904Y-118122380D01*
X-295666190Y-118122380D02*
X-295666190Y-117122380D01*
X-295761428Y-117265238D01*
X-295856666Y-117360476D01*
X-295951904Y-117408095D01*
%TO.C,TP1*%
X-196001904Y-155884380D02*
X-195430476Y-155884380D01*
X-195716190Y-156884380D02*
X-195716190Y-155884380D01*
X-195097142Y-156884380D02*
X-195097142Y-155884380D01*
X-194716190Y-155884380D01*
X-194620952Y-155932000D01*
X-194573333Y-155979619D01*
X-194525714Y-156074857D01*
X-194525714Y-156217714D01*
X-194573333Y-156312952D01*
X-194620952Y-156360571D01*
X-194716190Y-156408190D01*
X-195097142Y-156408190D01*
X-193573333Y-156884380D02*
X-194144761Y-156884380D01*
X-193859047Y-156884380D02*
X-193859047Y-155884380D01*
X-193954285Y-156027238D01*
X-194049523Y-156122476D01*
X-194144761Y-156170095D01*
%TO.C,R4*%
X-168785619Y-140628666D02*
X-169261809Y-140962000D01*
X-168785619Y-141200095D02*
X-169785619Y-141200095D01*
X-169785619Y-140819142D01*
X-169738000Y-140723904D01*
X-169690380Y-140676285D01*
X-169595142Y-140628666D01*
X-169452285Y-140628666D01*
X-169357047Y-140676285D01*
X-169309428Y-140723904D01*
X-169261809Y-140819142D01*
X-169261809Y-141200095D01*
X-169452285Y-139771523D02*
X-168785619Y-139771523D01*
X-169833238Y-140009619D02*
X-169118952Y-140247714D01*
X-169118952Y-139628666D01*
%TO.C,R3*%
X-174766666Y-162622380D02*
X-175100000Y-162146190D01*
X-175338095Y-162622380D02*
X-175338095Y-161622380D01*
X-174957142Y-161622380D01*
X-174861904Y-161670000D01*
X-174814285Y-161717619D01*
X-174766666Y-161812857D01*
X-174766666Y-161955714D01*
X-174814285Y-162050952D01*
X-174861904Y-162098571D01*
X-174957142Y-162146190D01*
X-175338095Y-162146190D01*
X-174433333Y-161622380D02*
X-173814285Y-161622380D01*
X-174147619Y-162003333D01*
X-174004761Y-162003333D01*
X-173909523Y-162050952D01*
X-173861904Y-162098571D01*
X-173814285Y-162193809D01*
X-173814285Y-162431904D01*
X-173861904Y-162527142D01*
X-173909523Y-162574761D01*
X-174004761Y-162622380D01*
X-174290476Y-162622380D01*
X-174385714Y-162574761D01*
X-174433333Y-162527142D01*
%TO.C,R2*%
X-155287619Y-149416666D02*
X-155763809Y-149750000D01*
X-155287619Y-149988095D02*
X-156287619Y-149988095D01*
X-156287619Y-149607142D01*
X-156240000Y-149511904D01*
X-156192380Y-149464285D01*
X-156097142Y-149416666D01*
X-155954285Y-149416666D01*
X-155859047Y-149464285D01*
X-155811428Y-149511904D01*
X-155763809Y-149607142D01*
X-155763809Y-149988095D01*
X-156192380Y-149035714D02*
X-156240000Y-148988095D01*
X-156287619Y-148892857D01*
X-156287619Y-148654761D01*
X-156240000Y-148559523D01*
X-156192380Y-148511904D01*
X-156097142Y-148464285D01*
X-156001904Y-148464285D01*
X-155859047Y-148511904D01*
X-155287619Y-149083333D01*
X-155287619Y-148464285D01*
%TO.C,R1*%
X-160587619Y-128516666D02*
X-161063809Y-128850000D01*
X-160587619Y-129088095D02*
X-161587619Y-129088095D01*
X-161587619Y-128707142D01*
X-161540000Y-128611904D01*
X-161492380Y-128564285D01*
X-161397142Y-128516666D01*
X-161254285Y-128516666D01*
X-161159047Y-128564285D01*
X-161111428Y-128611904D01*
X-161063809Y-128707142D01*
X-161063809Y-129088095D01*
X-160587619Y-127564285D02*
X-160587619Y-128135714D01*
X-160587619Y-127850000D02*
X-161587619Y-127850000D01*
X-161444761Y-127945238D01*
X-161349523Y-128040476D01*
X-161301904Y-128135714D01*
%TO.C,JP5*%
X-200923333Y-161962380D02*
X-200923333Y-162676666D01*
X-200970952Y-162819523D01*
X-201066190Y-162914761D01*
X-201209047Y-162962380D01*
X-201304285Y-162962380D01*
X-200447142Y-162962380D02*
X-200447142Y-161962380D01*
X-200066190Y-161962380D01*
X-199970952Y-162010000D01*
X-199923333Y-162057619D01*
X-199875714Y-162152857D01*
X-199875714Y-162295714D01*
X-199923333Y-162390952D01*
X-199970952Y-162438571D01*
X-200066190Y-162486190D01*
X-200447142Y-162486190D01*
X-198970952Y-161962380D02*
X-199447142Y-161962380D01*
X-199494761Y-162438571D01*
X-199447142Y-162390952D01*
X-199351904Y-162343333D01*
X-199113809Y-162343333D01*
X-199018571Y-162390952D01*
X-198970952Y-162438571D01*
X-198923333Y-162533809D01*
X-198923333Y-162771904D01*
X-198970952Y-162867142D01*
X-199018571Y-162914761D01*
X-199113809Y-162962380D01*
X-199351904Y-162962380D01*
X-199447142Y-162914761D01*
X-199494761Y-162867142D01*
X-202404285Y-164762380D02*
X-202975714Y-164762380D01*
X-202690000Y-164762380D02*
X-202690000Y-163762380D01*
X-202785238Y-163905238D01*
X-202880476Y-164000476D01*
X-202975714Y-164048095D01*
X-197823333Y-163762380D02*
X-197204285Y-163762380D01*
X-197537619Y-164143333D01*
X-197394761Y-164143333D01*
X-197299523Y-164190952D01*
X-197251904Y-164238571D01*
X-197204285Y-164333809D01*
X-197204285Y-164571904D01*
X-197251904Y-164667142D01*
X-197299523Y-164714761D01*
X-197394761Y-164762380D01*
X-197680476Y-164762380D01*
X-197775714Y-164714761D01*
X-197823333Y-164667142D01*
%TO.C,JP4*%
X-249499333Y-166098380D02*
X-249499333Y-166812666D01*
X-249546952Y-166955523D01*
X-249642190Y-167050761D01*
X-249785047Y-167098380D01*
X-249880285Y-167098380D01*
X-249023142Y-167098380D02*
X-249023142Y-166098380D01*
X-248642190Y-166098380D01*
X-248546952Y-166146000D01*
X-248499333Y-166193619D01*
X-248451714Y-166288857D01*
X-248451714Y-166431714D01*
X-248499333Y-166526952D01*
X-248546952Y-166574571D01*
X-248642190Y-166622190D01*
X-249023142Y-166622190D01*
X-247594571Y-166431714D02*
X-247594571Y-167098380D01*
X-247832666Y-166050761D02*
X-248070761Y-166765047D01*
X-247451714Y-166765047D01*
X-245780285Y-165298380D02*
X-246351714Y-165298380D01*
X-246066000Y-165298380D02*
X-246066000Y-164298380D01*
X-246161238Y-164441238D01*
X-246256476Y-164536476D01*
X-246351714Y-164584095D01*
X-251599333Y-164298380D02*
X-250980285Y-164298380D01*
X-251313619Y-164679333D01*
X-251170761Y-164679333D01*
X-251075523Y-164726952D01*
X-251027904Y-164774571D01*
X-250980285Y-164869809D01*
X-250980285Y-165107904D01*
X-251027904Y-165203142D01*
X-251075523Y-165250761D01*
X-251170761Y-165298380D01*
X-251456476Y-165298380D01*
X-251551714Y-165250761D01*
X-251599333Y-165203142D01*
%TO.C,JP3*%
X-240639333Y-162752380D02*
X-240639333Y-163466666D01*
X-240686952Y-163609523D01*
X-240782190Y-163704761D01*
X-240925047Y-163752380D01*
X-241020285Y-163752380D01*
X-240163142Y-163752380D02*
X-240163142Y-162752380D01*
X-239782190Y-162752380D01*
X-239686952Y-162800000D01*
X-239639333Y-162847619D01*
X-239591714Y-162942857D01*
X-239591714Y-163085714D01*
X-239639333Y-163180952D01*
X-239686952Y-163228571D01*
X-239782190Y-163276190D01*
X-240163142Y-163276190D01*
X-239258380Y-162752380D02*
X-238639333Y-162752380D01*
X-238972666Y-163133333D01*
X-238829809Y-163133333D01*
X-238734571Y-163180952D01*
X-238686952Y-163228571D01*
X-238639333Y-163323809D01*
X-238639333Y-163561904D01*
X-238686952Y-163657142D01*
X-238734571Y-163704761D01*
X-238829809Y-163752380D01*
X-239115523Y-163752380D01*
X-239210761Y-163704761D01*
X-239258380Y-163657142D01*
X-242120285Y-165552380D02*
X-242691714Y-165552380D01*
X-242406000Y-165552380D02*
X-242406000Y-164552380D01*
X-242501238Y-164695238D01*
X-242596476Y-164790476D01*
X-242691714Y-164838095D01*
X-237539333Y-164552380D02*
X-236920285Y-164552380D01*
X-237253619Y-164933333D01*
X-237110761Y-164933333D01*
X-237015523Y-164980952D01*
X-236967904Y-165028571D01*
X-236920285Y-165123809D01*
X-236920285Y-165361904D01*
X-236967904Y-165457142D01*
X-237015523Y-165504761D01*
X-237110761Y-165552380D01*
X-237396476Y-165552380D01*
X-237491714Y-165504761D01*
X-237539333Y-165457142D01*
%TO.C,JP2*%
X-177657619Y-153323333D02*
X-176943333Y-153323333D01*
X-176800476Y-153370952D01*
X-176705238Y-153466190D01*
X-176657619Y-153609047D01*
X-176657619Y-153704285D01*
X-176657619Y-152847142D02*
X-177657619Y-152847142D01*
X-177657619Y-152466190D01*
X-177610000Y-152370952D01*
X-177562380Y-152323333D01*
X-177467142Y-152275714D01*
X-177324285Y-152275714D01*
X-177229047Y-152323333D01*
X-177181428Y-152370952D01*
X-177133809Y-152466190D01*
X-177133809Y-152847142D01*
X-177562380Y-151894761D02*
X-177610000Y-151847142D01*
X-177657619Y-151751904D01*
X-177657619Y-151513809D01*
X-177610000Y-151418571D01*
X-177562380Y-151370952D01*
X-177467142Y-151323333D01*
X-177371904Y-151323333D01*
X-177229047Y-151370952D01*
X-176657619Y-151942380D01*
X-176657619Y-151323333D01*
X-178457619Y-149604285D02*
X-178457619Y-150175714D01*
X-178457619Y-149890000D02*
X-179457619Y-149890000D01*
X-179314761Y-149985238D01*
X-179219523Y-150080476D01*
X-179171904Y-150175714D01*
X-179457619Y-155423333D02*
X-179457619Y-154804285D01*
X-179076666Y-155137619D01*
X-179076666Y-154994761D01*
X-179029047Y-154899523D01*
X-178981428Y-154851904D01*
X-178886190Y-154804285D01*
X-178648095Y-154804285D01*
X-178552857Y-154851904D01*
X-178505238Y-154899523D01*
X-178457619Y-154994761D01*
X-178457619Y-155280476D01*
X-178505238Y-155375714D01*
X-178552857Y-155423333D01*
%TO.C,JP1*%
X-205713333Y-147012380D02*
X-205713333Y-147726666D01*
X-205760952Y-147869523D01*
X-205856190Y-147964761D01*
X-205999047Y-148012380D01*
X-206094285Y-148012380D01*
X-205237142Y-148012380D02*
X-205237142Y-147012380D01*
X-204856190Y-147012380D01*
X-204760952Y-147060000D01*
X-204713333Y-147107619D01*
X-204665714Y-147202857D01*
X-204665714Y-147345714D01*
X-204713333Y-147440952D01*
X-204760952Y-147488571D01*
X-204856190Y-147536190D01*
X-205237142Y-147536190D01*
X-203713333Y-148012380D02*
X-204284761Y-148012380D01*
X-203999047Y-148012380D02*
X-203999047Y-147012380D01*
X-204094285Y-147155238D01*
X-204189523Y-147250476D01*
X-204284761Y-147298095D01*
%TO.C,J3*%
X-276947619Y-109213333D02*
X-276233333Y-109213333D01*
X-276090476Y-109260952D01*
X-275995238Y-109356190D01*
X-275947619Y-109499047D01*
X-275947619Y-109594285D01*
X-276947619Y-108832380D02*
X-276947619Y-108213333D01*
X-276566666Y-108546666D01*
X-276566666Y-108403809D01*
X-276519047Y-108308571D01*
X-276471428Y-108260952D01*
X-276376190Y-108213333D01*
X-276138095Y-108213333D01*
X-276042857Y-108260952D01*
X-275995238Y-108308571D01*
X-275947619Y-108403809D01*
X-275947619Y-108689523D01*
X-275995238Y-108784761D01*
X-276042857Y-108832380D01*
%TO.C,J2*%
X-294447619Y-238183333D02*
X-293733333Y-238183333D01*
X-293590476Y-238230952D01*
X-293495238Y-238326190D01*
X-293447619Y-238469047D01*
X-293447619Y-238564285D01*
X-294352380Y-237754761D02*
X-294400000Y-237707142D01*
X-294447619Y-237611904D01*
X-294447619Y-237373809D01*
X-294400000Y-237278571D01*
X-294352380Y-237230952D01*
X-294257142Y-237183333D01*
X-294161904Y-237183333D01*
X-294019047Y-237230952D01*
X-293447619Y-237802380D01*
X-293447619Y-237183333D01*
%TO.C,J1*%
X-216943333Y-170732380D02*
X-216943333Y-171446666D01*
X-216990952Y-171589523D01*
X-217086190Y-171684761D01*
X-217229047Y-171732380D01*
X-217324285Y-171732380D01*
X-215943333Y-171732380D02*
X-216514761Y-171732380D01*
X-216229047Y-171732380D02*
X-216229047Y-170732380D01*
X-216324285Y-170875238D01*
X-216419523Y-170970476D01*
X-216514761Y-171018095D01*
%TO.C,C1*%
X-189216666Y-170457142D02*
X-189264285Y-170504761D01*
X-189407142Y-170552380D01*
X-189502380Y-170552380D01*
X-189645238Y-170504761D01*
X-189740476Y-170409523D01*
X-189788095Y-170314285D01*
X-189835714Y-170123809D01*
X-189835714Y-169980952D01*
X-189788095Y-169790476D01*
X-189740476Y-169695238D01*
X-189645238Y-169600000D01*
X-189502380Y-169552380D01*
X-189407142Y-169552380D01*
X-189264285Y-169600000D01*
X-189216666Y-169647619D01*
X-188264285Y-170552380D02*
X-188835714Y-170552380D01*
X-188550000Y-170552380D02*
X-188550000Y-169552380D01*
X-188645238Y-169695238D01*
X-188740476Y-169790476D01*
X-188835714Y-169838095D01*
%TD*%
M02*
