%TF.GenerationSoftware,KiCad,Pcbnew,(5.1.9-0-10_14)*%
%TF.CreationDate,2021-02-20T16:02:38+00:00*%
%TF.ProjectId,base8x,62617365-3878-42e6-9b69-6361645f7063,rev?*%
%TF.SameCoordinates,Original*%
%TF.FileFunction,Soldermask,Bot*%
%TF.FilePolarity,Negative*%
%FSLAX46Y46*%
G04 Gerber Fmt 4.6, Leading zero omitted, Abs format (unit mm)*
G04 Created by KiCad (PCBNEW (5.1.9-0-10_14)) date 2021-02-20 16:02:38*
%MOMM*%
%LPD*%
G01*
G04 APERTURE LIST*
%ADD10C,3.600000*%
%ADD11O,2.100000X2.100000*%
%ADD12O,1.800000X1.800000*%
%ADD13C,1.800000*%
%ADD14O,2.800000X2.800000*%
%ADD15C,2.800000*%
%ADD16C,2.100000*%
%ADD17O,2.200000X4.000000*%
%ADD18C,1.600000*%
G04 APERTURE END LIST*
D10*
%TO.C,REF\u002A\u002A*%
X-165000000Y-100000000D03*
%TD*%
%TO.C,REF\u002A\u002A*%
X-165000000Y-50000000D03*
%TD*%
%TO.C,REF\u002A\u002A*%
X-205000000Y-50000000D03*
%TD*%
%TO.C,REF\u002A\u002A*%
X-205000000Y-100000000D03*
%TD*%
D11*
%TO.C,Raspberry_header1*%
X-225640000Y-102690000D03*
X-223100000Y-102690000D03*
X-225640000Y-100150000D03*
X-223100000Y-100150000D03*
X-225640000Y-97610000D03*
X-223100000Y-97610000D03*
X-225640000Y-95070000D03*
X-223100000Y-95070000D03*
X-225640000Y-92530000D03*
X-223100000Y-92530000D03*
X-225640000Y-89990000D03*
X-223100000Y-89990000D03*
X-225640000Y-87450000D03*
X-223100000Y-87450000D03*
X-225640000Y-84910000D03*
X-223100000Y-84910000D03*
X-225640000Y-82370000D03*
X-223100000Y-82370000D03*
X-225640000Y-79830000D03*
X-223100000Y-79830000D03*
X-225640000Y-77290000D03*
X-223100000Y-77290000D03*
X-225640000Y-74750000D03*
X-223100000Y-74750000D03*
X-225640000Y-72210000D03*
X-223100000Y-72210000D03*
X-225640000Y-69670000D03*
X-223100000Y-69670000D03*
X-225640000Y-67130000D03*
X-223100000Y-67130000D03*
X-225640000Y-64590000D03*
X-223100000Y-64590000D03*
X-225640000Y-62050000D03*
X-223100000Y-62050000D03*
X-225640000Y-59510000D03*
X-223100000Y-59510000D03*
X-225640000Y-56970000D03*
X-223100000Y-56970000D03*
X-225640000Y-54430000D03*
G36*
G01*
X-224150000Y-55280000D02*
X-224150000Y-53580000D01*
G75*
G02*
X-223950000Y-53380000I200000J0D01*
G01*
X-222250000Y-53380000D01*
G75*
G02*
X-222050000Y-53580000I0J-200000D01*
G01*
X-222050000Y-55280000D01*
G75*
G02*
X-222250000Y-55480000I-200000J0D01*
G01*
X-223950000Y-55480000D01*
G75*
G02*
X-224150000Y-55280000I0J200000D01*
G01*
G37*
%TD*%
D12*
%TO.C,D2*%
X-328071640Y-70898520D03*
D13*
X-335691640Y-70898520D03*
%TD*%
D12*
%TO.C,D1*%
X-298550000Y-44800000D03*
D13*
X-306170000Y-44800000D03*
%TD*%
D14*
%TO.C,Resistor1*%
X-282550000Y-30810000D03*
D15*
X-302870000Y-30810000D03*
%TD*%
D14*
%TO.C,R5*%
X-249021600Y-44780200D03*
D15*
X-269341600Y-44780200D03*
%TD*%
D14*
%TO.C,R4*%
X-299690000Y-55970000D03*
D15*
X-299690000Y-76290000D03*
%TD*%
D14*
%TO.C,R3*%
X-278810000Y-56580000D03*
D15*
X-278810000Y-76900000D03*
%TD*%
D14*
%TO.C,R2*%
X-312650000Y-56200000D03*
D15*
X-312650000Y-76520000D03*
%TD*%
D14*
%TO.C,R1*%
X-288790000Y-56280000D03*
D15*
X-288790000Y-76600000D03*
%TD*%
%TO.C,J1*%
G36*
G01*
X-214879423Y-33206400D02*
X-216361777Y-33206400D01*
G75*
G02*
X-216670600Y-32897577I0J308823D01*
G01*
X-216670600Y-31415223D01*
G75*
G02*
X-216361777Y-31106400I308823J0D01*
G01*
X-214879423Y-31106400D01*
G75*
G02*
X-214570600Y-31415223I0J-308823D01*
G01*
X-214570600Y-32897577D01*
G75*
G02*
X-214879423Y-33206400I-308823J0D01*
G01*
G37*
D16*
X-213080600Y-32156400D03*
X-210540600Y-32156400D03*
X-208000600Y-32156400D03*
X-205460600Y-32156400D03*
X-215620600Y-29616400D03*
X-213080600Y-29616400D03*
X-210540600Y-29616400D03*
X-208000600Y-29616400D03*
X-205460600Y-29616400D03*
%TD*%
%TO.C,J3*%
G36*
G01*
X-238960000Y-55420000D02*
X-238960000Y-53720000D01*
G75*
G02*
X-238760000Y-53520000I200000J0D01*
G01*
X-237060000Y-53520000D01*
G75*
G02*
X-236860000Y-53720000I0J-200000D01*
G01*
X-236860000Y-55420000D01*
G75*
G02*
X-237060000Y-55620000I-200000J0D01*
G01*
X-238760000Y-55620000D01*
G75*
G02*
X-238960000Y-55420000I0J200000D01*
G01*
G37*
D11*
X-240450000Y-54570000D03*
X-237910000Y-57110000D03*
X-240450000Y-57110000D03*
X-237910000Y-59650000D03*
X-240450000Y-59650000D03*
X-237910000Y-62190000D03*
X-240450000Y-62190000D03*
X-237910000Y-64730000D03*
X-240450000Y-64730000D03*
X-237910000Y-67270000D03*
X-240450000Y-67270000D03*
X-237910000Y-69810000D03*
X-240450000Y-69810000D03*
X-237910000Y-72350000D03*
X-240450000Y-72350000D03*
X-237910000Y-74890000D03*
X-240450000Y-74890000D03*
X-237910000Y-77430000D03*
X-240450000Y-77430000D03*
X-237910000Y-79970000D03*
X-240450000Y-79970000D03*
X-237910000Y-82510000D03*
X-240450000Y-82510000D03*
X-237910000Y-85050000D03*
X-240450000Y-85050000D03*
X-237910000Y-87590000D03*
X-240450000Y-87590000D03*
%TD*%
%TO.C,J9*%
G36*
G01*
X-233265800Y-28607755D02*
X-233265800Y-31996645D01*
G75*
G02*
X-233571355Y-32302200I-305555J0D01*
G01*
X-235160245Y-32302200D01*
G75*
G02*
X-235465800Y-31996645I0J305555D01*
G01*
X-235465800Y-28607755D01*
G75*
G02*
X-235160245Y-28302200I305555J0D01*
G01*
X-233571355Y-28302200D01*
G75*
G02*
X-233265800Y-28607755I0J-305555D01*
G01*
G37*
D17*
X-237865800Y-30302200D03*
X-241365800Y-30302200D03*
X-244865800Y-30302200D03*
X-248365800Y-30302200D03*
X-251865800Y-30302200D03*
X-255365800Y-30302200D03*
X-258865800Y-30302200D03*
D15*
X-230065800Y-29402200D03*
X-263165800Y-29402200D03*
%TD*%
D11*
%TO.C,P3*%
X-262500000Y-39120000D03*
G36*
G01*
X-263550000Y-37430000D02*
X-263550000Y-35730000D01*
G75*
G02*
X-263350000Y-35530000I200000J0D01*
G01*
X-261650000Y-35530000D01*
G75*
G02*
X-261450000Y-35730000I0J-200000D01*
G01*
X-261450000Y-37430000D01*
G75*
G02*
X-261650000Y-37630000I-200000J0D01*
G01*
X-263350000Y-37630000D01*
G75*
G02*
X-263550000Y-37430000I0J200000D01*
G01*
G37*
%TD*%
%TO.C,P4*%
G36*
G01*
X-246450000Y-38890000D02*
X-248150000Y-38890000D01*
G75*
G02*
X-248350000Y-38690000I0J200000D01*
G01*
X-248350000Y-36990000D01*
G75*
G02*
X-248150000Y-36790000I200000J0D01*
G01*
X-246450000Y-36790000D01*
G75*
G02*
X-246250000Y-36990000I0J-200000D01*
G01*
X-246250000Y-38690000D01*
G75*
G02*
X-246450000Y-38890000I-200000J0D01*
G01*
G37*
X-244760000Y-37840000D03*
%TD*%
%TO.C,Temp_sensor1*%
G36*
G01*
X-279070000Y-44000000D02*
X-279070000Y-42300000D01*
G75*
G02*
X-278870000Y-42100000I200000J0D01*
G01*
X-277170000Y-42100000D01*
G75*
G02*
X-276970000Y-42300000I0J-200000D01*
G01*
X-276970000Y-44000000D01*
G75*
G02*
X-277170000Y-44200000I-200000J0D01*
G01*
X-278870000Y-44200000D01*
G75*
G02*
X-279070000Y-44000000I0J200000D01*
G01*
G37*
X-278020000Y-45690000D03*
X-278020000Y-48230000D03*
%TD*%
%TO.C,U1*%
G36*
G01*
X-257530000Y-68000000D02*
X-257530000Y-67700000D01*
G75*
G02*
X-257330000Y-67500000I200000J0D01*
G01*
X-255930000Y-67500000D01*
G75*
G02*
X-255730000Y-67700000I0J-200000D01*
G01*
X-255730000Y-68000000D01*
G75*
G02*
X-255930000Y-68200000I-200000J0D01*
G01*
X-257330000Y-68200000D01*
G75*
G02*
X-257530000Y-68000000I0J200000D01*
G01*
G37*
G36*
G01*
X-257530000Y-67500000D02*
X-257530000Y-67200000D01*
G75*
G02*
X-257330000Y-67000000I200000J0D01*
G01*
X-255930000Y-67000000D01*
G75*
G02*
X-255730000Y-67200000I0J-200000D01*
G01*
X-255730000Y-67500000D01*
G75*
G02*
X-255930000Y-67700000I-200000J0D01*
G01*
X-257330000Y-67700000D01*
G75*
G02*
X-257530000Y-67500000I0J200000D01*
G01*
G37*
G36*
G01*
X-257530000Y-67000000D02*
X-257530000Y-66700000D01*
G75*
G02*
X-257330000Y-66500000I200000J0D01*
G01*
X-255930000Y-66500000D01*
G75*
G02*
X-255730000Y-66700000I0J-200000D01*
G01*
X-255730000Y-67000000D01*
G75*
G02*
X-255930000Y-67200000I-200000J0D01*
G01*
X-257330000Y-67200000D01*
G75*
G02*
X-257530000Y-67000000I0J200000D01*
G01*
G37*
G36*
G01*
X-257530000Y-66500000D02*
X-257530000Y-66200000D01*
G75*
G02*
X-257330000Y-66000000I200000J0D01*
G01*
X-255930000Y-66000000D01*
G75*
G02*
X-255730000Y-66200000I0J-200000D01*
G01*
X-255730000Y-66500000D01*
G75*
G02*
X-255930000Y-66700000I-200000J0D01*
G01*
X-257330000Y-66700000D01*
G75*
G02*
X-257530000Y-66500000I0J200000D01*
G01*
G37*
G36*
G01*
X-257530000Y-66000000D02*
X-257530000Y-65700000D01*
G75*
G02*
X-257330000Y-65500000I200000J0D01*
G01*
X-255930000Y-65500000D01*
G75*
G02*
X-255730000Y-65700000I0J-200000D01*
G01*
X-255730000Y-66000000D01*
G75*
G02*
X-255930000Y-66200000I-200000J0D01*
G01*
X-257330000Y-66200000D01*
G75*
G02*
X-257530000Y-66000000I0J200000D01*
G01*
G37*
G36*
G01*
X-253130000Y-66000000D02*
X-253130000Y-65700000D01*
G75*
G02*
X-252930000Y-65500000I200000J0D01*
G01*
X-251530000Y-65500000D01*
G75*
G02*
X-251330000Y-65700000I0J-200000D01*
G01*
X-251330000Y-66000000D01*
G75*
G02*
X-251530000Y-66200000I-200000J0D01*
G01*
X-252930000Y-66200000D01*
G75*
G02*
X-253130000Y-66000000I0J200000D01*
G01*
G37*
G36*
G01*
X-253130000Y-66500000D02*
X-253130000Y-66200000D01*
G75*
G02*
X-252930000Y-66000000I200000J0D01*
G01*
X-251530000Y-66000000D01*
G75*
G02*
X-251330000Y-66200000I0J-200000D01*
G01*
X-251330000Y-66500000D01*
G75*
G02*
X-251530000Y-66700000I-200000J0D01*
G01*
X-252930000Y-66700000D01*
G75*
G02*
X-253130000Y-66500000I0J200000D01*
G01*
G37*
G36*
G01*
X-253130000Y-67000000D02*
X-253130000Y-66700000D01*
G75*
G02*
X-252930000Y-66500000I200000J0D01*
G01*
X-251530000Y-66500000D01*
G75*
G02*
X-251330000Y-66700000I0J-200000D01*
G01*
X-251330000Y-67000000D01*
G75*
G02*
X-251530000Y-67200000I-200000J0D01*
G01*
X-252930000Y-67200000D01*
G75*
G02*
X-253130000Y-67000000I0J200000D01*
G01*
G37*
G36*
G01*
X-253130000Y-67500000D02*
X-253130000Y-67200000D01*
G75*
G02*
X-252930000Y-67000000I200000J0D01*
G01*
X-251530000Y-67000000D01*
G75*
G02*
X-251330000Y-67200000I0J-200000D01*
G01*
X-251330000Y-67500000D01*
G75*
G02*
X-251530000Y-67700000I-200000J0D01*
G01*
X-252930000Y-67700000D01*
G75*
G02*
X-253130000Y-67500000I0J200000D01*
G01*
G37*
G36*
G01*
X-253130000Y-68000000D02*
X-253130000Y-67700000D01*
G75*
G02*
X-252930000Y-67500000I200000J0D01*
G01*
X-251530000Y-67500000D01*
G75*
G02*
X-251330000Y-67700000I0J-200000D01*
G01*
X-251330000Y-68000000D01*
G75*
G02*
X-251530000Y-68200000I-200000J0D01*
G01*
X-252930000Y-68200000D01*
G75*
G02*
X-253130000Y-68000000I0J200000D01*
G01*
G37*
%TD*%
%TO.C,C1*%
G36*
G01*
X-284518000Y-51603200D02*
X-284518000Y-50403200D01*
G75*
G02*
X-284318000Y-50203200I200000J0D01*
G01*
X-283118000Y-50203200D01*
G75*
G02*
X-282918000Y-50403200I0J-200000D01*
G01*
X-282918000Y-51603200D01*
G75*
G02*
X-283118000Y-51803200I-200000J0D01*
G01*
X-284318000Y-51803200D01*
G75*
G02*
X-284518000Y-51603200I0J200000D01*
G01*
G37*
D18*
X-282218000Y-51003200D03*
%TD*%
%TO.C,J5*%
G36*
G01*
X-197880000Y-86900000D02*
X-197880000Y-88600000D01*
G75*
G02*
X-198080000Y-88800000I-200000J0D01*
G01*
X-199780000Y-88800000D01*
G75*
G02*
X-199980000Y-88600000I0J200000D01*
G01*
X-199980000Y-86900000D01*
G75*
G02*
X-199780000Y-86700000I200000J0D01*
G01*
X-198080000Y-86700000D01*
G75*
G02*
X-197880000Y-86900000I0J-200000D01*
G01*
G37*
D11*
X-198930000Y-85210000D03*
%TD*%
M02*
