%TF.GenerationSoftware,KiCad,Pcbnew,(5.1.9-0-10_14)*%
%TF.CreationDate,2021-02-20T16:02:16+00:00*%
%TF.ProjectId,base8x,62617365-3878-42e6-9b69-6361645f7063,rev?*%
%TF.SameCoordinates,Original*%
%TF.FileFunction,Plated,1,4,PTH,Drill*%
%TF.FilePolarity,Positive*%
%FSLAX46Y46*%
G04 Gerber Fmt 4.6, Leading zero omitted, Abs format (unit mm)*
G04 Created by KiCad (PCBNEW (5.1.9-0-10_14)) date 2021-02-20 16:02:16*
%MOMM*%
%LPD*%
G01*
G04 APERTURE LIST*
%TA.AperFunction,ViaDrill*%
%ADD10C,0.400000*%
%TD*%
%TA.AperFunction,ComponentDrill*%
%ADD11C,0.600000*%
%TD*%
%TA.AperFunction,ComponentDrill*%
%ADD12C,0.700000*%
%TD*%
%TA.AperFunction,ComponentDrill*%
%ADD13C,1.000000*%
%TD*%
%TA.AperFunction,ComponentDrill*%
%ADD14C,1.200000*%
%TD*%
G04 APERTURE END LIST*
D10*
X-326850000Y-53470000D03*
X-294020000Y-71100000D03*
X-287570000Y-44750000D03*
X-287470000Y-40830000D03*
X-278040000Y-51100000D03*
X-278040000Y-51100000D03*
X-277320000Y-67120000D03*
X-275610000Y-61590000D03*
X-272590000Y-47480000D03*
X-269720000Y-60650000D03*
X-268720000Y-71760000D03*
X-265904500Y-65124500D03*
X-261470000Y-55910000D03*
X-259850000Y-105480000D03*
X-259040000Y-39080000D03*
X-256630000Y-63550000D03*
X-253280000Y-73150000D03*
X-252250000Y-64590000D03*
X-248110000Y-66930000D03*
X-247040000Y-69690000D03*
X-246419990Y-51810010D03*
X-245640000Y-70940000D03*
X-244890000Y-61930000D03*
X-244890000Y-61930000D03*
X-244280000Y-71930000D03*
X-243370000Y-59840000D03*
X-241010000Y-102920000D03*
X-240490000Y-93960000D03*
X-240410000Y-51810010D03*
X-239910000Y-37700000D03*
X-239100000Y-99990000D03*
X-237420000Y-24690000D03*
X-237150000Y-94700000D03*
X-235810000Y-78800000D03*
X-235400000Y-59050000D03*
X-234620000Y-64730000D03*
X-234590000Y-74890000D03*
X-232990000Y-80770000D03*
X-231470000Y-62190000D03*
X-231350000Y-92910000D03*
X-230540000Y-58840000D03*
X-230150000Y-80680000D03*
X-228860000Y-51690000D03*
X-224370000Y-49810000D03*
X-222370000Y-50030000D03*
X-220070000Y-35000000D03*
X-219165000Y-59265000D03*
X-218060000Y-62050000D03*
X-216890000Y-36350000D03*
X-216820000Y-56910000D03*
X-216199990Y-79910000D03*
X-215970000Y-77500000D03*
X-215620600Y-27030600D03*
X-213270000Y-80170000D03*
X-213080600Y-38350600D03*
X-210880000Y-43480000D03*
X-209520000Y-45400000D03*
X-203890000Y-34860000D03*
X-201060000Y-37370000D03*
D11*
%TO.C,C1*%
X-283718000Y-51003200D03*
X-282218000Y-51003200D03*
D12*
%TO.C,D2*%
X-335691640Y-70898520D03*
X-328071640Y-70898520D03*
%TO.C,D1*%
X-306170000Y-44800000D03*
X-298550000Y-44800000D03*
D13*
%TO.C,Temp_sensor1*%
X-278020000Y-43150000D03*
X-278020000Y-45690000D03*
X-278020000Y-48230000D03*
%TO.C,P3*%
X-262500000Y-36580000D03*
X-262500000Y-39120000D03*
%TO.C,P4*%
X-247300000Y-37840000D03*
X-244760000Y-37840000D03*
%TO.C,J3*%
X-240450000Y-54570000D03*
X-240450000Y-57110000D03*
X-240450000Y-59650000D03*
X-240450000Y-62190000D03*
X-240450000Y-64730000D03*
X-240450000Y-67270000D03*
X-240450000Y-69810000D03*
X-240450000Y-72350000D03*
X-240450000Y-74890000D03*
X-240450000Y-77430000D03*
X-240450000Y-79970000D03*
X-240450000Y-82510000D03*
X-240450000Y-85050000D03*
X-240450000Y-87590000D03*
X-237910000Y-54570000D03*
X-237910000Y-57110000D03*
X-237910000Y-59650000D03*
X-237910000Y-62190000D03*
X-237910000Y-64730000D03*
X-237910000Y-67270000D03*
X-237910000Y-69810000D03*
X-237910000Y-72350000D03*
X-237910000Y-74890000D03*
X-237910000Y-77430000D03*
X-237910000Y-79970000D03*
X-237910000Y-82510000D03*
X-237910000Y-85050000D03*
X-237910000Y-87590000D03*
%TO.C,Raspberry_header1*%
X-225640000Y-54430000D03*
X-225640000Y-56970000D03*
X-225640000Y-59510000D03*
X-225640000Y-62050000D03*
X-225640000Y-64590000D03*
X-225640000Y-67130000D03*
X-225640000Y-69670000D03*
X-225640000Y-72210000D03*
X-225640000Y-74750000D03*
X-225640000Y-77290000D03*
X-225640000Y-79830000D03*
X-225640000Y-82370000D03*
X-225640000Y-84910000D03*
X-225640000Y-87450000D03*
X-225640000Y-89990000D03*
X-225640000Y-92530000D03*
X-225640000Y-95070000D03*
X-225640000Y-97610000D03*
X-225640000Y-100150000D03*
X-225640000Y-102690000D03*
X-223100000Y-54430000D03*
X-223100000Y-56970000D03*
X-223100000Y-59510000D03*
X-223100000Y-62050000D03*
X-223100000Y-64590000D03*
X-223100000Y-67130000D03*
X-223100000Y-69670000D03*
X-223100000Y-72210000D03*
X-223100000Y-74750000D03*
X-223100000Y-77290000D03*
X-223100000Y-79830000D03*
X-223100000Y-82370000D03*
X-223100000Y-84910000D03*
X-223100000Y-87450000D03*
X-223100000Y-89990000D03*
X-223100000Y-92530000D03*
X-223100000Y-95070000D03*
X-223100000Y-97610000D03*
X-223100000Y-100150000D03*
X-223100000Y-102690000D03*
%TO.C,J1*%
X-215620600Y-29616400D03*
X-215620600Y-32156400D03*
X-213080600Y-29616400D03*
X-213080600Y-32156400D03*
X-210540600Y-29616400D03*
X-210540600Y-32156400D03*
X-208000600Y-29616400D03*
X-208000600Y-32156400D03*
X-205460600Y-29616400D03*
X-205460600Y-32156400D03*
%TO.C,J5*%
X-198930000Y-85210000D03*
X-198930000Y-87750000D03*
D14*
%TO.C,R2*%
X-312650000Y-56200000D03*
X-312650000Y-76520000D03*
%TO.C,Resistor1*%
X-302870000Y-30810000D03*
%TO.C,R4*%
X-299690000Y-55970000D03*
X-299690000Y-76290000D03*
%TO.C,R1*%
X-288790000Y-56280000D03*
X-288790000Y-76600000D03*
%TO.C,Resistor1*%
X-282550000Y-30810000D03*
%TO.C,R3*%
X-278810000Y-56580000D03*
X-278810000Y-76900000D03*
%TO.C,R5*%
X-269341600Y-44780200D03*
%TO.C,J9*%
X-258865800Y-30302200D03*
X-255365800Y-30302200D03*
X-251865800Y-30302200D03*
%TO.C,R5*%
X-249021600Y-44780200D03*
%TO.C,J9*%
X-248365800Y-30302200D03*
X-244865800Y-30302200D03*
X-241365800Y-30302200D03*
X-237865800Y-30302200D03*
X-234365800Y-30302200D03*
M02*
