%TF.GenerationSoftware,KiCad,Pcbnew,(5.1.9-0-10_14)*%
%TF.CreationDate,2021-02-20T16:02:38+00:00*%
%TF.ProjectId,base8x,62617365-3878-42e6-9b69-6361645f7063,rev?*%
%TF.SameCoordinates,Original*%
%TF.FileFunction,Copper,L4,Bot*%
%TF.FilePolarity,Positive*%
%FSLAX46Y46*%
G04 Gerber Fmt 4.6, Leading zero omitted, Abs format (unit mm)*
G04 Created by KiCad (PCBNEW (5.1.9-0-10_14)) date 2021-02-20 16:02:38*
%MOMM*%
%LPD*%
G01*
G04 APERTURE LIST*
%TA.AperFunction,ComponentPad*%
%ADD10O,1.700000X1.700000*%
%TD*%
%TA.AperFunction,ComponentPad*%
%ADD11R,1.700000X1.700000*%
%TD*%
%TA.AperFunction,ComponentPad*%
%ADD12O,1.400000X1.400000*%
%TD*%
%TA.AperFunction,ComponentPad*%
%ADD13C,1.400000*%
%TD*%
%TA.AperFunction,ComponentPad*%
%ADD14O,2.400000X2.400000*%
%TD*%
%TA.AperFunction,ComponentPad*%
%ADD15C,2.400000*%
%TD*%
%TA.AperFunction,ComponentPad*%
%ADD16C,1.700000*%
%TD*%
%TA.AperFunction,ComponentPad*%
%ADD17O,1.800000X3.600000*%
%TD*%
%TA.AperFunction,SMDPad,CuDef*%
%ADD18R,1.400000X0.300000*%
%TD*%
%TA.AperFunction,ComponentPad*%
%ADD19R,1.200000X1.200000*%
%TD*%
%TA.AperFunction,ComponentPad*%
%ADD20C,1.200000*%
%TD*%
%TA.AperFunction,ViaPad*%
%ADD21C,0.600000*%
%TD*%
%TA.AperFunction,Conductor*%
%ADD22C,0.300000*%
%TD*%
%TA.AperFunction,Conductor*%
%ADD23C,1.000000*%
%TD*%
%TA.AperFunction,Conductor*%
%ADD24C,0.500000*%
%TD*%
%TA.AperFunction,Conductor*%
%ADD25C,0.250000*%
%TD*%
%TA.AperFunction,Conductor*%
%ADD26C,0.100000*%
%TD*%
G04 APERTURE END LIST*
D10*
%TO.P,Raspberry_header1,40*%
%TO.N,Net-(Raspberry_header1-Pad40)*%
X-225640000Y-102690000D03*
%TO.P,Raspberry_header1,39*%
%TO.N,GND*%
X-223100000Y-102690000D03*
%TO.P,Raspberry_header1,38*%
%TO.N,Net-(Raspberry_header1-Pad38)*%
X-225640000Y-100150000D03*
%TO.P,Raspberry_header1,37*%
%TO.N,Net-(Raspberry_header1-Pad37)*%
X-223100000Y-100150000D03*
%TO.P,Raspberry_header1,36*%
%TO.N,Net-(Raspberry_header1-Pad36)*%
X-225640000Y-97610000D03*
%TO.P,Raspberry_header1,35*%
%TO.N,Net-(Raspberry_header1-Pad35)*%
X-223100000Y-97610000D03*
%TO.P,Raspberry_header1,34*%
%TO.N,Net-(Raspberry_header1-Pad34)*%
X-225640000Y-95070000D03*
%TO.P,Raspberry_header1,33*%
%TO.N,Net-(Raspberry_header1-Pad33)*%
X-223100000Y-95070000D03*
%TO.P,Raspberry_header1,32*%
%TO.N,Net-(Raspberry_header1-Pad32)*%
X-225640000Y-92530000D03*
%TO.P,Raspberry_header1,31*%
%TO.N,GPIO6*%
X-223100000Y-92530000D03*
%TO.P,Raspberry_header1,30*%
%TO.N,Net-(Raspberry_header1-Pad30)*%
X-225640000Y-89990000D03*
%TO.P,Raspberry_header1,29*%
%TO.N,Net-(Raspberry_header1-Pad29)*%
X-223100000Y-89990000D03*
%TO.P,Raspberry_header1,28*%
%TO.N,Net-(Raspberry_header1-Pad28)*%
X-225640000Y-87450000D03*
%TO.P,Raspberry_header1,27*%
%TO.N,Net-(Raspberry_header1-Pad27)*%
X-223100000Y-87450000D03*
%TO.P,Raspberry_header1,26*%
%TO.N,Net-(Raspberry_header1-Pad26)*%
X-225640000Y-84910000D03*
%TO.P,Raspberry_header1,25*%
%TO.N,Net-(Raspberry_header1-Pad25)*%
X-223100000Y-84910000D03*
%TO.P,Raspberry_header1,24*%
%TO.N,SCK*%
X-225640000Y-82370000D03*
%TO.P,Raspberry_header1,23*%
%TO.N,SCLK*%
X-223100000Y-82370000D03*
%TO.P,Raspberry_header1,22*%
%TO.N,Net-(Raspberry_header1-Pad22)*%
X-225640000Y-79830000D03*
%TO.P,Raspberry_header1,21*%
%TO.N,MISO*%
X-223100000Y-79830000D03*
%TO.P,Raspberry_header1,20*%
%TO.N,Net-(Raspberry_header1-Pad20)*%
X-225640000Y-77290000D03*
%TO.P,Raspberry_header1,19*%
%TO.N,MOSI*%
X-223100000Y-77290000D03*
%TO.P,Raspberry_header1,18*%
%TO.N,Net-(Raspberry_header1-Pad18)*%
X-225640000Y-74750000D03*
%TO.P,Raspberry_header1,17*%
%TO.N,Net-(Raspberry_header1-Pad17)*%
X-223100000Y-74750000D03*
%TO.P,Raspberry_header1,16*%
%TO.N,Net-(Raspberry_header1-Pad16)*%
X-225640000Y-72210000D03*
%TO.P,Raspberry_header1,15*%
%TO.N,Net-(Raspberry_header1-Pad15)*%
X-223100000Y-72210000D03*
%TO.P,Raspberry_header1,14*%
%TO.N,Net-(Raspberry_header1-Pad14)*%
X-225640000Y-69670000D03*
%TO.P,Raspberry_header1,13*%
%TO.N,Net-(Raspberry_header1-Pad13)*%
X-223100000Y-69670000D03*
%TO.P,Raspberry_header1,12*%
%TO.N,Net-(Raspberry_header1-Pad12)*%
X-225640000Y-67130000D03*
%TO.P,Raspberry_header1,11*%
%TO.N,Net-(Raspberry_header1-Pad11)*%
X-223100000Y-67130000D03*
%TO.P,Raspberry_header1,10*%
%TO.N,Net-(Raspberry_header1-Pad10)*%
X-225640000Y-64590000D03*
%TO.P,Raspberry_header1,9*%
%TO.N,Net-(Raspberry_header1-Pad9)*%
X-223100000Y-64590000D03*
%TO.P,Raspberry_header1,8*%
%TO.N,Net-(Raspberry_header1-Pad8)*%
X-225640000Y-62050000D03*
%TO.P,Raspberry_header1,7*%
%TO.N,CLK0*%
X-223100000Y-62050000D03*
%TO.P,Raspberry_header1,6*%
%TO.N,Net-(Raspberry_header1-Pad6)*%
X-225640000Y-59510000D03*
%TO.P,Raspberry_header1,5*%
%TO.N,SCL*%
X-223100000Y-59510000D03*
%TO.P,Raspberry_header1,4*%
%TO.N,Net-(Raspberry_header1-Pad4)*%
X-225640000Y-56970000D03*
%TO.P,Raspberry_header1,3*%
%TO.N,SDA*%
X-223100000Y-56970000D03*
%TO.P,Raspberry_header1,2*%
%TO.N,+5V*%
X-225640000Y-54430000D03*
D11*
%TO.P,Raspberry_header1,1*%
%TO.N,+3V3*%
X-223100000Y-54430000D03*
%TD*%
D12*
%TO.P,D2,2*%
%TO.N,Net-(D2-Pad2)*%
X-328071640Y-70898520D03*
D13*
%TO.P,D2,1*%
%TO.N,Net-(D2-Pad1)*%
X-335691640Y-70898520D03*
%TD*%
D12*
%TO.P,D1,2*%
%TO.N,Net-(D1-Pad2)*%
X-298550000Y-44800000D03*
D13*
%TO.P,D1,1*%
%TO.N,Net-(D1-Pad1)*%
X-306170000Y-44800000D03*
%TD*%
D14*
%TO.P,Resistor1,2*%
%TO.N,+3V3*%
X-282550000Y-30810000D03*
D15*
%TO.P,Resistor1,1*%
%TO.N,CLK0*%
X-302870000Y-30810000D03*
%TD*%
D14*
%TO.P,R5,2*%
%TO.N,A_I-*%
X-249021600Y-44780200D03*
D15*
%TO.P,R5,1*%
%TO.N,A_I-_EXT*%
X-269341600Y-44780200D03*
%TD*%
D14*
%TO.P,R4,2*%
%TO.N,Net-(R4-Pad2)*%
X-299690000Y-55970000D03*
D15*
%TO.P,R4,1*%
%TO.N,Net-(J4-Pad2)*%
X-299690000Y-76290000D03*
%TD*%
D14*
%TO.P,R3,2*%
%TO.N,+5V*%
X-278810000Y-56580000D03*
D15*
%TO.P,R3,1*%
%TO.N,Net-(R3-Pad1)*%
X-278810000Y-76900000D03*
%TD*%
D14*
%TO.P,R2,2*%
%TO.N,+5V*%
X-312650000Y-56200000D03*
D15*
%TO.P,R2,1*%
%TO.N,Net-(JP4-Pad1)*%
X-312650000Y-76520000D03*
%TD*%
D14*
%TO.P,R1,2*%
%TO.N,+5V*%
X-288790000Y-56280000D03*
D15*
%TO.P,R1,1*%
%TO.N,Net-(JP2-Pad1)*%
X-288790000Y-76600000D03*
%TD*%
%TO.P,J1,1*%
%TO.N,MISO*%
%TA.AperFunction,ComponentPad*%
G36*
G01*
X-215020600Y-33006400D02*
X-216220600Y-33006400D01*
G75*
G02*
X-216470600Y-32756400I0J250000D01*
G01*
X-216470600Y-31556400D01*
G75*
G02*
X-216220600Y-31306400I250000J0D01*
G01*
X-215020600Y-31306400D01*
G75*
G02*
X-214770600Y-31556400I0J-250000D01*
G01*
X-214770600Y-32756400D01*
G75*
G02*
X-215020600Y-33006400I-250000J0D01*
G01*
G37*
%TD.AperFunction*%
D16*
%TO.P,J1,3*%
%TO.N,SCK*%
X-213080600Y-32156400D03*
%TO.P,J1,5*%
%TO.N,A_V_D_EXT*%
X-210540600Y-32156400D03*
%TO.P,J1,7*%
%TO.N,SDA*%
X-208000600Y-32156400D03*
%TO.P,J1,9*%
%TO.N,/Vin*%
X-205460600Y-32156400D03*
%TO.P,J1,2*%
%TO.N,+5V*%
X-215620600Y-29616400D03*
%TO.P,J1,4*%
%TO.N,MOSI*%
X-213080600Y-29616400D03*
%TO.P,J1,6*%
%TO.N,GND*%
X-210540600Y-29616400D03*
%TO.P,J1,8*%
%TO.N,SCL*%
X-208000600Y-29616400D03*
%TO.P,J1,10*%
%TO.N,~A_CS*%
X-205460600Y-29616400D03*
%TD*%
D11*
%TO.P,J3,1*%
%TO.N,+5V*%
X-237910000Y-54570000D03*
D10*
%TO.P,J3,2*%
X-240450000Y-54570000D03*
%TO.P,J3,3*%
%TO.N,+3V3*%
X-237910000Y-57110000D03*
%TO.P,J3,4*%
%TO.N,A_V_D*%
X-240450000Y-57110000D03*
%TO.P,J3,5*%
X-237910000Y-59650000D03*
%TO.P,J3,6*%
%TO.N,SCL*%
X-240450000Y-59650000D03*
%TO.P,J3,7*%
%TO.N,SDA*%
X-237910000Y-62190000D03*
%TO.P,J3,8*%
X-240450000Y-62190000D03*
%TO.P,J3,9*%
%TO.N,SCL*%
X-237910000Y-64730000D03*
%TO.P,J3,10*%
%TO.N,Net-(J3-Pad10)*%
X-240450000Y-64730000D03*
%TO.P,J3,11*%
%TO.N,~A_CS*%
X-237910000Y-67270000D03*
%TO.P,J3,12*%
%TO.N,Net-(J3-Pad12)*%
X-240450000Y-67270000D03*
%TO.P,J3,13*%
%TO.N,MISO*%
X-237910000Y-69810000D03*
%TO.P,J3,14*%
%TO.N,Net-(J3-Pad14)*%
X-240450000Y-69810000D03*
%TO.P,J3,15*%
%TO.N,MOSI*%
X-237910000Y-72350000D03*
%TO.P,J3,16*%
%TO.N,A_V_D*%
X-240450000Y-72350000D03*
%TO.P,J3,17*%
%TO.N,SCK*%
X-237910000Y-74890000D03*
%TO.P,J3,18*%
%TO.N,Net-(J3-Pad18)*%
X-240450000Y-74890000D03*
%TO.P,J3,19*%
%TO.N,GND*%
X-237910000Y-77430000D03*
%TO.P,J3,20*%
X-240450000Y-77430000D03*
%TO.P,J3,21*%
%TO.N,A_I+*%
X-237910000Y-79970000D03*
%TO.P,J3,22*%
%TO.N,Net-(J3-Pad22)*%
X-240450000Y-79970000D03*
%TO.P,J3,23*%
%TO.N,A_V+*%
X-237910000Y-82510000D03*
%TO.P,J3,24*%
%TO.N,Net-(J3-Pad24)*%
X-240450000Y-82510000D03*
%TO.P,J3,25*%
%TO.N,A_V-*%
X-237910000Y-85050000D03*
%TO.P,J3,26*%
%TO.N,Net-(J3-Pad26)*%
X-240450000Y-85050000D03*
%TO.P,J3,27*%
%TO.N,A_I-*%
X-237910000Y-87590000D03*
%TO.P,J3,28*%
%TO.N,Net-(J3-Pad28)*%
X-240450000Y-87590000D03*
%TD*%
%TO.P,J9,1*%
%TO.N,GND*%
%TA.AperFunction,ComponentPad*%
G36*
G01*
X-233465800Y-28752200D02*
X-233465800Y-31852200D01*
G75*
G02*
X-233715800Y-32102200I-250000J0D01*
G01*
X-235015800Y-32102200D01*
G75*
G02*
X-235265800Y-31852200I0J250000D01*
G01*
X-235265800Y-28752200D01*
G75*
G02*
X-235015800Y-28502200I250000J0D01*
G01*
X-233715800Y-28502200D01*
G75*
G02*
X-233465800Y-28752200I0J-250000D01*
G01*
G37*
%TD.AperFunction*%
D17*
%TO.P,J9,2*%
%TO.N,/Vin*%
X-237865800Y-30302200D03*
%TO.P,J9,3*%
%TO.N,Net-(J9-Pad3)*%
X-241365800Y-30302200D03*
%TO.P,J9,4*%
%TO.N,A_I-*%
X-244865800Y-30302200D03*
%TO.P,J9,5*%
%TO.N,A_I-_EXT*%
X-248365800Y-30302200D03*
%TO.P,J9,6*%
%TO.N,A_V-*%
X-251865800Y-30302200D03*
%TO.P,J9,7*%
%TO.N,A_V+*%
X-255365800Y-30302200D03*
%TO.P,J9,8*%
%TO.N,A_I+*%
X-258865800Y-30302200D03*
%TD*%
D10*
%TO.P,P3,2*%
%TO.N,GND*%
X-262500000Y-39120000D03*
D11*
%TO.P,P3,1*%
%TO.N,A_I-_EXT*%
X-262500000Y-36580000D03*
%TD*%
%TO.P,P4,1*%
%TO.N,A_I-_EXT*%
X-247300000Y-37840000D03*
D10*
%TO.P,P4,2*%
%TO.N,A_I-*%
X-244760000Y-37840000D03*
%TD*%
D11*
%TO.P,Temp_sensor1,1*%
%TO.N,+3V3*%
X-278020000Y-43150000D03*
D10*
%TO.P,Temp_sensor1,2*%
%TO.N,CLK0*%
X-278020000Y-45690000D03*
%TO.P,Temp_sensor1,3*%
%TO.N,GND*%
X-278020000Y-48230000D03*
%TD*%
D18*
%TO.P,U1,1*%
%TO.N,Net-(R4-Pad2)*%
X-256630000Y-67850000D03*
%TO.P,U1,2*%
%TO.N,Net-(R3-Pad1)*%
X-256630000Y-67350000D03*
%TO.P,U1,3*%
%TO.N,GND*%
X-256630000Y-66850000D03*
%TO.P,U1,4*%
%TO.N,A_V_D_LOC*%
X-256630000Y-66350000D03*
%TO.P,U1,5*%
%TO.N,Net-(TP2-Pad1)*%
X-256630000Y-65850000D03*
%TO.P,U1,6*%
%TO.N,Net-(JP2-Pad1)*%
X-252230000Y-65850000D03*
%TO.P,U1,7*%
%TO.N,Net-(JP4-Pad1)*%
X-252230000Y-66350000D03*
%TO.P,U1,8*%
%TO.N,+5V*%
X-252230000Y-66850000D03*
%TO.P,U1,9*%
%TO.N,SDA*%
X-252230000Y-67350000D03*
%TO.P,U1,10*%
%TO.N,SCL*%
X-252230000Y-67850000D03*
%TD*%
D19*
%TO.P,C1,1*%
%TO.N,+5V*%
X-283718000Y-51003200D03*
D20*
%TO.P,C1,2*%
%TO.N,GND*%
X-282218000Y-51003200D03*
%TD*%
D11*
%TO.P,J5,1*%
%TO.N,GPIO6*%
X-198930000Y-87750000D03*
D10*
%TO.P,J5,2*%
%TO.N,GND*%
X-198930000Y-85210000D03*
%TD*%
D21*
%TO.N,+5V*%
X-248110000Y-66930000D03*
X-215620600Y-27030600D03*
X-240410000Y-51810010D03*
X-246419990Y-51810010D03*
X-235400000Y-59050000D03*
X-230540000Y-58840000D03*
%TO.N,GND*%
X-287570000Y-44750000D03*
X-269720000Y-60650000D03*
X-259850000Y-105480000D03*
X-326850000Y-53470000D03*
X-259040000Y-39080000D03*
X-278040000Y-51100000D03*
X-278040000Y-51100000D03*
X-272590000Y-47480000D03*
%TO.N,MISO*%
X-230150000Y-80680000D03*
X-216890000Y-36350000D03*
X-213270000Y-80170000D03*
X-216199990Y-79910000D03*
%TO.N,SCK*%
X-234590000Y-74890000D03*
X-224370000Y-49810000D03*
X-213080600Y-38350600D03*
%TO.N,A_V_D_EXT*%
X-244280000Y-71930000D03*
X-209520000Y-45400000D03*
%TO.N,SDA*%
X-247040000Y-69690000D03*
X-244890000Y-61930000D03*
X-244890000Y-61930000D03*
X-231470000Y-62190000D03*
X-216820000Y-56910000D03*
%TO.N,/Vin*%
X-237420000Y-24690000D03*
X-203890000Y-34860000D03*
%TO.N,MOSI*%
X-232990000Y-80770000D03*
X-215970000Y-77500000D03*
X-220070000Y-35000000D03*
%TO.N,SCL*%
X-245640000Y-70940000D03*
X-243370000Y-59840000D03*
X-234620000Y-64730000D03*
X-219165000Y-59265000D03*
%TO.N,~A_CS*%
X-201060000Y-37370000D03*
X-228860000Y-51690000D03*
X-222370000Y-50030000D03*
X-210880000Y-43480000D03*
%TO.N,A_V_D_LOC*%
X-265904500Y-65124500D03*
%TO.N,A_V_D*%
X-253280000Y-73150000D03*
%TO.N,A_I+*%
X-235810000Y-78800000D03*
X-240490000Y-93960000D03*
X-231350000Y-92910000D03*
X-241010000Y-102920000D03*
%TO.N,A_V-*%
X-239100000Y-99990000D03*
X-237150000Y-94700000D03*
%TO.N,A_I-*%
X-239910000Y-37700000D03*
X-287470000Y-40830000D03*
%TO.N,Net-(J4-Pad2)*%
X-275610000Y-61590000D03*
%TO.N,Net-(R4-Pad2)*%
X-268720000Y-71760000D03*
%TO.N,CLK0*%
X-218060000Y-62050000D03*
%TO.N,Net-(TP2-Pad1)*%
X-256630000Y-63550000D03*
%TO.N,Net-(JP2-Pad1)*%
X-252250000Y-64590000D03*
X-277320000Y-67120000D03*
X-261470000Y-55910000D03*
%TO.N,Net-(JP4-Pad1)*%
X-294020000Y-71100000D03*
%TD*%
D22*
%TO.N,+5V*%
X-252230000Y-66850000D02*
X-249990000Y-66850000D01*
D23*
X-237910000Y-54570000D02*
X-240450000Y-54570000D01*
X-225780000Y-54570000D02*
X-225640000Y-54430000D01*
D24*
X-248190000Y-66850000D02*
X-248110000Y-66930000D01*
X-249990000Y-66850000D02*
X-248190000Y-66850000D01*
X-215620600Y-29616400D02*
X-215620600Y-27030600D01*
X-215620600Y-27030600D02*
X-215620600Y-27030600D01*
X-240450000Y-54570000D02*
X-240450000Y-51850010D01*
X-240450000Y-51850010D02*
X-240410000Y-51810010D01*
X-240410000Y-51810010D02*
X-246419990Y-51810010D01*
X-246419990Y-51810010D02*
X-246419990Y-51810010D01*
X-230750000Y-59050000D02*
X-230540000Y-58840000D01*
X-235400000Y-59050000D02*
X-230750000Y-59050000D01*
D25*
%TO.N,GND*%
X-256630000Y-66850000D02*
X-254830000Y-66850000D01*
D24*
X-210540600Y-29600600D02*
X-210540600Y-29616400D01*
X-234365800Y-30302200D02*
X-232532200Y-30302200D01*
X-210540600Y-29616400D02*
X-210540600Y-27700600D01*
X-278020000Y-48230000D02*
X-278020000Y-48300000D01*
X-278020000Y-48300000D02*
X-278040000Y-48320000D01*
X-278040000Y-48320000D02*
X-278040000Y-51100000D01*
X-278356800Y-51003200D02*
X-282218000Y-51003200D01*
X-278040000Y-51320000D02*
X-278356800Y-51003200D01*
X-262500000Y-39120000D02*
X-259080000Y-39120000D01*
X-259080000Y-39120000D02*
X-259040000Y-39080000D01*
X-259040000Y-39080000D02*
X-258970000Y-39010000D01*
X-278040000Y-51100000D02*
X-278040000Y-51100000D01*
X-278040000Y-51100000D02*
X-278040000Y-51320000D01*
X-272590000Y-47480000D02*
X-262870000Y-47480000D01*
X-262500000Y-47110000D02*
X-262500000Y-39120000D01*
X-262870000Y-47480000D02*
X-262500000Y-47110000D01*
X-240450000Y-77430000D02*
X-237910000Y-77430000D01*
X-240450000Y-77430000D02*
X-254500000Y-77430000D01*
X-254500000Y-77430000D02*
X-254780000Y-77150000D01*
X-254780000Y-66900000D02*
X-254830000Y-66850000D01*
X-254780000Y-77150000D02*
X-254780000Y-66900000D01*
X-198930000Y-85210000D02*
X-194890000Y-85210000D01*
%TO.N,MISO*%
X-230150000Y-80680000D02*
X-230150000Y-80680000D01*
X-215620600Y-32156400D02*
X-215620600Y-35080600D01*
X-215620600Y-35080600D02*
X-216890000Y-36350000D01*
X-216890000Y-36350000D02*
X-216890000Y-36350000D01*
X-230150000Y-70100000D02*
X-230150000Y-80680000D01*
X-230440000Y-69810000D02*
X-230150000Y-70100000D01*
X-237910000Y-69810000D02*
X-230440000Y-69810000D01*
X-216279990Y-79830000D02*
X-216199990Y-79910000D01*
X-215939990Y-80170000D02*
X-216199990Y-79910000D01*
X-213270000Y-80170000D02*
X-215939990Y-80170000D01*
X-223100000Y-79830000D02*
X-216279990Y-79830000D01*
%TO.N,SCK*%
X-237910000Y-74890000D02*
X-234590000Y-74890000D01*
X-234590000Y-74890000D02*
X-234590000Y-74890000D01*
X-234390000Y-75090000D02*
X-234390000Y-82170000D01*
X-234190000Y-82370000D02*
X-225640000Y-82370000D01*
X-234390000Y-82170000D02*
X-234190000Y-82370000D01*
X-213080600Y-38350600D02*
X-213080600Y-38350600D01*
X-234590000Y-74890000D02*
X-234390000Y-75090000D01*
X-213080600Y-38520600D02*
X-213080600Y-38350600D01*
X-213080600Y-32156400D02*
X-213080600Y-38350600D01*
X-224370000Y-49810000D02*
X-213080600Y-38520600D01*
%TO.N,A_V_D_EXT*%
X-210540600Y-39040600D02*
X-210540600Y-39040600D01*
X-209520000Y-41780000D02*
X-209520000Y-45400000D01*
X-210400600Y-40899400D02*
X-209520000Y-41780000D01*
X-210540600Y-40899400D02*
X-210400600Y-40899400D01*
X-210540600Y-32156400D02*
X-210540600Y-40899400D01*
D22*
%TO.N,SDA*%
X-252230000Y-67350000D02*
X-250670000Y-67350000D01*
X-250680000Y-67360000D02*
X-250680000Y-67810000D01*
X-250670000Y-67350000D02*
X-250680000Y-67360000D01*
D24*
X-250680000Y-67810000D02*
X-250040000Y-67810000D01*
X-250040000Y-67810000D02*
X-248190000Y-69660000D01*
X-247970000Y-69660000D02*
X-247940000Y-69690000D01*
X-248190000Y-69660000D02*
X-247970000Y-69660000D01*
X-247070000Y-69660000D02*
X-247040000Y-69690000D01*
X-248190000Y-69660000D02*
X-247070000Y-69660000D01*
X-240710000Y-61930000D02*
X-240450000Y-62190000D01*
X-244890000Y-61930000D02*
X-240710000Y-61930000D01*
X-240450000Y-62190000D02*
X-237910000Y-62190000D01*
X-223100000Y-56970000D02*
X-208760000Y-56970000D01*
X-208000600Y-56210600D02*
X-208000600Y-32156400D01*
X-237910000Y-62190000D02*
X-231470000Y-62190000D01*
X-208760000Y-56970000D02*
X-208000600Y-56210600D01*
X-231470000Y-62190000D02*
X-231470000Y-62190000D01*
%TO.N,/Vin*%
X-237420000Y-29856400D02*
X-237865800Y-30302200D01*
X-237420000Y-24690000D02*
X-237420000Y-29856400D01*
X-203890000Y-34860000D02*
X-205180000Y-34860000D01*
X-205460600Y-34579400D02*
X-205460600Y-32156400D01*
X-205180000Y-34860000D02*
X-205460600Y-34579400D01*
%TO.N,MOSI*%
X-237910000Y-72350000D02*
X-233210000Y-72350000D01*
X-233210000Y-72350000D02*
X-232990000Y-72570000D01*
X-232990000Y-72570000D02*
X-232990000Y-80770000D01*
X-232990000Y-80770000D02*
X-232990000Y-80770000D01*
X-222890000Y-77500000D02*
X-223100000Y-77290000D01*
X-215970000Y-77500000D02*
X-222890000Y-77500000D01*
X-213080600Y-29616400D02*
X-213080600Y-24760600D01*
X-213080600Y-24760600D02*
X-213090000Y-24770000D01*
X-213090000Y-24770000D02*
X-219190000Y-24770000D01*
X-219190000Y-24770000D02*
X-220070000Y-25650000D01*
X-220070000Y-25650000D02*
X-220070000Y-35000000D01*
X-220070000Y-35000000D02*
X-220070000Y-35000000D01*
D22*
%TO.N,SCL*%
X-252230000Y-67850000D02*
X-252230000Y-68950000D01*
D24*
X-252230000Y-68950000D02*
X-252230000Y-70950000D01*
X-252230000Y-70950000D02*
X-252220000Y-70940000D01*
X-252220000Y-70940000D02*
X-245640000Y-70940000D01*
X-245640000Y-70940000D02*
X-245640000Y-70940000D01*
X-240640000Y-59840000D02*
X-240450000Y-59650000D01*
X-243370000Y-59840000D02*
X-240640000Y-59840000D01*
X-208000000Y-23300000D02*
X-208000600Y-23300600D01*
X-197570000Y-55100000D02*
X-197570000Y-23450000D01*
X-197720000Y-23300000D02*
X-208000000Y-23300000D01*
X-198861401Y-56391401D02*
X-197570000Y-55100000D01*
X-197570000Y-23450000D02*
X-197720000Y-23300000D01*
X-219410000Y-59510000D02*
X-219165000Y-59265000D01*
X-201981401Y-56391401D02*
X-198861401Y-56391401D01*
X-208000600Y-23300600D02*
X-208000600Y-29616400D01*
X-203820001Y-58230001D02*
X-201981401Y-56391401D01*
X-218130001Y-58230001D02*
X-203820001Y-58230001D01*
X-223100000Y-59510000D02*
X-220420000Y-59510000D01*
X-234620000Y-64730000D02*
X-234620000Y-64730000D01*
X-237910000Y-64730000D02*
X-234620000Y-64730000D01*
X-220420000Y-59510000D02*
X-219410000Y-59510000D01*
X-219165000Y-59265000D02*
X-218130001Y-58230001D01*
%TO.N,~A_CS*%
X-205460600Y-29616400D02*
X-201063600Y-29616400D01*
X-201063600Y-29616400D02*
X-201060000Y-29620000D01*
X-201060000Y-29620000D02*
X-201060000Y-37370000D01*
X-201060000Y-37370000D02*
X-201060000Y-37370000D01*
X-237910000Y-67270000D02*
X-231010000Y-67270000D01*
X-231010000Y-67270000D02*
X-229140000Y-65400000D01*
X-229140000Y-65400000D02*
X-229140000Y-51970000D01*
X-229140000Y-51970000D02*
X-228860000Y-51690000D01*
X-228860000Y-51690000D02*
X-228860000Y-51690000D01*
X-222370000Y-50030000D02*
X-217430000Y-50030000D01*
X-217430000Y-50030000D02*
X-210880000Y-43480000D01*
X-210880000Y-43480000D02*
X-210880000Y-43480000D01*
D22*
%TO.N,A_V_D_LOC*%
X-256630000Y-66350000D02*
X-258800000Y-66350000D01*
X-258800000Y-66350000D02*
X-258800000Y-64850000D01*
D24*
X-265630000Y-64850000D02*
X-265904500Y-65124500D01*
X-258800000Y-64850000D02*
X-265630000Y-64850000D01*
%TO.N,A_V_D*%
X-241250000Y-73150000D02*
X-240450000Y-72350000D01*
X-237910000Y-59650000D02*
X-240450000Y-57110000D01*
X-240450000Y-57110000D02*
X-247930000Y-57110000D01*
X-247930000Y-57110000D02*
X-248250000Y-57430000D01*
X-248250000Y-57430000D02*
X-248250000Y-64430000D01*
X-248250000Y-64430000D02*
X-247690000Y-64990000D01*
X-247690000Y-64990000D02*
X-243510000Y-64990000D01*
X-242980000Y-65520000D02*
X-242980000Y-73150000D01*
X-242980000Y-73150000D02*
X-241250000Y-73150000D01*
X-243510000Y-64990000D02*
X-242980000Y-65520000D01*
X-253280000Y-73150000D02*
X-242980000Y-73150000D01*
%TO.N,+3V3*%
X-233980000Y-57070000D02*
X-233980000Y-50880000D01*
X-234020000Y-57110000D02*
X-233980000Y-57070000D01*
X-237910000Y-57110000D02*
X-234020000Y-57110000D01*
X-282550000Y-30810000D02*
X-278170000Y-30810000D01*
X-278020000Y-30960000D02*
X-278020000Y-43150000D01*
X-278170000Y-30810000D02*
X-278020000Y-30960000D01*
X-233980000Y-50880000D02*
X-233100000Y-50880000D01*
X-222570000Y-53900000D02*
X-223100000Y-54430000D01*
X-222570000Y-50880000D02*
X-222570000Y-53900000D01*
X-233100000Y-50880000D02*
X-222570000Y-50880000D01*
X-237630000Y-50880000D02*
X-233100000Y-50880000D01*
X-237680000Y-50880000D02*
X-237630000Y-50880000D01*
X-270420000Y-50360000D02*
X-238200000Y-50360000D01*
X-278020000Y-43150000D02*
X-270070000Y-51100000D01*
X-238200000Y-50360000D02*
X-237680000Y-50880000D01*
X-270070000Y-50710000D02*
X-270420000Y-50360000D01*
X-270070000Y-51100000D02*
X-270070000Y-50710000D01*
%TO.N,A_I+*%
X-237910000Y-79970000D02*
X-236740000Y-78800000D01*
X-236740000Y-78800000D02*
X-235810000Y-78800000D01*
X-235810000Y-78800000D02*
X-235810000Y-78800000D01*
X-258865800Y-30302200D02*
X-258865800Y-20044200D01*
X-258865800Y-20044200D02*
X-301755800Y-20044200D01*
X-301755800Y-20044200D02*
X-341681600Y-59970000D01*
X-341681600Y-59970000D02*
X-341681600Y-80898400D01*
X-341681600Y-80898400D02*
X-328620000Y-93960000D01*
X-328620000Y-93960000D02*
X-240490000Y-93960000D01*
X-240490000Y-93960000D02*
X-240490000Y-93960000D01*
X-231350000Y-92910000D02*
X-231350000Y-101220000D01*
X-231350000Y-101220000D02*
X-233050000Y-102920000D01*
X-233050000Y-102920000D02*
X-241010000Y-102920000D01*
X-241010000Y-102920000D02*
X-241010000Y-102920000D01*
%TO.N,A_V+*%
X-233630000Y-84960000D02*
X-236080000Y-82510000D01*
X-312272188Y-27132188D02*
X-344750000Y-59610000D01*
X-233630000Y-96190000D02*
X-233630000Y-84960000D01*
X-234790000Y-97350000D02*
X-233630000Y-96190000D01*
X-236080000Y-82510000D02*
X-237910000Y-82510000D01*
X-344750000Y-59610000D02*
X-344750000Y-82680000D01*
X-330080000Y-97350000D02*
X-234790000Y-97350000D01*
X-255365800Y-30302200D02*
X-255365800Y-18265800D01*
X-254700000Y-17600000D02*
X-302760000Y-17600000D01*
X-312272188Y-27112188D02*
X-312272188Y-27132188D01*
X-255365800Y-18265800D02*
X-254700000Y-17600000D01*
X-344750000Y-82680000D02*
X-330080000Y-97350000D01*
X-302760000Y-17600000D02*
X-312272188Y-27112188D01*
%TO.N,A_V-*%
X-237910000Y-85050000D02*
X-236670000Y-85050000D01*
X-236670000Y-85050000D02*
X-235170000Y-86550000D01*
X-235170000Y-86550000D02*
X-235170000Y-92720000D01*
X-251865800Y-30302200D02*
X-251865800Y-18084200D01*
X-237200000Y-94750000D02*
X-237150000Y-94700000D01*
X-251865800Y-18084200D02*
X-251865800Y-17515800D01*
X-251865800Y-17515800D02*
X-251865800Y-15694200D01*
X-251865800Y-15694200D02*
X-251881600Y-15710000D01*
X-251881600Y-15710000D02*
X-305240000Y-15710000D01*
X-305240000Y-15710000D02*
X-305450000Y-15710000D01*
X-305450000Y-15710000D02*
X-347370000Y-57630000D01*
X-347370000Y-57630000D02*
X-347370000Y-83530000D01*
X-347370000Y-83530000D02*
X-330910000Y-99990000D01*
X-330910000Y-99990000D02*
X-239100000Y-99990000D01*
X-239100000Y-99990000D02*
X-239100000Y-99990000D01*
X-237150000Y-94700000D02*
X-235170000Y-92720000D01*
%TO.N,A_I-*%
X-244865800Y-37734200D02*
X-244760000Y-37840000D01*
X-244865800Y-30302200D02*
X-244865800Y-37734200D01*
X-240050000Y-37840000D02*
X-239910000Y-37700000D01*
X-244760000Y-37840000D02*
X-240050000Y-37840000D01*
X-249021600Y-44780200D02*
X-245050200Y-44780200D01*
X-244760000Y-44490000D02*
X-244760000Y-37840000D01*
X-245050200Y-44780200D02*
X-244760000Y-44490000D01*
X-237910000Y-87590000D02*
X-237910000Y-92730000D01*
X-237910000Y-92730000D02*
X-242220000Y-92730000D01*
X-242220000Y-92730000D02*
X-243350000Y-91600000D01*
X-243350000Y-91260000D02*
X-243240000Y-91150000D01*
X-243350000Y-91600000D02*
X-243350000Y-91260000D01*
X-243240000Y-91150000D02*
X-328150000Y-91150000D01*
X-328150000Y-91150000D02*
X-338190000Y-81110000D01*
X-338190000Y-81110000D02*
X-338190000Y-80860000D01*
X-338190000Y-80860000D02*
X-338940000Y-80110000D01*
X-338940000Y-80110000D02*
X-338940000Y-61340000D01*
X-338940000Y-61340000D02*
X-318430000Y-40830000D01*
X-318430000Y-40830000D02*
X-287470000Y-40830000D01*
X-287470000Y-40830000D02*
X-287470000Y-40830000D01*
%TO.N,Net-(J4-Pad2)*%
X-299690000Y-76290000D02*
X-299690000Y-62410000D01*
X-299690000Y-62410000D02*
X-299670000Y-62390000D01*
X-299690000Y-62410000D02*
X-276430000Y-62410000D01*
X-276430000Y-62410000D02*
X-275610000Y-61590000D01*
X-275610000Y-61590000D02*
X-275610000Y-61590000D01*
%TO.N,A_I-_EXT*%
X-248365800Y-33934200D02*
X-248365800Y-30302200D01*
X-247300000Y-35000000D02*
X-248365800Y-33934200D01*
X-247300000Y-35670000D02*
X-247300000Y-35000000D01*
X-247300000Y-37840000D02*
X-247300000Y-35670000D01*
X-262394400Y-36474400D02*
X-262500000Y-36580000D01*
X-251894400Y-36474400D02*
X-262394400Y-36474400D01*
X-251090000Y-35670000D02*
X-251894400Y-36474400D01*
X-247300000Y-35670000D02*
X-251090000Y-35670000D01*
X-262500000Y-36580000D02*
X-268780000Y-36580000D01*
X-269341600Y-37141600D02*
X-269341600Y-44780200D01*
X-268780000Y-36580000D02*
X-269341600Y-37141600D01*
D22*
%TO.N,Net-(R3-Pad1)*%
X-256630000Y-67350000D02*
X-258750000Y-67350000D01*
X-258750000Y-67350000D02*
X-258750000Y-68060000D01*
D24*
X-278810000Y-76900000D02*
X-272490000Y-76900000D01*
X-272490000Y-76900000D02*
X-270790000Y-75200000D01*
X-270790000Y-75200000D02*
X-270790000Y-70340000D01*
X-270790000Y-70340000D02*
X-270110000Y-69660000D01*
X-260350000Y-69660000D02*
X-258750000Y-68060000D01*
X-270110000Y-69660000D02*
X-260350000Y-69660000D01*
D22*
%TO.N,Net-(R4-Pad2)*%
X-256630000Y-67850000D02*
X-256630000Y-69060000D01*
X-256630000Y-69060000D02*
X-256600000Y-69090000D01*
D24*
X-256630000Y-69060000D02*
X-256630000Y-71600000D01*
X-256630000Y-71600000D02*
X-256790000Y-71760000D01*
X-256790000Y-71760000D02*
X-268580000Y-71760000D01*
X-268580000Y-71760000D02*
X-268720000Y-71760000D01*
X-268720000Y-71760000D02*
X-268720000Y-71760000D01*
%TO.N,CLK0*%
X-223100000Y-62050000D02*
X-219180000Y-62050000D01*
X-278020000Y-45690000D02*
X-283600000Y-45690000D01*
X-283600000Y-45690000D02*
X-283890000Y-45400000D01*
X-283890000Y-45400000D02*
X-283890000Y-38020000D01*
X-283890000Y-38020000D02*
X-283900000Y-38010000D01*
X-283900000Y-38010000D02*
X-303480000Y-38010000D01*
X-302870000Y-37400000D02*
X-302870000Y-30810000D01*
X-303480000Y-38010000D02*
X-302870000Y-37400000D01*
X-219180000Y-62050000D02*
X-219180000Y-62050000D01*
X-219180000Y-62050000D02*
X-218060000Y-62050000D01*
%TO.N,GPIO6*%
X-198958200Y-87778200D02*
X-198930000Y-87750000D01*
X-198958200Y-92098200D02*
X-198958200Y-87778200D01*
X-222790000Y-92220000D02*
X-199080000Y-92220000D01*
X-199080000Y-92220000D02*
X-198958200Y-92098200D01*
X-223100000Y-92530000D02*
X-222790000Y-92220000D01*
D22*
%TO.N,Net-(TP2-Pad1)*%
X-256630000Y-65850000D02*
X-256630000Y-63550000D01*
X-256630000Y-63550000D02*
X-256640000Y-63540000D01*
X-256630000Y-63550000D02*
X-256630000Y-63550000D01*
%TO.N,Net-(JP2-Pad1)*%
X-252230000Y-65850000D02*
X-252230000Y-64610000D01*
X-252230000Y-64610000D02*
X-252250000Y-64590000D01*
X-252250000Y-64590000D02*
X-252250000Y-64590000D01*
D24*
X-277320000Y-67120000D02*
X-272680000Y-67120000D01*
X-272680000Y-67120000D02*
X-261470000Y-55910000D01*
X-261470000Y-55910000D02*
X-261470000Y-55910000D01*
D22*
%TO.N,Net-(JP4-Pad1)*%
X-252230000Y-66350000D02*
X-250800000Y-66350000D01*
X-250800000Y-66350000D02*
X-250790000Y-66350000D01*
X-250800000Y-66350000D02*
X-250800000Y-65700000D01*
X-250800000Y-65700000D02*
X-250820000Y-65680000D01*
D24*
X-294020000Y-71100000D02*
X-274160000Y-71100000D01*
X-274160000Y-71100000D02*
X-264650000Y-61590000D01*
X-264650000Y-61590000D02*
X-250840000Y-61590000D01*
X-250840000Y-65660000D02*
X-250820000Y-65680000D01*
X-250840000Y-61590000D02*
X-250840000Y-65660000D01*
%TD*%
D22*
%TO.N,GND*%
X-185336936Y-10229196D02*
X-185010004Y-25981357D01*
X-185209977Y-104370408D01*
X-186819923Y-117153530D01*
X-329452415Y-118267027D01*
X-351961107Y-96545230D01*
X-352639911Y-57630000D01*
X-348776773Y-57630000D01*
X-348770000Y-57698769D01*
X-348769999Y-83461221D01*
X-348776773Y-83530000D01*
X-348749743Y-83804447D01*
X-348713628Y-83923501D01*
X-348669689Y-84068349D01*
X-348539689Y-84311562D01*
X-348527329Y-84326622D01*
X-348408582Y-84471316D01*
X-348408579Y-84471319D01*
X-348364738Y-84524739D01*
X-348311318Y-84568580D01*
X-331948580Y-100931319D01*
X-331904739Y-100984739D01*
X-331691562Y-101159690D01*
X-331448349Y-101289690D01*
X-331264502Y-101345459D01*
X-331184449Y-101369743D01*
X-331157462Y-101372401D01*
X-330978777Y-101390000D01*
X-330978770Y-101390000D01*
X-330910001Y-101396773D01*
X-330841232Y-101390000D01*
X-239494178Y-101390000D01*
X-239242813Y-101440000D01*
X-238957187Y-101440000D01*
X-238677051Y-101384277D01*
X-238413167Y-101274973D01*
X-238175679Y-101116289D01*
X-237973711Y-100914321D01*
X-237815027Y-100676833D01*
X-237705723Y-100412949D01*
X-237650000Y-100132813D01*
X-237650000Y-99847187D01*
X-237705723Y-99567051D01*
X-237815027Y-99303167D01*
X-237973711Y-99065679D01*
X-238175679Y-98863711D01*
X-238345860Y-98750000D01*
X-234858769Y-98750000D01*
X-234790000Y-98756773D01*
X-234721231Y-98750000D01*
X-234721223Y-98750000D01*
X-234515552Y-98729743D01*
X-234251651Y-98649690D01*
X-234008438Y-98519690D01*
X-233795261Y-98344739D01*
X-233751416Y-98291314D01*
X-232749999Y-97289898D01*
X-232749999Y-100640100D01*
X-233629898Y-101520000D01*
X-240615822Y-101520000D01*
X-240867187Y-101470000D01*
X-241152813Y-101470000D01*
X-241432949Y-101525723D01*
X-241696833Y-101635027D01*
X-241934321Y-101793711D01*
X-242136289Y-101995679D01*
X-242294973Y-102233167D01*
X-242404277Y-102497051D01*
X-242460000Y-102777187D01*
X-242460000Y-103062813D01*
X-242404277Y-103342949D01*
X-242294973Y-103606833D01*
X-242136289Y-103844321D01*
X-241934321Y-104046289D01*
X-241696833Y-104204973D01*
X-241432949Y-104314277D01*
X-241152813Y-104370000D01*
X-240867187Y-104370000D01*
X-240615822Y-104320000D01*
X-233118769Y-104320000D01*
X-233050000Y-104326773D01*
X-232981231Y-104320000D01*
X-232981223Y-104320000D01*
X-232775552Y-104299743D01*
X-232511651Y-104219690D01*
X-232268438Y-104089690D01*
X-232055261Y-103914739D01*
X-232011416Y-103861314D01*
X-230408681Y-102258580D01*
X-230355261Y-102214739D01*
X-230302130Y-102150000D01*
X-230239054Y-102073141D01*
X-230180310Y-102001562D01*
X-230050310Y-101758349D01*
X-229970257Y-101494448D01*
X-229950000Y-101288777D01*
X-229950000Y-101288770D01*
X-229943227Y-101220001D01*
X-229950000Y-101151232D01*
X-229950000Y-93304178D01*
X-229900000Y-93052813D01*
X-229900000Y-92767187D01*
X-229955723Y-92487051D01*
X-230065027Y-92223167D01*
X-230223711Y-91985679D01*
X-230425679Y-91783711D01*
X-230663167Y-91625027D01*
X-230927051Y-91515723D01*
X-231207187Y-91460000D01*
X-231492813Y-91460000D01*
X-231772949Y-91515723D01*
X-232036833Y-91625027D01*
X-232230000Y-91754097D01*
X-232230000Y-85028768D01*
X-232223227Y-84959999D01*
X-232230000Y-84891230D01*
X-232230000Y-84891223D01*
X-232247599Y-84712538D01*
X-232250257Y-84685551D01*
X-232303510Y-84510000D01*
X-232330310Y-84421651D01*
X-232460310Y-84178438D01*
X-232635261Y-83965261D01*
X-232688681Y-83921420D01*
X-232840101Y-83770000D01*
X-227283656Y-83770000D01*
X-227412377Y-83962645D01*
X-227563141Y-84326622D01*
X-227640000Y-84713017D01*
X-227640000Y-85106983D01*
X-227563141Y-85493378D01*
X-227412377Y-85857355D01*
X-227196792Y-86180000D01*
X-227412377Y-86502645D01*
X-227563141Y-86866622D01*
X-227640000Y-87253017D01*
X-227640000Y-87646983D01*
X-227563141Y-88033378D01*
X-227412377Y-88397355D01*
X-227196792Y-88720000D01*
X-227412377Y-89042645D01*
X-227563141Y-89406622D01*
X-227640000Y-89793017D01*
X-227640000Y-90186983D01*
X-227563141Y-90573378D01*
X-227412377Y-90937355D01*
X-227196792Y-91260000D01*
X-227412377Y-91582645D01*
X-227563141Y-91946622D01*
X-227640000Y-92333017D01*
X-227640000Y-92726983D01*
X-227563141Y-93113378D01*
X-227412377Y-93477355D01*
X-227196792Y-93800000D01*
X-227412377Y-94122645D01*
X-227563141Y-94486622D01*
X-227640000Y-94873017D01*
X-227640000Y-95266983D01*
X-227563141Y-95653378D01*
X-227412377Y-96017355D01*
X-227196792Y-96340000D01*
X-227412377Y-96662645D01*
X-227563141Y-97026622D01*
X-227640000Y-97413017D01*
X-227640000Y-97806983D01*
X-227563141Y-98193378D01*
X-227412377Y-98557355D01*
X-227196792Y-98880000D01*
X-227412377Y-99202645D01*
X-227563141Y-99566622D01*
X-227640000Y-99953017D01*
X-227640000Y-100346983D01*
X-227563141Y-100733378D01*
X-227412377Y-101097355D01*
X-227196792Y-101420000D01*
X-227412377Y-101742645D01*
X-227563141Y-102106622D01*
X-227640000Y-102493017D01*
X-227640000Y-102886983D01*
X-227563141Y-103273378D01*
X-227412377Y-103637355D01*
X-227193501Y-103964926D01*
X-226914926Y-104243501D01*
X-226587355Y-104462377D01*
X-226223378Y-104613141D01*
X-225836983Y-104690000D01*
X-225443017Y-104690000D01*
X-225056622Y-104613141D01*
X-224692645Y-104462377D01*
X-224365074Y-104243501D01*
X-224355851Y-104234278D01*
X-224187304Y-104368624D01*
X-223838928Y-104548492D01*
X-223462156Y-104656939D01*
X-223150000Y-104401876D01*
X-223150000Y-102740000D01*
X-223050000Y-102740000D01*
X-223050000Y-104401876D01*
X-222737844Y-104656939D01*
X-222361072Y-104548492D01*
X-222012696Y-104368624D01*
X-221706105Y-104124247D01*
X-221453081Y-103824753D01*
X-221263347Y-103481651D01*
X-221144194Y-103108126D01*
X-221133062Y-103052156D01*
X-221388230Y-102740000D01*
X-223050000Y-102740000D01*
X-223150000Y-102740000D01*
X-223170000Y-102740000D01*
X-223170000Y-102640000D01*
X-223150000Y-102640000D01*
X-223150000Y-102620000D01*
X-223050000Y-102620000D01*
X-223050000Y-102640000D01*
X-221388230Y-102640000D01*
X-221133062Y-102327844D01*
X-221144194Y-102271874D01*
X-221263347Y-101898349D01*
X-221453081Y-101555247D01*
X-221555542Y-101433969D01*
X-221546499Y-101424926D01*
X-221327623Y-101097355D01*
X-221176859Y-100733378D01*
X-221100000Y-100346983D01*
X-221100000Y-99953017D01*
X-221144530Y-99729149D01*
X-207750000Y-99729149D01*
X-207750000Y-100270851D01*
X-207644319Y-100802145D01*
X-207437018Y-101302613D01*
X-207136064Y-101753023D01*
X-206753023Y-102136064D01*
X-206302613Y-102437018D01*
X-205802145Y-102644319D01*
X-205270851Y-102750000D01*
X-204729149Y-102750000D01*
X-204197855Y-102644319D01*
X-203697387Y-102437018D01*
X-203246977Y-102136064D01*
X-202863936Y-101753023D01*
X-202562982Y-101302613D01*
X-202355681Y-100802145D01*
X-202250000Y-100270851D01*
X-202250000Y-99729149D01*
X-202355681Y-99197855D01*
X-202562982Y-98697387D01*
X-202863936Y-98246977D01*
X-203246977Y-97863936D01*
X-203697387Y-97562982D01*
X-204197855Y-97355681D01*
X-204729149Y-97250000D01*
X-205270851Y-97250000D01*
X-205802145Y-97355681D01*
X-206302613Y-97562982D01*
X-206753023Y-97863936D01*
X-207136064Y-98246977D01*
X-207437018Y-98697387D01*
X-207644319Y-99197855D01*
X-207750000Y-99729149D01*
X-221144530Y-99729149D01*
X-221176859Y-99566622D01*
X-221327623Y-99202645D01*
X-221543208Y-98880000D01*
X-221327623Y-98557355D01*
X-221176859Y-98193378D01*
X-221100000Y-97806983D01*
X-221100000Y-97413017D01*
X-221176859Y-97026622D01*
X-221327623Y-96662645D01*
X-221543208Y-96340000D01*
X-221327623Y-96017355D01*
X-221176859Y-95653378D01*
X-221100000Y-95266983D01*
X-221100000Y-94873017D01*
X-221176859Y-94486622D01*
X-221327623Y-94122645D01*
X-221543208Y-93800000D01*
X-221422935Y-93620000D01*
X-199148769Y-93620000D01*
X-199080000Y-93626773D01*
X-199011231Y-93620000D01*
X-199011223Y-93620000D01*
X-198805552Y-93599743D01*
X-198541651Y-93519690D01*
X-198298438Y-93389690D01*
X-198085261Y-93214739D01*
X-198041416Y-93161314D01*
X-198016882Y-93136780D01*
X-197963462Y-93092939D01*
X-197788510Y-92879762D01*
X-197658510Y-92636549D01*
X-197578457Y-92372648D01*
X-197558200Y-92166977D01*
X-197558200Y-92166970D01*
X-197551427Y-92098201D01*
X-197558200Y-92029432D01*
X-197558200Y-89625063D01*
X-197438003Y-89560816D01*
X-197262893Y-89417107D01*
X-197119184Y-89241997D01*
X-197012398Y-89042215D01*
X-196946640Y-88825439D01*
X-196924436Y-88600000D01*
X-196924436Y-86900000D01*
X-196946640Y-86674561D01*
X-197012398Y-86457785D01*
X-197119184Y-86258003D01*
X-197188441Y-86173613D01*
X-197093347Y-86001651D01*
X-196974194Y-85628126D01*
X-196963062Y-85572156D01*
X-197218230Y-85260000D01*
X-198880000Y-85260000D01*
X-198880000Y-85280000D01*
X-198980000Y-85280000D01*
X-198980000Y-85260000D01*
X-200641770Y-85260000D01*
X-200896938Y-85572156D01*
X-200885806Y-85628126D01*
X-200766653Y-86001651D01*
X-200671559Y-86173613D01*
X-200740816Y-86258003D01*
X-200847602Y-86457785D01*
X-200913360Y-86674561D01*
X-200935564Y-86900000D01*
X-200935564Y-88600000D01*
X-200913360Y-88825439D01*
X-200847602Y-89042215D01*
X-200740816Y-89241997D01*
X-200597107Y-89417107D01*
X-200421997Y-89560816D01*
X-200358199Y-89594917D01*
X-200358200Y-90820000D01*
X-221279013Y-90820000D01*
X-221176859Y-90573378D01*
X-221100000Y-90186983D01*
X-221100000Y-89793017D01*
X-221176859Y-89406622D01*
X-221327623Y-89042645D01*
X-221543208Y-88720000D01*
X-221327623Y-88397355D01*
X-221176859Y-88033378D01*
X-221100000Y-87646983D01*
X-221100000Y-87253017D01*
X-221176859Y-86866622D01*
X-221327623Y-86502645D01*
X-221543208Y-86180000D01*
X-221327623Y-85857355D01*
X-221176859Y-85493378D01*
X-221100000Y-85106983D01*
X-221100000Y-84847844D01*
X-200896938Y-84847844D01*
X-200641770Y-85160000D01*
X-198980000Y-85160000D01*
X-198980000Y-83498124D01*
X-198880000Y-83498124D01*
X-198880000Y-85160000D01*
X-197218230Y-85160000D01*
X-196963062Y-84847844D01*
X-196974194Y-84791874D01*
X-197093347Y-84418349D01*
X-197283081Y-84075247D01*
X-197536105Y-83775753D01*
X-197842696Y-83531376D01*
X-198191072Y-83351508D01*
X-198567844Y-83243061D01*
X-198880000Y-83498124D01*
X-198980000Y-83498124D01*
X-199292156Y-83243061D01*
X-199668928Y-83351508D01*
X-200017304Y-83531376D01*
X-200323895Y-83775753D01*
X-200576919Y-84075247D01*
X-200766653Y-84418349D01*
X-200885806Y-84791874D01*
X-200896938Y-84847844D01*
X-221100000Y-84847844D01*
X-221100000Y-84713017D01*
X-221176859Y-84326622D01*
X-221327623Y-83962645D01*
X-221543208Y-83640000D01*
X-221327623Y-83317355D01*
X-221176859Y-82953378D01*
X-221100000Y-82566983D01*
X-221100000Y-82173017D01*
X-221176859Y-81786622D01*
X-221327623Y-81422645D01*
X-221456344Y-81230000D01*
X-216855209Y-81230000D01*
X-216721552Y-81339690D01*
X-216478339Y-81469690D01*
X-216214438Y-81549743D01*
X-216008767Y-81570000D01*
X-216008759Y-81570000D01*
X-215939990Y-81576773D01*
X-215871221Y-81570000D01*
X-213664178Y-81570000D01*
X-213412813Y-81620000D01*
X-213127187Y-81620000D01*
X-212847051Y-81564277D01*
X-212583167Y-81454973D01*
X-212345679Y-81296289D01*
X-212143711Y-81094321D01*
X-211985027Y-80856833D01*
X-211875723Y-80592949D01*
X-211820000Y-80312813D01*
X-211820000Y-80027187D01*
X-211875723Y-79747051D01*
X-211985027Y-79483167D01*
X-212143711Y-79245679D01*
X-212345679Y-79043711D01*
X-212583167Y-78885027D01*
X-212847051Y-78775723D01*
X-213127187Y-78720000D01*
X-213412813Y-78720000D01*
X-213664178Y-78770000D01*
X-215260758Y-78770000D01*
X-215045679Y-78626289D01*
X-214843711Y-78424321D01*
X-214685027Y-78186833D01*
X-214575723Y-77922949D01*
X-214520000Y-77642813D01*
X-214520000Y-77357187D01*
X-214575723Y-77077051D01*
X-214685027Y-76813167D01*
X-214843711Y-76575679D01*
X-215045679Y-76373711D01*
X-215283167Y-76215027D01*
X-215547051Y-76105723D01*
X-215827187Y-76050000D01*
X-216112813Y-76050000D01*
X-216364178Y-76100000D01*
X-221489753Y-76100000D01*
X-221543208Y-76020000D01*
X-221327623Y-75697355D01*
X-221176859Y-75333378D01*
X-221100000Y-74946983D01*
X-221100000Y-74553017D01*
X-221176859Y-74166622D01*
X-221327623Y-73802645D01*
X-221543208Y-73480000D01*
X-221327623Y-73157355D01*
X-221176859Y-72793378D01*
X-221100000Y-72406983D01*
X-221100000Y-72013017D01*
X-221176859Y-71626622D01*
X-221327623Y-71262645D01*
X-221543208Y-70940000D01*
X-221327623Y-70617355D01*
X-221176859Y-70253378D01*
X-221100000Y-69866983D01*
X-221100000Y-69473017D01*
X-221176859Y-69086622D01*
X-221327623Y-68722645D01*
X-221543208Y-68400000D01*
X-221327623Y-68077355D01*
X-221176859Y-67713378D01*
X-221100000Y-67326983D01*
X-221100000Y-66933017D01*
X-221176859Y-66546622D01*
X-221327623Y-66182645D01*
X-221543208Y-65860000D01*
X-221327623Y-65537355D01*
X-221176859Y-65173378D01*
X-221100000Y-64786983D01*
X-221100000Y-64393017D01*
X-221176859Y-64006622D01*
X-221327623Y-63642645D01*
X-221456344Y-63450000D01*
X-218454178Y-63450000D01*
X-218202813Y-63500000D01*
X-217917187Y-63500000D01*
X-217637051Y-63444277D01*
X-217373167Y-63334973D01*
X-217135679Y-63176289D01*
X-216933711Y-62974321D01*
X-216775027Y-62736833D01*
X-216665723Y-62472949D01*
X-216610000Y-62192813D01*
X-216610000Y-61907187D01*
X-216665723Y-61627051D01*
X-216775027Y-61363167D01*
X-216933711Y-61125679D01*
X-217135679Y-60923711D01*
X-217373167Y-60765027D01*
X-217637051Y-60655723D01*
X-217917187Y-60600000D01*
X-218202813Y-60600000D01*
X-218454178Y-60650000D01*
X-218592261Y-60650000D01*
X-218436255Y-60521968D01*
X-218240679Y-60391289D01*
X-218038711Y-60189321D01*
X-217896322Y-59976220D01*
X-217550102Y-59630001D01*
X-203888770Y-59630001D01*
X-203820001Y-59636774D01*
X-203751232Y-59630001D01*
X-203751224Y-59630001D01*
X-203545553Y-59609744D01*
X-203281652Y-59529691D01*
X-203038439Y-59399691D01*
X-202825262Y-59224740D01*
X-202781417Y-59171315D01*
X-201401502Y-57791401D01*
X-198930170Y-57791401D01*
X-198861401Y-57798174D01*
X-198792632Y-57791401D01*
X-198792624Y-57791401D01*
X-198586953Y-57771144D01*
X-198323052Y-57691091D01*
X-198079839Y-57561091D01*
X-197866662Y-57386140D01*
X-197822817Y-57332715D01*
X-196628677Y-56138575D01*
X-196575262Y-56094739D01*
X-196531424Y-56041323D01*
X-196531418Y-56041317D01*
X-196448524Y-55940310D01*
X-196400310Y-55881562D01*
X-196270310Y-55638349D01*
X-196190257Y-55374448D01*
X-196170000Y-55168777D01*
X-196170000Y-55168769D01*
X-196163227Y-55100000D01*
X-196170000Y-55031231D01*
X-196170000Y-23518768D01*
X-196163227Y-23449999D01*
X-196170000Y-23381230D01*
X-196170000Y-23381223D01*
X-196190257Y-23175552D01*
X-196270310Y-22911651D01*
X-196400310Y-22668438D01*
X-196575261Y-22455261D01*
X-196628686Y-22411416D01*
X-196681416Y-22358686D01*
X-196725261Y-22305261D01*
X-196938438Y-22130310D01*
X-197181651Y-22000310D01*
X-197445552Y-21920257D01*
X-197651223Y-21900000D01*
X-197651231Y-21900000D01*
X-197720000Y-21893227D01*
X-197788769Y-21900000D01*
X-207931231Y-21900000D01*
X-208000000Y-21893227D01*
X-208068769Y-21900000D01*
X-208068777Y-21900000D01*
X-208274448Y-21920257D01*
X-208538349Y-22000310D01*
X-208781562Y-22130310D01*
X-208994739Y-22305261D01*
X-208995012Y-22305594D01*
X-208995339Y-22305862D01*
X-209170290Y-22519039D01*
X-209300290Y-22762252D01*
X-209380343Y-23026153D01*
X-209400600Y-23231824D01*
X-209400600Y-23231831D01*
X-209407373Y-23300600D01*
X-209400600Y-23369369D01*
X-209400599Y-27961407D01*
X-209744897Y-27770957D01*
X-210120214Y-27651183D01*
X-210511687Y-27606931D01*
X-210904271Y-27639901D01*
X-211282879Y-27748827D01*
X-211632961Y-27929523D01*
X-211680600Y-27961356D01*
X-211680600Y-24829369D01*
X-211673827Y-24760600D01*
X-211680600Y-24691831D01*
X-211680600Y-24691823D01*
X-211700857Y-24486152D01*
X-211780910Y-24222251D01*
X-211910910Y-23979038D01*
X-212085861Y-23765861D01*
X-212299038Y-23590910D01*
X-212542251Y-23460910D01*
X-212806152Y-23380857D01*
X-213080600Y-23353826D01*
X-213244815Y-23370000D01*
X-219121231Y-23370000D01*
X-219190000Y-23363227D01*
X-219258769Y-23370000D01*
X-219258777Y-23370000D01*
X-219464448Y-23390257D01*
X-219728349Y-23470310D01*
X-219971562Y-23600310D01*
X-220184739Y-23775261D01*
X-220228582Y-23828684D01*
X-221011318Y-24611420D01*
X-221064739Y-24655262D01*
X-221239690Y-24868439D01*
X-221369690Y-25111652D01*
X-221449743Y-25375553D01*
X-221470000Y-25581224D01*
X-221470000Y-25581231D01*
X-221476773Y-25650000D01*
X-221470000Y-25718769D01*
X-221469999Y-34605817D01*
X-221520000Y-34857187D01*
X-221520000Y-35142813D01*
X-221464277Y-35422949D01*
X-221354973Y-35686833D01*
X-221196289Y-35924321D01*
X-220994321Y-36126289D01*
X-220756833Y-36284973D01*
X-220492949Y-36394277D01*
X-220212813Y-36450000D01*
X-219927187Y-36450000D01*
X-219647051Y-36394277D01*
X-219383167Y-36284973D01*
X-219145679Y-36126289D01*
X-218943711Y-35924321D01*
X-218785027Y-35686833D01*
X-218675723Y-35422949D01*
X-218620000Y-35142813D01*
X-218620000Y-34857187D01*
X-218670000Y-34605822D01*
X-218670000Y-26229898D01*
X-218610102Y-26170000D01*
X-216789466Y-26170000D01*
X-216905573Y-26343767D01*
X-217014877Y-26607651D01*
X-217070600Y-26887787D01*
X-217070600Y-27173413D01*
X-217020599Y-27424782D01*
X-217020599Y-28187972D01*
X-217174101Y-28341474D01*
X-217392977Y-28669045D01*
X-217543741Y-29033022D01*
X-217620600Y-29419417D01*
X-217620600Y-29813383D01*
X-217543741Y-30199778D01*
X-217392977Y-30563755D01*
X-217313328Y-30682958D01*
X-217389284Y-30775510D01*
X-217519172Y-31018514D01*
X-217599156Y-31282188D01*
X-217626164Y-31556400D01*
X-217626164Y-32756400D01*
X-217599156Y-33030612D01*
X-217519172Y-33294286D01*
X-217389284Y-33537290D01*
X-217214484Y-33750284D01*
X-217020599Y-33909401D01*
X-217020599Y-34500701D01*
X-217601220Y-35081322D01*
X-217814321Y-35223711D01*
X-218016289Y-35425679D01*
X-218174973Y-35663167D01*
X-218284277Y-35927051D01*
X-218340000Y-36207187D01*
X-218340000Y-36492813D01*
X-218284277Y-36772949D01*
X-218174973Y-37036833D01*
X-218016289Y-37274321D01*
X-217814321Y-37476289D01*
X-217576833Y-37634973D01*
X-217312949Y-37744277D01*
X-217032813Y-37800000D01*
X-216747187Y-37800000D01*
X-216467051Y-37744277D01*
X-216203167Y-37634973D01*
X-215965679Y-37476289D01*
X-215763711Y-37274321D01*
X-215621322Y-37061220D01*
X-214679281Y-36119180D01*
X-214625861Y-36075339D01*
X-214556035Y-35990257D01*
X-214511550Y-35936051D01*
X-214480599Y-35898338D01*
X-214480599Y-37940700D01*
X-225081220Y-48541322D01*
X-225294321Y-48683711D01*
X-225496289Y-48885679D01*
X-225654973Y-49123167D01*
X-225764277Y-49387051D01*
X-225782766Y-49480000D01*
X-233911223Y-49480000D01*
X-233980000Y-49473226D01*
X-234048777Y-49480000D01*
X-237100102Y-49480000D01*
X-237161416Y-49418686D01*
X-237205261Y-49365261D01*
X-237418438Y-49190310D01*
X-237661651Y-49060310D01*
X-237925552Y-48980257D01*
X-238131223Y-48960000D01*
X-238131231Y-48960000D01*
X-238200000Y-48953227D01*
X-238268769Y-48960000D01*
X-270230101Y-48960000D01*
X-276014436Y-43175666D01*
X-276014436Y-42300000D01*
X-276036640Y-42074561D01*
X-276102398Y-41857785D01*
X-276209184Y-41658003D01*
X-276352893Y-41482893D01*
X-276528003Y-41339184D01*
X-276620000Y-41290010D01*
X-276620000Y-31028768D01*
X-276613227Y-30959999D01*
X-276620000Y-30891230D01*
X-276620000Y-30891223D01*
X-276640257Y-30685552D01*
X-276720310Y-30421651D01*
X-276850310Y-30178438D01*
X-276966562Y-30036786D01*
X-276981418Y-30018684D01*
X-276981420Y-30018682D01*
X-277025262Y-29965261D01*
X-277078682Y-29921420D01*
X-277131416Y-29868686D01*
X-277175261Y-29815261D01*
X-277388438Y-29640310D01*
X-277631651Y-29510310D01*
X-277895552Y-29430257D01*
X-278101223Y-29410000D01*
X-278101231Y-29410000D01*
X-278170000Y-29403227D01*
X-278238769Y-29410000D01*
X-280659129Y-29410000D01*
X-280724636Y-29311962D01*
X-281051962Y-28984636D01*
X-281436857Y-28727457D01*
X-281864530Y-28550309D01*
X-282318545Y-28460000D01*
X-282781455Y-28460000D01*
X-283235470Y-28550309D01*
X-283663143Y-28727457D01*
X-284048038Y-28984636D01*
X-284375364Y-29311962D01*
X-284632543Y-29696857D01*
X-284809691Y-30124530D01*
X-284900000Y-30578545D01*
X-284900000Y-31041455D01*
X-284809691Y-31495470D01*
X-284632543Y-31923143D01*
X-284375364Y-32308038D01*
X-284048038Y-32635364D01*
X-283663143Y-32892543D01*
X-283235470Y-33069691D01*
X-282781455Y-33160000D01*
X-282318545Y-33160000D01*
X-281864530Y-33069691D01*
X-281436857Y-32892543D01*
X-281051962Y-32635364D01*
X-280724636Y-32308038D01*
X-280659129Y-32210000D01*
X-279420000Y-32210000D01*
X-279419999Y-41290010D01*
X-279511997Y-41339184D01*
X-279687107Y-41482893D01*
X-279830816Y-41658003D01*
X-279937602Y-41857785D01*
X-280003360Y-42074561D01*
X-280025564Y-42300000D01*
X-280025564Y-44000000D01*
X-280003360Y-44225439D01*
X-279983776Y-44290000D01*
X-282490000Y-44290000D01*
X-282490000Y-38088768D01*
X-282483227Y-38019999D01*
X-282490000Y-37951230D01*
X-282490000Y-37951223D01*
X-282510257Y-37745552D01*
X-282590310Y-37481651D01*
X-282720310Y-37238438D01*
X-282895261Y-37025261D01*
X-282900753Y-37020753D01*
X-282905261Y-37015261D01*
X-283118438Y-36840310D01*
X-283361651Y-36710310D01*
X-283625552Y-36630257D01*
X-283831223Y-36610000D01*
X-283831231Y-36610000D01*
X-283900000Y-36603227D01*
X-283968769Y-36610000D01*
X-301470000Y-36610000D01*
X-301470000Y-32700871D01*
X-301371962Y-32635364D01*
X-301044636Y-32308038D01*
X-300787457Y-31923143D01*
X-300610309Y-31495470D01*
X-300520000Y-31041455D01*
X-300520000Y-30578545D01*
X-300610309Y-30124530D01*
X-300787457Y-29696857D01*
X-301044636Y-29311962D01*
X-301371962Y-28984636D01*
X-301756857Y-28727457D01*
X-302184530Y-28550309D01*
X-302638545Y-28460000D01*
X-303101455Y-28460000D01*
X-303555470Y-28550309D01*
X-303983143Y-28727457D01*
X-304368038Y-28984636D01*
X-304695364Y-29311962D01*
X-304952543Y-29696857D01*
X-305129691Y-30124530D01*
X-305220000Y-30578545D01*
X-305220000Y-31041455D01*
X-305129691Y-31495470D01*
X-304952543Y-31923143D01*
X-304695364Y-32308038D01*
X-304368038Y-32635364D01*
X-304269999Y-32700871D01*
X-304270000Y-36820102D01*
X-304421314Y-36971416D01*
X-304474739Y-37015261D01*
X-304649690Y-37228438D01*
X-304779690Y-37471651D01*
X-304859743Y-37735552D01*
X-304886774Y-38010000D01*
X-304859743Y-38284448D01*
X-304779690Y-38548349D01*
X-304649690Y-38791562D01*
X-304474739Y-39004739D01*
X-304261562Y-39179690D01*
X-304018349Y-39309690D01*
X-303754448Y-39389743D01*
X-303548777Y-39410000D01*
X-303548769Y-39410000D01*
X-303480000Y-39416773D01*
X-303411231Y-39410000D01*
X-287763632Y-39410000D01*
X-287864178Y-39430000D01*
X-318361232Y-39430000D01*
X-318430001Y-39423227D01*
X-318498770Y-39430000D01*
X-318498777Y-39430000D01*
X-318677462Y-39447599D01*
X-318704449Y-39450257D01*
X-318784502Y-39474541D01*
X-318968349Y-39530310D01*
X-319211562Y-39660310D01*
X-319424739Y-39835261D01*
X-319468580Y-39888681D01*
X-339881318Y-60301420D01*
X-339934738Y-60345261D01*
X-339978579Y-60398681D01*
X-339978582Y-60398684D01*
X-340004071Y-60429743D01*
X-340109689Y-60558438D01*
X-340179252Y-60688581D01*
X-340239689Y-60801651D01*
X-340281600Y-60939813D01*
X-340281600Y-60549898D01*
X-301175901Y-21444200D01*
X-260265799Y-21444200D01*
X-260265800Y-27899181D01*
X-260322382Y-27945617D01*
X-260578559Y-28257770D01*
X-260768916Y-28613903D01*
X-260864129Y-28927779D01*
X-260906109Y-28716730D01*
X-261083257Y-28289057D01*
X-261340436Y-27904162D01*
X-261667762Y-27576836D01*
X-262052657Y-27319657D01*
X-262480330Y-27142509D01*
X-262934345Y-27052200D01*
X-263397255Y-27052200D01*
X-263851270Y-27142509D01*
X-264278943Y-27319657D01*
X-264663838Y-27576836D01*
X-264991164Y-27904162D01*
X-265248343Y-28289057D01*
X-265425491Y-28716730D01*
X-265515800Y-29170745D01*
X-265515800Y-29633655D01*
X-265425491Y-30087670D01*
X-265248343Y-30515343D01*
X-264991164Y-30900238D01*
X-264663838Y-31227564D01*
X-264278943Y-31484743D01*
X-263851270Y-31661891D01*
X-263397255Y-31752200D01*
X-262934345Y-31752200D01*
X-262480330Y-31661891D01*
X-262052657Y-31484743D01*
X-261667762Y-31227564D01*
X-261340436Y-30900238D01*
X-261083257Y-30515343D01*
X-260915800Y-30111066D01*
X-260915800Y-31302908D01*
X-260886138Y-31604069D01*
X-260768917Y-31990496D01*
X-260578560Y-32346630D01*
X-260322383Y-32658783D01*
X-260010230Y-32914960D01*
X-259654097Y-33105317D01*
X-259267670Y-33222538D01*
X-258865800Y-33262119D01*
X-258463931Y-33222538D01*
X-258077504Y-33105317D01*
X-257721370Y-32914960D01*
X-257409217Y-32658783D01*
X-257153040Y-32346630D01*
X-257115800Y-32276959D01*
X-257078560Y-32346630D01*
X-256822383Y-32658783D01*
X-256510230Y-32914960D01*
X-256154097Y-33105317D01*
X-255767670Y-33222538D01*
X-255365800Y-33262119D01*
X-254963931Y-33222538D01*
X-254577504Y-33105317D01*
X-254221370Y-32914960D01*
X-253909217Y-32658783D01*
X-253653040Y-32346630D01*
X-253615800Y-32276959D01*
X-253578560Y-32346630D01*
X-253322383Y-32658783D01*
X-253010230Y-32914960D01*
X-252654097Y-33105317D01*
X-252267670Y-33222538D01*
X-251865800Y-33262119D01*
X-251463931Y-33222538D01*
X-251077504Y-33105317D01*
X-250721370Y-32914960D01*
X-250409217Y-32658783D01*
X-250153040Y-32346630D01*
X-250115800Y-32276959D01*
X-250078560Y-32346630D01*
X-249822383Y-32658783D01*
X-249765800Y-32705220D01*
X-249765800Y-33865431D01*
X-249772573Y-33934200D01*
X-249765800Y-34002969D01*
X-249765800Y-34002976D01*
X-249745543Y-34208647D01*
X-249726932Y-34270000D01*
X-251021232Y-34270000D01*
X-251090001Y-34263227D01*
X-251158770Y-34270000D01*
X-251158777Y-34270000D01*
X-251337462Y-34287599D01*
X-251364449Y-34290257D01*
X-251393399Y-34299039D01*
X-251628349Y-34370310D01*
X-251871562Y-34500310D01*
X-252084739Y-34675261D01*
X-252128584Y-34728686D01*
X-252474298Y-35074400D01*
X-260700348Y-35074400D01*
X-260832893Y-34912893D01*
X-261008003Y-34769184D01*
X-261207785Y-34662398D01*
X-261424561Y-34596640D01*
X-261650000Y-34574436D01*
X-263350000Y-34574436D01*
X-263575439Y-34596640D01*
X-263792215Y-34662398D01*
X-263991997Y-34769184D01*
X-264167107Y-34912893D01*
X-264310816Y-35088003D01*
X-264359990Y-35180000D01*
X-268711232Y-35180000D01*
X-268780001Y-35173227D01*
X-268848770Y-35180000D01*
X-268848777Y-35180000D01*
X-269027462Y-35197599D01*
X-269054449Y-35200257D01*
X-269131766Y-35223711D01*
X-269318349Y-35280310D01*
X-269561562Y-35410310D01*
X-269774739Y-35585261D01*
X-269818582Y-35638684D01*
X-270282918Y-36103020D01*
X-270336339Y-36146862D01*
X-270380180Y-36200282D01*
X-270380182Y-36200284D01*
X-270404824Y-36230311D01*
X-270511290Y-36360039D01*
X-270641290Y-36603252D01*
X-270721343Y-36867153D01*
X-270741600Y-37072824D01*
X-270741600Y-37072831D01*
X-270748373Y-37141600D01*
X-270741600Y-37210369D01*
X-270741599Y-42889329D01*
X-270839638Y-42954836D01*
X-271166964Y-43282162D01*
X-271424143Y-43667057D01*
X-271601291Y-44094730D01*
X-271691600Y-44548745D01*
X-271691600Y-45011655D01*
X-271601291Y-45465670D01*
X-271424143Y-45893343D01*
X-271166964Y-46278238D01*
X-270839638Y-46605564D01*
X-270454743Y-46862743D01*
X-270027070Y-47039891D01*
X-269573055Y-47130200D01*
X-269110145Y-47130200D01*
X-268656130Y-47039891D01*
X-268228457Y-46862743D01*
X-267843562Y-46605564D01*
X-267516236Y-46278238D01*
X-267259057Y-45893343D01*
X-267081909Y-45465670D01*
X-266991600Y-45011655D01*
X-266991600Y-44548745D01*
X-267081909Y-44094730D01*
X-267259057Y-43667057D01*
X-267516236Y-43282162D01*
X-267843562Y-42954836D01*
X-267941600Y-42889329D01*
X-267941600Y-39482156D01*
X-264466938Y-39482156D01*
X-264455806Y-39538126D01*
X-264336653Y-39911651D01*
X-264146919Y-40254753D01*
X-263893895Y-40554247D01*
X-263587304Y-40798624D01*
X-263238928Y-40978492D01*
X-262862156Y-41086939D01*
X-262550000Y-40831876D01*
X-262550000Y-39170000D01*
X-262450000Y-39170000D01*
X-262450000Y-40831876D01*
X-262137844Y-41086939D01*
X-261761072Y-40978492D01*
X-261412696Y-40798624D01*
X-261106105Y-40554247D01*
X-260853081Y-40254753D01*
X-260663347Y-39911651D01*
X-260544194Y-39538126D01*
X-260533062Y-39482156D01*
X-260788230Y-39170000D01*
X-262450000Y-39170000D01*
X-262550000Y-39170000D01*
X-264211770Y-39170000D01*
X-264466938Y-39482156D01*
X-267941600Y-39482156D01*
X-267941600Y-37980000D01*
X-264359990Y-37980000D01*
X-264310816Y-38071997D01*
X-264241559Y-38156387D01*
X-264336653Y-38328349D01*
X-264455806Y-38701874D01*
X-264466938Y-38757844D01*
X-264211770Y-39070000D01*
X-262550000Y-39070000D01*
X-262550000Y-39050000D01*
X-262450000Y-39050000D01*
X-262450000Y-39070000D01*
X-260788230Y-39070000D01*
X-260533062Y-38757844D01*
X-260544194Y-38701874D01*
X-260663347Y-38328349D01*
X-260758441Y-38156387D01*
X-260689184Y-38071997D01*
X-260583566Y-37874400D01*
X-251963169Y-37874400D01*
X-251894400Y-37881173D01*
X-251825631Y-37874400D01*
X-251825623Y-37874400D01*
X-251619952Y-37854143D01*
X-251356051Y-37774090D01*
X-251112838Y-37644090D01*
X-250899661Y-37469139D01*
X-250855816Y-37415714D01*
X-250510102Y-37070000D01*
X-249305564Y-37070000D01*
X-249305564Y-38690000D01*
X-249283360Y-38915439D01*
X-249217602Y-39132215D01*
X-249110816Y-39331997D01*
X-248967107Y-39507107D01*
X-248791997Y-39650816D01*
X-248592215Y-39757602D01*
X-248375439Y-39823360D01*
X-248150000Y-39845564D01*
X-246450000Y-39845564D01*
X-246224561Y-39823360D01*
X-246159999Y-39803776D01*
X-246160000Y-43380200D01*
X-247130729Y-43380200D01*
X-247196236Y-43282162D01*
X-247523562Y-42954836D01*
X-247908457Y-42697657D01*
X-248336130Y-42520509D01*
X-248790145Y-42430200D01*
X-249253055Y-42430200D01*
X-249707070Y-42520509D01*
X-250134743Y-42697657D01*
X-250519638Y-42954836D01*
X-250846964Y-43282162D01*
X-251104143Y-43667057D01*
X-251281291Y-44094730D01*
X-251371600Y-44548745D01*
X-251371600Y-45011655D01*
X-251281291Y-45465670D01*
X-251104143Y-45893343D01*
X-250846964Y-46278238D01*
X-250519638Y-46605564D01*
X-250134743Y-46862743D01*
X-249707070Y-47039891D01*
X-249253055Y-47130200D01*
X-248790145Y-47130200D01*
X-248336130Y-47039891D01*
X-247908457Y-46862743D01*
X-247523562Y-46605564D01*
X-247196236Y-46278238D01*
X-247130729Y-46180200D01*
X-245118969Y-46180200D01*
X-245050200Y-46186973D01*
X-244981431Y-46180200D01*
X-244981423Y-46180200D01*
X-244775752Y-46159943D01*
X-244511851Y-46079890D01*
X-244268638Y-45949890D01*
X-244055461Y-45774939D01*
X-244011616Y-45721514D01*
X-243818682Y-45528580D01*
X-243765262Y-45484739D01*
X-243590310Y-45271562D01*
X-243460310Y-45028349D01*
X-243380257Y-44764448D01*
X-243360000Y-44558777D01*
X-243360000Y-44558769D01*
X-243353227Y-44490000D01*
X-243360000Y-44421231D01*
X-243360000Y-39268427D01*
X-243331573Y-39240000D01*
X-240118769Y-39240000D01*
X-240050000Y-39246773D01*
X-239981231Y-39240000D01*
X-239981223Y-39240000D01*
X-239775552Y-39219743D01*
X-239511651Y-39139690D01*
X-239268438Y-39009690D01*
X-239253762Y-38997646D01*
X-239223167Y-38984973D01*
X-238985679Y-38826289D01*
X-238783711Y-38624321D01*
X-238625027Y-38386833D01*
X-238515723Y-38122949D01*
X-238460000Y-37842813D01*
X-238460000Y-37557187D01*
X-238515723Y-37277051D01*
X-238625027Y-37013167D01*
X-238783711Y-36775679D01*
X-238985679Y-36573711D01*
X-239223167Y-36415027D01*
X-239487051Y-36305723D01*
X-239767187Y-36250000D01*
X-240052813Y-36250000D01*
X-240332949Y-36305723D01*
X-240596833Y-36415027D01*
X-240634208Y-36440000D01*
X-243331573Y-36440000D01*
X-243465800Y-36305773D01*
X-243465800Y-32705219D01*
X-243409217Y-32658783D01*
X-243153040Y-32346630D01*
X-243115800Y-32276959D01*
X-243078560Y-32346630D01*
X-242822383Y-32658783D01*
X-242510230Y-32914960D01*
X-242154097Y-33105317D01*
X-241767670Y-33222538D01*
X-241365800Y-33262119D01*
X-240963931Y-33222538D01*
X-240577504Y-33105317D01*
X-240221370Y-32914960D01*
X-239909217Y-32658783D01*
X-239653040Y-32346630D01*
X-239615800Y-32276959D01*
X-239578560Y-32346630D01*
X-239322383Y-32658783D01*
X-239010230Y-32914960D01*
X-238654097Y-33105317D01*
X-238267670Y-33222538D01*
X-237865800Y-33262119D01*
X-237463931Y-33222538D01*
X-237077504Y-33105317D01*
X-236721370Y-32914960D01*
X-236409217Y-32658783D01*
X-236326285Y-32557730D01*
X-236226616Y-32744197D01*
X-236082907Y-32919307D01*
X-235907797Y-33063016D01*
X-235708015Y-33169802D01*
X-235491239Y-33235560D01*
X-235265800Y-33257764D01*
X-234703300Y-33252200D01*
X-234415800Y-32964700D01*
X-234415800Y-30352200D01*
X-234315800Y-30352200D01*
X-234315800Y-32964700D01*
X-234028300Y-33252200D01*
X-233465800Y-33257764D01*
X-233240361Y-33235560D01*
X-233023585Y-33169802D01*
X-232823803Y-33063016D01*
X-232648693Y-32919307D01*
X-232504984Y-32744197D01*
X-232398198Y-32544415D01*
X-232332440Y-32327639D01*
X-232310236Y-32102200D01*
X-232315800Y-30639700D01*
X-232603300Y-30352200D01*
X-234315800Y-30352200D01*
X-234415800Y-30352200D01*
X-234435800Y-30352200D01*
X-234435800Y-30252200D01*
X-234415800Y-30252200D01*
X-234415800Y-27639700D01*
X-234315800Y-27639700D01*
X-234315800Y-30252200D01*
X-232603300Y-30252200D01*
X-232344285Y-29993185D01*
X-232325491Y-30087670D01*
X-232148343Y-30515343D01*
X-231891164Y-30900238D01*
X-231563838Y-31227564D01*
X-231178943Y-31484743D01*
X-230751270Y-31661891D01*
X-230297255Y-31752200D01*
X-229834345Y-31752200D01*
X-229380330Y-31661891D01*
X-228952657Y-31484743D01*
X-228567762Y-31227564D01*
X-228240436Y-30900238D01*
X-227983257Y-30515343D01*
X-227806109Y-30087670D01*
X-227715800Y-29633655D01*
X-227715800Y-29170745D01*
X-227806109Y-28716730D01*
X-227983257Y-28289057D01*
X-228240436Y-27904162D01*
X-228567762Y-27576836D01*
X-228952657Y-27319657D01*
X-229380330Y-27142509D01*
X-229834345Y-27052200D01*
X-230297255Y-27052200D01*
X-230751270Y-27142509D01*
X-231178943Y-27319657D01*
X-231563838Y-27576836D01*
X-231891164Y-27904162D01*
X-232148343Y-28289057D01*
X-232310918Y-28681548D01*
X-232310236Y-28502200D01*
X-232332440Y-28276761D01*
X-232398198Y-28059985D01*
X-232504984Y-27860203D01*
X-232648693Y-27685093D01*
X-232823803Y-27541384D01*
X-233023585Y-27434598D01*
X-233240361Y-27368840D01*
X-233465800Y-27346636D01*
X-234028300Y-27352200D01*
X-234315800Y-27639700D01*
X-234415800Y-27639700D01*
X-234703300Y-27352200D01*
X-235265800Y-27346636D01*
X-235491239Y-27368840D01*
X-235708015Y-27434598D01*
X-235907797Y-27541384D01*
X-236020000Y-27633467D01*
X-236020000Y-25084178D01*
X-235970000Y-24832813D01*
X-235970000Y-24547187D01*
X-236025723Y-24267051D01*
X-236135027Y-24003167D01*
X-236293711Y-23765679D01*
X-236495679Y-23563711D01*
X-236733167Y-23405027D01*
X-236997051Y-23295723D01*
X-237277187Y-23240000D01*
X-237562813Y-23240000D01*
X-237842949Y-23295723D01*
X-238106833Y-23405027D01*
X-238344321Y-23563711D01*
X-238546289Y-23765679D01*
X-238704973Y-24003167D01*
X-238814277Y-24267051D01*
X-238870000Y-24547187D01*
X-238870000Y-24832813D01*
X-238820000Y-25084178D01*
X-238819999Y-27587760D01*
X-239010229Y-27689440D01*
X-239322382Y-27945617D01*
X-239578559Y-28257770D01*
X-239615800Y-28327442D01*
X-239653040Y-28257770D01*
X-239909217Y-27945617D01*
X-240221370Y-27689440D01*
X-240577503Y-27499083D01*
X-240963930Y-27381862D01*
X-241365800Y-27342281D01*
X-241767669Y-27381862D01*
X-242154096Y-27499083D01*
X-242510229Y-27689440D01*
X-242822382Y-27945617D01*
X-243078559Y-28257770D01*
X-243115800Y-28327442D01*
X-243153040Y-28257770D01*
X-243409217Y-27945617D01*
X-243721370Y-27689440D01*
X-244077503Y-27499083D01*
X-244463930Y-27381862D01*
X-244865800Y-27342281D01*
X-245267669Y-27381862D01*
X-245654096Y-27499083D01*
X-246010229Y-27689440D01*
X-246322382Y-27945617D01*
X-246578559Y-28257770D01*
X-246615800Y-28327442D01*
X-246653040Y-28257770D01*
X-246909217Y-27945617D01*
X-247221370Y-27689440D01*
X-247577503Y-27499083D01*
X-247963930Y-27381862D01*
X-248365800Y-27342281D01*
X-248767669Y-27381862D01*
X-249154096Y-27499083D01*
X-249510229Y-27689440D01*
X-249822382Y-27945617D01*
X-250078559Y-28257770D01*
X-250115800Y-28327442D01*
X-250153040Y-28257770D01*
X-250409217Y-27945617D01*
X-250465800Y-27899181D01*
X-250465800Y-15762969D01*
X-250459027Y-15694200D01*
X-250465800Y-15625431D01*
X-250465800Y-15625423D01*
X-250486057Y-15419752D01*
X-250566110Y-15155851D01*
X-250696110Y-14912638D01*
X-250871061Y-14699461D01*
X-251084238Y-14524510D01*
X-251327451Y-14394510D01*
X-251591352Y-14314457D01*
X-251865800Y-14287426D01*
X-252094995Y-14310000D01*
X-305381231Y-14310000D01*
X-305450000Y-14303227D01*
X-305518769Y-14310000D01*
X-305518777Y-14310000D01*
X-305724448Y-14330257D01*
X-305988350Y-14410310D01*
X-306231562Y-14540310D01*
X-306372064Y-14655618D01*
X-306444739Y-14715261D01*
X-306488580Y-14768681D01*
X-348311318Y-56591420D01*
X-348364739Y-56635262D01*
X-348539690Y-56848439D01*
X-348669690Y-57091652D01*
X-348749743Y-57355553D01*
X-348770000Y-57561224D01*
X-348770000Y-57561231D01*
X-348776773Y-57630000D01*
X-352639911Y-57630000D01*
X-352748912Y-51381092D01*
X-310863257Y-9540341D01*
X-185336936Y-10229196D01*
%TA.AperFunction,Conductor*%
D26*
G36*
X-185336936Y-10229196D02*
G01*
X-185010004Y-25981357D01*
X-185209977Y-104370408D01*
X-186819923Y-117153530D01*
X-329452415Y-118267027D01*
X-351961107Y-96545230D01*
X-352639911Y-57630000D01*
X-348776773Y-57630000D01*
X-348770000Y-57698769D01*
X-348769999Y-83461221D01*
X-348776773Y-83530000D01*
X-348749743Y-83804447D01*
X-348713628Y-83923501D01*
X-348669689Y-84068349D01*
X-348539689Y-84311562D01*
X-348527329Y-84326622D01*
X-348408582Y-84471316D01*
X-348408579Y-84471319D01*
X-348364738Y-84524739D01*
X-348311318Y-84568580D01*
X-331948580Y-100931319D01*
X-331904739Y-100984739D01*
X-331691562Y-101159690D01*
X-331448349Y-101289690D01*
X-331264502Y-101345459D01*
X-331184449Y-101369743D01*
X-331157462Y-101372401D01*
X-330978777Y-101390000D01*
X-330978770Y-101390000D01*
X-330910001Y-101396773D01*
X-330841232Y-101390000D01*
X-239494178Y-101390000D01*
X-239242813Y-101440000D01*
X-238957187Y-101440000D01*
X-238677051Y-101384277D01*
X-238413167Y-101274973D01*
X-238175679Y-101116289D01*
X-237973711Y-100914321D01*
X-237815027Y-100676833D01*
X-237705723Y-100412949D01*
X-237650000Y-100132813D01*
X-237650000Y-99847187D01*
X-237705723Y-99567051D01*
X-237815027Y-99303167D01*
X-237973711Y-99065679D01*
X-238175679Y-98863711D01*
X-238345860Y-98750000D01*
X-234858769Y-98750000D01*
X-234790000Y-98756773D01*
X-234721231Y-98750000D01*
X-234721223Y-98750000D01*
X-234515552Y-98729743D01*
X-234251651Y-98649690D01*
X-234008438Y-98519690D01*
X-233795261Y-98344739D01*
X-233751416Y-98291314D01*
X-232749999Y-97289898D01*
X-232749999Y-100640100D01*
X-233629898Y-101520000D01*
X-240615822Y-101520000D01*
X-240867187Y-101470000D01*
X-241152813Y-101470000D01*
X-241432949Y-101525723D01*
X-241696833Y-101635027D01*
X-241934321Y-101793711D01*
X-242136289Y-101995679D01*
X-242294973Y-102233167D01*
X-242404277Y-102497051D01*
X-242460000Y-102777187D01*
X-242460000Y-103062813D01*
X-242404277Y-103342949D01*
X-242294973Y-103606833D01*
X-242136289Y-103844321D01*
X-241934321Y-104046289D01*
X-241696833Y-104204973D01*
X-241432949Y-104314277D01*
X-241152813Y-104370000D01*
X-240867187Y-104370000D01*
X-240615822Y-104320000D01*
X-233118769Y-104320000D01*
X-233050000Y-104326773D01*
X-232981231Y-104320000D01*
X-232981223Y-104320000D01*
X-232775552Y-104299743D01*
X-232511651Y-104219690D01*
X-232268438Y-104089690D01*
X-232055261Y-103914739D01*
X-232011416Y-103861314D01*
X-230408681Y-102258580D01*
X-230355261Y-102214739D01*
X-230302130Y-102150000D01*
X-230239054Y-102073141D01*
X-230180310Y-102001562D01*
X-230050310Y-101758349D01*
X-229970257Y-101494448D01*
X-229950000Y-101288777D01*
X-229950000Y-101288770D01*
X-229943227Y-101220001D01*
X-229950000Y-101151232D01*
X-229950000Y-93304178D01*
X-229900000Y-93052813D01*
X-229900000Y-92767187D01*
X-229955723Y-92487051D01*
X-230065027Y-92223167D01*
X-230223711Y-91985679D01*
X-230425679Y-91783711D01*
X-230663167Y-91625027D01*
X-230927051Y-91515723D01*
X-231207187Y-91460000D01*
X-231492813Y-91460000D01*
X-231772949Y-91515723D01*
X-232036833Y-91625027D01*
X-232230000Y-91754097D01*
X-232230000Y-85028768D01*
X-232223227Y-84959999D01*
X-232230000Y-84891230D01*
X-232230000Y-84891223D01*
X-232247599Y-84712538D01*
X-232250257Y-84685551D01*
X-232303510Y-84510000D01*
X-232330310Y-84421651D01*
X-232460310Y-84178438D01*
X-232635261Y-83965261D01*
X-232688681Y-83921420D01*
X-232840101Y-83770000D01*
X-227283656Y-83770000D01*
X-227412377Y-83962645D01*
X-227563141Y-84326622D01*
X-227640000Y-84713017D01*
X-227640000Y-85106983D01*
X-227563141Y-85493378D01*
X-227412377Y-85857355D01*
X-227196792Y-86180000D01*
X-227412377Y-86502645D01*
X-227563141Y-86866622D01*
X-227640000Y-87253017D01*
X-227640000Y-87646983D01*
X-227563141Y-88033378D01*
X-227412377Y-88397355D01*
X-227196792Y-88720000D01*
X-227412377Y-89042645D01*
X-227563141Y-89406622D01*
X-227640000Y-89793017D01*
X-227640000Y-90186983D01*
X-227563141Y-90573378D01*
X-227412377Y-90937355D01*
X-227196792Y-91260000D01*
X-227412377Y-91582645D01*
X-227563141Y-91946622D01*
X-227640000Y-92333017D01*
X-227640000Y-92726983D01*
X-227563141Y-93113378D01*
X-227412377Y-93477355D01*
X-227196792Y-93800000D01*
X-227412377Y-94122645D01*
X-227563141Y-94486622D01*
X-227640000Y-94873017D01*
X-227640000Y-95266983D01*
X-227563141Y-95653378D01*
X-227412377Y-96017355D01*
X-227196792Y-96340000D01*
X-227412377Y-96662645D01*
X-227563141Y-97026622D01*
X-227640000Y-97413017D01*
X-227640000Y-97806983D01*
X-227563141Y-98193378D01*
X-227412377Y-98557355D01*
X-227196792Y-98880000D01*
X-227412377Y-99202645D01*
X-227563141Y-99566622D01*
X-227640000Y-99953017D01*
X-227640000Y-100346983D01*
X-227563141Y-100733378D01*
X-227412377Y-101097355D01*
X-227196792Y-101420000D01*
X-227412377Y-101742645D01*
X-227563141Y-102106622D01*
X-227640000Y-102493017D01*
X-227640000Y-102886983D01*
X-227563141Y-103273378D01*
X-227412377Y-103637355D01*
X-227193501Y-103964926D01*
X-226914926Y-104243501D01*
X-226587355Y-104462377D01*
X-226223378Y-104613141D01*
X-225836983Y-104690000D01*
X-225443017Y-104690000D01*
X-225056622Y-104613141D01*
X-224692645Y-104462377D01*
X-224365074Y-104243501D01*
X-224355851Y-104234278D01*
X-224187304Y-104368624D01*
X-223838928Y-104548492D01*
X-223462156Y-104656939D01*
X-223150000Y-104401876D01*
X-223150000Y-102740000D01*
X-223050000Y-102740000D01*
X-223050000Y-104401876D01*
X-222737844Y-104656939D01*
X-222361072Y-104548492D01*
X-222012696Y-104368624D01*
X-221706105Y-104124247D01*
X-221453081Y-103824753D01*
X-221263347Y-103481651D01*
X-221144194Y-103108126D01*
X-221133062Y-103052156D01*
X-221388230Y-102740000D01*
X-223050000Y-102740000D01*
X-223150000Y-102740000D01*
X-223170000Y-102740000D01*
X-223170000Y-102640000D01*
X-223150000Y-102640000D01*
X-223150000Y-102620000D01*
X-223050000Y-102620000D01*
X-223050000Y-102640000D01*
X-221388230Y-102640000D01*
X-221133062Y-102327844D01*
X-221144194Y-102271874D01*
X-221263347Y-101898349D01*
X-221453081Y-101555247D01*
X-221555542Y-101433969D01*
X-221546499Y-101424926D01*
X-221327623Y-101097355D01*
X-221176859Y-100733378D01*
X-221100000Y-100346983D01*
X-221100000Y-99953017D01*
X-221144530Y-99729149D01*
X-207750000Y-99729149D01*
X-207750000Y-100270851D01*
X-207644319Y-100802145D01*
X-207437018Y-101302613D01*
X-207136064Y-101753023D01*
X-206753023Y-102136064D01*
X-206302613Y-102437018D01*
X-205802145Y-102644319D01*
X-205270851Y-102750000D01*
X-204729149Y-102750000D01*
X-204197855Y-102644319D01*
X-203697387Y-102437018D01*
X-203246977Y-102136064D01*
X-202863936Y-101753023D01*
X-202562982Y-101302613D01*
X-202355681Y-100802145D01*
X-202250000Y-100270851D01*
X-202250000Y-99729149D01*
X-202355681Y-99197855D01*
X-202562982Y-98697387D01*
X-202863936Y-98246977D01*
X-203246977Y-97863936D01*
X-203697387Y-97562982D01*
X-204197855Y-97355681D01*
X-204729149Y-97250000D01*
X-205270851Y-97250000D01*
X-205802145Y-97355681D01*
X-206302613Y-97562982D01*
X-206753023Y-97863936D01*
X-207136064Y-98246977D01*
X-207437018Y-98697387D01*
X-207644319Y-99197855D01*
X-207750000Y-99729149D01*
X-221144530Y-99729149D01*
X-221176859Y-99566622D01*
X-221327623Y-99202645D01*
X-221543208Y-98880000D01*
X-221327623Y-98557355D01*
X-221176859Y-98193378D01*
X-221100000Y-97806983D01*
X-221100000Y-97413017D01*
X-221176859Y-97026622D01*
X-221327623Y-96662645D01*
X-221543208Y-96340000D01*
X-221327623Y-96017355D01*
X-221176859Y-95653378D01*
X-221100000Y-95266983D01*
X-221100000Y-94873017D01*
X-221176859Y-94486622D01*
X-221327623Y-94122645D01*
X-221543208Y-93800000D01*
X-221422935Y-93620000D01*
X-199148769Y-93620000D01*
X-199080000Y-93626773D01*
X-199011231Y-93620000D01*
X-199011223Y-93620000D01*
X-198805552Y-93599743D01*
X-198541651Y-93519690D01*
X-198298438Y-93389690D01*
X-198085261Y-93214739D01*
X-198041416Y-93161314D01*
X-198016882Y-93136780D01*
X-197963462Y-93092939D01*
X-197788510Y-92879762D01*
X-197658510Y-92636549D01*
X-197578457Y-92372648D01*
X-197558200Y-92166977D01*
X-197558200Y-92166970D01*
X-197551427Y-92098201D01*
X-197558200Y-92029432D01*
X-197558200Y-89625063D01*
X-197438003Y-89560816D01*
X-197262893Y-89417107D01*
X-197119184Y-89241997D01*
X-197012398Y-89042215D01*
X-196946640Y-88825439D01*
X-196924436Y-88600000D01*
X-196924436Y-86900000D01*
X-196946640Y-86674561D01*
X-197012398Y-86457785D01*
X-197119184Y-86258003D01*
X-197188441Y-86173613D01*
X-197093347Y-86001651D01*
X-196974194Y-85628126D01*
X-196963062Y-85572156D01*
X-197218230Y-85260000D01*
X-198880000Y-85260000D01*
X-198880000Y-85280000D01*
X-198980000Y-85280000D01*
X-198980000Y-85260000D01*
X-200641770Y-85260000D01*
X-200896938Y-85572156D01*
X-200885806Y-85628126D01*
X-200766653Y-86001651D01*
X-200671559Y-86173613D01*
X-200740816Y-86258003D01*
X-200847602Y-86457785D01*
X-200913360Y-86674561D01*
X-200935564Y-86900000D01*
X-200935564Y-88600000D01*
X-200913360Y-88825439D01*
X-200847602Y-89042215D01*
X-200740816Y-89241997D01*
X-200597107Y-89417107D01*
X-200421997Y-89560816D01*
X-200358199Y-89594917D01*
X-200358200Y-90820000D01*
X-221279013Y-90820000D01*
X-221176859Y-90573378D01*
X-221100000Y-90186983D01*
X-221100000Y-89793017D01*
X-221176859Y-89406622D01*
X-221327623Y-89042645D01*
X-221543208Y-88720000D01*
X-221327623Y-88397355D01*
X-221176859Y-88033378D01*
X-221100000Y-87646983D01*
X-221100000Y-87253017D01*
X-221176859Y-86866622D01*
X-221327623Y-86502645D01*
X-221543208Y-86180000D01*
X-221327623Y-85857355D01*
X-221176859Y-85493378D01*
X-221100000Y-85106983D01*
X-221100000Y-84847844D01*
X-200896938Y-84847844D01*
X-200641770Y-85160000D01*
X-198980000Y-85160000D01*
X-198980000Y-83498124D01*
X-198880000Y-83498124D01*
X-198880000Y-85160000D01*
X-197218230Y-85160000D01*
X-196963062Y-84847844D01*
X-196974194Y-84791874D01*
X-197093347Y-84418349D01*
X-197283081Y-84075247D01*
X-197536105Y-83775753D01*
X-197842696Y-83531376D01*
X-198191072Y-83351508D01*
X-198567844Y-83243061D01*
X-198880000Y-83498124D01*
X-198980000Y-83498124D01*
X-199292156Y-83243061D01*
X-199668928Y-83351508D01*
X-200017304Y-83531376D01*
X-200323895Y-83775753D01*
X-200576919Y-84075247D01*
X-200766653Y-84418349D01*
X-200885806Y-84791874D01*
X-200896938Y-84847844D01*
X-221100000Y-84847844D01*
X-221100000Y-84713017D01*
X-221176859Y-84326622D01*
X-221327623Y-83962645D01*
X-221543208Y-83640000D01*
X-221327623Y-83317355D01*
X-221176859Y-82953378D01*
X-221100000Y-82566983D01*
X-221100000Y-82173017D01*
X-221176859Y-81786622D01*
X-221327623Y-81422645D01*
X-221456344Y-81230000D01*
X-216855209Y-81230000D01*
X-216721552Y-81339690D01*
X-216478339Y-81469690D01*
X-216214438Y-81549743D01*
X-216008767Y-81570000D01*
X-216008759Y-81570000D01*
X-215939990Y-81576773D01*
X-215871221Y-81570000D01*
X-213664178Y-81570000D01*
X-213412813Y-81620000D01*
X-213127187Y-81620000D01*
X-212847051Y-81564277D01*
X-212583167Y-81454973D01*
X-212345679Y-81296289D01*
X-212143711Y-81094321D01*
X-211985027Y-80856833D01*
X-211875723Y-80592949D01*
X-211820000Y-80312813D01*
X-211820000Y-80027187D01*
X-211875723Y-79747051D01*
X-211985027Y-79483167D01*
X-212143711Y-79245679D01*
X-212345679Y-79043711D01*
X-212583167Y-78885027D01*
X-212847051Y-78775723D01*
X-213127187Y-78720000D01*
X-213412813Y-78720000D01*
X-213664178Y-78770000D01*
X-215260758Y-78770000D01*
X-215045679Y-78626289D01*
X-214843711Y-78424321D01*
X-214685027Y-78186833D01*
X-214575723Y-77922949D01*
X-214520000Y-77642813D01*
X-214520000Y-77357187D01*
X-214575723Y-77077051D01*
X-214685027Y-76813167D01*
X-214843711Y-76575679D01*
X-215045679Y-76373711D01*
X-215283167Y-76215027D01*
X-215547051Y-76105723D01*
X-215827187Y-76050000D01*
X-216112813Y-76050000D01*
X-216364178Y-76100000D01*
X-221489753Y-76100000D01*
X-221543208Y-76020000D01*
X-221327623Y-75697355D01*
X-221176859Y-75333378D01*
X-221100000Y-74946983D01*
X-221100000Y-74553017D01*
X-221176859Y-74166622D01*
X-221327623Y-73802645D01*
X-221543208Y-73480000D01*
X-221327623Y-73157355D01*
X-221176859Y-72793378D01*
X-221100000Y-72406983D01*
X-221100000Y-72013017D01*
X-221176859Y-71626622D01*
X-221327623Y-71262645D01*
X-221543208Y-70940000D01*
X-221327623Y-70617355D01*
X-221176859Y-70253378D01*
X-221100000Y-69866983D01*
X-221100000Y-69473017D01*
X-221176859Y-69086622D01*
X-221327623Y-68722645D01*
X-221543208Y-68400000D01*
X-221327623Y-68077355D01*
X-221176859Y-67713378D01*
X-221100000Y-67326983D01*
X-221100000Y-66933017D01*
X-221176859Y-66546622D01*
X-221327623Y-66182645D01*
X-221543208Y-65860000D01*
X-221327623Y-65537355D01*
X-221176859Y-65173378D01*
X-221100000Y-64786983D01*
X-221100000Y-64393017D01*
X-221176859Y-64006622D01*
X-221327623Y-63642645D01*
X-221456344Y-63450000D01*
X-218454178Y-63450000D01*
X-218202813Y-63500000D01*
X-217917187Y-63500000D01*
X-217637051Y-63444277D01*
X-217373167Y-63334973D01*
X-217135679Y-63176289D01*
X-216933711Y-62974321D01*
X-216775027Y-62736833D01*
X-216665723Y-62472949D01*
X-216610000Y-62192813D01*
X-216610000Y-61907187D01*
X-216665723Y-61627051D01*
X-216775027Y-61363167D01*
X-216933711Y-61125679D01*
X-217135679Y-60923711D01*
X-217373167Y-60765027D01*
X-217637051Y-60655723D01*
X-217917187Y-60600000D01*
X-218202813Y-60600000D01*
X-218454178Y-60650000D01*
X-218592261Y-60650000D01*
X-218436255Y-60521968D01*
X-218240679Y-60391289D01*
X-218038711Y-60189321D01*
X-217896322Y-59976220D01*
X-217550102Y-59630001D01*
X-203888770Y-59630001D01*
X-203820001Y-59636774D01*
X-203751232Y-59630001D01*
X-203751224Y-59630001D01*
X-203545553Y-59609744D01*
X-203281652Y-59529691D01*
X-203038439Y-59399691D01*
X-202825262Y-59224740D01*
X-202781417Y-59171315D01*
X-201401502Y-57791401D01*
X-198930170Y-57791401D01*
X-198861401Y-57798174D01*
X-198792632Y-57791401D01*
X-198792624Y-57791401D01*
X-198586953Y-57771144D01*
X-198323052Y-57691091D01*
X-198079839Y-57561091D01*
X-197866662Y-57386140D01*
X-197822817Y-57332715D01*
X-196628677Y-56138575D01*
X-196575262Y-56094739D01*
X-196531424Y-56041323D01*
X-196531418Y-56041317D01*
X-196448524Y-55940310D01*
X-196400310Y-55881562D01*
X-196270310Y-55638349D01*
X-196190257Y-55374448D01*
X-196170000Y-55168777D01*
X-196170000Y-55168769D01*
X-196163227Y-55100000D01*
X-196170000Y-55031231D01*
X-196170000Y-23518768D01*
X-196163227Y-23449999D01*
X-196170000Y-23381230D01*
X-196170000Y-23381223D01*
X-196190257Y-23175552D01*
X-196270310Y-22911651D01*
X-196400310Y-22668438D01*
X-196575261Y-22455261D01*
X-196628686Y-22411416D01*
X-196681416Y-22358686D01*
X-196725261Y-22305261D01*
X-196938438Y-22130310D01*
X-197181651Y-22000310D01*
X-197445552Y-21920257D01*
X-197651223Y-21900000D01*
X-197651231Y-21900000D01*
X-197720000Y-21893227D01*
X-197788769Y-21900000D01*
X-207931231Y-21900000D01*
X-208000000Y-21893227D01*
X-208068769Y-21900000D01*
X-208068777Y-21900000D01*
X-208274448Y-21920257D01*
X-208538349Y-22000310D01*
X-208781562Y-22130310D01*
X-208994739Y-22305261D01*
X-208995012Y-22305594D01*
X-208995339Y-22305862D01*
X-209170290Y-22519039D01*
X-209300290Y-22762252D01*
X-209380343Y-23026153D01*
X-209400600Y-23231824D01*
X-209400600Y-23231831D01*
X-209407373Y-23300600D01*
X-209400600Y-23369369D01*
X-209400599Y-27961407D01*
X-209744897Y-27770957D01*
X-210120214Y-27651183D01*
X-210511687Y-27606931D01*
X-210904271Y-27639901D01*
X-211282879Y-27748827D01*
X-211632961Y-27929523D01*
X-211680600Y-27961356D01*
X-211680600Y-24829369D01*
X-211673827Y-24760600D01*
X-211680600Y-24691831D01*
X-211680600Y-24691823D01*
X-211700857Y-24486152D01*
X-211780910Y-24222251D01*
X-211910910Y-23979038D01*
X-212085861Y-23765861D01*
X-212299038Y-23590910D01*
X-212542251Y-23460910D01*
X-212806152Y-23380857D01*
X-213080600Y-23353826D01*
X-213244815Y-23370000D01*
X-219121231Y-23370000D01*
X-219190000Y-23363227D01*
X-219258769Y-23370000D01*
X-219258777Y-23370000D01*
X-219464448Y-23390257D01*
X-219728349Y-23470310D01*
X-219971562Y-23600310D01*
X-220184739Y-23775261D01*
X-220228582Y-23828684D01*
X-221011318Y-24611420D01*
X-221064739Y-24655262D01*
X-221239690Y-24868439D01*
X-221369690Y-25111652D01*
X-221449743Y-25375553D01*
X-221470000Y-25581224D01*
X-221470000Y-25581231D01*
X-221476773Y-25650000D01*
X-221470000Y-25718769D01*
X-221469999Y-34605817D01*
X-221520000Y-34857187D01*
X-221520000Y-35142813D01*
X-221464277Y-35422949D01*
X-221354973Y-35686833D01*
X-221196289Y-35924321D01*
X-220994321Y-36126289D01*
X-220756833Y-36284973D01*
X-220492949Y-36394277D01*
X-220212813Y-36450000D01*
X-219927187Y-36450000D01*
X-219647051Y-36394277D01*
X-219383167Y-36284973D01*
X-219145679Y-36126289D01*
X-218943711Y-35924321D01*
X-218785027Y-35686833D01*
X-218675723Y-35422949D01*
X-218620000Y-35142813D01*
X-218620000Y-34857187D01*
X-218670000Y-34605822D01*
X-218670000Y-26229898D01*
X-218610102Y-26170000D01*
X-216789466Y-26170000D01*
X-216905573Y-26343767D01*
X-217014877Y-26607651D01*
X-217070600Y-26887787D01*
X-217070600Y-27173413D01*
X-217020599Y-27424782D01*
X-217020599Y-28187972D01*
X-217174101Y-28341474D01*
X-217392977Y-28669045D01*
X-217543741Y-29033022D01*
X-217620600Y-29419417D01*
X-217620600Y-29813383D01*
X-217543741Y-30199778D01*
X-217392977Y-30563755D01*
X-217313328Y-30682958D01*
X-217389284Y-30775510D01*
X-217519172Y-31018514D01*
X-217599156Y-31282188D01*
X-217626164Y-31556400D01*
X-217626164Y-32756400D01*
X-217599156Y-33030612D01*
X-217519172Y-33294286D01*
X-217389284Y-33537290D01*
X-217214484Y-33750284D01*
X-217020599Y-33909401D01*
X-217020599Y-34500701D01*
X-217601220Y-35081322D01*
X-217814321Y-35223711D01*
X-218016289Y-35425679D01*
X-218174973Y-35663167D01*
X-218284277Y-35927051D01*
X-218340000Y-36207187D01*
X-218340000Y-36492813D01*
X-218284277Y-36772949D01*
X-218174973Y-37036833D01*
X-218016289Y-37274321D01*
X-217814321Y-37476289D01*
X-217576833Y-37634973D01*
X-217312949Y-37744277D01*
X-217032813Y-37800000D01*
X-216747187Y-37800000D01*
X-216467051Y-37744277D01*
X-216203167Y-37634973D01*
X-215965679Y-37476289D01*
X-215763711Y-37274321D01*
X-215621322Y-37061220D01*
X-214679281Y-36119180D01*
X-214625861Y-36075339D01*
X-214556035Y-35990257D01*
X-214511550Y-35936051D01*
X-214480599Y-35898338D01*
X-214480599Y-37940700D01*
X-225081220Y-48541322D01*
X-225294321Y-48683711D01*
X-225496289Y-48885679D01*
X-225654973Y-49123167D01*
X-225764277Y-49387051D01*
X-225782766Y-49480000D01*
X-233911223Y-49480000D01*
X-233980000Y-49473226D01*
X-234048777Y-49480000D01*
X-237100102Y-49480000D01*
X-237161416Y-49418686D01*
X-237205261Y-49365261D01*
X-237418438Y-49190310D01*
X-237661651Y-49060310D01*
X-237925552Y-48980257D01*
X-238131223Y-48960000D01*
X-238131231Y-48960000D01*
X-238200000Y-48953227D01*
X-238268769Y-48960000D01*
X-270230101Y-48960000D01*
X-276014436Y-43175666D01*
X-276014436Y-42300000D01*
X-276036640Y-42074561D01*
X-276102398Y-41857785D01*
X-276209184Y-41658003D01*
X-276352893Y-41482893D01*
X-276528003Y-41339184D01*
X-276620000Y-41290010D01*
X-276620000Y-31028768D01*
X-276613227Y-30959999D01*
X-276620000Y-30891230D01*
X-276620000Y-30891223D01*
X-276640257Y-30685552D01*
X-276720310Y-30421651D01*
X-276850310Y-30178438D01*
X-276966562Y-30036786D01*
X-276981418Y-30018684D01*
X-276981420Y-30018682D01*
X-277025262Y-29965261D01*
X-277078682Y-29921420D01*
X-277131416Y-29868686D01*
X-277175261Y-29815261D01*
X-277388438Y-29640310D01*
X-277631651Y-29510310D01*
X-277895552Y-29430257D01*
X-278101223Y-29410000D01*
X-278101231Y-29410000D01*
X-278170000Y-29403227D01*
X-278238769Y-29410000D01*
X-280659129Y-29410000D01*
X-280724636Y-29311962D01*
X-281051962Y-28984636D01*
X-281436857Y-28727457D01*
X-281864530Y-28550309D01*
X-282318545Y-28460000D01*
X-282781455Y-28460000D01*
X-283235470Y-28550309D01*
X-283663143Y-28727457D01*
X-284048038Y-28984636D01*
X-284375364Y-29311962D01*
X-284632543Y-29696857D01*
X-284809691Y-30124530D01*
X-284900000Y-30578545D01*
X-284900000Y-31041455D01*
X-284809691Y-31495470D01*
X-284632543Y-31923143D01*
X-284375364Y-32308038D01*
X-284048038Y-32635364D01*
X-283663143Y-32892543D01*
X-283235470Y-33069691D01*
X-282781455Y-33160000D01*
X-282318545Y-33160000D01*
X-281864530Y-33069691D01*
X-281436857Y-32892543D01*
X-281051962Y-32635364D01*
X-280724636Y-32308038D01*
X-280659129Y-32210000D01*
X-279420000Y-32210000D01*
X-279419999Y-41290010D01*
X-279511997Y-41339184D01*
X-279687107Y-41482893D01*
X-279830816Y-41658003D01*
X-279937602Y-41857785D01*
X-280003360Y-42074561D01*
X-280025564Y-42300000D01*
X-280025564Y-44000000D01*
X-280003360Y-44225439D01*
X-279983776Y-44290000D01*
X-282490000Y-44290000D01*
X-282490000Y-38088768D01*
X-282483227Y-38019999D01*
X-282490000Y-37951230D01*
X-282490000Y-37951223D01*
X-282510257Y-37745552D01*
X-282590310Y-37481651D01*
X-282720310Y-37238438D01*
X-282895261Y-37025261D01*
X-282900753Y-37020753D01*
X-282905261Y-37015261D01*
X-283118438Y-36840310D01*
X-283361651Y-36710310D01*
X-283625552Y-36630257D01*
X-283831223Y-36610000D01*
X-283831231Y-36610000D01*
X-283900000Y-36603227D01*
X-283968769Y-36610000D01*
X-301470000Y-36610000D01*
X-301470000Y-32700871D01*
X-301371962Y-32635364D01*
X-301044636Y-32308038D01*
X-300787457Y-31923143D01*
X-300610309Y-31495470D01*
X-300520000Y-31041455D01*
X-300520000Y-30578545D01*
X-300610309Y-30124530D01*
X-300787457Y-29696857D01*
X-301044636Y-29311962D01*
X-301371962Y-28984636D01*
X-301756857Y-28727457D01*
X-302184530Y-28550309D01*
X-302638545Y-28460000D01*
X-303101455Y-28460000D01*
X-303555470Y-28550309D01*
X-303983143Y-28727457D01*
X-304368038Y-28984636D01*
X-304695364Y-29311962D01*
X-304952543Y-29696857D01*
X-305129691Y-30124530D01*
X-305220000Y-30578545D01*
X-305220000Y-31041455D01*
X-305129691Y-31495470D01*
X-304952543Y-31923143D01*
X-304695364Y-32308038D01*
X-304368038Y-32635364D01*
X-304269999Y-32700871D01*
X-304270000Y-36820102D01*
X-304421314Y-36971416D01*
X-304474739Y-37015261D01*
X-304649690Y-37228438D01*
X-304779690Y-37471651D01*
X-304859743Y-37735552D01*
X-304886774Y-38010000D01*
X-304859743Y-38284448D01*
X-304779690Y-38548349D01*
X-304649690Y-38791562D01*
X-304474739Y-39004739D01*
X-304261562Y-39179690D01*
X-304018349Y-39309690D01*
X-303754448Y-39389743D01*
X-303548777Y-39410000D01*
X-303548769Y-39410000D01*
X-303480000Y-39416773D01*
X-303411231Y-39410000D01*
X-287763632Y-39410000D01*
X-287864178Y-39430000D01*
X-318361232Y-39430000D01*
X-318430001Y-39423227D01*
X-318498770Y-39430000D01*
X-318498777Y-39430000D01*
X-318677462Y-39447599D01*
X-318704449Y-39450257D01*
X-318784502Y-39474541D01*
X-318968349Y-39530310D01*
X-319211562Y-39660310D01*
X-319424739Y-39835261D01*
X-319468580Y-39888681D01*
X-339881318Y-60301420D01*
X-339934738Y-60345261D01*
X-339978579Y-60398681D01*
X-339978582Y-60398684D01*
X-340004071Y-60429743D01*
X-340109689Y-60558438D01*
X-340179252Y-60688581D01*
X-340239689Y-60801651D01*
X-340281600Y-60939813D01*
X-340281600Y-60549898D01*
X-301175901Y-21444200D01*
X-260265799Y-21444200D01*
X-260265800Y-27899181D01*
X-260322382Y-27945617D01*
X-260578559Y-28257770D01*
X-260768916Y-28613903D01*
X-260864129Y-28927779D01*
X-260906109Y-28716730D01*
X-261083257Y-28289057D01*
X-261340436Y-27904162D01*
X-261667762Y-27576836D01*
X-262052657Y-27319657D01*
X-262480330Y-27142509D01*
X-262934345Y-27052200D01*
X-263397255Y-27052200D01*
X-263851270Y-27142509D01*
X-264278943Y-27319657D01*
X-264663838Y-27576836D01*
X-264991164Y-27904162D01*
X-265248343Y-28289057D01*
X-265425491Y-28716730D01*
X-265515800Y-29170745D01*
X-265515800Y-29633655D01*
X-265425491Y-30087670D01*
X-265248343Y-30515343D01*
X-264991164Y-30900238D01*
X-264663838Y-31227564D01*
X-264278943Y-31484743D01*
X-263851270Y-31661891D01*
X-263397255Y-31752200D01*
X-262934345Y-31752200D01*
X-262480330Y-31661891D01*
X-262052657Y-31484743D01*
X-261667762Y-31227564D01*
X-261340436Y-30900238D01*
X-261083257Y-30515343D01*
X-260915800Y-30111066D01*
X-260915800Y-31302908D01*
X-260886138Y-31604069D01*
X-260768917Y-31990496D01*
X-260578560Y-32346630D01*
X-260322383Y-32658783D01*
X-260010230Y-32914960D01*
X-259654097Y-33105317D01*
X-259267670Y-33222538D01*
X-258865800Y-33262119D01*
X-258463931Y-33222538D01*
X-258077504Y-33105317D01*
X-257721370Y-32914960D01*
X-257409217Y-32658783D01*
X-257153040Y-32346630D01*
X-257115800Y-32276959D01*
X-257078560Y-32346630D01*
X-256822383Y-32658783D01*
X-256510230Y-32914960D01*
X-256154097Y-33105317D01*
X-255767670Y-33222538D01*
X-255365800Y-33262119D01*
X-254963931Y-33222538D01*
X-254577504Y-33105317D01*
X-254221370Y-32914960D01*
X-253909217Y-32658783D01*
X-253653040Y-32346630D01*
X-253615800Y-32276959D01*
X-253578560Y-32346630D01*
X-253322383Y-32658783D01*
X-253010230Y-32914960D01*
X-252654097Y-33105317D01*
X-252267670Y-33222538D01*
X-251865800Y-33262119D01*
X-251463931Y-33222538D01*
X-251077504Y-33105317D01*
X-250721370Y-32914960D01*
X-250409217Y-32658783D01*
X-250153040Y-32346630D01*
X-250115800Y-32276959D01*
X-250078560Y-32346630D01*
X-249822383Y-32658783D01*
X-249765800Y-32705220D01*
X-249765800Y-33865431D01*
X-249772573Y-33934200D01*
X-249765800Y-34002969D01*
X-249765800Y-34002976D01*
X-249745543Y-34208647D01*
X-249726932Y-34270000D01*
X-251021232Y-34270000D01*
X-251090001Y-34263227D01*
X-251158770Y-34270000D01*
X-251158777Y-34270000D01*
X-251337462Y-34287599D01*
X-251364449Y-34290257D01*
X-251393399Y-34299039D01*
X-251628349Y-34370310D01*
X-251871562Y-34500310D01*
X-252084739Y-34675261D01*
X-252128584Y-34728686D01*
X-252474298Y-35074400D01*
X-260700348Y-35074400D01*
X-260832893Y-34912893D01*
X-261008003Y-34769184D01*
X-261207785Y-34662398D01*
X-261424561Y-34596640D01*
X-261650000Y-34574436D01*
X-263350000Y-34574436D01*
X-263575439Y-34596640D01*
X-263792215Y-34662398D01*
X-263991997Y-34769184D01*
X-264167107Y-34912893D01*
X-264310816Y-35088003D01*
X-264359990Y-35180000D01*
X-268711232Y-35180000D01*
X-268780001Y-35173227D01*
X-268848770Y-35180000D01*
X-268848777Y-35180000D01*
X-269027462Y-35197599D01*
X-269054449Y-35200257D01*
X-269131766Y-35223711D01*
X-269318349Y-35280310D01*
X-269561562Y-35410310D01*
X-269774739Y-35585261D01*
X-269818582Y-35638684D01*
X-270282918Y-36103020D01*
X-270336339Y-36146862D01*
X-270380180Y-36200282D01*
X-270380182Y-36200284D01*
X-270404824Y-36230311D01*
X-270511290Y-36360039D01*
X-270641290Y-36603252D01*
X-270721343Y-36867153D01*
X-270741600Y-37072824D01*
X-270741600Y-37072831D01*
X-270748373Y-37141600D01*
X-270741600Y-37210369D01*
X-270741599Y-42889329D01*
X-270839638Y-42954836D01*
X-271166964Y-43282162D01*
X-271424143Y-43667057D01*
X-271601291Y-44094730D01*
X-271691600Y-44548745D01*
X-271691600Y-45011655D01*
X-271601291Y-45465670D01*
X-271424143Y-45893343D01*
X-271166964Y-46278238D01*
X-270839638Y-46605564D01*
X-270454743Y-46862743D01*
X-270027070Y-47039891D01*
X-269573055Y-47130200D01*
X-269110145Y-47130200D01*
X-268656130Y-47039891D01*
X-268228457Y-46862743D01*
X-267843562Y-46605564D01*
X-267516236Y-46278238D01*
X-267259057Y-45893343D01*
X-267081909Y-45465670D01*
X-266991600Y-45011655D01*
X-266991600Y-44548745D01*
X-267081909Y-44094730D01*
X-267259057Y-43667057D01*
X-267516236Y-43282162D01*
X-267843562Y-42954836D01*
X-267941600Y-42889329D01*
X-267941600Y-39482156D01*
X-264466938Y-39482156D01*
X-264455806Y-39538126D01*
X-264336653Y-39911651D01*
X-264146919Y-40254753D01*
X-263893895Y-40554247D01*
X-263587304Y-40798624D01*
X-263238928Y-40978492D01*
X-262862156Y-41086939D01*
X-262550000Y-40831876D01*
X-262550000Y-39170000D01*
X-262450000Y-39170000D01*
X-262450000Y-40831876D01*
X-262137844Y-41086939D01*
X-261761072Y-40978492D01*
X-261412696Y-40798624D01*
X-261106105Y-40554247D01*
X-260853081Y-40254753D01*
X-260663347Y-39911651D01*
X-260544194Y-39538126D01*
X-260533062Y-39482156D01*
X-260788230Y-39170000D01*
X-262450000Y-39170000D01*
X-262550000Y-39170000D01*
X-264211770Y-39170000D01*
X-264466938Y-39482156D01*
X-267941600Y-39482156D01*
X-267941600Y-37980000D01*
X-264359990Y-37980000D01*
X-264310816Y-38071997D01*
X-264241559Y-38156387D01*
X-264336653Y-38328349D01*
X-264455806Y-38701874D01*
X-264466938Y-38757844D01*
X-264211770Y-39070000D01*
X-262550000Y-39070000D01*
X-262550000Y-39050000D01*
X-262450000Y-39050000D01*
X-262450000Y-39070000D01*
X-260788230Y-39070000D01*
X-260533062Y-38757844D01*
X-260544194Y-38701874D01*
X-260663347Y-38328349D01*
X-260758441Y-38156387D01*
X-260689184Y-38071997D01*
X-260583566Y-37874400D01*
X-251963169Y-37874400D01*
X-251894400Y-37881173D01*
X-251825631Y-37874400D01*
X-251825623Y-37874400D01*
X-251619952Y-37854143D01*
X-251356051Y-37774090D01*
X-251112838Y-37644090D01*
X-250899661Y-37469139D01*
X-250855816Y-37415714D01*
X-250510102Y-37070000D01*
X-249305564Y-37070000D01*
X-249305564Y-38690000D01*
X-249283360Y-38915439D01*
X-249217602Y-39132215D01*
X-249110816Y-39331997D01*
X-248967107Y-39507107D01*
X-248791997Y-39650816D01*
X-248592215Y-39757602D01*
X-248375439Y-39823360D01*
X-248150000Y-39845564D01*
X-246450000Y-39845564D01*
X-246224561Y-39823360D01*
X-246159999Y-39803776D01*
X-246160000Y-43380200D01*
X-247130729Y-43380200D01*
X-247196236Y-43282162D01*
X-247523562Y-42954836D01*
X-247908457Y-42697657D01*
X-248336130Y-42520509D01*
X-248790145Y-42430200D01*
X-249253055Y-42430200D01*
X-249707070Y-42520509D01*
X-250134743Y-42697657D01*
X-250519638Y-42954836D01*
X-250846964Y-43282162D01*
X-251104143Y-43667057D01*
X-251281291Y-44094730D01*
X-251371600Y-44548745D01*
X-251371600Y-45011655D01*
X-251281291Y-45465670D01*
X-251104143Y-45893343D01*
X-250846964Y-46278238D01*
X-250519638Y-46605564D01*
X-250134743Y-46862743D01*
X-249707070Y-47039891D01*
X-249253055Y-47130200D01*
X-248790145Y-47130200D01*
X-248336130Y-47039891D01*
X-247908457Y-46862743D01*
X-247523562Y-46605564D01*
X-247196236Y-46278238D01*
X-247130729Y-46180200D01*
X-245118969Y-46180200D01*
X-245050200Y-46186973D01*
X-244981431Y-46180200D01*
X-244981423Y-46180200D01*
X-244775752Y-46159943D01*
X-244511851Y-46079890D01*
X-244268638Y-45949890D01*
X-244055461Y-45774939D01*
X-244011616Y-45721514D01*
X-243818682Y-45528580D01*
X-243765262Y-45484739D01*
X-243590310Y-45271562D01*
X-243460310Y-45028349D01*
X-243380257Y-44764448D01*
X-243360000Y-44558777D01*
X-243360000Y-44558769D01*
X-243353227Y-44490000D01*
X-243360000Y-44421231D01*
X-243360000Y-39268427D01*
X-243331573Y-39240000D01*
X-240118769Y-39240000D01*
X-240050000Y-39246773D01*
X-239981231Y-39240000D01*
X-239981223Y-39240000D01*
X-239775552Y-39219743D01*
X-239511651Y-39139690D01*
X-239268438Y-39009690D01*
X-239253762Y-38997646D01*
X-239223167Y-38984973D01*
X-238985679Y-38826289D01*
X-238783711Y-38624321D01*
X-238625027Y-38386833D01*
X-238515723Y-38122949D01*
X-238460000Y-37842813D01*
X-238460000Y-37557187D01*
X-238515723Y-37277051D01*
X-238625027Y-37013167D01*
X-238783711Y-36775679D01*
X-238985679Y-36573711D01*
X-239223167Y-36415027D01*
X-239487051Y-36305723D01*
X-239767187Y-36250000D01*
X-240052813Y-36250000D01*
X-240332949Y-36305723D01*
X-240596833Y-36415027D01*
X-240634208Y-36440000D01*
X-243331573Y-36440000D01*
X-243465800Y-36305773D01*
X-243465800Y-32705219D01*
X-243409217Y-32658783D01*
X-243153040Y-32346630D01*
X-243115800Y-32276959D01*
X-243078560Y-32346630D01*
X-242822383Y-32658783D01*
X-242510230Y-32914960D01*
X-242154097Y-33105317D01*
X-241767670Y-33222538D01*
X-241365800Y-33262119D01*
X-240963931Y-33222538D01*
X-240577504Y-33105317D01*
X-240221370Y-32914960D01*
X-239909217Y-32658783D01*
X-239653040Y-32346630D01*
X-239615800Y-32276959D01*
X-239578560Y-32346630D01*
X-239322383Y-32658783D01*
X-239010230Y-32914960D01*
X-238654097Y-33105317D01*
X-238267670Y-33222538D01*
X-237865800Y-33262119D01*
X-237463931Y-33222538D01*
X-237077504Y-33105317D01*
X-236721370Y-32914960D01*
X-236409217Y-32658783D01*
X-236326285Y-32557730D01*
X-236226616Y-32744197D01*
X-236082907Y-32919307D01*
X-235907797Y-33063016D01*
X-235708015Y-33169802D01*
X-235491239Y-33235560D01*
X-235265800Y-33257764D01*
X-234703300Y-33252200D01*
X-234415800Y-32964700D01*
X-234415800Y-30352200D01*
X-234315800Y-30352200D01*
X-234315800Y-32964700D01*
X-234028300Y-33252200D01*
X-233465800Y-33257764D01*
X-233240361Y-33235560D01*
X-233023585Y-33169802D01*
X-232823803Y-33063016D01*
X-232648693Y-32919307D01*
X-232504984Y-32744197D01*
X-232398198Y-32544415D01*
X-232332440Y-32327639D01*
X-232310236Y-32102200D01*
X-232315800Y-30639700D01*
X-232603300Y-30352200D01*
X-234315800Y-30352200D01*
X-234415800Y-30352200D01*
X-234435800Y-30352200D01*
X-234435800Y-30252200D01*
X-234415800Y-30252200D01*
X-234415800Y-27639700D01*
X-234315800Y-27639700D01*
X-234315800Y-30252200D01*
X-232603300Y-30252200D01*
X-232344285Y-29993185D01*
X-232325491Y-30087670D01*
X-232148343Y-30515343D01*
X-231891164Y-30900238D01*
X-231563838Y-31227564D01*
X-231178943Y-31484743D01*
X-230751270Y-31661891D01*
X-230297255Y-31752200D01*
X-229834345Y-31752200D01*
X-229380330Y-31661891D01*
X-228952657Y-31484743D01*
X-228567762Y-31227564D01*
X-228240436Y-30900238D01*
X-227983257Y-30515343D01*
X-227806109Y-30087670D01*
X-227715800Y-29633655D01*
X-227715800Y-29170745D01*
X-227806109Y-28716730D01*
X-227983257Y-28289057D01*
X-228240436Y-27904162D01*
X-228567762Y-27576836D01*
X-228952657Y-27319657D01*
X-229380330Y-27142509D01*
X-229834345Y-27052200D01*
X-230297255Y-27052200D01*
X-230751270Y-27142509D01*
X-231178943Y-27319657D01*
X-231563838Y-27576836D01*
X-231891164Y-27904162D01*
X-232148343Y-28289057D01*
X-232310918Y-28681548D01*
X-232310236Y-28502200D01*
X-232332440Y-28276761D01*
X-232398198Y-28059985D01*
X-232504984Y-27860203D01*
X-232648693Y-27685093D01*
X-232823803Y-27541384D01*
X-233023585Y-27434598D01*
X-233240361Y-27368840D01*
X-233465800Y-27346636D01*
X-234028300Y-27352200D01*
X-234315800Y-27639700D01*
X-234415800Y-27639700D01*
X-234703300Y-27352200D01*
X-235265800Y-27346636D01*
X-235491239Y-27368840D01*
X-235708015Y-27434598D01*
X-235907797Y-27541384D01*
X-236020000Y-27633467D01*
X-236020000Y-25084178D01*
X-235970000Y-24832813D01*
X-235970000Y-24547187D01*
X-236025723Y-24267051D01*
X-236135027Y-24003167D01*
X-236293711Y-23765679D01*
X-236495679Y-23563711D01*
X-236733167Y-23405027D01*
X-236997051Y-23295723D01*
X-237277187Y-23240000D01*
X-237562813Y-23240000D01*
X-237842949Y-23295723D01*
X-238106833Y-23405027D01*
X-238344321Y-23563711D01*
X-238546289Y-23765679D01*
X-238704973Y-24003167D01*
X-238814277Y-24267051D01*
X-238870000Y-24547187D01*
X-238870000Y-24832813D01*
X-238820000Y-25084178D01*
X-238819999Y-27587760D01*
X-239010229Y-27689440D01*
X-239322382Y-27945617D01*
X-239578559Y-28257770D01*
X-239615800Y-28327442D01*
X-239653040Y-28257770D01*
X-239909217Y-27945617D01*
X-240221370Y-27689440D01*
X-240577503Y-27499083D01*
X-240963930Y-27381862D01*
X-241365800Y-27342281D01*
X-241767669Y-27381862D01*
X-242154096Y-27499083D01*
X-242510229Y-27689440D01*
X-242822382Y-27945617D01*
X-243078559Y-28257770D01*
X-243115800Y-28327442D01*
X-243153040Y-28257770D01*
X-243409217Y-27945617D01*
X-243721370Y-27689440D01*
X-244077503Y-27499083D01*
X-244463930Y-27381862D01*
X-244865800Y-27342281D01*
X-245267669Y-27381862D01*
X-245654096Y-27499083D01*
X-246010229Y-27689440D01*
X-246322382Y-27945617D01*
X-246578559Y-28257770D01*
X-246615800Y-28327442D01*
X-246653040Y-28257770D01*
X-246909217Y-27945617D01*
X-247221370Y-27689440D01*
X-247577503Y-27499083D01*
X-247963930Y-27381862D01*
X-248365800Y-27342281D01*
X-248767669Y-27381862D01*
X-249154096Y-27499083D01*
X-249510229Y-27689440D01*
X-249822382Y-27945617D01*
X-250078559Y-28257770D01*
X-250115800Y-28327442D01*
X-250153040Y-28257770D01*
X-250409217Y-27945617D01*
X-250465800Y-27899181D01*
X-250465800Y-15762969D01*
X-250459027Y-15694200D01*
X-250465800Y-15625431D01*
X-250465800Y-15625423D01*
X-250486057Y-15419752D01*
X-250566110Y-15155851D01*
X-250696110Y-14912638D01*
X-250871061Y-14699461D01*
X-251084238Y-14524510D01*
X-251327451Y-14394510D01*
X-251591352Y-14314457D01*
X-251865800Y-14287426D01*
X-252094995Y-14310000D01*
X-305381231Y-14310000D01*
X-305450000Y-14303227D01*
X-305518769Y-14310000D01*
X-305518777Y-14310000D01*
X-305724448Y-14330257D01*
X-305988350Y-14410310D01*
X-306231562Y-14540310D01*
X-306372064Y-14655618D01*
X-306444739Y-14715261D01*
X-306488580Y-14768681D01*
X-348311318Y-56591420D01*
X-348364739Y-56635262D01*
X-348539690Y-56848439D01*
X-348669690Y-57091652D01*
X-348749743Y-57355553D01*
X-348770000Y-57561224D01*
X-348770000Y-57561231D01*
X-348776773Y-57630000D01*
X-352639911Y-57630000D01*
X-352748912Y-51381092D01*
X-310863257Y-9540341D01*
X-185336936Y-10229196D01*
G37*
%TD.AperFunction*%
D22*
X-285290000Y-45331231D02*
X-285296773Y-45400000D01*
X-285290000Y-45468769D01*
X-285290000Y-45468776D01*
X-285269743Y-45674447D01*
X-285189690Y-45938348D01*
X-285059690Y-46181561D01*
X-284884739Y-46394738D01*
X-284831318Y-46438580D01*
X-284638584Y-46631314D01*
X-284594739Y-46684739D01*
X-284381562Y-46859690D01*
X-284138349Y-46989690D01*
X-283874448Y-47069743D01*
X-283668777Y-47090000D01*
X-283668769Y-47090000D01*
X-283600000Y-47096773D01*
X-283531231Y-47090000D01*
X-279662486Y-47090000D01*
X-279666919Y-47095247D01*
X-279856653Y-47438349D01*
X-279975806Y-47811874D01*
X-279986938Y-47867844D01*
X-279731770Y-48180000D01*
X-278070000Y-48180000D01*
X-278070000Y-48160000D01*
X-277970000Y-48160000D01*
X-277970000Y-48180000D01*
X-276308230Y-48180000D01*
X-276053062Y-47867844D01*
X-276064194Y-47811874D01*
X-276183347Y-47438349D01*
X-276373081Y-47095247D01*
X-276475542Y-46973969D01*
X-276466499Y-46964926D01*
X-276353735Y-46796163D01*
X-271108575Y-52041324D01*
X-271064739Y-52094738D01*
X-271011323Y-52138576D01*
X-271011317Y-52138582D01*
X-270925626Y-52208907D01*
X-270851562Y-52269690D01*
X-270608349Y-52399690D01*
X-270344448Y-52479743D01*
X-270070000Y-52506774D01*
X-269820159Y-52482167D01*
X-269795552Y-52479743D01*
X-269712812Y-52454644D01*
X-269531652Y-52399690D01*
X-269288439Y-52269690D01*
X-269102110Y-52116773D01*
X-269075261Y-52094739D01*
X-268994173Y-51995933D01*
X-268900310Y-51881562D01*
X-268835334Y-51760000D01*
X-247869990Y-51760000D01*
X-247869990Y-51952823D01*
X-247814267Y-52232959D01*
X-247704963Y-52496843D01*
X-247546279Y-52734331D01*
X-247344311Y-52936299D01*
X-247106823Y-53094983D01*
X-246842939Y-53204287D01*
X-246562803Y-53260010D01*
X-246277177Y-53260010D01*
X-246025812Y-53210010D01*
X-241918437Y-53210010D01*
X-242003501Y-53295074D01*
X-242222377Y-53622645D01*
X-242373141Y-53986622D01*
X-242450000Y-54373017D01*
X-242450000Y-54766983D01*
X-242373141Y-55153378D01*
X-242222377Y-55517355D01*
X-242093656Y-55710000D01*
X-247861232Y-55710000D01*
X-247930001Y-55703227D01*
X-247998770Y-55710000D01*
X-247998777Y-55710000D01*
X-248177462Y-55727599D01*
X-248204449Y-55730257D01*
X-248235545Y-55739690D01*
X-248468349Y-55810310D01*
X-248711562Y-55940310D01*
X-248924739Y-56115261D01*
X-248968582Y-56168684D01*
X-249191318Y-56391420D01*
X-249244739Y-56435262D01*
X-249288580Y-56488682D01*
X-249288582Y-56488684D01*
X-249319717Y-56526622D01*
X-249419690Y-56648439D01*
X-249549690Y-56891652D01*
X-249629743Y-57155553D01*
X-249650000Y-57361224D01*
X-249650000Y-57361231D01*
X-249656773Y-57430000D01*
X-249650000Y-57498769D01*
X-249650000Y-60846436D01*
X-249670310Y-60808438D01*
X-249845261Y-60595261D01*
X-250058438Y-60420310D01*
X-250301651Y-60290310D01*
X-250565552Y-60210257D01*
X-250771223Y-60190000D01*
X-250840000Y-60183226D01*
X-250908777Y-60190000D01*
X-263770101Y-60190000D01*
X-260758778Y-57178677D01*
X-260545679Y-57036289D01*
X-260343711Y-56834321D01*
X-260185027Y-56596833D01*
X-260075723Y-56332949D01*
X-260020000Y-56052813D01*
X-260020000Y-55767187D01*
X-260075723Y-55487051D01*
X-260185027Y-55223167D01*
X-260343711Y-54985679D01*
X-260545679Y-54783711D01*
X-260783167Y-54625027D01*
X-261047051Y-54515723D01*
X-261327187Y-54460000D01*
X-261612813Y-54460000D01*
X-261892949Y-54515723D01*
X-262156833Y-54625027D01*
X-262394321Y-54783711D01*
X-262596289Y-54985679D01*
X-262738677Y-55198778D01*
X-273259898Y-65720000D01*
X-276925822Y-65720000D01*
X-277177187Y-65670000D01*
X-277462813Y-65670000D01*
X-277742949Y-65725723D01*
X-278006833Y-65835027D01*
X-278244321Y-65993711D01*
X-278446289Y-66195679D01*
X-278604973Y-66433167D01*
X-278714277Y-66697051D01*
X-278770000Y-66977187D01*
X-278770000Y-67262813D01*
X-278714277Y-67542949D01*
X-278604973Y-67806833D01*
X-278446289Y-68044321D01*
X-278244321Y-68246289D01*
X-278006833Y-68404973D01*
X-277742949Y-68514277D01*
X-277462813Y-68570000D01*
X-277177187Y-68570000D01*
X-276925822Y-68520000D01*
X-273559898Y-68520000D01*
X-274739898Y-69700000D01*
X-293625822Y-69700000D01*
X-293877187Y-69650000D01*
X-294162813Y-69650000D01*
X-294442949Y-69705723D01*
X-294706833Y-69815027D01*
X-294944321Y-69973711D01*
X-295146289Y-70175679D01*
X-295304973Y-70413167D01*
X-295414277Y-70677051D01*
X-295470000Y-70957187D01*
X-295470000Y-71242813D01*
X-295414277Y-71522949D01*
X-295304973Y-71786833D01*
X-295146289Y-72024321D01*
X-294944321Y-72226289D01*
X-294706833Y-72384973D01*
X-294442949Y-72494277D01*
X-294162813Y-72550000D01*
X-293877187Y-72550000D01*
X-293625822Y-72500000D01*
X-274228769Y-72500000D01*
X-274160000Y-72506773D01*
X-274091231Y-72500000D01*
X-274091223Y-72500000D01*
X-273885552Y-72479743D01*
X-273621651Y-72399690D01*
X-273378438Y-72269690D01*
X-273165261Y-72094739D01*
X-273121416Y-72041314D01*
X-272189999Y-71109897D01*
X-272190000Y-74620101D01*
X-273069898Y-75500000D01*
X-276919129Y-75500000D01*
X-276984636Y-75401962D01*
X-277311962Y-75074636D01*
X-277696857Y-74817457D01*
X-278124530Y-74640309D01*
X-278578545Y-74550000D01*
X-279041455Y-74550000D01*
X-279495470Y-74640309D01*
X-279923143Y-74817457D01*
X-280308038Y-75074636D01*
X-280635364Y-75401962D01*
X-280892543Y-75786857D01*
X-281069691Y-76214530D01*
X-281160000Y-76668545D01*
X-281160000Y-77131455D01*
X-281069691Y-77585470D01*
X-280892543Y-78013143D01*
X-280635364Y-78398038D01*
X-280308038Y-78725364D01*
X-279923143Y-78982543D01*
X-279495470Y-79159691D01*
X-279041455Y-79250000D01*
X-278578545Y-79250000D01*
X-278124530Y-79159691D01*
X-277696857Y-78982543D01*
X-277311962Y-78725364D01*
X-276984636Y-78398038D01*
X-276919129Y-78300000D01*
X-272558769Y-78300000D01*
X-272490000Y-78306773D01*
X-272421231Y-78300000D01*
X-272421223Y-78300000D01*
X-272215552Y-78279743D01*
X-271951651Y-78199690D01*
X-271708438Y-78069690D01*
X-271495261Y-77894739D01*
X-271451416Y-77841314D01*
X-269848676Y-76238575D01*
X-269795262Y-76194739D01*
X-269751424Y-76141323D01*
X-269751418Y-76141317D01*
X-269676476Y-76050000D01*
X-269620310Y-75981562D01*
X-269490310Y-75738349D01*
X-269410257Y-75474448D01*
X-269390000Y-75268777D01*
X-269390000Y-75268770D01*
X-269383227Y-75200001D01*
X-269390000Y-75131232D01*
X-269390000Y-73051945D01*
X-269142949Y-73154277D01*
X-268862813Y-73210000D01*
X-268577187Y-73210000D01*
X-268325822Y-73160000D01*
X-256858769Y-73160000D01*
X-256790000Y-73166773D01*
X-256721231Y-73160000D01*
X-256721223Y-73160000D01*
X-256515552Y-73139743D01*
X-256251651Y-73059690D01*
X-256008438Y-72929690D01*
X-255795261Y-72754739D01*
X-255751416Y-72701314D01*
X-255688686Y-72638584D01*
X-255635261Y-72594739D01*
X-255460310Y-72381562D01*
X-255330310Y-72138349D01*
X-255250257Y-71874448D01*
X-255230000Y-71668777D01*
X-255230000Y-71668770D01*
X-255223227Y-71600001D01*
X-255230000Y-71531232D01*
X-255230000Y-68991223D01*
X-255237109Y-68919048D01*
X-255112893Y-68817107D01*
X-254969184Y-68641997D01*
X-254862398Y-68442215D01*
X-254796640Y-68225439D01*
X-254774436Y-68000000D01*
X-254774436Y-67700000D01*
X-254784285Y-67600000D01*
X-254774436Y-67500000D01*
X-254774436Y-67200000D01*
X-254780400Y-67139452D01*
X-254780000Y-67137500D01*
X-254780656Y-67136844D01*
X-254796640Y-66974561D01*
X-254834425Y-66850000D01*
X-254796640Y-66725439D01*
X-254780656Y-66563156D01*
X-254780000Y-66562500D01*
X-254780400Y-66560548D01*
X-254774436Y-66500000D01*
X-254774436Y-66200000D01*
X-254784285Y-66100000D01*
X-254774436Y-66000000D01*
X-254774436Y-65700000D01*
X-254796640Y-65474561D01*
X-254862398Y-65257785D01*
X-254969184Y-65058003D01*
X-255112893Y-64882893D01*
X-255288003Y-64739184D01*
X-255330000Y-64716736D01*
X-255330000Y-64200555D01*
X-255235723Y-63972949D01*
X-255180000Y-63692813D01*
X-255180000Y-63407187D01*
X-255235723Y-63127051D01*
X-255292491Y-62990000D01*
X-252240000Y-62990000D01*
X-252240000Y-63140000D01*
X-252392813Y-63140000D01*
X-252672949Y-63195723D01*
X-252936833Y-63305027D01*
X-253174321Y-63463711D01*
X-253376289Y-63665679D01*
X-253534973Y-63903167D01*
X-253644277Y-64167051D01*
X-253700000Y-64447187D01*
X-253700000Y-64732813D01*
X-253680947Y-64828597D01*
X-253747107Y-64882893D01*
X-253890816Y-65058003D01*
X-253997602Y-65257785D01*
X-254063360Y-65474561D01*
X-254085564Y-65700000D01*
X-254085564Y-66000000D01*
X-254075715Y-66100000D01*
X-254085564Y-66200000D01*
X-254085564Y-66500000D01*
X-254075715Y-66600000D01*
X-254085564Y-66700000D01*
X-254085564Y-67000000D01*
X-254075715Y-67100000D01*
X-254085564Y-67200000D01*
X-254085564Y-67500000D01*
X-254075715Y-67600000D01*
X-254085564Y-67700000D01*
X-254085564Y-68000000D01*
X-254063360Y-68225439D01*
X-253997602Y-68442215D01*
X-253890816Y-68641997D01*
X-253747107Y-68817107D01*
X-253630000Y-68913214D01*
X-253629999Y-70881221D01*
X-253636773Y-70950000D01*
X-253609743Y-71224447D01*
X-253556584Y-71399689D01*
X-253529689Y-71488349D01*
X-253416559Y-71700000D01*
X-253422813Y-71700000D01*
X-253702949Y-71755723D01*
X-253966833Y-71865027D01*
X-254204321Y-72023711D01*
X-254406289Y-72225679D01*
X-254564973Y-72463167D01*
X-254674277Y-72727051D01*
X-254730000Y-73007187D01*
X-254730000Y-73292813D01*
X-254674277Y-73572949D01*
X-254564973Y-73836833D01*
X-254406289Y-74074321D01*
X-254204321Y-74276289D01*
X-253966833Y-74434973D01*
X-253702949Y-74544277D01*
X-253422813Y-74600000D01*
X-253137187Y-74600000D01*
X-252885822Y-74550000D01*
X-243048777Y-74550000D01*
X-242980000Y-74556774D01*
X-242911223Y-74550000D01*
X-242421552Y-74550000D01*
X-242450000Y-74693017D01*
X-242450000Y-75086983D01*
X-242373141Y-75473378D01*
X-242222377Y-75837355D01*
X-242003501Y-76164926D01*
X-241994458Y-76173969D01*
X-242096919Y-76295247D01*
X-242286653Y-76638349D01*
X-242405806Y-77011874D01*
X-242416938Y-77067844D01*
X-242161770Y-77380000D01*
X-240500000Y-77380000D01*
X-240500000Y-77360000D01*
X-240400000Y-77360000D01*
X-240400000Y-77380000D01*
X-237960000Y-77380000D01*
X-237960000Y-77360000D01*
X-237860000Y-77360000D01*
X-237860000Y-77380000D01*
X-237840000Y-77380000D01*
X-237840000Y-77480000D01*
X-237860000Y-77480000D01*
X-237860000Y-77500000D01*
X-237960000Y-77500000D01*
X-237960000Y-77480000D01*
X-240400000Y-77480000D01*
X-240400000Y-77500000D01*
X-240500000Y-77500000D01*
X-240500000Y-77480000D01*
X-242161770Y-77480000D01*
X-242416938Y-77792156D01*
X-242405806Y-77848126D01*
X-242286653Y-78221651D01*
X-242096919Y-78564753D01*
X-241994458Y-78686031D01*
X-242003501Y-78695074D01*
X-242222377Y-79022645D01*
X-242373141Y-79386622D01*
X-242450000Y-79773017D01*
X-242450000Y-80166983D01*
X-242373141Y-80553378D01*
X-242222377Y-80917355D01*
X-242006792Y-81240000D01*
X-242222377Y-81562645D01*
X-242373141Y-81926622D01*
X-242450000Y-82313017D01*
X-242450000Y-82706983D01*
X-242373141Y-83093378D01*
X-242222377Y-83457355D01*
X-242006792Y-83780000D01*
X-242222377Y-84102645D01*
X-242373141Y-84466622D01*
X-242450000Y-84853017D01*
X-242450000Y-85246983D01*
X-242373141Y-85633378D01*
X-242222377Y-85997355D01*
X-242006792Y-86320000D01*
X-242222377Y-86642645D01*
X-242373141Y-87006622D01*
X-242450000Y-87393017D01*
X-242450000Y-87786983D01*
X-242373141Y-88173378D01*
X-242222377Y-88537355D01*
X-242003501Y-88864926D01*
X-241724926Y-89143501D01*
X-241397355Y-89362377D01*
X-241033378Y-89513141D01*
X-240646983Y-89590000D01*
X-240253017Y-89590000D01*
X-239866622Y-89513141D01*
X-239502645Y-89362377D01*
X-239310000Y-89233655D01*
X-239309999Y-91330000D01*
X-241640101Y-91330000D01*
X-241834660Y-91135442D01*
X-241860257Y-90875552D01*
X-241940310Y-90611651D01*
X-242070310Y-90368438D01*
X-242245261Y-90155261D01*
X-242458438Y-89980310D01*
X-242701651Y-89850310D01*
X-242965552Y-89770257D01*
X-243171223Y-89750000D01*
X-243171232Y-89750000D01*
X-243240001Y-89743227D01*
X-243308770Y-89750000D01*
X-327570101Y-89750000D01*
X-336843222Y-80476880D01*
X-336871261Y-80384448D01*
X-336890310Y-80321652D01*
X-337020310Y-80078439D01*
X-337195261Y-79865261D01*
X-337248686Y-79821416D01*
X-337540000Y-79530102D01*
X-337540000Y-76288545D01*
X-315000000Y-76288545D01*
X-315000000Y-76751455D01*
X-314909691Y-77205470D01*
X-314732543Y-77633143D01*
X-314475364Y-78018038D01*
X-314148038Y-78345364D01*
X-313763143Y-78602543D01*
X-313335470Y-78779691D01*
X-312881455Y-78870000D01*
X-312418545Y-78870000D01*
X-311964530Y-78779691D01*
X-311536857Y-78602543D01*
X-311151962Y-78345364D01*
X-310824636Y-78018038D01*
X-310567457Y-77633143D01*
X-310390309Y-77205470D01*
X-310300000Y-76751455D01*
X-310300000Y-76288545D01*
X-310345749Y-76058545D01*
X-302040000Y-76058545D01*
X-302040000Y-76521455D01*
X-301949691Y-76975470D01*
X-301772543Y-77403143D01*
X-301515364Y-77788038D01*
X-301188038Y-78115364D01*
X-300803143Y-78372543D01*
X-300375470Y-78549691D01*
X-299921455Y-78640000D01*
X-299458545Y-78640000D01*
X-299004530Y-78549691D01*
X-298576857Y-78372543D01*
X-298191962Y-78115364D01*
X-297864636Y-77788038D01*
X-297607457Y-77403143D01*
X-297430309Y-76975470D01*
X-297340000Y-76521455D01*
X-297340000Y-76368545D01*
X-291140000Y-76368545D01*
X-291140000Y-76831455D01*
X-291049691Y-77285470D01*
X-290872543Y-77713143D01*
X-290615364Y-78098038D01*
X-290288038Y-78425364D01*
X-289903143Y-78682543D01*
X-289475470Y-78859691D01*
X-289021455Y-78950000D01*
X-288558545Y-78950000D01*
X-288104530Y-78859691D01*
X-287676857Y-78682543D01*
X-287291962Y-78425364D01*
X-286964636Y-78098038D01*
X-286707457Y-77713143D01*
X-286530309Y-77285470D01*
X-286440000Y-76831455D01*
X-286440000Y-76368545D01*
X-286530309Y-75914530D01*
X-286707457Y-75486857D01*
X-286964636Y-75101962D01*
X-287291962Y-74774636D01*
X-287676857Y-74517457D01*
X-288104530Y-74340309D01*
X-288558545Y-74250000D01*
X-289021455Y-74250000D01*
X-289475470Y-74340309D01*
X-289903143Y-74517457D01*
X-290288038Y-74774636D01*
X-290615364Y-75101962D01*
X-290872543Y-75486857D01*
X-291049691Y-75914530D01*
X-291140000Y-76368545D01*
X-297340000Y-76368545D01*
X-297340000Y-76058545D01*
X-297430309Y-75604530D01*
X-297607457Y-75176857D01*
X-297864636Y-74791962D01*
X-298191962Y-74464636D01*
X-298290000Y-74399129D01*
X-298290000Y-63810000D01*
X-276498769Y-63810000D01*
X-276430000Y-63816773D01*
X-276361231Y-63810000D01*
X-276361223Y-63810000D01*
X-276155552Y-63789743D01*
X-275891651Y-63709690D01*
X-275648438Y-63579690D01*
X-275435261Y-63404739D01*
X-275391416Y-63351314D01*
X-274898781Y-62858679D01*
X-274685679Y-62716289D01*
X-274483711Y-62514321D01*
X-274325027Y-62276833D01*
X-274215723Y-62012949D01*
X-274160000Y-61732813D01*
X-274160000Y-61447187D01*
X-274215723Y-61167051D01*
X-274325027Y-60903167D01*
X-274483711Y-60665679D01*
X-274685679Y-60463711D01*
X-274923167Y-60305027D01*
X-275187051Y-60195723D01*
X-275467187Y-60140000D01*
X-275752813Y-60140000D01*
X-276032949Y-60195723D01*
X-276296833Y-60305027D01*
X-276534321Y-60463711D01*
X-276736289Y-60665679D01*
X-276878679Y-60878781D01*
X-277009898Y-61010000D01*
X-299398162Y-61010000D01*
X-299670001Y-60983227D01*
X-299944448Y-61010257D01*
X-300208349Y-61090311D01*
X-300451561Y-61220311D01*
X-300611317Y-61351419D01*
X-300631314Y-61371416D01*
X-300684739Y-61415261D01*
X-300859690Y-61628438D01*
X-300989690Y-61871651D01*
X-301069743Y-62135552D01*
X-301096774Y-62410000D01*
X-301089999Y-62478787D01*
X-301090000Y-74399129D01*
X-301188038Y-74464636D01*
X-301515364Y-74791962D01*
X-301772543Y-75176857D01*
X-301949691Y-75604530D01*
X-302040000Y-76058545D01*
X-310345749Y-76058545D01*
X-310390309Y-75834530D01*
X-310567457Y-75406857D01*
X-310824636Y-75021962D01*
X-311151962Y-74694636D01*
X-311536857Y-74437457D01*
X-311964530Y-74260309D01*
X-312418545Y-74170000D01*
X-312881455Y-74170000D01*
X-313335470Y-74260309D01*
X-313763143Y-74437457D01*
X-314148038Y-74694636D01*
X-314475364Y-75021962D01*
X-314732543Y-75406857D01*
X-314909691Y-75834530D01*
X-315000000Y-76288545D01*
X-337540000Y-76288545D01*
X-337540000Y-71088974D01*
X-337470545Y-71438145D01*
X-337331088Y-71774823D01*
X-337128629Y-72077826D01*
X-336870946Y-72335509D01*
X-336567943Y-72537968D01*
X-336231265Y-72677425D01*
X-335873849Y-72748520D01*
X-335509431Y-72748520D01*
X-335152015Y-72677425D01*
X-334815337Y-72537968D01*
X-334512334Y-72335509D01*
X-334254651Y-72077826D01*
X-334052192Y-71774823D01*
X-333912735Y-71438145D01*
X-333841640Y-71080729D01*
X-333841640Y-70716311D01*
X-329921640Y-70716311D01*
X-329921640Y-71080729D01*
X-329850545Y-71438145D01*
X-329711088Y-71774823D01*
X-329508629Y-72077826D01*
X-329250946Y-72335509D01*
X-328947943Y-72537968D01*
X-328611265Y-72677425D01*
X-328253849Y-72748520D01*
X-327889431Y-72748520D01*
X-327532015Y-72677425D01*
X-327195337Y-72537968D01*
X-326892334Y-72335509D01*
X-326634651Y-72077826D01*
X-326432192Y-71774823D01*
X-326292735Y-71438145D01*
X-326221640Y-71080729D01*
X-326221640Y-70716311D01*
X-326292735Y-70358895D01*
X-326432192Y-70022217D01*
X-326634651Y-69719214D01*
X-326892334Y-69461531D01*
X-327195337Y-69259072D01*
X-327532015Y-69119615D01*
X-327889431Y-69048520D01*
X-328253849Y-69048520D01*
X-328611265Y-69119615D01*
X-328947943Y-69259072D01*
X-329250946Y-69461531D01*
X-329508629Y-69719214D01*
X-329711088Y-70022217D01*
X-329850545Y-70358895D01*
X-329921640Y-70716311D01*
X-333841640Y-70716311D01*
X-333912735Y-70358895D01*
X-334052192Y-70022217D01*
X-334254651Y-69719214D01*
X-334512334Y-69461531D01*
X-334815337Y-69259072D01*
X-335152015Y-69119615D01*
X-335509431Y-69048520D01*
X-335873849Y-69048520D01*
X-336231265Y-69119615D01*
X-336567943Y-69259072D01*
X-336870946Y-69461531D01*
X-337128629Y-69719214D01*
X-337331088Y-70022217D01*
X-337470545Y-70358895D01*
X-337540000Y-70708066D01*
X-337540000Y-61919898D01*
X-331588647Y-55968545D01*
X-315000000Y-55968545D01*
X-315000000Y-56431455D01*
X-314909691Y-56885470D01*
X-314732543Y-57313143D01*
X-314475364Y-57698038D01*
X-314148038Y-58025364D01*
X-313763143Y-58282543D01*
X-313335470Y-58459691D01*
X-312881455Y-58550000D01*
X-312418545Y-58550000D01*
X-311964530Y-58459691D01*
X-311536857Y-58282543D01*
X-311151962Y-58025364D01*
X-310824636Y-57698038D01*
X-310567457Y-57313143D01*
X-310390309Y-56885470D01*
X-310300000Y-56431455D01*
X-310300000Y-55968545D01*
X-310345749Y-55738545D01*
X-302040000Y-55738545D01*
X-302040000Y-56201455D01*
X-301949691Y-56655470D01*
X-301772543Y-57083143D01*
X-301515364Y-57468038D01*
X-301188038Y-57795364D01*
X-300803143Y-58052543D01*
X-300375470Y-58229691D01*
X-299921455Y-58320000D01*
X-299458545Y-58320000D01*
X-299004530Y-58229691D01*
X-298576857Y-58052543D01*
X-298191962Y-57795364D01*
X-297864636Y-57468038D01*
X-297607457Y-57083143D01*
X-297430309Y-56655470D01*
X-297340000Y-56201455D01*
X-297340000Y-56048545D01*
X-291140000Y-56048545D01*
X-291140000Y-56511455D01*
X-291049691Y-56965470D01*
X-290872543Y-57393143D01*
X-290615364Y-57778038D01*
X-290288038Y-58105364D01*
X-289903143Y-58362543D01*
X-289475470Y-58539691D01*
X-289021455Y-58630000D01*
X-288558545Y-58630000D01*
X-288104530Y-58539691D01*
X-287676857Y-58362543D01*
X-287291962Y-58105364D01*
X-286964636Y-57778038D01*
X-286707457Y-57393143D01*
X-286530309Y-56965470D01*
X-286440000Y-56511455D01*
X-286440000Y-56348545D01*
X-281160000Y-56348545D01*
X-281160000Y-56811455D01*
X-281069691Y-57265470D01*
X-280892543Y-57693143D01*
X-280635364Y-58078038D01*
X-280308038Y-58405364D01*
X-279923143Y-58662543D01*
X-279495470Y-58839691D01*
X-279041455Y-58930000D01*
X-278578545Y-58930000D01*
X-278124530Y-58839691D01*
X-277696857Y-58662543D01*
X-277311962Y-58405364D01*
X-276984636Y-58078038D01*
X-276727457Y-57693143D01*
X-276550309Y-57265470D01*
X-276460000Y-56811455D01*
X-276460000Y-56348545D01*
X-276550309Y-55894530D01*
X-276727457Y-55466857D01*
X-276984636Y-55081962D01*
X-277311962Y-54754636D01*
X-277696857Y-54497457D01*
X-278124530Y-54320309D01*
X-278578545Y-54230000D01*
X-279041455Y-54230000D01*
X-279495470Y-54320309D01*
X-279923143Y-54497457D01*
X-280308038Y-54754636D01*
X-280635364Y-55081962D01*
X-280892543Y-55466857D01*
X-281069691Y-55894530D01*
X-281160000Y-56348545D01*
X-286440000Y-56348545D01*
X-286440000Y-56048545D01*
X-286530309Y-55594530D01*
X-286707457Y-55166857D01*
X-286964636Y-54781962D01*
X-287291962Y-54454636D01*
X-287676857Y-54197457D01*
X-288104530Y-54020309D01*
X-288558545Y-53930000D01*
X-289021455Y-53930000D01*
X-289475470Y-54020309D01*
X-289903143Y-54197457D01*
X-290288038Y-54454636D01*
X-290615364Y-54781962D01*
X-290872543Y-55166857D01*
X-291049691Y-55594530D01*
X-291140000Y-56048545D01*
X-297340000Y-56048545D01*
X-297340000Y-55738545D01*
X-297430309Y-55284530D01*
X-297607457Y-54856857D01*
X-297864636Y-54471962D01*
X-298191962Y-54144636D01*
X-298576857Y-53887457D01*
X-299004530Y-53710309D01*
X-299458545Y-53620000D01*
X-299921455Y-53620000D01*
X-300375470Y-53710309D01*
X-300803143Y-53887457D01*
X-301188038Y-54144636D01*
X-301515364Y-54471962D01*
X-301772543Y-54856857D01*
X-301949691Y-55284530D01*
X-302040000Y-55738545D01*
X-310345749Y-55738545D01*
X-310390309Y-55514530D01*
X-310567457Y-55086857D01*
X-310824636Y-54701962D01*
X-311151962Y-54374636D01*
X-311536857Y-54117457D01*
X-311964530Y-53940309D01*
X-312418545Y-53850000D01*
X-312881455Y-53850000D01*
X-313335470Y-53940309D01*
X-313763143Y-54117457D01*
X-314148038Y-54374636D01*
X-314475364Y-54701962D01*
X-314732543Y-55086857D01*
X-314909691Y-55514530D01*
X-315000000Y-55968545D01*
X-331588647Y-55968545D01*
X-326023302Y-50403200D01*
X-285473564Y-50403200D01*
X-285473564Y-51603200D01*
X-285451360Y-51828639D01*
X-285385602Y-52045415D01*
X-285278816Y-52245197D01*
X-285135107Y-52420307D01*
X-284959997Y-52564016D01*
X-284760215Y-52670802D01*
X-284543439Y-52736560D01*
X-284318000Y-52758764D01*
X-283118000Y-52758764D01*
X-282892561Y-52736560D01*
X-282712934Y-52682071D01*
X-282579722Y-52724062D01*
X-282237048Y-52761564D01*
X-281893642Y-52731493D01*
X-281562701Y-52635005D01*
X-281256943Y-52475808D01*
X-281225267Y-52454644D01*
X-281213825Y-52078086D01*
X-281962436Y-51329475D01*
X-281962436Y-51188053D01*
X-281143114Y-52007375D01*
X-280766556Y-51995933D01*
X-280600773Y-51693695D01*
X-280497138Y-51364922D01*
X-280459636Y-51022248D01*
X-280489707Y-50678842D01*
X-280586195Y-50347901D01*
X-280745392Y-50042143D01*
X-280766556Y-50010467D01*
X-281143114Y-49999025D01*
X-281962436Y-50818347D01*
X-281962436Y-50676925D01*
X-281213825Y-49928314D01*
X-281225267Y-49551756D01*
X-281527505Y-49385973D01*
X-281856278Y-49282338D01*
X-282198952Y-49244836D01*
X-282542358Y-49274907D01*
X-282712412Y-49324487D01*
X-282892561Y-49269840D01*
X-283118000Y-49247636D01*
X-284318000Y-49247636D01*
X-284543439Y-49269840D01*
X-284760215Y-49335598D01*
X-284959997Y-49442384D01*
X-285135107Y-49586093D01*
X-285278816Y-49761203D01*
X-285385602Y-49960985D01*
X-285451360Y-50177761D01*
X-285473564Y-50403200D01*
X-326023302Y-50403200D01*
X-324212258Y-48592156D01*
X-279986938Y-48592156D01*
X-279975806Y-48648126D01*
X-279856653Y-49021651D01*
X-279666919Y-49364753D01*
X-279413895Y-49664247D01*
X-279107304Y-49908624D01*
X-278758928Y-50088492D01*
X-278382156Y-50196939D01*
X-278070000Y-49941876D01*
X-278070000Y-48280000D01*
X-277970000Y-48280000D01*
X-277970000Y-49941876D01*
X-277657844Y-50196939D01*
X-277281072Y-50088492D01*
X-276932696Y-49908624D01*
X-276626105Y-49664247D01*
X-276373081Y-49364753D01*
X-276183347Y-49021651D01*
X-276064194Y-48648126D01*
X-276053062Y-48592156D01*
X-276308230Y-48280000D01*
X-277970000Y-48280000D01*
X-278070000Y-48280000D01*
X-279731770Y-48280000D01*
X-279986938Y-48592156D01*
X-324212258Y-48592156D01*
X-320237893Y-44617791D01*
X-308020000Y-44617791D01*
X-308020000Y-44982209D01*
X-307948905Y-45339625D01*
X-307809448Y-45676303D01*
X-307606989Y-45979306D01*
X-307349306Y-46236989D01*
X-307046303Y-46439448D01*
X-306709625Y-46578905D01*
X-306352209Y-46650000D01*
X-305987791Y-46650000D01*
X-305630375Y-46578905D01*
X-305293697Y-46439448D01*
X-304990694Y-46236989D01*
X-304733011Y-45979306D01*
X-304530552Y-45676303D01*
X-304391095Y-45339625D01*
X-304320000Y-44982209D01*
X-304320000Y-44617791D01*
X-300400000Y-44617791D01*
X-300400000Y-44982209D01*
X-300328905Y-45339625D01*
X-300189448Y-45676303D01*
X-299986989Y-45979306D01*
X-299729306Y-46236989D01*
X-299426303Y-46439448D01*
X-299089625Y-46578905D01*
X-298732209Y-46650000D01*
X-298367791Y-46650000D01*
X-298010375Y-46578905D01*
X-297673697Y-46439448D01*
X-297370694Y-46236989D01*
X-297113011Y-45979306D01*
X-296910552Y-45676303D01*
X-296771095Y-45339625D01*
X-296700000Y-44982209D01*
X-296700000Y-44617791D01*
X-296771095Y-44260375D01*
X-296910552Y-43923697D01*
X-297113011Y-43620694D01*
X-297370694Y-43363011D01*
X-297673697Y-43160552D01*
X-298010375Y-43021095D01*
X-298367791Y-42950000D01*
X-298732209Y-42950000D01*
X-299089625Y-43021095D01*
X-299426303Y-43160552D01*
X-299729306Y-43363011D01*
X-299986989Y-43620694D01*
X-300189448Y-43923697D01*
X-300328905Y-44260375D01*
X-300400000Y-44617791D01*
X-304320000Y-44617791D01*
X-304391095Y-44260375D01*
X-304530552Y-43923697D01*
X-304733011Y-43620694D01*
X-304990694Y-43363011D01*
X-305293697Y-43160552D01*
X-305630375Y-43021095D01*
X-305987791Y-42950000D01*
X-306352209Y-42950000D01*
X-306709625Y-43021095D01*
X-307046303Y-43160552D01*
X-307349306Y-43363011D01*
X-307606989Y-43620694D01*
X-307809448Y-43923697D01*
X-307948905Y-44260375D01*
X-308020000Y-44617791D01*
X-320237893Y-44617791D01*
X-317850101Y-42230000D01*
X-287864178Y-42230000D01*
X-287612813Y-42280000D01*
X-287327187Y-42280000D01*
X-287047051Y-42224277D01*
X-286783167Y-42114973D01*
X-286545679Y-41956289D01*
X-286343711Y-41754321D01*
X-286185027Y-41516833D01*
X-286075723Y-41252949D01*
X-286020000Y-40972813D01*
X-286020000Y-40687187D01*
X-286075723Y-40407051D01*
X-286185027Y-40143167D01*
X-286343711Y-39905679D01*
X-286545679Y-39703711D01*
X-286783167Y-39545027D01*
X-287047051Y-39435723D01*
X-287176368Y-39410000D01*
X-285289999Y-39410000D01*
X-285290000Y-45331231D01*
%TA.AperFunction,Conductor*%
D26*
G36*
X-285290000Y-45331231D02*
G01*
X-285296773Y-45400000D01*
X-285290000Y-45468769D01*
X-285290000Y-45468776D01*
X-285269743Y-45674447D01*
X-285189690Y-45938348D01*
X-285059690Y-46181561D01*
X-284884739Y-46394738D01*
X-284831318Y-46438580D01*
X-284638584Y-46631314D01*
X-284594739Y-46684739D01*
X-284381562Y-46859690D01*
X-284138349Y-46989690D01*
X-283874448Y-47069743D01*
X-283668777Y-47090000D01*
X-283668769Y-47090000D01*
X-283600000Y-47096773D01*
X-283531231Y-47090000D01*
X-279662486Y-47090000D01*
X-279666919Y-47095247D01*
X-279856653Y-47438349D01*
X-279975806Y-47811874D01*
X-279986938Y-47867844D01*
X-279731770Y-48180000D01*
X-278070000Y-48180000D01*
X-278070000Y-48160000D01*
X-277970000Y-48160000D01*
X-277970000Y-48180000D01*
X-276308230Y-48180000D01*
X-276053062Y-47867844D01*
X-276064194Y-47811874D01*
X-276183347Y-47438349D01*
X-276373081Y-47095247D01*
X-276475542Y-46973969D01*
X-276466499Y-46964926D01*
X-276353735Y-46796163D01*
X-271108575Y-52041324D01*
X-271064739Y-52094738D01*
X-271011323Y-52138576D01*
X-271011317Y-52138582D01*
X-270925626Y-52208907D01*
X-270851562Y-52269690D01*
X-270608349Y-52399690D01*
X-270344448Y-52479743D01*
X-270070000Y-52506774D01*
X-269820159Y-52482167D01*
X-269795552Y-52479743D01*
X-269712812Y-52454644D01*
X-269531652Y-52399690D01*
X-269288439Y-52269690D01*
X-269102110Y-52116773D01*
X-269075261Y-52094739D01*
X-268994173Y-51995933D01*
X-268900310Y-51881562D01*
X-268835334Y-51760000D01*
X-247869990Y-51760000D01*
X-247869990Y-51952823D01*
X-247814267Y-52232959D01*
X-247704963Y-52496843D01*
X-247546279Y-52734331D01*
X-247344311Y-52936299D01*
X-247106823Y-53094983D01*
X-246842939Y-53204287D01*
X-246562803Y-53260010D01*
X-246277177Y-53260010D01*
X-246025812Y-53210010D01*
X-241918437Y-53210010D01*
X-242003501Y-53295074D01*
X-242222377Y-53622645D01*
X-242373141Y-53986622D01*
X-242450000Y-54373017D01*
X-242450000Y-54766983D01*
X-242373141Y-55153378D01*
X-242222377Y-55517355D01*
X-242093656Y-55710000D01*
X-247861232Y-55710000D01*
X-247930001Y-55703227D01*
X-247998770Y-55710000D01*
X-247998777Y-55710000D01*
X-248177462Y-55727599D01*
X-248204449Y-55730257D01*
X-248235545Y-55739690D01*
X-248468349Y-55810310D01*
X-248711562Y-55940310D01*
X-248924739Y-56115261D01*
X-248968582Y-56168684D01*
X-249191318Y-56391420D01*
X-249244739Y-56435262D01*
X-249288580Y-56488682D01*
X-249288582Y-56488684D01*
X-249319717Y-56526622D01*
X-249419690Y-56648439D01*
X-249549690Y-56891652D01*
X-249629743Y-57155553D01*
X-249650000Y-57361224D01*
X-249650000Y-57361231D01*
X-249656773Y-57430000D01*
X-249650000Y-57498769D01*
X-249650000Y-60846436D01*
X-249670310Y-60808438D01*
X-249845261Y-60595261D01*
X-250058438Y-60420310D01*
X-250301651Y-60290310D01*
X-250565552Y-60210257D01*
X-250771223Y-60190000D01*
X-250840000Y-60183226D01*
X-250908777Y-60190000D01*
X-263770101Y-60190000D01*
X-260758778Y-57178677D01*
X-260545679Y-57036289D01*
X-260343711Y-56834321D01*
X-260185027Y-56596833D01*
X-260075723Y-56332949D01*
X-260020000Y-56052813D01*
X-260020000Y-55767187D01*
X-260075723Y-55487051D01*
X-260185027Y-55223167D01*
X-260343711Y-54985679D01*
X-260545679Y-54783711D01*
X-260783167Y-54625027D01*
X-261047051Y-54515723D01*
X-261327187Y-54460000D01*
X-261612813Y-54460000D01*
X-261892949Y-54515723D01*
X-262156833Y-54625027D01*
X-262394321Y-54783711D01*
X-262596289Y-54985679D01*
X-262738677Y-55198778D01*
X-273259898Y-65720000D01*
X-276925822Y-65720000D01*
X-277177187Y-65670000D01*
X-277462813Y-65670000D01*
X-277742949Y-65725723D01*
X-278006833Y-65835027D01*
X-278244321Y-65993711D01*
X-278446289Y-66195679D01*
X-278604973Y-66433167D01*
X-278714277Y-66697051D01*
X-278770000Y-66977187D01*
X-278770000Y-67262813D01*
X-278714277Y-67542949D01*
X-278604973Y-67806833D01*
X-278446289Y-68044321D01*
X-278244321Y-68246289D01*
X-278006833Y-68404973D01*
X-277742949Y-68514277D01*
X-277462813Y-68570000D01*
X-277177187Y-68570000D01*
X-276925822Y-68520000D01*
X-273559898Y-68520000D01*
X-274739898Y-69700000D01*
X-293625822Y-69700000D01*
X-293877187Y-69650000D01*
X-294162813Y-69650000D01*
X-294442949Y-69705723D01*
X-294706833Y-69815027D01*
X-294944321Y-69973711D01*
X-295146289Y-70175679D01*
X-295304973Y-70413167D01*
X-295414277Y-70677051D01*
X-295470000Y-70957187D01*
X-295470000Y-71242813D01*
X-295414277Y-71522949D01*
X-295304973Y-71786833D01*
X-295146289Y-72024321D01*
X-294944321Y-72226289D01*
X-294706833Y-72384973D01*
X-294442949Y-72494277D01*
X-294162813Y-72550000D01*
X-293877187Y-72550000D01*
X-293625822Y-72500000D01*
X-274228769Y-72500000D01*
X-274160000Y-72506773D01*
X-274091231Y-72500000D01*
X-274091223Y-72500000D01*
X-273885552Y-72479743D01*
X-273621651Y-72399690D01*
X-273378438Y-72269690D01*
X-273165261Y-72094739D01*
X-273121416Y-72041314D01*
X-272189999Y-71109897D01*
X-272190000Y-74620101D01*
X-273069898Y-75500000D01*
X-276919129Y-75500000D01*
X-276984636Y-75401962D01*
X-277311962Y-75074636D01*
X-277696857Y-74817457D01*
X-278124530Y-74640309D01*
X-278578545Y-74550000D01*
X-279041455Y-74550000D01*
X-279495470Y-74640309D01*
X-279923143Y-74817457D01*
X-280308038Y-75074636D01*
X-280635364Y-75401962D01*
X-280892543Y-75786857D01*
X-281069691Y-76214530D01*
X-281160000Y-76668545D01*
X-281160000Y-77131455D01*
X-281069691Y-77585470D01*
X-280892543Y-78013143D01*
X-280635364Y-78398038D01*
X-280308038Y-78725364D01*
X-279923143Y-78982543D01*
X-279495470Y-79159691D01*
X-279041455Y-79250000D01*
X-278578545Y-79250000D01*
X-278124530Y-79159691D01*
X-277696857Y-78982543D01*
X-277311962Y-78725364D01*
X-276984636Y-78398038D01*
X-276919129Y-78300000D01*
X-272558769Y-78300000D01*
X-272490000Y-78306773D01*
X-272421231Y-78300000D01*
X-272421223Y-78300000D01*
X-272215552Y-78279743D01*
X-271951651Y-78199690D01*
X-271708438Y-78069690D01*
X-271495261Y-77894739D01*
X-271451416Y-77841314D01*
X-269848676Y-76238575D01*
X-269795262Y-76194739D01*
X-269751424Y-76141323D01*
X-269751418Y-76141317D01*
X-269676476Y-76050000D01*
X-269620310Y-75981562D01*
X-269490310Y-75738349D01*
X-269410257Y-75474448D01*
X-269390000Y-75268777D01*
X-269390000Y-75268770D01*
X-269383227Y-75200001D01*
X-269390000Y-75131232D01*
X-269390000Y-73051945D01*
X-269142949Y-73154277D01*
X-268862813Y-73210000D01*
X-268577187Y-73210000D01*
X-268325822Y-73160000D01*
X-256858769Y-73160000D01*
X-256790000Y-73166773D01*
X-256721231Y-73160000D01*
X-256721223Y-73160000D01*
X-256515552Y-73139743D01*
X-256251651Y-73059690D01*
X-256008438Y-72929690D01*
X-255795261Y-72754739D01*
X-255751416Y-72701314D01*
X-255688686Y-72638584D01*
X-255635261Y-72594739D01*
X-255460310Y-72381562D01*
X-255330310Y-72138349D01*
X-255250257Y-71874448D01*
X-255230000Y-71668777D01*
X-255230000Y-71668770D01*
X-255223227Y-71600001D01*
X-255230000Y-71531232D01*
X-255230000Y-68991223D01*
X-255237109Y-68919048D01*
X-255112893Y-68817107D01*
X-254969184Y-68641997D01*
X-254862398Y-68442215D01*
X-254796640Y-68225439D01*
X-254774436Y-68000000D01*
X-254774436Y-67700000D01*
X-254784285Y-67600000D01*
X-254774436Y-67500000D01*
X-254774436Y-67200000D01*
X-254780400Y-67139452D01*
X-254780000Y-67137500D01*
X-254780656Y-67136844D01*
X-254796640Y-66974561D01*
X-254834425Y-66850000D01*
X-254796640Y-66725439D01*
X-254780656Y-66563156D01*
X-254780000Y-66562500D01*
X-254780400Y-66560548D01*
X-254774436Y-66500000D01*
X-254774436Y-66200000D01*
X-254784285Y-66100000D01*
X-254774436Y-66000000D01*
X-254774436Y-65700000D01*
X-254796640Y-65474561D01*
X-254862398Y-65257785D01*
X-254969184Y-65058003D01*
X-255112893Y-64882893D01*
X-255288003Y-64739184D01*
X-255330000Y-64716736D01*
X-255330000Y-64200555D01*
X-255235723Y-63972949D01*
X-255180000Y-63692813D01*
X-255180000Y-63407187D01*
X-255235723Y-63127051D01*
X-255292491Y-62990000D01*
X-252240000Y-62990000D01*
X-252240000Y-63140000D01*
X-252392813Y-63140000D01*
X-252672949Y-63195723D01*
X-252936833Y-63305027D01*
X-253174321Y-63463711D01*
X-253376289Y-63665679D01*
X-253534973Y-63903167D01*
X-253644277Y-64167051D01*
X-253700000Y-64447187D01*
X-253700000Y-64732813D01*
X-253680947Y-64828597D01*
X-253747107Y-64882893D01*
X-253890816Y-65058003D01*
X-253997602Y-65257785D01*
X-254063360Y-65474561D01*
X-254085564Y-65700000D01*
X-254085564Y-66000000D01*
X-254075715Y-66100000D01*
X-254085564Y-66200000D01*
X-254085564Y-66500000D01*
X-254075715Y-66600000D01*
X-254085564Y-66700000D01*
X-254085564Y-67000000D01*
X-254075715Y-67100000D01*
X-254085564Y-67200000D01*
X-254085564Y-67500000D01*
X-254075715Y-67600000D01*
X-254085564Y-67700000D01*
X-254085564Y-68000000D01*
X-254063360Y-68225439D01*
X-253997602Y-68442215D01*
X-253890816Y-68641997D01*
X-253747107Y-68817107D01*
X-253630000Y-68913214D01*
X-253629999Y-70881221D01*
X-253636773Y-70950000D01*
X-253609743Y-71224447D01*
X-253556584Y-71399689D01*
X-253529689Y-71488349D01*
X-253416559Y-71700000D01*
X-253422813Y-71700000D01*
X-253702949Y-71755723D01*
X-253966833Y-71865027D01*
X-254204321Y-72023711D01*
X-254406289Y-72225679D01*
X-254564973Y-72463167D01*
X-254674277Y-72727051D01*
X-254730000Y-73007187D01*
X-254730000Y-73292813D01*
X-254674277Y-73572949D01*
X-254564973Y-73836833D01*
X-254406289Y-74074321D01*
X-254204321Y-74276289D01*
X-253966833Y-74434973D01*
X-253702949Y-74544277D01*
X-253422813Y-74600000D01*
X-253137187Y-74600000D01*
X-252885822Y-74550000D01*
X-243048777Y-74550000D01*
X-242980000Y-74556774D01*
X-242911223Y-74550000D01*
X-242421552Y-74550000D01*
X-242450000Y-74693017D01*
X-242450000Y-75086983D01*
X-242373141Y-75473378D01*
X-242222377Y-75837355D01*
X-242003501Y-76164926D01*
X-241994458Y-76173969D01*
X-242096919Y-76295247D01*
X-242286653Y-76638349D01*
X-242405806Y-77011874D01*
X-242416938Y-77067844D01*
X-242161770Y-77380000D01*
X-240500000Y-77380000D01*
X-240500000Y-77360000D01*
X-240400000Y-77360000D01*
X-240400000Y-77380000D01*
X-237960000Y-77380000D01*
X-237960000Y-77360000D01*
X-237860000Y-77360000D01*
X-237860000Y-77380000D01*
X-237840000Y-77380000D01*
X-237840000Y-77480000D01*
X-237860000Y-77480000D01*
X-237860000Y-77500000D01*
X-237960000Y-77500000D01*
X-237960000Y-77480000D01*
X-240400000Y-77480000D01*
X-240400000Y-77500000D01*
X-240500000Y-77500000D01*
X-240500000Y-77480000D01*
X-242161770Y-77480000D01*
X-242416938Y-77792156D01*
X-242405806Y-77848126D01*
X-242286653Y-78221651D01*
X-242096919Y-78564753D01*
X-241994458Y-78686031D01*
X-242003501Y-78695074D01*
X-242222377Y-79022645D01*
X-242373141Y-79386622D01*
X-242450000Y-79773017D01*
X-242450000Y-80166983D01*
X-242373141Y-80553378D01*
X-242222377Y-80917355D01*
X-242006792Y-81240000D01*
X-242222377Y-81562645D01*
X-242373141Y-81926622D01*
X-242450000Y-82313017D01*
X-242450000Y-82706983D01*
X-242373141Y-83093378D01*
X-242222377Y-83457355D01*
X-242006792Y-83780000D01*
X-242222377Y-84102645D01*
X-242373141Y-84466622D01*
X-242450000Y-84853017D01*
X-242450000Y-85246983D01*
X-242373141Y-85633378D01*
X-242222377Y-85997355D01*
X-242006792Y-86320000D01*
X-242222377Y-86642645D01*
X-242373141Y-87006622D01*
X-242450000Y-87393017D01*
X-242450000Y-87786983D01*
X-242373141Y-88173378D01*
X-242222377Y-88537355D01*
X-242003501Y-88864926D01*
X-241724926Y-89143501D01*
X-241397355Y-89362377D01*
X-241033378Y-89513141D01*
X-240646983Y-89590000D01*
X-240253017Y-89590000D01*
X-239866622Y-89513141D01*
X-239502645Y-89362377D01*
X-239310000Y-89233655D01*
X-239309999Y-91330000D01*
X-241640101Y-91330000D01*
X-241834660Y-91135442D01*
X-241860257Y-90875552D01*
X-241940310Y-90611651D01*
X-242070310Y-90368438D01*
X-242245261Y-90155261D01*
X-242458438Y-89980310D01*
X-242701651Y-89850310D01*
X-242965552Y-89770257D01*
X-243171223Y-89750000D01*
X-243171232Y-89750000D01*
X-243240001Y-89743227D01*
X-243308770Y-89750000D01*
X-327570101Y-89750000D01*
X-336843222Y-80476880D01*
X-336871261Y-80384448D01*
X-336890310Y-80321652D01*
X-337020310Y-80078439D01*
X-337195261Y-79865261D01*
X-337248686Y-79821416D01*
X-337540000Y-79530102D01*
X-337540000Y-76288545D01*
X-315000000Y-76288545D01*
X-315000000Y-76751455D01*
X-314909691Y-77205470D01*
X-314732543Y-77633143D01*
X-314475364Y-78018038D01*
X-314148038Y-78345364D01*
X-313763143Y-78602543D01*
X-313335470Y-78779691D01*
X-312881455Y-78870000D01*
X-312418545Y-78870000D01*
X-311964530Y-78779691D01*
X-311536857Y-78602543D01*
X-311151962Y-78345364D01*
X-310824636Y-78018038D01*
X-310567457Y-77633143D01*
X-310390309Y-77205470D01*
X-310300000Y-76751455D01*
X-310300000Y-76288545D01*
X-310345749Y-76058545D01*
X-302040000Y-76058545D01*
X-302040000Y-76521455D01*
X-301949691Y-76975470D01*
X-301772543Y-77403143D01*
X-301515364Y-77788038D01*
X-301188038Y-78115364D01*
X-300803143Y-78372543D01*
X-300375470Y-78549691D01*
X-299921455Y-78640000D01*
X-299458545Y-78640000D01*
X-299004530Y-78549691D01*
X-298576857Y-78372543D01*
X-298191962Y-78115364D01*
X-297864636Y-77788038D01*
X-297607457Y-77403143D01*
X-297430309Y-76975470D01*
X-297340000Y-76521455D01*
X-297340000Y-76368545D01*
X-291140000Y-76368545D01*
X-291140000Y-76831455D01*
X-291049691Y-77285470D01*
X-290872543Y-77713143D01*
X-290615364Y-78098038D01*
X-290288038Y-78425364D01*
X-289903143Y-78682543D01*
X-289475470Y-78859691D01*
X-289021455Y-78950000D01*
X-288558545Y-78950000D01*
X-288104530Y-78859691D01*
X-287676857Y-78682543D01*
X-287291962Y-78425364D01*
X-286964636Y-78098038D01*
X-286707457Y-77713143D01*
X-286530309Y-77285470D01*
X-286440000Y-76831455D01*
X-286440000Y-76368545D01*
X-286530309Y-75914530D01*
X-286707457Y-75486857D01*
X-286964636Y-75101962D01*
X-287291962Y-74774636D01*
X-287676857Y-74517457D01*
X-288104530Y-74340309D01*
X-288558545Y-74250000D01*
X-289021455Y-74250000D01*
X-289475470Y-74340309D01*
X-289903143Y-74517457D01*
X-290288038Y-74774636D01*
X-290615364Y-75101962D01*
X-290872543Y-75486857D01*
X-291049691Y-75914530D01*
X-291140000Y-76368545D01*
X-297340000Y-76368545D01*
X-297340000Y-76058545D01*
X-297430309Y-75604530D01*
X-297607457Y-75176857D01*
X-297864636Y-74791962D01*
X-298191962Y-74464636D01*
X-298290000Y-74399129D01*
X-298290000Y-63810000D01*
X-276498769Y-63810000D01*
X-276430000Y-63816773D01*
X-276361231Y-63810000D01*
X-276361223Y-63810000D01*
X-276155552Y-63789743D01*
X-275891651Y-63709690D01*
X-275648438Y-63579690D01*
X-275435261Y-63404739D01*
X-275391416Y-63351314D01*
X-274898781Y-62858679D01*
X-274685679Y-62716289D01*
X-274483711Y-62514321D01*
X-274325027Y-62276833D01*
X-274215723Y-62012949D01*
X-274160000Y-61732813D01*
X-274160000Y-61447187D01*
X-274215723Y-61167051D01*
X-274325027Y-60903167D01*
X-274483711Y-60665679D01*
X-274685679Y-60463711D01*
X-274923167Y-60305027D01*
X-275187051Y-60195723D01*
X-275467187Y-60140000D01*
X-275752813Y-60140000D01*
X-276032949Y-60195723D01*
X-276296833Y-60305027D01*
X-276534321Y-60463711D01*
X-276736289Y-60665679D01*
X-276878679Y-60878781D01*
X-277009898Y-61010000D01*
X-299398162Y-61010000D01*
X-299670001Y-60983227D01*
X-299944448Y-61010257D01*
X-300208349Y-61090311D01*
X-300451561Y-61220311D01*
X-300611317Y-61351419D01*
X-300631314Y-61371416D01*
X-300684739Y-61415261D01*
X-300859690Y-61628438D01*
X-300989690Y-61871651D01*
X-301069743Y-62135552D01*
X-301096774Y-62410000D01*
X-301089999Y-62478787D01*
X-301090000Y-74399129D01*
X-301188038Y-74464636D01*
X-301515364Y-74791962D01*
X-301772543Y-75176857D01*
X-301949691Y-75604530D01*
X-302040000Y-76058545D01*
X-310345749Y-76058545D01*
X-310390309Y-75834530D01*
X-310567457Y-75406857D01*
X-310824636Y-75021962D01*
X-311151962Y-74694636D01*
X-311536857Y-74437457D01*
X-311964530Y-74260309D01*
X-312418545Y-74170000D01*
X-312881455Y-74170000D01*
X-313335470Y-74260309D01*
X-313763143Y-74437457D01*
X-314148038Y-74694636D01*
X-314475364Y-75021962D01*
X-314732543Y-75406857D01*
X-314909691Y-75834530D01*
X-315000000Y-76288545D01*
X-337540000Y-76288545D01*
X-337540000Y-71088974D01*
X-337470545Y-71438145D01*
X-337331088Y-71774823D01*
X-337128629Y-72077826D01*
X-336870946Y-72335509D01*
X-336567943Y-72537968D01*
X-336231265Y-72677425D01*
X-335873849Y-72748520D01*
X-335509431Y-72748520D01*
X-335152015Y-72677425D01*
X-334815337Y-72537968D01*
X-334512334Y-72335509D01*
X-334254651Y-72077826D01*
X-334052192Y-71774823D01*
X-333912735Y-71438145D01*
X-333841640Y-71080729D01*
X-333841640Y-70716311D01*
X-329921640Y-70716311D01*
X-329921640Y-71080729D01*
X-329850545Y-71438145D01*
X-329711088Y-71774823D01*
X-329508629Y-72077826D01*
X-329250946Y-72335509D01*
X-328947943Y-72537968D01*
X-328611265Y-72677425D01*
X-328253849Y-72748520D01*
X-327889431Y-72748520D01*
X-327532015Y-72677425D01*
X-327195337Y-72537968D01*
X-326892334Y-72335509D01*
X-326634651Y-72077826D01*
X-326432192Y-71774823D01*
X-326292735Y-71438145D01*
X-326221640Y-71080729D01*
X-326221640Y-70716311D01*
X-326292735Y-70358895D01*
X-326432192Y-70022217D01*
X-326634651Y-69719214D01*
X-326892334Y-69461531D01*
X-327195337Y-69259072D01*
X-327532015Y-69119615D01*
X-327889431Y-69048520D01*
X-328253849Y-69048520D01*
X-328611265Y-69119615D01*
X-328947943Y-69259072D01*
X-329250946Y-69461531D01*
X-329508629Y-69719214D01*
X-329711088Y-70022217D01*
X-329850545Y-70358895D01*
X-329921640Y-70716311D01*
X-333841640Y-70716311D01*
X-333912735Y-70358895D01*
X-334052192Y-70022217D01*
X-334254651Y-69719214D01*
X-334512334Y-69461531D01*
X-334815337Y-69259072D01*
X-335152015Y-69119615D01*
X-335509431Y-69048520D01*
X-335873849Y-69048520D01*
X-336231265Y-69119615D01*
X-336567943Y-69259072D01*
X-336870946Y-69461531D01*
X-337128629Y-69719214D01*
X-337331088Y-70022217D01*
X-337470545Y-70358895D01*
X-337540000Y-70708066D01*
X-337540000Y-61919898D01*
X-331588647Y-55968545D01*
X-315000000Y-55968545D01*
X-315000000Y-56431455D01*
X-314909691Y-56885470D01*
X-314732543Y-57313143D01*
X-314475364Y-57698038D01*
X-314148038Y-58025364D01*
X-313763143Y-58282543D01*
X-313335470Y-58459691D01*
X-312881455Y-58550000D01*
X-312418545Y-58550000D01*
X-311964530Y-58459691D01*
X-311536857Y-58282543D01*
X-311151962Y-58025364D01*
X-310824636Y-57698038D01*
X-310567457Y-57313143D01*
X-310390309Y-56885470D01*
X-310300000Y-56431455D01*
X-310300000Y-55968545D01*
X-310345749Y-55738545D01*
X-302040000Y-55738545D01*
X-302040000Y-56201455D01*
X-301949691Y-56655470D01*
X-301772543Y-57083143D01*
X-301515364Y-57468038D01*
X-301188038Y-57795364D01*
X-300803143Y-58052543D01*
X-300375470Y-58229691D01*
X-299921455Y-58320000D01*
X-299458545Y-58320000D01*
X-299004530Y-58229691D01*
X-298576857Y-58052543D01*
X-298191962Y-57795364D01*
X-297864636Y-57468038D01*
X-297607457Y-57083143D01*
X-297430309Y-56655470D01*
X-297340000Y-56201455D01*
X-297340000Y-56048545D01*
X-291140000Y-56048545D01*
X-291140000Y-56511455D01*
X-291049691Y-56965470D01*
X-290872543Y-57393143D01*
X-290615364Y-57778038D01*
X-290288038Y-58105364D01*
X-289903143Y-58362543D01*
X-289475470Y-58539691D01*
X-289021455Y-58630000D01*
X-288558545Y-58630000D01*
X-288104530Y-58539691D01*
X-287676857Y-58362543D01*
X-287291962Y-58105364D01*
X-286964636Y-57778038D01*
X-286707457Y-57393143D01*
X-286530309Y-56965470D01*
X-286440000Y-56511455D01*
X-286440000Y-56348545D01*
X-281160000Y-56348545D01*
X-281160000Y-56811455D01*
X-281069691Y-57265470D01*
X-280892543Y-57693143D01*
X-280635364Y-58078038D01*
X-280308038Y-58405364D01*
X-279923143Y-58662543D01*
X-279495470Y-58839691D01*
X-279041455Y-58930000D01*
X-278578545Y-58930000D01*
X-278124530Y-58839691D01*
X-277696857Y-58662543D01*
X-277311962Y-58405364D01*
X-276984636Y-58078038D01*
X-276727457Y-57693143D01*
X-276550309Y-57265470D01*
X-276460000Y-56811455D01*
X-276460000Y-56348545D01*
X-276550309Y-55894530D01*
X-276727457Y-55466857D01*
X-276984636Y-55081962D01*
X-277311962Y-54754636D01*
X-277696857Y-54497457D01*
X-278124530Y-54320309D01*
X-278578545Y-54230000D01*
X-279041455Y-54230000D01*
X-279495470Y-54320309D01*
X-279923143Y-54497457D01*
X-280308038Y-54754636D01*
X-280635364Y-55081962D01*
X-280892543Y-55466857D01*
X-281069691Y-55894530D01*
X-281160000Y-56348545D01*
X-286440000Y-56348545D01*
X-286440000Y-56048545D01*
X-286530309Y-55594530D01*
X-286707457Y-55166857D01*
X-286964636Y-54781962D01*
X-287291962Y-54454636D01*
X-287676857Y-54197457D01*
X-288104530Y-54020309D01*
X-288558545Y-53930000D01*
X-289021455Y-53930000D01*
X-289475470Y-54020309D01*
X-289903143Y-54197457D01*
X-290288038Y-54454636D01*
X-290615364Y-54781962D01*
X-290872543Y-55166857D01*
X-291049691Y-55594530D01*
X-291140000Y-56048545D01*
X-297340000Y-56048545D01*
X-297340000Y-55738545D01*
X-297430309Y-55284530D01*
X-297607457Y-54856857D01*
X-297864636Y-54471962D01*
X-298191962Y-54144636D01*
X-298576857Y-53887457D01*
X-299004530Y-53710309D01*
X-299458545Y-53620000D01*
X-299921455Y-53620000D01*
X-300375470Y-53710309D01*
X-300803143Y-53887457D01*
X-301188038Y-54144636D01*
X-301515364Y-54471962D01*
X-301772543Y-54856857D01*
X-301949691Y-55284530D01*
X-302040000Y-55738545D01*
X-310345749Y-55738545D01*
X-310390309Y-55514530D01*
X-310567457Y-55086857D01*
X-310824636Y-54701962D01*
X-311151962Y-54374636D01*
X-311536857Y-54117457D01*
X-311964530Y-53940309D01*
X-312418545Y-53850000D01*
X-312881455Y-53850000D01*
X-313335470Y-53940309D01*
X-313763143Y-54117457D01*
X-314148038Y-54374636D01*
X-314475364Y-54701962D01*
X-314732543Y-55086857D01*
X-314909691Y-55514530D01*
X-315000000Y-55968545D01*
X-331588647Y-55968545D01*
X-326023302Y-50403200D01*
X-285473564Y-50403200D01*
X-285473564Y-51603200D01*
X-285451360Y-51828639D01*
X-285385602Y-52045415D01*
X-285278816Y-52245197D01*
X-285135107Y-52420307D01*
X-284959997Y-52564016D01*
X-284760215Y-52670802D01*
X-284543439Y-52736560D01*
X-284318000Y-52758764D01*
X-283118000Y-52758764D01*
X-282892561Y-52736560D01*
X-282712934Y-52682071D01*
X-282579722Y-52724062D01*
X-282237048Y-52761564D01*
X-281893642Y-52731493D01*
X-281562701Y-52635005D01*
X-281256943Y-52475808D01*
X-281225267Y-52454644D01*
X-281213825Y-52078086D01*
X-281962436Y-51329475D01*
X-281962436Y-51188053D01*
X-281143114Y-52007375D01*
X-280766556Y-51995933D01*
X-280600773Y-51693695D01*
X-280497138Y-51364922D01*
X-280459636Y-51022248D01*
X-280489707Y-50678842D01*
X-280586195Y-50347901D01*
X-280745392Y-50042143D01*
X-280766556Y-50010467D01*
X-281143114Y-49999025D01*
X-281962436Y-50818347D01*
X-281962436Y-50676925D01*
X-281213825Y-49928314D01*
X-281225267Y-49551756D01*
X-281527505Y-49385973D01*
X-281856278Y-49282338D01*
X-282198952Y-49244836D01*
X-282542358Y-49274907D01*
X-282712412Y-49324487D01*
X-282892561Y-49269840D01*
X-283118000Y-49247636D01*
X-284318000Y-49247636D01*
X-284543439Y-49269840D01*
X-284760215Y-49335598D01*
X-284959997Y-49442384D01*
X-285135107Y-49586093D01*
X-285278816Y-49761203D01*
X-285385602Y-49960985D01*
X-285451360Y-50177761D01*
X-285473564Y-50403200D01*
X-326023302Y-50403200D01*
X-324212258Y-48592156D01*
X-279986938Y-48592156D01*
X-279975806Y-48648126D01*
X-279856653Y-49021651D01*
X-279666919Y-49364753D01*
X-279413895Y-49664247D01*
X-279107304Y-49908624D01*
X-278758928Y-50088492D01*
X-278382156Y-50196939D01*
X-278070000Y-49941876D01*
X-278070000Y-48280000D01*
X-277970000Y-48280000D01*
X-277970000Y-49941876D01*
X-277657844Y-50196939D01*
X-277281072Y-50088492D01*
X-276932696Y-49908624D01*
X-276626105Y-49664247D01*
X-276373081Y-49364753D01*
X-276183347Y-49021651D01*
X-276064194Y-48648126D01*
X-276053062Y-48592156D01*
X-276308230Y-48280000D01*
X-277970000Y-48280000D01*
X-278070000Y-48280000D01*
X-279731770Y-48280000D01*
X-279986938Y-48592156D01*
X-324212258Y-48592156D01*
X-320237893Y-44617791D01*
X-308020000Y-44617791D01*
X-308020000Y-44982209D01*
X-307948905Y-45339625D01*
X-307809448Y-45676303D01*
X-307606989Y-45979306D01*
X-307349306Y-46236989D01*
X-307046303Y-46439448D01*
X-306709625Y-46578905D01*
X-306352209Y-46650000D01*
X-305987791Y-46650000D01*
X-305630375Y-46578905D01*
X-305293697Y-46439448D01*
X-304990694Y-46236989D01*
X-304733011Y-45979306D01*
X-304530552Y-45676303D01*
X-304391095Y-45339625D01*
X-304320000Y-44982209D01*
X-304320000Y-44617791D01*
X-300400000Y-44617791D01*
X-300400000Y-44982209D01*
X-300328905Y-45339625D01*
X-300189448Y-45676303D01*
X-299986989Y-45979306D01*
X-299729306Y-46236989D01*
X-299426303Y-46439448D01*
X-299089625Y-46578905D01*
X-298732209Y-46650000D01*
X-298367791Y-46650000D01*
X-298010375Y-46578905D01*
X-297673697Y-46439448D01*
X-297370694Y-46236989D01*
X-297113011Y-45979306D01*
X-296910552Y-45676303D01*
X-296771095Y-45339625D01*
X-296700000Y-44982209D01*
X-296700000Y-44617791D01*
X-296771095Y-44260375D01*
X-296910552Y-43923697D01*
X-297113011Y-43620694D01*
X-297370694Y-43363011D01*
X-297673697Y-43160552D01*
X-298010375Y-43021095D01*
X-298367791Y-42950000D01*
X-298732209Y-42950000D01*
X-299089625Y-43021095D01*
X-299426303Y-43160552D01*
X-299729306Y-43363011D01*
X-299986989Y-43620694D01*
X-300189448Y-43923697D01*
X-300328905Y-44260375D01*
X-300400000Y-44617791D01*
X-304320000Y-44617791D01*
X-304391095Y-44260375D01*
X-304530552Y-43923697D01*
X-304733011Y-43620694D01*
X-304990694Y-43363011D01*
X-305293697Y-43160552D01*
X-305630375Y-43021095D01*
X-305987791Y-42950000D01*
X-306352209Y-42950000D01*
X-306709625Y-43021095D01*
X-307046303Y-43160552D01*
X-307349306Y-43363011D01*
X-307606989Y-43620694D01*
X-307809448Y-43923697D01*
X-307948905Y-44260375D01*
X-308020000Y-44617791D01*
X-320237893Y-44617791D01*
X-317850101Y-42230000D01*
X-287864178Y-42230000D01*
X-287612813Y-42280000D01*
X-287327187Y-42280000D01*
X-287047051Y-42224277D01*
X-286783167Y-42114973D01*
X-286545679Y-41956289D01*
X-286343711Y-41754321D01*
X-286185027Y-41516833D01*
X-286075723Y-41252949D01*
X-286020000Y-40972813D01*
X-286020000Y-40687187D01*
X-286075723Y-40407051D01*
X-286185027Y-40143167D01*
X-286343711Y-39905679D01*
X-286545679Y-39703711D01*
X-286783167Y-39545027D01*
X-287047051Y-39435723D01*
X-287176368Y-39410000D01*
X-285289999Y-39410000D01*
X-285290000Y-45331231D01*
G37*
%TD.AperFunction*%
D22*
X-210455747Y-29602258D02*
X-210469889Y-29616400D01*
X-210455747Y-29630542D01*
X-210526458Y-29701253D01*
X-210540600Y-29687111D01*
X-210554742Y-29701253D01*
X-210625453Y-29630542D01*
X-210611311Y-29616400D01*
X-210625453Y-29602258D01*
X-210554742Y-29531547D01*
X-210540600Y-29545689D01*
X-210526458Y-29531547D01*
X-210455747Y-29602258D01*
%TA.AperFunction,Conductor*%
D26*
G36*
X-210455747Y-29602258D02*
G01*
X-210469889Y-29616400D01*
X-210455747Y-29630542D01*
X-210526458Y-29701253D01*
X-210540600Y-29687111D01*
X-210554742Y-29701253D01*
X-210625453Y-29630542D01*
X-210611311Y-29616400D01*
X-210625453Y-29602258D01*
X-210554742Y-29531547D01*
X-210540600Y-29545689D01*
X-210526458Y-29531547D01*
X-210455747Y-29602258D01*
G37*
%TD.AperFunction*%
%TD*%
M02*
