%TF.GenerationSoftware,KiCad,Pcbnew,(5.1.9-0-10_14)*%
%TF.CreationDate,2021-02-25T13:28:52+00:00*%
%TF.ProjectId,base8x,62617365-3878-42e6-9b69-6361645f7063,rev?*%
%TF.SameCoordinates,Original*%
%TF.FileFunction,Copper,L4,Bot*%
%TF.FilePolarity,Positive*%
%FSLAX46Y46*%
G04 Gerber Fmt 4.6, Leading zero omitted, Abs format (unit mm)*
G04 Created by KiCad (PCBNEW (5.1.9-0-10_14)) date 2021-02-25 13:28:52*
%MOMM*%
%LPD*%
G01*
G04 APERTURE LIST*
%TA.AperFunction,ComponentPad*%
%ADD10O,1.700000X1.700000*%
%TD*%
%TA.AperFunction,ComponentPad*%
%ADD11R,1.700000X1.700000*%
%TD*%
%TA.AperFunction,ComponentPad*%
%ADD12O,1.400000X1.400000*%
%TD*%
%TA.AperFunction,ComponentPad*%
%ADD13C,1.400000*%
%TD*%
%TA.AperFunction,ComponentPad*%
%ADD14O,2.400000X2.400000*%
%TD*%
%TA.AperFunction,ComponentPad*%
%ADD15C,2.400000*%
%TD*%
%TA.AperFunction,ComponentPad*%
%ADD16C,1.700000*%
%TD*%
%TA.AperFunction,ComponentPad*%
%ADD17O,1.800000X3.600000*%
%TD*%
%TA.AperFunction,SMDPad,CuDef*%
%ADD18R,1.400000X0.300000*%
%TD*%
%TA.AperFunction,ComponentPad*%
%ADD19R,1.200000X1.200000*%
%TD*%
%TA.AperFunction,ComponentPad*%
%ADD20C,1.200000*%
%TD*%
%TA.AperFunction,ViaPad*%
%ADD21C,0.800000*%
%TD*%
%TA.AperFunction,ViaPad*%
%ADD22C,0.600000*%
%TD*%
%TA.AperFunction,Conductor*%
%ADD23C,0.300000*%
%TD*%
%TA.AperFunction,Conductor*%
%ADD24C,1.000000*%
%TD*%
%TA.AperFunction,Conductor*%
%ADD25C,0.250000*%
%TD*%
%TA.AperFunction,Conductor*%
%ADD26C,0.500000*%
%TD*%
%TA.AperFunction,Conductor*%
%ADD27C,0.750000*%
%TD*%
%TA.AperFunction,Conductor*%
%ADD28C,0.100000*%
%TD*%
G04 APERTURE END LIST*
D10*
%TO.P,Raspberry_header1,40*%
%TO.N,Net-(Raspberry_header1-Pad40)*%
X-220360000Y-101930000D03*
%TO.P,Raspberry_header1,39*%
%TO.N,GND*%
X-217820000Y-101930000D03*
%TO.P,Raspberry_header1,38*%
%TO.N,Net-(Raspberry_header1-Pad38)*%
X-220360000Y-99390000D03*
%TO.P,Raspberry_header1,37*%
%TO.N,Net-(Raspberry_header1-Pad37)*%
X-217820000Y-99390000D03*
%TO.P,Raspberry_header1,36*%
%TO.N,Net-(Raspberry_header1-Pad36)*%
X-220360000Y-96850000D03*
%TO.P,Raspberry_header1,35*%
%TO.N,Net-(Raspberry_header1-Pad35)*%
X-217820000Y-96850000D03*
%TO.P,Raspberry_header1,34*%
%TO.N,Net-(Raspberry_header1-Pad34)*%
X-220360000Y-94310000D03*
%TO.P,Raspberry_header1,33*%
%TO.N,Net-(Raspberry_header1-Pad33)*%
X-217820000Y-94310000D03*
%TO.P,Raspberry_header1,32*%
%TO.N,Net-(Raspberry_header1-Pad32)*%
X-220360000Y-91770000D03*
%TO.P,Raspberry_header1,31*%
%TO.N,GPIO6*%
X-217820000Y-91770000D03*
%TO.P,Raspberry_header1,30*%
%TO.N,Net-(Raspberry_header1-Pad30)*%
X-220360000Y-89230000D03*
%TO.P,Raspberry_header1,29*%
%TO.N,Net-(Raspberry_header1-Pad29)*%
X-217820000Y-89230000D03*
%TO.P,Raspberry_header1,28*%
%TO.N,Net-(Raspberry_header1-Pad28)*%
X-220360000Y-86690000D03*
%TO.P,Raspberry_header1,27*%
%TO.N,Net-(Raspberry_header1-Pad27)*%
X-217820000Y-86690000D03*
%TO.P,Raspberry_header1,26*%
%TO.N,Net-(Raspberry_header1-Pad26)*%
X-220360000Y-84150000D03*
%TO.P,Raspberry_header1,25*%
%TO.N,Net-(Raspberry_header1-Pad25)*%
X-217820000Y-84150000D03*
%TO.P,Raspberry_header1,24*%
%TO.N,SCK*%
X-220360000Y-81610000D03*
%TO.P,Raspberry_header1,23*%
%TO.N,SCLK*%
X-217820000Y-81610000D03*
%TO.P,Raspberry_header1,22*%
%TO.N,Net-(Raspberry_header1-Pad22)*%
X-220360000Y-79070000D03*
%TO.P,Raspberry_header1,21*%
%TO.N,MISO*%
X-217820000Y-79070000D03*
%TO.P,Raspberry_header1,20*%
%TO.N,Net-(Raspberry_header1-Pad20)*%
X-220360000Y-76530000D03*
%TO.P,Raspberry_header1,19*%
%TO.N,MOSI*%
X-217820000Y-76530000D03*
%TO.P,Raspberry_header1,18*%
%TO.N,Net-(Raspberry_header1-Pad18)*%
X-220360000Y-73990000D03*
%TO.P,Raspberry_header1,17*%
%TO.N,Net-(Raspberry_header1-Pad17)*%
X-217820000Y-73990000D03*
%TO.P,Raspberry_header1,16*%
%TO.N,Net-(Raspberry_header1-Pad16)*%
X-220360000Y-71450000D03*
%TO.P,Raspberry_header1,15*%
%TO.N,Net-(Raspberry_header1-Pad15)*%
X-217820000Y-71450000D03*
%TO.P,Raspberry_header1,14*%
%TO.N,Net-(Raspberry_header1-Pad14)*%
X-220360000Y-68910000D03*
%TO.P,Raspberry_header1,13*%
%TO.N,Net-(Raspberry_header1-Pad13)*%
X-217820000Y-68910000D03*
%TO.P,Raspberry_header1,12*%
%TO.N,Net-(Raspberry_header1-Pad12)*%
X-220360000Y-66370000D03*
%TO.P,Raspberry_header1,11*%
%TO.N,Net-(Raspberry_header1-Pad11)*%
X-217820000Y-66370000D03*
%TO.P,Raspberry_header1,10*%
%TO.N,Net-(Raspberry_header1-Pad10)*%
X-220360000Y-63830000D03*
%TO.P,Raspberry_header1,9*%
%TO.N,Net-(Raspberry_header1-Pad9)*%
X-217820000Y-63830000D03*
%TO.P,Raspberry_header1,8*%
%TO.N,Net-(Raspberry_header1-Pad8)*%
X-220360000Y-61290000D03*
%TO.P,Raspberry_header1,7*%
%TO.N,CLK0*%
X-217820000Y-61290000D03*
%TO.P,Raspberry_header1,6*%
%TO.N,Net-(Raspberry_header1-Pad6)*%
X-220360000Y-58750000D03*
%TO.P,Raspberry_header1,5*%
%TO.N,SCL*%
X-217820000Y-58750000D03*
%TO.P,Raspberry_header1,4*%
%TO.N,Net-(Raspberry_header1-Pad4)*%
X-220360000Y-56210000D03*
%TO.P,Raspberry_header1,3*%
%TO.N,SDA*%
X-217820000Y-56210000D03*
%TO.P,Raspberry_header1,2*%
%TO.N,+5V*%
X-220360000Y-53670000D03*
D11*
%TO.P,Raspberry_header1,1*%
%TO.N,+3V3*%
X-217820000Y-53670000D03*
%TD*%
D12*
%TO.P,D2,2*%
%TO.N,Net-(D2-Pad2)*%
X-328071640Y-70898520D03*
D13*
%TO.P,D2,1*%
%TO.N,Net-(D2-Pad1)*%
X-335691640Y-70898520D03*
%TD*%
D12*
%TO.P,D1,2*%
%TO.N,Net-(D1-Pad2)*%
X-298550000Y-44800000D03*
D13*
%TO.P,D1,1*%
%TO.N,Net-(D1-Pad1)*%
X-306170000Y-44800000D03*
%TD*%
D14*
%TO.P,Resistor1,2*%
%TO.N,+3V3*%
X-282550000Y-30810000D03*
D15*
%TO.P,Resistor1,1*%
%TO.N,CLK0*%
X-302870000Y-30810000D03*
%TD*%
D14*
%TO.P,R5,2*%
%TO.N,A_I-*%
X-249021600Y-44780200D03*
D15*
%TO.P,R5,1*%
%TO.N,A_I-_EXT*%
X-269341600Y-44780200D03*
%TD*%
D14*
%TO.P,R4,2*%
%TO.N,Net-(R4-Pad2)*%
X-299690000Y-55970000D03*
D15*
%TO.P,R4,1*%
%TO.N,Net-(J4-Pad2)*%
X-299690000Y-76290000D03*
%TD*%
D14*
%TO.P,R3,2*%
%TO.N,+5V*%
X-278810000Y-56580000D03*
D15*
%TO.P,R3,1*%
%TO.N,Net-(R3-Pad1)*%
X-278810000Y-76900000D03*
%TD*%
D14*
%TO.P,R2,2*%
%TO.N,+5V*%
X-312650000Y-56200000D03*
D15*
%TO.P,R2,1*%
%TO.N,Net-(JP4-Pad1)*%
X-312650000Y-76520000D03*
%TD*%
D14*
%TO.P,R1,2*%
%TO.N,+5V*%
X-288790000Y-56280000D03*
D15*
%TO.P,R1,1*%
%TO.N,Net-(JP2-Pad1)*%
X-288790000Y-76600000D03*
%TD*%
%TO.P,J1,1*%
%TO.N,MISO*%
%TA.AperFunction,ComponentPad*%
G36*
G01*
X-215020600Y-33006400D02*
X-216220600Y-33006400D01*
G75*
G02*
X-216470600Y-32756400I0J250000D01*
G01*
X-216470600Y-31556400D01*
G75*
G02*
X-216220600Y-31306400I250000J0D01*
G01*
X-215020600Y-31306400D01*
G75*
G02*
X-214770600Y-31556400I0J-250000D01*
G01*
X-214770600Y-32756400D01*
G75*
G02*
X-215020600Y-33006400I-250000J0D01*
G01*
G37*
%TD.AperFunction*%
D16*
%TO.P,J1,3*%
%TO.N,SCK*%
X-213080600Y-32156400D03*
%TO.P,J1,5*%
%TO.N,A_V_D_EXT*%
X-210540600Y-32156400D03*
%TO.P,J1,7*%
%TO.N,SDA*%
X-208000600Y-32156400D03*
%TO.P,J1,9*%
%TO.N,/Vin*%
X-205460600Y-32156400D03*
%TO.P,J1,2*%
%TO.N,+5V*%
X-215620600Y-29616400D03*
%TO.P,J1,4*%
%TO.N,MOSI*%
X-213080600Y-29616400D03*
%TO.P,J1,6*%
%TO.N,GND*%
X-210540600Y-29616400D03*
%TO.P,J1,8*%
%TO.N,SCL*%
X-208000600Y-29616400D03*
%TO.P,J1,10*%
%TO.N,~A_CS*%
X-205460600Y-29616400D03*
%TD*%
D11*
%TO.P,J3,1*%
%TO.N,+5V*%
X-237910000Y-54570000D03*
D10*
%TO.P,J3,2*%
X-240450000Y-54570000D03*
%TO.P,J3,3*%
%TO.N,+3V3*%
X-237910000Y-57110000D03*
%TO.P,J3,4*%
%TO.N,A_V_D*%
X-240450000Y-57110000D03*
%TO.P,J3,5*%
X-237910000Y-59650000D03*
%TO.P,J3,6*%
%TO.N,SCL*%
X-240450000Y-59650000D03*
%TO.P,J3,7*%
%TO.N,SDA*%
X-237910000Y-62190000D03*
%TO.P,J3,8*%
X-240450000Y-62190000D03*
%TO.P,J3,9*%
%TO.N,SCL*%
X-237910000Y-64730000D03*
%TO.P,J3,10*%
%TO.N,Net-(J3-Pad10)*%
X-240450000Y-64730000D03*
%TO.P,J3,11*%
%TO.N,~A_CS*%
X-237910000Y-67270000D03*
%TO.P,J3,12*%
%TO.N,Net-(J3-Pad12)*%
X-240450000Y-67270000D03*
%TO.P,J3,13*%
%TO.N,MISO*%
X-237910000Y-69810000D03*
%TO.P,J3,14*%
%TO.N,Net-(J3-Pad14)*%
X-240450000Y-69810000D03*
%TO.P,J3,15*%
%TO.N,MOSI*%
X-237910000Y-72350000D03*
%TO.P,J3,16*%
%TO.N,A_V_D*%
X-240450000Y-72350000D03*
%TO.P,J3,17*%
%TO.N,SCK*%
X-237910000Y-74890000D03*
%TO.P,J3,18*%
%TO.N,Net-(J3-Pad18)*%
X-240450000Y-74890000D03*
%TO.P,J3,19*%
%TO.N,GND*%
X-237910000Y-77430000D03*
%TO.P,J3,20*%
X-240450000Y-77430000D03*
%TO.P,J3,21*%
%TO.N,A_I+*%
X-237910000Y-79970000D03*
%TO.P,J3,22*%
%TO.N,Net-(J3-Pad22)*%
X-240450000Y-79970000D03*
%TO.P,J3,23*%
%TO.N,A_V+*%
X-237910000Y-82510000D03*
%TO.P,J3,24*%
%TO.N,Net-(J3-Pad24)*%
X-240450000Y-82510000D03*
%TO.P,J3,25*%
%TO.N,A_V-*%
X-237910000Y-85050000D03*
%TO.P,J3,26*%
%TO.N,Net-(J3-Pad26)*%
X-240450000Y-85050000D03*
%TO.P,J3,27*%
%TO.N,A_I-*%
X-237910000Y-87590000D03*
%TO.P,J3,28*%
%TO.N,Net-(J3-Pad28)*%
X-240450000Y-87590000D03*
%TD*%
%TO.P,J9,1*%
%TO.N,GND*%
%TA.AperFunction,ComponentPad*%
G36*
G01*
X-233465800Y-28752200D02*
X-233465800Y-31852200D01*
G75*
G02*
X-233715800Y-32102200I-250000J0D01*
G01*
X-235015800Y-32102200D01*
G75*
G02*
X-235265800Y-31852200I0J250000D01*
G01*
X-235265800Y-28752200D01*
G75*
G02*
X-235015800Y-28502200I250000J0D01*
G01*
X-233715800Y-28502200D01*
G75*
G02*
X-233465800Y-28752200I0J-250000D01*
G01*
G37*
%TD.AperFunction*%
D17*
%TO.P,J9,2*%
%TO.N,/Vin*%
X-237865800Y-30302200D03*
%TO.P,J9,3*%
%TO.N,Net-(J9-Pad3)*%
X-241365800Y-30302200D03*
%TO.P,J9,4*%
%TO.N,A_I-*%
X-244865800Y-30302200D03*
%TO.P,J9,5*%
%TO.N,A_I-_EXT*%
X-248365800Y-30302200D03*
%TO.P,J9,6*%
%TO.N,A_V-*%
X-251865800Y-30302200D03*
%TO.P,J9,7*%
%TO.N,A_V+*%
X-255365800Y-30302200D03*
%TO.P,J9,8*%
%TO.N,A_I+*%
X-258865800Y-30302200D03*
%TD*%
D10*
%TO.P,P3,2*%
%TO.N,GND*%
X-262500000Y-39120000D03*
D11*
%TO.P,P3,1*%
%TO.N,A_I-_EXT*%
X-262500000Y-36580000D03*
%TD*%
%TO.P,P4,1*%
%TO.N,A_I-_EXT*%
X-247300000Y-37840000D03*
D10*
%TO.P,P4,2*%
%TO.N,A_I-*%
X-244760000Y-37840000D03*
%TD*%
D11*
%TO.P,Temp_sensor1,1*%
%TO.N,+3V3*%
X-278020000Y-43150000D03*
D10*
%TO.P,Temp_sensor1,2*%
%TO.N,CLK0*%
X-278020000Y-45690000D03*
%TO.P,Temp_sensor1,3*%
%TO.N,GND*%
X-278020000Y-48230000D03*
%TD*%
D18*
%TO.P,U1,1*%
%TO.N,Net-(R4-Pad2)*%
X-256630000Y-67850000D03*
%TO.P,U1,2*%
%TO.N,Net-(R3-Pad1)*%
X-256630000Y-67350000D03*
%TO.P,U1,3*%
%TO.N,GND*%
X-256630000Y-66850000D03*
%TO.P,U1,4*%
%TO.N,A_V_D_LOC*%
X-256630000Y-66350000D03*
%TO.P,U1,5*%
%TO.N,Net-(TP2-Pad1)*%
X-256630000Y-65850000D03*
%TO.P,U1,6*%
%TO.N,Net-(JP2-Pad1)*%
X-252230000Y-65850000D03*
%TO.P,U1,7*%
%TO.N,Net-(JP4-Pad1)*%
X-252230000Y-66350000D03*
%TO.P,U1,8*%
%TO.N,+5V*%
X-252230000Y-66850000D03*
%TO.P,U1,9*%
%TO.N,SDA*%
X-252230000Y-67350000D03*
%TO.P,U1,10*%
%TO.N,SCL*%
X-252230000Y-67850000D03*
%TD*%
D19*
%TO.P,C1,1*%
%TO.N,+5V*%
X-283718000Y-51003200D03*
D20*
%TO.P,C1,2*%
%TO.N,GND*%
X-282218000Y-51003200D03*
%TD*%
D11*
%TO.P,J5,1*%
%TO.N,GPIO6*%
X-198930000Y-87750000D03*
D10*
%TO.P,J5,2*%
%TO.N,GND*%
X-198930000Y-85210000D03*
%TD*%
D21*
%TO.N,+5V*%
X-248110000Y-66930000D03*
X-215620600Y-27030600D03*
X-240410000Y-51810010D03*
X-246419990Y-51810010D03*
X-235400000Y-59050000D03*
X-227750000Y-59050000D03*
X-223490000Y-59120000D03*
%TO.N,GND*%
X-287570000Y-44750000D03*
X-269720000Y-60650000D03*
X-259850000Y-105480000D03*
X-326850000Y-53470000D03*
X-259040000Y-39080000D03*
X-278040000Y-51100000D03*
X-278040000Y-51100000D03*
D22*
X-272590000Y-47480000D03*
D21*
%TO.N,MISO*%
X-228360000Y-80440000D03*
X-216890000Y-36350000D03*
X-214690000Y-79150000D03*
%TO.N,SCK*%
X-234590000Y-74890000D03*
X-224370000Y-49810000D03*
X-213080600Y-38350600D03*
%TO.N,A_V_D_EXT*%
X-244280000Y-71930000D03*
X-209520000Y-45400000D03*
%TO.N,SDA*%
X-247040000Y-69690000D03*
X-244890000Y-61930000D03*
X-244890000Y-61930000D03*
X-231470000Y-62190000D03*
X-231470000Y-48670000D03*
X-208000600Y-37719400D03*
X-224490000Y-38830000D03*
%TO.N,/Vin*%
X-237420000Y-24690000D03*
X-203890000Y-34860000D03*
%TO.N,MOSI*%
X-232990000Y-80770000D03*
X-212109992Y-76700008D03*
X-208720000Y-65560000D03*
X-203470000Y-65530000D03*
X-219960000Y-39760000D03*
%TO.N,SCL*%
X-243370000Y-59840000D03*
X-234620000Y-64730000D03*
X-217540000Y-49480000D03*
X-208520000Y-54210000D03*
X-204340000Y-58750000D03*
X-245635000Y-70935000D03*
%TO.N,~A_CS*%
X-201060000Y-37370000D03*
X-222370000Y-50030000D03*
X-210880000Y-43480000D03*
X-226260000Y-51890000D03*
%TO.N,A_V_D_LOC*%
X-265904500Y-65124500D03*
%TO.N,A_V_D*%
X-251470000Y-75630000D03*
%TO.N,A_I+*%
X-235810000Y-78800000D03*
X-240490000Y-93960000D03*
X-231350000Y-92910000D03*
X-241010000Y-102920000D03*
%TO.N,A_V-*%
X-239100000Y-99990000D03*
X-237150000Y-94700000D03*
%TO.N,A_I-*%
X-239910000Y-37700000D03*
X-287470000Y-40830000D03*
%TO.N,Net-(J4-Pad2)*%
X-275610000Y-61590000D03*
%TO.N,Net-(R4-Pad2)*%
X-268720000Y-71760000D03*
%TO.N,CLK0*%
X-214510000Y-61420000D03*
%TO.N,Net-(TP2-Pad1)*%
X-256630000Y-63550000D03*
%TO.N,Net-(JP2-Pad1)*%
X-252250000Y-64590000D03*
X-277320000Y-67120000D03*
X-261470000Y-55910000D03*
%TO.N,Net-(JP4-Pad1)*%
X-294020000Y-71100000D03*
%TD*%
D23*
%TO.N,+5V*%
X-252230000Y-66850000D02*
X-249990000Y-66850000D01*
D24*
X-237910000Y-54570000D02*
X-240450000Y-54570000D01*
X-220500000Y-53810000D02*
X-220360000Y-53670000D01*
X-248190000Y-66850000D02*
X-248110000Y-66930000D01*
X-249990000Y-66850000D02*
X-248190000Y-66850000D01*
X-215620600Y-29616400D02*
X-215620600Y-27030600D01*
X-215620600Y-27030600D02*
X-215620600Y-27030600D01*
X-240450000Y-54570000D02*
X-240450000Y-51850010D01*
X-240450000Y-51850010D02*
X-240410000Y-51810010D01*
X-240410000Y-51810010D02*
X-246419990Y-51810010D01*
X-246419990Y-51810010D02*
X-246419990Y-51810010D01*
X-235400000Y-59050000D02*
X-230722892Y-59050000D01*
X-220360000Y-53670000D02*
X-222970000Y-53670000D01*
X-222970000Y-53670000D02*
X-223490000Y-54190000D01*
X-223490000Y-54190000D02*
X-223490000Y-59120000D01*
X-230722892Y-59050000D02*
X-227750000Y-59050000D01*
X-227750000Y-59050000D02*
X-227750000Y-59050000D01*
X-223490000Y-59120000D02*
X-223490000Y-59120000D01*
D25*
%TO.N,GND*%
X-256630000Y-66850000D02*
X-254830000Y-66850000D01*
D24*
X-210540600Y-29600600D02*
X-210540600Y-29616400D01*
X-234365800Y-30302200D02*
X-232532200Y-30302200D01*
X-210540600Y-29616400D02*
X-210540600Y-27700600D01*
X-278020000Y-48230000D02*
X-278020000Y-48300000D01*
X-278020000Y-48300000D02*
X-278040000Y-48320000D01*
X-278040000Y-48320000D02*
X-278040000Y-51100000D01*
X-278356800Y-51003200D02*
X-282218000Y-51003200D01*
X-278040000Y-51320000D02*
X-278356800Y-51003200D01*
X-262500000Y-39120000D02*
X-259080000Y-39120000D01*
X-259080000Y-39120000D02*
X-259040000Y-39080000D01*
X-259040000Y-39080000D02*
X-258970000Y-39010000D01*
X-278040000Y-51100000D02*
X-278040000Y-51100000D01*
X-278040000Y-51100000D02*
X-278040000Y-51320000D01*
X-262500000Y-47110000D02*
X-262500000Y-39120000D01*
X-262870000Y-47480000D02*
X-262500000Y-47110000D01*
X-240450000Y-77430000D02*
X-237910000Y-77430000D01*
X-240450000Y-77430000D02*
X-254500000Y-77430000D01*
X-254500000Y-77430000D02*
X-254780000Y-77150000D01*
X-254780000Y-66900000D02*
X-254830000Y-66850000D01*
X-254780000Y-77150000D02*
X-254780000Y-66900000D01*
X-198930000Y-85210000D02*
X-194890000Y-85210000D01*
X-262870000Y-47480000D02*
X-268670000Y-47480000D01*
X-268670000Y-47480000D02*
X-272590000Y-47480000D01*
%TO.N,MISO*%
X-215620600Y-32156400D02*
X-215620600Y-35080600D01*
X-215620600Y-35080600D02*
X-216890000Y-36350000D01*
X-216890000Y-36350000D02*
X-216890000Y-36350000D01*
%TO.N,SCK*%
X-237910000Y-74890000D02*
X-234590000Y-74890000D01*
X-234590000Y-74890000D02*
X-234590000Y-74890000D01*
X-234390000Y-75090000D02*
X-234390000Y-82170000D01*
X-234190000Y-82370000D02*
X-225640000Y-82370000D01*
X-234390000Y-82170000D02*
X-234190000Y-82370000D01*
X-213080600Y-38350600D02*
X-213080600Y-38350600D01*
X-234590000Y-74890000D02*
X-234390000Y-75090000D01*
X-213080600Y-38520600D02*
X-213080600Y-38350600D01*
X-213080600Y-32156400D02*
X-213080600Y-38350600D01*
X-224370000Y-49810000D02*
X-213080600Y-38520600D01*
X-221120000Y-82370000D02*
X-220360000Y-81610000D01*
X-225640000Y-82370000D02*
X-221120000Y-82370000D01*
%TO.N,A_V_D_EXT*%
X-210540600Y-39040600D02*
X-210540600Y-39040600D01*
X-209520000Y-41780000D02*
X-209520000Y-45400000D01*
X-210400600Y-40899400D02*
X-209520000Y-41780000D01*
X-210540600Y-40899400D02*
X-210400600Y-40899400D01*
X-210540600Y-32156400D02*
X-210540600Y-40899400D01*
D23*
%TO.N,SDA*%
X-252230000Y-67350000D02*
X-250670000Y-67350000D01*
X-250680000Y-67360000D02*
X-250680000Y-67810000D01*
X-250670000Y-67350000D02*
X-250680000Y-67360000D01*
D26*
X-250680000Y-67810000D02*
X-250040000Y-67810000D01*
X-250040000Y-67810000D02*
X-248190000Y-69660000D01*
D24*
X-247970000Y-69660000D02*
X-247940000Y-69690000D01*
X-248190000Y-69660000D02*
X-247970000Y-69660000D01*
X-247070000Y-69660000D02*
X-247040000Y-69690000D01*
X-248190000Y-69660000D02*
X-247070000Y-69660000D01*
X-240710000Y-61930000D02*
X-240450000Y-62190000D01*
X-244890000Y-61930000D02*
X-240710000Y-61930000D01*
X-240450000Y-62190000D02*
X-237910000Y-62190000D01*
X-237910000Y-62190000D02*
X-231470000Y-62190000D01*
X-231470000Y-62190000D02*
X-231470000Y-62190000D01*
%TO.N,MISO*%
X-228360000Y-69860000D02*
X-228360000Y-80440000D01*
X-228410000Y-69810000D02*
X-228360000Y-69860000D01*
X-237910000Y-69810000D02*
X-228410000Y-69810000D01*
X-214770000Y-79070000D02*
X-214690000Y-79150000D01*
X-217820000Y-79070000D02*
X-214770000Y-79070000D01*
%TO.N,SDA*%
X-231470000Y-62190000D02*
X-231470000Y-62190000D01*
X-231470000Y-48670000D02*
X-231470000Y-43140000D01*
X-231470000Y-43140000D02*
X-231470000Y-40010000D01*
X-231470000Y-40010000D02*
X-230290000Y-38830000D01*
X-230290000Y-38830000D02*
X-224490000Y-38830000D01*
X-208000600Y-32156400D02*
X-208000600Y-37719400D01*
X-208000600Y-37719400D02*
X-208000600Y-37719400D01*
X-224490000Y-38830000D02*
X-224490000Y-38830000D01*
X-217820000Y-56210000D02*
X-204660000Y-56210000D01*
X-204660000Y-56210000D02*
X-201700000Y-53250000D01*
X-201700000Y-53250000D02*
X-200420000Y-53250000D01*
X-200420000Y-53250000D02*
X-200040000Y-52870000D01*
X-200040000Y-52870000D02*
X-200040000Y-44340000D01*
X-200040000Y-44340000D02*
X-203700000Y-40680000D01*
X-205040000Y-40680000D02*
X-208000600Y-37719400D01*
X-203700000Y-40680000D02*
X-205040000Y-40680000D01*
%TO.N,/Vin*%
X-237420000Y-29856400D02*
X-237865800Y-30302200D01*
X-237420000Y-24690000D02*
X-237420000Y-29856400D01*
X-203890000Y-34860000D02*
X-205180000Y-34860000D01*
X-205460600Y-34579400D02*
X-205460600Y-32156400D01*
X-205180000Y-34860000D02*
X-205460600Y-34579400D01*
%TO.N,MOSI*%
X-237910000Y-72350000D02*
X-233210000Y-72350000D01*
X-233210000Y-72350000D02*
X-232990000Y-72570000D01*
X-232990000Y-72570000D02*
X-232990000Y-80770000D01*
X-232990000Y-80770000D02*
X-232990000Y-80770000D01*
X-217610000Y-76740000D02*
X-217820000Y-76530000D01*
X-220070000Y-35000000D02*
X-220070000Y-35000000D01*
D27*
X-212280000Y-76530000D02*
X-212109992Y-76700008D01*
X-217820000Y-76530000D02*
X-212280000Y-76530000D01*
D24*
X-203500000Y-65560000D02*
X-203470000Y-65530000D01*
X-208720000Y-65560000D02*
X-203500000Y-65560000D01*
X-220070000Y-39650000D02*
X-219960000Y-39760000D01*
X-220070000Y-25650000D02*
X-220070000Y-39650000D01*
X-213080600Y-24760600D02*
X-213090000Y-24770000D01*
X-219190000Y-24770000D02*
X-220070000Y-25650000D01*
X-213090000Y-24770000D02*
X-219190000Y-24770000D01*
X-213080600Y-29616400D02*
X-213080600Y-24760600D01*
D23*
%TO.N,SCL*%
X-252230000Y-67850000D02*
X-252230000Y-68950000D01*
D24*
X-252230000Y-68950000D02*
X-252230000Y-70950000D01*
X-252230000Y-70950000D02*
X-252220000Y-70940000D01*
X-252220000Y-70940000D02*
X-245640000Y-70940000D01*
X-245640000Y-70940000D02*
X-245640000Y-70940000D01*
X-240640000Y-59840000D02*
X-240450000Y-59650000D01*
X-243370000Y-59840000D02*
X-240640000Y-59840000D01*
X-208000000Y-23300000D02*
X-208000600Y-23300600D01*
X-197570000Y-55100000D02*
X-197570000Y-23450000D01*
X-197720000Y-23300000D02*
X-208000000Y-23300000D01*
X-198861401Y-56391401D02*
X-197570000Y-55100000D01*
X-197570000Y-23450000D02*
X-197720000Y-23300000D01*
X-201981401Y-56391401D02*
X-198861401Y-56391401D01*
X-208000600Y-23300600D02*
X-208000600Y-29616400D01*
X-234620000Y-64730000D02*
X-234620000Y-64730000D01*
X-237910000Y-64730000D02*
X-234620000Y-64730000D01*
X-217820000Y-58750000D02*
X-204340000Y-58750000D01*
X-203340000Y-57750000D02*
X-201981401Y-56391401D01*
X-204340000Y-58750000D02*
X-204340000Y-58750000D01*
X-203820001Y-58230001D02*
X-203340000Y-57750000D01*
X-217540000Y-49480000D02*
X-211260000Y-49480000D01*
X-211260000Y-49480000D02*
X-211260000Y-51370000D01*
X-211260000Y-51370000D02*
X-211260000Y-51470000D01*
X-211260000Y-51470000D02*
X-208520000Y-54210000D01*
X-208520000Y-54210000D02*
X-208520000Y-54210000D01*
X-204340000Y-58750000D02*
X-203340000Y-57750000D01*
%TO.N,~A_CS*%
X-205460600Y-29616400D02*
X-201063600Y-29616400D01*
X-201063600Y-29616400D02*
X-201060000Y-29620000D01*
X-201060000Y-29620000D02*
X-201060000Y-37370000D01*
X-201060000Y-37370000D02*
X-201060000Y-37370000D01*
X-237910000Y-67270000D02*
X-231010000Y-67270000D01*
X-231010000Y-67270000D02*
X-229140000Y-65400000D01*
X-226260000Y-65320000D02*
X-226260000Y-51890000D01*
X-210880000Y-43480000D02*
X-210880000Y-43480000D01*
X-226260000Y-51890000D02*
X-226260000Y-51890000D01*
D26*
X-222370000Y-50030000D02*
X-221780000Y-50030000D01*
D24*
X-221780000Y-50030000D02*
X-221240000Y-50030000D01*
X-214690000Y-43480000D02*
X-210880000Y-43480000D01*
X-221240000Y-50030000D02*
X-214690000Y-43480000D01*
X-226340000Y-65400000D02*
X-226260000Y-65320000D01*
X-229140000Y-65400000D02*
X-226340000Y-65400000D01*
D23*
%TO.N,A_V_D_LOC*%
X-256630000Y-66350000D02*
X-258800000Y-66350000D01*
D24*
X-258800000Y-66350000D02*
X-258800000Y-64850000D01*
X-265630000Y-64850000D02*
X-265904500Y-65124500D01*
X-258800000Y-64850000D02*
X-265630000Y-64850000D01*
%TO.N,A_V_D*%
X-241250000Y-73150000D02*
X-240450000Y-72350000D01*
X-237910000Y-59650000D02*
X-240450000Y-57110000D01*
X-240450000Y-57110000D02*
X-247930000Y-57110000D01*
X-247930000Y-57110000D02*
X-248250000Y-57430000D01*
X-248250000Y-57430000D02*
X-248250000Y-64430000D01*
X-248250000Y-64430000D02*
X-247690000Y-64990000D01*
X-247690000Y-64990000D02*
X-243510000Y-64990000D01*
X-242980000Y-65520000D02*
X-242980000Y-73150000D01*
X-242980000Y-73150000D02*
X-241250000Y-73150000D01*
X-243510000Y-64990000D02*
X-242980000Y-65520000D01*
X-251240000Y-75400000D02*
X-251470000Y-75630000D01*
X-251240000Y-73210000D02*
X-251240000Y-75400000D01*
X-251240000Y-73210000D02*
X-242520000Y-73210000D01*
%TO.N,+3V3*%
X-233980000Y-57070000D02*
X-233980000Y-50880000D01*
X-234020000Y-57110000D02*
X-233980000Y-57070000D01*
X-237910000Y-57110000D02*
X-234020000Y-57110000D01*
X-282550000Y-30810000D02*
X-278170000Y-30810000D01*
X-278020000Y-30960000D02*
X-278020000Y-43150000D01*
X-278170000Y-30810000D02*
X-278020000Y-30960000D01*
X-233980000Y-50880000D02*
X-233100000Y-50880000D01*
X-217290000Y-53140000D02*
X-217820000Y-53670000D01*
X-233100000Y-50880000D02*
X-229550000Y-50880000D01*
X-229550000Y-50880000D02*
X-228270000Y-49600000D01*
X-228270000Y-49600000D02*
X-226540000Y-49600000D01*
X-226540000Y-49600000D02*
X-224650000Y-51490000D01*
X-224650000Y-51490000D02*
X-217920000Y-51490000D01*
X-217820000Y-51590000D02*
X-217820000Y-53670000D01*
X-217920000Y-51490000D02*
X-217820000Y-51590000D01*
X-274850000Y-46320000D02*
X-278020000Y-43150000D01*
X-274850000Y-49590000D02*
X-274850000Y-46320000D01*
X-237680000Y-50880000D02*
X-238200000Y-50360000D01*
X-238200000Y-50360000D02*
X-274080000Y-50360000D01*
X-274080000Y-50360000D02*
X-274850000Y-49590000D01*
X-233100000Y-50880000D02*
X-237680000Y-50880000D01*
%TO.N,A_I+*%
X-237910000Y-79970000D02*
X-236740000Y-78800000D01*
X-236740000Y-78800000D02*
X-235810000Y-78800000D01*
X-235810000Y-78800000D02*
X-235810000Y-78800000D01*
X-258865800Y-30302200D02*
X-258865800Y-20044200D01*
X-258865800Y-20044200D02*
X-301755800Y-20044200D01*
X-301755800Y-20044200D02*
X-341681600Y-59970000D01*
X-341681600Y-59970000D02*
X-341681600Y-80898400D01*
X-341681600Y-80898400D02*
X-328620000Y-93960000D01*
X-328620000Y-93960000D02*
X-240490000Y-93960000D01*
X-240490000Y-93960000D02*
X-240490000Y-93960000D01*
X-231350000Y-92910000D02*
X-231350000Y-101220000D01*
X-231350000Y-101220000D02*
X-233050000Y-102920000D01*
X-233050000Y-102920000D02*
X-241010000Y-102920000D01*
X-241010000Y-102920000D02*
X-241010000Y-102920000D01*
%TO.N,A_V+*%
X-233630000Y-84960000D02*
X-236080000Y-82510000D01*
X-312272188Y-27132188D02*
X-344750000Y-59610000D01*
X-233630000Y-96190000D02*
X-233630000Y-84960000D01*
X-234790000Y-97350000D02*
X-233630000Y-96190000D01*
X-236080000Y-82510000D02*
X-237910000Y-82510000D01*
X-344750000Y-59610000D02*
X-344750000Y-82680000D01*
X-330080000Y-97350000D02*
X-234790000Y-97350000D01*
X-255365800Y-30302200D02*
X-255365800Y-18265800D01*
X-254700000Y-17600000D02*
X-302760000Y-17600000D01*
X-312272188Y-27112188D02*
X-312272188Y-27132188D01*
X-255365800Y-18265800D02*
X-254700000Y-17600000D01*
X-344750000Y-82680000D02*
X-330080000Y-97350000D01*
X-302760000Y-17600000D02*
X-312272188Y-27112188D01*
%TO.N,A_V-*%
X-237910000Y-85050000D02*
X-236670000Y-85050000D01*
X-236670000Y-85050000D02*
X-235170000Y-86550000D01*
X-235170000Y-86550000D02*
X-235170000Y-92720000D01*
X-251865800Y-30302200D02*
X-251865800Y-18084200D01*
X-237200000Y-94750000D02*
X-237150000Y-94700000D01*
X-251865800Y-18084200D02*
X-251865800Y-17515800D01*
X-251865800Y-17515800D02*
X-251865800Y-15694200D01*
X-251865800Y-15694200D02*
X-251881600Y-15710000D01*
X-251881600Y-15710000D02*
X-305240000Y-15710000D01*
X-305240000Y-15710000D02*
X-305450000Y-15710000D01*
X-305450000Y-15710000D02*
X-347370000Y-57630000D01*
X-347370000Y-57630000D02*
X-347370000Y-83530000D01*
X-347370000Y-83530000D02*
X-330910000Y-99990000D01*
X-330910000Y-99990000D02*
X-239100000Y-99990000D01*
X-239100000Y-99990000D02*
X-239100000Y-99990000D01*
X-237150000Y-94700000D02*
X-235170000Y-92720000D01*
%TO.N,A_I-*%
X-244865800Y-37734200D02*
X-244760000Y-37840000D01*
X-244865800Y-30302200D02*
X-244865800Y-37734200D01*
X-240050000Y-37840000D02*
X-239910000Y-37700000D01*
X-244760000Y-37840000D02*
X-240050000Y-37840000D01*
X-249021600Y-44780200D02*
X-245050200Y-44780200D01*
X-244760000Y-44490000D02*
X-244760000Y-37840000D01*
X-245050200Y-44780200D02*
X-244760000Y-44490000D01*
X-237910000Y-87590000D02*
X-237910000Y-92730000D01*
X-237910000Y-92730000D02*
X-242220000Y-92730000D01*
X-242220000Y-92730000D02*
X-243350000Y-91600000D01*
X-243350000Y-91260000D02*
X-243240000Y-91150000D01*
X-243350000Y-91600000D02*
X-243350000Y-91260000D01*
X-243240000Y-91150000D02*
X-328150000Y-91150000D01*
X-328150000Y-91150000D02*
X-338190000Y-81110000D01*
X-338190000Y-81110000D02*
X-338190000Y-80860000D01*
X-338190000Y-80860000D02*
X-338940000Y-80110000D01*
X-338940000Y-80110000D02*
X-338940000Y-61340000D01*
X-338940000Y-61340000D02*
X-318430000Y-40830000D01*
X-318430000Y-40830000D02*
X-287470000Y-40830000D01*
X-287470000Y-40830000D02*
X-287470000Y-40830000D01*
%TO.N,Net-(J4-Pad2)*%
X-299690000Y-76290000D02*
X-299690000Y-62410000D01*
X-299690000Y-62410000D02*
X-299670000Y-62390000D01*
X-299690000Y-62410000D02*
X-276430000Y-62410000D01*
X-276430000Y-62410000D02*
X-275610000Y-61590000D01*
X-275610000Y-61590000D02*
X-275610000Y-61590000D01*
%TO.N,A_I-_EXT*%
X-248365800Y-33934200D02*
X-248365800Y-30302200D01*
X-247300000Y-35000000D02*
X-248365800Y-33934200D01*
X-247300000Y-35670000D02*
X-247300000Y-35000000D01*
X-247300000Y-37840000D02*
X-247300000Y-35670000D01*
X-262394400Y-36474400D02*
X-262500000Y-36580000D01*
X-251894400Y-36474400D02*
X-262394400Y-36474400D01*
X-251090000Y-35670000D02*
X-251894400Y-36474400D01*
X-247300000Y-35670000D02*
X-251090000Y-35670000D01*
X-262500000Y-36580000D02*
X-268780000Y-36580000D01*
X-269341600Y-37141600D02*
X-269341600Y-44780200D01*
X-268780000Y-36580000D02*
X-269341600Y-37141600D01*
D23*
%TO.N,Net-(R3-Pad1)*%
X-256630000Y-67350000D02*
X-258750000Y-67350000D01*
X-258750000Y-67350000D02*
X-258750000Y-68060000D01*
D24*
X-278810000Y-76900000D02*
X-272490000Y-76900000D01*
X-272490000Y-76900000D02*
X-270790000Y-75200000D01*
X-270790000Y-75200000D02*
X-270790000Y-70340000D01*
X-270790000Y-70340000D02*
X-270110000Y-69660000D01*
X-260350000Y-69660000D02*
X-258750000Y-68060000D01*
X-270110000Y-69660000D02*
X-260350000Y-69660000D01*
D23*
%TO.N,Net-(R4-Pad2)*%
X-256630000Y-67850000D02*
X-256630000Y-69060000D01*
D24*
X-256630000Y-69060000D02*
X-256600000Y-69090000D01*
X-256630000Y-69060000D02*
X-256630000Y-71600000D01*
X-256630000Y-71600000D02*
X-256790000Y-71760000D01*
X-256790000Y-71760000D02*
X-268580000Y-71760000D01*
X-268580000Y-71760000D02*
X-268720000Y-71760000D01*
X-268720000Y-71760000D02*
X-268720000Y-71760000D01*
%TO.N,CLK0*%
X-278020000Y-45690000D02*
X-283600000Y-45690000D01*
X-283600000Y-45690000D02*
X-283890000Y-45400000D01*
X-283890000Y-45400000D02*
X-283890000Y-38020000D01*
X-283890000Y-38020000D02*
X-283900000Y-38010000D01*
X-214640000Y-61290000D02*
X-214510000Y-61420000D01*
X-217820000Y-61290000D02*
X-214640000Y-61290000D01*
X-302870000Y-30810000D02*
X-302870000Y-36590000D01*
X-302870000Y-36590000D02*
X-301450000Y-38010000D01*
X-283900000Y-38010000D02*
X-301450000Y-38010000D01*
%TO.N,GPIO6*%
X-198958200Y-87778200D02*
X-198930000Y-87750000D01*
X-198958200Y-92098200D02*
X-198958200Y-87778200D01*
X-199080000Y-92220000D02*
X-198958200Y-92098200D01*
X-217820000Y-91770000D02*
X-217510000Y-91460000D01*
X-217370000Y-92220000D02*
X-217820000Y-91770000D01*
X-199080000Y-92220000D02*
X-217370000Y-92220000D01*
D23*
%TO.N,Net-(TP2-Pad1)*%
X-256630000Y-65850000D02*
X-256630000Y-63550000D01*
D24*
X-256630000Y-63550000D02*
X-256640000Y-63540000D01*
X-256630000Y-63550000D02*
X-256630000Y-63550000D01*
D23*
%TO.N,Net-(JP2-Pad1)*%
X-252230000Y-65850000D02*
X-252230000Y-64610000D01*
D24*
X-252230000Y-64610000D02*
X-252250000Y-64590000D01*
X-252250000Y-64590000D02*
X-252250000Y-64590000D01*
X-277320000Y-67120000D02*
X-272680000Y-67120000D01*
X-272680000Y-67120000D02*
X-261470000Y-55910000D01*
X-261470000Y-55910000D02*
X-261470000Y-55910000D01*
D23*
%TO.N,Net-(JP4-Pad1)*%
X-252230000Y-66350000D02*
X-250800000Y-66350000D01*
X-250800000Y-66350000D02*
X-250790000Y-66350000D01*
X-250800000Y-66350000D02*
X-250800000Y-65700000D01*
D24*
X-250800000Y-65700000D02*
X-250820000Y-65680000D01*
X-294020000Y-71100000D02*
X-274160000Y-71100000D01*
X-274160000Y-71100000D02*
X-264650000Y-61590000D01*
X-264650000Y-61590000D02*
X-250840000Y-61590000D01*
X-250840000Y-65660000D02*
X-250820000Y-65680000D01*
X-250840000Y-61590000D02*
X-250840000Y-65660000D01*
%TD*%
D23*
%TO.N,GND*%
X-185336936Y-10229196D02*
X-185010004Y-25981357D01*
X-185209977Y-104370408D01*
X-186819923Y-117153530D01*
X-329452415Y-118267027D01*
X-351961107Y-96545230D01*
X-352639911Y-57630000D01*
X-349027982Y-57630000D01*
X-349020000Y-57711042D01*
X-349019999Y-83448948D01*
X-349027982Y-83530000D01*
X-349019999Y-83611052D01*
X-349014051Y-83671438D01*
X-348996124Y-83853456D01*
X-348901777Y-84164482D01*
X-348901776Y-84164483D01*
X-348748561Y-84451126D01*
X-348542370Y-84702371D01*
X-348479411Y-84754040D01*
X-332134040Y-101099412D01*
X-332082371Y-101162371D01*
X-331831126Y-101368562D01*
X-331544483Y-101521777D01*
X-331233456Y-101616125D01*
X-330991052Y-101640000D01*
X-330991043Y-101640000D01*
X-330910001Y-101647982D01*
X-330828959Y-101640000D01*
X-242051224Y-101640000D01*
X-242182371Y-101747629D01*
X-242388562Y-101998874D01*
X-242541777Y-102285517D01*
X-242636125Y-102596544D01*
X-242667983Y-102920000D01*
X-242636125Y-103243456D01*
X-242541777Y-103554483D01*
X-242388562Y-103841126D01*
X-242182371Y-104092371D01*
X-241931126Y-104298562D01*
X-241644483Y-104451777D01*
X-241333456Y-104546125D01*
X-241091052Y-104570000D01*
X-233131042Y-104570000D01*
X-233050000Y-104577982D01*
X-232968958Y-104570000D01*
X-232968948Y-104570000D01*
X-232726544Y-104546125D01*
X-232415517Y-104451777D01*
X-232128874Y-104298562D01*
X-231877629Y-104092371D01*
X-231825956Y-104029407D01*
X-230240588Y-102444040D01*
X-230177629Y-102392371D01*
X-229971438Y-102141126D01*
X-229818223Y-101854483D01*
X-229723875Y-101543456D01*
X-229700000Y-101301052D01*
X-229700000Y-101301043D01*
X-229692018Y-101220001D01*
X-229700000Y-101138959D01*
X-229700000Y-92828948D01*
X-229723875Y-92586544D01*
X-229818223Y-92275517D01*
X-229971438Y-91988874D01*
X-230177629Y-91737629D01*
X-230428875Y-91531438D01*
X-230715518Y-91378223D01*
X-231026545Y-91283875D01*
X-231350000Y-91252017D01*
X-231673456Y-91283875D01*
X-231980000Y-91376863D01*
X-231980000Y-85041041D01*
X-231972018Y-84959999D01*
X-231980000Y-84878957D01*
X-231980000Y-84878948D01*
X-232003875Y-84636544D01*
X-232098223Y-84325517D01*
X-232251438Y-84038874D01*
X-232266927Y-84020000D01*
X-222360000Y-84020000D01*
X-222360000Y-84346983D01*
X-222283141Y-84733378D01*
X-222132377Y-85097355D01*
X-221916792Y-85420000D01*
X-222132377Y-85742645D01*
X-222283141Y-86106622D01*
X-222360000Y-86493017D01*
X-222360000Y-86886983D01*
X-222283141Y-87273378D01*
X-222132377Y-87637355D01*
X-221916792Y-87960000D01*
X-222132377Y-88282645D01*
X-222283141Y-88646622D01*
X-222360000Y-89033017D01*
X-222360000Y-89426983D01*
X-222283141Y-89813378D01*
X-222132377Y-90177355D01*
X-221916792Y-90500000D01*
X-222132377Y-90822645D01*
X-222283141Y-91186622D01*
X-222360000Y-91573017D01*
X-222360000Y-91966983D01*
X-222283141Y-92353378D01*
X-222132377Y-92717355D01*
X-221916792Y-93040000D01*
X-222132377Y-93362645D01*
X-222283141Y-93726622D01*
X-222360000Y-94113017D01*
X-222360000Y-94506983D01*
X-222283141Y-94893378D01*
X-222132377Y-95257355D01*
X-221916792Y-95580000D01*
X-222132377Y-95902645D01*
X-222283141Y-96266622D01*
X-222360000Y-96653017D01*
X-222360000Y-97046983D01*
X-222283141Y-97433378D01*
X-222132377Y-97797355D01*
X-221916792Y-98120000D01*
X-222132377Y-98442645D01*
X-222283141Y-98806622D01*
X-222360000Y-99193017D01*
X-222360000Y-99586983D01*
X-222283141Y-99973378D01*
X-222132377Y-100337355D01*
X-221916792Y-100660000D01*
X-222132377Y-100982645D01*
X-222283141Y-101346622D01*
X-222360000Y-101733017D01*
X-222360000Y-102126983D01*
X-222283141Y-102513378D01*
X-222132377Y-102877355D01*
X-221913501Y-103204926D01*
X-221634926Y-103483501D01*
X-221307355Y-103702377D01*
X-220943378Y-103853141D01*
X-220556983Y-103930000D01*
X-220163017Y-103930000D01*
X-219776622Y-103853141D01*
X-219412645Y-103702377D01*
X-219085074Y-103483501D01*
X-219075851Y-103474278D01*
X-218907304Y-103608624D01*
X-218558928Y-103788492D01*
X-218182156Y-103896939D01*
X-217870000Y-103641876D01*
X-217870000Y-101980000D01*
X-217770000Y-101980000D01*
X-217770000Y-103641876D01*
X-217457844Y-103896939D01*
X-217081072Y-103788492D01*
X-216732696Y-103608624D01*
X-216426105Y-103364247D01*
X-216173081Y-103064753D01*
X-215983347Y-102721651D01*
X-215864194Y-102348126D01*
X-215853062Y-102292156D01*
X-216108230Y-101980000D01*
X-217770000Y-101980000D01*
X-217870000Y-101980000D01*
X-217890000Y-101980000D01*
X-217890000Y-101880000D01*
X-217870000Y-101880000D01*
X-217870000Y-101860000D01*
X-217770000Y-101860000D01*
X-217770000Y-101880000D01*
X-216108230Y-101880000D01*
X-215853062Y-101567844D01*
X-215864194Y-101511874D01*
X-215983347Y-101138349D01*
X-216173081Y-100795247D01*
X-216275542Y-100673969D01*
X-216266499Y-100664926D01*
X-216047623Y-100337355D01*
X-215896859Y-99973378D01*
X-215848279Y-99729149D01*
X-207750000Y-99729149D01*
X-207750000Y-100270851D01*
X-207644319Y-100802145D01*
X-207437018Y-101302613D01*
X-207136064Y-101753023D01*
X-206753023Y-102136064D01*
X-206302613Y-102437018D01*
X-205802145Y-102644319D01*
X-205270851Y-102750000D01*
X-204729149Y-102750000D01*
X-204197855Y-102644319D01*
X-203697387Y-102437018D01*
X-203246977Y-102136064D01*
X-202863936Y-101753023D01*
X-202562982Y-101302613D01*
X-202355681Y-100802145D01*
X-202250000Y-100270851D01*
X-202250000Y-99729149D01*
X-202355681Y-99197855D01*
X-202562982Y-98697387D01*
X-202863936Y-98246977D01*
X-203246977Y-97863936D01*
X-203697387Y-97562982D01*
X-204197855Y-97355681D01*
X-204729149Y-97250000D01*
X-205270851Y-97250000D01*
X-205802145Y-97355681D01*
X-206302613Y-97562982D01*
X-206753023Y-97863936D01*
X-207136064Y-98246977D01*
X-207437018Y-98697387D01*
X-207644319Y-99197855D01*
X-207750000Y-99729149D01*
X-215848279Y-99729149D01*
X-215820000Y-99586983D01*
X-215820000Y-99193017D01*
X-215896859Y-98806622D01*
X-216047623Y-98442645D01*
X-216263208Y-98120000D01*
X-216047623Y-97797355D01*
X-215896859Y-97433378D01*
X-215820000Y-97046983D01*
X-215820000Y-96653017D01*
X-215896859Y-96266622D01*
X-216047623Y-95902645D01*
X-216263208Y-95580000D01*
X-216047623Y-95257355D01*
X-215896859Y-94893378D01*
X-215820000Y-94506983D01*
X-215820000Y-94113017D01*
X-215868339Y-93870000D01*
X-199161042Y-93870000D01*
X-199080000Y-93877982D01*
X-198998958Y-93870000D01*
X-198998948Y-93870000D01*
X-198756544Y-93846125D01*
X-198445517Y-93751777D01*
X-198158874Y-93598562D01*
X-197907629Y-93392371D01*
X-197855955Y-93329406D01*
X-197848792Y-93322243D01*
X-197785829Y-93270571D01*
X-197579638Y-93019326D01*
X-197426423Y-92732683D01*
X-197332075Y-92421656D01*
X-197308200Y-92179252D01*
X-197308200Y-92179242D01*
X-197300218Y-92098201D01*
X-197308200Y-92017159D01*
X-197308200Y-89454289D01*
X-197262893Y-89417107D01*
X-197119184Y-89241997D01*
X-197012398Y-89042215D01*
X-196946640Y-88825439D01*
X-196924436Y-88600000D01*
X-196924436Y-86900000D01*
X-196946640Y-86674561D01*
X-197012398Y-86457785D01*
X-197119184Y-86258003D01*
X-197188441Y-86173613D01*
X-197093347Y-86001651D01*
X-196974194Y-85628126D01*
X-196963062Y-85572156D01*
X-197218230Y-85260000D01*
X-198880000Y-85260000D01*
X-198880000Y-85280000D01*
X-198980000Y-85280000D01*
X-198980000Y-85260000D01*
X-200641770Y-85260000D01*
X-200896938Y-85572156D01*
X-200885806Y-85628126D01*
X-200766653Y-86001651D01*
X-200671559Y-86173613D01*
X-200740816Y-86258003D01*
X-200847602Y-86457785D01*
X-200913360Y-86674561D01*
X-200935564Y-86900000D01*
X-200935564Y-88600000D01*
X-200913360Y-88825439D01*
X-200847602Y-89042215D01*
X-200740816Y-89241997D01*
X-200608199Y-89403591D01*
X-200608200Y-90570000D01*
X-216114802Y-90570000D01*
X-216131439Y-90538875D01*
X-216218390Y-90432925D01*
X-216047623Y-90177355D01*
X-215896859Y-89813378D01*
X-215820000Y-89426983D01*
X-215820000Y-89033017D01*
X-215896859Y-88646622D01*
X-216047623Y-88282645D01*
X-216263208Y-87960000D01*
X-216047623Y-87637355D01*
X-215896859Y-87273378D01*
X-215820000Y-86886983D01*
X-215820000Y-86493017D01*
X-215896859Y-86106622D01*
X-216047623Y-85742645D01*
X-216263208Y-85420000D01*
X-216047623Y-85097355D01*
X-215944273Y-84847844D01*
X-200896938Y-84847844D01*
X-200641770Y-85160000D01*
X-198980000Y-85160000D01*
X-198980000Y-83498124D01*
X-198880000Y-83498124D01*
X-198880000Y-85160000D01*
X-197218230Y-85160000D01*
X-196963062Y-84847844D01*
X-196974194Y-84791874D01*
X-197093347Y-84418349D01*
X-197283081Y-84075247D01*
X-197536105Y-83775753D01*
X-197842696Y-83531376D01*
X-198191072Y-83351508D01*
X-198567844Y-83243061D01*
X-198880000Y-83498124D01*
X-198980000Y-83498124D01*
X-199292156Y-83243061D01*
X-199668928Y-83351508D01*
X-200017304Y-83531376D01*
X-200323895Y-83775753D01*
X-200576919Y-84075247D01*
X-200766653Y-84418349D01*
X-200885806Y-84791874D01*
X-200896938Y-84847844D01*
X-215944273Y-84847844D01*
X-215896859Y-84733378D01*
X-215820000Y-84346983D01*
X-215820000Y-83953017D01*
X-215896859Y-83566622D01*
X-216047623Y-83202645D01*
X-216263208Y-82880000D01*
X-216047623Y-82557355D01*
X-215896859Y-82193378D01*
X-215820000Y-81806983D01*
X-215820000Y-81413017D01*
X-215896859Y-81026622D01*
X-216023866Y-80720000D01*
X-215198475Y-80720000D01*
X-215013456Y-80776124D01*
X-214690001Y-80807982D01*
X-214366544Y-80776124D01*
X-214055518Y-80681777D01*
X-213768874Y-80528561D01*
X-213517630Y-80322370D01*
X-213311439Y-80071126D01*
X-213158223Y-79784482D01*
X-213063876Y-79473456D01*
X-213032018Y-79149999D01*
X-213063876Y-78826544D01*
X-213158223Y-78515518D01*
X-213311439Y-78228874D01*
X-213454134Y-78055000D01*
X-212872029Y-78055000D01*
X-212844192Y-78073600D01*
X-212562110Y-78190443D01*
X-212262654Y-78250008D01*
X-211957330Y-78250008D01*
X-211657874Y-78190443D01*
X-211375792Y-78073600D01*
X-211121924Y-77903972D01*
X-210906028Y-77688076D01*
X-210736400Y-77434208D01*
X-210619557Y-77152126D01*
X-210559992Y-76852670D01*
X-210559992Y-76547346D01*
X-210619557Y-76247890D01*
X-210736400Y-75965808D01*
X-210906028Y-75711940D01*
X-211121924Y-75496044D01*
X-211197717Y-75445401D01*
X-211428656Y-75255874D01*
X-211693584Y-75114267D01*
X-211981048Y-75027066D01*
X-212205089Y-75005000D01*
X-212280000Y-74997622D01*
X-212354911Y-75005000D01*
X-216092822Y-75005000D01*
X-216047623Y-74937355D01*
X-215896859Y-74573378D01*
X-215820000Y-74186983D01*
X-215820000Y-73793017D01*
X-215896859Y-73406622D01*
X-216047623Y-73042645D01*
X-216263208Y-72720000D01*
X-216047623Y-72397355D01*
X-215896859Y-72033378D01*
X-215820000Y-71646983D01*
X-215820000Y-71253017D01*
X-215896859Y-70866622D01*
X-216047623Y-70502645D01*
X-216263208Y-70180000D01*
X-216047623Y-69857355D01*
X-215896859Y-69493378D01*
X-215820000Y-69106983D01*
X-215820000Y-68713017D01*
X-215896859Y-68326622D01*
X-216047623Y-67962645D01*
X-216263208Y-67640000D01*
X-216047623Y-67317355D01*
X-215896859Y-66953378D01*
X-215820000Y-66566983D01*
X-215820000Y-66173017D01*
X-215896859Y-65786622D01*
X-215990728Y-65560000D01*
X-210377983Y-65560000D01*
X-210346125Y-65883456D01*
X-210251777Y-66194483D01*
X-210098562Y-66481126D01*
X-209892371Y-66732371D01*
X-209641126Y-66938562D01*
X-209354483Y-67091777D01*
X-209043456Y-67186125D01*
X-208801052Y-67210000D01*
X-203581042Y-67210000D01*
X-203500000Y-67217982D01*
X-203418958Y-67210000D01*
X-203418948Y-67210000D01*
X-203176544Y-67186125D01*
X-202865517Y-67091777D01*
X-202578874Y-66938562D01*
X-202327629Y-66732371D01*
X-202275959Y-66669411D01*
X-202245962Y-66639414D01*
X-202091439Y-66451126D01*
X-201938224Y-66164482D01*
X-201843876Y-65853456D01*
X-201812018Y-65530001D01*
X-201843876Y-65206545D01*
X-201938224Y-64895518D01*
X-202091439Y-64608875D01*
X-202297630Y-64357630D01*
X-202548875Y-64151439D01*
X-202835518Y-63998224D01*
X-203146545Y-63903876D01*
X-203470001Y-63872018D01*
X-203793456Y-63903876D01*
X-203813644Y-63910000D01*
X-208801052Y-63910000D01*
X-209043456Y-63933875D01*
X-209354483Y-64028223D01*
X-209641126Y-64181438D01*
X-209892371Y-64387629D01*
X-210098562Y-64638874D01*
X-210251777Y-64925517D01*
X-210346125Y-65236544D01*
X-210377983Y-65560000D01*
X-215990728Y-65560000D01*
X-216047623Y-65422645D01*
X-216263208Y-65100000D01*
X-216047623Y-64777355D01*
X-215896859Y-64413378D01*
X-215820000Y-64026983D01*
X-215820000Y-63633017D01*
X-215896859Y-63246622D01*
X-216023866Y-62940000D01*
X-215166515Y-62940000D01*
X-215144482Y-62951777D01*
X-214833455Y-63046125D01*
X-214510000Y-63077983D01*
X-214186544Y-63046125D01*
X-213875518Y-62951777D01*
X-213588874Y-62798562D01*
X-213337629Y-62592371D01*
X-213131438Y-62341126D01*
X-212978223Y-62054482D01*
X-212883875Y-61743456D01*
X-212852017Y-61420000D01*
X-212883875Y-61096545D01*
X-212978223Y-60785518D01*
X-213131438Y-60498875D01*
X-213212583Y-60400000D01*
X-204421042Y-60400000D01*
X-204340000Y-60407982D01*
X-204258958Y-60400000D01*
X-204258948Y-60400000D01*
X-204016544Y-60376125D01*
X-203705517Y-60281777D01*
X-203418874Y-60128562D01*
X-203167629Y-59922371D01*
X-203115955Y-59859406D01*
X-202115962Y-58859413D01*
X-201297949Y-58041401D01*
X-198942443Y-58041401D01*
X-198861401Y-58049383D01*
X-198780359Y-58041401D01*
X-198780349Y-58041401D01*
X-198537945Y-58017526D01*
X-198226918Y-57923178D01*
X-197940275Y-57769963D01*
X-197689030Y-57563772D01*
X-197637357Y-57500808D01*
X-196460587Y-56324039D01*
X-196397629Y-56272371D01*
X-196191438Y-56021126D01*
X-196038223Y-55734483D01*
X-195943875Y-55423456D01*
X-195920000Y-55181052D01*
X-195920000Y-55181051D01*
X-195912017Y-55100000D01*
X-195920000Y-55018948D01*
X-195920000Y-23531041D01*
X-195912018Y-23449999D01*
X-195920000Y-23368958D01*
X-195920000Y-23368948D01*
X-195943875Y-23126544D01*
X-196038223Y-22815517D01*
X-196191438Y-22528874D01*
X-196397629Y-22277629D01*
X-196460594Y-22225955D01*
X-196495955Y-22190594D01*
X-196547629Y-22127629D01*
X-196798874Y-21921438D01*
X-197085517Y-21768223D01*
X-197396544Y-21673875D01*
X-197638948Y-21650000D01*
X-197638958Y-21650000D01*
X-197720000Y-21642018D01*
X-197801042Y-21650000D01*
X-207918948Y-21650000D01*
X-208000000Y-21642017D01*
X-208081052Y-21650000D01*
X-208323456Y-21673875D01*
X-208634483Y-21768223D01*
X-208921126Y-21921438D01*
X-209172371Y-22127629D01*
X-209172641Y-22127959D01*
X-209172971Y-22128229D01*
X-209379162Y-22379475D01*
X-209532377Y-22666118D01*
X-209626725Y-22977145D01*
X-209650600Y-23219549D01*
X-209650600Y-23219558D01*
X-209658582Y-23300600D01*
X-209650600Y-23381642D01*
X-209650599Y-27823118D01*
X-209744897Y-27770957D01*
X-210120214Y-27651183D01*
X-210511687Y-27606931D01*
X-210904271Y-27639901D01*
X-211282879Y-27748827D01*
X-211430600Y-27825074D01*
X-211430600Y-24841652D01*
X-211422617Y-24760600D01*
X-211454475Y-24437144D01*
X-211520003Y-24221125D01*
X-211548823Y-24126117D01*
X-211702038Y-23839474D01*
X-211908229Y-23588229D01*
X-212159474Y-23382038D01*
X-212446117Y-23228823D01*
X-212757144Y-23134475D01*
X-213080600Y-23102617D01*
X-213257090Y-23120000D01*
X-219108948Y-23120000D01*
X-219190000Y-23112017D01*
X-219513457Y-23143875D01*
X-219793495Y-23228823D01*
X-219824483Y-23238223D01*
X-220111126Y-23391438D01*
X-220362371Y-23597629D01*
X-220414045Y-23660594D01*
X-221179406Y-24425955D01*
X-221242371Y-24477629D01*
X-221448562Y-24728875D01*
X-221601777Y-25015518D01*
X-221696125Y-25326545D01*
X-221720000Y-25568949D01*
X-221720000Y-25568958D01*
X-221727982Y-25650000D01*
X-221720000Y-25731042D01*
X-221719999Y-34918941D01*
X-221727983Y-35000000D01*
X-221719999Y-35081059D01*
X-221719999Y-39568948D01*
X-221727982Y-39650000D01*
X-221696124Y-39973456D01*
X-221601777Y-40284482D01*
X-221551853Y-40377882D01*
X-221448561Y-40571126D01*
X-221242370Y-40822371D01*
X-221179414Y-40874038D01*
X-221069414Y-40984038D01*
X-220881126Y-41138561D01*
X-220594483Y-41291776D01*
X-220283456Y-41386124D01*
X-219960001Y-41417982D01*
X-219636545Y-41386124D01*
X-219325518Y-41291776D01*
X-219038875Y-41138561D01*
X-218787630Y-40932370D01*
X-218581439Y-40681125D01*
X-218428224Y-40394482D01*
X-218333876Y-40083455D01*
X-218302018Y-39759999D01*
X-218333876Y-39436544D01*
X-218420000Y-39152628D01*
X-218420000Y-36987808D01*
X-218268562Y-37271126D01*
X-218062371Y-37522371D01*
X-217811126Y-37728562D01*
X-217524483Y-37881777D01*
X-217213456Y-37976125D01*
X-216971052Y-38000000D01*
X-216971042Y-38000000D01*
X-216890000Y-38007982D01*
X-216808958Y-38000000D01*
X-216808948Y-38000000D01*
X-216566544Y-37976125D01*
X-216255517Y-37881777D01*
X-215968874Y-37728562D01*
X-215717629Y-37522371D01*
X-215665956Y-37459407D01*
X-214730599Y-36524051D01*
X-214730599Y-37837147D01*
X-225346647Y-48453196D01*
X-225367629Y-48427629D01*
X-225618874Y-48221438D01*
X-225905517Y-48068223D01*
X-226216544Y-47973875D01*
X-226458948Y-47950000D01*
X-226458958Y-47950000D01*
X-226540000Y-47942018D01*
X-226621042Y-47950000D01*
X-228188959Y-47950000D01*
X-228270001Y-47942018D01*
X-228351043Y-47950000D01*
X-228351052Y-47950000D01*
X-228593456Y-47973875D01*
X-228904483Y-48068223D01*
X-229191126Y-48221438D01*
X-229191128Y-48221439D01*
X-229191127Y-48221439D01*
X-229379415Y-48375962D01*
X-229379418Y-48375965D01*
X-229442371Y-48427629D01*
X-229494036Y-48490583D01*
X-229827156Y-48823703D01*
X-229820000Y-48751052D01*
X-229820000Y-40693451D01*
X-229606548Y-40480000D01*
X-224408948Y-40480000D01*
X-224166544Y-40456125D01*
X-223855517Y-40361777D01*
X-223568874Y-40208562D01*
X-223317629Y-40002371D01*
X-223111438Y-39751126D01*
X-222958223Y-39464483D01*
X-222863875Y-39153456D01*
X-222832017Y-38830000D01*
X-222863875Y-38506544D01*
X-222958223Y-38195517D01*
X-223111438Y-37908874D01*
X-223317629Y-37657629D01*
X-223568874Y-37451438D01*
X-223855517Y-37298223D01*
X-224166544Y-37203875D01*
X-224408948Y-37180000D01*
X-230208959Y-37180000D01*
X-230290001Y-37172018D01*
X-230371043Y-37180000D01*
X-230371052Y-37180000D01*
X-230613456Y-37203875D01*
X-230924483Y-37298223D01*
X-231211126Y-37451438D01*
X-231462371Y-37657629D01*
X-231514040Y-37720589D01*
X-232579411Y-38785960D01*
X-232642370Y-38837629D01*
X-232698949Y-38906571D01*
X-232848561Y-39088874D01*
X-233001777Y-39375518D01*
X-233096124Y-39686544D01*
X-233127982Y-40010000D01*
X-233119999Y-40091051D01*
X-233120000Y-43221051D01*
X-233119999Y-43221061D01*
X-233120000Y-48751051D01*
X-233096125Y-48993455D01*
X-233024371Y-49230000D01*
X-233898948Y-49230000D01*
X-233980000Y-49222017D01*
X-234061052Y-49230000D01*
X-236992856Y-49230000D01*
X-237027629Y-49187629D01*
X-237278874Y-48981438D01*
X-237565517Y-48828223D01*
X-237876544Y-48733875D01*
X-238118948Y-48710000D01*
X-238118958Y-48710000D01*
X-238200000Y-48702018D01*
X-238281042Y-48710000D01*
X-273200000Y-48710000D01*
X-273200000Y-46401042D01*
X-273192018Y-46320000D01*
X-273200000Y-46238958D01*
X-273200000Y-46238948D01*
X-273223875Y-45996544D01*
X-273318223Y-45685517D01*
X-273471438Y-45398874D01*
X-273677629Y-45147629D01*
X-273740588Y-45095960D01*
X-276014436Y-42822113D01*
X-276014436Y-42300000D01*
X-276036640Y-42074561D01*
X-276102398Y-41857785D01*
X-276209184Y-41658003D01*
X-276352893Y-41482893D01*
X-276370000Y-41468854D01*
X-276370000Y-31041041D01*
X-276362018Y-30959999D01*
X-276370000Y-30878958D01*
X-276370000Y-30878948D01*
X-276393875Y-30636544D01*
X-276488223Y-30325517D01*
X-276641438Y-30038874D01*
X-276847629Y-29787629D01*
X-276910592Y-29735957D01*
X-276945955Y-29700594D01*
X-276997629Y-29637629D01*
X-277248874Y-29431438D01*
X-277535517Y-29278223D01*
X-277846544Y-29183875D01*
X-278088948Y-29160000D01*
X-278088958Y-29160000D01*
X-278170000Y-29152018D01*
X-278251042Y-29160000D01*
X-280876598Y-29160000D01*
X-281051962Y-28984636D01*
X-281436857Y-28727457D01*
X-281864530Y-28550309D01*
X-282318545Y-28460000D01*
X-282781455Y-28460000D01*
X-283235470Y-28550309D01*
X-283663143Y-28727457D01*
X-284048038Y-28984636D01*
X-284375364Y-29311962D01*
X-284632543Y-29696857D01*
X-284809691Y-30124530D01*
X-284900000Y-30578545D01*
X-284900000Y-31041455D01*
X-284809691Y-31495470D01*
X-284632543Y-31923143D01*
X-284375364Y-32308038D01*
X-284048038Y-32635364D01*
X-283663143Y-32892543D01*
X-283235470Y-33069691D01*
X-282781455Y-33160000D01*
X-282318545Y-33160000D01*
X-281864530Y-33069691D01*
X-281436857Y-32892543D01*
X-281051962Y-32635364D01*
X-280876598Y-32460000D01*
X-279670000Y-32460000D01*
X-279669999Y-41468853D01*
X-279687107Y-41482893D01*
X-279830816Y-41658003D01*
X-279937602Y-41857785D01*
X-280003360Y-42074561D01*
X-280025564Y-42300000D01*
X-280025564Y-44000000D01*
X-280021624Y-44040000D01*
X-282240000Y-44040000D01*
X-282240000Y-38101041D01*
X-282232018Y-38019999D01*
X-282240000Y-37938958D01*
X-282240000Y-37938948D01*
X-282263875Y-37696544D01*
X-282358223Y-37385517D01*
X-282511438Y-37098874D01*
X-282717629Y-36847629D01*
X-282723121Y-36843121D01*
X-282727629Y-36837629D01*
X-282978874Y-36631438D01*
X-283265517Y-36478223D01*
X-283576544Y-36383875D01*
X-283818948Y-36360000D01*
X-283818958Y-36360000D01*
X-283900000Y-36352018D01*
X-283981042Y-36360000D01*
X-300766548Y-36360000D01*
X-301220000Y-35906549D01*
X-301220000Y-32483402D01*
X-301044636Y-32308038D01*
X-300787457Y-31923143D01*
X-300610309Y-31495470D01*
X-300520000Y-31041455D01*
X-300520000Y-30578545D01*
X-300610309Y-30124530D01*
X-300787457Y-29696857D01*
X-301044636Y-29311962D01*
X-301371962Y-28984636D01*
X-301756857Y-28727457D01*
X-302184530Y-28550309D01*
X-302638545Y-28460000D01*
X-303101455Y-28460000D01*
X-303555470Y-28550309D01*
X-303983143Y-28727457D01*
X-304368038Y-28984636D01*
X-304695364Y-29311962D01*
X-304952543Y-29696857D01*
X-305129691Y-30124530D01*
X-305220000Y-30578545D01*
X-305220000Y-31041455D01*
X-305129691Y-31495470D01*
X-304952543Y-31923143D01*
X-304695364Y-32308038D01*
X-304520000Y-32483402D01*
X-304519999Y-36508948D01*
X-304527982Y-36590000D01*
X-304496124Y-36913456D01*
X-304401777Y-37224482D01*
X-304280465Y-37451438D01*
X-304248561Y-37511126D01*
X-304042370Y-37762371D01*
X-303979411Y-37814040D01*
X-302674040Y-39119412D01*
X-302624317Y-39180000D01*
X-318348959Y-39180000D01*
X-318430001Y-39172018D01*
X-318511043Y-39180000D01*
X-318511052Y-39180000D01*
X-318563294Y-39185145D01*
X-301072348Y-21694200D01*
X-260515799Y-21694200D01*
X-260515800Y-28181298D01*
X-260578559Y-28257770D01*
X-260768916Y-28613903D01*
X-260864129Y-28927779D01*
X-260906109Y-28716730D01*
X-261083257Y-28289057D01*
X-261340436Y-27904162D01*
X-261667762Y-27576836D01*
X-262052657Y-27319657D01*
X-262480330Y-27142509D01*
X-262934345Y-27052200D01*
X-263397255Y-27052200D01*
X-263851270Y-27142509D01*
X-264278943Y-27319657D01*
X-264663838Y-27576836D01*
X-264991164Y-27904162D01*
X-265248343Y-28289057D01*
X-265425491Y-28716730D01*
X-265515800Y-29170745D01*
X-265515800Y-29633655D01*
X-265425491Y-30087670D01*
X-265248343Y-30515343D01*
X-264991164Y-30900238D01*
X-264663838Y-31227564D01*
X-264278943Y-31484743D01*
X-263851270Y-31661891D01*
X-263397255Y-31752200D01*
X-262934345Y-31752200D01*
X-262480330Y-31661891D01*
X-262052657Y-31484743D01*
X-261667762Y-31227564D01*
X-261340436Y-30900238D01*
X-261083257Y-30515343D01*
X-260915800Y-30111066D01*
X-260915800Y-31302908D01*
X-260886138Y-31604069D01*
X-260768917Y-31990496D01*
X-260578560Y-32346630D01*
X-260322383Y-32658783D01*
X-260010230Y-32914960D01*
X-259654097Y-33105317D01*
X-259267670Y-33222538D01*
X-258865800Y-33262119D01*
X-258463931Y-33222538D01*
X-258077504Y-33105317D01*
X-257721370Y-32914960D01*
X-257409217Y-32658783D01*
X-257153040Y-32346630D01*
X-257115800Y-32276959D01*
X-257078560Y-32346630D01*
X-256822383Y-32658783D01*
X-256510230Y-32914960D01*
X-256154097Y-33105317D01*
X-255767670Y-33222538D01*
X-255365800Y-33262119D01*
X-254963931Y-33222538D01*
X-254577504Y-33105317D01*
X-254221370Y-32914960D01*
X-253909217Y-32658783D01*
X-253653040Y-32346630D01*
X-253615800Y-32276959D01*
X-253578560Y-32346630D01*
X-253322383Y-32658783D01*
X-253010230Y-32914960D01*
X-252654097Y-33105317D01*
X-252267670Y-33222538D01*
X-251865800Y-33262119D01*
X-251463931Y-33222538D01*
X-251077504Y-33105317D01*
X-250721370Y-32914960D01*
X-250409217Y-32658783D01*
X-250153040Y-32346630D01*
X-250115800Y-32276959D01*
X-250078560Y-32346630D01*
X-250015800Y-32423104D01*
X-250015800Y-33853158D01*
X-250023782Y-33934200D01*
X-250015800Y-34015242D01*
X-250015800Y-34015251D01*
X-250015332Y-34020000D01*
X-251008959Y-34020000D01*
X-251090001Y-34012018D01*
X-251171043Y-34020000D01*
X-251171052Y-34020000D01*
X-251413456Y-34043875D01*
X-251724483Y-34138223D01*
X-252011126Y-34291438D01*
X-252262371Y-34497629D01*
X-252314041Y-34560589D01*
X-252577852Y-34824400D01*
X-260940722Y-34824400D01*
X-261008003Y-34769184D01*
X-261207785Y-34662398D01*
X-261424561Y-34596640D01*
X-261650000Y-34574436D01*
X-263350000Y-34574436D01*
X-263575439Y-34596640D01*
X-263792215Y-34662398D01*
X-263991997Y-34769184D01*
X-264167107Y-34912893D01*
X-264181146Y-34930000D01*
X-268698959Y-34930000D01*
X-268780001Y-34922018D01*
X-268861043Y-34930000D01*
X-268861052Y-34930000D01*
X-269103456Y-34953875D01*
X-269414483Y-35048223D01*
X-269701126Y-35201438D01*
X-269952371Y-35407629D01*
X-270004039Y-35470587D01*
X-270451007Y-35917556D01*
X-270513971Y-35969229D01*
X-270720162Y-36220475D01*
X-270873377Y-36507118D01*
X-270967725Y-36818145D01*
X-270991600Y-37060549D01*
X-270991600Y-37060558D01*
X-270999582Y-37141600D01*
X-270991600Y-37222642D01*
X-270991599Y-43106797D01*
X-271166964Y-43282162D01*
X-271424143Y-43667057D01*
X-271601291Y-44094730D01*
X-271691600Y-44548745D01*
X-271691600Y-45011655D01*
X-271601291Y-45465670D01*
X-271424143Y-45893343D01*
X-271166964Y-46278238D01*
X-270839638Y-46605564D01*
X-270454743Y-46862743D01*
X-270027070Y-47039891D01*
X-269573055Y-47130200D01*
X-269110145Y-47130200D01*
X-268656130Y-47039891D01*
X-268228457Y-46862743D01*
X-267843562Y-46605564D01*
X-267516236Y-46278238D01*
X-267259057Y-45893343D01*
X-267081909Y-45465670D01*
X-266991600Y-45011655D01*
X-266991600Y-44548745D01*
X-267081909Y-44094730D01*
X-267259057Y-43667057D01*
X-267516236Y-43282162D01*
X-267691600Y-43106798D01*
X-267691600Y-39482156D01*
X-264466938Y-39482156D01*
X-264455806Y-39538126D01*
X-264336653Y-39911651D01*
X-264146919Y-40254753D01*
X-263893895Y-40554247D01*
X-263587304Y-40798624D01*
X-263238928Y-40978492D01*
X-262862156Y-41086939D01*
X-262550000Y-40831876D01*
X-262550000Y-39170000D01*
X-262450000Y-39170000D01*
X-262450000Y-40831876D01*
X-262137844Y-41086939D01*
X-261761072Y-40978492D01*
X-261412696Y-40798624D01*
X-261106105Y-40554247D01*
X-260853081Y-40254753D01*
X-260663347Y-39911651D01*
X-260544194Y-39538126D01*
X-260533062Y-39482156D01*
X-260788230Y-39170000D01*
X-262450000Y-39170000D01*
X-262550000Y-39170000D01*
X-264211770Y-39170000D01*
X-264466938Y-39482156D01*
X-267691600Y-39482156D01*
X-267691600Y-38230000D01*
X-264282266Y-38230000D01*
X-264336653Y-38328349D01*
X-264455806Y-38701874D01*
X-264466938Y-38757844D01*
X-264211770Y-39070000D01*
X-262550000Y-39070000D01*
X-262550000Y-39050000D01*
X-262450000Y-39050000D01*
X-262450000Y-39070000D01*
X-260788230Y-39070000D01*
X-260533062Y-38757844D01*
X-260544194Y-38701874D01*
X-260663347Y-38328349D01*
X-260758441Y-38156387D01*
X-260732190Y-38124400D01*
X-251975442Y-38124400D01*
X-251894400Y-38132382D01*
X-251813358Y-38124400D01*
X-251813348Y-38124400D01*
X-251570944Y-38100525D01*
X-251259917Y-38006177D01*
X-250973274Y-37852962D01*
X-250722029Y-37646771D01*
X-250670356Y-37583807D01*
X-250406549Y-37320000D01*
X-249305564Y-37320000D01*
X-249305564Y-38690000D01*
X-249283360Y-38915439D01*
X-249217602Y-39132215D01*
X-249110816Y-39331997D01*
X-248967107Y-39507107D01*
X-248791997Y-39650816D01*
X-248592215Y-39757602D01*
X-248375439Y-39823360D01*
X-248150000Y-39845564D01*
X-246450000Y-39845564D01*
X-246409999Y-39841624D01*
X-246410000Y-43130200D01*
X-247348198Y-43130200D01*
X-247523562Y-42954836D01*
X-247908457Y-42697657D01*
X-248336130Y-42520509D01*
X-248790145Y-42430200D01*
X-249253055Y-42430200D01*
X-249707070Y-42520509D01*
X-250134743Y-42697657D01*
X-250519638Y-42954836D01*
X-250846964Y-43282162D01*
X-251104143Y-43667057D01*
X-251281291Y-44094730D01*
X-251371600Y-44548745D01*
X-251371600Y-45011655D01*
X-251281291Y-45465670D01*
X-251104143Y-45893343D01*
X-250846964Y-46278238D01*
X-250519638Y-46605564D01*
X-250134743Y-46862743D01*
X-249707070Y-47039891D01*
X-249253055Y-47130200D01*
X-248790145Y-47130200D01*
X-248336130Y-47039891D01*
X-247908457Y-46862743D01*
X-247523562Y-46605564D01*
X-247348198Y-46430200D01*
X-245131242Y-46430200D01*
X-245050200Y-46438182D01*
X-244969158Y-46430200D01*
X-244969148Y-46430200D01*
X-244726744Y-46406325D01*
X-244415717Y-46311977D01*
X-244129074Y-46158762D01*
X-243877829Y-45952571D01*
X-243826155Y-45889606D01*
X-243650592Y-45714043D01*
X-243587629Y-45662371D01*
X-243381438Y-45411126D01*
X-243228223Y-45124483D01*
X-243133875Y-44813456D01*
X-243110000Y-44571052D01*
X-243110000Y-44571051D01*
X-243102017Y-44490000D01*
X-243110000Y-44408948D01*
X-243110000Y-39490000D01*
X-240131042Y-39490000D01*
X-240050000Y-39497982D01*
X-239968958Y-39490000D01*
X-239968948Y-39490000D01*
X-239726544Y-39466125D01*
X-239415517Y-39371777D01*
X-239128874Y-39218562D01*
X-238877629Y-39012371D01*
X-238825955Y-38949406D01*
X-238685962Y-38809413D01*
X-238531438Y-38621126D01*
X-238378223Y-38334482D01*
X-238283875Y-38023456D01*
X-238252017Y-37700000D01*
X-238283875Y-37376544D01*
X-238378223Y-37065518D01*
X-238531438Y-36778874D01*
X-238737629Y-36527629D01*
X-238988874Y-36321438D01*
X-239275518Y-36168223D01*
X-239586544Y-36073875D01*
X-239910000Y-36042017D01*
X-240233456Y-36073875D01*
X-240544482Y-36168223D01*
X-240585224Y-36190000D01*
X-243215800Y-36190000D01*
X-243215800Y-32423103D01*
X-243153040Y-32346630D01*
X-243115800Y-32276959D01*
X-243078560Y-32346630D01*
X-242822383Y-32658783D01*
X-242510230Y-32914960D01*
X-242154097Y-33105317D01*
X-241767670Y-33222538D01*
X-241365800Y-33262119D01*
X-240963931Y-33222538D01*
X-240577504Y-33105317D01*
X-240221370Y-32914960D01*
X-239909217Y-32658783D01*
X-239653040Y-32346630D01*
X-239615800Y-32276959D01*
X-239578560Y-32346630D01*
X-239322383Y-32658783D01*
X-239010230Y-32914960D01*
X-238654097Y-33105317D01*
X-238267670Y-33222538D01*
X-237865800Y-33262119D01*
X-237463931Y-33222538D01*
X-237077504Y-33105317D01*
X-236721370Y-32914960D01*
X-236409217Y-32658783D01*
X-236326285Y-32557730D01*
X-236226616Y-32744197D01*
X-236082907Y-32919307D01*
X-235907797Y-33063016D01*
X-235708015Y-33169802D01*
X-235491239Y-33235560D01*
X-235265800Y-33257764D01*
X-234703300Y-33252200D01*
X-234415800Y-32964700D01*
X-234415800Y-30352200D01*
X-234315800Y-30352200D01*
X-234315800Y-32964700D01*
X-234028300Y-33252200D01*
X-233465800Y-33257764D01*
X-233240361Y-33235560D01*
X-233023585Y-33169802D01*
X-232823803Y-33063016D01*
X-232648693Y-32919307D01*
X-232504984Y-32744197D01*
X-232398198Y-32544415D01*
X-232332440Y-32327639D01*
X-232310236Y-32102200D01*
X-232315800Y-30639700D01*
X-232603300Y-30352200D01*
X-234315800Y-30352200D01*
X-234415800Y-30352200D01*
X-234435800Y-30352200D01*
X-234435800Y-30252200D01*
X-234415800Y-30252200D01*
X-234415800Y-27639700D01*
X-234315800Y-27639700D01*
X-234315800Y-30252200D01*
X-232603300Y-30252200D01*
X-232344285Y-29993185D01*
X-232325491Y-30087670D01*
X-232148343Y-30515343D01*
X-231891164Y-30900238D01*
X-231563838Y-31227564D01*
X-231178943Y-31484743D01*
X-230751270Y-31661891D01*
X-230297255Y-31752200D01*
X-229834345Y-31752200D01*
X-229380330Y-31661891D01*
X-228952657Y-31484743D01*
X-228567762Y-31227564D01*
X-228240436Y-30900238D01*
X-227983257Y-30515343D01*
X-227806109Y-30087670D01*
X-227715800Y-29633655D01*
X-227715800Y-29170745D01*
X-227806109Y-28716730D01*
X-227983257Y-28289057D01*
X-228240436Y-27904162D01*
X-228567762Y-27576836D01*
X-228952657Y-27319657D01*
X-229380330Y-27142509D01*
X-229834345Y-27052200D01*
X-230297255Y-27052200D01*
X-230751270Y-27142509D01*
X-231178943Y-27319657D01*
X-231563838Y-27576836D01*
X-231891164Y-27904162D01*
X-232148343Y-28289057D01*
X-232310918Y-28681548D01*
X-232310236Y-28502200D01*
X-232332440Y-28276761D01*
X-232398198Y-28059985D01*
X-232504984Y-27860203D01*
X-232648693Y-27685093D01*
X-232823803Y-27541384D01*
X-233023585Y-27434598D01*
X-233240361Y-27368840D01*
X-233465800Y-27346636D01*
X-234028300Y-27352200D01*
X-234315800Y-27639700D01*
X-234415800Y-27639700D01*
X-234703300Y-27352200D01*
X-235265800Y-27346636D01*
X-235491239Y-27368840D01*
X-235708015Y-27434598D01*
X-235770000Y-27467730D01*
X-235770000Y-24608948D01*
X-235793875Y-24366544D01*
X-235888223Y-24055517D01*
X-236041438Y-23768874D01*
X-236247629Y-23517629D01*
X-236498875Y-23311438D01*
X-236785518Y-23158223D01*
X-237096545Y-23063875D01*
X-237420000Y-23032017D01*
X-237743456Y-23063875D01*
X-238054483Y-23158223D01*
X-238341126Y-23311438D01*
X-238592371Y-23517629D01*
X-238798562Y-23768875D01*
X-238951777Y-24055518D01*
X-239046125Y-24366545D01*
X-239070000Y-24608949D01*
X-239069999Y-27738492D01*
X-239322382Y-27945617D01*
X-239578559Y-28257770D01*
X-239615800Y-28327442D01*
X-239653040Y-28257770D01*
X-239909217Y-27945617D01*
X-240221370Y-27689440D01*
X-240577503Y-27499083D01*
X-240963930Y-27381862D01*
X-241365800Y-27342281D01*
X-241767669Y-27381862D01*
X-242154096Y-27499083D01*
X-242510229Y-27689440D01*
X-242822382Y-27945617D01*
X-243078559Y-28257770D01*
X-243115800Y-28327442D01*
X-243153040Y-28257770D01*
X-243409217Y-27945617D01*
X-243721370Y-27689440D01*
X-244077503Y-27499083D01*
X-244463930Y-27381862D01*
X-244865800Y-27342281D01*
X-245267669Y-27381862D01*
X-245654096Y-27499083D01*
X-246010229Y-27689440D01*
X-246322382Y-27945617D01*
X-246578559Y-28257770D01*
X-246615800Y-28327442D01*
X-246653040Y-28257770D01*
X-246909217Y-27945617D01*
X-247221370Y-27689440D01*
X-247577503Y-27499083D01*
X-247963930Y-27381862D01*
X-248365800Y-27342281D01*
X-248767669Y-27381862D01*
X-249154096Y-27499083D01*
X-249510229Y-27689440D01*
X-249822382Y-27945617D01*
X-250078559Y-28257770D01*
X-250115800Y-28327442D01*
X-250153040Y-28257770D01*
X-250215800Y-28181297D01*
X-250215800Y-15775252D01*
X-250207817Y-15694200D01*
X-250239675Y-15370744D01*
X-250334023Y-15059718D01*
X-250334023Y-15059717D01*
X-250487238Y-14773074D01*
X-250693429Y-14521829D01*
X-250944674Y-14315638D01*
X-251231317Y-14162423D01*
X-251542344Y-14068075D01*
X-251865800Y-14036217D01*
X-252107269Y-14060000D01*
X-305368948Y-14060000D01*
X-305450000Y-14052017D01*
X-305531052Y-14060000D01*
X-305773456Y-14083875D01*
X-306084483Y-14178223D01*
X-306371126Y-14331438D01*
X-306622371Y-14537629D01*
X-306674039Y-14600587D01*
X-348479406Y-56405955D01*
X-348542371Y-56457629D01*
X-348748562Y-56708875D01*
X-348901777Y-56995518D01*
X-348996125Y-57306545D01*
X-349020000Y-57548949D01*
X-349020000Y-57548958D01*
X-349027982Y-57630000D01*
X-352639911Y-57630000D01*
X-352748912Y-51381092D01*
X-310863257Y-9540341D01*
X-185336936Y-10229196D01*
%TA.AperFunction,Conductor*%
D28*
G36*
X-185336936Y-10229196D02*
G01*
X-185010004Y-25981357D01*
X-185209977Y-104370408D01*
X-186819923Y-117153530D01*
X-329452415Y-118267027D01*
X-351961107Y-96545230D01*
X-352639911Y-57630000D01*
X-349027982Y-57630000D01*
X-349020000Y-57711042D01*
X-349019999Y-83448948D01*
X-349027982Y-83530000D01*
X-349019999Y-83611052D01*
X-349014051Y-83671438D01*
X-348996124Y-83853456D01*
X-348901777Y-84164482D01*
X-348901776Y-84164483D01*
X-348748561Y-84451126D01*
X-348542370Y-84702371D01*
X-348479411Y-84754040D01*
X-332134040Y-101099412D01*
X-332082371Y-101162371D01*
X-331831126Y-101368562D01*
X-331544483Y-101521777D01*
X-331233456Y-101616125D01*
X-330991052Y-101640000D01*
X-330991043Y-101640000D01*
X-330910001Y-101647982D01*
X-330828959Y-101640000D01*
X-242051224Y-101640000D01*
X-242182371Y-101747629D01*
X-242388562Y-101998874D01*
X-242541777Y-102285517D01*
X-242636125Y-102596544D01*
X-242667983Y-102920000D01*
X-242636125Y-103243456D01*
X-242541777Y-103554483D01*
X-242388562Y-103841126D01*
X-242182371Y-104092371D01*
X-241931126Y-104298562D01*
X-241644483Y-104451777D01*
X-241333456Y-104546125D01*
X-241091052Y-104570000D01*
X-233131042Y-104570000D01*
X-233050000Y-104577982D01*
X-232968958Y-104570000D01*
X-232968948Y-104570000D01*
X-232726544Y-104546125D01*
X-232415517Y-104451777D01*
X-232128874Y-104298562D01*
X-231877629Y-104092371D01*
X-231825956Y-104029407D01*
X-230240588Y-102444040D01*
X-230177629Y-102392371D01*
X-229971438Y-102141126D01*
X-229818223Y-101854483D01*
X-229723875Y-101543456D01*
X-229700000Y-101301052D01*
X-229700000Y-101301043D01*
X-229692018Y-101220001D01*
X-229700000Y-101138959D01*
X-229700000Y-92828948D01*
X-229723875Y-92586544D01*
X-229818223Y-92275517D01*
X-229971438Y-91988874D01*
X-230177629Y-91737629D01*
X-230428875Y-91531438D01*
X-230715518Y-91378223D01*
X-231026545Y-91283875D01*
X-231350000Y-91252017D01*
X-231673456Y-91283875D01*
X-231980000Y-91376863D01*
X-231980000Y-85041041D01*
X-231972018Y-84959999D01*
X-231980000Y-84878957D01*
X-231980000Y-84878948D01*
X-232003875Y-84636544D01*
X-232098223Y-84325517D01*
X-232251438Y-84038874D01*
X-232266927Y-84020000D01*
X-222360000Y-84020000D01*
X-222360000Y-84346983D01*
X-222283141Y-84733378D01*
X-222132377Y-85097355D01*
X-221916792Y-85420000D01*
X-222132377Y-85742645D01*
X-222283141Y-86106622D01*
X-222360000Y-86493017D01*
X-222360000Y-86886983D01*
X-222283141Y-87273378D01*
X-222132377Y-87637355D01*
X-221916792Y-87960000D01*
X-222132377Y-88282645D01*
X-222283141Y-88646622D01*
X-222360000Y-89033017D01*
X-222360000Y-89426983D01*
X-222283141Y-89813378D01*
X-222132377Y-90177355D01*
X-221916792Y-90500000D01*
X-222132377Y-90822645D01*
X-222283141Y-91186622D01*
X-222360000Y-91573017D01*
X-222360000Y-91966983D01*
X-222283141Y-92353378D01*
X-222132377Y-92717355D01*
X-221916792Y-93040000D01*
X-222132377Y-93362645D01*
X-222283141Y-93726622D01*
X-222360000Y-94113017D01*
X-222360000Y-94506983D01*
X-222283141Y-94893378D01*
X-222132377Y-95257355D01*
X-221916792Y-95580000D01*
X-222132377Y-95902645D01*
X-222283141Y-96266622D01*
X-222360000Y-96653017D01*
X-222360000Y-97046983D01*
X-222283141Y-97433378D01*
X-222132377Y-97797355D01*
X-221916792Y-98120000D01*
X-222132377Y-98442645D01*
X-222283141Y-98806622D01*
X-222360000Y-99193017D01*
X-222360000Y-99586983D01*
X-222283141Y-99973378D01*
X-222132377Y-100337355D01*
X-221916792Y-100660000D01*
X-222132377Y-100982645D01*
X-222283141Y-101346622D01*
X-222360000Y-101733017D01*
X-222360000Y-102126983D01*
X-222283141Y-102513378D01*
X-222132377Y-102877355D01*
X-221913501Y-103204926D01*
X-221634926Y-103483501D01*
X-221307355Y-103702377D01*
X-220943378Y-103853141D01*
X-220556983Y-103930000D01*
X-220163017Y-103930000D01*
X-219776622Y-103853141D01*
X-219412645Y-103702377D01*
X-219085074Y-103483501D01*
X-219075851Y-103474278D01*
X-218907304Y-103608624D01*
X-218558928Y-103788492D01*
X-218182156Y-103896939D01*
X-217870000Y-103641876D01*
X-217870000Y-101980000D01*
X-217770000Y-101980000D01*
X-217770000Y-103641876D01*
X-217457844Y-103896939D01*
X-217081072Y-103788492D01*
X-216732696Y-103608624D01*
X-216426105Y-103364247D01*
X-216173081Y-103064753D01*
X-215983347Y-102721651D01*
X-215864194Y-102348126D01*
X-215853062Y-102292156D01*
X-216108230Y-101980000D01*
X-217770000Y-101980000D01*
X-217870000Y-101980000D01*
X-217890000Y-101980000D01*
X-217890000Y-101880000D01*
X-217870000Y-101880000D01*
X-217870000Y-101860000D01*
X-217770000Y-101860000D01*
X-217770000Y-101880000D01*
X-216108230Y-101880000D01*
X-215853062Y-101567844D01*
X-215864194Y-101511874D01*
X-215983347Y-101138349D01*
X-216173081Y-100795247D01*
X-216275542Y-100673969D01*
X-216266499Y-100664926D01*
X-216047623Y-100337355D01*
X-215896859Y-99973378D01*
X-215848279Y-99729149D01*
X-207750000Y-99729149D01*
X-207750000Y-100270851D01*
X-207644319Y-100802145D01*
X-207437018Y-101302613D01*
X-207136064Y-101753023D01*
X-206753023Y-102136064D01*
X-206302613Y-102437018D01*
X-205802145Y-102644319D01*
X-205270851Y-102750000D01*
X-204729149Y-102750000D01*
X-204197855Y-102644319D01*
X-203697387Y-102437018D01*
X-203246977Y-102136064D01*
X-202863936Y-101753023D01*
X-202562982Y-101302613D01*
X-202355681Y-100802145D01*
X-202250000Y-100270851D01*
X-202250000Y-99729149D01*
X-202355681Y-99197855D01*
X-202562982Y-98697387D01*
X-202863936Y-98246977D01*
X-203246977Y-97863936D01*
X-203697387Y-97562982D01*
X-204197855Y-97355681D01*
X-204729149Y-97250000D01*
X-205270851Y-97250000D01*
X-205802145Y-97355681D01*
X-206302613Y-97562982D01*
X-206753023Y-97863936D01*
X-207136064Y-98246977D01*
X-207437018Y-98697387D01*
X-207644319Y-99197855D01*
X-207750000Y-99729149D01*
X-215848279Y-99729149D01*
X-215820000Y-99586983D01*
X-215820000Y-99193017D01*
X-215896859Y-98806622D01*
X-216047623Y-98442645D01*
X-216263208Y-98120000D01*
X-216047623Y-97797355D01*
X-215896859Y-97433378D01*
X-215820000Y-97046983D01*
X-215820000Y-96653017D01*
X-215896859Y-96266622D01*
X-216047623Y-95902645D01*
X-216263208Y-95580000D01*
X-216047623Y-95257355D01*
X-215896859Y-94893378D01*
X-215820000Y-94506983D01*
X-215820000Y-94113017D01*
X-215868339Y-93870000D01*
X-199161042Y-93870000D01*
X-199080000Y-93877982D01*
X-198998958Y-93870000D01*
X-198998948Y-93870000D01*
X-198756544Y-93846125D01*
X-198445517Y-93751777D01*
X-198158874Y-93598562D01*
X-197907629Y-93392371D01*
X-197855955Y-93329406D01*
X-197848792Y-93322243D01*
X-197785829Y-93270571D01*
X-197579638Y-93019326D01*
X-197426423Y-92732683D01*
X-197332075Y-92421656D01*
X-197308200Y-92179252D01*
X-197308200Y-92179242D01*
X-197300218Y-92098201D01*
X-197308200Y-92017159D01*
X-197308200Y-89454289D01*
X-197262893Y-89417107D01*
X-197119184Y-89241997D01*
X-197012398Y-89042215D01*
X-196946640Y-88825439D01*
X-196924436Y-88600000D01*
X-196924436Y-86900000D01*
X-196946640Y-86674561D01*
X-197012398Y-86457785D01*
X-197119184Y-86258003D01*
X-197188441Y-86173613D01*
X-197093347Y-86001651D01*
X-196974194Y-85628126D01*
X-196963062Y-85572156D01*
X-197218230Y-85260000D01*
X-198880000Y-85260000D01*
X-198880000Y-85280000D01*
X-198980000Y-85280000D01*
X-198980000Y-85260000D01*
X-200641770Y-85260000D01*
X-200896938Y-85572156D01*
X-200885806Y-85628126D01*
X-200766653Y-86001651D01*
X-200671559Y-86173613D01*
X-200740816Y-86258003D01*
X-200847602Y-86457785D01*
X-200913360Y-86674561D01*
X-200935564Y-86900000D01*
X-200935564Y-88600000D01*
X-200913360Y-88825439D01*
X-200847602Y-89042215D01*
X-200740816Y-89241997D01*
X-200608199Y-89403591D01*
X-200608200Y-90570000D01*
X-216114802Y-90570000D01*
X-216131439Y-90538875D01*
X-216218390Y-90432925D01*
X-216047623Y-90177355D01*
X-215896859Y-89813378D01*
X-215820000Y-89426983D01*
X-215820000Y-89033017D01*
X-215896859Y-88646622D01*
X-216047623Y-88282645D01*
X-216263208Y-87960000D01*
X-216047623Y-87637355D01*
X-215896859Y-87273378D01*
X-215820000Y-86886983D01*
X-215820000Y-86493017D01*
X-215896859Y-86106622D01*
X-216047623Y-85742645D01*
X-216263208Y-85420000D01*
X-216047623Y-85097355D01*
X-215944273Y-84847844D01*
X-200896938Y-84847844D01*
X-200641770Y-85160000D01*
X-198980000Y-85160000D01*
X-198980000Y-83498124D01*
X-198880000Y-83498124D01*
X-198880000Y-85160000D01*
X-197218230Y-85160000D01*
X-196963062Y-84847844D01*
X-196974194Y-84791874D01*
X-197093347Y-84418349D01*
X-197283081Y-84075247D01*
X-197536105Y-83775753D01*
X-197842696Y-83531376D01*
X-198191072Y-83351508D01*
X-198567844Y-83243061D01*
X-198880000Y-83498124D01*
X-198980000Y-83498124D01*
X-199292156Y-83243061D01*
X-199668928Y-83351508D01*
X-200017304Y-83531376D01*
X-200323895Y-83775753D01*
X-200576919Y-84075247D01*
X-200766653Y-84418349D01*
X-200885806Y-84791874D01*
X-200896938Y-84847844D01*
X-215944273Y-84847844D01*
X-215896859Y-84733378D01*
X-215820000Y-84346983D01*
X-215820000Y-83953017D01*
X-215896859Y-83566622D01*
X-216047623Y-83202645D01*
X-216263208Y-82880000D01*
X-216047623Y-82557355D01*
X-215896859Y-82193378D01*
X-215820000Y-81806983D01*
X-215820000Y-81413017D01*
X-215896859Y-81026622D01*
X-216023866Y-80720000D01*
X-215198475Y-80720000D01*
X-215013456Y-80776124D01*
X-214690001Y-80807982D01*
X-214366544Y-80776124D01*
X-214055518Y-80681777D01*
X-213768874Y-80528561D01*
X-213517630Y-80322370D01*
X-213311439Y-80071126D01*
X-213158223Y-79784482D01*
X-213063876Y-79473456D01*
X-213032018Y-79149999D01*
X-213063876Y-78826544D01*
X-213158223Y-78515518D01*
X-213311439Y-78228874D01*
X-213454134Y-78055000D01*
X-212872029Y-78055000D01*
X-212844192Y-78073600D01*
X-212562110Y-78190443D01*
X-212262654Y-78250008D01*
X-211957330Y-78250008D01*
X-211657874Y-78190443D01*
X-211375792Y-78073600D01*
X-211121924Y-77903972D01*
X-210906028Y-77688076D01*
X-210736400Y-77434208D01*
X-210619557Y-77152126D01*
X-210559992Y-76852670D01*
X-210559992Y-76547346D01*
X-210619557Y-76247890D01*
X-210736400Y-75965808D01*
X-210906028Y-75711940D01*
X-211121924Y-75496044D01*
X-211197717Y-75445401D01*
X-211428656Y-75255874D01*
X-211693584Y-75114267D01*
X-211981048Y-75027066D01*
X-212205089Y-75005000D01*
X-212280000Y-74997622D01*
X-212354911Y-75005000D01*
X-216092822Y-75005000D01*
X-216047623Y-74937355D01*
X-215896859Y-74573378D01*
X-215820000Y-74186983D01*
X-215820000Y-73793017D01*
X-215896859Y-73406622D01*
X-216047623Y-73042645D01*
X-216263208Y-72720000D01*
X-216047623Y-72397355D01*
X-215896859Y-72033378D01*
X-215820000Y-71646983D01*
X-215820000Y-71253017D01*
X-215896859Y-70866622D01*
X-216047623Y-70502645D01*
X-216263208Y-70180000D01*
X-216047623Y-69857355D01*
X-215896859Y-69493378D01*
X-215820000Y-69106983D01*
X-215820000Y-68713017D01*
X-215896859Y-68326622D01*
X-216047623Y-67962645D01*
X-216263208Y-67640000D01*
X-216047623Y-67317355D01*
X-215896859Y-66953378D01*
X-215820000Y-66566983D01*
X-215820000Y-66173017D01*
X-215896859Y-65786622D01*
X-215990728Y-65560000D01*
X-210377983Y-65560000D01*
X-210346125Y-65883456D01*
X-210251777Y-66194483D01*
X-210098562Y-66481126D01*
X-209892371Y-66732371D01*
X-209641126Y-66938562D01*
X-209354483Y-67091777D01*
X-209043456Y-67186125D01*
X-208801052Y-67210000D01*
X-203581042Y-67210000D01*
X-203500000Y-67217982D01*
X-203418958Y-67210000D01*
X-203418948Y-67210000D01*
X-203176544Y-67186125D01*
X-202865517Y-67091777D01*
X-202578874Y-66938562D01*
X-202327629Y-66732371D01*
X-202275959Y-66669411D01*
X-202245962Y-66639414D01*
X-202091439Y-66451126D01*
X-201938224Y-66164482D01*
X-201843876Y-65853456D01*
X-201812018Y-65530001D01*
X-201843876Y-65206545D01*
X-201938224Y-64895518D01*
X-202091439Y-64608875D01*
X-202297630Y-64357630D01*
X-202548875Y-64151439D01*
X-202835518Y-63998224D01*
X-203146545Y-63903876D01*
X-203470001Y-63872018D01*
X-203793456Y-63903876D01*
X-203813644Y-63910000D01*
X-208801052Y-63910000D01*
X-209043456Y-63933875D01*
X-209354483Y-64028223D01*
X-209641126Y-64181438D01*
X-209892371Y-64387629D01*
X-210098562Y-64638874D01*
X-210251777Y-64925517D01*
X-210346125Y-65236544D01*
X-210377983Y-65560000D01*
X-215990728Y-65560000D01*
X-216047623Y-65422645D01*
X-216263208Y-65100000D01*
X-216047623Y-64777355D01*
X-215896859Y-64413378D01*
X-215820000Y-64026983D01*
X-215820000Y-63633017D01*
X-215896859Y-63246622D01*
X-216023866Y-62940000D01*
X-215166515Y-62940000D01*
X-215144482Y-62951777D01*
X-214833455Y-63046125D01*
X-214510000Y-63077983D01*
X-214186544Y-63046125D01*
X-213875518Y-62951777D01*
X-213588874Y-62798562D01*
X-213337629Y-62592371D01*
X-213131438Y-62341126D01*
X-212978223Y-62054482D01*
X-212883875Y-61743456D01*
X-212852017Y-61420000D01*
X-212883875Y-61096545D01*
X-212978223Y-60785518D01*
X-213131438Y-60498875D01*
X-213212583Y-60400000D01*
X-204421042Y-60400000D01*
X-204340000Y-60407982D01*
X-204258958Y-60400000D01*
X-204258948Y-60400000D01*
X-204016544Y-60376125D01*
X-203705517Y-60281777D01*
X-203418874Y-60128562D01*
X-203167629Y-59922371D01*
X-203115955Y-59859406D01*
X-202115962Y-58859413D01*
X-201297949Y-58041401D01*
X-198942443Y-58041401D01*
X-198861401Y-58049383D01*
X-198780359Y-58041401D01*
X-198780349Y-58041401D01*
X-198537945Y-58017526D01*
X-198226918Y-57923178D01*
X-197940275Y-57769963D01*
X-197689030Y-57563772D01*
X-197637357Y-57500808D01*
X-196460587Y-56324039D01*
X-196397629Y-56272371D01*
X-196191438Y-56021126D01*
X-196038223Y-55734483D01*
X-195943875Y-55423456D01*
X-195920000Y-55181052D01*
X-195920000Y-55181051D01*
X-195912017Y-55100000D01*
X-195920000Y-55018948D01*
X-195920000Y-23531041D01*
X-195912018Y-23449999D01*
X-195920000Y-23368958D01*
X-195920000Y-23368948D01*
X-195943875Y-23126544D01*
X-196038223Y-22815517D01*
X-196191438Y-22528874D01*
X-196397629Y-22277629D01*
X-196460594Y-22225955D01*
X-196495955Y-22190594D01*
X-196547629Y-22127629D01*
X-196798874Y-21921438D01*
X-197085517Y-21768223D01*
X-197396544Y-21673875D01*
X-197638948Y-21650000D01*
X-197638958Y-21650000D01*
X-197720000Y-21642018D01*
X-197801042Y-21650000D01*
X-207918948Y-21650000D01*
X-208000000Y-21642017D01*
X-208081052Y-21650000D01*
X-208323456Y-21673875D01*
X-208634483Y-21768223D01*
X-208921126Y-21921438D01*
X-209172371Y-22127629D01*
X-209172641Y-22127959D01*
X-209172971Y-22128229D01*
X-209379162Y-22379475D01*
X-209532377Y-22666118D01*
X-209626725Y-22977145D01*
X-209650600Y-23219549D01*
X-209650600Y-23219558D01*
X-209658582Y-23300600D01*
X-209650600Y-23381642D01*
X-209650599Y-27823118D01*
X-209744897Y-27770957D01*
X-210120214Y-27651183D01*
X-210511687Y-27606931D01*
X-210904271Y-27639901D01*
X-211282879Y-27748827D01*
X-211430600Y-27825074D01*
X-211430600Y-24841652D01*
X-211422617Y-24760600D01*
X-211454475Y-24437144D01*
X-211520003Y-24221125D01*
X-211548823Y-24126117D01*
X-211702038Y-23839474D01*
X-211908229Y-23588229D01*
X-212159474Y-23382038D01*
X-212446117Y-23228823D01*
X-212757144Y-23134475D01*
X-213080600Y-23102617D01*
X-213257090Y-23120000D01*
X-219108948Y-23120000D01*
X-219190000Y-23112017D01*
X-219513457Y-23143875D01*
X-219793495Y-23228823D01*
X-219824483Y-23238223D01*
X-220111126Y-23391438D01*
X-220362371Y-23597629D01*
X-220414045Y-23660594D01*
X-221179406Y-24425955D01*
X-221242371Y-24477629D01*
X-221448562Y-24728875D01*
X-221601777Y-25015518D01*
X-221696125Y-25326545D01*
X-221720000Y-25568949D01*
X-221720000Y-25568958D01*
X-221727982Y-25650000D01*
X-221720000Y-25731042D01*
X-221719999Y-34918941D01*
X-221727983Y-35000000D01*
X-221719999Y-35081059D01*
X-221719999Y-39568948D01*
X-221727982Y-39650000D01*
X-221696124Y-39973456D01*
X-221601777Y-40284482D01*
X-221551853Y-40377882D01*
X-221448561Y-40571126D01*
X-221242370Y-40822371D01*
X-221179414Y-40874038D01*
X-221069414Y-40984038D01*
X-220881126Y-41138561D01*
X-220594483Y-41291776D01*
X-220283456Y-41386124D01*
X-219960001Y-41417982D01*
X-219636545Y-41386124D01*
X-219325518Y-41291776D01*
X-219038875Y-41138561D01*
X-218787630Y-40932370D01*
X-218581439Y-40681125D01*
X-218428224Y-40394482D01*
X-218333876Y-40083455D01*
X-218302018Y-39759999D01*
X-218333876Y-39436544D01*
X-218420000Y-39152628D01*
X-218420000Y-36987808D01*
X-218268562Y-37271126D01*
X-218062371Y-37522371D01*
X-217811126Y-37728562D01*
X-217524483Y-37881777D01*
X-217213456Y-37976125D01*
X-216971052Y-38000000D01*
X-216971042Y-38000000D01*
X-216890000Y-38007982D01*
X-216808958Y-38000000D01*
X-216808948Y-38000000D01*
X-216566544Y-37976125D01*
X-216255517Y-37881777D01*
X-215968874Y-37728562D01*
X-215717629Y-37522371D01*
X-215665956Y-37459407D01*
X-214730599Y-36524051D01*
X-214730599Y-37837147D01*
X-225346647Y-48453196D01*
X-225367629Y-48427629D01*
X-225618874Y-48221438D01*
X-225905517Y-48068223D01*
X-226216544Y-47973875D01*
X-226458948Y-47950000D01*
X-226458958Y-47950000D01*
X-226540000Y-47942018D01*
X-226621042Y-47950000D01*
X-228188959Y-47950000D01*
X-228270001Y-47942018D01*
X-228351043Y-47950000D01*
X-228351052Y-47950000D01*
X-228593456Y-47973875D01*
X-228904483Y-48068223D01*
X-229191126Y-48221438D01*
X-229191128Y-48221439D01*
X-229191127Y-48221439D01*
X-229379415Y-48375962D01*
X-229379418Y-48375965D01*
X-229442371Y-48427629D01*
X-229494036Y-48490583D01*
X-229827156Y-48823703D01*
X-229820000Y-48751052D01*
X-229820000Y-40693451D01*
X-229606548Y-40480000D01*
X-224408948Y-40480000D01*
X-224166544Y-40456125D01*
X-223855517Y-40361777D01*
X-223568874Y-40208562D01*
X-223317629Y-40002371D01*
X-223111438Y-39751126D01*
X-222958223Y-39464483D01*
X-222863875Y-39153456D01*
X-222832017Y-38830000D01*
X-222863875Y-38506544D01*
X-222958223Y-38195517D01*
X-223111438Y-37908874D01*
X-223317629Y-37657629D01*
X-223568874Y-37451438D01*
X-223855517Y-37298223D01*
X-224166544Y-37203875D01*
X-224408948Y-37180000D01*
X-230208959Y-37180000D01*
X-230290001Y-37172018D01*
X-230371043Y-37180000D01*
X-230371052Y-37180000D01*
X-230613456Y-37203875D01*
X-230924483Y-37298223D01*
X-231211126Y-37451438D01*
X-231462371Y-37657629D01*
X-231514040Y-37720589D01*
X-232579411Y-38785960D01*
X-232642370Y-38837629D01*
X-232698949Y-38906571D01*
X-232848561Y-39088874D01*
X-233001777Y-39375518D01*
X-233096124Y-39686544D01*
X-233127982Y-40010000D01*
X-233119999Y-40091051D01*
X-233120000Y-43221051D01*
X-233119999Y-43221061D01*
X-233120000Y-48751051D01*
X-233096125Y-48993455D01*
X-233024371Y-49230000D01*
X-233898948Y-49230000D01*
X-233980000Y-49222017D01*
X-234061052Y-49230000D01*
X-236992856Y-49230000D01*
X-237027629Y-49187629D01*
X-237278874Y-48981438D01*
X-237565517Y-48828223D01*
X-237876544Y-48733875D01*
X-238118948Y-48710000D01*
X-238118958Y-48710000D01*
X-238200000Y-48702018D01*
X-238281042Y-48710000D01*
X-273200000Y-48710000D01*
X-273200000Y-46401042D01*
X-273192018Y-46320000D01*
X-273200000Y-46238958D01*
X-273200000Y-46238948D01*
X-273223875Y-45996544D01*
X-273318223Y-45685517D01*
X-273471438Y-45398874D01*
X-273677629Y-45147629D01*
X-273740588Y-45095960D01*
X-276014436Y-42822113D01*
X-276014436Y-42300000D01*
X-276036640Y-42074561D01*
X-276102398Y-41857785D01*
X-276209184Y-41658003D01*
X-276352893Y-41482893D01*
X-276370000Y-41468854D01*
X-276370000Y-31041041D01*
X-276362018Y-30959999D01*
X-276370000Y-30878958D01*
X-276370000Y-30878948D01*
X-276393875Y-30636544D01*
X-276488223Y-30325517D01*
X-276641438Y-30038874D01*
X-276847629Y-29787629D01*
X-276910592Y-29735957D01*
X-276945955Y-29700594D01*
X-276997629Y-29637629D01*
X-277248874Y-29431438D01*
X-277535517Y-29278223D01*
X-277846544Y-29183875D01*
X-278088948Y-29160000D01*
X-278088958Y-29160000D01*
X-278170000Y-29152018D01*
X-278251042Y-29160000D01*
X-280876598Y-29160000D01*
X-281051962Y-28984636D01*
X-281436857Y-28727457D01*
X-281864530Y-28550309D01*
X-282318545Y-28460000D01*
X-282781455Y-28460000D01*
X-283235470Y-28550309D01*
X-283663143Y-28727457D01*
X-284048038Y-28984636D01*
X-284375364Y-29311962D01*
X-284632543Y-29696857D01*
X-284809691Y-30124530D01*
X-284900000Y-30578545D01*
X-284900000Y-31041455D01*
X-284809691Y-31495470D01*
X-284632543Y-31923143D01*
X-284375364Y-32308038D01*
X-284048038Y-32635364D01*
X-283663143Y-32892543D01*
X-283235470Y-33069691D01*
X-282781455Y-33160000D01*
X-282318545Y-33160000D01*
X-281864530Y-33069691D01*
X-281436857Y-32892543D01*
X-281051962Y-32635364D01*
X-280876598Y-32460000D01*
X-279670000Y-32460000D01*
X-279669999Y-41468853D01*
X-279687107Y-41482893D01*
X-279830816Y-41658003D01*
X-279937602Y-41857785D01*
X-280003360Y-42074561D01*
X-280025564Y-42300000D01*
X-280025564Y-44000000D01*
X-280021624Y-44040000D01*
X-282240000Y-44040000D01*
X-282240000Y-38101041D01*
X-282232018Y-38019999D01*
X-282240000Y-37938958D01*
X-282240000Y-37938948D01*
X-282263875Y-37696544D01*
X-282358223Y-37385517D01*
X-282511438Y-37098874D01*
X-282717629Y-36847629D01*
X-282723121Y-36843121D01*
X-282727629Y-36837629D01*
X-282978874Y-36631438D01*
X-283265517Y-36478223D01*
X-283576544Y-36383875D01*
X-283818948Y-36360000D01*
X-283818958Y-36360000D01*
X-283900000Y-36352018D01*
X-283981042Y-36360000D01*
X-300766548Y-36360000D01*
X-301220000Y-35906549D01*
X-301220000Y-32483402D01*
X-301044636Y-32308038D01*
X-300787457Y-31923143D01*
X-300610309Y-31495470D01*
X-300520000Y-31041455D01*
X-300520000Y-30578545D01*
X-300610309Y-30124530D01*
X-300787457Y-29696857D01*
X-301044636Y-29311962D01*
X-301371962Y-28984636D01*
X-301756857Y-28727457D01*
X-302184530Y-28550309D01*
X-302638545Y-28460000D01*
X-303101455Y-28460000D01*
X-303555470Y-28550309D01*
X-303983143Y-28727457D01*
X-304368038Y-28984636D01*
X-304695364Y-29311962D01*
X-304952543Y-29696857D01*
X-305129691Y-30124530D01*
X-305220000Y-30578545D01*
X-305220000Y-31041455D01*
X-305129691Y-31495470D01*
X-304952543Y-31923143D01*
X-304695364Y-32308038D01*
X-304520000Y-32483402D01*
X-304519999Y-36508948D01*
X-304527982Y-36590000D01*
X-304496124Y-36913456D01*
X-304401777Y-37224482D01*
X-304280465Y-37451438D01*
X-304248561Y-37511126D01*
X-304042370Y-37762371D01*
X-303979411Y-37814040D01*
X-302674040Y-39119412D01*
X-302624317Y-39180000D01*
X-318348959Y-39180000D01*
X-318430001Y-39172018D01*
X-318511043Y-39180000D01*
X-318511052Y-39180000D01*
X-318563294Y-39185145D01*
X-301072348Y-21694200D01*
X-260515799Y-21694200D01*
X-260515800Y-28181298D01*
X-260578559Y-28257770D01*
X-260768916Y-28613903D01*
X-260864129Y-28927779D01*
X-260906109Y-28716730D01*
X-261083257Y-28289057D01*
X-261340436Y-27904162D01*
X-261667762Y-27576836D01*
X-262052657Y-27319657D01*
X-262480330Y-27142509D01*
X-262934345Y-27052200D01*
X-263397255Y-27052200D01*
X-263851270Y-27142509D01*
X-264278943Y-27319657D01*
X-264663838Y-27576836D01*
X-264991164Y-27904162D01*
X-265248343Y-28289057D01*
X-265425491Y-28716730D01*
X-265515800Y-29170745D01*
X-265515800Y-29633655D01*
X-265425491Y-30087670D01*
X-265248343Y-30515343D01*
X-264991164Y-30900238D01*
X-264663838Y-31227564D01*
X-264278943Y-31484743D01*
X-263851270Y-31661891D01*
X-263397255Y-31752200D01*
X-262934345Y-31752200D01*
X-262480330Y-31661891D01*
X-262052657Y-31484743D01*
X-261667762Y-31227564D01*
X-261340436Y-30900238D01*
X-261083257Y-30515343D01*
X-260915800Y-30111066D01*
X-260915800Y-31302908D01*
X-260886138Y-31604069D01*
X-260768917Y-31990496D01*
X-260578560Y-32346630D01*
X-260322383Y-32658783D01*
X-260010230Y-32914960D01*
X-259654097Y-33105317D01*
X-259267670Y-33222538D01*
X-258865800Y-33262119D01*
X-258463931Y-33222538D01*
X-258077504Y-33105317D01*
X-257721370Y-32914960D01*
X-257409217Y-32658783D01*
X-257153040Y-32346630D01*
X-257115800Y-32276959D01*
X-257078560Y-32346630D01*
X-256822383Y-32658783D01*
X-256510230Y-32914960D01*
X-256154097Y-33105317D01*
X-255767670Y-33222538D01*
X-255365800Y-33262119D01*
X-254963931Y-33222538D01*
X-254577504Y-33105317D01*
X-254221370Y-32914960D01*
X-253909217Y-32658783D01*
X-253653040Y-32346630D01*
X-253615800Y-32276959D01*
X-253578560Y-32346630D01*
X-253322383Y-32658783D01*
X-253010230Y-32914960D01*
X-252654097Y-33105317D01*
X-252267670Y-33222538D01*
X-251865800Y-33262119D01*
X-251463931Y-33222538D01*
X-251077504Y-33105317D01*
X-250721370Y-32914960D01*
X-250409217Y-32658783D01*
X-250153040Y-32346630D01*
X-250115800Y-32276959D01*
X-250078560Y-32346630D01*
X-250015800Y-32423104D01*
X-250015800Y-33853158D01*
X-250023782Y-33934200D01*
X-250015800Y-34015242D01*
X-250015800Y-34015251D01*
X-250015332Y-34020000D01*
X-251008959Y-34020000D01*
X-251090001Y-34012018D01*
X-251171043Y-34020000D01*
X-251171052Y-34020000D01*
X-251413456Y-34043875D01*
X-251724483Y-34138223D01*
X-252011126Y-34291438D01*
X-252262371Y-34497629D01*
X-252314041Y-34560589D01*
X-252577852Y-34824400D01*
X-260940722Y-34824400D01*
X-261008003Y-34769184D01*
X-261207785Y-34662398D01*
X-261424561Y-34596640D01*
X-261650000Y-34574436D01*
X-263350000Y-34574436D01*
X-263575439Y-34596640D01*
X-263792215Y-34662398D01*
X-263991997Y-34769184D01*
X-264167107Y-34912893D01*
X-264181146Y-34930000D01*
X-268698959Y-34930000D01*
X-268780001Y-34922018D01*
X-268861043Y-34930000D01*
X-268861052Y-34930000D01*
X-269103456Y-34953875D01*
X-269414483Y-35048223D01*
X-269701126Y-35201438D01*
X-269952371Y-35407629D01*
X-270004039Y-35470587D01*
X-270451007Y-35917556D01*
X-270513971Y-35969229D01*
X-270720162Y-36220475D01*
X-270873377Y-36507118D01*
X-270967725Y-36818145D01*
X-270991600Y-37060549D01*
X-270991600Y-37060558D01*
X-270999582Y-37141600D01*
X-270991600Y-37222642D01*
X-270991599Y-43106797D01*
X-271166964Y-43282162D01*
X-271424143Y-43667057D01*
X-271601291Y-44094730D01*
X-271691600Y-44548745D01*
X-271691600Y-45011655D01*
X-271601291Y-45465670D01*
X-271424143Y-45893343D01*
X-271166964Y-46278238D01*
X-270839638Y-46605564D01*
X-270454743Y-46862743D01*
X-270027070Y-47039891D01*
X-269573055Y-47130200D01*
X-269110145Y-47130200D01*
X-268656130Y-47039891D01*
X-268228457Y-46862743D01*
X-267843562Y-46605564D01*
X-267516236Y-46278238D01*
X-267259057Y-45893343D01*
X-267081909Y-45465670D01*
X-266991600Y-45011655D01*
X-266991600Y-44548745D01*
X-267081909Y-44094730D01*
X-267259057Y-43667057D01*
X-267516236Y-43282162D01*
X-267691600Y-43106798D01*
X-267691600Y-39482156D01*
X-264466938Y-39482156D01*
X-264455806Y-39538126D01*
X-264336653Y-39911651D01*
X-264146919Y-40254753D01*
X-263893895Y-40554247D01*
X-263587304Y-40798624D01*
X-263238928Y-40978492D01*
X-262862156Y-41086939D01*
X-262550000Y-40831876D01*
X-262550000Y-39170000D01*
X-262450000Y-39170000D01*
X-262450000Y-40831876D01*
X-262137844Y-41086939D01*
X-261761072Y-40978492D01*
X-261412696Y-40798624D01*
X-261106105Y-40554247D01*
X-260853081Y-40254753D01*
X-260663347Y-39911651D01*
X-260544194Y-39538126D01*
X-260533062Y-39482156D01*
X-260788230Y-39170000D01*
X-262450000Y-39170000D01*
X-262550000Y-39170000D01*
X-264211770Y-39170000D01*
X-264466938Y-39482156D01*
X-267691600Y-39482156D01*
X-267691600Y-38230000D01*
X-264282266Y-38230000D01*
X-264336653Y-38328349D01*
X-264455806Y-38701874D01*
X-264466938Y-38757844D01*
X-264211770Y-39070000D01*
X-262550000Y-39070000D01*
X-262550000Y-39050000D01*
X-262450000Y-39050000D01*
X-262450000Y-39070000D01*
X-260788230Y-39070000D01*
X-260533062Y-38757844D01*
X-260544194Y-38701874D01*
X-260663347Y-38328349D01*
X-260758441Y-38156387D01*
X-260732190Y-38124400D01*
X-251975442Y-38124400D01*
X-251894400Y-38132382D01*
X-251813358Y-38124400D01*
X-251813348Y-38124400D01*
X-251570944Y-38100525D01*
X-251259917Y-38006177D01*
X-250973274Y-37852962D01*
X-250722029Y-37646771D01*
X-250670356Y-37583807D01*
X-250406549Y-37320000D01*
X-249305564Y-37320000D01*
X-249305564Y-38690000D01*
X-249283360Y-38915439D01*
X-249217602Y-39132215D01*
X-249110816Y-39331997D01*
X-248967107Y-39507107D01*
X-248791997Y-39650816D01*
X-248592215Y-39757602D01*
X-248375439Y-39823360D01*
X-248150000Y-39845564D01*
X-246450000Y-39845564D01*
X-246409999Y-39841624D01*
X-246410000Y-43130200D01*
X-247348198Y-43130200D01*
X-247523562Y-42954836D01*
X-247908457Y-42697657D01*
X-248336130Y-42520509D01*
X-248790145Y-42430200D01*
X-249253055Y-42430200D01*
X-249707070Y-42520509D01*
X-250134743Y-42697657D01*
X-250519638Y-42954836D01*
X-250846964Y-43282162D01*
X-251104143Y-43667057D01*
X-251281291Y-44094730D01*
X-251371600Y-44548745D01*
X-251371600Y-45011655D01*
X-251281291Y-45465670D01*
X-251104143Y-45893343D01*
X-250846964Y-46278238D01*
X-250519638Y-46605564D01*
X-250134743Y-46862743D01*
X-249707070Y-47039891D01*
X-249253055Y-47130200D01*
X-248790145Y-47130200D01*
X-248336130Y-47039891D01*
X-247908457Y-46862743D01*
X-247523562Y-46605564D01*
X-247348198Y-46430200D01*
X-245131242Y-46430200D01*
X-245050200Y-46438182D01*
X-244969158Y-46430200D01*
X-244969148Y-46430200D01*
X-244726744Y-46406325D01*
X-244415717Y-46311977D01*
X-244129074Y-46158762D01*
X-243877829Y-45952571D01*
X-243826155Y-45889606D01*
X-243650592Y-45714043D01*
X-243587629Y-45662371D01*
X-243381438Y-45411126D01*
X-243228223Y-45124483D01*
X-243133875Y-44813456D01*
X-243110000Y-44571052D01*
X-243110000Y-44571051D01*
X-243102017Y-44490000D01*
X-243110000Y-44408948D01*
X-243110000Y-39490000D01*
X-240131042Y-39490000D01*
X-240050000Y-39497982D01*
X-239968958Y-39490000D01*
X-239968948Y-39490000D01*
X-239726544Y-39466125D01*
X-239415517Y-39371777D01*
X-239128874Y-39218562D01*
X-238877629Y-39012371D01*
X-238825955Y-38949406D01*
X-238685962Y-38809413D01*
X-238531438Y-38621126D01*
X-238378223Y-38334482D01*
X-238283875Y-38023456D01*
X-238252017Y-37700000D01*
X-238283875Y-37376544D01*
X-238378223Y-37065518D01*
X-238531438Y-36778874D01*
X-238737629Y-36527629D01*
X-238988874Y-36321438D01*
X-239275518Y-36168223D01*
X-239586544Y-36073875D01*
X-239910000Y-36042017D01*
X-240233456Y-36073875D01*
X-240544482Y-36168223D01*
X-240585224Y-36190000D01*
X-243215800Y-36190000D01*
X-243215800Y-32423103D01*
X-243153040Y-32346630D01*
X-243115800Y-32276959D01*
X-243078560Y-32346630D01*
X-242822383Y-32658783D01*
X-242510230Y-32914960D01*
X-242154097Y-33105317D01*
X-241767670Y-33222538D01*
X-241365800Y-33262119D01*
X-240963931Y-33222538D01*
X-240577504Y-33105317D01*
X-240221370Y-32914960D01*
X-239909217Y-32658783D01*
X-239653040Y-32346630D01*
X-239615800Y-32276959D01*
X-239578560Y-32346630D01*
X-239322383Y-32658783D01*
X-239010230Y-32914960D01*
X-238654097Y-33105317D01*
X-238267670Y-33222538D01*
X-237865800Y-33262119D01*
X-237463931Y-33222538D01*
X-237077504Y-33105317D01*
X-236721370Y-32914960D01*
X-236409217Y-32658783D01*
X-236326285Y-32557730D01*
X-236226616Y-32744197D01*
X-236082907Y-32919307D01*
X-235907797Y-33063016D01*
X-235708015Y-33169802D01*
X-235491239Y-33235560D01*
X-235265800Y-33257764D01*
X-234703300Y-33252200D01*
X-234415800Y-32964700D01*
X-234415800Y-30352200D01*
X-234315800Y-30352200D01*
X-234315800Y-32964700D01*
X-234028300Y-33252200D01*
X-233465800Y-33257764D01*
X-233240361Y-33235560D01*
X-233023585Y-33169802D01*
X-232823803Y-33063016D01*
X-232648693Y-32919307D01*
X-232504984Y-32744197D01*
X-232398198Y-32544415D01*
X-232332440Y-32327639D01*
X-232310236Y-32102200D01*
X-232315800Y-30639700D01*
X-232603300Y-30352200D01*
X-234315800Y-30352200D01*
X-234415800Y-30352200D01*
X-234435800Y-30352200D01*
X-234435800Y-30252200D01*
X-234415800Y-30252200D01*
X-234415800Y-27639700D01*
X-234315800Y-27639700D01*
X-234315800Y-30252200D01*
X-232603300Y-30252200D01*
X-232344285Y-29993185D01*
X-232325491Y-30087670D01*
X-232148343Y-30515343D01*
X-231891164Y-30900238D01*
X-231563838Y-31227564D01*
X-231178943Y-31484743D01*
X-230751270Y-31661891D01*
X-230297255Y-31752200D01*
X-229834345Y-31752200D01*
X-229380330Y-31661891D01*
X-228952657Y-31484743D01*
X-228567762Y-31227564D01*
X-228240436Y-30900238D01*
X-227983257Y-30515343D01*
X-227806109Y-30087670D01*
X-227715800Y-29633655D01*
X-227715800Y-29170745D01*
X-227806109Y-28716730D01*
X-227983257Y-28289057D01*
X-228240436Y-27904162D01*
X-228567762Y-27576836D01*
X-228952657Y-27319657D01*
X-229380330Y-27142509D01*
X-229834345Y-27052200D01*
X-230297255Y-27052200D01*
X-230751270Y-27142509D01*
X-231178943Y-27319657D01*
X-231563838Y-27576836D01*
X-231891164Y-27904162D01*
X-232148343Y-28289057D01*
X-232310918Y-28681548D01*
X-232310236Y-28502200D01*
X-232332440Y-28276761D01*
X-232398198Y-28059985D01*
X-232504984Y-27860203D01*
X-232648693Y-27685093D01*
X-232823803Y-27541384D01*
X-233023585Y-27434598D01*
X-233240361Y-27368840D01*
X-233465800Y-27346636D01*
X-234028300Y-27352200D01*
X-234315800Y-27639700D01*
X-234415800Y-27639700D01*
X-234703300Y-27352200D01*
X-235265800Y-27346636D01*
X-235491239Y-27368840D01*
X-235708015Y-27434598D01*
X-235770000Y-27467730D01*
X-235770000Y-24608948D01*
X-235793875Y-24366544D01*
X-235888223Y-24055517D01*
X-236041438Y-23768874D01*
X-236247629Y-23517629D01*
X-236498875Y-23311438D01*
X-236785518Y-23158223D01*
X-237096545Y-23063875D01*
X-237420000Y-23032017D01*
X-237743456Y-23063875D01*
X-238054483Y-23158223D01*
X-238341126Y-23311438D01*
X-238592371Y-23517629D01*
X-238798562Y-23768875D01*
X-238951777Y-24055518D01*
X-239046125Y-24366545D01*
X-239070000Y-24608949D01*
X-239069999Y-27738492D01*
X-239322382Y-27945617D01*
X-239578559Y-28257770D01*
X-239615800Y-28327442D01*
X-239653040Y-28257770D01*
X-239909217Y-27945617D01*
X-240221370Y-27689440D01*
X-240577503Y-27499083D01*
X-240963930Y-27381862D01*
X-241365800Y-27342281D01*
X-241767669Y-27381862D01*
X-242154096Y-27499083D01*
X-242510229Y-27689440D01*
X-242822382Y-27945617D01*
X-243078559Y-28257770D01*
X-243115800Y-28327442D01*
X-243153040Y-28257770D01*
X-243409217Y-27945617D01*
X-243721370Y-27689440D01*
X-244077503Y-27499083D01*
X-244463930Y-27381862D01*
X-244865800Y-27342281D01*
X-245267669Y-27381862D01*
X-245654096Y-27499083D01*
X-246010229Y-27689440D01*
X-246322382Y-27945617D01*
X-246578559Y-28257770D01*
X-246615800Y-28327442D01*
X-246653040Y-28257770D01*
X-246909217Y-27945617D01*
X-247221370Y-27689440D01*
X-247577503Y-27499083D01*
X-247963930Y-27381862D01*
X-248365800Y-27342281D01*
X-248767669Y-27381862D01*
X-249154096Y-27499083D01*
X-249510229Y-27689440D01*
X-249822382Y-27945617D01*
X-250078559Y-28257770D01*
X-250115800Y-28327442D01*
X-250153040Y-28257770D01*
X-250215800Y-28181297D01*
X-250215800Y-15775252D01*
X-250207817Y-15694200D01*
X-250239675Y-15370744D01*
X-250334023Y-15059718D01*
X-250334023Y-15059717D01*
X-250487238Y-14773074D01*
X-250693429Y-14521829D01*
X-250944674Y-14315638D01*
X-251231317Y-14162423D01*
X-251542344Y-14068075D01*
X-251865800Y-14036217D01*
X-252107269Y-14060000D01*
X-305368948Y-14060000D01*
X-305450000Y-14052017D01*
X-305531052Y-14060000D01*
X-305773456Y-14083875D01*
X-306084483Y-14178223D01*
X-306371126Y-14331438D01*
X-306622371Y-14537629D01*
X-306674039Y-14600587D01*
X-348479406Y-56405955D01*
X-348542371Y-56457629D01*
X-348748562Y-56708875D01*
X-348901777Y-56995518D01*
X-348996125Y-57306545D01*
X-349020000Y-57548949D01*
X-349020000Y-57548958D01*
X-349027982Y-57630000D01*
X-352639911Y-57630000D01*
X-352748912Y-51381092D01*
X-310863257Y-9540341D01*
X-185336936Y-10229196D01*
G37*
%TD.AperFunction*%
D23*
X-285540000Y-45318958D02*
X-285547982Y-45400000D01*
X-285540000Y-45481042D01*
X-285540000Y-45481051D01*
X-285516125Y-45723455D01*
X-285421777Y-46034482D01*
X-285268562Y-46321125D01*
X-285062371Y-46572371D01*
X-284999406Y-46624045D01*
X-284824045Y-46799406D01*
X-284772371Y-46862371D01*
X-284521126Y-47068562D01*
X-284234483Y-47221777D01*
X-284141443Y-47250000D01*
X-283923456Y-47316125D01*
X-283600000Y-47347983D01*
X-283518948Y-47340000D01*
X-279802266Y-47340000D01*
X-279856653Y-47438349D01*
X-279975806Y-47811874D01*
X-279986938Y-47867844D01*
X-279731770Y-48180000D01*
X-278070000Y-48180000D01*
X-278070000Y-48160000D01*
X-277970000Y-48160000D01*
X-277970000Y-48180000D01*
X-277950000Y-48180000D01*
X-277950000Y-48280000D01*
X-277970000Y-48280000D01*
X-277970000Y-49941876D01*
X-277657844Y-50196939D01*
X-277281072Y-50088492D01*
X-276932696Y-49908624D01*
X-276626105Y-49664247D01*
X-276500672Y-49515777D01*
X-276507982Y-49590000D01*
X-276500000Y-49671042D01*
X-276500000Y-49671051D01*
X-276476125Y-49913455D01*
X-276381777Y-50224482D01*
X-276228562Y-50511125D01*
X-276022371Y-50762371D01*
X-275959407Y-50814044D01*
X-275304041Y-51469411D01*
X-275252371Y-51532371D01*
X-275001126Y-51738562D01*
X-274714483Y-51891777D01*
X-274403456Y-51986125D01*
X-274161052Y-52010000D01*
X-274161043Y-52010000D01*
X-274080001Y-52017982D01*
X-273998959Y-52010000D01*
X-248058275Y-52010000D01*
X-248046115Y-52133466D01*
X-247951767Y-52444493D01*
X-247798552Y-52731136D01*
X-247592361Y-52982381D01*
X-247341116Y-53188572D01*
X-247054473Y-53341787D01*
X-246743446Y-53436135D01*
X-246501042Y-53460010D01*
X-242113708Y-53460010D01*
X-242222377Y-53622645D01*
X-242373141Y-53986622D01*
X-242450000Y-54373017D01*
X-242450000Y-54766983D01*
X-242373141Y-55153378D01*
X-242246134Y-55460000D01*
X-247848959Y-55460000D01*
X-247930001Y-55452018D01*
X-248011042Y-55460000D01*
X-248011052Y-55460000D01*
X-248253456Y-55483875D01*
X-248564483Y-55578223D01*
X-248851126Y-55731438D01*
X-249102371Y-55937629D01*
X-249154039Y-56000587D01*
X-249359408Y-56205957D01*
X-249422371Y-56257629D01*
X-249628562Y-56508875D01*
X-249781777Y-56795518D01*
X-249876125Y-57106545D01*
X-249900000Y-57348949D01*
X-249900000Y-57348958D01*
X-249907982Y-57430000D01*
X-249900000Y-57511042D01*
X-249900000Y-60226928D01*
X-249918874Y-60211438D01*
X-250205517Y-60058223D01*
X-250516544Y-59963875D01*
X-250758948Y-59940000D01*
X-250840000Y-59932017D01*
X-250921052Y-59940000D01*
X-263166548Y-59940000D01*
X-260360588Y-57134040D01*
X-260297629Y-57082371D01*
X-260091438Y-56831126D01*
X-259938223Y-56544483D01*
X-259843875Y-56233456D01*
X-259812017Y-55910000D01*
X-259843875Y-55586544D01*
X-259938223Y-55275517D01*
X-260091438Y-54988874D01*
X-260297629Y-54737629D01*
X-260548874Y-54531438D01*
X-260835517Y-54378223D01*
X-261146544Y-54283875D01*
X-261388948Y-54260000D01*
X-261388959Y-54260000D01*
X-261470001Y-54252018D01*
X-261551043Y-54260000D01*
X-261551052Y-54260000D01*
X-261793456Y-54283875D01*
X-262104483Y-54378223D01*
X-262391126Y-54531438D01*
X-262642371Y-54737629D01*
X-262694040Y-54800588D01*
X-273363451Y-65470000D01*
X-277401052Y-65470000D01*
X-277643456Y-65493875D01*
X-277954483Y-65588223D01*
X-278241126Y-65741438D01*
X-278492371Y-65947629D01*
X-278698562Y-66198874D01*
X-278851777Y-66485517D01*
X-278946125Y-66796544D01*
X-278977983Y-67120000D01*
X-278946125Y-67443456D01*
X-278851777Y-67754483D01*
X-278698562Y-68041126D01*
X-278492371Y-68292371D01*
X-278241126Y-68498562D01*
X-277954483Y-68651777D01*
X-277643456Y-68746125D01*
X-277401052Y-68770000D01*
X-274163451Y-68770000D01*
X-274843451Y-69450000D01*
X-294101052Y-69450000D01*
X-294343456Y-69473875D01*
X-294654483Y-69568223D01*
X-294941126Y-69721438D01*
X-295192371Y-69927629D01*
X-295398562Y-70178874D01*
X-295551777Y-70465517D01*
X-295646125Y-70776544D01*
X-295677983Y-71100000D01*
X-295646125Y-71423456D01*
X-295551777Y-71734483D01*
X-295398562Y-72021126D01*
X-295192371Y-72272371D01*
X-294941126Y-72478562D01*
X-294654483Y-72631777D01*
X-294343456Y-72726125D01*
X-294101052Y-72750000D01*
X-274241042Y-72750000D01*
X-274160000Y-72757982D01*
X-274078958Y-72750000D01*
X-274078948Y-72750000D01*
X-273836544Y-72726125D01*
X-273525517Y-72631777D01*
X-273238874Y-72478562D01*
X-272987629Y-72272371D01*
X-272935955Y-72209406D01*
X-272439999Y-71713450D01*
X-272440000Y-74516548D01*
X-273173451Y-75250000D01*
X-277136598Y-75250000D01*
X-277311962Y-75074636D01*
X-277696857Y-74817457D01*
X-278124530Y-74640309D01*
X-278578545Y-74550000D01*
X-279041455Y-74550000D01*
X-279495470Y-74640309D01*
X-279923143Y-74817457D01*
X-280308038Y-75074636D01*
X-280635364Y-75401962D01*
X-280892543Y-75786857D01*
X-281069691Y-76214530D01*
X-281160000Y-76668545D01*
X-281160000Y-77131455D01*
X-281069691Y-77585470D01*
X-280892543Y-78013143D01*
X-280635364Y-78398038D01*
X-280308038Y-78725364D01*
X-279923143Y-78982543D01*
X-279495470Y-79159691D01*
X-279041455Y-79250000D01*
X-278578545Y-79250000D01*
X-278124530Y-79159691D01*
X-277696857Y-78982543D01*
X-277311962Y-78725364D01*
X-277136598Y-78550000D01*
X-272571042Y-78550000D01*
X-272490000Y-78557982D01*
X-272408958Y-78550000D01*
X-272408948Y-78550000D01*
X-272166544Y-78526125D01*
X-271855517Y-78431777D01*
X-271568874Y-78278562D01*
X-271317629Y-78072371D01*
X-271265956Y-78009407D01*
X-269680587Y-76424039D01*
X-269617629Y-76372371D01*
X-269411438Y-76121126D01*
X-269258223Y-75834483D01*
X-269163875Y-75523456D01*
X-269140000Y-75281052D01*
X-269140000Y-75281043D01*
X-269132018Y-75200001D01*
X-269140000Y-75118959D01*
X-269140000Y-73356839D01*
X-269043456Y-73386125D01*
X-268801052Y-73410000D01*
X-256871042Y-73410000D01*
X-256790000Y-73417982D01*
X-256708958Y-73410000D01*
X-256708948Y-73410000D01*
X-256466544Y-73386125D01*
X-256155517Y-73291777D01*
X-255868874Y-73138562D01*
X-255617629Y-72932371D01*
X-255565955Y-72869406D01*
X-255520594Y-72824045D01*
X-255457629Y-72772371D01*
X-255251438Y-72521126D01*
X-255098223Y-72234483D01*
X-255003875Y-71923456D01*
X-254980000Y-71681052D01*
X-254980000Y-71681042D01*
X-254972018Y-71600001D01*
X-254980000Y-71518959D01*
X-254980000Y-69433643D01*
X-254973876Y-69413455D01*
X-254942018Y-69089999D01*
X-254973876Y-68766544D01*
X-255000194Y-68679783D01*
X-254969184Y-68641997D01*
X-254862398Y-68442215D01*
X-254796640Y-68225439D01*
X-254774436Y-68000000D01*
X-254774436Y-67700000D01*
X-254784285Y-67600000D01*
X-254774436Y-67500000D01*
X-254774436Y-67200000D01*
X-254780400Y-67139452D01*
X-254780000Y-67137500D01*
X-254780656Y-67136844D01*
X-254796640Y-66974561D01*
X-254834425Y-66850000D01*
X-254796640Y-66725439D01*
X-254780656Y-66563156D01*
X-254780000Y-66562500D01*
X-254780400Y-66560548D01*
X-254774436Y-66500000D01*
X-254774436Y-66200000D01*
X-254784285Y-66100000D01*
X-254774436Y-66000000D01*
X-254774436Y-65700000D01*
X-254796640Y-65474561D01*
X-254862398Y-65257785D01*
X-254969184Y-65058003D01*
X-255112893Y-64882893D01*
X-255288003Y-64739184D01*
X-255330000Y-64716736D01*
X-255330000Y-64566854D01*
X-255251438Y-64471126D01*
X-255098223Y-64184483D01*
X-255003875Y-63873456D01*
X-254972017Y-63550000D01*
X-255002550Y-63240000D01*
X-253205929Y-63240000D01*
X-253422371Y-63417629D01*
X-253628562Y-63668874D01*
X-253781777Y-63955517D01*
X-253876125Y-64266544D01*
X-253907983Y-64590000D01*
X-253876125Y-64913456D01*
X-253848076Y-65005924D01*
X-253890816Y-65058003D01*
X-253997602Y-65257785D01*
X-254063360Y-65474561D01*
X-254085564Y-65700000D01*
X-254085564Y-66000000D01*
X-254075715Y-66100000D01*
X-254085564Y-66200000D01*
X-254085564Y-66500000D01*
X-254075715Y-66600000D01*
X-254085564Y-66700000D01*
X-254085564Y-67000000D01*
X-254075715Y-67100000D01*
X-254085564Y-67200000D01*
X-254085564Y-67500000D01*
X-254075715Y-67600000D01*
X-254085564Y-67700000D01*
X-254085564Y-68000000D01*
X-254063360Y-68225439D01*
X-253997602Y-68442215D01*
X-253890816Y-68641997D01*
X-253861201Y-68678083D01*
X-253880000Y-68868949D01*
X-253879999Y-70868949D01*
X-253887982Y-70950000D01*
X-253856124Y-71273456D01*
X-253761777Y-71584482D01*
X-253608561Y-71871126D01*
X-253402371Y-72122371D01*
X-253251063Y-72246545D01*
X-253151125Y-72328562D01*
X-252864482Y-72481777D01*
X-252741596Y-72519054D01*
X-252771777Y-72575517D01*
X-252866125Y-72886544D01*
X-252897983Y-73210000D01*
X-252890000Y-73291053D01*
X-252889999Y-74786399D01*
X-253001777Y-74995518D01*
X-253096124Y-75306544D01*
X-253127982Y-75630000D01*
X-253096124Y-75953456D01*
X-253001777Y-76264482D01*
X-252848561Y-76551126D01*
X-252642371Y-76802371D01*
X-252391126Y-77008561D01*
X-252104482Y-77161777D01*
X-251793456Y-77256124D01*
X-251470000Y-77287982D01*
X-251146544Y-77256124D01*
X-250835518Y-77161777D01*
X-250548874Y-77008561D01*
X-250360587Y-76854038D01*
X-250130594Y-76624045D01*
X-250067629Y-76572371D01*
X-249861438Y-76321126D01*
X-249708223Y-76034483D01*
X-249613875Y-75723456D01*
X-249590000Y-75481052D01*
X-249590000Y-75481042D01*
X-249582018Y-75400001D01*
X-249590000Y-75318959D01*
X-249590000Y-74860000D01*
X-242450000Y-74860000D01*
X-242450000Y-75086983D01*
X-242373141Y-75473378D01*
X-242222377Y-75837355D01*
X-242003501Y-76164926D01*
X-241994458Y-76173969D01*
X-242096919Y-76295247D01*
X-242286653Y-76638349D01*
X-242405806Y-77011874D01*
X-242416938Y-77067844D01*
X-242161770Y-77380000D01*
X-240500000Y-77380000D01*
X-240500000Y-77360000D01*
X-240400000Y-77360000D01*
X-240400000Y-77380000D01*
X-237960000Y-77380000D01*
X-237960000Y-77360000D01*
X-237860000Y-77360000D01*
X-237860000Y-77380000D01*
X-237840000Y-77380000D01*
X-237840000Y-77480000D01*
X-237860000Y-77480000D01*
X-237860000Y-77500000D01*
X-237960000Y-77500000D01*
X-237960000Y-77480000D01*
X-240400000Y-77480000D01*
X-240400000Y-77500000D01*
X-240500000Y-77500000D01*
X-240500000Y-77480000D01*
X-242161770Y-77480000D01*
X-242416938Y-77792156D01*
X-242405806Y-77848126D01*
X-242286653Y-78221651D01*
X-242096919Y-78564753D01*
X-241994458Y-78686031D01*
X-242003501Y-78695074D01*
X-242222377Y-79022645D01*
X-242373141Y-79386622D01*
X-242450000Y-79773017D01*
X-242450000Y-80166983D01*
X-242373141Y-80553378D01*
X-242222377Y-80917355D01*
X-242006792Y-81240000D01*
X-242222377Y-81562645D01*
X-242373141Y-81926622D01*
X-242450000Y-82313017D01*
X-242450000Y-82706983D01*
X-242373141Y-83093378D01*
X-242222377Y-83457355D01*
X-242006792Y-83780000D01*
X-242222377Y-84102645D01*
X-242373141Y-84466622D01*
X-242450000Y-84853017D01*
X-242450000Y-85246983D01*
X-242373141Y-85633378D01*
X-242222377Y-85997355D01*
X-242006792Y-86320000D01*
X-242222377Y-86642645D01*
X-242373141Y-87006622D01*
X-242450000Y-87393017D01*
X-242450000Y-87786983D01*
X-242373141Y-88173378D01*
X-242222377Y-88537355D01*
X-242003501Y-88864926D01*
X-241724926Y-89143501D01*
X-241397355Y-89362377D01*
X-241033378Y-89513141D01*
X-240646983Y-89590000D01*
X-240253017Y-89590000D01*
X-239866622Y-89513141D01*
X-239560000Y-89386134D01*
X-239559999Y-91080000D01*
X-241536548Y-91080000D01*
X-241594632Y-91021916D01*
X-241613875Y-90826544D01*
X-241708223Y-90515517D01*
X-241861438Y-90228874D01*
X-242067629Y-89977629D01*
X-242318874Y-89771438D01*
X-242605517Y-89618223D01*
X-242916544Y-89523875D01*
X-243158948Y-89500000D01*
X-243158959Y-89500000D01*
X-243240001Y-89492018D01*
X-243321042Y-89500000D01*
X-327466548Y-89500000D01*
X-336622166Y-80344383D01*
X-336625990Y-80331777D01*
X-336658223Y-80225517D01*
X-336785243Y-79987882D01*
X-336811438Y-79938874D01*
X-337017629Y-79687629D01*
X-337080594Y-79635955D01*
X-337290000Y-79426549D01*
X-337290000Y-76288545D01*
X-315000000Y-76288545D01*
X-315000000Y-76751455D01*
X-314909691Y-77205470D01*
X-314732543Y-77633143D01*
X-314475364Y-78018038D01*
X-314148038Y-78345364D01*
X-313763143Y-78602543D01*
X-313335470Y-78779691D01*
X-312881455Y-78870000D01*
X-312418545Y-78870000D01*
X-311964530Y-78779691D01*
X-311536857Y-78602543D01*
X-311151962Y-78345364D01*
X-310824636Y-78018038D01*
X-310567457Y-77633143D01*
X-310390309Y-77205470D01*
X-310300000Y-76751455D01*
X-310300000Y-76288545D01*
X-310345749Y-76058545D01*
X-302040000Y-76058545D01*
X-302040000Y-76521455D01*
X-301949691Y-76975470D01*
X-301772543Y-77403143D01*
X-301515364Y-77788038D01*
X-301188038Y-78115364D01*
X-300803143Y-78372543D01*
X-300375470Y-78549691D01*
X-299921455Y-78640000D01*
X-299458545Y-78640000D01*
X-299004530Y-78549691D01*
X-298576857Y-78372543D01*
X-298191962Y-78115364D01*
X-297864636Y-77788038D01*
X-297607457Y-77403143D01*
X-297430309Y-76975470D01*
X-297340000Y-76521455D01*
X-297340000Y-76368545D01*
X-291140000Y-76368545D01*
X-291140000Y-76831455D01*
X-291049691Y-77285470D01*
X-290872543Y-77713143D01*
X-290615364Y-78098038D01*
X-290288038Y-78425364D01*
X-289903143Y-78682543D01*
X-289475470Y-78859691D01*
X-289021455Y-78950000D01*
X-288558545Y-78950000D01*
X-288104530Y-78859691D01*
X-287676857Y-78682543D01*
X-287291962Y-78425364D01*
X-286964636Y-78098038D01*
X-286707457Y-77713143D01*
X-286530309Y-77285470D01*
X-286440000Y-76831455D01*
X-286440000Y-76368545D01*
X-286530309Y-75914530D01*
X-286707457Y-75486857D01*
X-286964636Y-75101962D01*
X-287291962Y-74774636D01*
X-287676857Y-74517457D01*
X-288104530Y-74340309D01*
X-288558545Y-74250000D01*
X-289021455Y-74250000D01*
X-289475470Y-74340309D01*
X-289903143Y-74517457D01*
X-290288038Y-74774636D01*
X-290615364Y-75101962D01*
X-290872543Y-75486857D01*
X-291049691Y-75914530D01*
X-291140000Y-76368545D01*
X-297340000Y-76368545D01*
X-297340000Y-76058545D01*
X-297430309Y-75604530D01*
X-297607457Y-75176857D01*
X-297864636Y-74791962D01*
X-298040000Y-74616598D01*
X-298040000Y-64060000D01*
X-276511042Y-64060000D01*
X-276430000Y-64067982D01*
X-276348958Y-64060000D01*
X-276348948Y-64060000D01*
X-276106544Y-64036125D01*
X-275795517Y-63941777D01*
X-275508874Y-63788562D01*
X-275257629Y-63582371D01*
X-275205955Y-63519406D01*
X-274500594Y-62814045D01*
X-274437629Y-62762371D01*
X-274231438Y-62511126D01*
X-274078223Y-62224483D01*
X-273983875Y-61913456D01*
X-273952017Y-61590000D01*
X-273983875Y-61266544D01*
X-274078223Y-60955517D01*
X-274231438Y-60668874D01*
X-274437629Y-60417629D01*
X-274688874Y-60211438D01*
X-274975517Y-60058223D01*
X-275286544Y-59963875D01*
X-275528948Y-59940000D01*
X-275528959Y-59940000D01*
X-275610001Y-59932018D01*
X-275691043Y-59940000D01*
X-275691052Y-59940000D01*
X-275933456Y-59963875D01*
X-276244483Y-60058223D01*
X-276531126Y-60211438D01*
X-276782371Y-60417629D01*
X-276834045Y-60480594D01*
X-277113451Y-60760000D01*
X-299385898Y-60760000D01*
X-299670001Y-60732018D01*
X-299993456Y-60763876D01*
X-300304482Y-60858224D01*
X-300591126Y-61011439D01*
X-300779413Y-61165962D01*
X-300799406Y-61185955D01*
X-300862371Y-61237629D01*
X-301068562Y-61488874D01*
X-301221777Y-61775517D01*
X-301316125Y-62086544D01*
X-301347983Y-62410000D01*
X-301339999Y-62491062D01*
X-301340000Y-74616598D01*
X-301515364Y-74791962D01*
X-301772543Y-75176857D01*
X-301949691Y-75604530D01*
X-302040000Y-76058545D01*
X-310345749Y-76058545D01*
X-310390309Y-75834530D01*
X-310567457Y-75406857D01*
X-310824636Y-75021962D01*
X-311151962Y-74694636D01*
X-311536857Y-74437457D01*
X-311964530Y-74260309D01*
X-312418545Y-74170000D01*
X-312881455Y-74170000D01*
X-313335470Y-74260309D01*
X-313763143Y-74437457D01*
X-314148038Y-74694636D01*
X-314475364Y-75021962D01*
X-314732543Y-75406857D01*
X-314909691Y-75834530D01*
X-315000000Y-76288545D01*
X-337290000Y-76288545D01*
X-337290000Y-71836316D01*
X-337128629Y-72077826D01*
X-336870946Y-72335509D01*
X-336567943Y-72537968D01*
X-336231265Y-72677425D01*
X-335873849Y-72748520D01*
X-335509431Y-72748520D01*
X-335152015Y-72677425D01*
X-334815337Y-72537968D01*
X-334512334Y-72335509D01*
X-334254651Y-72077826D01*
X-334052192Y-71774823D01*
X-333912735Y-71438145D01*
X-333841640Y-71080729D01*
X-333841640Y-70716311D01*
X-329921640Y-70716311D01*
X-329921640Y-71080729D01*
X-329850545Y-71438145D01*
X-329711088Y-71774823D01*
X-329508629Y-72077826D01*
X-329250946Y-72335509D01*
X-328947943Y-72537968D01*
X-328611265Y-72677425D01*
X-328253849Y-72748520D01*
X-327889431Y-72748520D01*
X-327532015Y-72677425D01*
X-327195337Y-72537968D01*
X-326892334Y-72335509D01*
X-326634651Y-72077826D01*
X-326432192Y-71774823D01*
X-326292735Y-71438145D01*
X-326221640Y-71080729D01*
X-326221640Y-70716311D01*
X-326292735Y-70358895D01*
X-326432192Y-70022217D01*
X-326634651Y-69719214D01*
X-326892334Y-69461531D01*
X-327195337Y-69259072D01*
X-327532015Y-69119615D01*
X-327889431Y-69048520D01*
X-328253849Y-69048520D01*
X-328611265Y-69119615D01*
X-328947943Y-69259072D01*
X-329250946Y-69461531D01*
X-329508629Y-69719214D01*
X-329711088Y-70022217D01*
X-329850545Y-70358895D01*
X-329921640Y-70716311D01*
X-333841640Y-70716311D01*
X-333912735Y-70358895D01*
X-334052192Y-70022217D01*
X-334254651Y-69719214D01*
X-334512334Y-69461531D01*
X-334815337Y-69259072D01*
X-335152015Y-69119615D01*
X-335509431Y-69048520D01*
X-335873849Y-69048520D01*
X-336231265Y-69119615D01*
X-336567943Y-69259072D01*
X-336870946Y-69461531D01*
X-337128629Y-69719214D01*
X-337290000Y-69960724D01*
X-337290000Y-62023451D01*
X-331235094Y-55968545D01*
X-315000000Y-55968545D01*
X-315000000Y-56431455D01*
X-314909691Y-56885470D01*
X-314732543Y-57313143D01*
X-314475364Y-57698038D01*
X-314148038Y-58025364D01*
X-313763143Y-58282543D01*
X-313335470Y-58459691D01*
X-312881455Y-58550000D01*
X-312418545Y-58550000D01*
X-311964530Y-58459691D01*
X-311536857Y-58282543D01*
X-311151962Y-58025364D01*
X-310824636Y-57698038D01*
X-310567457Y-57313143D01*
X-310390309Y-56885470D01*
X-310300000Y-56431455D01*
X-310300000Y-55968545D01*
X-310345749Y-55738545D01*
X-302040000Y-55738545D01*
X-302040000Y-56201455D01*
X-301949691Y-56655470D01*
X-301772543Y-57083143D01*
X-301515364Y-57468038D01*
X-301188038Y-57795364D01*
X-300803143Y-58052543D01*
X-300375470Y-58229691D01*
X-299921455Y-58320000D01*
X-299458545Y-58320000D01*
X-299004530Y-58229691D01*
X-298576857Y-58052543D01*
X-298191962Y-57795364D01*
X-297864636Y-57468038D01*
X-297607457Y-57083143D01*
X-297430309Y-56655470D01*
X-297340000Y-56201455D01*
X-297340000Y-56048545D01*
X-291140000Y-56048545D01*
X-291140000Y-56511455D01*
X-291049691Y-56965470D01*
X-290872543Y-57393143D01*
X-290615364Y-57778038D01*
X-290288038Y-58105364D01*
X-289903143Y-58362543D01*
X-289475470Y-58539691D01*
X-289021455Y-58630000D01*
X-288558545Y-58630000D01*
X-288104530Y-58539691D01*
X-287676857Y-58362543D01*
X-287291962Y-58105364D01*
X-286964636Y-57778038D01*
X-286707457Y-57393143D01*
X-286530309Y-56965470D01*
X-286440000Y-56511455D01*
X-286440000Y-56348545D01*
X-281160000Y-56348545D01*
X-281160000Y-56811455D01*
X-281069691Y-57265470D01*
X-280892543Y-57693143D01*
X-280635364Y-58078038D01*
X-280308038Y-58405364D01*
X-279923143Y-58662543D01*
X-279495470Y-58839691D01*
X-279041455Y-58930000D01*
X-278578545Y-58930000D01*
X-278124530Y-58839691D01*
X-277696857Y-58662543D01*
X-277311962Y-58405364D01*
X-276984636Y-58078038D01*
X-276727457Y-57693143D01*
X-276550309Y-57265470D01*
X-276460000Y-56811455D01*
X-276460000Y-56348545D01*
X-276550309Y-55894530D01*
X-276727457Y-55466857D01*
X-276984636Y-55081962D01*
X-277311962Y-54754636D01*
X-277696857Y-54497457D01*
X-278124530Y-54320309D01*
X-278578545Y-54230000D01*
X-279041455Y-54230000D01*
X-279495470Y-54320309D01*
X-279923143Y-54497457D01*
X-280308038Y-54754636D01*
X-280635364Y-55081962D01*
X-280892543Y-55466857D01*
X-281069691Y-55894530D01*
X-281160000Y-56348545D01*
X-286440000Y-56348545D01*
X-286440000Y-56048545D01*
X-286530309Y-55594530D01*
X-286707457Y-55166857D01*
X-286964636Y-54781962D01*
X-287291962Y-54454636D01*
X-287676857Y-54197457D01*
X-288104530Y-54020309D01*
X-288558545Y-53930000D01*
X-289021455Y-53930000D01*
X-289475470Y-54020309D01*
X-289903143Y-54197457D01*
X-290288038Y-54454636D01*
X-290615364Y-54781962D01*
X-290872543Y-55166857D01*
X-291049691Y-55594530D01*
X-291140000Y-56048545D01*
X-297340000Y-56048545D01*
X-297340000Y-55738545D01*
X-297430309Y-55284530D01*
X-297607457Y-54856857D01*
X-297864636Y-54471962D01*
X-298191962Y-54144636D01*
X-298576857Y-53887457D01*
X-299004530Y-53710309D01*
X-299458545Y-53620000D01*
X-299921455Y-53620000D01*
X-300375470Y-53710309D01*
X-300803143Y-53887457D01*
X-301188038Y-54144636D01*
X-301515364Y-54471962D01*
X-301772543Y-54856857D01*
X-301949691Y-55284530D01*
X-302040000Y-55738545D01*
X-310345749Y-55738545D01*
X-310390309Y-55514530D01*
X-310567457Y-55086857D01*
X-310824636Y-54701962D01*
X-311151962Y-54374636D01*
X-311536857Y-54117457D01*
X-311964530Y-53940309D01*
X-312418545Y-53850000D01*
X-312881455Y-53850000D01*
X-313335470Y-53940309D01*
X-313763143Y-54117457D01*
X-314148038Y-54374636D01*
X-314475364Y-54701962D01*
X-314732543Y-55086857D01*
X-314909691Y-55514530D01*
X-315000000Y-55968545D01*
X-331235094Y-55968545D01*
X-325669749Y-50403200D01*
X-285473564Y-50403200D01*
X-285473564Y-51603200D01*
X-285451360Y-51828639D01*
X-285385602Y-52045415D01*
X-285278816Y-52245197D01*
X-285135107Y-52420307D01*
X-284959997Y-52564016D01*
X-284760215Y-52670802D01*
X-284543439Y-52736560D01*
X-284318000Y-52758764D01*
X-283118000Y-52758764D01*
X-282892561Y-52736560D01*
X-282712934Y-52682071D01*
X-282579722Y-52724062D01*
X-282237048Y-52761564D01*
X-281893642Y-52731493D01*
X-281562701Y-52635005D01*
X-281256943Y-52475808D01*
X-281225267Y-52454644D01*
X-281213825Y-52078086D01*
X-281962436Y-51329475D01*
X-281962436Y-51188053D01*
X-281143114Y-52007375D01*
X-280766556Y-51995933D01*
X-280600773Y-51693695D01*
X-280497138Y-51364922D01*
X-280459636Y-51022248D01*
X-280489707Y-50678842D01*
X-280586195Y-50347901D01*
X-280745392Y-50042143D01*
X-280766556Y-50010467D01*
X-281143114Y-49999025D01*
X-281962436Y-50818347D01*
X-281962436Y-50676925D01*
X-281213825Y-49928314D01*
X-281225267Y-49551756D01*
X-281527505Y-49385973D01*
X-281856278Y-49282338D01*
X-282198952Y-49244836D01*
X-282542358Y-49274907D01*
X-282712412Y-49324487D01*
X-282892561Y-49269840D01*
X-283118000Y-49247636D01*
X-284318000Y-49247636D01*
X-284543439Y-49269840D01*
X-284760215Y-49335598D01*
X-284959997Y-49442384D01*
X-285135107Y-49586093D01*
X-285278816Y-49761203D01*
X-285385602Y-49960985D01*
X-285451360Y-50177761D01*
X-285473564Y-50403200D01*
X-325669749Y-50403200D01*
X-323858705Y-48592156D01*
X-279986938Y-48592156D01*
X-279975806Y-48648126D01*
X-279856653Y-49021651D01*
X-279666919Y-49364753D01*
X-279413895Y-49664247D01*
X-279107304Y-49908624D01*
X-278758928Y-50088492D01*
X-278382156Y-50196939D01*
X-278070000Y-49941876D01*
X-278070000Y-48280000D01*
X-279731770Y-48280000D01*
X-279986938Y-48592156D01*
X-323858705Y-48592156D01*
X-319884340Y-44617791D01*
X-308020000Y-44617791D01*
X-308020000Y-44982209D01*
X-307948905Y-45339625D01*
X-307809448Y-45676303D01*
X-307606989Y-45979306D01*
X-307349306Y-46236989D01*
X-307046303Y-46439448D01*
X-306709625Y-46578905D01*
X-306352209Y-46650000D01*
X-305987791Y-46650000D01*
X-305630375Y-46578905D01*
X-305293697Y-46439448D01*
X-304990694Y-46236989D01*
X-304733011Y-45979306D01*
X-304530552Y-45676303D01*
X-304391095Y-45339625D01*
X-304320000Y-44982209D01*
X-304320000Y-44617791D01*
X-300400000Y-44617791D01*
X-300400000Y-44982209D01*
X-300328905Y-45339625D01*
X-300189448Y-45676303D01*
X-299986989Y-45979306D01*
X-299729306Y-46236989D01*
X-299426303Y-46439448D01*
X-299089625Y-46578905D01*
X-298732209Y-46650000D01*
X-298367791Y-46650000D01*
X-298010375Y-46578905D01*
X-297673697Y-46439448D01*
X-297370694Y-46236989D01*
X-297113011Y-45979306D01*
X-296910552Y-45676303D01*
X-296771095Y-45339625D01*
X-296700000Y-44982209D01*
X-296700000Y-44617791D01*
X-296771095Y-44260375D01*
X-296910552Y-43923697D01*
X-297113011Y-43620694D01*
X-297370694Y-43363011D01*
X-297673697Y-43160552D01*
X-298010375Y-43021095D01*
X-298367791Y-42950000D01*
X-298732209Y-42950000D01*
X-299089625Y-43021095D01*
X-299426303Y-43160552D01*
X-299729306Y-43363011D01*
X-299986989Y-43620694D01*
X-300189448Y-43923697D01*
X-300328905Y-44260375D01*
X-300400000Y-44617791D01*
X-304320000Y-44617791D01*
X-304391095Y-44260375D01*
X-304530552Y-43923697D01*
X-304733011Y-43620694D01*
X-304990694Y-43363011D01*
X-305293697Y-43160552D01*
X-305630375Y-43021095D01*
X-305987791Y-42950000D01*
X-306352209Y-42950000D01*
X-306709625Y-43021095D01*
X-307046303Y-43160552D01*
X-307349306Y-43363011D01*
X-307606989Y-43620694D01*
X-307809448Y-43923697D01*
X-307948905Y-44260375D01*
X-308020000Y-44617791D01*
X-319884340Y-44617791D01*
X-317746548Y-42480000D01*
X-287388948Y-42480000D01*
X-287146544Y-42456125D01*
X-286835517Y-42361777D01*
X-286548874Y-42208562D01*
X-286297629Y-42002371D01*
X-286091438Y-41751126D01*
X-285938223Y-41464483D01*
X-285843875Y-41153456D01*
X-285812017Y-40830000D01*
X-285843875Y-40506544D01*
X-285938223Y-40195517D01*
X-286091438Y-39908874D01*
X-286295683Y-39660000D01*
X-285539999Y-39660000D01*
X-285540000Y-45318958D01*
%TA.AperFunction,Conductor*%
D28*
G36*
X-285540000Y-45318958D02*
G01*
X-285547982Y-45400000D01*
X-285540000Y-45481042D01*
X-285540000Y-45481051D01*
X-285516125Y-45723455D01*
X-285421777Y-46034482D01*
X-285268562Y-46321125D01*
X-285062371Y-46572371D01*
X-284999406Y-46624045D01*
X-284824045Y-46799406D01*
X-284772371Y-46862371D01*
X-284521126Y-47068562D01*
X-284234483Y-47221777D01*
X-284141443Y-47250000D01*
X-283923456Y-47316125D01*
X-283600000Y-47347983D01*
X-283518948Y-47340000D01*
X-279802266Y-47340000D01*
X-279856653Y-47438349D01*
X-279975806Y-47811874D01*
X-279986938Y-47867844D01*
X-279731770Y-48180000D01*
X-278070000Y-48180000D01*
X-278070000Y-48160000D01*
X-277970000Y-48160000D01*
X-277970000Y-48180000D01*
X-277950000Y-48180000D01*
X-277950000Y-48280000D01*
X-277970000Y-48280000D01*
X-277970000Y-49941876D01*
X-277657844Y-50196939D01*
X-277281072Y-50088492D01*
X-276932696Y-49908624D01*
X-276626105Y-49664247D01*
X-276500672Y-49515777D01*
X-276507982Y-49590000D01*
X-276500000Y-49671042D01*
X-276500000Y-49671051D01*
X-276476125Y-49913455D01*
X-276381777Y-50224482D01*
X-276228562Y-50511125D01*
X-276022371Y-50762371D01*
X-275959407Y-50814044D01*
X-275304041Y-51469411D01*
X-275252371Y-51532371D01*
X-275001126Y-51738562D01*
X-274714483Y-51891777D01*
X-274403456Y-51986125D01*
X-274161052Y-52010000D01*
X-274161043Y-52010000D01*
X-274080001Y-52017982D01*
X-273998959Y-52010000D01*
X-248058275Y-52010000D01*
X-248046115Y-52133466D01*
X-247951767Y-52444493D01*
X-247798552Y-52731136D01*
X-247592361Y-52982381D01*
X-247341116Y-53188572D01*
X-247054473Y-53341787D01*
X-246743446Y-53436135D01*
X-246501042Y-53460010D01*
X-242113708Y-53460010D01*
X-242222377Y-53622645D01*
X-242373141Y-53986622D01*
X-242450000Y-54373017D01*
X-242450000Y-54766983D01*
X-242373141Y-55153378D01*
X-242246134Y-55460000D01*
X-247848959Y-55460000D01*
X-247930001Y-55452018D01*
X-248011042Y-55460000D01*
X-248011052Y-55460000D01*
X-248253456Y-55483875D01*
X-248564483Y-55578223D01*
X-248851126Y-55731438D01*
X-249102371Y-55937629D01*
X-249154039Y-56000587D01*
X-249359408Y-56205957D01*
X-249422371Y-56257629D01*
X-249628562Y-56508875D01*
X-249781777Y-56795518D01*
X-249876125Y-57106545D01*
X-249900000Y-57348949D01*
X-249900000Y-57348958D01*
X-249907982Y-57430000D01*
X-249900000Y-57511042D01*
X-249900000Y-60226928D01*
X-249918874Y-60211438D01*
X-250205517Y-60058223D01*
X-250516544Y-59963875D01*
X-250758948Y-59940000D01*
X-250840000Y-59932017D01*
X-250921052Y-59940000D01*
X-263166548Y-59940000D01*
X-260360588Y-57134040D01*
X-260297629Y-57082371D01*
X-260091438Y-56831126D01*
X-259938223Y-56544483D01*
X-259843875Y-56233456D01*
X-259812017Y-55910000D01*
X-259843875Y-55586544D01*
X-259938223Y-55275517D01*
X-260091438Y-54988874D01*
X-260297629Y-54737629D01*
X-260548874Y-54531438D01*
X-260835517Y-54378223D01*
X-261146544Y-54283875D01*
X-261388948Y-54260000D01*
X-261388959Y-54260000D01*
X-261470001Y-54252018D01*
X-261551043Y-54260000D01*
X-261551052Y-54260000D01*
X-261793456Y-54283875D01*
X-262104483Y-54378223D01*
X-262391126Y-54531438D01*
X-262642371Y-54737629D01*
X-262694040Y-54800588D01*
X-273363451Y-65470000D01*
X-277401052Y-65470000D01*
X-277643456Y-65493875D01*
X-277954483Y-65588223D01*
X-278241126Y-65741438D01*
X-278492371Y-65947629D01*
X-278698562Y-66198874D01*
X-278851777Y-66485517D01*
X-278946125Y-66796544D01*
X-278977983Y-67120000D01*
X-278946125Y-67443456D01*
X-278851777Y-67754483D01*
X-278698562Y-68041126D01*
X-278492371Y-68292371D01*
X-278241126Y-68498562D01*
X-277954483Y-68651777D01*
X-277643456Y-68746125D01*
X-277401052Y-68770000D01*
X-274163451Y-68770000D01*
X-274843451Y-69450000D01*
X-294101052Y-69450000D01*
X-294343456Y-69473875D01*
X-294654483Y-69568223D01*
X-294941126Y-69721438D01*
X-295192371Y-69927629D01*
X-295398562Y-70178874D01*
X-295551777Y-70465517D01*
X-295646125Y-70776544D01*
X-295677983Y-71100000D01*
X-295646125Y-71423456D01*
X-295551777Y-71734483D01*
X-295398562Y-72021126D01*
X-295192371Y-72272371D01*
X-294941126Y-72478562D01*
X-294654483Y-72631777D01*
X-294343456Y-72726125D01*
X-294101052Y-72750000D01*
X-274241042Y-72750000D01*
X-274160000Y-72757982D01*
X-274078958Y-72750000D01*
X-274078948Y-72750000D01*
X-273836544Y-72726125D01*
X-273525517Y-72631777D01*
X-273238874Y-72478562D01*
X-272987629Y-72272371D01*
X-272935955Y-72209406D01*
X-272439999Y-71713450D01*
X-272440000Y-74516548D01*
X-273173451Y-75250000D01*
X-277136598Y-75250000D01*
X-277311962Y-75074636D01*
X-277696857Y-74817457D01*
X-278124530Y-74640309D01*
X-278578545Y-74550000D01*
X-279041455Y-74550000D01*
X-279495470Y-74640309D01*
X-279923143Y-74817457D01*
X-280308038Y-75074636D01*
X-280635364Y-75401962D01*
X-280892543Y-75786857D01*
X-281069691Y-76214530D01*
X-281160000Y-76668545D01*
X-281160000Y-77131455D01*
X-281069691Y-77585470D01*
X-280892543Y-78013143D01*
X-280635364Y-78398038D01*
X-280308038Y-78725364D01*
X-279923143Y-78982543D01*
X-279495470Y-79159691D01*
X-279041455Y-79250000D01*
X-278578545Y-79250000D01*
X-278124530Y-79159691D01*
X-277696857Y-78982543D01*
X-277311962Y-78725364D01*
X-277136598Y-78550000D01*
X-272571042Y-78550000D01*
X-272490000Y-78557982D01*
X-272408958Y-78550000D01*
X-272408948Y-78550000D01*
X-272166544Y-78526125D01*
X-271855517Y-78431777D01*
X-271568874Y-78278562D01*
X-271317629Y-78072371D01*
X-271265956Y-78009407D01*
X-269680587Y-76424039D01*
X-269617629Y-76372371D01*
X-269411438Y-76121126D01*
X-269258223Y-75834483D01*
X-269163875Y-75523456D01*
X-269140000Y-75281052D01*
X-269140000Y-75281043D01*
X-269132018Y-75200001D01*
X-269140000Y-75118959D01*
X-269140000Y-73356839D01*
X-269043456Y-73386125D01*
X-268801052Y-73410000D01*
X-256871042Y-73410000D01*
X-256790000Y-73417982D01*
X-256708958Y-73410000D01*
X-256708948Y-73410000D01*
X-256466544Y-73386125D01*
X-256155517Y-73291777D01*
X-255868874Y-73138562D01*
X-255617629Y-72932371D01*
X-255565955Y-72869406D01*
X-255520594Y-72824045D01*
X-255457629Y-72772371D01*
X-255251438Y-72521126D01*
X-255098223Y-72234483D01*
X-255003875Y-71923456D01*
X-254980000Y-71681052D01*
X-254980000Y-71681042D01*
X-254972018Y-71600001D01*
X-254980000Y-71518959D01*
X-254980000Y-69433643D01*
X-254973876Y-69413455D01*
X-254942018Y-69089999D01*
X-254973876Y-68766544D01*
X-255000194Y-68679783D01*
X-254969184Y-68641997D01*
X-254862398Y-68442215D01*
X-254796640Y-68225439D01*
X-254774436Y-68000000D01*
X-254774436Y-67700000D01*
X-254784285Y-67600000D01*
X-254774436Y-67500000D01*
X-254774436Y-67200000D01*
X-254780400Y-67139452D01*
X-254780000Y-67137500D01*
X-254780656Y-67136844D01*
X-254796640Y-66974561D01*
X-254834425Y-66850000D01*
X-254796640Y-66725439D01*
X-254780656Y-66563156D01*
X-254780000Y-66562500D01*
X-254780400Y-66560548D01*
X-254774436Y-66500000D01*
X-254774436Y-66200000D01*
X-254784285Y-66100000D01*
X-254774436Y-66000000D01*
X-254774436Y-65700000D01*
X-254796640Y-65474561D01*
X-254862398Y-65257785D01*
X-254969184Y-65058003D01*
X-255112893Y-64882893D01*
X-255288003Y-64739184D01*
X-255330000Y-64716736D01*
X-255330000Y-64566854D01*
X-255251438Y-64471126D01*
X-255098223Y-64184483D01*
X-255003875Y-63873456D01*
X-254972017Y-63550000D01*
X-255002550Y-63240000D01*
X-253205929Y-63240000D01*
X-253422371Y-63417629D01*
X-253628562Y-63668874D01*
X-253781777Y-63955517D01*
X-253876125Y-64266544D01*
X-253907983Y-64590000D01*
X-253876125Y-64913456D01*
X-253848076Y-65005924D01*
X-253890816Y-65058003D01*
X-253997602Y-65257785D01*
X-254063360Y-65474561D01*
X-254085564Y-65700000D01*
X-254085564Y-66000000D01*
X-254075715Y-66100000D01*
X-254085564Y-66200000D01*
X-254085564Y-66500000D01*
X-254075715Y-66600000D01*
X-254085564Y-66700000D01*
X-254085564Y-67000000D01*
X-254075715Y-67100000D01*
X-254085564Y-67200000D01*
X-254085564Y-67500000D01*
X-254075715Y-67600000D01*
X-254085564Y-67700000D01*
X-254085564Y-68000000D01*
X-254063360Y-68225439D01*
X-253997602Y-68442215D01*
X-253890816Y-68641997D01*
X-253861201Y-68678083D01*
X-253880000Y-68868949D01*
X-253879999Y-70868949D01*
X-253887982Y-70950000D01*
X-253856124Y-71273456D01*
X-253761777Y-71584482D01*
X-253608561Y-71871126D01*
X-253402371Y-72122371D01*
X-253251063Y-72246545D01*
X-253151125Y-72328562D01*
X-252864482Y-72481777D01*
X-252741596Y-72519054D01*
X-252771777Y-72575517D01*
X-252866125Y-72886544D01*
X-252897983Y-73210000D01*
X-252890000Y-73291053D01*
X-252889999Y-74786399D01*
X-253001777Y-74995518D01*
X-253096124Y-75306544D01*
X-253127982Y-75630000D01*
X-253096124Y-75953456D01*
X-253001777Y-76264482D01*
X-252848561Y-76551126D01*
X-252642371Y-76802371D01*
X-252391126Y-77008561D01*
X-252104482Y-77161777D01*
X-251793456Y-77256124D01*
X-251470000Y-77287982D01*
X-251146544Y-77256124D01*
X-250835518Y-77161777D01*
X-250548874Y-77008561D01*
X-250360587Y-76854038D01*
X-250130594Y-76624045D01*
X-250067629Y-76572371D01*
X-249861438Y-76321126D01*
X-249708223Y-76034483D01*
X-249613875Y-75723456D01*
X-249590000Y-75481052D01*
X-249590000Y-75481042D01*
X-249582018Y-75400001D01*
X-249590000Y-75318959D01*
X-249590000Y-74860000D01*
X-242450000Y-74860000D01*
X-242450000Y-75086983D01*
X-242373141Y-75473378D01*
X-242222377Y-75837355D01*
X-242003501Y-76164926D01*
X-241994458Y-76173969D01*
X-242096919Y-76295247D01*
X-242286653Y-76638349D01*
X-242405806Y-77011874D01*
X-242416938Y-77067844D01*
X-242161770Y-77380000D01*
X-240500000Y-77380000D01*
X-240500000Y-77360000D01*
X-240400000Y-77360000D01*
X-240400000Y-77380000D01*
X-237960000Y-77380000D01*
X-237960000Y-77360000D01*
X-237860000Y-77360000D01*
X-237860000Y-77380000D01*
X-237840000Y-77380000D01*
X-237840000Y-77480000D01*
X-237860000Y-77480000D01*
X-237860000Y-77500000D01*
X-237960000Y-77500000D01*
X-237960000Y-77480000D01*
X-240400000Y-77480000D01*
X-240400000Y-77500000D01*
X-240500000Y-77500000D01*
X-240500000Y-77480000D01*
X-242161770Y-77480000D01*
X-242416938Y-77792156D01*
X-242405806Y-77848126D01*
X-242286653Y-78221651D01*
X-242096919Y-78564753D01*
X-241994458Y-78686031D01*
X-242003501Y-78695074D01*
X-242222377Y-79022645D01*
X-242373141Y-79386622D01*
X-242450000Y-79773017D01*
X-242450000Y-80166983D01*
X-242373141Y-80553378D01*
X-242222377Y-80917355D01*
X-242006792Y-81240000D01*
X-242222377Y-81562645D01*
X-242373141Y-81926622D01*
X-242450000Y-82313017D01*
X-242450000Y-82706983D01*
X-242373141Y-83093378D01*
X-242222377Y-83457355D01*
X-242006792Y-83780000D01*
X-242222377Y-84102645D01*
X-242373141Y-84466622D01*
X-242450000Y-84853017D01*
X-242450000Y-85246983D01*
X-242373141Y-85633378D01*
X-242222377Y-85997355D01*
X-242006792Y-86320000D01*
X-242222377Y-86642645D01*
X-242373141Y-87006622D01*
X-242450000Y-87393017D01*
X-242450000Y-87786983D01*
X-242373141Y-88173378D01*
X-242222377Y-88537355D01*
X-242003501Y-88864926D01*
X-241724926Y-89143501D01*
X-241397355Y-89362377D01*
X-241033378Y-89513141D01*
X-240646983Y-89590000D01*
X-240253017Y-89590000D01*
X-239866622Y-89513141D01*
X-239560000Y-89386134D01*
X-239559999Y-91080000D01*
X-241536548Y-91080000D01*
X-241594632Y-91021916D01*
X-241613875Y-90826544D01*
X-241708223Y-90515517D01*
X-241861438Y-90228874D01*
X-242067629Y-89977629D01*
X-242318874Y-89771438D01*
X-242605517Y-89618223D01*
X-242916544Y-89523875D01*
X-243158948Y-89500000D01*
X-243158959Y-89500000D01*
X-243240001Y-89492018D01*
X-243321042Y-89500000D01*
X-327466548Y-89500000D01*
X-336622166Y-80344383D01*
X-336625990Y-80331777D01*
X-336658223Y-80225517D01*
X-336785243Y-79987882D01*
X-336811438Y-79938874D01*
X-337017629Y-79687629D01*
X-337080594Y-79635955D01*
X-337290000Y-79426549D01*
X-337290000Y-76288545D01*
X-315000000Y-76288545D01*
X-315000000Y-76751455D01*
X-314909691Y-77205470D01*
X-314732543Y-77633143D01*
X-314475364Y-78018038D01*
X-314148038Y-78345364D01*
X-313763143Y-78602543D01*
X-313335470Y-78779691D01*
X-312881455Y-78870000D01*
X-312418545Y-78870000D01*
X-311964530Y-78779691D01*
X-311536857Y-78602543D01*
X-311151962Y-78345364D01*
X-310824636Y-78018038D01*
X-310567457Y-77633143D01*
X-310390309Y-77205470D01*
X-310300000Y-76751455D01*
X-310300000Y-76288545D01*
X-310345749Y-76058545D01*
X-302040000Y-76058545D01*
X-302040000Y-76521455D01*
X-301949691Y-76975470D01*
X-301772543Y-77403143D01*
X-301515364Y-77788038D01*
X-301188038Y-78115364D01*
X-300803143Y-78372543D01*
X-300375470Y-78549691D01*
X-299921455Y-78640000D01*
X-299458545Y-78640000D01*
X-299004530Y-78549691D01*
X-298576857Y-78372543D01*
X-298191962Y-78115364D01*
X-297864636Y-77788038D01*
X-297607457Y-77403143D01*
X-297430309Y-76975470D01*
X-297340000Y-76521455D01*
X-297340000Y-76368545D01*
X-291140000Y-76368545D01*
X-291140000Y-76831455D01*
X-291049691Y-77285470D01*
X-290872543Y-77713143D01*
X-290615364Y-78098038D01*
X-290288038Y-78425364D01*
X-289903143Y-78682543D01*
X-289475470Y-78859691D01*
X-289021455Y-78950000D01*
X-288558545Y-78950000D01*
X-288104530Y-78859691D01*
X-287676857Y-78682543D01*
X-287291962Y-78425364D01*
X-286964636Y-78098038D01*
X-286707457Y-77713143D01*
X-286530309Y-77285470D01*
X-286440000Y-76831455D01*
X-286440000Y-76368545D01*
X-286530309Y-75914530D01*
X-286707457Y-75486857D01*
X-286964636Y-75101962D01*
X-287291962Y-74774636D01*
X-287676857Y-74517457D01*
X-288104530Y-74340309D01*
X-288558545Y-74250000D01*
X-289021455Y-74250000D01*
X-289475470Y-74340309D01*
X-289903143Y-74517457D01*
X-290288038Y-74774636D01*
X-290615364Y-75101962D01*
X-290872543Y-75486857D01*
X-291049691Y-75914530D01*
X-291140000Y-76368545D01*
X-297340000Y-76368545D01*
X-297340000Y-76058545D01*
X-297430309Y-75604530D01*
X-297607457Y-75176857D01*
X-297864636Y-74791962D01*
X-298040000Y-74616598D01*
X-298040000Y-64060000D01*
X-276511042Y-64060000D01*
X-276430000Y-64067982D01*
X-276348958Y-64060000D01*
X-276348948Y-64060000D01*
X-276106544Y-64036125D01*
X-275795517Y-63941777D01*
X-275508874Y-63788562D01*
X-275257629Y-63582371D01*
X-275205955Y-63519406D01*
X-274500594Y-62814045D01*
X-274437629Y-62762371D01*
X-274231438Y-62511126D01*
X-274078223Y-62224483D01*
X-273983875Y-61913456D01*
X-273952017Y-61590000D01*
X-273983875Y-61266544D01*
X-274078223Y-60955517D01*
X-274231438Y-60668874D01*
X-274437629Y-60417629D01*
X-274688874Y-60211438D01*
X-274975517Y-60058223D01*
X-275286544Y-59963875D01*
X-275528948Y-59940000D01*
X-275528959Y-59940000D01*
X-275610001Y-59932018D01*
X-275691043Y-59940000D01*
X-275691052Y-59940000D01*
X-275933456Y-59963875D01*
X-276244483Y-60058223D01*
X-276531126Y-60211438D01*
X-276782371Y-60417629D01*
X-276834045Y-60480594D01*
X-277113451Y-60760000D01*
X-299385898Y-60760000D01*
X-299670001Y-60732018D01*
X-299993456Y-60763876D01*
X-300304482Y-60858224D01*
X-300591126Y-61011439D01*
X-300779413Y-61165962D01*
X-300799406Y-61185955D01*
X-300862371Y-61237629D01*
X-301068562Y-61488874D01*
X-301221777Y-61775517D01*
X-301316125Y-62086544D01*
X-301347983Y-62410000D01*
X-301339999Y-62491062D01*
X-301340000Y-74616598D01*
X-301515364Y-74791962D01*
X-301772543Y-75176857D01*
X-301949691Y-75604530D01*
X-302040000Y-76058545D01*
X-310345749Y-76058545D01*
X-310390309Y-75834530D01*
X-310567457Y-75406857D01*
X-310824636Y-75021962D01*
X-311151962Y-74694636D01*
X-311536857Y-74437457D01*
X-311964530Y-74260309D01*
X-312418545Y-74170000D01*
X-312881455Y-74170000D01*
X-313335470Y-74260309D01*
X-313763143Y-74437457D01*
X-314148038Y-74694636D01*
X-314475364Y-75021962D01*
X-314732543Y-75406857D01*
X-314909691Y-75834530D01*
X-315000000Y-76288545D01*
X-337290000Y-76288545D01*
X-337290000Y-71836316D01*
X-337128629Y-72077826D01*
X-336870946Y-72335509D01*
X-336567943Y-72537968D01*
X-336231265Y-72677425D01*
X-335873849Y-72748520D01*
X-335509431Y-72748520D01*
X-335152015Y-72677425D01*
X-334815337Y-72537968D01*
X-334512334Y-72335509D01*
X-334254651Y-72077826D01*
X-334052192Y-71774823D01*
X-333912735Y-71438145D01*
X-333841640Y-71080729D01*
X-333841640Y-70716311D01*
X-329921640Y-70716311D01*
X-329921640Y-71080729D01*
X-329850545Y-71438145D01*
X-329711088Y-71774823D01*
X-329508629Y-72077826D01*
X-329250946Y-72335509D01*
X-328947943Y-72537968D01*
X-328611265Y-72677425D01*
X-328253849Y-72748520D01*
X-327889431Y-72748520D01*
X-327532015Y-72677425D01*
X-327195337Y-72537968D01*
X-326892334Y-72335509D01*
X-326634651Y-72077826D01*
X-326432192Y-71774823D01*
X-326292735Y-71438145D01*
X-326221640Y-71080729D01*
X-326221640Y-70716311D01*
X-326292735Y-70358895D01*
X-326432192Y-70022217D01*
X-326634651Y-69719214D01*
X-326892334Y-69461531D01*
X-327195337Y-69259072D01*
X-327532015Y-69119615D01*
X-327889431Y-69048520D01*
X-328253849Y-69048520D01*
X-328611265Y-69119615D01*
X-328947943Y-69259072D01*
X-329250946Y-69461531D01*
X-329508629Y-69719214D01*
X-329711088Y-70022217D01*
X-329850545Y-70358895D01*
X-329921640Y-70716311D01*
X-333841640Y-70716311D01*
X-333912735Y-70358895D01*
X-334052192Y-70022217D01*
X-334254651Y-69719214D01*
X-334512334Y-69461531D01*
X-334815337Y-69259072D01*
X-335152015Y-69119615D01*
X-335509431Y-69048520D01*
X-335873849Y-69048520D01*
X-336231265Y-69119615D01*
X-336567943Y-69259072D01*
X-336870946Y-69461531D01*
X-337128629Y-69719214D01*
X-337290000Y-69960724D01*
X-337290000Y-62023451D01*
X-331235094Y-55968545D01*
X-315000000Y-55968545D01*
X-315000000Y-56431455D01*
X-314909691Y-56885470D01*
X-314732543Y-57313143D01*
X-314475364Y-57698038D01*
X-314148038Y-58025364D01*
X-313763143Y-58282543D01*
X-313335470Y-58459691D01*
X-312881455Y-58550000D01*
X-312418545Y-58550000D01*
X-311964530Y-58459691D01*
X-311536857Y-58282543D01*
X-311151962Y-58025364D01*
X-310824636Y-57698038D01*
X-310567457Y-57313143D01*
X-310390309Y-56885470D01*
X-310300000Y-56431455D01*
X-310300000Y-55968545D01*
X-310345749Y-55738545D01*
X-302040000Y-55738545D01*
X-302040000Y-56201455D01*
X-301949691Y-56655470D01*
X-301772543Y-57083143D01*
X-301515364Y-57468038D01*
X-301188038Y-57795364D01*
X-300803143Y-58052543D01*
X-300375470Y-58229691D01*
X-299921455Y-58320000D01*
X-299458545Y-58320000D01*
X-299004530Y-58229691D01*
X-298576857Y-58052543D01*
X-298191962Y-57795364D01*
X-297864636Y-57468038D01*
X-297607457Y-57083143D01*
X-297430309Y-56655470D01*
X-297340000Y-56201455D01*
X-297340000Y-56048545D01*
X-291140000Y-56048545D01*
X-291140000Y-56511455D01*
X-291049691Y-56965470D01*
X-290872543Y-57393143D01*
X-290615364Y-57778038D01*
X-290288038Y-58105364D01*
X-289903143Y-58362543D01*
X-289475470Y-58539691D01*
X-289021455Y-58630000D01*
X-288558545Y-58630000D01*
X-288104530Y-58539691D01*
X-287676857Y-58362543D01*
X-287291962Y-58105364D01*
X-286964636Y-57778038D01*
X-286707457Y-57393143D01*
X-286530309Y-56965470D01*
X-286440000Y-56511455D01*
X-286440000Y-56348545D01*
X-281160000Y-56348545D01*
X-281160000Y-56811455D01*
X-281069691Y-57265470D01*
X-280892543Y-57693143D01*
X-280635364Y-58078038D01*
X-280308038Y-58405364D01*
X-279923143Y-58662543D01*
X-279495470Y-58839691D01*
X-279041455Y-58930000D01*
X-278578545Y-58930000D01*
X-278124530Y-58839691D01*
X-277696857Y-58662543D01*
X-277311962Y-58405364D01*
X-276984636Y-58078038D01*
X-276727457Y-57693143D01*
X-276550309Y-57265470D01*
X-276460000Y-56811455D01*
X-276460000Y-56348545D01*
X-276550309Y-55894530D01*
X-276727457Y-55466857D01*
X-276984636Y-55081962D01*
X-277311962Y-54754636D01*
X-277696857Y-54497457D01*
X-278124530Y-54320309D01*
X-278578545Y-54230000D01*
X-279041455Y-54230000D01*
X-279495470Y-54320309D01*
X-279923143Y-54497457D01*
X-280308038Y-54754636D01*
X-280635364Y-55081962D01*
X-280892543Y-55466857D01*
X-281069691Y-55894530D01*
X-281160000Y-56348545D01*
X-286440000Y-56348545D01*
X-286440000Y-56048545D01*
X-286530309Y-55594530D01*
X-286707457Y-55166857D01*
X-286964636Y-54781962D01*
X-287291962Y-54454636D01*
X-287676857Y-54197457D01*
X-288104530Y-54020309D01*
X-288558545Y-53930000D01*
X-289021455Y-53930000D01*
X-289475470Y-54020309D01*
X-289903143Y-54197457D01*
X-290288038Y-54454636D01*
X-290615364Y-54781962D01*
X-290872543Y-55166857D01*
X-291049691Y-55594530D01*
X-291140000Y-56048545D01*
X-297340000Y-56048545D01*
X-297340000Y-55738545D01*
X-297430309Y-55284530D01*
X-297607457Y-54856857D01*
X-297864636Y-54471962D01*
X-298191962Y-54144636D01*
X-298576857Y-53887457D01*
X-299004530Y-53710309D01*
X-299458545Y-53620000D01*
X-299921455Y-53620000D01*
X-300375470Y-53710309D01*
X-300803143Y-53887457D01*
X-301188038Y-54144636D01*
X-301515364Y-54471962D01*
X-301772543Y-54856857D01*
X-301949691Y-55284530D01*
X-302040000Y-55738545D01*
X-310345749Y-55738545D01*
X-310390309Y-55514530D01*
X-310567457Y-55086857D01*
X-310824636Y-54701962D01*
X-311151962Y-54374636D01*
X-311536857Y-54117457D01*
X-311964530Y-53940309D01*
X-312418545Y-53850000D01*
X-312881455Y-53850000D01*
X-313335470Y-53940309D01*
X-313763143Y-54117457D01*
X-314148038Y-54374636D01*
X-314475364Y-54701962D01*
X-314732543Y-55086857D01*
X-314909691Y-55514530D01*
X-315000000Y-55968545D01*
X-331235094Y-55968545D01*
X-325669749Y-50403200D01*
X-285473564Y-50403200D01*
X-285473564Y-51603200D01*
X-285451360Y-51828639D01*
X-285385602Y-52045415D01*
X-285278816Y-52245197D01*
X-285135107Y-52420307D01*
X-284959997Y-52564016D01*
X-284760215Y-52670802D01*
X-284543439Y-52736560D01*
X-284318000Y-52758764D01*
X-283118000Y-52758764D01*
X-282892561Y-52736560D01*
X-282712934Y-52682071D01*
X-282579722Y-52724062D01*
X-282237048Y-52761564D01*
X-281893642Y-52731493D01*
X-281562701Y-52635005D01*
X-281256943Y-52475808D01*
X-281225267Y-52454644D01*
X-281213825Y-52078086D01*
X-281962436Y-51329475D01*
X-281962436Y-51188053D01*
X-281143114Y-52007375D01*
X-280766556Y-51995933D01*
X-280600773Y-51693695D01*
X-280497138Y-51364922D01*
X-280459636Y-51022248D01*
X-280489707Y-50678842D01*
X-280586195Y-50347901D01*
X-280745392Y-50042143D01*
X-280766556Y-50010467D01*
X-281143114Y-49999025D01*
X-281962436Y-50818347D01*
X-281962436Y-50676925D01*
X-281213825Y-49928314D01*
X-281225267Y-49551756D01*
X-281527505Y-49385973D01*
X-281856278Y-49282338D01*
X-282198952Y-49244836D01*
X-282542358Y-49274907D01*
X-282712412Y-49324487D01*
X-282892561Y-49269840D01*
X-283118000Y-49247636D01*
X-284318000Y-49247636D01*
X-284543439Y-49269840D01*
X-284760215Y-49335598D01*
X-284959997Y-49442384D01*
X-285135107Y-49586093D01*
X-285278816Y-49761203D01*
X-285385602Y-49960985D01*
X-285451360Y-50177761D01*
X-285473564Y-50403200D01*
X-325669749Y-50403200D01*
X-323858705Y-48592156D01*
X-279986938Y-48592156D01*
X-279975806Y-48648126D01*
X-279856653Y-49021651D01*
X-279666919Y-49364753D01*
X-279413895Y-49664247D01*
X-279107304Y-49908624D01*
X-278758928Y-50088492D01*
X-278382156Y-50196939D01*
X-278070000Y-49941876D01*
X-278070000Y-48280000D01*
X-279731770Y-48280000D01*
X-279986938Y-48592156D01*
X-323858705Y-48592156D01*
X-319884340Y-44617791D01*
X-308020000Y-44617791D01*
X-308020000Y-44982209D01*
X-307948905Y-45339625D01*
X-307809448Y-45676303D01*
X-307606989Y-45979306D01*
X-307349306Y-46236989D01*
X-307046303Y-46439448D01*
X-306709625Y-46578905D01*
X-306352209Y-46650000D01*
X-305987791Y-46650000D01*
X-305630375Y-46578905D01*
X-305293697Y-46439448D01*
X-304990694Y-46236989D01*
X-304733011Y-45979306D01*
X-304530552Y-45676303D01*
X-304391095Y-45339625D01*
X-304320000Y-44982209D01*
X-304320000Y-44617791D01*
X-300400000Y-44617791D01*
X-300400000Y-44982209D01*
X-300328905Y-45339625D01*
X-300189448Y-45676303D01*
X-299986989Y-45979306D01*
X-299729306Y-46236989D01*
X-299426303Y-46439448D01*
X-299089625Y-46578905D01*
X-298732209Y-46650000D01*
X-298367791Y-46650000D01*
X-298010375Y-46578905D01*
X-297673697Y-46439448D01*
X-297370694Y-46236989D01*
X-297113011Y-45979306D01*
X-296910552Y-45676303D01*
X-296771095Y-45339625D01*
X-296700000Y-44982209D01*
X-296700000Y-44617791D01*
X-296771095Y-44260375D01*
X-296910552Y-43923697D01*
X-297113011Y-43620694D01*
X-297370694Y-43363011D01*
X-297673697Y-43160552D01*
X-298010375Y-43021095D01*
X-298367791Y-42950000D01*
X-298732209Y-42950000D01*
X-299089625Y-43021095D01*
X-299426303Y-43160552D01*
X-299729306Y-43363011D01*
X-299986989Y-43620694D01*
X-300189448Y-43923697D01*
X-300328905Y-44260375D01*
X-300400000Y-44617791D01*
X-304320000Y-44617791D01*
X-304391095Y-44260375D01*
X-304530552Y-43923697D01*
X-304733011Y-43620694D01*
X-304990694Y-43363011D01*
X-305293697Y-43160552D01*
X-305630375Y-43021095D01*
X-305987791Y-42950000D01*
X-306352209Y-42950000D01*
X-306709625Y-43021095D01*
X-307046303Y-43160552D01*
X-307349306Y-43363011D01*
X-307606989Y-43620694D01*
X-307809448Y-43923697D01*
X-307948905Y-44260375D01*
X-308020000Y-44617791D01*
X-319884340Y-44617791D01*
X-317746548Y-42480000D01*
X-287388948Y-42480000D01*
X-287146544Y-42456125D01*
X-286835517Y-42361777D01*
X-286548874Y-42208562D01*
X-286297629Y-42002371D01*
X-286091438Y-41751126D01*
X-285938223Y-41464483D01*
X-285843875Y-41153456D01*
X-285812017Y-40830000D01*
X-285843875Y-40506544D01*
X-285938223Y-40195517D01*
X-286091438Y-39908874D01*
X-286295683Y-39660000D01*
X-285539999Y-39660000D01*
X-285540000Y-45318958D01*
G37*
%TD.AperFunction*%
D23*
X-210455747Y-29602258D02*
X-210469889Y-29616400D01*
X-210455747Y-29630542D01*
X-210526458Y-29701253D01*
X-210540600Y-29687111D01*
X-210554742Y-29701253D01*
X-210625453Y-29630542D01*
X-210611311Y-29616400D01*
X-210625453Y-29602258D01*
X-210554742Y-29531547D01*
X-210540600Y-29545689D01*
X-210526458Y-29531547D01*
X-210455747Y-29602258D01*
%TA.AperFunction,Conductor*%
D28*
G36*
X-210455747Y-29602258D02*
G01*
X-210469889Y-29616400D01*
X-210455747Y-29630542D01*
X-210526458Y-29701253D01*
X-210540600Y-29687111D01*
X-210554742Y-29701253D01*
X-210625453Y-29630542D01*
X-210611311Y-29616400D01*
X-210625453Y-29602258D01*
X-210554742Y-29531547D01*
X-210540600Y-29545689D01*
X-210526458Y-29531547D01*
X-210455747Y-29602258D01*
G37*
%TD.AperFunction*%
%TD*%
M02*
