%TF.GenerationSoftware,KiCad,Pcbnew,(5.1.9-0-10_14)*%
%TF.CreationDate,2021-02-25T13:28:52+00:00*%
%TF.ProjectId,base8x,62617365-3878-42e6-9b69-6361645f7063,rev?*%
%TF.SameCoordinates,Original*%
%TF.FileFunction,Legend,Top*%
%TF.FilePolarity,Positive*%
%FSLAX46Y46*%
G04 Gerber Fmt 4.6, Leading zero omitted, Abs format (unit mm)*
G04 Created by KiCad (PCBNEW (5.1.9-0-10_14)) date 2021-02-25 13:28:52*
%MOMM*%
%LPD*%
G01*
G04 APERTURE LIST*
%ADD10C,0.120000*%
%ADD11C,0.150000*%
G04 APERTURE END LIST*
D10*
%TO.C,Raspberry_header1*%
X-221690000Y-52340000D02*
X-219090000Y-52340000D01*
X-221690000Y-52340000D02*
X-221690000Y-103260000D01*
X-221690000Y-103260000D02*
X-216490000Y-103260000D01*
X-216490000Y-54940000D02*
X-216490000Y-103260000D01*
X-219090000Y-54940000D02*
X-216490000Y-54940000D01*
X-219090000Y-52340000D02*
X-219090000Y-54940000D01*
X-216490000Y-52340000D02*
X-216490000Y-53670000D01*
X-217820000Y-52340000D02*
X-216490000Y-52340000D01*
%TO.C,D2*%
X-329011640Y-70898520D02*
X-329961640Y-70898520D01*
X-334751640Y-70898520D02*
X-333801640Y-70898520D01*
X-329961640Y-69978520D02*
X-333801640Y-69978520D01*
X-329961640Y-71818520D02*
X-329961640Y-69978520D01*
X-333801640Y-71818520D02*
X-329961640Y-71818520D01*
X-333801640Y-69978520D02*
X-333801640Y-71818520D01*
%TO.C,D1*%
X-299490000Y-44800000D02*
X-300440000Y-44800000D01*
X-305230000Y-44800000D02*
X-304280000Y-44800000D01*
X-300440000Y-43880000D02*
X-304280000Y-43880000D01*
X-300440000Y-45720000D02*
X-300440000Y-43880000D01*
X-304280000Y-45720000D02*
X-300440000Y-45720000D01*
X-304280000Y-43880000D02*
X-304280000Y-45720000D01*
%TO.C,Resistor1*%
X-283990000Y-30810000D02*
X-284840000Y-30810000D01*
X-301430000Y-30810000D02*
X-300580000Y-30810000D01*
X-284840000Y-28190000D02*
X-300580000Y-28190000D01*
X-284840000Y-33430000D02*
X-284840000Y-28190000D01*
X-300580000Y-33430000D02*
X-284840000Y-33430000D01*
X-300580000Y-28190000D02*
X-300580000Y-33430000D01*
%TO.C,R5*%
X-250461600Y-44780200D02*
X-251311600Y-44780200D01*
X-267901600Y-44780200D02*
X-267051600Y-44780200D01*
X-251311600Y-42160200D02*
X-267051600Y-42160200D01*
X-251311600Y-47400200D02*
X-251311600Y-42160200D01*
X-267051600Y-47400200D02*
X-251311600Y-47400200D01*
X-267051600Y-42160200D02*
X-267051600Y-47400200D01*
%TO.C,R4*%
X-299690000Y-57410000D02*
X-299690000Y-58260000D01*
X-299690000Y-74850000D02*
X-299690000Y-74000000D01*
X-302310000Y-58260000D02*
X-302310000Y-74000000D01*
X-297070000Y-58260000D02*
X-302310000Y-58260000D01*
X-297070000Y-74000000D02*
X-297070000Y-58260000D01*
X-302310000Y-74000000D02*
X-297070000Y-74000000D01*
%TO.C,R3*%
X-278810000Y-58020000D02*
X-278810000Y-58870000D01*
X-278810000Y-75460000D02*
X-278810000Y-74610000D01*
X-281430000Y-58870000D02*
X-281430000Y-74610000D01*
X-276190000Y-58870000D02*
X-281430000Y-58870000D01*
X-276190000Y-74610000D02*
X-276190000Y-58870000D01*
X-281430000Y-74610000D02*
X-276190000Y-74610000D01*
%TO.C,R2*%
X-312650000Y-57640000D02*
X-312650000Y-58490000D01*
X-312650000Y-75080000D02*
X-312650000Y-74230000D01*
X-315270000Y-58490000D02*
X-315270000Y-74230000D01*
X-310030000Y-58490000D02*
X-315270000Y-58490000D01*
X-310030000Y-74230000D02*
X-310030000Y-58490000D01*
X-315270000Y-74230000D02*
X-310030000Y-74230000D01*
%TO.C,R1*%
X-288790000Y-57720000D02*
X-288790000Y-58570000D01*
X-288790000Y-75160000D02*
X-288790000Y-74310000D01*
X-291410000Y-58570000D02*
X-291410000Y-74310000D01*
X-286170000Y-58570000D02*
X-291410000Y-58570000D01*
X-286170000Y-74310000D02*
X-286170000Y-58570000D01*
X-291410000Y-74310000D02*
X-286170000Y-74310000D01*
%TO.C,TP5*%
X-268170000Y-80890000D02*
X-268170000Y-77990000D01*
X-265270000Y-80890000D02*
X-268170000Y-80890000D01*
X-265270000Y-77990000D02*
X-265270000Y-80890000D01*
X-268170000Y-77990000D02*
X-265270000Y-77990000D01*
%TO.C,TP4*%
X-331386000Y-80380000D02*
X-331386000Y-77480000D01*
X-328486000Y-80380000D02*
X-331386000Y-80380000D01*
X-328486000Y-77480000D02*
X-328486000Y-80380000D01*
X-331386000Y-77480000D02*
X-328486000Y-77480000D01*
%TO.C,TP3*%
X-253770000Y-60090000D02*
X-253770000Y-57190000D01*
X-250870000Y-60090000D02*
X-253770000Y-60090000D01*
X-250870000Y-57190000D02*
X-250870000Y-60090000D01*
X-253770000Y-57190000D02*
X-250870000Y-57190000D01*
%TO.C,TP2*%
X-260140000Y-60430000D02*
X-260140000Y-57530000D01*
X-257240000Y-60430000D02*
X-260140000Y-60430000D01*
X-257240000Y-57530000D02*
X-257240000Y-60430000D01*
X-260140000Y-57530000D02*
X-257240000Y-57530000D01*
%TO.C,J1*%
X-215120600Y-34506400D02*
X-215620600Y-33506400D01*
X-216120600Y-34506400D02*
X-215120600Y-34506400D01*
X-215620600Y-33506400D02*
X-216120600Y-34506400D01*
X-200250600Y-27886400D02*
X-220830600Y-27886400D01*
X-200250600Y-18766400D02*
X-200250600Y-27886400D01*
X-220830600Y-18766400D02*
X-200250600Y-18766400D01*
X-220830600Y-27886400D02*
X-220830600Y-18766400D01*
X-208490600Y-27886400D02*
X-208490600Y-18766400D01*
X-212590600Y-27886400D02*
X-212590600Y-18766400D01*
%TO.C,J2*%
X-266004500Y-72367900D02*
X-263204500Y-72367900D01*
X-262554500Y-73067900D02*
X-262554500Y-73667900D01*
X-263204500Y-74367900D02*
X-266004500Y-74367900D01*
X-266654500Y-73667900D02*
X-266654500Y-73067900D01*
X-263254500Y-72367900D02*
G75*
G02*
X-262554500Y-73067900I0J-700000D01*
G01*
X-262554500Y-73667900D02*
G75*
G02*
X-263254500Y-74367900I-700000J0D01*
G01*
X-265954500Y-74367900D02*
G75*
G02*
X-266654500Y-73667900I0J700000D01*
G01*
X-266654500Y-73067900D02*
G75*
G02*
X-265954500Y-72367900I700000J0D01*
G01*
%TO.C,J3*%
X-237910000Y-53240000D02*
X-236580000Y-53240000D01*
X-236580000Y-53240000D02*
X-236580000Y-54570000D01*
X-239180000Y-53240000D02*
X-239180000Y-55840000D01*
X-239180000Y-55840000D02*
X-236580000Y-55840000D01*
X-236580000Y-55840000D02*
X-236580000Y-88920000D01*
X-241780000Y-88920000D02*
X-236580000Y-88920000D01*
X-241780000Y-53240000D02*
X-241780000Y-88920000D01*
X-241780000Y-53240000D02*
X-239180000Y-53240000D01*
%TO.C,J4*%
X-270020000Y-55520000D02*
X-269420000Y-55520000D01*
X-270720000Y-58970000D02*
X-270720000Y-56170000D01*
X-269420000Y-59620000D02*
X-270020000Y-59620000D01*
X-268720000Y-56170000D02*
X-268720000Y-58970000D01*
X-269420000Y-55520000D02*
G75*
G02*
X-268720000Y-56220000I0J-700000D01*
G01*
X-270720000Y-56220000D02*
G75*
G02*
X-270020000Y-55520000I700000J0D01*
G01*
X-270020000Y-59620000D02*
G75*
G02*
X-270720000Y-58920000I0J700000D01*
G01*
X-268720000Y-58920000D02*
G75*
G02*
X-269420000Y-59620000I-700000J0D01*
G01*
%TO.C,J9*%
X-234065800Y-32902200D02*
X-234665800Y-32902200D01*
X-234365800Y-32302200D02*
X-234065800Y-32902200D01*
X-234665800Y-32902200D02*
X-234365800Y-32302200D01*
X-261075800Y-31612200D02*
X-261075800Y-22192200D01*
X-232155800Y-31612200D02*
X-232155800Y-22192200D01*
X-232155800Y-25502200D02*
X-261075800Y-25502200D01*
X-256415800Y-31612200D02*
X-257815800Y-31612200D01*
X-252915800Y-31612200D02*
X-254315800Y-31612200D01*
X-249415800Y-31612200D02*
X-250815800Y-31612200D01*
X-245915800Y-31612200D02*
X-247315800Y-31612200D01*
X-242415800Y-31612200D02*
X-243815800Y-31612200D01*
X-238915800Y-31612200D02*
X-240315800Y-31612200D01*
X-235415800Y-31612200D02*
X-236815800Y-31612200D01*
X-265875800Y-31612200D02*
X-259915800Y-31612200D01*
X-227355800Y-31612200D02*
X-233315800Y-31612200D01*
X-265875800Y-22192200D02*
X-265875800Y-31612200D01*
X-227355800Y-22192200D02*
X-265875800Y-22192200D01*
X-227355800Y-31612200D02*
X-227355800Y-22192200D01*
%TO.C,JP2*%
X-314770000Y-43590000D02*
X-313370000Y-43590000D01*
X-312670000Y-44290000D02*
X-312670000Y-44890000D01*
X-313370000Y-45590000D02*
X-314770000Y-45590000D01*
X-315470000Y-44890000D02*
X-315470000Y-44290000D01*
X-313370000Y-43590000D02*
G75*
G02*
X-312670000Y-44290000I0J-700000D01*
G01*
X-312670000Y-44890000D02*
G75*
G02*
X-313370000Y-45590000I-700000J0D01*
G01*
X-314770000Y-45590000D02*
G75*
G02*
X-315470000Y-44890000I0J700000D01*
G01*
X-315470000Y-44290000D02*
G75*
G02*
X-314770000Y-43590000I700000J0D01*
G01*
%TO.C,JP3*%
X-292440000Y-45050000D02*
X-292440000Y-44450000D01*
X-290340000Y-45750000D02*
X-291740000Y-45750000D01*
X-289640000Y-44450000D02*
X-289640000Y-45050000D01*
X-291740000Y-43750000D02*
X-290340000Y-43750000D01*
X-292440000Y-44450000D02*
G75*
G02*
X-291740000Y-43750000I700000J0D01*
G01*
X-291740000Y-45750000D02*
G75*
G02*
X-292440000Y-45050000I0J700000D01*
G01*
X-289640000Y-45050000D02*
G75*
G02*
X-290340000Y-45750000I-700000J0D01*
G01*
X-290340000Y-43750000D02*
G75*
G02*
X-289640000Y-44450000I0J-700000D01*
G01*
%TO.C,JP4*%
X-334974600Y-76137500D02*
X-334974600Y-74737500D01*
X-334274600Y-74037500D02*
X-333674600Y-74037500D01*
X-332974600Y-74737500D02*
X-332974600Y-76137500D01*
X-333674600Y-76837500D02*
X-334274600Y-76837500D01*
X-334974600Y-74737500D02*
G75*
G02*
X-334274600Y-74037500I700000J0D01*
G01*
X-333674600Y-74037500D02*
G75*
G02*
X-332974600Y-74737500I0J-700000D01*
G01*
X-332974600Y-76137500D02*
G75*
G02*
X-333674600Y-76837500I-700000J0D01*
G01*
X-334274600Y-76837500D02*
G75*
G02*
X-334974600Y-76137500I0J700000D01*
G01*
%TO.C,JP5*%
X-328200000Y-55370000D02*
X-326800000Y-55370000D01*
X-326100000Y-56070000D02*
X-326100000Y-56670000D01*
X-326800000Y-57370000D02*
X-328200000Y-57370000D01*
X-328900000Y-56670000D02*
X-328900000Y-56070000D01*
X-326800000Y-55370000D02*
G75*
G02*
X-326100000Y-56070000I0J-700000D01*
G01*
X-326100000Y-56670000D02*
G75*
G02*
X-326800000Y-57370000I-700000J0D01*
G01*
X-328200000Y-57370000D02*
G75*
G02*
X-328900000Y-56670000I0J700000D01*
G01*
X-328900000Y-56070000D02*
G75*
G02*
X-328200000Y-55370000I700000J0D01*
G01*
%TO.C,JP6*%
X-222882000Y-27386000D02*
X-222882000Y-27986000D01*
X-224982000Y-26686000D02*
X-223582000Y-26686000D01*
X-225682000Y-27986000D02*
X-225682000Y-27386000D01*
X-223582000Y-28686000D02*
X-224982000Y-28686000D01*
X-222882000Y-27986000D02*
G75*
G02*
X-223582000Y-28686000I-700000J0D01*
G01*
X-223582000Y-26686000D02*
G75*
G02*
X-222882000Y-27386000I0J-700000D01*
G01*
X-225682000Y-27386000D02*
G75*
G02*
X-224982000Y-26686000I700000J0D01*
G01*
X-224982000Y-28686000D02*
G75*
G02*
X-225682000Y-27986000I0J700000D01*
G01*
%TO.C,P3*%
X-263830000Y-40450000D02*
X-261170000Y-40450000D01*
X-263830000Y-37850000D02*
X-263830000Y-40450000D01*
X-261170000Y-37850000D02*
X-261170000Y-40450000D01*
X-263830000Y-37850000D02*
X-261170000Y-37850000D01*
X-263830000Y-36580000D02*
X-263830000Y-35250000D01*
X-263830000Y-35250000D02*
X-262500000Y-35250000D01*
%TO.C,P4*%
X-248630000Y-39170000D02*
X-248630000Y-37840000D01*
X-247300000Y-39170000D02*
X-248630000Y-39170000D01*
X-246030000Y-39170000D02*
X-246030000Y-36510000D01*
X-246030000Y-36510000D02*
X-243430000Y-36510000D01*
X-246030000Y-39170000D02*
X-243430000Y-39170000D01*
X-243430000Y-39170000D02*
X-243430000Y-36510000D01*
%TO.C,Temp_sensor1*%
X-278020000Y-41820000D02*
X-276690000Y-41820000D01*
X-276690000Y-41820000D02*
X-276690000Y-43150000D01*
X-276690000Y-44420000D02*
X-276690000Y-49560000D01*
X-279350000Y-49560000D02*
X-276690000Y-49560000D01*
X-279350000Y-44420000D02*
X-279350000Y-49560000D01*
X-279350000Y-44420000D02*
X-276690000Y-44420000D01*
%TO.C,TP1*%
X-265230000Y-104030000D02*
X-262330000Y-104030000D01*
X-262330000Y-104030000D02*
X-262330000Y-106930000D01*
X-262330000Y-106930000D02*
X-265230000Y-106930000D01*
X-265230000Y-106930000D02*
X-265230000Y-104030000D01*
%TO.C,TP6*%
X-241260000Y-43530000D02*
X-241260000Y-40630000D01*
X-238360000Y-43530000D02*
X-241260000Y-43530000D01*
X-238360000Y-40630000D02*
X-238360000Y-43530000D01*
X-241260000Y-40630000D02*
X-238360000Y-40630000D01*
%TO.C,C1*%
X-280848000Y-51003200D02*
G75*
G03*
X-280848000Y-51003200I-2120000J0D01*
G01*
X-282968000Y-51843200D02*
X-282968000Y-53083200D01*
X-282968000Y-48923200D02*
X-282968000Y-50163200D01*
X-282928000Y-51843200D02*
X-282928000Y-53083200D01*
X-282928000Y-48923200D02*
X-282928000Y-50163200D01*
X-282888000Y-51843200D02*
X-282888000Y-53082200D01*
X-282888000Y-48924200D02*
X-282888000Y-50163200D01*
X-282848000Y-48926200D02*
X-282848000Y-50163200D01*
X-282848000Y-51843200D02*
X-282848000Y-53080200D01*
X-282808000Y-48929200D02*
X-282808000Y-50163200D01*
X-282808000Y-51843200D02*
X-282808000Y-53077200D01*
X-282768000Y-48932200D02*
X-282768000Y-50163200D01*
X-282768000Y-51843200D02*
X-282768000Y-53074200D01*
X-282728000Y-48936200D02*
X-282728000Y-50163200D01*
X-282728000Y-51843200D02*
X-282728000Y-53070200D01*
X-282688000Y-48941200D02*
X-282688000Y-50163200D01*
X-282688000Y-51843200D02*
X-282688000Y-53065200D01*
X-282648000Y-48947200D02*
X-282648000Y-50163200D01*
X-282648000Y-51843200D02*
X-282648000Y-53059200D01*
X-282608000Y-48953200D02*
X-282608000Y-50163200D01*
X-282608000Y-51843200D02*
X-282608000Y-53053200D01*
X-282568000Y-48961200D02*
X-282568000Y-50163200D01*
X-282568000Y-51843200D02*
X-282568000Y-53045200D01*
X-282528000Y-48969200D02*
X-282528000Y-50163200D01*
X-282528000Y-51843200D02*
X-282528000Y-53037200D01*
X-282488000Y-48978200D02*
X-282488000Y-50163200D01*
X-282488000Y-51843200D02*
X-282488000Y-53028200D01*
X-282448000Y-48987200D02*
X-282448000Y-50163200D01*
X-282448000Y-51843200D02*
X-282448000Y-53019200D01*
X-282408000Y-48998200D02*
X-282408000Y-50163200D01*
X-282408000Y-51843200D02*
X-282408000Y-53008200D01*
X-282368000Y-49009200D02*
X-282368000Y-50163200D01*
X-282368000Y-51843200D02*
X-282368000Y-52997200D01*
X-282328000Y-49021200D02*
X-282328000Y-50163200D01*
X-282328000Y-51843200D02*
X-282328000Y-52985200D01*
X-282288000Y-49035200D02*
X-282288000Y-50163200D01*
X-282288000Y-51843200D02*
X-282288000Y-52971200D01*
X-282247000Y-49049200D02*
X-282247000Y-50163200D01*
X-282247000Y-51843200D02*
X-282247000Y-52957200D01*
X-282207000Y-49063200D02*
X-282207000Y-50163200D01*
X-282207000Y-51843200D02*
X-282207000Y-52943200D01*
X-282167000Y-49079200D02*
X-282167000Y-50163200D01*
X-282167000Y-51843200D02*
X-282167000Y-52927200D01*
X-282127000Y-49096200D02*
X-282127000Y-50163200D01*
X-282127000Y-51843200D02*
X-282127000Y-52910200D01*
X-282087000Y-49114200D02*
X-282087000Y-50163200D01*
X-282087000Y-51843200D02*
X-282087000Y-52892200D01*
X-282047000Y-49133200D02*
X-282047000Y-50163200D01*
X-282047000Y-51843200D02*
X-282047000Y-52873200D01*
X-282007000Y-49152200D02*
X-282007000Y-50163200D01*
X-282007000Y-51843200D02*
X-282007000Y-52854200D01*
X-281967000Y-49173200D02*
X-281967000Y-50163200D01*
X-281967000Y-51843200D02*
X-281967000Y-52833200D01*
X-281927000Y-49195200D02*
X-281927000Y-50163200D01*
X-281927000Y-51843200D02*
X-281927000Y-52811200D01*
X-281887000Y-49218200D02*
X-281887000Y-50163200D01*
X-281887000Y-51843200D02*
X-281887000Y-52788200D01*
X-281847000Y-49243200D02*
X-281847000Y-50163200D01*
X-281847000Y-51843200D02*
X-281847000Y-52763200D01*
X-281807000Y-49268200D02*
X-281807000Y-50163200D01*
X-281807000Y-51843200D02*
X-281807000Y-52738200D01*
X-281767000Y-49295200D02*
X-281767000Y-50163200D01*
X-281767000Y-51843200D02*
X-281767000Y-52711200D01*
X-281727000Y-49323200D02*
X-281727000Y-50163200D01*
X-281727000Y-51843200D02*
X-281727000Y-52683200D01*
X-281687000Y-49353200D02*
X-281687000Y-50163200D01*
X-281687000Y-51843200D02*
X-281687000Y-52653200D01*
X-281647000Y-49384200D02*
X-281647000Y-50163200D01*
X-281647000Y-51843200D02*
X-281647000Y-52622200D01*
X-281607000Y-49416200D02*
X-281607000Y-50163200D01*
X-281607000Y-51843200D02*
X-281607000Y-52590200D01*
X-281567000Y-49451200D02*
X-281567000Y-50163200D01*
X-281567000Y-51843200D02*
X-281567000Y-52555200D01*
X-281527000Y-49487200D02*
X-281527000Y-50163200D01*
X-281527000Y-51843200D02*
X-281527000Y-52519200D01*
X-281487000Y-49525200D02*
X-281487000Y-50163200D01*
X-281487000Y-51843200D02*
X-281487000Y-52481200D01*
X-281447000Y-49565200D02*
X-281447000Y-50163200D01*
X-281447000Y-51843200D02*
X-281447000Y-52441200D01*
X-281407000Y-49607200D02*
X-281407000Y-50163200D01*
X-281407000Y-51843200D02*
X-281407000Y-52399200D01*
X-281367000Y-49652200D02*
X-281367000Y-52354200D01*
X-281327000Y-49699200D02*
X-281327000Y-52307200D01*
X-281287000Y-49749200D02*
X-281287000Y-52257200D01*
X-281247000Y-49803200D02*
X-281247000Y-52203200D01*
X-281207000Y-49861200D02*
X-281207000Y-52145200D01*
X-281167000Y-49923200D02*
X-281167000Y-52083200D01*
X-281127000Y-49990200D02*
X-281127000Y-52016200D01*
X-281087000Y-50063200D02*
X-281087000Y-51943200D01*
X-281047000Y-50144200D02*
X-281047000Y-51862200D01*
X-281007000Y-50235200D02*
X-281007000Y-51771200D01*
X-280967000Y-50339200D02*
X-280967000Y-51667200D01*
X-280927000Y-50466200D02*
X-280927000Y-51540200D01*
X-280887000Y-50633200D02*
X-280887000Y-51373200D01*
X-285237801Y-49808200D02*
X-284837801Y-49808200D01*
X-285037801Y-49608200D02*
X-285037801Y-50008200D01*
%TO.C,J5*%
X-197600000Y-89080000D02*
X-198930000Y-89080000D01*
X-197600000Y-87750000D02*
X-197600000Y-89080000D01*
X-197600000Y-86480000D02*
X-200260000Y-86480000D01*
X-200260000Y-86480000D02*
X-200260000Y-83880000D01*
X-197600000Y-86480000D02*
X-197600000Y-83880000D01*
X-197600000Y-83880000D02*
X-200260000Y-83880000D01*
%TO.C,REF\u002A\u002A*%
D11*
X-166333333Y-96252380D02*
X-166666666Y-95776190D01*
X-166904761Y-96252380D02*
X-166904761Y-95252380D01*
X-166523809Y-95252380D01*
X-166428571Y-95300000D01*
X-166380952Y-95347619D01*
X-166333333Y-95442857D01*
X-166333333Y-95585714D01*
X-166380952Y-95680952D01*
X-166428571Y-95728571D01*
X-166523809Y-95776190D01*
X-166904761Y-95776190D01*
X-165904761Y-95728571D02*
X-165571428Y-95728571D01*
X-165428571Y-96252380D02*
X-165904761Y-96252380D01*
X-165904761Y-95252380D01*
X-165428571Y-95252380D01*
X-164666666Y-95728571D02*
X-165000000Y-95728571D01*
X-165000000Y-96252380D02*
X-165000000Y-95252380D01*
X-164523809Y-95252380D01*
X-164000000Y-95252380D02*
X-164000000Y-95490476D01*
X-164238095Y-95395238D02*
X-164000000Y-95490476D01*
X-163761904Y-95395238D01*
X-164142857Y-95680952D02*
X-164000000Y-95490476D01*
X-163857142Y-95680952D01*
X-163238095Y-95252380D02*
X-163238095Y-95490476D01*
X-163476190Y-95395238D02*
X-163238095Y-95490476D01*
X-163000000Y-95395238D01*
X-163380952Y-95680952D02*
X-163238095Y-95490476D01*
X-163095238Y-95680952D01*
X-166333333Y-46252380D02*
X-166666666Y-45776190D01*
X-166904761Y-46252380D02*
X-166904761Y-45252380D01*
X-166523809Y-45252380D01*
X-166428571Y-45300000D01*
X-166380952Y-45347619D01*
X-166333333Y-45442857D01*
X-166333333Y-45585714D01*
X-166380952Y-45680952D01*
X-166428571Y-45728571D01*
X-166523809Y-45776190D01*
X-166904761Y-45776190D01*
X-165904761Y-45728571D02*
X-165571428Y-45728571D01*
X-165428571Y-46252380D02*
X-165904761Y-46252380D01*
X-165904761Y-45252380D01*
X-165428571Y-45252380D01*
X-164666666Y-45728571D02*
X-165000000Y-45728571D01*
X-165000000Y-46252380D02*
X-165000000Y-45252380D01*
X-164523809Y-45252380D01*
X-164000000Y-45252380D02*
X-164000000Y-45490476D01*
X-164238095Y-45395238D02*
X-164000000Y-45490476D01*
X-163761904Y-45395238D01*
X-164142857Y-45680952D02*
X-164000000Y-45490476D01*
X-163857142Y-45680952D01*
X-163238095Y-45252380D02*
X-163238095Y-45490476D01*
X-163476190Y-45395238D02*
X-163238095Y-45490476D01*
X-163000000Y-45395238D01*
X-163380952Y-45680952D02*
X-163238095Y-45490476D01*
X-163095238Y-45680952D01*
X-206333333Y-46252380D02*
X-206666666Y-45776190D01*
X-206904761Y-46252380D02*
X-206904761Y-45252380D01*
X-206523809Y-45252380D01*
X-206428571Y-45300000D01*
X-206380952Y-45347619D01*
X-206333333Y-45442857D01*
X-206333333Y-45585714D01*
X-206380952Y-45680952D01*
X-206428571Y-45728571D01*
X-206523809Y-45776190D01*
X-206904761Y-45776190D01*
X-205904761Y-45728571D02*
X-205571428Y-45728571D01*
X-205428571Y-46252380D02*
X-205904761Y-46252380D01*
X-205904761Y-45252380D01*
X-205428571Y-45252380D01*
X-204666666Y-45728571D02*
X-205000000Y-45728571D01*
X-205000000Y-46252380D02*
X-205000000Y-45252380D01*
X-204523809Y-45252380D01*
X-204000000Y-45252380D02*
X-204000000Y-45490476D01*
X-204238095Y-45395238D02*
X-204000000Y-45490476D01*
X-203761904Y-45395238D01*
X-204142857Y-45680952D02*
X-204000000Y-45490476D01*
X-203857142Y-45680952D01*
X-203238095Y-45252380D02*
X-203238095Y-45490476D01*
X-203476190Y-45395238D02*
X-203238095Y-45490476D01*
X-203000000Y-45395238D01*
X-203380952Y-45680952D02*
X-203238095Y-45490476D01*
X-203095238Y-45680952D01*
X-206333333Y-96252380D02*
X-206666666Y-95776190D01*
X-206904761Y-96252380D02*
X-206904761Y-95252380D01*
X-206523809Y-95252380D01*
X-206428571Y-95300000D01*
X-206380952Y-95347619D01*
X-206333333Y-95442857D01*
X-206333333Y-95585714D01*
X-206380952Y-95680952D01*
X-206428571Y-95728571D01*
X-206523809Y-95776190D01*
X-206904761Y-95776190D01*
X-205904761Y-95728571D02*
X-205571428Y-95728571D01*
X-205428571Y-96252380D02*
X-205904761Y-96252380D01*
X-205904761Y-95252380D01*
X-205428571Y-95252380D01*
X-204666666Y-95728571D02*
X-205000000Y-95728571D01*
X-205000000Y-96252380D02*
X-205000000Y-95252380D01*
X-204523809Y-95252380D01*
X-204000000Y-95252380D02*
X-204000000Y-95490476D01*
X-204238095Y-95395238D02*
X-204000000Y-95490476D01*
X-203761904Y-95395238D01*
X-204142857Y-95680952D02*
X-204000000Y-95490476D01*
X-203857142Y-95680952D01*
X-203238095Y-95252380D02*
X-203238095Y-95490476D01*
X-203476190Y-95395238D02*
X-203238095Y-95490476D01*
X-203000000Y-95395238D01*
X-203380952Y-95680952D02*
X-203238095Y-95490476D01*
X-203095238Y-95680952D01*
%TO.C,Raspberry_header1*%
X-225351904Y-51352380D02*
X-225685238Y-50876190D01*
X-225923333Y-51352380D02*
X-225923333Y-50352380D01*
X-225542380Y-50352380D01*
X-225447142Y-50400000D01*
X-225399523Y-50447619D01*
X-225351904Y-50542857D01*
X-225351904Y-50685714D01*
X-225399523Y-50780952D01*
X-225447142Y-50828571D01*
X-225542380Y-50876190D01*
X-225923333Y-50876190D01*
X-224494761Y-51352380D02*
X-224494761Y-50828571D01*
X-224542380Y-50733333D01*
X-224637619Y-50685714D01*
X-224828095Y-50685714D01*
X-224923333Y-50733333D01*
X-224494761Y-51304761D02*
X-224590000Y-51352380D01*
X-224828095Y-51352380D01*
X-224923333Y-51304761D01*
X-224970952Y-51209523D01*
X-224970952Y-51114285D01*
X-224923333Y-51019047D01*
X-224828095Y-50971428D01*
X-224590000Y-50971428D01*
X-224494761Y-50923809D01*
X-224066190Y-51304761D02*
X-223970952Y-51352380D01*
X-223780476Y-51352380D01*
X-223685238Y-51304761D01*
X-223637619Y-51209523D01*
X-223637619Y-51161904D01*
X-223685238Y-51066666D01*
X-223780476Y-51019047D01*
X-223923333Y-51019047D01*
X-224018571Y-50971428D01*
X-224066190Y-50876190D01*
X-224066190Y-50828571D01*
X-224018571Y-50733333D01*
X-223923333Y-50685714D01*
X-223780476Y-50685714D01*
X-223685238Y-50733333D01*
X-223209047Y-50685714D02*
X-223209047Y-51685714D01*
X-223209047Y-50733333D02*
X-223113809Y-50685714D01*
X-222923333Y-50685714D01*
X-222828095Y-50733333D01*
X-222780476Y-50780952D01*
X-222732857Y-50876190D01*
X-222732857Y-51161904D01*
X-222780476Y-51257142D01*
X-222828095Y-51304761D01*
X-222923333Y-51352380D01*
X-223113809Y-51352380D01*
X-223209047Y-51304761D01*
X-222304285Y-51352380D02*
X-222304285Y-50352380D01*
X-222304285Y-50733333D02*
X-222209047Y-50685714D01*
X-222018571Y-50685714D01*
X-221923333Y-50733333D01*
X-221875714Y-50780952D01*
X-221828095Y-50876190D01*
X-221828095Y-51161904D01*
X-221875714Y-51257142D01*
X-221923333Y-51304761D01*
X-222018571Y-51352380D01*
X-222209047Y-51352380D01*
X-222304285Y-51304761D01*
X-221018571Y-51304761D02*
X-221113809Y-51352380D01*
X-221304285Y-51352380D01*
X-221399523Y-51304761D01*
X-221447142Y-51209523D01*
X-221447142Y-50828571D01*
X-221399523Y-50733333D01*
X-221304285Y-50685714D01*
X-221113809Y-50685714D01*
X-221018571Y-50733333D01*
X-220970952Y-50828571D01*
X-220970952Y-50923809D01*
X-221447142Y-51019047D01*
X-220542380Y-51352380D02*
X-220542380Y-50685714D01*
X-220542380Y-50876190D02*
X-220494761Y-50780952D01*
X-220447142Y-50733333D01*
X-220351904Y-50685714D01*
X-220256666Y-50685714D01*
X-219923333Y-51352380D02*
X-219923333Y-50685714D01*
X-219923333Y-50876190D02*
X-219875714Y-50780952D01*
X-219828095Y-50733333D01*
X-219732857Y-50685714D01*
X-219637619Y-50685714D01*
X-219399523Y-50685714D02*
X-219161428Y-51352380D01*
X-218923333Y-50685714D02*
X-219161428Y-51352380D01*
X-219256666Y-51590476D01*
X-219304285Y-51638095D01*
X-219399523Y-51685714D01*
X-218780476Y-51447619D02*
X-218018571Y-51447619D01*
X-217780476Y-51352380D02*
X-217780476Y-50352380D01*
X-217351904Y-51352380D02*
X-217351904Y-50828571D01*
X-217399523Y-50733333D01*
X-217494761Y-50685714D01*
X-217637619Y-50685714D01*
X-217732857Y-50733333D01*
X-217780476Y-50780952D01*
X-216494761Y-51304761D02*
X-216590000Y-51352380D01*
X-216780476Y-51352380D01*
X-216875714Y-51304761D01*
X-216923333Y-51209523D01*
X-216923333Y-50828571D01*
X-216875714Y-50733333D01*
X-216780476Y-50685714D01*
X-216590000Y-50685714D01*
X-216494761Y-50733333D01*
X-216447142Y-50828571D01*
X-216447142Y-50923809D01*
X-216923333Y-51019047D01*
X-215590000Y-51352380D02*
X-215590000Y-50828571D01*
X-215637619Y-50733333D01*
X-215732857Y-50685714D01*
X-215923333Y-50685714D01*
X-216018571Y-50733333D01*
X-215590000Y-51304761D02*
X-215685238Y-51352380D01*
X-215923333Y-51352380D01*
X-216018571Y-51304761D01*
X-216066190Y-51209523D01*
X-216066190Y-51114285D01*
X-216018571Y-51019047D01*
X-215923333Y-50971428D01*
X-215685238Y-50971428D01*
X-215590000Y-50923809D01*
X-214685238Y-51352380D02*
X-214685238Y-50352380D01*
X-214685238Y-51304761D02*
X-214780476Y-51352380D01*
X-214970952Y-51352380D01*
X-215066190Y-51304761D01*
X-215113809Y-51257142D01*
X-215161428Y-51161904D01*
X-215161428Y-50876190D01*
X-215113809Y-50780952D01*
X-215066190Y-50733333D01*
X-214970952Y-50685714D01*
X-214780476Y-50685714D01*
X-214685238Y-50733333D01*
X-213828095Y-51304761D02*
X-213923333Y-51352380D01*
X-214113809Y-51352380D01*
X-214209047Y-51304761D01*
X-214256666Y-51209523D01*
X-214256666Y-50828571D01*
X-214209047Y-50733333D01*
X-214113809Y-50685714D01*
X-213923333Y-50685714D01*
X-213828095Y-50733333D01*
X-213780476Y-50828571D01*
X-213780476Y-50923809D01*
X-214256666Y-51019047D01*
X-213351904Y-51352380D02*
X-213351904Y-50685714D01*
X-213351904Y-50876190D02*
X-213304285Y-50780952D01*
X-213256666Y-50733333D01*
X-213161428Y-50685714D01*
X-213066190Y-50685714D01*
X-212209047Y-51352380D02*
X-212780476Y-51352380D01*
X-212494761Y-51352380D02*
X-212494761Y-50352380D01*
X-212590000Y-50495238D01*
X-212685238Y-50590476D01*
X-212780476Y-50638095D01*
%TO.C,D2*%
X-332619735Y-69430900D02*
X-332619735Y-68430900D01*
X-332381640Y-68430900D01*
X-332238782Y-68478520D01*
X-332143544Y-68573758D01*
X-332095925Y-68668996D01*
X-332048306Y-68859472D01*
X-332048306Y-69002329D01*
X-332095925Y-69192805D01*
X-332143544Y-69288043D01*
X-332238782Y-69383281D01*
X-332381640Y-69430900D01*
X-332619735Y-69430900D01*
X-331667354Y-68526139D02*
X-331619735Y-68478520D01*
X-331524497Y-68430900D01*
X-331286401Y-68430900D01*
X-331191163Y-68478520D01*
X-331143544Y-68526139D01*
X-331095925Y-68621377D01*
X-331095925Y-68716615D01*
X-331143544Y-68859472D01*
X-331714973Y-69430900D01*
X-331095925Y-69430900D01*
%TO.C,D1*%
X-303098095Y-43332380D02*
X-303098095Y-42332380D01*
X-302860000Y-42332380D01*
X-302717142Y-42380000D01*
X-302621904Y-42475238D01*
X-302574285Y-42570476D01*
X-302526666Y-42760952D01*
X-302526666Y-42903809D01*
X-302574285Y-43094285D01*
X-302621904Y-43189523D01*
X-302717142Y-43284761D01*
X-302860000Y-43332380D01*
X-303098095Y-43332380D01*
X-301574285Y-43332380D02*
X-302145714Y-43332380D01*
X-301860000Y-43332380D02*
X-301860000Y-42332380D01*
X-301955238Y-42475238D01*
X-302050476Y-42570476D01*
X-302145714Y-42618095D01*
%TO.C,Resistor1*%
X-295400476Y-27642380D02*
X-295733809Y-27166190D01*
X-295971904Y-27642380D02*
X-295971904Y-26642380D01*
X-295590952Y-26642380D01*
X-295495714Y-26690000D01*
X-295448095Y-26737619D01*
X-295400476Y-26832857D01*
X-295400476Y-26975714D01*
X-295448095Y-27070952D01*
X-295495714Y-27118571D01*
X-295590952Y-27166190D01*
X-295971904Y-27166190D01*
X-294590952Y-27594761D02*
X-294686190Y-27642380D01*
X-294876666Y-27642380D01*
X-294971904Y-27594761D01*
X-295019523Y-27499523D01*
X-295019523Y-27118571D01*
X-294971904Y-27023333D01*
X-294876666Y-26975714D01*
X-294686190Y-26975714D01*
X-294590952Y-27023333D01*
X-294543333Y-27118571D01*
X-294543333Y-27213809D01*
X-295019523Y-27309047D01*
X-294162380Y-27594761D02*
X-294067142Y-27642380D01*
X-293876666Y-27642380D01*
X-293781428Y-27594761D01*
X-293733809Y-27499523D01*
X-293733809Y-27451904D01*
X-293781428Y-27356666D01*
X-293876666Y-27309047D01*
X-294019523Y-27309047D01*
X-294114761Y-27261428D01*
X-294162380Y-27166190D01*
X-294162380Y-27118571D01*
X-294114761Y-27023333D01*
X-294019523Y-26975714D01*
X-293876666Y-26975714D01*
X-293781428Y-27023333D01*
X-293305238Y-27642380D02*
X-293305238Y-26975714D01*
X-293305238Y-26642380D02*
X-293352857Y-26690000D01*
X-293305238Y-26737619D01*
X-293257619Y-26690000D01*
X-293305238Y-26642380D01*
X-293305238Y-26737619D01*
X-292876666Y-27594761D02*
X-292781428Y-27642380D01*
X-292590952Y-27642380D01*
X-292495714Y-27594761D01*
X-292448095Y-27499523D01*
X-292448095Y-27451904D01*
X-292495714Y-27356666D01*
X-292590952Y-27309047D01*
X-292733809Y-27309047D01*
X-292829047Y-27261428D01*
X-292876666Y-27166190D01*
X-292876666Y-27118571D01*
X-292829047Y-27023333D01*
X-292733809Y-26975714D01*
X-292590952Y-26975714D01*
X-292495714Y-27023333D01*
X-292162380Y-26975714D02*
X-291781428Y-26975714D01*
X-292019523Y-26642380D02*
X-292019523Y-27499523D01*
X-291971904Y-27594761D01*
X-291876666Y-27642380D01*
X-291781428Y-27642380D01*
X-291305238Y-27642380D02*
X-291400476Y-27594761D01*
X-291448095Y-27547142D01*
X-291495714Y-27451904D01*
X-291495714Y-27166190D01*
X-291448095Y-27070952D01*
X-291400476Y-27023333D01*
X-291305238Y-26975714D01*
X-291162380Y-26975714D01*
X-291067142Y-27023333D01*
X-291019523Y-27070952D01*
X-290971904Y-27166190D01*
X-290971904Y-27451904D01*
X-291019523Y-27547142D01*
X-291067142Y-27594761D01*
X-291162380Y-27642380D01*
X-291305238Y-27642380D01*
X-290543333Y-27642380D02*
X-290543333Y-26975714D01*
X-290543333Y-27166190D02*
X-290495714Y-27070952D01*
X-290448095Y-27023333D01*
X-290352857Y-26975714D01*
X-290257619Y-26975714D01*
X-289400476Y-27642380D02*
X-289971904Y-27642380D01*
X-289686190Y-27642380D02*
X-289686190Y-26642380D01*
X-289781428Y-26785238D01*
X-289876666Y-26880476D01*
X-289971904Y-26928095D01*
%TO.C,R5*%
X-259348266Y-41612580D02*
X-259681600Y-41136390D01*
X-259919695Y-41612580D02*
X-259919695Y-40612580D01*
X-259538742Y-40612580D01*
X-259443504Y-40660200D01*
X-259395885Y-40707819D01*
X-259348266Y-40803057D01*
X-259348266Y-40945914D01*
X-259395885Y-41041152D01*
X-259443504Y-41088771D01*
X-259538742Y-41136390D01*
X-259919695Y-41136390D01*
X-258443504Y-40612580D02*
X-258919695Y-40612580D01*
X-258967314Y-41088771D01*
X-258919695Y-41041152D01*
X-258824457Y-40993533D01*
X-258586361Y-40993533D01*
X-258491123Y-41041152D01*
X-258443504Y-41088771D01*
X-258395885Y-41184009D01*
X-258395885Y-41422104D01*
X-258443504Y-41517342D01*
X-258491123Y-41564961D01*
X-258586361Y-41612580D01*
X-258824457Y-41612580D01*
X-258919695Y-41564961D01*
X-258967314Y-41517342D01*
%TO.C,R4*%
X-302857619Y-66296666D02*
X-303333809Y-66630000D01*
X-302857619Y-66868095D02*
X-303857619Y-66868095D01*
X-303857619Y-66487142D01*
X-303810000Y-66391904D01*
X-303762380Y-66344285D01*
X-303667142Y-66296666D01*
X-303524285Y-66296666D01*
X-303429047Y-66344285D01*
X-303381428Y-66391904D01*
X-303333809Y-66487142D01*
X-303333809Y-66868095D01*
X-303524285Y-65439523D02*
X-302857619Y-65439523D01*
X-303905238Y-65677619D02*
X-303190952Y-65915714D01*
X-303190952Y-65296666D01*
%TO.C,R3*%
X-281977619Y-66906666D02*
X-282453809Y-67240000D01*
X-281977619Y-67478095D02*
X-282977619Y-67478095D01*
X-282977619Y-67097142D01*
X-282930000Y-67001904D01*
X-282882380Y-66954285D01*
X-282787142Y-66906666D01*
X-282644285Y-66906666D01*
X-282549047Y-66954285D01*
X-282501428Y-67001904D01*
X-282453809Y-67097142D01*
X-282453809Y-67478095D01*
X-282977619Y-66573333D02*
X-282977619Y-65954285D01*
X-282596666Y-66287619D01*
X-282596666Y-66144761D01*
X-282549047Y-66049523D01*
X-282501428Y-66001904D01*
X-282406190Y-65954285D01*
X-282168095Y-65954285D01*
X-282072857Y-66001904D01*
X-282025238Y-66049523D01*
X-281977619Y-66144761D01*
X-281977619Y-66430476D01*
X-282025238Y-66525714D01*
X-282072857Y-66573333D01*
%TO.C,R2*%
X-315817619Y-66526666D02*
X-316293809Y-66860000D01*
X-315817619Y-67098095D02*
X-316817619Y-67098095D01*
X-316817619Y-66717142D01*
X-316770000Y-66621904D01*
X-316722380Y-66574285D01*
X-316627142Y-66526666D01*
X-316484285Y-66526666D01*
X-316389047Y-66574285D01*
X-316341428Y-66621904D01*
X-316293809Y-66717142D01*
X-316293809Y-67098095D01*
X-316722380Y-66145714D02*
X-316770000Y-66098095D01*
X-316817619Y-66002857D01*
X-316817619Y-65764761D01*
X-316770000Y-65669523D01*
X-316722380Y-65621904D01*
X-316627142Y-65574285D01*
X-316531904Y-65574285D01*
X-316389047Y-65621904D01*
X-315817619Y-66193333D01*
X-315817619Y-65574285D01*
%TO.C,R1*%
X-291957619Y-66606666D02*
X-292433809Y-66940000D01*
X-291957619Y-67178095D02*
X-292957619Y-67178095D01*
X-292957619Y-66797142D01*
X-292910000Y-66701904D01*
X-292862380Y-66654285D01*
X-292767142Y-66606666D01*
X-292624285Y-66606666D01*
X-292529047Y-66654285D01*
X-292481428Y-66701904D01*
X-292433809Y-66797142D01*
X-292433809Y-67178095D01*
X-291957619Y-65654285D02*
X-291957619Y-66225714D01*
X-291957619Y-65940000D02*
X-292957619Y-65940000D01*
X-292814761Y-66035238D01*
X-292719523Y-66130476D01*
X-292671904Y-66225714D01*
%TO.C,TP5*%
X-267981904Y-76744380D02*
X-267410476Y-76744380D01*
X-267696190Y-77744380D02*
X-267696190Y-76744380D01*
X-267077142Y-77744380D02*
X-267077142Y-76744380D01*
X-266696190Y-76744380D01*
X-266600952Y-76792000D01*
X-266553333Y-76839619D01*
X-266505714Y-76934857D01*
X-266505714Y-77077714D01*
X-266553333Y-77172952D01*
X-266600952Y-77220571D01*
X-266696190Y-77268190D01*
X-267077142Y-77268190D01*
X-265600952Y-76744380D02*
X-266077142Y-76744380D01*
X-266124761Y-77220571D01*
X-266077142Y-77172952D01*
X-265981904Y-77125333D01*
X-265743809Y-77125333D01*
X-265648571Y-77172952D01*
X-265600952Y-77220571D01*
X-265553333Y-77315809D01*
X-265553333Y-77553904D01*
X-265600952Y-77649142D01*
X-265648571Y-77696761D01*
X-265743809Y-77744380D01*
X-265981904Y-77744380D01*
X-266077142Y-77696761D01*
X-266124761Y-77649142D01*
%TO.C,TP4*%
X-331197904Y-76234380D02*
X-330626476Y-76234380D01*
X-330912190Y-77234380D02*
X-330912190Y-76234380D01*
X-330293142Y-77234380D02*
X-330293142Y-76234380D01*
X-329912190Y-76234380D01*
X-329816952Y-76282000D01*
X-329769333Y-76329619D01*
X-329721714Y-76424857D01*
X-329721714Y-76567714D01*
X-329769333Y-76662952D01*
X-329816952Y-76710571D01*
X-329912190Y-76758190D01*
X-330293142Y-76758190D01*
X-328864571Y-76567714D02*
X-328864571Y-77234380D01*
X-329102666Y-76186761D02*
X-329340761Y-76901047D01*
X-328721714Y-76901047D01*
%TO.C,TP3*%
X-253581904Y-55944380D02*
X-253010476Y-55944380D01*
X-253296190Y-56944380D02*
X-253296190Y-55944380D01*
X-252677142Y-56944380D02*
X-252677142Y-55944380D01*
X-252296190Y-55944380D01*
X-252200952Y-55992000D01*
X-252153333Y-56039619D01*
X-252105714Y-56134857D01*
X-252105714Y-56277714D01*
X-252153333Y-56372952D01*
X-252200952Y-56420571D01*
X-252296190Y-56468190D01*
X-252677142Y-56468190D01*
X-251772380Y-55944380D02*
X-251153333Y-55944380D01*
X-251486666Y-56325333D01*
X-251343809Y-56325333D01*
X-251248571Y-56372952D01*
X-251200952Y-56420571D01*
X-251153333Y-56515809D01*
X-251153333Y-56753904D01*
X-251200952Y-56849142D01*
X-251248571Y-56896761D01*
X-251343809Y-56944380D01*
X-251629523Y-56944380D01*
X-251724761Y-56896761D01*
X-251772380Y-56849142D01*
%TO.C,TP2*%
X-259951904Y-56284380D02*
X-259380476Y-56284380D01*
X-259666190Y-57284380D02*
X-259666190Y-56284380D01*
X-259047142Y-57284380D02*
X-259047142Y-56284380D01*
X-258666190Y-56284380D01*
X-258570952Y-56332000D01*
X-258523333Y-56379619D01*
X-258475714Y-56474857D01*
X-258475714Y-56617714D01*
X-258523333Y-56712952D01*
X-258570952Y-56760571D01*
X-258666190Y-56808190D01*
X-259047142Y-56808190D01*
X-258094761Y-56379619D02*
X-258047142Y-56332000D01*
X-257951904Y-56284380D01*
X-257713809Y-56284380D01*
X-257618571Y-56332000D01*
X-257570952Y-56379619D01*
X-257523333Y-56474857D01*
X-257523333Y-56570095D01*
X-257570952Y-56712952D01*
X-258142380Y-57284380D01*
X-257523333Y-57284380D01*
%TO.C,J1*%
X-222268219Y-26274733D02*
X-221553933Y-26274733D01*
X-221411076Y-26322352D01*
X-221315838Y-26417590D01*
X-221268219Y-26560447D01*
X-221268219Y-26655685D01*
X-221268219Y-25274733D02*
X-221268219Y-25846161D01*
X-221268219Y-25560447D02*
X-222268219Y-25560447D01*
X-222125361Y-25655685D01*
X-222030123Y-25750923D01*
X-221982504Y-25846161D01*
%TO.C,J2*%
X-264937833Y-71020280D02*
X-264937833Y-71734566D01*
X-264985452Y-71877423D01*
X-265080690Y-71972661D01*
X-265223547Y-72020280D01*
X-265318785Y-72020280D01*
X-264509261Y-71115519D02*
X-264461642Y-71067900D01*
X-264366404Y-71020280D01*
X-264128309Y-71020280D01*
X-264033071Y-71067900D01*
X-263985452Y-71115519D01*
X-263937833Y-71210757D01*
X-263937833Y-71305995D01*
X-263985452Y-71448852D01*
X-264556880Y-72020280D01*
X-263937833Y-72020280D01*
X-262337833Y-72820280D02*
X-261718785Y-72820280D01*
X-262052119Y-73201233D01*
X-261909261Y-73201233D01*
X-261814023Y-73248852D01*
X-261766404Y-73296471D01*
X-261718785Y-73391709D01*
X-261718785Y-73629804D01*
X-261766404Y-73725042D01*
X-261814023Y-73772661D01*
X-261909261Y-73820280D01*
X-262194976Y-73820280D01*
X-262290214Y-73772661D01*
X-262337833Y-73725042D01*
X-266918785Y-73820280D02*
X-267490214Y-73820280D01*
X-267204500Y-73820280D02*
X-267204500Y-72820280D01*
X-267299738Y-72963138D01*
X-267394976Y-73058376D01*
X-267490214Y-73105995D01*
%TO.C,J3*%
X-239513333Y-51252380D02*
X-239513333Y-51966666D01*
X-239560952Y-52109523D01*
X-239656190Y-52204761D01*
X-239799047Y-52252380D01*
X-239894285Y-52252380D01*
X-239132380Y-51252380D02*
X-238513333Y-51252380D01*
X-238846666Y-51633333D01*
X-238703809Y-51633333D01*
X-238608571Y-51680952D01*
X-238560952Y-51728571D01*
X-238513333Y-51823809D01*
X-238513333Y-52061904D01*
X-238560952Y-52157142D01*
X-238608571Y-52204761D01*
X-238703809Y-52252380D01*
X-238989523Y-52252380D01*
X-239084761Y-52204761D01*
X-239132380Y-52157142D01*
%TO.C,J4*%
X-268467619Y-57903333D02*
X-267753333Y-57903333D01*
X-267610476Y-57950952D01*
X-267515238Y-58046190D01*
X-267467619Y-58189047D01*
X-267467619Y-58284285D01*
X-268134285Y-56998571D02*
X-267467619Y-56998571D01*
X-268515238Y-57236666D02*
X-267800952Y-57474761D01*
X-267800952Y-56855714D01*
X-269267619Y-54684285D02*
X-269267619Y-55255714D01*
X-269267619Y-54970000D02*
X-270267619Y-54970000D01*
X-270124761Y-55065238D01*
X-270029523Y-55160476D01*
X-269981904Y-55255714D01*
X-270267619Y-60503333D02*
X-270267619Y-59884285D01*
X-269886666Y-60217619D01*
X-269886666Y-60074761D01*
X-269839047Y-59979523D01*
X-269791428Y-59931904D01*
X-269696190Y-59884285D01*
X-269458095Y-59884285D01*
X-269362857Y-59931904D01*
X-269315238Y-59979523D01*
X-269267619Y-60074761D01*
X-269267619Y-60360476D01*
X-269315238Y-60455714D01*
X-269362857Y-60503333D01*
%TO.C,J9*%
X-246949133Y-32754580D02*
X-246949133Y-33468866D01*
X-246996752Y-33611723D01*
X-247091990Y-33706961D01*
X-247234847Y-33754580D01*
X-247330085Y-33754580D01*
X-246425323Y-33754580D02*
X-246234847Y-33754580D01*
X-246139609Y-33706961D01*
X-246091990Y-33659342D01*
X-245996752Y-33516485D01*
X-245949133Y-33326009D01*
X-245949133Y-32945057D01*
X-245996752Y-32849819D01*
X-246044371Y-32802200D01*
X-246139609Y-32754580D01*
X-246330085Y-32754580D01*
X-246425323Y-32802200D01*
X-246472942Y-32849819D01*
X-246520561Y-32945057D01*
X-246520561Y-33183152D01*
X-246472942Y-33278390D01*
X-246425323Y-33326009D01*
X-246330085Y-33373628D01*
X-246139609Y-33373628D01*
X-246044371Y-33326009D01*
X-245996752Y-33278390D01*
X-245949133Y-33183152D01*
%TO.C,JP2*%
X-314903333Y-42242380D02*
X-314903333Y-42956666D01*
X-314950952Y-43099523D01*
X-315046190Y-43194761D01*
X-315189047Y-43242380D01*
X-315284285Y-43242380D01*
X-314427142Y-43242380D02*
X-314427142Y-42242380D01*
X-314046190Y-42242380D01*
X-313950952Y-42290000D01*
X-313903333Y-42337619D01*
X-313855714Y-42432857D01*
X-313855714Y-42575714D01*
X-313903333Y-42670952D01*
X-313950952Y-42718571D01*
X-314046190Y-42766190D01*
X-314427142Y-42766190D01*
X-313474761Y-42337619D02*
X-313427142Y-42290000D01*
X-313331904Y-42242380D01*
X-313093809Y-42242380D01*
X-312998571Y-42290000D01*
X-312950952Y-42337619D01*
X-312903333Y-42432857D01*
X-312903333Y-42528095D01*
X-312950952Y-42670952D01*
X-313522380Y-43242380D01*
X-312903333Y-43242380D01*
%TO.C,JP3*%
X-291873333Y-42402380D02*
X-291873333Y-43116666D01*
X-291920952Y-43259523D01*
X-292016190Y-43354761D01*
X-292159047Y-43402380D01*
X-292254285Y-43402380D01*
X-291397142Y-43402380D02*
X-291397142Y-42402380D01*
X-291016190Y-42402380D01*
X-290920952Y-42450000D01*
X-290873333Y-42497619D01*
X-290825714Y-42592857D01*
X-290825714Y-42735714D01*
X-290873333Y-42830952D01*
X-290920952Y-42878571D01*
X-291016190Y-42926190D01*
X-291397142Y-42926190D01*
X-290492380Y-42402380D02*
X-289873333Y-42402380D01*
X-290206666Y-42783333D01*
X-290063809Y-42783333D01*
X-289968571Y-42830952D01*
X-289920952Y-42878571D01*
X-289873333Y-42973809D01*
X-289873333Y-43211904D01*
X-289920952Y-43307142D01*
X-289968571Y-43354761D01*
X-290063809Y-43402380D01*
X-290349523Y-43402380D01*
X-290444761Y-43354761D01*
X-290492380Y-43307142D01*
%TO.C,JP4*%
X-336322219Y-76270833D02*
X-335607933Y-76270833D01*
X-335465076Y-76318452D01*
X-335369838Y-76413690D01*
X-335322219Y-76556547D01*
X-335322219Y-76651785D01*
X-335322219Y-75794642D02*
X-336322219Y-75794642D01*
X-336322219Y-75413690D01*
X-336274600Y-75318452D01*
X-336226980Y-75270833D01*
X-336131742Y-75223214D01*
X-335988885Y-75223214D01*
X-335893647Y-75270833D01*
X-335846028Y-75318452D01*
X-335798409Y-75413690D01*
X-335798409Y-75794642D01*
X-335988885Y-74366071D02*
X-335322219Y-74366071D01*
X-336369838Y-74604166D02*
X-335655552Y-74842261D01*
X-335655552Y-74223214D01*
%TO.C,JP5*%
X-328333333Y-54022380D02*
X-328333333Y-54736666D01*
X-328380952Y-54879523D01*
X-328476190Y-54974761D01*
X-328619047Y-55022380D01*
X-328714285Y-55022380D01*
X-327857142Y-55022380D02*
X-327857142Y-54022380D01*
X-327476190Y-54022380D01*
X-327380952Y-54070000D01*
X-327333333Y-54117619D01*
X-327285714Y-54212857D01*
X-327285714Y-54355714D01*
X-327333333Y-54450952D01*
X-327380952Y-54498571D01*
X-327476190Y-54546190D01*
X-327857142Y-54546190D01*
X-326380952Y-54022380D02*
X-326857142Y-54022380D01*
X-326904761Y-54498571D01*
X-326857142Y-54450952D01*
X-326761904Y-54403333D01*
X-326523809Y-54403333D01*
X-326428571Y-54450952D01*
X-326380952Y-54498571D01*
X-326333333Y-54593809D01*
X-326333333Y-54831904D01*
X-326380952Y-54927142D01*
X-326428571Y-54974761D01*
X-326523809Y-55022380D01*
X-326761904Y-55022380D01*
X-326857142Y-54974761D01*
X-326904761Y-54927142D01*
%TO.C,JP6*%
X-225115333Y-28938380D02*
X-225115333Y-29652666D01*
X-225162952Y-29795523D01*
X-225258190Y-29890761D01*
X-225401047Y-29938380D01*
X-225496285Y-29938380D01*
X-224639142Y-29938380D02*
X-224639142Y-28938380D01*
X-224258190Y-28938380D01*
X-224162952Y-28986000D01*
X-224115333Y-29033619D01*
X-224067714Y-29128857D01*
X-224067714Y-29271714D01*
X-224115333Y-29366952D01*
X-224162952Y-29414571D01*
X-224258190Y-29462190D01*
X-224639142Y-29462190D01*
X-223210571Y-28938380D02*
X-223401047Y-28938380D01*
X-223496285Y-28986000D01*
X-223543904Y-29033619D01*
X-223639142Y-29176476D01*
X-223686761Y-29366952D01*
X-223686761Y-29747904D01*
X-223639142Y-29843142D01*
X-223591523Y-29890761D01*
X-223496285Y-29938380D01*
X-223305809Y-29938380D01*
X-223210571Y-29890761D01*
X-223162952Y-29843142D01*
X-223115333Y-29747904D01*
X-223115333Y-29509809D01*
X-223162952Y-29414571D01*
X-223210571Y-29366952D01*
X-223305809Y-29319333D01*
X-223496285Y-29319333D01*
X-223591523Y-29366952D01*
X-223639142Y-29414571D01*
X-223686761Y-29509809D01*
%TO.C,P3*%
X-263238095Y-34702380D02*
X-263238095Y-33702380D01*
X-262857142Y-33702380D01*
X-262761904Y-33750000D01*
X-262714285Y-33797619D01*
X-262666666Y-33892857D01*
X-262666666Y-34035714D01*
X-262714285Y-34130952D01*
X-262761904Y-34178571D01*
X-262857142Y-34226190D01*
X-263238095Y-34226190D01*
X-262333333Y-33702380D02*
X-261714285Y-33702380D01*
X-262047619Y-34083333D01*
X-261904761Y-34083333D01*
X-261809523Y-34130952D01*
X-261761904Y-34178571D01*
X-261714285Y-34273809D01*
X-261714285Y-34511904D01*
X-261761904Y-34607142D01*
X-261809523Y-34654761D01*
X-261904761Y-34702380D01*
X-262190476Y-34702380D01*
X-262285714Y-34654761D01*
X-262333333Y-34607142D01*
%TO.C,P4*%
X-249177619Y-38578095D02*
X-250177619Y-38578095D01*
X-250177619Y-38197142D01*
X-250130000Y-38101904D01*
X-250082380Y-38054285D01*
X-249987142Y-38006666D01*
X-249844285Y-38006666D01*
X-249749047Y-38054285D01*
X-249701428Y-38101904D01*
X-249653809Y-38197142D01*
X-249653809Y-38578095D01*
X-249844285Y-37149523D02*
X-249177619Y-37149523D01*
X-250225238Y-37387619D02*
X-249510952Y-37625714D01*
X-249510952Y-37006666D01*
%TO.C,Temp_sensor1*%
X-283162857Y-39832380D02*
X-282591428Y-39832380D01*
X-282877142Y-40832380D02*
X-282877142Y-39832380D01*
X-281877142Y-40784761D02*
X-281972380Y-40832380D01*
X-282162857Y-40832380D01*
X-282258095Y-40784761D01*
X-282305714Y-40689523D01*
X-282305714Y-40308571D01*
X-282258095Y-40213333D01*
X-282162857Y-40165714D01*
X-281972380Y-40165714D01*
X-281877142Y-40213333D01*
X-281829523Y-40308571D01*
X-281829523Y-40403809D01*
X-282305714Y-40499047D01*
X-281400952Y-40832380D02*
X-281400952Y-40165714D01*
X-281400952Y-40260952D02*
X-281353333Y-40213333D01*
X-281258095Y-40165714D01*
X-281115238Y-40165714D01*
X-281020000Y-40213333D01*
X-280972380Y-40308571D01*
X-280972380Y-40832380D01*
X-280972380Y-40308571D02*
X-280924761Y-40213333D01*
X-280829523Y-40165714D01*
X-280686666Y-40165714D01*
X-280591428Y-40213333D01*
X-280543809Y-40308571D01*
X-280543809Y-40832380D01*
X-280067619Y-40165714D02*
X-280067619Y-41165714D01*
X-280067619Y-40213333D02*
X-279972380Y-40165714D01*
X-279781904Y-40165714D01*
X-279686666Y-40213333D01*
X-279639047Y-40260952D01*
X-279591428Y-40356190D01*
X-279591428Y-40641904D01*
X-279639047Y-40737142D01*
X-279686666Y-40784761D01*
X-279781904Y-40832380D01*
X-279972380Y-40832380D01*
X-280067619Y-40784761D01*
X-279400952Y-40927619D02*
X-278639047Y-40927619D01*
X-278448571Y-40784761D02*
X-278353333Y-40832380D01*
X-278162857Y-40832380D01*
X-278067619Y-40784761D01*
X-278020000Y-40689523D01*
X-278020000Y-40641904D01*
X-278067619Y-40546666D01*
X-278162857Y-40499047D01*
X-278305714Y-40499047D01*
X-278400952Y-40451428D01*
X-278448571Y-40356190D01*
X-278448571Y-40308571D01*
X-278400952Y-40213333D01*
X-278305714Y-40165714D01*
X-278162857Y-40165714D01*
X-278067619Y-40213333D01*
X-277210476Y-40784761D02*
X-277305714Y-40832380D01*
X-277496190Y-40832380D01*
X-277591428Y-40784761D01*
X-277639047Y-40689523D01*
X-277639047Y-40308571D01*
X-277591428Y-40213333D01*
X-277496190Y-40165714D01*
X-277305714Y-40165714D01*
X-277210476Y-40213333D01*
X-277162857Y-40308571D01*
X-277162857Y-40403809D01*
X-277639047Y-40499047D01*
X-276734285Y-40165714D02*
X-276734285Y-40832380D01*
X-276734285Y-40260952D02*
X-276686666Y-40213333D01*
X-276591428Y-40165714D01*
X-276448571Y-40165714D01*
X-276353333Y-40213333D01*
X-276305714Y-40308571D01*
X-276305714Y-40832380D01*
X-275877142Y-40784761D02*
X-275781904Y-40832380D01*
X-275591428Y-40832380D01*
X-275496190Y-40784761D01*
X-275448571Y-40689523D01*
X-275448571Y-40641904D01*
X-275496190Y-40546666D01*
X-275591428Y-40499047D01*
X-275734285Y-40499047D01*
X-275829523Y-40451428D01*
X-275877142Y-40356190D01*
X-275877142Y-40308571D01*
X-275829523Y-40213333D01*
X-275734285Y-40165714D01*
X-275591428Y-40165714D01*
X-275496190Y-40213333D01*
X-274877142Y-40832380D02*
X-274972380Y-40784761D01*
X-275020000Y-40737142D01*
X-275067619Y-40641904D01*
X-275067619Y-40356190D01*
X-275020000Y-40260952D01*
X-274972380Y-40213333D01*
X-274877142Y-40165714D01*
X-274734285Y-40165714D01*
X-274639047Y-40213333D01*
X-274591428Y-40260952D01*
X-274543809Y-40356190D01*
X-274543809Y-40641904D01*
X-274591428Y-40737142D01*
X-274639047Y-40784761D01*
X-274734285Y-40832380D01*
X-274877142Y-40832380D01*
X-274115238Y-40832380D02*
X-274115238Y-40165714D01*
X-274115238Y-40356190D02*
X-274067619Y-40260952D01*
X-274020000Y-40213333D01*
X-273924761Y-40165714D01*
X-273829523Y-40165714D01*
X-272972380Y-40832380D02*
X-273543809Y-40832380D01*
X-273258095Y-40832380D02*
X-273258095Y-39832380D01*
X-273353333Y-39975238D01*
X-273448571Y-40070476D01*
X-273543809Y-40118095D01*
%TO.C,TP1*%
X-265041904Y-102784380D02*
X-264470476Y-102784380D01*
X-264756190Y-103784380D02*
X-264756190Y-102784380D01*
X-264137142Y-103784380D02*
X-264137142Y-102784380D01*
X-263756190Y-102784380D01*
X-263660952Y-102832000D01*
X-263613333Y-102879619D01*
X-263565714Y-102974857D01*
X-263565714Y-103117714D01*
X-263613333Y-103212952D01*
X-263660952Y-103260571D01*
X-263756190Y-103308190D01*
X-264137142Y-103308190D01*
X-262613333Y-103784380D02*
X-263184761Y-103784380D01*
X-262899047Y-103784380D02*
X-262899047Y-102784380D01*
X-262994285Y-102927238D01*
X-263089523Y-103022476D01*
X-263184761Y-103070095D01*
%TO.C,TP6*%
X-241071904Y-39384380D02*
X-240500476Y-39384380D01*
X-240786190Y-40384380D02*
X-240786190Y-39384380D01*
X-240167142Y-40384380D02*
X-240167142Y-39384380D01*
X-239786190Y-39384380D01*
X-239690952Y-39432000D01*
X-239643333Y-39479619D01*
X-239595714Y-39574857D01*
X-239595714Y-39717714D01*
X-239643333Y-39812952D01*
X-239690952Y-39860571D01*
X-239786190Y-39908190D01*
X-240167142Y-39908190D01*
X-238738571Y-39384380D02*
X-238929047Y-39384380D01*
X-239024285Y-39432000D01*
X-239071904Y-39479619D01*
X-239167142Y-39622476D01*
X-239214761Y-39812952D01*
X-239214761Y-40193904D01*
X-239167142Y-40289142D01*
X-239119523Y-40336761D01*
X-239024285Y-40384380D01*
X-238833809Y-40384380D01*
X-238738571Y-40336761D01*
X-238690952Y-40289142D01*
X-238643333Y-40193904D01*
X-238643333Y-39955809D01*
X-238690952Y-39860571D01*
X-238738571Y-39812952D01*
X-238833809Y-39765333D01*
X-239024285Y-39765333D01*
X-239119523Y-39812952D01*
X-239167142Y-39860571D01*
X-239214761Y-39955809D01*
%TO.C,C1*%
X-283134666Y-48110342D02*
X-283182285Y-48157961D01*
X-283325142Y-48205580D01*
X-283420380Y-48205580D01*
X-283563238Y-48157961D01*
X-283658476Y-48062723D01*
X-283706095Y-47967485D01*
X-283753714Y-47777009D01*
X-283753714Y-47634152D01*
X-283706095Y-47443676D01*
X-283658476Y-47348438D01*
X-283563238Y-47253200D01*
X-283420380Y-47205580D01*
X-283325142Y-47205580D01*
X-283182285Y-47253200D01*
X-283134666Y-47300819D01*
X-282182285Y-48205580D02*
X-282753714Y-48205580D01*
X-282468000Y-48205580D02*
X-282468000Y-47205580D01*
X-282563238Y-47348438D01*
X-282658476Y-47443676D01*
X-282753714Y-47491295D01*
%TO.C,J5*%
X-199263333Y-89532380D02*
X-199263333Y-90246666D01*
X-199310952Y-90389523D01*
X-199406190Y-90484761D01*
X-199549047Y-90532380D01*
X-199644285Y-90532380D01*
X-198310952Y-89532380D02*
X-198787142Y-89532380D01*
X-198834761Y-90008571D01*
X-198787142Y-89960952D01*
X-198691904Y-89913333D01*
X-198453809Y-89913333D01*
X-198358571Y-89960952D01*
X-198310952Y-90008571D01*
X-198263333Y-90103809D01*
X-198263333Y-90341904D01*
X-198310952Y-90437142D01*
X-198358571Y-90484761D01*
X-198453809Y-90532380D01*
X-198691904Y-90532380D01*
X-198787142Y-90484761D01*
X-198834761Y-90437142D01*
%TD*%
M02*
