%TF.GenerationSoftware,KiCad,Pcbnew,(5.1.9-0-10_14)*%
%TF.CreationDate,2021-02-25T13:28:52+00:00*%
%TF.ProjectId,base8x,62617365-3878-42e6-9b69-6361645f7063,rev?*%
%TF.SameCoordinates,Original*%
%TF.FileFunction,Copper,L1,Top*%
%TF.FilePolarity,Positive*%
%FSLAX46Y46*%
G04 Gerber Fmt 4.6, Leading zero omitted, Abs format (unit mm)*
G04 Created by KiCad (PCBNEW (5.1.9-0-10_14)) date 2021-02-25 13:28:52*
%MOMM*%
%LPD*%
G01*
G04 APERTURE LIST*
%TA.AperFunction,ComponentPad*%
%ADD10O,1.700000X1.700000*%
%TD*%
%TA.AperFunction,ComponentPad*%
%ADD11R,1.700000X1.700000*%
%TD*%
%TA.AperFunction,ComponentPad*%
%ADD12O,1.400000X1.400000*%
%TD*%
%TA.AperFunction,ComponentPad*%
%ADD13C,1.400000*%
%TD*%
%TA.AperFunction,ComponentPad*%
%ADD14O,2.400000X2.400000*%
%TD*%
%TA.AperFunction,ComponentPad*%
%ADD15C,2.400000*%
%TD*%
%TA.AperFunction,SMDPad,CuDef*%
%ADD16R,2.500000X2.500000*%
%TD*%
%TA.AperFunction,ComponentPad*%
%ADD17C,1.700000*%
%TD*%
%TA.AperFunction,SMDPad,CuDef*%
%ADD18C,0.100000*%
%TD*%
%TA.AperFunction,SMDPad,CuDef*%
%ADD19R,1.000000X1.500000*%
%TD*%
%TA.AperFunction,SMDPad,CuDef*%
%ADD20R,1.500000X1.000000*%
%TD*%
%TA.AperFunction,ComponentPad*%
%ADD21O,1.800000X3.600000*%
%TD*%
%TA.AperFunction,ComponentPad*%
%ADD22R,1.200000X1.200000*%
%TD*%
%TA.AperFunction,ComponentPad*%
%ADD23C,1.200000*%
%TD*%
%TA.AperFunction,ViaPad*%
%ADD24C,0.800000*%
%TD*%
%TA.AperFunction,ViaPad*%
%ADD25C,0.600000*%
%TD*%
%TA.AperFunction,Conductor*%
%ADD26C,1.000000*%
%TD*%
%TA.AperFunction,Conductor*%
%ADD27C,0.300000*%
%TD*%
%TA.AperFunction,Conductor*%
%ADD28C,0.100000*%
%TD*%
G04 APERTURE END LIST*
D10*
%TO.P,Raspberry_header1,40*%
%TO.N,Net-(Raspberry_header1-Pad40)*%
X-220360000Y-101930000D03*
%TO.P,Raspberry_header1,39*%
%TO.N,GND*%
X-217820000Y-101930000D03*
%TO.P,Raspberry_header1,38*%
%TO.N,Net-(Raspberry_header1-Pad38)*%
X-220360000Y-99390000D03*
%TO.P,Raspberry_header1,37*%
%TO.N,Net-(Raspberry_header1-Pad37)*%
X-217820000Y-99390000D03*
%TO.P,Raspberry_header1,36*%
%TO.N,Net-(Raspberry_header1-Pad36)*%
X-220360000Y-96850000D03*
%TO.P,Raspberry_header1,35*%
%TO.N,Net-(Raspberry_header1-Pad35)*%
X-217820000Y-96850000D03*
%TO.P,Raspberry_header1,34*%
%TO.N,Net-(Raspberry_header1-Pad34)*%
X-220360000Y-94310000D03*
%TO.P,Raspberry_header1,33*%
%TO.N,Net-(Raspberry_header1-Pad33)*%
X-217820000Y-94310000D03*
%TO.P,Raspberry_header1,32*%
%TO.N,Net-(Raspberry_header1-Pad32)*%
X-220360000Y-91770000D03*
%TO.P,Raspberry_header1,31*%
%TO.N,GPIO6*%
X-217820000Y-91770000D03*
%TO.P,Raspberry_header1,30*%
%TO.N,Net-(Raspberry_header1-Pad30)*%
X-220360000Y-89230000D03*
%TO.P,Raspberry_header1,29*%
%TO.N,Net-(Raspberry_header1-Pad29)*%
X-217820000Y-89230000D03*
%TO.P,Raspberry_header1,28*%
%TO.N,Net-(Raspberry_header1-Pad28)*%
X-220360000Y-86690000D03*
%TO.P,Raspberry_header1,27*%
%TO.N,Net-(Raspberry_header1-Pad27)*%
X-217820000Y-86690000D03*
%TO.P,Raspberry_header1,26*%
%TO.N,Net-(Raspberry_header1-Pad26)*%
X-220360000Y-84150000D03*
%TO.P,Raspberry_header1,25*%
%TO.N,Net-(Raspberry_header1-Pad25)*%
X-217820000Y-84150000D03*
%TO.P,Raspberry_header1,24*%
%TO.N,SCK*%
X-220360000Y-81610000D03*
%TO.P,Raspberry_header1,23*%
%TO.N,SCLK*%
X-217820000Y-81610000D03*
%TO.P,Raspberry_header1,22*%
%TO.N,Net-(Raspberry_header1-Pad22)*%
X-220360000Y-79070000D03*
%TO.P,Raspberry_header1,21*%
%TO.N,MISO*%
X-217820000Y-79070000D03*
%TO.P,Raspberry_header1,20*%
%TO.N,Net-(Raspberry_header1-Pad20)*%
X-220360000Y-76530000D03*
%TO.P,Raspberry_header1,19*%
%TO.N,MOSI*%
X-217820000Y-76530000D03*
%TO.P,Raspberry_header1,18*%
%TO.N,Net-(Raspberry_header1-Pad18)*%
X-220360000Y-73990000D03*
%TO.P,Raspberry_header1,17*%
%TO.N,Net-(Raspberry_header1-Pad17)*%
X-217820000Y-73990000D03*
%TO.P,Raspberry_header1,16*%
%TO.N,Net-(Raspberry_header1-Pad16)*%
X-220360000Y-71450000D03*
%TO.P,Raspberry_header1,15*%
%TO.N,Net-(Raspberry_header1-Pad15)*%
X-217820000Y-71450000D03*
%TO.P,Raspberry_header1,14*%
%TO.N,Net-(Raspberry_header1-Pad14)*%
X-220360000Y-68910000D03*
%TO.P,Raspberry_header1,13*%
%TO.N,Net-(Raspberry_header1-Pad13)*%
X-217820000Y-68910000D03*
%TO.P,Raspberry_header1,12*%
%TO.N,Net-(Raspberry_header1-Pad12)*%
X-220360000Y-66370000D03*
%TO.P,Raspberry_header1,11*%
%TO.N,Net-(Raspberry_header1-Pad11)*%
X-217820000Y-66370000D03*
%TO.P,Raspberry_header1,10*%
%TO.N,Net-(Raspberry_header1-Pad10)*%
X-220360000Y-63830000D03*
%TO.P,Raspberry_header1,9*%
%TO.N,Net-(Raspberry_header1-Pad9)*%
X-217820000Y-63830000D03*
%TO.P,Raspberry_header1,8*%
%TO.N,Net-(Raspberry_header1-Pad8)*%
X-220360000Y-61290000D03*
%TO.P,Raspberry_header1,7*%
%TO.N,CLK0*%
X-217820000Y-61290000D03*
%TO.P,Raspberry_header1,6*%
%TO.N,Net-(Raspberry_header1-Pad6)*%
X-220360000Y-58750000D03*
%TO.P,Raspberry_header1,5*%
%TO.N,SCL*%
X-217820000Y-58750000D03*
%TO.P,Raspberry_header1,4*%
%TO.N,Net-(Raspberry_header1-Pad4)*%
X-220360000Y-56210000D03*
%TO.P,Raspberry_header1,3*%
%TO.N,SDA*%
X-217820000Y-56210000D03*
%TO.P,Raspberry_header1,2*%
%TO.N,+5V*%
X-220360000Y-53670000D03*
D11*
%TO.P,Raspberry_header1,1*%
%TO.N,+3V3*%
X-217820000Y-53670000D03*
%TD*%
D12*
%TO.P,D2,2*%
%TO.N,Net-(D2-Pad2)*%
X-328071640Y-70898520D03*
D13*
%TO.P,D2,1*%
%TO.N,Net-(D2-Pad1)*%
X-335691640Y-70898520D03*
%TD*%
D12*
%TO.P,D1,2*%
%TO.N,Net-(D1-Pad2)*%
X-298550000Y-44800000D03*
D13*
%TO.P,D1,1*%
%TO.N,Net-(D1-Pad1)*%
X-306170000Y-44800000D03*
%TD*%
D14*
%TO.P,Resistor1,2*%
%TO.N,+3V3*%
X-282550000Y-30810000D03*
D15*
%TO.P,Resistor1,1*%
%TO.N,CLK0*%
X-302870000Y-30810000D03*
%TD*%
D14*
%TO.P,R5,2*%
%TO.N,A_I-*%
X-249021600Y-44780200D03*
D15*
%TO.P,R5,1*%
%TO.N,A_I-_EXT*%
X-269341600Y-44780200D03*
%TD*%
D14*
%TO.P,R4,2*%
%TO.N,Net-(R4-Pad2)*%
X-299690000Y-55970000D03*
D15*
%TO.P,R4,1*%
%TO.N,Net-(J4-Pad2)*%
X-299690000Y-76290000D03*
%TD*%
D14*
%TO.P,R3,2*%
%TO.N,+5V*%
X-278810000Y-56580000D03*
D15*
%TO.P,R3,1*%
%TO.N,Net-(R3-Pad1)*%
X-278810000Y-76900000D03*
%TD*%
D14*
%TO.P,R2,2*%
%TO.N,+5V*%
X-312650000Y-56200000D03*
D15*
%TO.P,R2,1*%
%TO.N,Net-(JP4-Pad1)*%
X-312650000Y-76520000D03*
%TD*%
D14*
%TO.P,R1,2*%
%TO.N,+5V*%
X-288790000Y-56280000D03*
D15*
%TO.P,R1,1*%
%TO.N,Net-(JP2-Pad1)*%
X-288790000Y-76600000D03*
%TD*%
D16*
%TO.P,TP5,1*%
%TO.N,A_V_D_LOC*%
X-266720000Y-79440000D03*
%TD*%
%TO.P,TP4,1*%
%TO.N,Net-(JP4-Pad1)*%
X-329936000Y-78930000D03*
%TD*%
%TO.P,TP3,1*%
%TO.N,Net-(JP2-Pad1)*%
X-252320000Y-58640000D03*
%TD*%
%TO.P,TP2,1*%
%TO.N,Net-(TP2-Pad1)*%
X-258690000Y-58980000D03*
%TD*%
%TO.P,J1,1*%
%TO.N,MISO*%
%TA.AperFunction,ComponentPad*%
G36*
G01*
X-215020600Y-33006400D02*
X-216220600Y-33006400D01*
G75*
G02*
X-216470600Y-32756400I0J250000D01*
G01*
X-216470600Y-31556400D01*
G75*
G02*
X-216220600Y-31306400I250000J0D01*
G01*
X-215020600Y-31306400D01*
G75*
G02*
X-214770600Y-31556400I0J-250000D01*
G01*
X-214770600Y-32756400D01*
G75*
G02*
X-215020600Y-33006400I-250000J0D01*
G01*
G37*
%TD.AperFunction*%
D17*
%TO.P,J1,3*%
%TO.N,SCK*%
X-213080600Y-32156400D03*
%TO.P,J1,5*%
%TO.N,A_V_D_EXT*%
X-210540600Y-32156400D03*
%TO.P,J1,7*%
%TO.N,SDA*%
X-208000600Y-32156400D03*
%TO.P,J1,9*%
%TO.N,/Vin*%
X-205460600Y-32156400D03*
%TO.P,J1,2*%
%TO.N,+5V*%
X-215620600Y-29616400D03*
%TO.P,J1,4*%
%TO.N,MOSI*%
X-213080600Y-29616400D03*
%TO.P,J1,6*%
%TO.N,GND*%
X-210540600Y-29616400D03*
%TO.P,J1,8*%
%TO.N,SCL*%
X-208000600Y-29616400D03*
%TO.P,J1,10*%
%TO.N,~A_CS*%
X-205460600Y-29616400D03*
%TD*%
%TA.AperFunction,SMDPad,CuDef*%
D18*
%TO.P,J2,1*%
%TO.N,A_V_D_LOC*%
G36*
X-265354500Y-74117900D02*
G01*
X-265904500Y-74117900D01*
X-265904500Y-74117298D01*
X-265929034Y-74117298D01*
X-265977865Y-74112488D01*
X-266025990Y-74102916D01*
X-266072945Y-74088672D01*
X-266118278Y-74069895D01*
X-266161551Y-74046764D01*
X-266202350Y-74019504D01*
X-266240279Y-73988376D01*
X-266274976Y-73953679D01*
X-266306104Y-73915750D01*
X-266333364Y-73874951D01*
X-266356495Y-73831678D01*
X-266375272Y-73786345D01*
X-266389516Y-73739390D01*
X-266399088Y-73691265D01*
X-266403898Y-73642434D01*
X-266403898Y-73617900D01*
X-266404500Y-73617900D01*
X-266404500Y-73117900D01*
X-266403898Y-73117900D01*
X-266403898Y-73093366D01*
X-266399088Y-73044535D01*
X-266389516Y-72996410D01*
X-266375272Y-72949455D01*
X-266356495Y-72904122D01*
X-266333364Y-72860849D01*
X-266306104Y-72820050D01*
X-266274976Y-72782121D01*
X-266240279Y-72747424D01*
X-266202350Y-72716296D01*
X-266161551Y-72689036D01*
X-266118278Y-72665905D01*
X-266072945Y-72647128D01*
X-266025990Y-72632884D01*
X-265977865Y-72623312D01*
X-265929034Y-72618502D01*
X-265904500Y-72618502D01*
X-265904500Y-72617900D01*
X-265354500Y-72617900D01*
X-265354500Y-74117900D01*
G37*
%TD.AperFunction*%
%TA.AperFunction,SMDPad,CuDef*%
%TO.P,J2,3*%
%TO.N,A_V_D_EXT*%
G36*
X-263304500Y-72618502D02*
G01*
X-263279966Y-72618502D01*
X-263231135Y-72623312D01*
X-263183010Y-72632884D01*
X-263136055Y-72647128D01*
X-263090722Y-72665905D01*
X-263047449Y-72689036D01*
X-263006650Y-72716296D01*
X-262968721Y-72747424D01*
X-262934024Y-72782121D01*
X-262902896Y-72820050D01*
X-262875636Y-72860849D01*
X-262852505Y-72904122D01*
X-262833728Y-72949455D01*
X-262819484Y-72996410D01*
X-262809912Y-73044535D01*
X-262805102Y-73093366D01*
X-262805102Y-73117900D01*
X-262804500Y-73117900D01*
X-262804500Y-73617900D01*
X-262805102Y-73617900D01*
X-262805102Y-73642434D01*
X-262809912Y-73691265D01*
X-262819484Y-73739390D01*
X-262833728Y-73786345D01*
X-262852505Y-73831678D01*
X-262875636Y-73874951D01*
X-262902896Y-73915750D01*
X-262934024Y-73953679D01*
X-262968721Y-73988376D01*
X-263006650Y-74019504D01*
X-263047449Y-74046764D01*
X-263090722Y-74069895D01*
X-263136055Y-74088672D01*
X-263183010Y-74102916D01*
X-263231135Y-74112488D01*
X-263279966Y-74117298D01*
X-263304500Y-74117298D01*
X-263304500Y-74117900D01*
X-263854500Y-74117900D01*
X-263854500Y-72617900D01*
X-263304500Y-72617900D01*
X-263304500Y-72618502D01*
G37*
%TD.AperFunction*%
D19*
%TO.P,J2,2*%
%TO.N,A_V_D*%
X-264604500Y-73367900D03*
%TD*%
D10*
%TO.P,J3,3*%
%TO.N,+3V3*%
X-237910000Y-57110000D03*
%TO.P,J3,4*%
%TO.N,A_V_D*%
X-240450000Y-57110000D03*
%TO.P,J3,5*%
X-237910000Y-59650000D03*
%TO.P,J3,6*%
%TO.N,SCL*%
X-240450000Y-59650000D03*
%TO.P,J3,7*%
%TO.N,SDA*%
X-237910000Y-62190000D03*
%TO.P,J3,8*%
X-240450000Y-62190000D03*
%TO.P,J3,9*%
%TO.N,SCL*%
X-237910000Y-64730000D03*
%TO.P,J3,10*%
%TO.N,Net-(J3-Pad10)*%
X-240450000Y-64730000D03*
%TO.P,J3,11*%
%TO.N,~A_CS*%
X-237910000Y-67270000D03*
%TO.P,J3,12*%
%TO.N,Net-(J3-Pad12)*%
X-240450000Y-67270000D03*
%TO.P,J3,13*%
%TO.N,MISO*%
X-237910000Y-69810000D03*
%TO.P,J3,14*%
%TO.N,Net-(J3-Pad14)*%
X-240450000Y-69810000D03*
%TO.P,J3,15*%
%TO.N,MOSI*%
X-237910000Y-72350000D03*
%TO.P,J3,16*%
%TO.N,A_V_D*%
X-240450000Y-72350000D03*
%TO.P,J3,17*%
%TO.N,SCK*%
X-237910000Y-74890000D03*
%TO.P,J3,18*%
%TO.N,Net-(J3-Pad18)*%
X-240450000Y-74890000D03*
%TO.P,J3,19*%
%TO.N,GND*%
X-237910000Y-77430000D03*
%TO.P,J3,20*%
X-240450000Y-77430000D03*
%TO.P,J3,21*%
%TO.N,A_I+*%
X-237910000Y-79970000D03*
%TO.P,J3,22*%
%TO.N,Net-(J3-Pad22)*%
X-240450000Y-79970000D03*
%TO.P,J3,23*%
%TO.N,A_V+*%
X-237910000Y-82510000D03*
%TO.P,J3,24*%
%TO.N,Net-(J3-Pad24)*%
X-240450000Y-82510000D03*
%TO.P,J3,25*%
%TO.N,A_V-*%
X-237910000Y-85050000D03*
%TO.P,J3,26*%
%TO.N,Net-(J3-Pad26)*%
X-240450000Y-85050000D03*
%TO.P,J3,27*%
%TO.N,A_I-*%
X-237910000Y-87590000D03*
%TO.P,J3,28*%
%TO.N,Net-(J3-Pad28)*%
X-240450000Y-87590000D03*
%TD*%
D20*
%TO.P,J4,2*%
%TO.N,Net-(J4-Pad2)*%
X-269720000Y-57570000D03*
%TA.AperFunction,SMDPad,CuDef*%
D18*
%TO.P,J4,3*%
%TO.N,GND*%
G36*
X-268970602Y-58870000D02*
G01*
X-268970602Y-58894534D01*
X-268975412Y-58943365D01*
X-268984984Y-58991490D01*
X-268999228Y-59038445D01*
X-269018005Y-59083778D01*
X-269041136Y-59127051D01*
X-269068396Y-59167850D01*
X-269099524Y-59205779D01*
X-269134221Y-59240476D01*
X-269172150Y-59271604D01*
X-269212949Y-59298864D01*
X-269256222Y-59321995D01*
X-269301555Y-59340772D01*
X-269348510Y-59355016D01*
X-269396635Y-59364588D01*
X-269445466Y-59369398D01*
X-269470000Y-59369398D01*
X-269470000Y-59370000D01*
X-269970000Y-59370000D01*
X-269970000Y-59369398D01*
X-269994534Y-59369398D01*
X-270043365Y-59364588D01*
X-270091490Y-59355016D01*
X-270138445Y-59340772D01*
X-270183778Y-59321995D01*
X-270227051Y-59298864D01*
X-270267850Y-59271604D01*
X-270305779Y-59240476D01*
X-270340476Y-59205779D01*
X-270371604Y-59167850D01*
X-270398864Y-59127051D01*
X-270421995Y-59083778D01*
X-270440772Y-59038445D01*
X-270455016Y-58991490D01*
X-270464588Y-58943365D01*
X-270469398Y-58894534D01*
X-270469398Y-58870000D01*
X-270470000Y-58870000D01*
X-270470000Y-58320000D01*
X-268970000Y-58320000D01*
X-268970000Y-58870000D01*
X-268970602Y-58870000D01*
G37*
%TD.AperFunction*%
%TA.AperFunction,SMDPad,CuDef*%
%TO.P,J4,1*%
%TO.N,+5V*%
G36*
X-270470000Y-56820000D02*
G01*
X-270470000Y-56270000D01*
X-270469398Y-56270000D01*
X-270469398Y-56245466D01*
X-270464588Y-56196635D01*
X-270455016Y-56148510D01*
X-270440772Y-56101555D01*
X-270421995Y-56056222D01*
X-270398864Y-56012949D01*
X-270371604Y-55972150D01*
X-270340476Y-55934221D01*
X-270305779Y-55899524D01*
X-270267850Y-55868396D01*
X-270227051Y-55841136D01*
X-270183778Y-55818005D01*
X-270138445Y-55799228D01*
X-270091490Y-55784984D01*
X-270043365Y-55775412D01*
X-269994534Y-55770602D01*
X-269970000Y-55770602D01*
X-269970000Y-55770000D01*
X-269470000Y-55770000D01*
X-269470000Y-55770602D01*
X-269445466Y-55770602D01*
X-269396635Y-55775412D01*
X-269348510Y-55784984D01*
X-269301555Y-55799228D01*
X-269256222Y-55818005D01*
X-269212949Y-55841136D01*
X-269172150Y-55868396D01*
X-269134221Y-55899524D01*
X-269099524Y-55934221D01*
X-269068396Y-55972150D01*
X-269041136Y-56012949D01*
X-269018005Y-56056222D01*
X-268999228Y-56101555D01*
X-268984984Y-56148510D01*
X-268975412Y-56196635D01*
X-268970602Y-56245466D01*
X-268970602Y-56270000D01*
X-268970000Y-56270000D01*
X-268970000Y-56820000D01*
X-270470000Y-56820000D01*
G37*
%TD.AperFunction*%
%TD*%
%TO.P,J9,1*%
%TO.N,GND*%
%TA.AperFunction,ComponentPad*%
G36*
G01*
X-233465800Y-28752200D02*
X-233465800Y-31852200D01*
G75*
G02*
X-233715800Y-32102200I-250000J0D01*
G01*
X-235015800Y-32102200D01*
G75*
G02*
X-235265800Y-31852200I0J250000D01*
G01*
X-235265800Y-28752200D01*
G75*
G02*
X-235015800Y-28502200I250000J0D01*
G01*
X-233715800Y-28502200D01*
G75*
G02*
X-233465800Y-28752200I0J-250000D01*
G01*
G37*
%TD.AperFunction*%
D21*
%TO.P,J9,2*%
%TO.N,/Vin*%
X-237865800Y-30302200D03*
%TO.P,J9,3*%
%TO.N,Net-(J9-Pad3)*%
X-241365800Y-30302200D03*
%TO.P,J9,4*%
%TO.N,A_I-*%
X-244865800Y-30302200D03*
%TO.P,J9,5*%
%TO.N,A_I-_EXT*%
X-248365800Y-30302200D03*
%TO.P,J9,6*%
%TO.N,A_V-*%
X-251865800Y-30302200D03*
%TO.P,J9,7*%
%TO.N,A_V+*%
X-255365800Y-30302200D03*
%TO.P,J9,8*%
%TO.N,A_I+*%
X-258865800Y-30302200D03*
%TD*%
%TA.AperFunction,SMDPad,CuDef*%
D18*
%TO.P,JP2,1*%
%TO.N,Net-(JP2-Pad1)*%
G36*
X-314220000Y-45340000D02*
G01*
X-314720000Y-45340000D01*
X-314720000Y-45339398D01*
X-314744534Y-45339398D01*
X-314793365Y-45334588D01*
X-314841490Y-45325016D01*
X-314888445Y-45310772D01*
X-314933778Y-45291995D01*
X-314977051Y-45268864D01*
X-315017850Y-45241604D01*
X-315055779Y-45210476D01*
X-315090476Y-45175779D01*
X-315121604Y-45137850D01*
X-315148864Y-45097051D01*
X-315171995Y-45053778D01*
X-315190772Y-45008445D01*
X-315205016Y-44961490D01*
X-315214588Y-44913365D01*
X-315219398Y-44864534D01*
X-315219398Y-44840000D01*
X-315220000Y-44840000D01*
X-315220000Y-44340000D01*
X-315219398Y-44340000D01*
X-315219398Y-44315466D01*
X-315214588Y-44266635D01*
X-315205016Y-44218510D01*
X-315190772Y-44171555D01*
X-315171995Y-44126222D01*
X-315148864Y-44082949D01*
X-315121604Y-44042150D01*
X-315090476Y-44004221D01*
X-315055779Y-43969524D01*
X-315017850Y-43938396D01*
X-314977051Y-43911136D01*
X-314933778Y-43888005D01*
X-314888445Y-43869228D01*
X-314841490Y-43854984D01*
X-314793365Y-43845412D01*
X-314744534Y-43840602D01*
X-314720000Y-43840602D01*
X-314720000Y-43840000D01*
X-314220000Y-43840000D01*
X-314220000Y-45340000D01*
G37*
%TD.AperFunction*%
%TA.AperFunction,SMDPad,CuDef*%
%TO.P,JP2,2*%
%TO.N,Net-(D1-Pad1)*%
G36*
X-313420000Y-43840602D02*
G01*
X-313395466Y-43840602D01*
X-313346635Y-43845412D01*
X-313298510Y-43854984D01*
X-313251555Y-43869228D01*
X-313206222Y-43888005D01*
X-313162949Y-43911136D01*
X-313122150Y-43938396D01*
X-313084221Y-43969524D01*
X-313049524Y-44004221D01*
X-313018396Y-44042150D01*
X-312991136Y-44082949D01*
X-312968005Y-44126222D01*
X-312949228Y-44171555D01*
X-312934984Y-44218510D01*
X-312925412Y-44266635D01*
X-312920602Y-44315466D01*
X-312920602Y-44340000D01*
X-312920000Y-44340000D01*
X-312920000Y-44840000D01*
X-312920602Y-44840000D01*
X-312920602Y-44864534D01*
X-312925412Y-44913365D01*
X-312934984Y-44961490D01*
X-312949228Y-45008445D01*
X-312968005Y-45053778D01*
X-312991136Y-45097051D01*
X-313018396Y-45137850D01*
X-313049524Y-45175779D01*
X-313084221Y-45210476D01*
X-313122150Y-45241604D01*
X-313162949Y-45268864D01*
X-313206222Y-45291995D01*
X-313251555Y-45310772D01*
X-313298510Y-45325016D01*
X-313346635Y-45334588D01*
X-313395466Y-45339398D01*
X-313420000Y-45339398D01*
X-313420000Y-45340000D01*
X-313920000Y-45340000D01*
X-313920000Y-43840000D01*
X-313420000Y-43840000D01*
X-313420000Y-43840602D01*
G37*
%TD.AperFunction*%
%TD*%
%TA.AperFunction,SMDPad,CuDef*%
%TO.P,JP3,2*%
%TO.N,GND*%
G36*
X-290390000Y-44000602D02*
G01*
X-290365466Y-44000602D01*
X-290316635Y-44005412D01*
X-290268510Y-44014984D01*
X-290221555Y-44029228D01*
X-290176222Y-44048005D01*
X-290132949Y-44071136D01*
X-290092150Y-44098396D01*
X-290054221Y-44129524D01*
X-290019524Y-44164221D01*
X-289988396Y-44202150D01*
X-289961136Y-44242949D01*
X-289938005Y-44286222D01*
X-289919228Y-44331555D01*
X-289904984Y-44378510D01*
X-289895412Y-44426635D01*
X-289890602Y-44475466D01*
X-289890602Y-44500000D01*
X-289890000Y-44500000D01*
X-289890000Y-45000000D01*
X-289890602Y-45000000D01*
X-289890602Y-45024534D01*
X-289895412Y-45073365D01*
X-289904984Y-45121490D01*
X-289919228Y-45168445D01*
X-289938005Y-45213778D01*
X-289961136Y-45257051D01*
X-289988396Y-45297850D01*
X-290019524Y-45335779D01*
X-290054221Y-45370476D01*
X-290092150Y-45401604D01*
X-290132949Y-45428864D01*
X-290176222Y-45451995D01*
X-290221555Y-45470772D01*
X-290268510Y-45485016D01*
X-290316635Y-45494588D01*
X-290365466Y-45499398D01*
X-290390000Y-45499398D01*
X-290390000Y-45500000D01*
X-290890000Y-45500000D01*
X-290890000Y-44000000D01*
X-290390000Y-44000000D01*
X-290390000Y-44000602D01*
G37*
%TD.AperFunction*%
%TA.AperFunction,SMDPad,CuDef*%
%TO.P,JP3,1*%
%TO.N,Net-(D1-Pad2)*%
G36*
X-291190000Y-45500000D02*
G01*
X-291690000Y-45500000D01*
X-291690000Y-45499398D01*
X-291714534Y-45499398D01*
X-291763365Y-45494588D01*
X-291811490Y-45485016D01*
X-291858445Y-45470772D01*
X-291903778Y-45451995D01*
X-291947051Y-45428864D01*
X-291987850Y-45401604D01*
X-292025779Y-45370476D01*
X-292060476Y-45335779D01*
X-292091604Y-45297850D01*
X-292118864Y-45257051D01*
X-292141995Y-45213778D01*
X-292160772Y-45168445D01*
X-292175016Y-45121490D01*
X-292184588Y-45073365D01*
X-292189398Y-45024534D01*
X-292189398Y-45000000D01*
X-292190000Y-45000000D01*
X-292190000Y-44500000D01*
X-292189398Y-44500000D01*
X-292189398Y-44475466D01*
X-292184588Y-44426635D01*
X-292175016Y-44378510D01*
X-292160772Y-44331555D01*
X-292141995Y-44286222D01*
X-292118864Y-44242949D01*
X-292091604Y-44202150D01*
X-292060476Y-44164221D01*
X-292025779Y-44129524D01*
X-291987850Y-44098396D01*
X-291947051Y-44071136D01*
X-291903778Y-44048005D01*
X-291858445Y-44029228D01*
X-291811490Y-44014984D01*
X-291763365Y-44005412D01*
X-291714534Y-44000602D01*
X-291690000Y-44000602D01*
X-291690000Y-44000000D01*
X-291190000Y-44000000D01*
X-291190000Y-45500000D01*
G37*
%TD.AperFunction*%
%TD*%
%TA.AperFunction,SMDPad,CuDef*%
%TO.P,JP4,1*%
%TO.N,Net-(JP4-Pad1)*%
G36*
X-333224600Y-75587500D02*
G01*
X-333224600Y-76087500D01*
X-333225202Y-76087500D01*
X-333225202Y-76112034D01*
X-333230012Y-76160865D01*
X-333239584Y-76208990D01*
X-333253828Y-76255945D01*
X-333272605Y-76301278D01*
X-333295736Y-76344551D01*
X-333322996Y-76385350D01*
X-333354124Y-76423279D01*
X-333388821Y-76457976D01*
X-333426750Y-76489104D01*
X-333467549Y-76516364D01*
X-333510822Y-76539495D01*
X-333556155Y-76558272D01*
X-333603110Y-76572516D01*
X-333651235Y-76582088D01*
X-333700066Y-76586898D01*
X-333724600Y-76586898D01*
X-333724600Y-76587500D01*
X-334224600Y-76587500D01*
X-334224600Y-76586898D01*
X-334249134Y-76586898D01*
X-334297965Y-76582088D01*
X-334346090Y-76572516D01*
X-334393045Y-76558272D01*
X-334438378Y-76539495D01*
X-334481651Y-76516364D01*
X-334522450Y-76489104D01*
X-334560379Y-76457976D01*
X-334595076Y-76423279D01*
X-334626204Y-76385350D01*
X-334653464Y-76344551D01*
X-334676595Y-76301278D01*
X-334695372Y-76255945D01*
X-334709616Y-76208990D01*
X-334719188Y-76160865D01*
X-334723998Y-76112034D01*
X-334723998Y-76087500D01*
X-334724600Y-76087500D01*
X-334724600Y-75587500D01*
X-333224600Y-75587500D01*
G37*
%TD.AperFunction*%
%TA.AperFunction,SMDPad,CuDef*%
%TO.P,JP4,2*%
%TO.N,Net-(D2-Pad1)*%
G36*
X-334723998Y-74787500D02*
G01*
X-334723998Y-74762966D01*
X-334719188Y-74714135D01*
X-334709616Y-74666010D01*
X-334695372Y-74619055D01*
X-334676595Y-74573722D01*
X-334653464Y-74530449D01*
X-334626204Y-74489650D01*
X-334595076Y-74451721D01*
X-334560379Y-74417024D01*
X-334522450Y-74385896D01*
X-334481651Y-74358636D01*
X-334438378Y-74335505D01*
X-334393045Y-74316728D01*
X-334346090Y-74302484D01*
X-334297965Y-74292912D01*
X-334249134Y-74288102D01*
X-334224600Y-74288102D01*
X-334224600Y-74287500D01*
X-333724600Y-74287500D01*
X-333724600Y-74288102D01*
X-333700066Y-74288102D01*
X-333651235Y-74292912D01*
X-333603110Y-74302484D01*
X-333556155Y-74316728D01*
X-333510822Y-74335505D01*
X-333467549Y-74358636D01*
X-333426750Y-74385896D01*
X-333388821Y-74417024D01*
X-333354124Y-74451721D01*
X-333322996Y-74489650D01*
X-333295736Y-74530449D01*
X-333272605Y-74573722D01*
X-333253828Y-74619055D01*
X-333239584Y-74666010D01*
X-333230012Y-74714135D01*
X-333225202Y-74762966D01*
X-333225202Y-74787500D01*
X-333224600Y-74787500D01*
X-333224600Y-75287500D01*
X-334724600Y-75287500D01*
X-334724600Y-74787500D01*
X-334723998Y-74787500D01*
G37*
%TD.AperFunction*%
%TD*%
%TA.AperFunction,SMDPad,CuDef*%
%TO.P,JP5,1*%
%TO.N,Net-(D2-Pad2)*%
G36*
X-327650000Y-57120000D02*
G01*
X-328150000Y-57120000D01*
X-328150000Y-57119398D01*
X-328174534Y-57119398D01*
X-328223365Y-57114588D01*
X-328271490Y-57105016D01*
X-328318445Y-57090772D01*
X-328363778Y-57071995D01*
X-328407051Y-57048864D01*
X-328447850Y-57021604D01*
X-328485779Y-56990476D01*
X-328520476Y-56955779D01*
X-328551604Y-56917850D01*
X-328578864Y-56877051D01*
X-328601995Y-56833778D01*
X-328620772Y-56788445D01*
X-328635016Y-56741490D01*
X-328644588Y-56693365D01*
X-328649398Y-56644534D01*
X-328649398Y-56620000D01*
X-328650000Y-56620000D01*
X-328650000Y-56120000D01*
X-328649398Y-56120000D01*
X-328649398Y-56095466D01*
X-328644588Y-56046635D01*
X-328635016Y-55998510D01*
X-328620772Y-55951555D01*
X-328601995Y-55906222D01*
X-328578864Y-55862949D01*
X-328551604Y-55822150D01*
X-328520476Y-55784221D01*
X-328485779Y-55749524D01*
X-328447850Y-55718396D01*
X-328407051Y-55691136D01*
X-328363778Y-55668005D01*
X-328318445Y-55649228D01*
X-328271490Y-55634984D01*
X-328223365Y-55625412D01*
X-328174534Y-55620602D01*
X-328150000Y-55620602D01*
X-328150000Y-55620000D01*
X-327650000Y-55620000D01*
X-327650000Y-57120000D01*
G37*
%TD.AperFunction*%
%TA.AperFunction,SMDPad,CuDef*%
%TO.P,JP5,2*%
%TO.N,GND*%
G36*
X-326850000Y-55620602D02*
G01*
X-326825466Y-55620602D01*
X-326776635Y-55625412D01*
X-326728510Y-55634984D01*
X-326681555Y-55649228D01*
X-326636222Y-55668005D01*
X-326592949Y-55691136D01*
X-326552150Y-55718396D01*
X-326514221Y-55749524D01*
X-326479524Y-55784221D01*
X-326448396Y-55822150D01*
X-326421136Y-55862949D01*
X-326398005Y-55906222D01*
X-326379228Y-55951555D01*
X-326364984Y-55998510D01*
X-326355412Y-56046635D01*
X-326350602Y-56095466D01*
X-326350602Y-56120000D01*
X-326350000Y-56120000D01*
X-326350000Y-56620000D01*
X-326350602Y-56620000D01*
X-326350602Y-56644534D01*
X-326355412Y-56693365D01*
X-326364984Y-56741490D01*
X-326379228Y-56788445D01*
X-326398005Y-56833778D01*
X-326421136Y-56877051D01*
X-326448396Y-56917850D01*
X-326479524Y-56955779D01*
X-326514221Y-56990476D01*
X-326552150Y-57021604D01*
X-326592949Y-57048864D01*
X-326636222Y-57071995D01*
X-326681555Y-57090772D01*
X-326728510Y-57105016D01*
X-326776635Y-57114588D01*
X-326825466Y-57119398D01*
X-326850000Y-57119398D01*
X-326850000Y-57120000D01*
X-327350000Y-57120000D01*
X-327350000Y-55620000D01*
X-326850000Y-55620000D01*
X-326850000Y-55620602D01*
G37*
%TD.AperFunction*%
%TD*%
%TA.AperFunction,SMDPad,CuDef*%
%TO.P,JP6,2*%
%TO.N,/Vin*%
G36*
X-224932000Y-28435398D02*
G01*
X-224956534Y-28435398D01*
X-225005365Y-28430588D01*
X-225053490Y-28421016D01*
X-225100445Y-28406772D01*
X-225145778Y-28387995D01*
X-225189051Y-28364864D01*
X-225229850Y-28337604D01*
X-225267779Y-28306476D01*
X-225302476Y-28271779D01*
X-225333604Y-28233850D01*
X-225360864Y-28193051D01*
X-225383995Y-28149778D01*
X-225402772Y-28104445D01*
X-225417016Y-28057490D01*
X-225426588Y-28009365D01*
X-225431398Y-27960534D01*
X-225431398Y-27936000D01*
X-225432000Y-27936000D01*
X-225432000Y-27436000D01*
X-225431398Y-27436000D01*
X-225431398Y-27411466D01*
X-225426588Y-27362635D01*
X-225417016Y-27314510D01*
X-225402772Y-27267555D01*
X-225383995Y-27222222D01*
X-225360864Y-27178949D01*
X-225333604Y-27138150D01*
X-225302476Y-27100221D01*
X-225267779Y-27065524D01*
X-225229850Y-27034396D01*
X-225189051Y-27007136D01*
X-225145778Y-26984005D01*
X-225100445Y-26965228D01*
X-225053490Y-26950984D01*
X-225005365Y-26941412D01*
X-224956534Y-26936602D01*
X-224932000Y-26936602D01*
X-224932000Y-26936000D01*
X-224432000Y-26936000D01*
X-224432000Y-28436000D01*
X-224932000Y-28436000D01*
X-224932000Y-28435398D01*
G37*
%TD.AperFunction*%
%TA.AperFunction,SMDPad,CuDef*%
%TO.P,JP6,1*%
%TO.N,+5V*%
G36*
X-224132000Y-26936000D02*
G01*
X-223632000Y-26936000D01*
X-223632000Y-26936602D01*
X-223607466Y-26936602D01*
X-223558635Y-26941412D01*
X-223510510Y-26950984D01*
X-223463555Y-26965228D01*
X-223418222Y-26984005D01*
X-223374949Y-27007136D01*
X-223334150Y-27034396D01*
X-223296221Y-27065524D01*
X-223261524Y-27100221D01*
X-223230396Y-27138150D01*
X-223203136Y-27178949D01*
X-223180005Y-27222222D01*
X-223161228Y-27267555D01*
X-223146984Y-27314510D01*
X-223137412Y-27362635D01*
X-223132602Y-27411466D01*
X-223132602Y-27436000D01*
X-223132000Y-27436000D01*
X-223132000Y-27936000D01*
X-223132602Y-27936000D01*
X-223132602Y-27960534D01*
X-223137412Y-28009365D01*
X-223146984Y-28057490D01*
X-223161228Y-28104445D01*
X-223180005Y-28149778D01*
X-223203136Y-28193051D01*
X-223230396Y-28233850D01*
X-223261524Y-28271779D01*
X-223296221Y-28306476D01*
X-223334150Y-28337604D01*
X-223374949Y-28364864D01*
X-223418222Y-28387995D01*
X-223463555Y-28406772D01*
X-223510510Y-28421016D01*
X-223558635Y-28430588D01*
X-223607466Y-28435398D01*
X-223632000Y-28435398D01*
X-223632000Y-28436000D01*
X-224132000Y-28436000D01*
X-224132000Y-26936000D01*
G37*
%TD.AperFunction*%
%TD*%
D10*
%TO.P,P3,2*%
%TO.N,GND*%
X-262500000Y-39120000D03*
D11*
%TO.P,P3,1*%
%TO.N,A_I-_EXT*%
X-262500000Y-36580000D03*
%TD*%
%TO.P,P4,1*%
%TO.N,A_I-_EXT*%
X-247300000Y-37840000D03*
D10*
%TO.P,P4,2*%
%TO.N,A_I-*%
X-244760000Y-37840000D03*
%TD*%
D11*
%TO.P,Temp_sensor1,1*%
%TO.N,+3V3*%
X-278020000Y-43150000D03*
D10*
%TO.P,Temp_sensor1,2*%
%TO.N,CLK0*%
X-278020000Y-45690000D03*
%TO.P,Temp_sensor1,3*%
%TO.N,GND*%
X-278020000Y-48230000D03*
%TD*%
D16*
%TO.P,TP1,1*%
%TO.N,GND*%
X-263780000Y-105480000D03*
%TD*%
%TO.P,TP6,1*%
%TO.N,A_I-*%
X-239810000Y-42080000D03*
%TD*%
D22*
%TO.P,C1,1*%
%TO.N,+5V*%
X-283718000Y-51003200D03*
D23*
%TO.P,C1,2*%
%TO.N,GND*%
X-282218000Y-51003200D03*
%TD*%
D11*
%TO.P,J5,1*%
%TO.N,GPIO6*%
X-198930000Y-87750000D03*
D10*
%TO.P,J5,2*%
%TO.N,GND*%
X-198930000Y-85210000D03*
%TD*%
D24*
%TO.N,+5V*%
X-248110000Y-66930000D03*
X-215620600Y-27030600D03*
X-240410000Y-51810010D03*
X-246419990Y-51810010D03*
X-235400000Y-59050000D03*
X-227750000Y-59050000D03*
X-223490000Y-59120000D03*
%TO.N,GND*%
X-287570000Y-44750000D03*
X-269720000Y-60650000D03*
X-259850000Y-105480000D03*
X-326850000Y-53470000D03*
X-259040000Y-39080000D03*
X-278040000Y-51100000D03*
X-278040000Y-51100000D03*
D25*
X-272590000Y-47480000D03*
D24*
%TO.N,MISO*%
X-228360000Y-80440000D03*
X-216890000Y-36350000D03*
X-214690000Y-79150000D03*
%TO.N,SCK*%
X-234590000Y-74890000D03*
X-224370000Y-49810000D03*
X-213080600Y-38350600D03*
%TO.N,A_V_D_EXT*%
X-244280000Y-71930000D03*
X-209520000Y-45400000D03*
%TO.N,SDA*%
X-247040000Y-69690000D03*
X-244890000Y-61930000D03*
X-244890000Y-61930000D03*
X-231470000Y-62190000D03*
X-231470000Y-48670000D03*
X-208000600Y-37719400D03*
X-224490000Y-38830000D03*
%TO.N,/Vin*%
X-237420000Y-24690000D03*
X-203890000Y-34860000D03*
%TO.N,MOSI*%
X-232990000Y-80770000D03*
X-212109992Y-76700008D03*
X-208720000Y-65560000D03*
X-203470000Y-65530000D03*
X-219960000Y-39760000D03*
%TO.N,SCL*%
X-243370000Y-59840000D03*
X-234620000Y-64730000D03*
X-217540000Y-49480000D03*
X-208520000Y-54210000D03*
X-204340000Y-58750000D03*
X-245635000Y-70935000D03*
%TO.N,~A_CS*%
X-201060000Y-37370000D03*
X-222370000Y-50030000D03*
X-210880000Y-43480000D03*
X-226260000Y-51890000D03*
%TO.N,A_V_D_LOC*%
X-265904500Y-65124500D03*
%TO.N,A_V_D*%
X-251470000Y-75630000D03*
%TO.N,A_I+*%
X-235810000Y-78800000D03*
X-240490000Y-93960000D03*
X-231350000Y-92910000D03*
X-241010000Y-102920000D03*
%TO.N,A_V-*%
X-239100000Y-99990000D03*
X-237150000Y-94700000D03*
%TO.N,A_I-*%
X-239910000Y-37700000D03*
X-287470000Y-40830000D03*
%TO.N,Net-(J4-Pad2)*%
X-275610000Y-61590000D03*
%TO.N,Net-(R4-Pad2)*%
X-268720000Y-71760000D03*
%TO.N,CLK0*%
X-214510000Y-61420000D03*
%TO.N,Net-(TP2-Pad1)*%
X-256630000Y-63550000D03*
%TO.N,Net-(JP2-Pad1)*%
X-252250000Y-64590000D03*
X-277320000Y-67120000D03*
X-261470000Y-55910000D03*
%TO.N,Net-(JP4-Pad1)*%
X-294020000Y-71100000D03*
%TD*%
D26*
%TO.N,+5V*%
X-215620600Y-27019400D02*
X-215620600Y-27030600D01*
X-215620600Y-27030600D02*
X-215620600Y-27520600D01*
X-223632000Y-27686000D02*
X-223416000Y-27686000D01*
X-283718000Y-51003200D02*
X-285213200Y-51003200D01*
X-269720000Y-56270000D02*
X-269720000Y-56230000D01*
X-269720000Y-56230000D02*
X-269440000Y-55950000D01*
X-240410000Y-51810010D02*
X-240410000Y-52820000D01*
X-246419990Y-51810010D02*
X-246419990Y-51400010D01*
X-271210000Y-56270000D02*
X-269720000Y-56270000D01*
X-274160000Y-56270000D02*
X-271210000Y-56270000D01*
X-274470000Y-56580000D02*
X-274160000Y-56270000D01*
X-278810000Y-56580000D02*
X-274470000Y-56580000D01*
X-248110000Y-66930000D02*
X-248300000Y-66930000D01*
X-248300000Y-66930000D02*
X-248840000Y-66390000D01*
%TO.N,GND*%
X-290390000Y-44750000D02*
X-287570000Y-44750000D01*
X-287570000Y-44750000D02*
X-287570000Y-44750000D01*
X-326850000Y-53960000D02*
X-326850000Y-53960000D01*
X-269720000Y-58870000D02*
X-269720000Y-60650000D01*
X-269720000Y-60650000D02*
X-269720000Y-60650000D01*
X-263780000Y-105480000D02*
X-259850000Y-105480000D01*
X-259850000Y-105480000D02*
X-259850000Y-105480000D01*
X-282218000Y-44922000D02*
X-282218000Y-51003200D01*
X-282390000Y-44750000D02*
X-282218000Y-44922000D01*
X-326850000Y-56370000D02*
X-326850000Y-53470000D01*
X-326850000Y-53470000D02*
X-326850000Y-53470000D01*
X-278040000Y-51100000D02*
X-276210000Y-51100000D01*
X-276210000Y-51100000D02*
X-272590000Y-47480000D01*
X-272590000Y-47480000D02*
X-272590000Y-47480000D01*
%TO.N,SCK*%
X-224370000Y-49810000D02*
X-224370000Y-49810000D01*
%TO.N,A_V_D_EXT*%
X-244280000Y-71930000D02*
X-244280000Y-71930000D01*
X-244280000Y-71930000D02*
X-244280000Y-108840000D01*
X-244280000Y-108840000D02*
X-242140000Y-110980000D01*
X-242140000Y-110980000D02*
X-210310000Y-110980000D01*
X-209520000Y-45400000D02*
X-209520000Y-45400000D01*
%TO.N,SDA*%
X-247040000Y-61930000D02*
X-244890000Y-61930000D01*
X-244890000Y-61930000D02*
X-244890000Y-61930000D01*
X-244890000Y-61930000D02*
X-244890000Y-61930000D01*
%TO.N,MISO*%
X-214260000Y-79580000D02*
X-214690000Y-79150000D01*
X-228280000Y-105950000D02*
X-214260000Y-105950000D01*
X-214260000Y-105950000D02*
X-214260000Y-79580000D01*
X-228280000Y-80400000D02*
X-228280000Y-105950000D01*
X-213270000Y-44790000D02*
X-216890000Y-41170000D01*
X-216890000Y-41170000D02*
X-216890000Y-36350000D01*
X-213270000Y-44790000D02*
X-212580000Y-44790000D01*
X-212580000Y-44790000D02*
X-210870000Y-46500000D01*
X-210870000Y-46500000D02*
X-210870000Y-57690000D01*
X-210870000Y-57690000D02*
X-206110000Y-62450000D01*
X-206110000Y-62450000D02*
X-206110000Y-73340000D01*
X-207120000Y-74350000D02*
X-214690000Y-74350000D01*
X-206110000Y-73340000D02*
X-207120000Y-74350000D01*
X-214690000Y-79150000D02*
X-214690000Y-74350000D01*
%TO.N,SCK*%
X-229390000Y-61450000D02*
X-229390000Y-51550000D01*
X-227650000Y-49810000D02*
X-224370000Y-49810000D01*
X-228750000Y-62090000D02*
X-229390000Y-61450000D01*
X-232470000Y-65830000D02*
X-228730000Y-62090000D01*
X-228730000Y-62090000D02*
X-228750000Y-62090000D01*
X-232550000Y-65830000D02*
X-232470000Y-65830000D01*
X-229390000Y-51550000D02*
X-227650000Y-49810000D01*
X-234590000Y-67870000D02*
X-232550000Y-65830000D01*
X-234590000Y-74890000D02*
X-234590000Y-67870000D01*
%TO.N,A_V_D_EXT*%
X-209120000Y-110980000D02*
X-201410000Y-110980000D01*
X-210310000Y-110980000D02*
X-209120000Y-110980000D01*
X-209120000Y-110980000D02*
X-208520000Y-110980000D01*
X-201410000Y-110980000D02*
X-191320000Y-100890000D01*
X-191320000Y-100890000D02*
X-191320000Y-45280000D01*
X-209400000Y-45280000D02*
X-209520000Y-45400000D01*
X-191320000Y-45280000D02*
X-209400000Y-45280000D01*
X-261866600Y-71930000D02*
X-246290503Y-71930000D01*
X-263304500Y-73367900D02*
X-261866600Y-71930000D01*
X-245890504Y-72329999D02*
X-244679999Y-72329999D01*
X-246290503Y-71930000D02*
X-245890504Y-72329999D01*
X-244679999Y-72329999D02*
X-244280000Y-71930000D01*
%TO.N,SDA*%
X-231470000Y-48560000D02*
X-231700000Y-48330000D01*
X-231470000Y-62190000D02*
X-231470000Y-48670000D01*
X-231470000Y-48670000D02*
X-231470000Y-48560000D01*
X-221730000Y-36070000D02*
X-224490000Y-38830000D01*
X-221730000Y-34620000D02*
X-221730000Y-36070000D01*
X-213900000Y-34620000D02*
X-221730000Y-34620000D01*
X-211610600Y-37719400D02*
X-211610000Y-37718800D01*
X-211610000Y-36910000D02*
X-213900000Y-34620000D01*
X-211610000Y-37718800D02*
X-211610000Y-36910000D01*
X-208000600Y-37719400D02*
X-211610600Y-37719400D01*
X-247040000Y-69690000D02*
X-247040000Y-68030000D01*
X-247040000Y-68030000D02*
X-246800000Y-67790000D01*
X-246800000Y-67790000D02*
X-246800000Y-64570000D01*
X-247040000Y-64330000D02*
X-247040000Y-61930000D01*
X-246800000Y-64570000D02*
X-247040000Y-64330000D01*
%TO.N,/Vin*%
X-224932000Y-27686000D02*
X-224932000Y-24602000D01*
X-224932000Y-24602000D02*
X-225020000Y-24690000D01*
X-225020000Y-24690000D02*
X-237420000Y-24690000D01*
X-237420000Y-24690000D02*
X-237420000Y-24690000D01*
X-225020000Y-24690000D02*
X-200980000Y-24690000D01*
X-200980000Y-24690000D02*
X-200970000Y-24700000D01*
X-200970000Y-24700000D02*
X-200970000Y-31940000D01*
X-200970000Y-31940000D02*
X-203890000Y-34860000D01*
X-203890000Y-34860000D02*
X-203890000Y-34860000D01*
%TO.N,MOSI*%
X-232990000Y-80770000D02*
X-232990000Y-106100000D01*
X-232990000Y-106100000D02*
X-232950000Y-106140000D01*
X-215000000Y-46630000D02*
X-219960000Y-41670000D01*
X-232990000Y-106100000D02*
X-232990000Y-108930000D01*
X-232990000Y-108930000D02*
X-232910000Y-108850000D01*
X-232910000Y-108850000D02*
X-215899978Y-108850000D01*
X-215899978Y-108850000D02*
X-212560000Y-108850000D01*
X-212109992Y-79689508D02*
X-212130000Y-79669500D01*
X-212109992Y-108399992D02*
X-212109992Y-79689508D01*
X-212560000Y-108850000D02*
X-212109992Y-108399992D01*
X-212109992Y-79689508D02*
X-212109992Y-76700008D01*
X-212109992Y-76700008D02*
X-212109992Y-76700008D01*
X-203460008Y-76700008D02*
X-212109992Y-76700008D01*
X-203470000Y-76690016D02*
X-203460008Y-76700008D01*
X-215000000Y-46630000D02*
X-213610000Y-46630000D01*
X-213610000Y-46630000D02*
X-212710000Y-47530000D01*
X-212710000Y-47530000D02*
X-212710000Y-58350000D01*
X-212710000Y-58350000D02*
X-208720000Y-62340000D01*
X-208720000Y-62340000D02*
X-208720000Y-65560000D01*
X-208720000Y-65560000D02*
X-208720000Y-65560000D01*
X-203470000Y-65530000D02*
X-203470000Y-76690016D01*
X-219960000Y-41670000D02*
X-219960000Y-39760000D01*
X-219960000Y-39760000D02*
X-219960000Y-39760000D01*
%TO.N,SCL*%
X-243640000Y-63380000D02*
X-243680000Y-63340000D01*
X-243640000Y-63380000D02*
X-243640000Y-59870000D01*
X-243610000Y-59840000D02*
X-243370000Y-59840000D01*
X-243640000Y-59870000D02*
X-243610000Y-59840000D01*
X-243370000Y-59840000D02*
X-243370000Y-59840000D01*
X-234620000Y-64730000D02*
X-233940000Y-64730000D01*
X-233940000Y-64730000D02*
X-233740000Y-64530000D01*
X-233850000Y-50560000D02*
X-233740000Y-50450000D01*
X-241010000Y-50560000D02*
X-233850000Y-50560000D01*
X-233740000Y-64530000D02*
X-233740000Y-50450000D01*
X-243370000Y-59840000D02*
X-243370000Y-52920000D01*
X-243370000Y-52920000D02*
X-241010000Y-50560000D01*
X-220570000Y-48670000D02*
X-219490000Y-48670000D01*
X-222280000Y-46960000D02*
X-220570000Y-48670000D01*
X-233740000Y-46960000D02*
X-222280000Y-46960000D01*
X-233740000Y-50450000D02*
X-233740000Y-46960000D01*
X-219490000Y-48670000D02*
X-218350000Y-48670000D01*
X-218350000Y-48670000D02*
X-217540000Y-49480000D01*
X-217540000Y-49480000D02*
X-217540000Y-49480000D01*
X-208520000Y-54570000D02*
X-204340000Y-58750000D01*
X-208520000Y-54210000D02*
X-208520000Y-54570000D01*
X-245640000Y-70940000D02*
X-245635000Y-70935000D01*
X-245180000Y-64920000D02*
X-243640000Y-63380000D01*
X-245180000Y-70480000D02*
X-245180000Y-64920000D01*
X-245635000Y-70935000D02*
X-245180000Y-70480000D01*
%TO.N,~A_CS*%
X-222370000Y-50030000D02*
X-222370000Y-50030000D01*
X-210880000Y-43480000D02*
X-203030000Y-43480000D01*
X-201060000Y-41510000D02*
X-201060000Y-37370000D01*
X-203030000Y-43480000D02*
X-201060000Y-41510000D01*
X-223180000Y-50840000D02*
X-222370000Y-50030000D01*
X-224230000Y-51890000D02*
X-223180000Y-50840000D01*
X-226260000Y-51890000D02*
X-224230000Y-51890000D01*
%TO.N,A_V_D_LOC*%
X-266720000Y-74183400D02*
X-265904500Y-73367900D01*
X-266720000Y-79440000D02*
X-266720000Y-74183400D01*
X-265904500Y-73367900D02*
X-265904500Y-65124500D01*
X-265904500Y-65124500D02*
X-265904500Y-65124500D01*
%TO.N,A_V_D*%
X-264604500Y-73367900D02*
X-264604500Y-75895500D01*
X-264604500Y-75895500D02*
X-264339000Y-75630000D01*
X-264339000Y-75630000D02*
X-255760000Y-75630000D01*
X-255760000Y-75630000D02*
X-251470000Y-75630000D01*
X-251470000Y-75630000D02*
X-251470000Y-75630000D01*
X-251470000Y-75630000D02*
X-251470000Y-75630000D01*
%TO.N,A_I+*%
X-235810000Y-78800000D02*
X-233960000Y-76950000D01*
X-233960000Y-76950000D02*
X-233900000Y-77010000D01*
X-233900000Y-77010000D02*
X-231730000Y-77010000D01*
X-231730000Y-77010000D02*
X-231350000Y-77390000D01*
X-231350000Y-77390000D02*
X-231350000Y-92910000D01*
X-231350000Y-92910000D02*
X-231350000Y-92910000D01*
X-240490000Y-102400000D02*
X-241010000Y-102920000D01*
X-240490000Y-93960000D02*
X-240490000Y-102400000D01*
%TO.N,A_V-*%
X-239100000Y-96650000D02*
X-237150000Y-94700000D01*
X-239100000Y-99990000D02*
X-239100000Y-96650000D01*
%TO.N,A_I-*%
X-239810000Y-42080000D02*
X-239810000Y-42110000D01*
X-239810000Y-42110000D02*
X-239910000Y-42010000D01*
X-239910000Y-42010000D02*
X-239910000Y-37700000D01*
X-239910000Y-37700000D02*
X-239910000Y-37700000D01*
X-249021600Y-44780200D02*
X-249021600Y-41928400D01*
X-249021600Y-41928400D02*
X-249053200Y-41960000D01*
X-249053200Y-41960000D02*
X-265820000Y-41960000D01*
X-265820000Y-41960000D02*
X-268080000Y-39700000D01*
X-286340000Y-39700000D02*
X-287470000Y-40830000D01*
X-268080000Y-39700000D02*
X-286340000Y-39700000D01*
%TO.N,Net-(J4-Pad2)*%
X-275610000Y-61590000D02*
X-275610000Y-61070000D01*
X-272110000Y-57570000D02*
X-269720000Y-57570000D01*
X-275610000Y-61070000D02*
X-272110000Y-57570000D01*
%TO.N,Net-(D1-Pad1)*%
X-306380000Y-44590000D02*
X-306170000Y-44800000D01*
X-313420000Y-44590000D02*
X-306380000Y-44590000D01*
%TO.N,Net-(D1-Pad2)*%
X-291740000Y-44800000D02*
X-291690000Y-44750000D01*
X-298550000Y-44800000D02*
X-291740000Y-44800000D01*
%TO.N,Net-(D2-Pad1)*%
X-333974600Y-74787500D02*
X-337152500Y-74787500D01*
X-337152500Y-74787500D02*
X-337160000Y-74780000D01*
X-337160000Y-72366880D02*
X-335691640Y-70898520D01*
X-337160000Y-74780000D02*
X-337160000Y-72366880D01*
%TO.N,Net-(D2-Pad2)*%
X-328150000Y-70820160D02*
X-328071640Y-70898520D01*
X-328150000Y-56370000D02*
X-328150000Y-70820160D01*
%TO.N,Net-(R4-Pad2)*%
X-268720000Y-71760000D02*
X-278470000Y-62010000D01*
X-278470000Y-62010000D02*
X-293650000Y-62010000D01*
X-293650000Y-62010000D02*
X-299690000Y-55970000D01*
%TO.N,CLK0*%
X-214510000Y-61420000D02*
X-214510000Y-61420000D01*
X-241220000Y-45060000D02*
X-218780000Y-45060000D01*
X-241620000Y-45460000D02*
X-241220000Y-45060000D01*
X-241620000Y-47340000D02*
X-241620000Y-45460000D01*
X-244290000Y-50010000D02*
X-241620000Y-47340000D01*
X-217330000Y-46940000D02*
X-214510000Y-49760000D01*
X-218780000Y-46940000D02*
X-217330000Y-46940000D01*
X-218780000Y-45060000D02*
X-218780000Y-46940000D01*
X-214510000Y-49760000D02*
X-214510000Y-61420000D01*
X-278020000Y-45690000D02*
X-272380000Y-45690000D01*
X-268880000Y-49190000D02*
X-265340000Y-49190000D01*
X-272380000Y-45690000D02*
X-268880000Y-49190000D01*
X-265340000Y-49190000D02*
X-264520000Y-50010000D01*
X-264520000Y-50010000D02*
X-244290000Y-50010000D01*
%TO.N,Net-(TP2-Pad1)*%
X-258690000Y-58980000D02*
X-258690000Y-62120000D01*
X-256790000Y-62120000D02*
X-258690000Y-62120000D01*
X-256630000Y-62280000D02*
X-256790000Y-62120000D01*
X-256630000Y-63550000D02*
X-256630000Y-62280000D01*
%TO.N,Net-(JP2-Pad1)*%
X-252320000Y-64520000D02*
X-252250000Y-64590000D01*
X-252320000Y-58640000D02*
X-252320000Y-64520000D01*
X-314720000Y-44590000D02*
X-314720000Y-51600000D01*
X-314720000Y-51600000D02*
X-314420000Y-51900000D01*
X-314420000Y-51900000D02*
X-305700000Y-51900000D01*
X-305700000Y-51900000D02*
X-304790000Y-52810000D01*
X-304790000Y-52810000D02*
X-304790000Y-67140000D01*
X-304790000Y-67140000D02*
X-304750000Y-67180000D01*
X-304750000Y-67180000D02*
X-288850000Y-67180000D01*
X-288790000Y-67240000D02*
X-288790000Y-76600000D01*
X-288850000Y-67180000D02*
X-288790000Y-67240000D01*
X-288850000Y-67180000D02*
X-277560000Y-67180000D01*
X-277500000Y-67120000D02*
X-277320000Y-67120000D01*
X-277560000Y-67180000D02*
X-277500000Y-67120000D01*
X-277320000Y-67120000D02*
X-277320000Y-67120000D01*
X-252320000Y-58640000D02*
X-252320000Y-55920000D01*
X-252330000Y-55910000D02*
X-261470000Y-55910000D01*
X-252320000Y-55920000D02*
X-252330000Y-55910000D01*
%TO.N,Net-(JP4-Pad1)*%
X-333974600Y-76087500D02*
X-333974600Y-78675400D01*
X-333720000Y-78930000D02*
X-329936000Y-78930000D01*
X-333974600Y-78675400D02*
X-333720000Y-78930000D01*
X-329936000Y-78930000D02*
X-315670000Y-78930000D01*
X-313260000Y-76520000D02*
X-312650000Y-76520000D01*
X-315670000Y-78930000D02*
X-313260000Y-76520000D01*
X-312650000Y-76520000D02*
X-312650000Y-73870000D01*
X-312650000Y-73870000D02*
X-309880000Y-71100000D01*
X-309880000Y-71100000D02*
X-294020000Y-71100000D01*
X-294020000Y-71100000D02*
X-293980000Y-71100000D01*
%TD*%
D27*
%TO.N,+5V*%
X-184887975Y-10458401D02*
X-184654995Y-27411427D01*
X-184225026Y-104145770D01*
X-184945958Y-115744875D01*
X-331814466Y-115615053D01*
X-343637960Y-104230000D01*
X-266185564Y-104230000D01*
X-266185564Y-106730000D01*
X-266163360Y-106955439D01*
X-266097602Y-107172215D01*
X-265990816Y-107371997D01*
X-265847107Y-107547107D01*
X-265671997Y-107690816D01*
X-265472215Y-107797602D01*
X-265255439Y-107863360D01*
X-265030000Y-107885564D01*
X-262530000Y-107885564D01*
X-262304561Y-107863360D01*
X-262087785Y-107797602D01*
X-261888003Y-107690816D01*
X-261712893Y-107547107D01*
X-261569184Y-107371997D01*
X-261462398Y-107172215D01*
X-261449592Y-107130000D01*
X-259768948Y-107130000D01*
X-259526544Y-107106125D01*
X-259215517Y-107011777D01*
X-258928874Y-106858562D01*
X-258677629Y-106652371D01*
X-258471438Y-106401126D01*
X-258318223Y-106114483D01*
X-258223875Y-105803456D01*
X-258192017Y-105480000D01*
X-258223875Y-105156544D01*
X-258318223Y-104845517D01*
X-258471438Y-104558874D01*
X-258677629Y-104307629D01*
X-258928874Y-104101438D01*
X-259215517Y-103948223D01*
X-259526544Y-103853875D01*
X-259768948Y-103830000D01*
X-261449592Y-103830000D01*
X-261462398Y-103787785D01*
X-261569184Y-103588003D01*
X-261712893Y-103412893D01*
X-261888003Y-103269184D01*
X-262087785Y-103162398D01*
X-262304561Y-103096640D01*
X-262530000Y-103074436D01*
X-265030000Y-103074436D01*
X-265255439Y-103096640D01*
X-265472215Y-103162398D01*
X-265671997Y-103269184D01*
X-265847107Y-103412893D01*
X-265990816Y-103588003D01*
X-266097602Y-103787785D01*
X-266163360Y-104004561D01*
X-266185564Y-104230000D01*
X-343637960Y-104230000D01*
X-352218890Y-95967271D01*
X-351809453Y-72366880D01*
X-338817982Y-72366880D01*
X-338809999Y-72447931D01*
X-338810000Y-74698958D01*
X-338817982Y-74780000D01*
X-338810000Y-74861042D01*
X-338810000Y-74861051D01*
X-338786125Y-75103455D01*
X-338691777Y-75414482D01*
X-338538562Y-75701125D01*
X-338332371Y-75952371D01*
X-338328252Y-75955752D01*
X-338324871Y-75959871D01*
X-338073626Y-76166062D01*
X-337786983Y-76319277D01*
X-337475956Y-76413625D01*
X-337233552Y-76437500D01*
X-337152500Y-76445483D01*
X-337071448Y-76437500D01*
X-335840524Y-76437500D01*
X-335836430Y-76458081D01*
X-335770674Y-76674852D01*
X-335733165Y-76765408D01*
X-335626377Y-76965196D01*
X-335624600Y-76967856D01*
X-335624599Y-78594349D01*
X-335632582Y-78675400D01*
X-335600724Y-78998856D01*
X-335506377Y-79309882D01*
X-335369458Y-79566036D01*
X-335353161Y-79596526D01*
X-335146970Y-79847771D01*
X-335084011Y-79899440D01*
X-334944045Y-80039406D01*
X-334892371Y-80102371D01*
X-334641126Y-80308562D01*
X-334354483Y-80461777D01*
X-334043456Y-80556125D01*
X-333801052Y-80580000D01*
X-333720000Y-80587983D01*
X-333638948Y-80580000D01*
X-332266408Y-80580000D01*
X-332253602Y-80622215D01*
X-332146816Y-80821997D01*
X-332003107Y-80997107D01*
X-331827997Y-81140816D01*
X-331628215Y-81247602D01*
X-331411439Y-81313360D01*
X-331186000Y-81335564D01*
X-328686000Y-81335564D01*
X-328460561Y-81313360D01*
X-328243785Y-81247602D01*
X-328044003Y-81140816D01*
X-327868893Y-80997107D01*
X-327725184Y-80821997D01*
X-327618398Y-80622215D01*
X-327605592Y-80580000D01*
X-315751042Y-80580000D01*
X-315670000Y-80587982D01*
X-315588958Y-80580000D01*
X-315588948Y-80580000D01*
X-315346544Y-80556125D01*
X-315035517Y-80461777D01*
X-314748874Y-80308562D01*
X-314497629Y-80102371D01*
X-314445956Y-80039407D01*
X-313210998Y-78804450D01*
X-312881455Y-78870000D01*
X-312418545Y-78870000D01*
X-311964530Y-78779691D01*
X-311536857Y-78602543D01*
X-311151962Y-78345364D01*
X-310824636Y-78018038D01*
X-310567457Y-77633143D01*
X-310390309Y-77205470D01*
X-310300000Y-76751455D01*
X-310300000Y-76288545D01*
X-310345749Y-76058545D01*
X-302040000Y-76058545D01*
X-302040000Y-76521455D01*
X-301949691Y-76975470D01*
X-301772543Y-77403143D01*
X-301515364Y-77788038D01*
X-301188038Y-78115364D01*
X-300803143Y-78372543D01*
X-300375470Y-78549691D01*
X-299921455Y-78640000D01*
X-299458545Y-78640000D01*
X-299004530Y-78549691D01*
X-298576857Y-78372543D01*
X-298191962Y-78115364D01*
X-297864636Y-77788038D01*
X-297607457Y-77403143D01*
X-297430309Y-76975470D01*
X-297340000Y-76521455D01*
X-297340000Y-76058545D01*
X-297430309Y-75604530D01*
X-297607457Y-75176857D01*
X-297864636Y-74791962D01*
X-298191962Y-74464636D01*
X-298576857Y-74207457D01*
X-299004530Y-74030309D01*
X-299458545Y-73940000D01*
X-299921455Y-73940000D01*
X-300375470Y-74030309D01*
X-300803143Y-74207457D01*
X-301188038Y-74464636D01*
X-301515364Y-74791962D01*
X-301772543Y-75176857D01*
X-301949691Y-75604530D01*
X-302040000Y-76058545D01*
X-310345749Y-76058545D01*
X-310390309Y-75834530D01*
X-310567457Y-75406857D01*
X-310824636Y-75021962D01*
X-311000000Y-74846598D01*
X-311000000Y-74553451D01*
X-309196548Y-72750000D01*
X-293898948Y-72750000D01*
X-293656544Y-72726125D01*
X-293345517Y-72631777D01*
X-293058874Y-72478562D01*
X-292807629Y-72272371D01*
X-292601438Y-72021126D01*
X-292448223Y-71734483D01*
X-292353875Y-71423456D01*
X-292322017Y-71100000D01*
X-292353875Y-70776544D01*
X-292448223Y-70465517D01*
X-292601438Y-70178874D01*
X-292807629Y-69927629D01*
X-293058874Y-69721438D01*
X-293345517Y-69568223D01*
X-293656544Y-69473875D01*
X-293898948Y-69450000D01*
X-309798948Y-69450000D01*
X-309880000Y-69442017D01*
X-309961052Y-69450000D01*
X-310203456Y-69473875D01*
X-310514483Y-69568223D01*
X-310801126Y-69721438D01*
X-311052371Y-69927629D01*
X-311104040Y-69990588D01*
X-313759411Y-72645960D01*
X-313822370Y-72697629D01*
X-313948341Y-72851126D01*
X-314028561Y-72948874D01*
X-314181777Y-73235518D01*
X-314276124Y-73546544D01*
X-314307982Y-73870000D01*
X-314299999Y-73951051D01*
X-314299999Y-74846597D01*
X-314475364Y-75021962D01*
X-314732543Y-75406857D01*
X-314909691Y-75834530D01*
X-314910115Y-75836664D01*
X-316353451Y-77280000D01*
X-327605592Y-77280000D01*
X-327618398Y-77237785D01*
X-327725184Y-77038003D01*
X-327868893Y-76862893D01*
X-328044003Y-76719184D01*
X-328243785Y-76612398D01*
X-328460561Y-76546640D01*
X-328686000Y-76524436D01*
X-331186000Y-76524436D01*
X-331411439Y-76546640D01*
X-331628215Y-76612398D01*
X-331827997Y-76719184D01*
X-332003107Y-76862893D01*
X-332146816Y-77038003D01*
X-332253602Y-77237785D01*
X-332266408Y-77280000D01*
X-332324600Y-77280000D01*
X-332324600Y-76967855D01*
X-332322823Y-76965196D01*
X-332216035Y-76765408D01*
X-332178526Y-76674852D01*
X-332112770Y-76458081D01*
X-332093648Y-76361948D01*
X-332071444Y-76136509D01*
X-332071444Y-76111949D01*
X-332069036Y-76087500D01*
X-332069036Y-75587500D01*
X-332083810Y-75437500D01*
X-332069036Y-75287500D01*
X-332069036Y-74787500D01*
X-332071444Y-74763051D01*
X-332071444Y-74738491D01*
X-332093648Y-74513052D01*
X-332112770Y-74416919D01*
X-332178526Y-74200148D01*
X-332216035Y-74109592D01*
X-332322823Y-73909804D01*
X-332377279Y-73828305D01*
X-332520988Y-73653196D01*
X-332590296Y-73583888D01*
X-332765405Y-73440179D01*
X-332846904Y-73385723D01*
X-333046692Y-73278935D01*
X-333137248Y-73241426D01*
X-333354019Y-73175670D01*
X-333450152Y-73156548D01*
X-333675591Y-73134344D01*
X-333700151Y-73134344D01*
X-333724600Y-73131936D01*
X-334224600Y-73131936D01*
X-334249049Y-73134344D01*
X-334273609Y-73134344D01*
X-334305652Y-73137500D01*
X-335510000Y-73137500D01*
X-335510000Y-73050331D01*
X-335126542Y-72666874D01*
X-334815337Y-72537968D01*
X-334512334Y-72335509D01*
X-334254651Y-72077826D01*
X-334052192Y-71774823D01*
X-333912735Y-71438145D01*
X-333841640Y-71080729D01*
X-333841640Y-70716311D01*
X-329921640Y-70716311D01*
X-329921640Y-71080729D01*
X-329850545Y-71438145D01*
X-329711088Y-71774823D01*
X-329508629Y-72077826D01*
X-329250946Y-72335509D01*
X-328947943Y-72537968D01*
X-328611265Y-72677425D01*
X-328253849Y-72748520D01*
X-327889431Y-72748520D01*
X-327532015Y-72677425D01*
X-327195337Y-72537968D01*
X-326892334Y-72335509D01*
X-326634651Y-72077826D01*
X-326432192Y-71774823D01*
X-326292735Y-71438145D01*
X-326221640Y-71080729D01*
X-326221640Y-70716311D01*
X-326292735Y-70358895D01*
X-326432192Y-70022217D01*
X-326500000Y-69920735D01*
X-326500000Y-58235924D01*
X-326479419Y-58231830D01*
X-326262648Y-58166074D01*
X-326172092Y-58128565D01*
X-325972304Y-58021777D01*
X-325890805Y-57967321D01*
X-325715696Y-57823612D01*
X-325646388Y-57754304D01*
X-325502679Y-57579195D01*
X-325448223Y-57497696D01*
X-325341435Y-57297908D01*
X-325303926Y-57207352D01*
X-325238170Y-56990581D01*
X-325219048Y-56894448D01*
X-325196844Y-56669009D01*
X-325196844Y-56644449D01*
X-325194436Y-56620000D01*
X-325194436Y-56616922D01*
X-314962721Y-56616922D01*
X-314836945Y-57060100D01*
X-314627126Y-57470225D01*
X-314341327Y-57831536D01*
X-313990532Y-58130148D01*
X-313588221Y-58354586D01*
X-313149854Y-58496224D01*
X-313066922Y-58512720D01*
X-312700000Y-58261894D01*
X-312700000Y-56250000D01*
X-312600000Y-56250000D01*
X-312600000Y-58261894D01*
X-312233078Y-58512720D01*
X-312150146Y-58496224D01*
X-311711779Y-58354586D01*
X-311309468Y-58130148D01*
X-310958673Y-57831536D01*
X-310672874Y-57470225D01*
X-310463055Y-57060100D01*
X-310337279Y-56616922D01*
X-310588031Y-56250000D01*
X-312600000Y-56250000D01*
X-312700000Y-56250000D01*
X-314711969Y-56250000D01*
X-314962721Y-56616922D01*
X-325194436Y-56616922D01*
X-325194436Y-56120000D01*
X-325196844Y-56095551D01*
X-325196844Y-56070991D01*
X-325200000Y-56038948D01*
X-325200000Y-55783078D01*
X-314962721Y-55783078D01*
X-314711969Y-56150000D01*
X-312700000Y-56150000D01*
X-312700000Y-54138106D01*
X-312600000Y-54138106D01*
X-312600000Y-56150000D01*
X-310588031Y-56150000D01*
X-310337279Y-55783078D01*
X-310463055Y-55339900D01*
X-310672874Y-54929775D01*
X-310958673Y-54568464D01*
X-311309468Y-54269852D01*
X-311711779Y-54045414D01*
X-312150146Y-53903776D01*
X-312233078Y-53887280D01*
X-312600000Y-54138106D01*
X-312700000Y-54138106D01*
X-313066922Y-53887280D01*
X-313149854Y-53903776D01*
X-313588221Y-54045414D01*
X-313990532Y-54269852D01*
X-314341327Y-54568464D01*
X-314627126Y-54929775D01*
X-314836945Y-55339900D01*
X-314962721Y-55783078D01*
X-325200000Y-55783078D01*
X-325200000Y-54041052D01*
X-325192017Y-53960000D01*
X-325200000Y-53878948D01*
X-325200000Y-53551052D01*
X-325192017Y-53470000D01*
X-325223875Y-53146544D01*
X-325318223Y-52835517D01*
X-325471438Y-52548874D01*
X-325677629Y-52297629D01*
X-325928874Y-52091438D01*
X-326215517Y-51938223D01*
X-326526544Y-51843875D01*
X-326768948Y-51820000D01*
X-326850000Y-51812017D01*
X-326931052Y-51820000D01*
X-327173456Y-51843875D01*
X-327484483Y-51938223D01*
X-327771126Y-52091438D01*
X-328022371Y-52297629D01*
X-328228562Y-52548874D01*
X-328381777Y-52835517D01*
X-328476125Y-53146544D01*
X-328507983Y-53470000D01*
X-328499999Y-53551061D01*
X-328499999Y-53878940D01*
X-328507983Y-53960000D01*
X-328499999Y-54041060D01*
X-328499999Y-54504076D01*
X-328520581Y-54508170D01*
X-328737352Y-54573926D01*
X-328827908Y-54611435D01*
X-329027696Y-54718223D01*
X-329109195Y-54772679D01*
X-329284304Y-54916388D01*
X-329353612Y-54985696D01*
X-329497321Y-55160805D01*
X-329551777Y-55242304D01*
X-329658565Y-55442092D01*
X-329696074Y-55532648D01*
X-329761830Y-55749419D01*
X-329780952Y-55845552D01*
X-329803156Y-56070991D01*
X-329803156Y-56095551D01*
X-329805564Y-56120000D01*
X-329805564Y-56620000D01*
X-329803156Y-56644449D01*
X-329803156Y-56669009D01*
X-329800000Y-56701052D01*
X-329799999Y-70236867D01*
X-329850545Y-70358895D01*
X-329921640Y-70716311D01*
X-333841640Y-70716311D01*
X-333912735Y-70358895D01*
X-334052192Y-70022217D01*
X-334254651Y-69719214D01*
X-334512334Y-69461531D01*
X-334815337Y-69259072D01*
X-335152015Y-69119615D01*
X-335509431Y-69048520D01*
X-335873849Y-69048520D01*
X-336231265Y-69119615D01*
X-336567943Y-69259072D01*
X-336870946Y-69461531D01*
X-337128629Y-69719214D01*
X-337331088Y-70022217D01*
X-337459994Y-70333422D01*
X-338269411Y-71142840D01*
X-338332370Y-71194509D01*
X-338471058Y-71363501D01*
X-338538561Y-71445754D01*
X-338691777Y-71732398D01*
X-338786124Y-72043424D01*
X-338817982Y-72366880D01*
X-351809453Y-72366880D01*
X-351449173Y-51600000D01*
X-316377982Y-51600000D01*
X-316346124Y-51923456D01*
X-316251777Y-52234482D01*
X-316175179Y-52377785D01*
X-316098561Y-52521126D01*
X-315892370Y-52772371D01*
X-315829411Y-52824040D01*
X-315644045Y-53009406D01*
X-315592371Y-53072371D01*
X-315341126Y-53278562D01*
X-315054483Y-53431777D01*
X-314743456Y-53526125D01*
X-314501052Y-53550000D01*
X-314501042Y-53550000D01*
X-314420001Y-53557982D01*
X-314338959Y-53550000D01*
X-306440000Y-53550000D01*
X-306439999Y-67058948D01*
X-306447982Y-67140000D01*
X-306416124Y-67463456D01*
X-306321777Y-67774482D01*
X-306242124Y-67923501D01*
X-306168561Y-68061126D01*
X-305962370Y-68312371D01*
X-305940403Y-68330399D01*
X-305922371Y-68352371D01*
X-305671126Y-68558562D01*
X-305384483Y-68711777D01*
X-305073456Y-68806125D01*
X-304831052Y-68830000D01*
X-304750000Y-68837983D01*
X-304668948Y-68830000D01*
X-290440000Y-68830000D01*
X-290439999Y-74926597D01*
X-290615364Y-75101962D01*
X-290872543Y-75486857D01*
X-291049691Y-75914530D01*
X-291140000Y-76368545D01*
X-291140000Y-76831455D01*
X-291049691Y-77285470D01*
X-290872543Y-77713143D01*
X-290615364Y-78098038D01*
X-290288038Y-78425364D01*
X-289903143Y-78682543D01*
X-289475470Y-78859691D01*
X-289021455Y-78950000D01*
X-288558545Y-78950000D01*
X-288104530Y-78859691D01*
X-287676857Y-78682543D01*
X-287291962Y-78425364D01*
X-286964636Y-78098038D01*
X-286707457Y-77713143D01*
X-286530309Y-77285470D01*
X-286440000Y-76831455D01*
X-286440000Y-76668545D01*
X-281160000Y-76668545D01*
X-281160000Y-77131455D01*
X-281069691Y-77585470D01*
X-280892543Y-78013143D01*
X-280635364Y-78398038D01*
X-280308038Y-78725364D01*
X-279923143Y-78982543D01*
X-279495470Y-79159691D01*
X-279041455Y-79250000D01*
X-278578545Y-79250000D01*
X-278124530Y-79159691D01*
X-277696857Y-78982543D01*
X-277311962Y-78725364D01*
X-276984636Y-78398038D01*
X-276727457Y-78013143D01*
X-276550309Y-77585470D01*
X-276460000Y-77131455D01*
X-276460000Y-76668545D01*
X-276550309Y-76214530D01*
X-276727457Y-75786857D01*
X-276984636Y-75401962D01*
X-277311962Y-75074636D01*
X-277696857Y-74817457D01*
X-278124530Y-74640309D01*
X-278578545Y-74550000D01*
X-279041455Y-74550000D01*
X-279495470Y-74640309D01*
X-279923143Y-74817457D01*
X-280308038Y-75074636D01*
X-280635364Y-75401962D01*
X-280892543Y-75786857D01*
X-281069691Y-76214530D01*
X-281160000Y-76668545D01*
X-286440000Y-76668545D01*
X-286440000Y-76368545D01*
X-286530309Y-75914530D01*
X-286707457Y-75486857D01*
X-286964636Y-75101962D01*
X-287140000Y-74926598D01*
X-287140000Y-68830000D01*
X-277641042Y-68830000D01*
X-277560000Y-68837982D01*
X-277478958Y-68830000D01*
X-277478948Y-68830000D01*
X-277236544Y-68806125D01*
X-277059040Y-68752280D01*
X-276996544Y-68746125D01*
X-276685517Y-68651777D01*
X-276398874Y-68498562D01*
X-276147629Y-68292371D01*
X-275941438Y-68041126D01*
X-275788223Y-67754483D01*
X-275693875Y-67443456D01*
X-275664835Y-67148616D01*
X-269829414Y-72984038D01*
X-269641127Y-73138561D01*
X-269354483Y-73291776D01*
X-269043457Y-73386124D01*
X-268720001Y-73417982D01*
X-268396545Y-73386124D01*
X-268119906Y-73302207D01*
X-268251777Y-73548918D01*
X-268346124Y-73859944D01*
X-268377982Y-74183400D01*
X-268369999Y-74264452D01*
X-268370000Y-77109592D01*
X-268412215Y-77122398D01*
X-268611997Y-77229184D01*
X-268787107Y-77372893D01*
X-268930816Y-77548003D01*
X-269037602Y-77747785D01*
X-269103360Y-77964561D01*
X-269125564Y-78190000D01*
X-269125564Y-80690000D01*
X-269103360Y-80915439D01*
X-269037602Y-81132215D01*
X-268930816Y-81331997D01*
X-268787107Y-81507107D01*
X-268611997Y-81650816D01*
X-268412215Y-81757602D01*
X-268195439Y-81823360D01*
X-267970000Y-81845564D01*
X-265470000Y-81845564D01*
X-265244561Y-81823360D01*
X-265027785Y-81757602D01*
X-264828003Y-81650816D01*
X-264652893Y-81507107D01*
X-264509184Y-81331997D01*
X-264402398Y-81132215D01*
X-264336640Y-80915439D01*
X-264314436Y-80690000D01*
X-264314436Y-78190000D01*
X-264336640Y-77964561D01*
X-264402398Y-77747785D01*
X-264509184Y-77548003D01*
X-264512151Y-77544387D01*
X-264281044Y-77521625D01*
X-263970017Y-77427277D01*
X-263694483Y-77280000D01*
X-251388948Y-77280000D01*
X-251146544Y-77256125D01*
X-250835517Y-77161777D01*
X-250548874Y-77008562D01*
X-250297629Y-76802371D01*
X-250091438Y-76551126D01*
X-249938223Y-76264483D01*
X-249843875Y-75953456D01*
X-249812017Y-75630000D01*
X-249843875Y-75306544D01*
X-249938223Y-74995517D01*
X-250091438Y-74708874D01*
X-250297629Y-74457629D01*
X-250548874Y-74251438D01*
X-250835517Y-74098223D01*
X-251146544Y-74003875D01*
X-251388948Y-73980000D01*
X-261583149Y-73980000D01*
X-261183148Y-73580000D01*
X-246968282Y-73580000D01*
X-246811630Y-73708561D01*
X-246524987Y-73861776D01*
X-246213960Y-73956124D01*
X-245971556Y-73979999D01*
X-245971547Y-73979999D01*
X-245930000Y-73984091D01*
X-245929999Y-108758948D01*
X-245937982Y-108840000D01*
X-245906124Y-109163456D01*
X-245811777Y-109474482D01*
X-245763670Y-109564482D01*
X-245658561Y-109761126D01*
X-245452370Y-110012371D01*
X-245389411Y-110064040D01*
X-243364040Y-112089412D01*
X-243312371Y-112152371D01*
X-243061126Y-112358562D01*
X-242774483Y-112511777D01*
X-242463456Y-112606125D01*
X-242221052Y-112630000D01*
X-242221043Y-112630000D01*
X-242140001Y-112637982D01*
X-242058959Y-112630000D01*
X-201491042Y-112630000D01*
X-201410000Y-112637982D01*
X-201328958Y-112630000D01*
X-201328948Y-112630000D01*
X-201086544Y-112606125D01*
X-200775517Y-112511777D01*
X-200488874Y-112358562D01*
X-200237629Y-112152371D01*
X-200185955Y-112089406D01*
X-190210587Y-102114039D01*
X-190147629Y-102062371D01*
X-189941438Y-101811126D01*
X-189788223Y-101524483D01*
X-189693875Y-101213456D01*
X-189670000Y-100971052D01*
X-189670000Y-100971051D01*
X-189662017Y-100890000D01*
X-189670000Y-100808948D01*
X-189670000Y-45361052D01*
X-189662017Y-45280000D01*
X-189693875Y-44956544D01*
X-189788223Y-44645517D01*
X-189941438Y-44358874D01*
X-190147629Y-44107629D01*
X-190398874Y-43901438D01*
X-190685517Y-43748223D01*
X-190996544Y-43653875D01*
X-191238948Y-43630000D01*
X-191320000Y-43622017D01*
X-191401052Y-43630000D01*
X-200846548Y-43630000D01*
X-199950587Y-42734039D01*
X-199887629Y-42682371D01*
X-199681438Y-42431126D01*
X-199528223Y-42144483D01*
X-199433875Y-41833456D01*
X-199410000Y-41591052D01*
X-199410000Y-41591051D01*
X-199402017Y-41510000D01*
X-199410000Y-41428948D01*
X-199410000Y-37288948D01*
X-199433875Y-37046544D01*
X-199528223Y-36735517D01*
X-199681438Y-36448874D01*
X-199887629Y-36197629D01*
X-200138874Y-35991438D01*
X-200425517Y-35838223D01*
X-200736544Y-35743875D01*
X-201060000Y-35712017D01*
X-201383455Y-35743875D01*
X-201694482Y-35838223D01*
X-201981125Y-35991438D01*
X-202232370Y-36197629D01*
X-202438561Y-36448874D01*
X-202591776Y-36735517D01*
X-202686124Y-37046544D01*
X-202709999Y-37288948D01*
X-202710000Y-40826548D01*
X-203713451Y-41830000D01*
X-210961052Y-41830000D01*
X-211203456Y-41853875D01*
X-211514483Y-41948223D01*
X-211801126Y-42101438D01*
X-212052371Y-42307629D01*
X-212258562Y-42558874D01*
X-212411777Y-42845517D01*
X-212501044Y-43139795D01*
X-212580000Y-43132018D01*
X-212593227Y-43133321D01*
X-215240000Y-40486549D01*
X-215240000Y-36270000D01*
X-214583451Y-36270000D01*
X-213851753Y-37001699D01*
X-214068668Y-37146636D01*
X-214284564Y-37362532D01*
X-214454192Y-37616400D01*
X-214571035Y-37898482D01*
X-214630600Y-38197938D01*
X-214630600Y-38503262D01*
X-214571035Y-38802718D01*
X-214454192Y-39084800D01*
X-214284564Y-39338668D01*
X-214068668Y-39554564D01*
X-213814800Y-39724192D01*
X-213532718Y-39841035D01*
X-213233262Y-39900600D01*
X-212927938Y-39900600D01*
X-212628482Y-39841035D01*
X-212346400Y-39724192D01*
X-212092532Y-39554564D01*
X-211888027Y-39350059D01*
X-211691652Y-39369400D01*
X-211691642Y-39369400D01*
X-211610600Y-39377382D01*
X-211529558Y-39369400D01*
X-207919548Y-39369400D01*
X-207677144Y-39345525D01*
X-207366117Y-39251177D01*
X-207079474Y-39097962D01*
X-206828229Y-38891771D01*
X-206622038Y-38640526D01*
X-206468823Y-38353883D01*
X-206374475Y-38042856D01*
X-206342617Y-37719400D01*
X-206374475Y-37395944D01*
X-206468823Y-37084917D01*
X-206622038Y-36798274D01*
X-206828229Y-36547029D01*
X-207079474Y-36340838D01*
X-207366117Y-36187623D01*
X-207677144Y-36093275D01*
X-207919548Y-36069400D01*
X-210188396Y-36069400D01*
X-210231438Y-35988874D01*
X-210437629Y-35737629D01*
X-210500588Y-35685960D01*
X-212221299Y-33965250D01*
X-212133245Y-33928777D01*
X-211810600Y-33713192D01*
X-211487955Y-33928777D01*
X-211123978Y-34079541D01*
X-210737583Y-34156400D01*
X-210343617Y-34156400D01*
X-209957222Y-34079541D01*
X-209593245Y-33928777D01*
X-209270600Y-33713192D01*
X-208947955Y-33928777D01*
X-208583978Y-34079541D01*
X-208197583Y-34156400D01*
X-207803617Y-34156400D01*
X-207417222Y-34079541D01*
X-207053245Y-33928777D01*
X-206730600Y-33713192D01*
X-206407955Y-33928777D01*
X-206043978Y-34079541D01*
X-205657583Y-34156400D01*
X-205384833Y-34156400D01*
X-205421777Y-34225517D01*
X-205516125Y-34536544D01*
X-205547983Y-34860000D01*
X-205516125Y-35183456D01*
X-205421777Y-35494483D01*
X-205268562Y-35781126D01*
X-205062371Y-36032371D01*
X-204811126Y-36238562D01*
X-204524483Y-36391777D01*
X-204213456Y-36486125D01*
X-203971052Y-36510000D01*
X-203971042Y-36510000D01*
X-203890000Y-36517982D01*
X-203808958Y-36510000D01*
X-203808948Y-36510000D01*
X-203566544Y-36486125D01*
X-203255517Y-36391777D01*
X-202968874Y-36238562D01*
X-202717629Y-36032371D01*
X-202665956Y-35969407D01*
X-199860588Y-33164040D01*
X-199797629Y-33112371D01*
X-199591438Y-32861126D01*
X-199438223Y-32574483D01*
X-199343875Y-32263456D01*
X-199320000Y-32021052D01*
X-199312017Y-31940000D01*
X-199320000Y-31858948D01*
X-199320000Y-24781041D01*
X-199312018Y-24699999D01*
X-199320000Y-24618958D01*
X-199320000Y-24618948D01*
X-199343875Y-24376544D01*
X-199438223Y-24065517D01*
X-199591438Y-23778874D01*
X-199797629Y-23527629D01*
X-199803121Y-23523122D01*
X-199807629Y-23517629D01*
X-200058874Y-23311438D01*
X-200345517Y-23158223D01*
X-200656544Y-23063875D01*
X-200898948Y-23040000D01*
X-200898958Y-23040000D01*
X-200980000Y-23032018D01*
X-201061042Y-23040000D01*
X-224397150Y-23040000D01*
X-224608544Y-22975875D01*
X-224932000Y-22944017D01*
X-225255455Y-22975875D01*
X-225466849Y-23040000D01*
X-237501052Y-23040000D01*
X-237743456Y-23063875D01*
X-238054483Y-23158223D01*
X-238341126Y-23311438D01*
X-238592371Y-23517629D01*
X-238798562Y-23768874D01*
X-238951777Y-24055517D01*
X-239046125Y-24366544D01*
X-239077983Y-24690000D01*
X-239046125Y-25013456D01*
X-238951777Y-25324483D01*
X-238798562Y-25611126D01*
X-238592371Y-25862371D01*
X-238341126Y-26068562D01*
X-238054483Y-26221777D01*
X-237743456Y-26316125D01*
X-237501052Y-26340000D01*
X-226582000Y-26340000D01*
X-226582000Y-27354947D01*
X-226585156Y-27386991D01*
X-226585156Y-27411551D01*
X-226587564Y-27436000D01*
X-226587564Y-27936000D01*
X-226585156Y-27960449D01*
X-226585156Y-27985009D01*
X-226562952Y-28210448D01*
X-226543830Y-28306581D01*
X-226478074Y-28523352D01*
X-226440565Y-28613908D01*
X-226333777Y-28813696D01*
X-226279321Y-28895195D01*
X-226135612Y-29070304D01*
X-226066304Y-29139612D01*
X-225891195Y-29283321D01*
X-225809696Y-29337777D01*
X-225609908Y-29444565D01*
X-225519352Y-29482074D01*
X-225302581Y-29547830D01*
X-225206448Y-29566952D01*
X-224981009Y-29589156D01*
X-224956449Y-29589156D01*
X-224932000Y-29591564D01*
X-224432000Y-29591564D01*
X-224206561Y-29569360D01*
X-223989785Y-29503602D01*
X-223790003Y-29396816D01*
X-223614893Y-29253107D01*
X-223471184Y-29077997D01*
X-223364398Y-28878215D01*
X-223298640Y-28661439D01*
X-223276436Y-28436000D01*
X-223276436Y-26936000D01*
X-223282000Y-26879508D01*
X-223282000Y-26340000D01*
X-202620000Y-26340000D01*
X-202619999Y-31256547D01*
X-203460600Y-32097148D01*
X-203460600Y-31959417D01*
X-203537459Y-31573022D01*
X-203688223Y-31209045D01*
X-203903808Y-30886400D01*
X-203688223Y-30563755D01*
X-203537459Y-30199778D01*
X-203460600Y-29813383D01*
X-203460600Y-29419417D01*
X-203537459Y-29033022D01*
X-203688223Y-28669045D01*
X-203907099Y-28341474D01*
X-204185674Y-28062899D01*
X-204513245Y-27844023D01*
X-204877222Y-27693259D01*
X-205263617Y-27616400D01*
X-205657583Y-27616400D01*
X-206043978Y-27693259D01*
X-206407955Y-27844023D01*
X-206730600Y-28059608D01*
X-207053245Y-27844023D01*
X-207417222Y-27693259D01*
X-207803617Y-27616400D01*
X-208197583Y-27616400D01*
X-208583978Y-27693259D01*
X-208947955Y-27844023D01*
X-209270600Y-28059608D01*
X-209593245Y-27844023D01*
X-209957222Y-27693259D01*
X-210343617Y-27616400D01*
X-210737583Y-27616400D01*
X-211123978Y-27693259D01*
X-211487955Y-27844023D01*
X-211810600Y-28059608D01*
X-212133245Y-27844023D01*
X-212497222Y-27693259D01*
X-212883617Y-27616400D01*
X-213277583Y-27616400D01*
X-213663978Y-27693259D01*
X-214027955Y-27844023D01*
X-214355526Y-28062899D01*
X-214459051Y-28166424D01*
X-214480158Y-27961651D01*
X-214824897Y-27770957D01*
X-215200214Y-27651183D01*
X-215591687Y-27606931D01*
X-215984271Y-27639901D01*
X-216362879Y-27748827D01*
X-216712961Y-27929523D01*
X-216761042Y-27961651D01*
X-216802494Y-28363795D01*
X-215620600Y-29545689D01*
X-215606458Y-29531547D01*
X-215535747Y-29602258D01*
X-215549889Y-29616400D01*
X-215535747Y-29630542D01*
X-215606458Y-29701253D01*
X-215620600Y-29687111D01*
X-215634742Y-29701253D01*
X-215705453Y-29630542D01*
X-215691311Y-29616400D01*
X-216873205Y-28434506D01*
X-217275349Y-28475958D01*
X-217466043Y-28820697D01*
X-217585817Y-29196014D01*
X-217630069Y-29587487D01*
X-217597099Y-29980071D01*
X-217488173Y-30358679D01*
X-217317912Y-30688544D01*
X-217389284Y-30775510D01*
X-217519172Y-31018514D01*
X-217599156Y-31282188D01*
X-217626164Y-31556400D01*
X-217626164Y-32756400D01*
X-217605126Y-32970000D01*
X-221648948Y-32970000D01*
X-221730000Y-32962017D01*
X-221811052Y-32970000D01*
X-222053456Y-32993875D01*
X-222364483Y-33088223D01*
X-222651126Y-33241438D01*
X-222902371Y-33447629D01*
X-223108562Y-33698874D01*
X-223261777Y-33985517D01*
X-223356125Y-34296544D01*
X-223387983Y-34620000D01*
X-223380000Y-34701052D01*
X-223380000Y-35386547D01*
X-225714038Y-37720587D01*
X-225868561Y-37908874D01*
X-226021777Y-38195518D01*
X-226116124Y-38506544D01*
X-226147982Y-38830000D01*
X-226116124Y-39153456D01*
X-226021777Y-39464482D01*
X-225868561Y-39751126D01*
X-225662371Y-40002371D01*
X-225411126Y-40208561D01*
X-225124482Y-40361777D01*
X-224813456Y-40456124D01*
X-224490000Y-40487982D01*
X-224166544Y-40456124D01*
X-223855518Y-40361777D01*
X-223568874Y-40208561D01*
X-223380587Y-40054038D01*
X-220620583Y-37294036D01*
X-220557629Y-37242371D01*
X-220351438Y-36991126D01*
X-220198223Y-36704483D01*
X-220103875Y-36393456D01*
X-220091715Y-36270000D01*
X-218539999Y-36270000D01*
X-218540000Y-38916399D01*
X-218581438Y-38838874D01*
X-218787629Y-38587629D01*
X-219038874Y-38381438D01*
X-219325517Y-38228223D01*
X-219636544Y-38133875D01*
X-219878948Y-38110000D01*
X-219960000Y-38102017D01*
X-220041052Y-38110000D01*
X-220283456Y-38133875D01*
X-220594483Y-38228223D01*
X-220881126Y-38381438D01*
X-221132371Y-38587629D01*
X-221338562Y-38838874D01*
X-221491777Y-39125517D01*
X-221586125Y-39436544D01*
X-221617983Y-39760000D01*
X-221609999Y-39841061D01*
X-221610000Y-41588958D01*
X-221617982Y-41670000D01*
X-221610000Y-41751042D01*
X-221610000Y-41751051D01*
X-221586125Y-41993455D01*
X-221491777Y-42304482D01*
X-221338562Y-42591125D01*
X-221132371Y-42842371D01*
X-221069407Y-42894045D01*
X-220553451Y-43410000D01*
X-237412315Y-43410000D01*
X-237404436Y-43330000D01*
X-237404436Y-40830000D01*
X-237426640Y-40604561D01*
X-237492398Y-40387785D01*
X-237599184Y-40188003D01*
X-237742893Y-40012893D01*
X-237918003Y-39869184D01*
X-238117785Y-39762398D01*
X-238260000Y-39719258D01*
X-238260000Y-37781052D01*
X-238252017Y-37700000D01*
X-238283875Y-37376544D01*
X-238378223Y-37065517D01*
X-238531438Y-36778874D01*
X-238737629Y-36527629D01*
X-238988874Y-36321438D01*
X-239275517Y-36168223D01*
X-239586544Y-36073875D01*
X-239828948Y-36050000D01*
X-239910000Y-36042017D01*
X-239991052Y-36050000D01*
X-240233456Y-36073875D01*
X-240544483Y-36168223D01*
X-240831126Y-36321438D01*
X-241082371Y-36527629D01*
X-241288562Y-36778874D01*
X-241441777Y-37065517D01*
X-241536125Y-37376544D01*
X-241567983Y-37700000D01*
X-241559999Y-37781062D01*
X-241559999Y-39793285D01*
X-241701997Y-39869184D01*
X-241877107Y-40012893D01*
X-242020816Y-40188003D01*
X-242127602Y-40387785D01*
X-242193360Y-40604561D01*
X-242215564Y-40830000D01*
X-242215564Y-43330000D01*
X-242193360Y-43555439D01*
X-242152346Y-43690646D01*
X-242392371Y-43887629D01*
X-242444041Y-43950589D01*
X-242729412Y-44235961D01*
X-242792370Y-44287629D01*
X-242905532Y-44425518D01*
X-242998561Y-44538874D01*
X-243151777Y-44825518D01*
X-243246124Y-45136544D01*
X-243277982Y-45460000D01*
X-243269999Y-45541051D01*
X-243270000Y-46656548D01*
X-244973451Y-48360000D01*
X-263836549Y-48360000D01*
X-264115955Y-48080594D01*
X-264167629Y-48017629D01*
X-264418874Y-47811438D01*
X-264705517Y-47658223D01*
X-265016544Y-47563875D01*
X-265258948Y-47540000D01*
X-265258958Y-47540000D01*
X-265340000Y-47532018D01*
X-265421042Y-47540000D01*
X-268196547Y-47540000D01*
X-268689933Y-47046615D01*
X-268656130Y-47039891D01*
X-268228457Y-46862743D01*
X-267843562Y-46605564D01*
X-267516236Y-46278238D01*
X-267259057Y-45893343D01*
X-267081909Y-45465670D01*
X-266991600Y-45011655D01*
X-266991600Y-44548745D01*
X-267081909Y-44094730D01*
X-267259057Y-43667057D01*
X-267516236Y-43282162D01*
X-267843562Y-42954836D01*
X-268228457Y-42697657D01*
X-268656130Y-42520509D01*
X-269110145Y-42430200D01*
X-269573055Y-42430200D01*
X-270027070Y-42520509D01*
X-270454743Y-42697657D01*
X-270839638Y-42954836D01*
X-271166964Y-43282162D01*
X-271424143Y-43667057D01*
X-271601291Y-44094730D01*
X-271626567Y-44221803D01*
X-271745517Y-44158223D01*
X-272056544Y-44063875D01*
X-272298948Y-44040000D01*
X-272298958Y-44040000D01*
X-272380000Y-44032018D01*
X-272461042Y-44040000D01*
X-276018376Y-44040000D01*
X-276014436Y-44000000D01*
X-276014436Y-42300000D01*
X-276036640Y-42074561D01*
X-276102398Y-41857785D01*
X-276209184Y-41658003D01*
X-276352893Y-41482893D01*
X-276514824Y-41350000D01*
X-268763451Y-41350000D01*
X-267044040Y-43069412D01*
X-266992371Y-43132371D01*
X-266754017Y-43327983D01*
X-266741126Y-43338562D01*
X-266454483Y-43491777D01*
X-266143456Y-43586125D01*
X-265820000Y-43617983D01*
X-265738948Y-43610000D01*
X-251066019Y-43610000D01*
X-251104143Y-43667057D01*
X-251281291Y-44094730D01*
X-251371600Y-44548745D01*
X-251371600Y-45011655D01*
X-251281291Y-45465670D01*
X-251104143Y-45893343D01*
X-250846964Y-46278238D01*
X-250519638Y-46605564D01*
X-250134743Y-46862743D01*
X-249707070Y-47039891D01*
X-249253055Y-47130200D01*
X-248790145Y-47130200D01*
X-248336130Y-47039891D01*
X-247908457Y-46862743D01*
X-247523562Y-46605564D01*
X-247196236Y-46278238D01*
X-246939057Y-45893343D01*
X-246761909Y-45465670D01*
X-246671600Y-45011655D01*
X-246671600Y-44548745D01*
X-246761909Y-44094730D01*
X-246939057Y-43667057D01*
X-247196236Y-43282162D01*
X-247371600Y-43106798D01*
X-247371600Y-42009442D01*
X-247363618Y-41928401D01*
X-247371600Y-41847359D01*
X-247371600Y-41847348D01*
X-247395475Y-41604944D01*
X-247489823Y-41293917D01*
X-247643038Y-41007274D01*
X-247849229Y-40756029D01*
X-248100474Y-40549838D01*
X-248387117Y-40396623D01*
X-248698144Y-40302275D01*
X-249021600Y-40270417D01*
X-249345055Y-40302275D01*
X-249370521Y-40310000D01*
X-258090898Y-40310000D01*
X-258051932Y-40283964D01*
X-257836036Y-40068068D01*
X-257666408Y-39814200D01*
X-257549565Y-39532118D01*
X-257490000Y-39232662D01*
X-257490000Y-38927338D01*
X-257549565Y-38627882D01*
X-257666408Y-38345800D01*
X-257836036Y-38091932D01*
X-258051932Y-37876036D01*
X-258305800Y-37706408D01*
X-258587882Y-37589565D01*
X-258887338Y-37530000D01*
X-259192662Y-37530000D01*
X-259492118Y-37589565D01*
X-259774200Y-37706408D01*
X-260028068Y-37876036D01*
X-260243964Y-38091932D01*
X-260413592Y-38345800D01*
X-260530435Y-38627882D01*
X-260544571Y-38698947D01*
X-260576859Y-38536622D01*
X-260727623Y-38172645D01*
X-260747442Y-38142984D01*
X-260689184Y-38071997D01*
X-260582398Y-37872215D01*
X-260516640Y-37655439D01*
X-260494436Y-37430000D01*
X-260494436Y-36990000D01*
X-249305564Y-36990000D01*
X-249305564Y-38690000D01*
X-249283360Y-38915439D01*
X-249217602Y-39132215D01*
X-249110816Y-39331997D01*
X-248967107Y-39507107D01*
X-248791997Y-39650816D01*
X-248592215Y-39757602D01*
X-248375439Y-39823360D01*
X-248150000Y-39845564D01*
X-246450000Y-39845564D01*
X-246224561Y-39823360D01*
X-246007785Y-39757602D01*
X-245808003Y-39650816D01*
X-245737016Y-39592558D01*
X-245707355Y-39612377D01*
X-245343378Y-39763141D01*
X-244956983Y-39840000D01*
X-244563017Y-39840000D01*
X-244176622Y-39763141D01*
X-243812645Y-39612377D01*
X-243485074Y-39393501D01*
X-243206499Y-39114926D01*
X-242987623Y-38787355D01*
X-242836859Y-38423378D01*
X-242760000Y-38036983D01*
X-242760000Y-37643017D01*
X-242836859Y-37256622D01*
X-242987623Y-36892645D01*
X-243206499Y-36565074D01*
X-243485074Y-36286499D01*
X-243812645Y-36067623D01*
X-244176622Y-35916859D01*
X-244563017Y-35840000D01*
X-244956983Y-35840000D01*
X-245343378Y-35916859D01*
X-245707355Y-36067623D01*
X-245737016Y-36087442D01*
X-245808003Y-36029184D01*
X-246007785Y-35922398D01*
X-246224561Y-35856640D01*
X-246450000Y-35834436D01*
X-248150000Y-35834436D01*
X-248375439Y-35856640D01*
X-248592215Y-35922398D01*
X-248791997Y-36029184D01*
X-248967107Y-36172893D01*
X-249110816Y-36348003D01*
X-249217602Y-36547785D01*
X-249283360Y-36764561D01*
X-249305564Y-36990000D01*
X-260494436Y-36990000D01*
X-260494436Y-35730000D01*
X-260516640Y-35504561D01*
X-260582398Y-35287785D01*
X-260689184Y-35088003D01*
X-260832893Y-34912893D01*
X-261008003Y-34769184D01*
X-261207785Y-34662398D01*
X-261424561Y-34596640D01*
X-261650000Y-34574436D01*
X-263350000Y-34574436D01*
X-263575439Y-34596640D01*
X-263792215Y-34662398D01*
X-263991997Y-34769184D01*
X-264167107Y-34912893D01*
X-264310816Y-35088003D01*
X-264417602Y-35287785D01*
X-264483360Y-35504561D01*
X-264505564Y-35730000D01*
X-264505564Y-37430000D01*
X-264483360Y-37655439D01*
X-264417602Y-37872215D01*
X-264310816Y-38071997D01*
X-264252558Y-38142984D01*
X-264272377Y-38172645D01*
X-264423141Y-38536622D01*
X-264500000Y-38923017D01*
X-264500000Y-39316983D01*
X-264423141Y-39703378D01*
X-264272377Y-40067355D01*
X-264110247Y-40310000D01*
X-265136548Y-40310000D01*
X-266855956Y-38590593D01*
X-266907629Y-38527629D01*
X-267158874Y-38321438D01*
X-267445517Y-38168223D01*
X-267756544Y-38073875D01*
X-267998948Y-38050000D01*
X-267998958Y-38050000D01*
X-268080000Y-38042018D01*
X-268161042Y-38050000D01*
X-286258959Y-38050000D01*
X-286340001Y-38042018D01*
X-286421043Y-38050000D01*
X-286421052Y-38050000D01*
X-286663456Y-38073875D01*
X-286974483Y-38168223D01*
X-287261126Y-38321438D01*
X-287261128Y-38321439D01*
X-287261127Y-38321439D01*
X-287449415Y-38475962D01*
X-287449418Y-38475965D01*
X-287512371Y-38527629D01*
X-287564036Y-38590583D01*
X-288694038Y-39720587D01*
X-288848561Y-39908874D01*
X-289001777Y-40195518D01*
X-289096124Y-40506544D01*
X-289127982Y-40830000D01*
X-289096124Y-41153456D01*
X-289001777Y-41464482D01*
X-288848561Y-41751126D01*
X-288642371Y-42002371D01*
X-288391126Y-42208561D01*
X-288104482Y-42361777D01*
X-287793456Y-42456124D01*
X-287470000Y-42487982D01*
X-287146544Y-42456124D01*
X-286835518Y-42361777D01*
X-286548874Y-42208561D01*
X-286360587Y-42054038D01*
X-285656548Y-41350000D01*
X-279525176Y-41350000D01*
X-279687107Y-41482893D01*
X-279830816Y-41658003D01*
X-279937602Y-41857785D01*
X-280003360Y-42074561D01*
X-280025564Y-42300000D01*
X-280025564Y-44000000D01*
X-280003360Y-44225439D01*
X-279937602Y-44442215D01*
X-279830816Y-44641997D01*
X-279772558Y-44712984D01*
X-279792377Y-44742645D01*
X-279943141Y-45106622D01*
X-280020000Y-45493017D01*
X-280020000Y-45886983D01*
X-279943141Y-46273378D01*
X-279792377Y-46637355D01*
X-279576792Y-46960000D01*
X-279792377Y-47282645D01*
X-279943141Y-47646622D01*
X-280020000Y-48033017D01*
X-280020000Y-48426983D01*
X-279943141Y-48813378D01*
X-279792377Y-49177355D01*
X-279573501Y-49504926D01*
X-279294926Y-49783501D01*
X-279152616Y-49878589D01*
X-279212371Y-49927629D01*
X-279418562Y-50178874D01*
X-279571777Y-50465517D01*
X-279666125Y-50776544D01*
X-279697983Y-51100000D01*
X-279666125Y-51423456D01*
X-279571777Y-51734483D01*
X-279418562Y-52021126D01*
X-279212371Y-52272371D01*
X-278961126Y-52478562D01*
X-278674483Y-52631777D01*
X-278363456Y-52726125D01*
X-278121052Y-52750000D01*
X-276291042Y-52750000D01*
X-276210000Y-52757982D01*
X-276128958Y-52750000D01*
X-276128948Y-52750000D01*
X-275886544Y-52726125D01*
X-275575517Y-52631777D01*
X-275288874Y-52478562D01*
X-275037629Y-52272371D01*
X-274985956Y-52209407D01*
X-271590000Y-48813452D01*
X-270104036Y-50299417D01*
X-270052371Y-50362371D01*
X-269989418Y-50414035D01*
X-269989415Y-50414038D01*
X-269926687Y-50465517D01*
X-269801126Y-50568562D01*
X-269514483Y-50721777D01*
X-269203456Y-50816125D01*
X-268961052Y-50840000D01*
X-268961043Y-50840000D01*
X-268880001Y-50847982D01*
X-268798959Y-50840000D01*
X-266023451Y-50840000D01*
X-265744045Y-51119406D01*
X-265692371Y-51182371D01*
X-265441126Y-51388562D01*
X-265154483Y-51541777D01*
X-264843456Y-51636125D01*
X-264601052Y-51660000D01*
X-264601043Y-51660000D01*
X-264520001Y-51667982D01*
X-264438959Y-51660000D01*
X-244443451Y-51660000D01*
X-244479411Y-51695960D01*
X-244542370Y-51747629D01*
X-244699064Y-51938562D01*
X-244748561Y-51998874D01*
X-244901777Y-52285518D01*
X-244996124Y-52596544D01*
X-245027982Y-52920000D01*
X-245019999Y-53001052D01*
X-245020000Y-58951566D01*
X-245171777Y-59235518D01*
X-245266124Y-59546544D01*
X-245297982Y-59870000D01*
X-245289999Y-59951051D01*
X-245289999Y-60280000D01*
X-246958948Y-60280000D01*
X-247040000Y-60272017D01*
X-247121052Y-60280000D01*
X-247363456Y-60303875D01*
X-247674483Y-60398223D01*
X-247961126Y-60551438D01*
X-248212371Y-60757629D01*
X-248418562Y-61008874D01*
X-248571777Y-61295517D01*
X-248666125Y-61606544D01*
X-248697983Y-61930000D01*
X-248689999Y-62011061D01*
X-248690000Y-64248958D01*
X-248697982Y-64330000D01*
X-248690000Y-64411042D01*
X-248690000Y-64411051D01*
X-248666125Y-64653455D01*
X-248571777Y-64964482D01*
X-248449999Y-65192311D01*
X-248450000Y-67167691D01*
X-248571777Y-67395518D01*
X-248625347Y-67572118D01*
X-248666124Y-67706544D01*
X-248690000Y-67948948D01*
X-248690000Y-67948958D01*
X-248697982Y-68030000D01*
X-248690000Y-68111042D01*
X-248690000Y-69771051D01*
X-248666125Y-70013455D01*
X-248585270Y-70280000D01*
X-261785548Y-70280000D01*
X-261866600Y-70272017D01*
X-261947652Y-70280000D01*
X-262190056Y-70303875D01*
X-262501083Y-70398223D01*
X-262787726Y-70551438D01*
X-263038971Y-70757629D01*
X-263090640Y-70820588D01*
X-263732388Y-71462336D01*
X-263854500Y-71462336D01*
X-263979500Y-71474648D01*
X-264104500Y-71462336D01*
X-264254500Y-71462336D01*
X-264254500Y-65205552D01*
X-264246517Y-65124500D01*
X-264278375Y-64801044D01*
X-264372723Y-64490017D01*
X-264525938Y-64203374D01*
X-264732129Y-63952129D01*
X-264983374Y-63745938D01*
X-265270017Y-63592723D01*
X-265581044Y-63498375D01*
X-265823448Y-63474500D01*
X-265904500Y-63466517D01*
X-265985552Y-63474500D01*
X-266227956Y-63498375D01*
X-266538983Y-63592723D01*
X-266825626Y-63745938D01*
X-267076871Y-63952129D01*
X-267283062Y-64203374D01*
X-267436277Y-64490017D01*
X-267530625Y-64801044D01*
X-267562483Y-65124500D01*
X-267554499Y-65205562D01*
X-267554500Y-70592048D01*
X-275013308Y-63133240D01*
X-274975518Y-63121777D01*
X-274688875Y-62968562D01*
X-274437629Y-62762371D01*
X-274231438Y-62511126D01*
X-274078223Y-62224483D01*
X-273983875Y-61913456D01*
X-273969002Y-61762454D01*
X-271550479Y-59343932D01*
X-271516074Y-59457352D01*
X-271478565Y-59547908D01*
X-271371777Y-59747696D01*
X-271370000Y-59750355D01*
X-271370000Y-60568948D01*
X-271377983Y-60650000D01*
X-271346125Y-60973456D01*
X-271251777Y-61284483D01*
X-271098562Y-61571126D01*
X-270892371Y-61822371D01*
X-270641126Y-62028562D01*
X-270354483Y-62181777D01*
X-270043456Y-62276125D01*
X-269801052Y-62300000D01*
X-269720000Y-62307983D01*
X-269396544Y-62276125D01*
X-269085517Y-62181777D01*
X-268798874Y-62028562D01*
X-268547629Y-61822371D01*
X-268341438Y-61571126D01*
X-268188223Y-61284483D01*
X-268093875Y-60973456D01*
X-268070000Y-60731052D01*
X-268062017Y-60650000D01*
X-268070000Y-60568948D01*
X-268070000Y-59750355D01*
X-268068223Y-59747696D01*
X-267961435Y-59547908D01*
X-267923926Y-59457352D01*
X-267858170Y-59240581D01*
X-267839048Y-59144448D01*
X-267816844Y-58919009D01*
X-267816844Y-58894449D01*
X-267814436Y-58870000D01*
X-267814436Y-58320000D01*
X-267826748Y-58195000D01*
X-267814436Y-58070000D01*
X-267814436Y-57070000D01*
X-267836640Y-56844561D01*
X-267902398Y-56627785D01*
X-268009184Y-56428003D01*
X-268152893Y-56252893D01*
X-268328003Y-56109184D01*
X-268527785Y-56002398D01*
X-268744561Y-55936640D01*
X-268970000Y-55914436D01*
X-270470000Y-55914436D01*
X-270526492Y-55920000D01*
X-272028959Y-55920000D01*
X-272110001Y-55912018D01*
X-272191043Y-55920000D01*
X-272191052Y-55920000D01*
X-272433456Y-55943875D01*
X-272744483Y-56038223D01*
X-273031126Y-56191438D01*
X-273031128Y-56191439D01*
X-273031127Y-56191439D01*
X-273219415Y-56345962D01*
X-273219418Y-56345965D01*
X-273282371Y-56397629D01*
X-273334036Y-56460583D01*
X-276719408Y-59845957D01*
X-276782371Y-59897629D01*
X-276988562Y-60148874D01*
X-277141777Y-60435517D01*
X-277236125Y-60746544D01*
X-277250725Y-60894781D01*
X-277297629Y-60837629D01*
X-277548874Y-60631438D01*
X-277835517Y-60478223D01*
X-278146544Y-60383875D01*
X-278388948Y-60360000D01*
X-278388958Y-60360000D01*
X-278470000Y-60352018D01*
X-278551042Y-60360000D01*
X-292966548Y-60360000D01*
X-296629626Y-56696922D01*
X-291102721Y-56696922D01*
X-290976945Y-57140100D01*
X-290767126Y-57550225D01*
X-290481327Y-57911536D01*
X-290130532Y-58210148D01*
X-289728221Y-58434586D01*
X-289289854Y-58576224D01*
X-289206922Y-58592720D01*
X-288840000Y-58341894D01*
X-288840000Y-56330000D01*
X-288740000Y-56330000D01*
X-288740000Y-58341894D01*
X-288373078Y-58592720D01*
X-288290146Y-58576224D01*
X-287851779Y-58434586D01*
X-287449468Y-58210148D01*
X-287098673Y-57911536D01*
X-286812874Y-57550225D01*
X-286603055Y-57140100D01*
X-286562421Y-56996922D01*
X-281122721Y-56996922D01*
X-280996945Y-57440100D01*
X-280787126Y-57850225D01*
X-280501327Y-58211536D01*
X-280150532Y-58510148D01*
X-279748221Y-58734586D01*
X-279309854Y-58876224D01*
X-279226922Y-58892720D01*
X-278860000Y-58641894D01*
X-278860000Y-56630000D01*
X-278760000Y-56630000D01*
X-278760000Y-58641894D01*
X-278393078Y-58892720D01*
X-278310146Y-58876224D01*
X-277871779Y-58734586D01*
X-277469468Y-58510148D01*
X-277118673Y-58211536D01*
X-276832874Y-57850225D01*
X-276623055Y-57440100D01*
X-276497279Y-56996922D01*
X-276748031Y-56630000D01*
X-278760000Y-56630000D01*
X-278860000Y-56630000D01*
X-280871969Y-56630000D01*
X-281122721Y-56996922D01*
X-286562421Y-56996922D01*
X-286477279Y-56696922D01*
X-286728031Y-56330000D01*
X-288740000Y-56330000D01*
X-288840000Y-56330000D01*
X-290851969Y-56330000D01*
X-291102721Y-56696922D01*
X-296629626Y-56696922D01*
X-297340000Y-55986549D01*
X-297340000Y-55863078D01*
X-291102721Y-55863078D01*
X-290851969Y-56230000D01*
X-288840000Y-56230000D01*
X-288840000Y-54218106D01*
X-288740000Y-54218106D01*
X-288740000Y-56230000D01*
X-286728031Y-56230000D01*
X-286682297Y-56163078D01*
X-281122721Y-56163078D01*
X-280871969Y-56530000D01*
X-278860000Y-56530000D01*
X-278860000Y-54518106D01*
X-278760000Y-54518106D01*
X-278760000Y-56530000D01*
X-276748031Y-56530000D01*
X-276497279Y-56163078D01*
X-276569103Y-55910000D01*
X-263127983Y-55910000D01*
X-263096125Y-56233456D01*
X-263001777Y-56544483D01*
X-262848562Y-56831126D01*
X-262642371Y-57082371D01*
X-262391126Y-57288562D01*
X-262104483Y-57441777D01*
X-261793456Y-57536125D01*
X-261551052Y-57560000D01*
X-261078820Y-57560000D01*
X-261095564Y-57730000D01*
X-261095564Y-60230000D01*
X-261073360Y-60455439D01*
X-261007602Y-60672215D01*
X-260900816Y-60871997D01*
X-260757107Y-61047107D01*
X-260581997Y-61190816D01*
X-260382215Y-61297602D01*
X-260339999Y-61310408D01*
X-260339999Y-62038939D01*
X-260347983Y-62120000D01*
X-260316125Y-62443456D01*
X-260221777Y-62754483D01*
X-260068562Y-63041126D01*
X-259862371Y-63292371D01*
X-259611126Y-63498562D01*
X-259324483Y-63651777D01*
X-259013456Y-63746125D01*
X-258771052Y-63770000D01*
X-258690000Y-63777983D01*
X-258608948Y-63770000D01*
X-258266315Y-63770000D01*
X-258256125Y-63873455D01*
X-258161777Y-64184482D01*
X-258008562Y-64471125D01*
X-257802371Y-64722371D01*
X-257551126Y-64928562D01*
X-257264483Y-65081777D01*
X-256953456Y-65176125D01*
X-256630000Y-65207983D01*
X-256306545Y-65176125D01*
X-255995518Y-65081777D01*
X-255708875Y-64928562D01*
X-255457629Y-64722371D01*
X-255251438Y-64471126D01*
X-255098223Y-64184483D01*
X-255003875Y-63873456D01*
X-254980000Y-63631052D01*
X-254980000Y-62361041D01*
X-254972018Y-62279999D01*
X-254980000Y-62198958D01*
X-254980000Y-62198948D01*
X-255003875Y-61956544D01*
X-255098223Y-61645517D01*
X-255251438Y-61358874D01*
X-255457629Y-61107629D01*
X-255520594Y-61055955D01*
X-255565955Y-61010594D01*
X-255617629Y-60947629D01*
X-255868874Y-60741438D01*
X-256155517Y-60588223D01*
X-256330791Y-60535055D01*
X-256306640Y-60455439D01*
X-256284436Y-60230000D01*
X-256284436Y-57730000D01*
X-256301180Y-57560000D01*
X-254725564Y-57560000D01*
X-254725564Y-59890000D01*
X-254703360Y-60115439D01*
X-254637602Y-60332215D01*
X-254530816Y-60531997D01*
X-254387107Y-60707107D01*
X-254211997Y-60850816D01*
X-254012215Y-60957602D01*
X-253970000Y-60970408D01*
X-253969999Y-64438948D01*
X-253977982Y-64520000D01*
X-253946124Y-64843456D01*
X-253851777Y-65154482D01*
X-253716621Y-65407338D01*
X-253698561Y-65441126D01*
X-253492370Y-65692371D01*
X-253429411Y-65744040D01*
X-253359413Y-65814038D01*
X-253171126Y-65968561D01*
X-252884482Y-66121777D01*
X-252573456Y-66216125D01*
X-252250000Y-66247983D01*
X-251926544Y-66216125D01*
X-251615518Y-66121777D01*
X-251328874Y-65968561D01*
X-251077629Y-65762371D01*
X-250871439Y-65511126D01*
X-250718223Y-65224482D01*
X-250623875Y-64913456D01*
X-250592017Y-64590000D01*
X-250623875Y-64266544D01*
X-250670000Y-64114489D01*
X-250670000Y-60970408D01*
X-250627785Y-60957602D01*
X-250428003Y-60850816D01*
X-250252893Y-60707107D01*
X-250109184Y-60531997D01*
X-250002398Y-60332215D01*
X-249936640Y-60115439D01*
X-249914436Y-59890000D01*
X-249914436Y-57390000D01*
X-249936640Y-57164561D01*
X-250002398Y-56947785D01*
X-250109184Y-56748003D01*
X-250252893Y-56572893D01*
X-250428003Y-56429184D01*
X-250627785Y-56322398D01*
X-250670000Y-56309592D01*
X-250670000Y-56001041D01*
X-250662018Y-55919999D01*
X-250670000Y-55838958D01*
X-250670000Y-55838948D01*
X-250693875Y-55596544D01*
X-250788223Y-55285517D01*
X-250941438Y-54998874D01*
X-251147629Y-54747629D01*
X-251153121Y-54743121D01*
X-251157629Y-54737629D01*
X-251408874Y-54531438D01*
X-251695517Y-54378223D01*
X-252006544Y-54283875D01*
X-252248948Y-54260000D01*
X-252248958Y-54260000D01*
X-252330000Y-54252018D01*
X-252411042Y-54260000D01*
X-261551052Y-54260000D01*
X-261793456Y-54283875D01*
X-262104483Y-54378223D01*
X-262391126Y-54531438D01*
X-262642371Y-54737629D01*
X-262848562Y-54988874D01*
X-263001777Y-55275517D01*
X-263096125Y-55586544D01*
X-263127983Y-55910000D01*
X-276569103Y-55910000D01*
X-276623055Y-55719900D01*
X-276832874Y-55309775D01*
X-277118673Y-54948464D01*
X-277469468Y-54649852D01*
X-277871779Y-54425414D01*
X-278310146Y-54283776D01*
X-278393078Y-54267280D01*
X-278760000Y-54518106D01*
X-278860000Y-54518106D01*
X-279226922Y-54267280D01*
X-279309854Y-54283776D01*
X-279748221Y-54425414D01*
X-280150532Y-54649852D01*
X-280501327Y-54948464D01*
X-280787126Y-55309775D01*
X-280996945Y-55719900D01*
X-281122721Y-56163078D01*
X-286682297Y-56163078D01*
X-286477279Y-55863078D01*
X-286603055Y-55419900D01*
X-286812874Y-55009775D01*
X-287098673Y-54648464D01*
X-287449468Y-54349852D01*
X-287851779Y-54125414D01*
X-288290146Y-53983776D01*
X-288373078Y-53967280D01*
X-288740000Y-54218106D01*
X-288840000Y-54218106D01*
X-289206922Y-53967280D01*
X-289289854Y-53983776D01*
X-289728221Y-54125414D01*
X-290130532Y-54349852D01*
X-290481327Y-54648464D01*
X-290767126Y-55009775D01*
X-290976945Y-55419900D01*
X-291102721Y-55863078D01*
X-297340000Y-55863078D01*
X-297340000Y-55738545D01*
X-297430309Y-55284530D01*
X-297607457Y-54856857D01*
X-297864636Y-54471962D01*
X-298191962Y-54144636D01*
X-298576857Y-53887457D01*
X-299004530Y-53710309D01*
X-299458545Y-53620000D01*
X-299921455Y-53620000D01*
X-300375470Y-53710309D01*
X-300803143Y-53887457D01*
X-301188038Y-54144636D01*
X-301515364Y-54471962D01*
X-301772543Y-54856857D01*
X-301949691Y-55284530D01*
X-302040000Y-55738545D01*
X-302040000Y-56201455D01*
X-301949691Y-56655470D01*
X-301772543Y-57083143D01*
X-301515364Y-57468038D01*
X-301188038Y-57795364D01*
X-300803143Y-58052543D01*
X-300375470Y-58229691D01*
X-299921455Y-58320000D01*
X-299673451Y-58320000D01*
X-294874040Y-63119412D01*
X-294822371Y-63182371D01*
X-294701597Y-63281487D01*
X-294571127Y-63388562D01*
X-294284483Y-63541777D01*
X-293973457Y-63636125D01*
X-293650000Y-63667983D01*
X-293568948Y-63660000D01*
X-279153451Y-63660000D01*
X-277343451Y-65470000D01*
X-277418948Y-65470000D01*
X-277500000Y-65462017D01*
X-277581052Y-65470000D01*
X-277823456Y-65493875D01*
X-277942545Y-65530000D01*
X-288768958Y-65530000D01*
X-288850000Y-65522018D01*
X-288931042Y-65530000D01*
X-303140000Y-65530000D01*
X-303140000Y-52891041D01*
X-303132018Y-52809999D01*
X-303140000Y-52728957D01*
X-303140000Y-52728948D01*
X-303163875Y-52486544D01*
X-303258223Y-52175517D01*
X-303411438Y-51888874D01*
X-303617629Y-51637629D01*
X-303680588Y-51585961D01*
X-304475956Y-50790593D01*
X-304527629Y-50727629D01*
X-304778874Y-50521438D01*
X-305000080Y-50403200D01*
X-285473564Y-50403200D01*
X-285468000Y-50665700D01*
X-285180500Y-50953200D01*
X-283968000Y-50953200D01*
X-283968000Y-51053200D01*
X-285180500Y-51053200D01*
X-285468000Y-51340700D01*
X-285473564Y-51603200D01*
X-285451360Y-51828639D01*
X-285385602Y-52045415D01*
X-285278816Y-52245197D01*
X-285135107Y-52420307D01*
X-284959997Y-52564016D01*
X-284760215Y-52670802D01*
X-284543439Y-52736560D01*
X-284318000Y-52758764D01*
X-284055500Y-52753200D01*
X-283768000Y-52465700D01*
X-283768000Y-51833378D01*
X-283668000Y-51983039D01*
X-283668000Y-52465700D01*
X-283380500Y-52753200D01*
X-283118000Y-52758764D01*
X-282892561Y-52736560D01*
X-282726802Y-52686278D01*
X-282390360Y-52753200D01*
X-282045640Y-52753200D01*
X-281707544Y-52685949D01*
X-281389064Y-52554030D01*
X-281102440Y-52362514D01*
X-280858686Y-52118760D01*
X-280667170Y-51832136D01*
X-280535251Y-51513656D01*
X-280468000Y-51175560D01*
X-280468000Y-50830840D01*
X-280535251Y-50492744D01*
X-280568000Y-50413681D01*
X-280568000Y-45003052D01*
X-280560017Y-44922000D01*
X-280585251Y-44665800D01*
X-280591875Y-44598544D01*
X-280686223Y-44287517D01*
X-280839438Y-44000874D01*
X-281045629Y-43749629D01*
X-281108592Y-43697957D01*
X-281280587Y-43525962D01*
X-281468874Y-43371439D01*
X-281755518Y-43218223D01*
X-282066544Y-43123876D01*
X-282390000Y-43092018D01*
X-282713456Y-43123876D01*
X-283024482Y-43218223D01*
X-283311126Y-43371439D01*
X-283562371Y-43577629D01*
X-283768561Y-43828874D01*
X-283921777Y-44115518D01*
X-284016124Y-44426544D01*
X-284047982Y-44750000D01*
X-284016124Y-45073456D01*
X-283921777Y-45384482D01*
X-283868000Y-45485091D01*
X-283867999Y-49440701D01*
X-284055500Y-49253200D01*
X-284318000Y-49247636D01*
X-284543439Y-49269840D01*
X-284760215Y-49335598D01*
X-284959997Y-49442384D01*
X-285135107Y-49586093D01*
X-285278816Y-49761203D01*
X-285385602Y-49960985D01*
X-285451360Y-50177761D01*
X-285473564Y-50403200D01*
X-305000080Y-50403200D01*
X-305065517Y-50368223D01*
X-305376544Y-50273875D01*
X-305618948Y-50250000D01*
X-305618958Y-50250000D01*
X-305700000Y-50242018D01*
X-305781042Y-50250000D01*
X-313070000Y-50250000D01*
X-313070000Y-46455924D01*
X-313049419Y-46451830D01*
X-312832648Y-46386074D01*
X-312742092Y-46348565D01*
X-312542304Y-46241777D01*
X-312539645Y-46240000D01*
X-307344800Y-46240000D01*
X-307046303Y-46439448D01*
X-306709625Y-46578905D01*
X-306352209Y-46650000D01*
X-305987791Y-46650000D01*
X-305630375Y-46578905D01*
X-305293697Y-46439448D01*
X-304990694Y-46236989D01*
X-304733011Y-45979306D01*
X-304530552Y-45676303D01*
X-304391095Y-45339625D01*
X-304320000Y-44982209D01*
X-304320000Y-44617791D01*
X-300400000Y-44617791D01*
X-300400000Y-44982209D01*
X-300328905Y-45339625D01*
X-300189448Y-45676303D01*
X-299986989Y-45979306D01*
X-299729306Y-46236989D01*
X-299426303Y-46439448D01*
X-299089625Y-46578905D01*
X-298732209Y-46650000D01*
X-298367791Y-46650000D01*
X-298010375Y-46578905D01*
X-297699172Y-46450000D01*
X-292477476Y-46450000D01*
X-292367908Y-46508565D01*
X-292277352Y-46546074D01*
X-292060581Y-46611830D01*
X-291964448Y-46630952D01*
X-291739009Y-46653156D01*
X-291714449Y-46653156D01*
X-291690000Y-46655564D01*
X-291190000Y-46655564D01*
X-291040000Y-46640790D01*
X-290890000Y-46655564D01*
X-290390000Y-46655564D01*
X-290365551Y-46653156D01*
X-290340991Y-46653156D01*
X-290115552Y-46630952D01*
X-290019419Y-46611830D01*
X-289802648Y-46546074D01*
X-289712092Y-46508565D01*
X-289512304Y-46401777D01*
X-289509645Y-46400000D01*
X-287488948Y-46400000D01*
X-287246544Y-46376125D01*
X-286935517Y-46281777D01*
X-286648874Y-46128562D01*
X-286397629Y-45922371D01*
X-286191438Y-45671126D01*
X-286038223Y-45384483D01*
X-285943875Y-45073456D01*
X-285912017Y-44750000D01*
X-285943875Y-44426544D01*
X-286038223Y-44115517D01*
X-286191438Y-43828874D01*
X-286397629Y-43577629D01*
X-286648874Y-43371438D01*
X-286935517Y-43218223D01*
X-287246544Y-43123875D01*
X-287488948Y-43100000D01*
X-289509645Y-43100000D01*
X-289512304Y-43098223D01*
X-289712092Y-42991435D01*
X-289802648Y-42953926D01*
X-290019419Y-42888170D01*
X-290115552Y-42869048D01*
X-290340991Y-42846844D01*
X-290365551Y-42846844D01*
X-290390000Y-42844436D01*
X-290890000Y-42844436D01*
X-291040000Y-42859210D01*
X-291190000Y-42844436D01*
X-291690000Y-42844436D01*
X-291714449Y-42846844D01*
X-291739009Y-42846844D01*
X-291964448Y-42869048D01*
X-292060581Y-42888170D01*
X-292277352Y-42953926D01*
X-292367908Y-42991435D01*
X-292567696Y-43098223D01*
X-292645186Y-43150000D01*
X-297699172Y-43150000D01*
X-298010375Y-43021095D01*
X-298367791Y-42950000D01*
X-298732209Y-42950000D01*
X-299089625Y-43021095D01*
X-299426303Y-43160552D01*
X-299729306Y-43363011D01*
X-299986989Y-43620694D01*
X-300189448Y-43923697D01*
X-300328905Y-44260375D01*
X-300400000Y-44617791D01*
X-304320000Y-44617791D01*
X-304391095Y-44260375D01*
X-304530552Y-43923697D01*
X-304733011Y-43620694D01*
X-304990694Y-43363011D01*
X-305293697Y-43160552D01*
X-305630375Y-43021095D01*
X-305987791Y-42950000D01*
X-306197418Y-42950000D01*
X-306298948Y-42940000D01*
X-306298958Y-42940000D01*
X-306380000Y-42932018D01*
X-306461042Y-42940000D01*
X-312539645Y-42940000D01*
X-312542304Y-42938223D01*
X-312742092Y-42831435D01*
X-312832648Y-42793926D01*
X-313049419Y-42728170D01*
X-313145552Y-42709048D01*
X-313370991Y-42686844D01*
X-313395551Y-42686844D01*
X-313420000Y-42684436D01*
X-313920000Y-42684436D01*
X-314070000Y-42699210D01*
X-314220000Y-42684436D01*
X-314720000Y-42684436D01*
X-314744449Y-42686844D01*
X-314769009Y-42686844D01*
X-314994448Y-42709048D01*
X-315090581Y-42728170D01*
X-315307352Y-42793926D01*
X-315397908Y-42831435D01*
X-315597696Y-42938223D01*
X-315679195Y-42992679D01*
X-315854304Y-43136388D01*
X-315923612Y-43205696D01*
X-316067321Y-43380805D01*
X-316121777Y-43462304D01*
X-316228565Y-43662092D01*
X-316266074Y-43752648D01*
X-316331830Y-43969419D01*
X-316350952Y-44065552D01*
X-316373156Y-44290991D01*
X-316373156Y-44315551D01*
X-316375564Y-44340000D01*
X-316375564Y-44840000D01*
X-316373156Y-44864449D01*
X-316373156Y-44889009D01*
X-316370000Y-44921053D01*
X-316369999Y-51518948D01*
X-316377982Y-51600000D01*
X-351449173Y-51600000D01*
X-351441067Y-51132769D01*
X-331091800Y-30578545D01*
X-305220000Y-30578545D01*
X-305220000Y-31041455D01*
X-305129691Y-31495470D01*
X-304952543Y-31923143D01*
X-304695364Y-32308038D01*
X-304368038Y-32635364D01*
X-303983143Y-32892543D01*
X-303555470Y-33069691D01*
X-303101455Y-33160000D01*
X-302638545Y-33160000D01*
X-302184530Y-33069691D01*
X-301756857Y-32892543D01*
X-301371962Y-32635364D01*
X-301044636Y-32308038D01*
X-300787457Y-31923143D01*
X-300610309Y-31495470D01*
X-300520000Y-31041455D01*
X-300520000Y-30578545D01*
X-284900000Y-30578545D01*
X-284900000Y-31041455D01*
X-284809691Y-31495470D01*
X-284632543Y-31923143D01*
X-284375364Y-32308038D01*
X-284048038Y-32635364D01*
X-283663143Y-32892543D01*
X-283235470Y-33069691D01*
X-282781455Y-33160000D01*
X-282318545Y-33160000D01*
X-281864530Y-33069691D01*
X-281436857Y-32892543D01*
X-281051962Y-32635364D01*
X-280724636Y-32308038D01*
X-280467457Y-31923143D01*
X-280290309Y-31495470D01*
X-280200000Y-31041455D01*
X-280200000Y-30578545D01*
X-280290309Y-30124530D01*
X-280467457Y-29696857D01*
X-280724636Y-29311962D01*
X-280865853Y-29170745D01*
X-265515800Y-29170745D01*
X-265515800Y-29633655D01*
X-265425491Y-30087670D01*
X-265248343Y-30515343D01*
X-264991164Y-30900238D01*
X-264663838Y-31227564D01*
X-264278943Y-31484743D01*
X-263851270Y-31661891D01*
X-263397255Y-31752200D01*
X-262934345Y-31752200D01*
X-262480330Y-31661891D01*
X-262052657Y-31484743D01*
X-261667762Y-31227564D01*
X-261340436Y-30900238D01*
X-261083257Y-30515343D01*
X-260915800Y-30111066D01*
X-260915800Y-31302908D01*
X-260886138Y-31604069D01*
X-260768917Y-31990496D01*
X-260578560Y-32346630D01*
X-260322383Y-32658783D01*
X-260010230Y-32914960D01*
X-259654097Y-33105317D01*
X-259267670Y-33222538D01*
X-258865800Y-33262119D01*
X-258463931Y-33222538D01*
X-258077504Y-33105317D01*
X-257721370Y-32914960D01*
X-257409217Y-32658783D01*
X-257153040Y-32346630D01*
X-257115800Y-32276959D01*
X-257078560Y-32346630D01*
X-256822383Y-32658783D01*
X-256510230Y-32914960D01*
X-256154097Y-33105317D01*
X-255767670Y-33222538D01*
X-255365800Y-33262119D01*
X-254963931Y-33222538D01*
X-254577504Y-33105317D01*
X-254221370Y-32914960D01*
X-253909217Y-32658783D01*
X-253653040Y-32346630D01*
X-253615800Y-32276959D01*
X-253578560Y-32346630D01*
X-253322383Y-32658783D01*
X-253010230Y-32914960D01*
X-252654097Y-33105317D01*
X-252267670Y-33222538D01*
X-251865800Y-33262119D01*
X-251463931Y-33222538D01*
X-251077504Y-33105317D01*
X-250721370Y-32914960D01*
X-250409217Y-32658783D01*
X-250153040Y-32346630D01*
X-250115800Y-32276959D01*
X-250078560Y-32346630D01*
X-249822383Y-32658783D01*
X-249510230Y-32914960D01*
X-249154097Y-33105317D01*
X-248767670Y-33222538D01*
X-248365800Y-33262119D01*
X-247963931Y-33222538D01*
X-247577504Y-33105317D01*
X-247221370Y-32914960D01*
X-246909217Y-32658783D01*
X-246653040Y-32346630D01*
X-246615800Y-32276959D01*
X-246578560Y-32346630D01*
X-246322383Y-32658783D01*
X-246010230Y-32914960D01*
X-245654097Y-33105317D01*
X-245267670Y-33222538D01*
X-244865800Y-33262119D01*
X-244463931Y-33222538D01*
X-244077504Y-33105317D01*
X-243721370Y-32914960D01*
X-243409217Y-32658783D01*
X-243153040Y-32346630D01*
X-243115800Y-32276959D01*
X-243078560Y-32346630D01*
X-242822383Y-32658783D01*
X-242510230Y-32914960D01*
X-242154097Y-33105317D01*
X-241767670Y-33222538D01*
X-241365800Y-33262119D01*
X-240963931Y-33222538D01*
X-240577504Y-33105317D01*
X-240221370Y-32914960D01*
X-239909217Y-32658783D01*
X-239653040Y-32346630D01*
X-239615800Y-32276959D01*
X-239578560Y-32346630D01*
X-239322383Y-32658783D01*
X-239010230Y-32914960D01*
X-238654097Y-33105317D01*
X-238267670Y-33222538D01*
X-237865800Y-33262119D01*
X-237463931Y-33222538D01*
X-237077504Y-33105317D01*
X-236721370Y-32914960D01*
X-236409217Y-32658783D01*
X-236264806Y-32482818D01*
X-236184484Y-32633090D01*
X-236009684Y-32846084D01*
X-235796690Y-33020884D01*
X-235553686Y-33150772D01*
X-235290012Y-33230756D01*
X-235015800Y-33257764D01*
X-233715800Y-33257764D01*
X-233441588Y-33230756D01*
X-233177914Y-33150772D01*
X-232934910Y-33020884D01*
X-232721916Y-32846084D01*
X-232547116Y-32633090D01*
X-232417228Y-32390086D01*
X-232337244Y-32126412D01*
X-232310236Y-31852200D01*
X-232310236Y-30124499D01*
X-232148343Y-30515343D01*
X-231891164Y-30900238D01*
X-231563838Y-31227564D01*
X-231178943Y-31484743D01*
X-230751270Y-31661891D01*
X-230297255Y-31752200D01*
X-229834345Y-31752200D01*
X-229380330Y-31661891D01*
X-228952657Y-31484743D01*
X-228567762Y-31227564D01*
X-228240436Y-30900238D01*
X-227983257Y-30515343D01*
X-227806109Y-30087670D01*
X-227715800Y-29633655D01*
X-227715800Y-29170745D01*
X-227806109Y-28716730D01*
X-227983257Y-28289057D01*
X-228240436Y-27904162D01*
X-228567762Y-27576836D01*
X-228952657Y-27319657D01*
X-229380330Y-27142509D01*
X-229834345Y-27052200D01*
X-230297255Y-27052200D01*
X-230751270Y-27142509D01*
X-231178943Y-27319657D01*
X-231563838Y-27576836D01*
X-231891164Y-27904162D01*
X-232148343Y-28289057D01*
X-232315989Y-28693790D01*
X-232337244Y-28477988D01*
X-232417228Y-28214314D01*
X-232547116Y-27971310D01*
X-232721916Y-27758316D01*
X-232934910Y-27583516D01*
X-233177914Y-27453628D01*
X-233441588Y-27373644D01*
X-233715800Y-27346636D01*
X-235015800Y-27346636D01*
X-235290012Y-27373644D01*
X-235553686Y-27453628D01*
X-235796690Y-27583516D01*
X-236009684Y-27758316D01*
X-236184484Y-27971310D01*
X-236264806Y-28121582D01*
X-236409217Y-27945617D01*
X-236721370Y-27689440D01*
X-237077503Y-27499083D01*
X-237463930Y-27381862D01*
X-237865800Y-27342281D01*
X-238267669Y-27381862D01*
X-238654096Y-27499083D01*
X-239010229Y-27689440D01*
X-239322382Y-27945617D01*
X-239578559Y-28257770D01*
X-239615800Y-28327442D01*
X-239653040Y-28257770D01*
X-239909217Y-27945617D01*
X-240221370Y-27689440D01*
X-240577503Y-27499083D01*
X-240963930Y-27381862D01*
X-241365800Y-27342281D01*
X-241767669Y-27381862D01*
X-242154096Y-27499083D01*
X-242510229Y-27689440D01*
X-242822382Y-27945617D01*
X-243078559Y-28257770D01*
X-243115800Y-28327442D01*
X-243153040Y-28257770D01*
X-243409217Y-27945617D01*
X-243721370Y-27689440D01*
X-244077503Y-27499083D01*
X-244463930Y-27381862D01*
X-244865800Y-27342281D01*
X-245267669Y-27381862D01*
X-245654096Y-27499083D01*
X-246010229Y-27689440D01*
X-246322382Y-27945617D01*
X-246578559Y-28257770D01*
X-246615800Y-28327442D01*
X-246653040Y-28257770D01*
X-246909217Y-27945617D01*
X-247221370Y-27689440D01*
X-247577503Y-27499083D01*
X-247963930Y-27381862D01*
X-248365800Y-27342281D01*
X-248767669Y-27381862D01*
X-249154096Y-27499083D01*
X-249510229Y-27689440D01*
X-249822382Y-27945617D01*
X-250078559Y-28257770D01*
X-250115800Y-28327442D01*
X-250153040Y-28257770D01*
X-250409217Y-27945617D01*
X-250721370Y-27689440D01*
X-251077503Y-27499083D01*
X-251463930Y-27381862D01*
X-251865800Y-27342281D01*
X-252267669Y-27381862D01*
X-252654096Y-27499083D01*
X-253010229Y-27689440D01*
X-253322382Y-27945617D01*
X-253578559Y-28257770D01*
X-253615800Y-28327442D01*
X-253653040Y-28257770D01*
X-253909217Y-27945617D01*
X-254221370Y-27689440D01*
X-254577503Y-27499083D01*
X-254963930Y-27381862D01*
X-255365800Y-27342281D01*
X-255767669Y-27381862D01*
X-256154096Y-27499083D01*
X-256510229Y-27689440D01*
X-256822382Y-27945617D01*
X-257078559Y-28257770D01*
X-257115800Y-28327442D01*
X-257153040Y-28257770D01*
X-257409217Y-27945617D01*
X-257721370Y-27689440D01*
X-258077503Y-27499083D01*
X-258463930Y-27381862D01*
X-258865800Y-27342281D01*
X-259267669Y-27381862D01*
X-259654096Y-27499083D01*
X-260010229Y-27689440D01*
X-260322382Y-27945617D01*
X-260578559Y-28257770D01*
X-260768916Y-28613903D01*
X-260864129Y-28927779D01*
X-260906109Y-28716730D01*
X-261083257Y-28289057D01*
X-261340436Y-27904162D01*
X-261667762Y-27576836D01*
X-262052657Y-27319657D01*
X-262480330Y-27142509D01*
X-262934345Y-27052200D01*
X-263397255Y-27052200D01*
X-263851270Y-27142509D01*
X-264278943Y-27319657D01*
X-264663838Y-27576836D01*
X-264991164Y-27904162D01*
X-265248343Y-28289057D01*
X-265425491Y-28716730D01*
X-265515800Y-29170745D01*
X-280865853Y-29170745D01*
X-281051962Y-28984636D01*
X-281436857Y-28727457D01*
X-281864530Y-28550309D01*
X-282318545Y-28460000D01*
X-282781455Y-28460000D01*
X-283235470Y-28550309D01*
X-283663143Y-28727457D01*
X-284048038Y-28984636D01*
X-284375364Y-29311962D01*
X-284632543Y-29696857D01*
X-284809691Y-30124530D01*
X-284900000Y-30578545D01*
X-300520000Y-30578545D01*
X-300610309Y-30124530D01*
X-300787457Y-29696857D01*
X-301044636Y-29311962D01*
X-301371962Y-28984636D01*
X-301756857Y-28727457D01*
X-302184530Y-28550309D01*
X-302638545Y-28460000D01*
X-303101455Y-28460000D01*
X-303555470Y-28550309D01*
X-303983143Y-28727457D01*
X-304368038Y-28984636D01*
X-304695364Y-29311962D01*
X-304952543Y-29696857D01*
X-305129691Y-30124530D01*
X-305220000Y-30578545D01*
X-331091800Y-30578545D01*
X-309828102Y-9100681D01*
X-184887975Y-10458401D01*
%TA.AperFunction,Conductor*%
D28*
G36*
X-184887975Y-10458401D02*
G01*
X-184654995Y-27411427D01*
X-184225026Y-104145770D01*
X-184945958Y-115744875D01*
X-331814466Y-115615053D01*
X-343637960Y-104230000D01*
X-266185564Y-104230000D01*
X-266185564Y-106730000D01*
X-266163360Y-106955439D01*
X-266097602Y-107172215D01*
X-265990816Y-107371997D01*
X-265847107Y-107547107D01*
X-265671997Y-107690816D01*
X-265472215Y-107797602D01*
X-265255439Y-107863360D01*
X-265030000Y-107885564D01*
X-262530000Y-107885564D01*
X-262304561Y-107863360D01*
X-262087785Y-107797602D01*
X-261888003Y-107690816D01*
X-261712893Y-107547107D01*
X-261569184Y-107371997D01*
X-261462398Y-107172215D01*
X-261449592Y-107130000D01*
X-259768948Y-107130000D01*
X-259526544Y-107106125D01*
X-259215517Y-107011777D01*
X-258928874Y-106858562D01*
X-258677629Y-106652371D01*
X-258471438Y-106401126D01*
X-258318223Y-106114483D01*
X-258223875Y-105803456D01*
X-258192017Y-105480000D01*
X-258223875Y-105156544D01*
X-258318223Y-104845517D01*
X-258471438Y-104558874D01*
X-258677629Y-104307629D01*
X-258928874Y-104101438D01*
X-259215517Y-103948223D01*
X-259526544Y-103853875D01*
X-259768948Y-103830000D01*
X-261449592Y-103830000D01*
X-261462398Y-103787785D01*
X-261569184Y-103588003D01*
X-261712893Y-103412893D01*
X-261888003Y-103269184D01*
X-262087785Y-103162398D01*
X-262304561Y-103096640D01*
X-262530000Y-103074436D01*
X-265030000Y-103074436D01*
X-265255439Y-103096640D01*
X-265472215Y-103162398D01*
X-265671997Y-103269184D01*
X-265847107Y-103412893D01*
X-265990816Y-103588003D01*
X-266097602Y-103787785D01*
X-266163360Y-104004561D01*
X-266185564Y-104230000D01*
X-343637960Y-104230000D01*
X-352218890Y-95967271D01*
X-351809453Y-72366880D01*
X-338817982Y-72366880D01*
X-338809999Y-72447931D01*
X-338810000Y-74698958D01*
X-338817982Y-74780000D01*
X-338810000Y-74861042D01*
X-338810000Y-74861051D01*
X-338786125Y-75103455D01*
X-338691777Y-75414482D01*
X-338538562Y-75701125D01*
X-338332371Y-75952371D01*
X-338328252Y-75955752D01*
X-338324871Y-75959871D01*
X-338073626Y-76166062D01*
X-337786983Y-76319277D01*
X-337475956Y-76413625D01*
X-337233552Y-76437500D01*
X-337152500Y-76445483D01*
X-337071448Y-76437500D01*
X-335840524Y-76437500D01*
X-335836430Y-76458081D01*
X-335770674Y-76674852D01*
X-335733165Y-76765408D01*
X-335626377Y-76965196D01*
X-335624600Y-76967856D01*
X-335624599Y-78594349D01*
X-335632582Y-78675400D01*
X-335600724Y-78998856D01*
X-335506377Y-79309882D01*
X-335369458Y-79566036D01*
X-335353161Y-79596526D01*
X-335146970Y-79847771D01*
X-335084011Y-79899440D01*
X-334944045Y-80039406D01*
X-334892371Y-80102371D01*
X-334641126Y-80308562D01*
X-334354483Y-80461777D01*
X-334043456Y-80556125D01*
X-333801052Y-80580000D01*
X-333720000Y-80587983D01*
X-333638948Y-80580000D01*
X-332266408Y-80580000D01*
X-332253602Y-80622215D01*
X-332146816Y-80821997D01*
X-332003107Y-80997107D01*
X-331827997Y-81140816D01*
X-331628215Y-81247602D01*
X-331411439Y-81313360D01*
X-331186000Y-81335564D01*
X-328686000Y-81335564D01*
X-328460561Y-81313360D01*
X-328243785Y-81247602D01*
X-328044003Y-81140816D01*
X-327868893Y-80997107D01*
X-327725184Y-80821997D01*
X-327618398Y-80622215D01*
X-327605592Y-80580000D01*
X-315751042Y-80580000D01*
X-315670000Y-80587982D01*
X-315588958Y-80580000D01*
X-315588948Y-80580000D01*
X-315346544Y-80556125D01*
X-315035517Y-80461777D01*
X-314748874Y-80308562D01*
X-314497629Y-80102371D01*
X-314445956Y-80039407D01*
X-313210998Y-78804450D01*
X-312881455Y-78870000D01*
X-312418545Y-78870000D01*
X-311964530Y-78779691D01*
X-311536857Y-78602543D01*
X-311151962Y-78345364D01*
X-310824636Y-78018038D01*
X-310567457Y-77633143D01*
X-310390309Y-77205470D01*
X-310300000Y-76751455D01*
X-310300000Y-76288545D01*
X-310345749Y-76058545D01*
X-302040000Y-76058545D01*
X-302040000Y-76521455D01*
X-301949691Y-76975470D01*
X-301772543Y-77403143D01*
X-301515364Y-77788038D01*
X-301188038Y-78115364D01*
X-300803143Y-78372543D01*
X-300375470Y-78549691D01*
X-299921455Y-78640000D01*
X-299458545Y-78640000D01*
X-299004530Y-78549691D01*
X-298576857Y-78372543D01*
X-298191962Y-78115364D01*
X-297864636Y-77788038D01*
X-297607457Y-77403143D01*
X-297430309Y-76975470D01*
X-297340000Y-76521455D01*
X-297340000Y-76058545D01*
X-297430309Y-75604530D01*
X-297607457Y-75176857D01*
X-297864636Y-74791962D01*
X-298191962Y-74464636D01*
X-298576857Y-74207457D01*
X-299004530Y-74030309D01*
X-299458545Y-73940000D01*
X-299921455Y-73940000D01*
X-300375470Y-74030309D01*
X-300803143Y-74207457D01*
X-301188038Y-74464636D01*
X-301515364Y-74791962D01*
X-301772543Y-75176857D01*
X-301949691Y-75604530D01*
X-302040000Y-76058545D01*
X-310345749Y-76058545D01*
X-310390309Y-75834530D01*
X-310567457Y-75406857D01*
X-310824636Y-75021962D01*
X-311000000Y-74846598D01*
X-311000000Y-74553451D01*
X-309196548Y-72750000D01*
X-293898948Y-72750000D01*
X-293656544Y-72726125D01*
X-293345517Y-72631777D01*
X-293058874Y-72478562D01*
X-292807629Y-72272371D01*
X-292601438Y-72021126D01*
X-292448223Y-71734483D01*
X-292353875Y-71423456D01*
X-292322017Y-71100000D01*
X-292353875Y-70776544D01*
X-292448223Y-70465517D01*
X-292601438Y-70178874D01*
X-292807629Y-69927629D01*
X-293058874Y-69721438D01*
X-293345517Y-69568223D01*
X-293656544Y-69473875D01*
X-293898948Y-69450000D01*
X-309798948Y-69450000D01*
X-309880000Y-69442017D01*
X-309961052Y-69450000D01*
X-310203456Y-69473875D01*
X-310514483Y-69568223D01*
X-310801126Y-69721438D01*
X-311052371Y-69927629D01*
X-311104040Y-69990588D01*
X-313759411Y-72645960D01*
X-313822370Y-72697629D01*
X-313948341Y-72851126D01*
X-314028561Y-72948874D01*
X-314181777Y-73235518D01*
X-314276124Y-73546544D01*
X-314307982Y-73870000D01*
X-314299999Y-73951051D01*
X-314299999Y-74846597D01*
X-314475364Y-75021962D01*
X-314732543Y-75406857D01*
X-314909691Y-75834530D01*
X-314910115Y-75836664D01*
X-316353451Y-77280000D01*
X-327605592Y-77280000D01*
X-327618398Y-77237785D01*
X-327725184Y-77038003D01*
X-327868893Y-76862893D01*
X-328044003Y-76719184D01*
X-328243785Y-76612398D01*
X-328460561Y-76546640D01*
X-328686000Y-76524436D01*
X-331186000Y-76524436D01*
X-331411439Y-76546640D01*
X-331628215Y-76612398D01*
X-331827997Y-76719184D01*
X-332003107Y-76862893D01*
X-332146816Y-77038003D01*
X-332253602Y-77237785D01*
X-332266408Y-77280000D01*
X-332324600Y-77280000D01*
X-332324600Y-76967855D01*
X-332322823Y-76965196D01*
X-332216035Y-76765408D01*
X-332178526Y-76674852D01*
X-332112770Y-76458081D01*
X-332093648Y-76361948D01*
X-332071444Y-76136509D01*
X-332071444Y-76111949D01*
X-332069036Y-76087500D01*
X-332069036Y-75587500D01*
X-332083810Y-75437500D01*
X-332069036Y-75287500D01*
X-332069036Y-74787500D01*
X-332071444Y-74763051D01*
X-332071444Y-74738491D01*
X-332093648Y-74513052D01*
X-332112770Y-74416919D01*
X-332178526Y-74200148D01*
X-332216035Y-74109592D01*
X-332322823Y-73909804D01*
X-332377279Y-73828305D01*
X-332520988Y-73653196D01*
X-332590296Y-73583888D01*
X-332765405Y-73440179D01*
X-332846904Y-73385723D01*
X-333046692Y-73278935D01*
X-333137248Y-73241426D01*
X-333354019Y-73175670D01*
X-333450152Y-73156548D01*
X-333675591Y-73134344D01*
X-333700151Y-73134344D01*
X-333724600Y-73131936D01*
X-334224600Y-73131936D01*
X-334249049Y-73134344D01*
X-334273609Y-73134344D01*
X-334305652Y-73137500D01*
X-335510000Y-73137500D01*
X-335510000Y-73050331D01*
X-335126542Y-72666874D01*
X-334815337Y-72537968D01*
X-334512334Y-72335509D01*
X-334254651Y-72077826D01*
X-334052192Y-71774823D01*
X-333912735Y-71438145D01*
X-333841640Y-71080729D01*
X-333841640Y-70716311D01*
X-329921640Y-70716311D01*
X-329921640Y-71080729D01*
X-329850545Y-71438145D01*
X-329711088Y-71774823D01*
X-329508629Y-72077826D01*
X-329250946Y-72335509D01*
X-328947943Y-72537968D01*
X-328611265Y-72677425D01*
X-328253849Y-72748520D01*
X-327889431Y-72748520D01*
X-327532015Y-72677425D01*
X-327195337Y-72537968D01*
X-326892334Y-72335509D01*
X-326634651Y-72077826D01*
X-326432192Y-71774823D01*
X-326292735Y-71438145D01*
X-326221640Y-71080729D01*
X-326221640Y-70716311D01*
X-326292735Y-70358895D01*
X-326432192Y-70022217D01*
X-326500000Y-69920735D01*
X-326500000Y-58235924D01*
X-326479419Y-58231830D01*
X-326262648Y-58166074D01*
X-326172092Y-58128565D01*
X-325972304Y-58021777D01*
X-325890805Y-57967321D01*
X-325715696Y-57823612D01*
X-325646388Y-57754304D01*
X-325502679Y-57579195D01*
X-325448223Y-57497696D01*
X-325341435Y-57297908D01*
X-325303926Y-57207352D01*
X-325238170Y-56990581D01*
X-325219048Y-56894448D01*
X-325196844Y-56669009D01*
X-325196844Y-56644449D01*
X-325194436Y-56620000D01*
X-325194436Y-56616922D01*
X-314962721Y-56616922D01*
X-314836945Y-57060100D01*
X-314627126Y-57470225D01*
X-314341327Y-57831536D01*
X-313990532Y-58130148D01*
X-313588221Y-58354586D01*
X-313149854Y-58496224D01*
X-313066922Y-58512720D01*
X-312700000Y-58261894D01*
X-312700000Y-56250000D01*
X-312600000Y-56250000D01*
X-312600000Y-58261894D01*
X-312233078Y-58512720D01*
X-312150146Y-58496224D01*
X-311711779Y-58354586D01*
X-311309468Y-58130148D01*
X-310958673Y-57831536D01*
X-310672874Y-57470225D01*
X-310463055Y-57060100D01*
X-310337279Y-56616922D01*
X-310588031Y-56250000D01*
X-312600000Y-56250000D01*
X-312700000Y-56250000D01*
X-314711969Y-56250000D01*
X-314962721Y-56616922D01*
X-325194436Y-56616922D01*
X-325194436Y-56120000D01*
X-325196844Y-56095551D01*
X-325196844Y-56070991D01*
X-325200000Y-56038948D01*
X-325200000Y-55783078D01*
X-314962721Y-55783078D01*
X-314711969Y-56150000D01*
X-312700000Y-56150000D01*
X-312700000Y-54138106D01*
X-312600000Y-54138106D01*
X-312600000Y-56150000D01*
X-310588031Y-56150000D01*
X-310337279Y-55783078D01*
X-310463055Y-55339900D01*
X-310672874Y-54929775D01*
X-310958673Y-54568464D01*
X-311309468Y-54269852D01*
X-311711779Y-54045414D01*
X-312150146Y-53903776D01*
X-312233078Y-53887280D01*
X-312600000Y-54138106D01*
X-312700000Y-54138106D01*
X-313066922Y-53887280D01*
X-313149854Y-53903776D01*
X-313588221Y-54045414D01*
X-313990532Y-54269852D01*
X-314341327Y-54568464D01*
X-314627126Y-54929775D01*
X-314836945Y-55339900D01*
X-314962721Y-55783078D01*
X-325200000Y-55783078D01*
X-325200000Y-54041052D01*
X-325192017Y-53960000D01*
X-325200000Y-53878948D01*
X-325200000Y-53551052D01*
X-325192017Y-53470000D01*
X-325223875Y-53146544D01*
X-325318223Y-52835517D01*
X-325471438Y-52548874D01*
X-325677629Y-52297629D01*
X-325928874Y-52091438D01*
X-326215517Y-51938223D01*
X-326526544Y-51843875D01*
X-326768948Y-51820000D01*
X-326850000Y-51812017D01*
X-326931052Y-51820000D01*
X-327173456Y-51843875D01*
X-327484483Y-51938223D01*
X-327771126Y-52091438D01*
X-328022371Y-52297629D01*
X-328228562Y-52548874D01*
X-328381777Y-52835517D01*
X-328476125Y-53146544D01*
X-328507983Y-53470000D01*
X-328499999Y-53551061D01*
X-328499999Y-53878940D01*
X-328507983Y-53960000D01*
X-328499999Y-54041060D01*
X-328499999Y-54504076D01*
X-328520581Y-54508170D01*
X-328737352Y-54573926D01*
X-328827908Y-54611435D01*
X-329027696Y-54718223D01*
X-329109195Y-54772679D01*
X-329284304Y-54916388D01*
X-329353612Y-54985696D01*
X-329497321Y-55160805D01*
X-329551777Y-55242304D01*
X-329658565Y-55442092D01*
X-329696074Y-55532648D01*
X-329761830Y-55749419D01*
X-329780952Y-55845552D01*
X-329803156Y-56070991D01*
X-329803156Y-56095551D01*
X-329805564Y-56120000D01*
X-329805564Y-56620000D01*
X-329803156Y-56644449D01*
X-329803156Y-56669009D01*
X-329800000Y-56701052D01*
X-329799999Y-70236867D01*
X-329850545Y-70358895D01*
X-329921640Y-70716311D01*
X-333841640Y-70716311D01*
X-333912735Y-70358895D01*
X-334052192Y-70022217D01*
X-334254651Y-69719214D01*
X-334512334Y-69461531D01*
X-334815337Y-69259072D01*
X-335152015Y-69119615D01*
X-335509431Y-69048520D01*
X-335873849Y-69048520D01*
X-336231265Y-69119615D01*
X-336567943Y-69259072D01*
X-336870946Y-69461531D01*
X-337128629Y-69719214D01*
X-337331088Y-70022217D01*
X-337459994Y-70333422D01*
X-338269411Y-71142840D01*
X-338332370Y-71194509D01*
X-338471058Y-71363501D01*
X-338538561Y-71445754D01*
X-338691777Y-71732398D01*
X-338786124Y-72043424D01*
X-338817982Y-72366880D01*
X-351809453Y-72366880D01*
X-351449173Y-51600000D01*
X-316377982Y-51600000D01*
X-316346124Y-51923456D01*
X-316251777Y-52234482D01*
X-316175179Y-52377785D01*
X-316098561Y-52521126D01*
X-315892370Y-52772371D01*
X-315829411Y-52824040D01*
X-315644045Y-53009406D01*
X-315592371Y-53072371D01*
X-315341126Y-53278562D01*
X-315054483Y-53431777D01*
X-314743456Y-53526125D01*
X-314501052Y-53550000D01*
X-314501042Y-53550000D01*
X-314420001Y-53557982D01*
X-314338959Y-53550000D01*
X-306440000Y-53550000D01*
X-306439999Y-67058948D01*
X-306447982Y-67140000D01*
X-306416124Y-67463456D01*
X-306321777Y-67774482D01*
X-306242124Y-67923501D01*
X-306168561Y-68061126D01*
X-305962370Y-68312371D01*
X-305940403Y-68330399D01*
X-305922371Y-68352371D01*
X-305671126Y-68558562D01*
X-305384483Y-68711777D01*
X-305073456Y-68806125D01*
X-304831052Y-68830000D01*
X-304750000Y-68837983D01*
X-304668948Y-68830000D01*
X-290440000Y-68830000D01*
X-290439999Y-74926597D01*
X-290615364Y-75101962D01*
X-290872543Y-75486857D01*
X-291049691Y-75914530D01*
X-291140000Y-76368545D01*
X-291140000Y-76831455D01*
X-291049691Y-77285470D01*
X-290872543Y-77713143D01*
X-290615364Y-78098038D01*
X-290288038Y-78425364D01*
X-289903143Y-78682543D01*
X-289475470Y-78859691D01*
X-289021455Y-78950000D01*
X-288558545Y-78950000D01*
X-288104530Y-78859691D01*
X-287676857Y-78682543D01*
X-287291962Y-78425364D01*
X-286964636Y-78098038D01*
X-286707457Y-77713143D01*
X-286530309Y-77285470D01*
X-286440000Y-76831455D01*
X-286440000Y-76668545D01*
X-281160000Y-76668545D01*
X-281160000Y-77131455D01*
X-281069691Y-77585470D01*
X-280892543Y-78013143D01*
X-280635364Y-78398038D01*
X-280308038Y-78725364D01*
X-279923143Y-78982543D01*
X-279495470Y-79159691D01*
X-279041455Y-79250000D01*
X-278578545Y-79250000D01*
X-278124530Y-79159691D01*
X-277696857Y-78982543D01*
X-277311962Y-78725364D01*
X-276984636Y-78398038D01*
X-276727457Y-78013143D01*
X-276550309Y-77585470D01*
X-276460000Y-77131455D01*
X-276460000Y-76668545D01*
X-276550309Y-76214530D01*
X-276727457Y-75786857D01*
X-276984636Y-75401962D01*
X-277311962Y-75074636D01*
X-277696857Y-74817457D01*
X-278124530Y-74640309D01*
X-278578545Y-74550000D01*
X-279041455Y-74550000D01*
X-279495470Y-74640309D01*
X-279923143Y-74817457D01*
X-280308038Y-75074636D01*
X-280635364Y-75401962D01*
X-280892543Y-75786857D01*
X-281069691Y-76214530D01*
X-281160000Y-76668545D01*
X-286440000Y-76668545D01*
X-286440000Y-76368545D01*
X-286530309Y-75914530D01*
X-286707457Y-75486857D01*
X-286964636Y-75101962D01*
X-287140000Y-74926598D01*
X-287140000Y-68830000D01*
X-277641042Y-68830000D01*
X-277560000Y-68837982D01*
X-277478958Y-68830000D01*
X-277478948Y-68830000D01*
X-277236544Y-68806125D01*
X-277059040Y-68752280D01*
X-276996544Y-68746125D01*
X-276685517Y-68651777D01*
X-276398874Y-68498562D01*
X-276147629Y-68292371D01*
X-275941438Y-68041126D01*
X-275788223Y-67754483D01*
X-275693875Y-67443456D01*
X-275664835Y-67148616D01*
X-269829414Y-72984038D01*
X-269641127Y-73138561D01*
X-269354483Y-73291776D01*
X-269043457Y-73386124D01*
X-268720001Y-73417982D01*
X-268396545Y-73386124D01*
X-268119906Y-73302207D01*
X-268251777Y-73548918D01*
X-268346124Y-73859944D01*
X-268377982Y-74183400D01*
X-268369999Y-74264452D01*
X-268370000Y-77109592D01*
X-268412215Y-77122398D01*
X-268611997Y-77229184D01*
X-268787107Y-77372893D01*
X-268930816Y-77548003D01*
X-269037602Y-77747785D01*
X-269103360Y-77964561D01*
X-269125564Y-78190000D01*
X-269125564Y-80690000D01*
X-269103360Y-80915439D01*
X-269037602Y-81132215D01*
X-268930816Y-81331997D01*
X-268787107Y-81507107D01*
X-268611997Y-81650816D01*
X-268412215Y-81757602D01*
X-268195439Y-81823360D01*
X-267970000Y-81845564D01*
X-265470000Y-81845564D01*
X-265244561Y-81823360D01*
X-265027785Y-81757602D01*
X-264828003Y-81650816D01*
X-264652893Y-81507107D01*
X-264509184Y-81331997D01*
X-264402398Y-81132215D01*
X-264336640Y-80915439D01*
X-264314436Y-80690000D01*
X-264314436Y-78190000D01*
X-264336640Y-77964561D01*
X-264402398Y-77747785D01*
X-264509184Y-77548003D01*
X-264512151Y-77544387D01*
X-264281044Y-77521625D01*
X-263970017Y-77427277D01*
X-263694483Y-77280000D01*
X-251388948Y-77280000D01*
X-251146544Y-77256125D01*
X-250835517Y-77161777D01*
X-250548874Y-77008562D01*
X-250297629Y-76802371D01*
X-250091438Y-76551126D01*
X-249938223Y-76264483D01*
X-249843875Y-75953456D01*
X-249812017Y-75630000D01*
X-249843875Y-75306544D01*
X-249938223Y-74995517D01*
X-250091438Y-74708874D01*
X-250297629Y-74457629D01*
X-250548874Y-74251438D01*
X-250835517Y-74098223D01*
X-251146544Y-74003875D01*
X-251388948Y-73980000D01*
X-261583149Y-73980000D01*
X-261183148Y-73580000D01*
X-246968282Y-73580000D01*
X-246811630Y-73708561D01*
X-246524987Y-73861776D01*
X-246213960Y-73956124D01*
X-245971556Y-73979999D01*
X-245971547Y-73979999D01*
X-245930000Y-73984091D01*
X-245929999Y-108758948D01*
X-245937982Y-108840000D01*
X-245906124Y-109163456D01*
X-245811777Y-109474482D01*
X-245763670Y-109564482D01*
X-245658561Y-109761126D01*
X-245452370Y-110012371D01*
X-245389411Y-110064040D01*
X-243364040Y-112089412D01*
X-243312371Y-112152371D01*
X-243061126Y-112358562D01*
X-242774483Y-112511777D01*
X-242463456Y-112606125D01*
X-242221052Y-112630000D01*
X-242221043Y-112630000D01*
X-242140001Y-112637982D01*
X-242058959Y-112630000D01*
X-201491042Y-112630000D01*
X-201410000Y-112637982D01*
X-201328958Y-112630000D01*
X-201328948Y-112630000D01*
X-201086544Y-112606125D01*
X-200775517Y-112511777D01*
X-200488874Y-112358562D01*
X-200237629Y-112152371D01*
X-200185955Y-112089406D01*
X-190210587Y-102114039D01*
X-190147629Y-102062371D01*
X-189941438Y-101811126D01*
X-189788223Y-101524483D01*
X-189693875Y-101213456D01*
X-189670000Y-100971052D01*
X-189670000Y-100971051D01*
X-189662017Y-100890000D01*
X-189670000Y-100808948D01*
X-189670000Y-45361052D01*
X-189662017Y-45280000D01*
X-189693875Y-44956544D01*
X-189788223Y-44645517D01*
X-189941438Y-44358874D01*
X-190147629Y-44107629D01*
X-190398874Y-43901438D01*
X-190685517Y-43748223D01*
X-190996544Y-43653875D01*
X-191238948Y-43630000D01*
X-191320000Y-43622017D01*
X-191401052Y-43630000D01*
X-200846548Y-43630000D01*
X-199950587Y-42734039D01*
X-199887629Y-42682371D01*
X-199681438Y-42431126D01*
X-199528223Y-42144483D01*
X-199433875Y-41833456D01*
X-199410000Y-41591052D01*
X-199410000Y-41591051D01*
X-199402017Y-41510000D01*
X-199410000Y-41428948D01*
X-199410000Y-37288948D01*
X-199433875Y-37046544D01*
X-199528223Y-36735517D01*
X-199681438Y-36448874D01*
X-199887629Y-36197629D01*
X-200138874Y-35991438D01*
X-200425517Y-35838223D01*
X-200736544Y-35743875D01*
X-201060000Y-35712017D01*
X-201383455Y-35743875D01*
X-201694482Y-35838223D01*
X-201981125Y-35991438D01*
X-202232370Y-36197629D01*
X-202438561Y-36448874D01*
X-202591776Y-36735517D01*
X-202686124Y-37046544D01*
X-202709999Y-37288948D01*
X-202710000Y-40826548D01*
X-203713451Y-41830000D01*
X-210961052Y-41830000D01*
X-211203456Y-41853875D01*
X-211514483Y-41948223D01*
X-211801126Y-42101438D01*
X-212052371Y-42307629D01*
X-212258562Y-42558874D01*
X-212411777Y-42845517D01*
X-212501044Y-43139795D01*
X-212580000Y-43132018D01*
X-212593227Y-43133321D01*
X-215240000Y-40486549D01*
X-215240000Y-36270000D01*
X-214583451Y-36270000D01*
X-213851753Y-37001699D01*
X-214068668Y-37146636D01*
X-214284564Y-37362532D01*
X-214454192Y-37616400D01*
X-214571035Y-37898482D01*
X-214630600Y-38197938D01*
X-214630600Y-38503262D01*
X-214571035Y-38802718D01*
X-214454192Y-39084800D01*
X-214284564Y-39338668D01*
X-214068668Y-39554564D01*
X-213814800Y-39724192D01*
X-213532718Y-39841035D01*
X-213233262Y-39900600D01*
X-212927938Y-39900600D01*
X-212628482Y-39841035D01*
X-212346400Y-39724192D01*
X-212092532Y-39554564D01*
X-211888027Y-39350059D01*
X-211691652Y-39369400D01*
X-211691642Y-39369400D01*
X-211610600Y-39377382D01*
X-211529558Y-39369400D01*
X-207919548Y-39369400D01*
X-207677144Y-39345525D01*
X-207366117Y-39251177D01*
X-207079474Y-39097962D01*
X-206828229Y-38891771D01*
X-206622038Y-38640526D01*
X-206468823Y-38353883D01*
X-206374475Y-38042856D01*
X-206342617Y-37719400D01*
X-206374475Y-37395944D01*
X-206468823Y-37084917D01*
X-206622038Y-36798274D01*
X-206828229Y-36547029D01*
X-207079474Y-36340838D01*
X-207366117Y-36187623D01*
X-207677144Y-36093275D01*
X-207919548Y-36069400D01*
X-210188396Y-36069400D01*
X-210231438Y-35988874D01*
X-210437629Y-35737629D01*
X-210500588Y-35685960D01*
X-212221299Y-33965250D01*
X-212133245Y-33928777D01*
X-211810600Y-33713192D01*
X-211487955Y-33928777D01*
X-211123978Y-34079541D01*
X-210737583Y-34156400D01*
X-210343617Y-34156400D01*
X-209957222Y-34079541D01*
X-209593245Y-33928777D01*
X-209270600Y-33713192D01*
X-208947955Y-33928777D01*
X-208583978Y-34079541D01*
X-208197583Y-34156400D01*
X-207803617Y-34156400D01*
X-207417222Y-34079541D01*
X-207053245Y-33928777D01*
X-206730600Y-33713192D01*
X-206407955Y-33928777D01*
X-206043978Y-34079541D01*
X-205657583Y-34156400D01*
X-205384833Y-34156400D01*
X-205421777Y-34225517D01*
X-205516125Y-34536544D01*
X-205547983Y-34860000D01*
X-205516125Y-35183456D01*
X-205421777Y-35494483D01*
X-205268562Y-35781126D01*
X-205062371Y-36032371D01*
X-204811126Y-36238562D01*
X-204524483Y-36391777D01*
X-204213456Y-36486125D01*
X-203971052Y-36510000D01*
X-203971042Y-36510000D01*
X-203890000Y-36517982D01*
X-203808958Y-36510000D01*
X-203808948Y-36510000D01*
X-203566544Y-36486125D01*
X-203255517Y-36391777D01*
X-202968874Y-36238562D01*
X-202717629Y-36032371D01*
X-202665956Y-35969407D01*
X-199860588Y-33164040D01*
X-199797629Y-33112371D01*
X-199591438Y-32861126D01*
X-199438223Y-32574483D01*
X-199343875Y-32263456D01*
X-199320000Y-32021052D01*
X-199312017Y-31940000D01*
X-199320000Y-31858948D01*
X-199320000Y-24781041D01*
X-199312018Y-24699999D01*
X-199320000Y-24618958D01*
X-199320000Y-24618948D01*
X-199343875Y-24376544D01*
X-199438223Y-24065517D01*
X-199591438Y-23778874D01*
X-199797629Y-23527629D01*
X-199803121Y-23523122D01*
X-199807629Y-23517629D01*
X-200058874Y-23311438D01*
X-200345517Y-23158223D01*
X-200656544Y-23063875D01*
X-200898948Y-23040000D01*
X-200898958Y-23040000D01*
X-200980000Y-23032018D01*
X-201061042Y-23040000D01*
X-224397150Y-23040000D01*
X-224608544Y-22975875D01*
X-224932000Y-22944017D01*
X-225255455Y-22975875D01*
X-225466849Y-23040000D01*
X-237501052Y-23040000D01*
X-237743456Y-23063875D01*
X-238054483Y-23158223D01*
X-238341126Y-23311438D01*
X-238592371Y-23517629D01*
X-238798562Y-23768874D01*
X-238951777Y-24055517D01*
X-239046125Y-24366544D01*
X-239077983Y-24690000D01*
X-239046125Y-25013456D01*
X-238951777Y-25324483D01*
X-238798562Y-25611126D01*
X-238592371Y-25862371D01*
X-238341126Y-26068562D01*
X-238054483Y-26221777D01*
X-237743456Y-26316125D01*
X-237501052Y-26340000D01*
X-226582000Y-26340000D01*
X-226582000Y-27354947D01*
X-226585156Y-27386991D01*
X-226585156Y-27411551D01*
X-226587564Y-27436000D01*
X-226587564Y-27936000D01*
X-226585156Y-27960449D01*
X-226585156Y-27985009D01*
X-226562952Y-28210448D01*
X-226543830Y-28306581D01*
X-226478074Y-28523352D01*
X-226440565Y-28613908D01*
X-226333777Y-28813696D01*
X-226279321Y-28895195D01*
X-226135612Y-29070304D01*
X-226066304Y-29139612D01*
X-225891195Y-29283321D01*
X-225809696Y-29337777D01*
X-225609908Y-29444565D01*
X-225519352Y-29482074D01*
X-225302581Y-29547830D01*
X-225206448Y-29566952D01*
X-224981009Y-29589156D01*
X-224956449Y-29589156D01*
X-224932000Y-29591564D01*
X-224432000Y-29591564D01*
X-224206561Y-29569360D01*
X-223989785Y-29503602D01*
X-223790003Y-29396816D01*
X-223614893Y-29253107D01*
X-223471184Y-29077997D01*
X-223364398Y-28878215D01*
X-223298640Y-28661439D01*
X-223276436Y-28436000D01*
X-223276436Y-26936000D01*
X-223282000Y-26879508D01*
X-223282000Y-26340000D01*
X-202620000Y-26340000D01*
X-202619999Y-31256547D01*
X-203460600Y-32097148D01*
X-203460600Y-31959417D01*
X-203537459Y-31573022D01*
X-203688223Y-31209045D01*
X-203903808Y-30886400D01*
X-203688223Y-30563755D01*
X-203537459Y-30199778D01*
X-203460600Y-29813383D01*
X-203460600Y-29419417D01*
X-203537459Y-29033022D01*
X-203688223Y-28669045D01*
X-203907099Y-28341474D01*
X-204185674Y-28062899D01*
X-204513245Y-27844023D01*
X-204877222Y-27693259D01*
X-205263617Y-27616400D01*
X-205657583Y-27616400D01*
X-206043978Y-27693259D01*
X-206407955Y-27844023D01*
X-206730600Y-28059608D01*
X-207053245Y-27844023D01*
X-207417222Y-27693259D01*
X-207803617Y-27616400D01*
X-208197583Y-27616400D01*
X-208583978Y-27693259D01*
X-208947955Y-27844023D01*
X-209270600Y-28059608D01*
X-209593245Y-27844023D01*
X-209957222Y-27693259D01*
X-210343617Y-27616400D01*
X-210737583Y-27616400D01*
X-211123978Y-27693259D01*
X-211487955Y-27844023D01*
X-211810600Y-28059608D01*
X-212133245Y-27844023D01*
X-212497222Y-27693259D01*
X-212883617Y-27616400D01*
X-213277583Y-27616400D01*
X-213663978Y-27693259D01*
X-214027955Y-27844023D01*
X-214355526Y-28062899D01*
X-214459051Y-28166424D01*
X-214480158Y-27961651D01*
X-214824897Y-27770957D01*
X-215200214Y-27651183D01*
X-215591687Y-27606931D01*
X-215984271Y-27639901D01*
X-216362879Y-27748827D01*
X-216712961Y-27929523D01*
X-216761042Y-27961651D01*
X-216802494Y-28363795D01*
X-215620600Y-29545689D01*
X-215606458Y-29531547D01*
X-215535747Y-29602258D01*
X-215549889Y-29616400D01*
X-215535747Y-29630542D01*
X-215606458Y-29701253D01*
X-215620600Y-29687111D01*
X-215634742Y-29701253D01*
X-215705453Y-29630542D01*
X-215691311Y-29616400D01*
X-216873205Y-28434506D01*
X-217275349Y-28475958D01*
X-217466043Y-28820697D01*
X-217585817Y-29196014D01*
X-217630069Y-29587487D01*
X-217597099Y-29980071D01*
X-217488173Y-30358679D01*
X-217317912Y-30688544D01*
X-217389284Y-30775510D01*
X-217519172Y-31018514D01*
X-217599156Y-31282188D01*
X-217626164Y-31556400D01*
X-217626164Y-32756400D01*
X-217605126Y-32970000D01*
X-221648948Y-32970000D01*
X-221730000Y-32962017D01*
X-221811052Y-32970000D01*
X-222053456Y-32993875D01*
X-222364483Y-33088223D01*
X-222651126Y-33241438D01*
X-222902371Y-33447629D01*
X-223108562Y-33698874D01*
X-223261777Y-33985517D01*
X-223356125Y-34296544D01*
X-223387983Y-34620000D01*
X-223380000Y-34701052D01*
X-223380000Y-35386547D01*
X-225714038Y-37720587D01*
X-225868561Y-37908874D01*
X-226021777Y-38195518D01*
X-226116124Y-38506544D01*
X-226147982Y-38830000D01*
X-226116124Y-39153456D01*
X-226021777Y-39464482D01*
X-225868561Y-39751126D01*
X-225662371Y-40002371D01*
X-225411126Y-40208561D01*
X-225124482Y-40361777D01*
X-224813456Y-40456124D01*
X-224490000Y-40487982D01*
X-224166544Y-40456124D01*
X-223855518Y-40361777D01*
X-223568874Y-40208561D01*
X-223380587Y-40054038D01*
X-220620583Y-37294036D01*
X-220557629Y-37242371D01*
X-220351438Y-36991126D01*
X-220198223Y-36704483D01*
X-220103875Y-36393456D01*
X-220091715Y-36270000D01*
X-218539999Y-36270000D01*
X-218540000Y-38916399D01*
X-218581438Y-38838874D01*
X-218787629Y-38587629D01*
X-219038874Y-38381438D01*
X-219325517Y-38228223D01*
X-219636544Y-38133875D01*
X-219878948Y-38110000D01*
X-219960000Y-38102017D01*
X-220041052Y-38110000D01*
X-220283456Y-38133875D01*
X-220594483Y-38228223D01*
X-220881126Y-38381438D01*
X-221132371Y-38587629D01*
X-221338562Y-38838874D01*
X-221491777Y-39125517D01*
X-221586125Y-39436544D01*
X-221617983Y-39760000D01*
X-221609999Y-39841061D01*
X-221610000Y-41588958D01*
X-221617982Y-41670000D01*
X-221610000Y-41751042D01*
X-221610000Y-41751051D01*
X-221586125Y-41993455D01*
X-221491777Y-42304482D01*
X-221338562Y-42591125D01*
X-221132371Y-42842371D01*
X-221069407Y-42894045D01*
X-220553451Y-43410000D01*
X-237412315Y-43410000D01*
X-237404436Y-43330000D01*
X-237404436Y-40830000D01*
X-237426640Y-40604561D01*
X-237492398Y-40387785D01*
X-237599184Y-40188003D01*
X-237742893Y-40012893D01*
X-237918003Y-39869184D01*
X-238117785Y-39762398D01*
X-238260000Y-39719258D01*
X-238260000Y-37781052D01*
X-238252017Y-37700000D01*
X-238283875Y-37376544D01*
X-238378223Y-37065517D01*
X-238531438Y-36778874D01*
X-238737629Y-36527629D01*
X-238988874Y-36321438D01*
X-239275517Y-36168223D01*
X-239586544Y-36073875D01*
X-239828948Y-36050000D01*
X-239910000Y-36042017D01*
X-239991052Y-36050000D01*
X-240233456Y-36073875D01*
X-240544483Y-36168223D01*
X-240831126Y-36321438D01*
X-241082371Y-36527629D01*
X-241288562Y-36778874D01*
X-241441777Y-37065517D01*
X-241536125Y-37376544D01*
X-241567983Y-37700000D01*
X-241559999Y-37781062D01*
X-241559999Y-39793285D01*
X-241701997Y-39869184D01*
X-241877107Y-40012893D01*
X-242020816Y-40188003D01*
X-242127602Y-40387785D01*
X-242193360Y-40604561D01*
X-242215564Y-40830000D01*
X-242215564Y-43330000D01*
X-242193360Y-43555439D01*
X-242152346Y-43690646D01*
X-242392371Y-43887629D01*
X-242444041Y-43950589D01*
X-242729412Y-44235961D01*
X-242792370Y-44287629D01*
X-242905532Y-44425518D01*
X-242998561Y-44538874D01*
X-243151777Y-44825518D01*
X-243246124Y-45136544D01*
X-243277982Y-45460000D01*
X-243269999Y-45541051D01*
X-243270000Y-46656548D01*
X-244973451Y-48360000D01*
X-263836549Y-48360000D01*
X-264115955Y-48080594D01*
X-264167629Y-48017629D01*
X-264418874Y-47811438D01*
X-264705517Y-47658223D01*
X-265016544Y-47563875D01*
X-265258948Y-47540000D01*
X-265258958Y-47540000D01*
X-265340000Y-47532018D01*
X-265421042Y-47540000D01*
X-268196547Y-47540000D01*
X-268689933Y-47046615D01*
X-268656130Y-47039891D01*
X-268228457Y-46862743D01*
X-267843562Y-46605564D01*
X-267516236Y-46278238D01*
X-267259057Y-45893343D01*
X-267081909Y-45465670D01*
X-266991600Y-45011655D01*
X-266991600Y-44548745D01*
X-267081909Y-44094730D01*
X-267259057Y-43667057D01*
X-267516236Y-43282162D01*
X-267843562Y-42954836D01*
X-268228457Y-42697657D01*
X-268656130Y-42520509D01*
X-269110145Y-42430200D01*
X-269573055Y-42430200D01*
X-270027070Y-42520509D01*
X-270454743Y-42697657D01*
X-270839638Y-42954836D01*
X-271166964Y-43282162D01*
X-271424143Y-43667057D01*
X-271601291Y-44094730D01*
X-271626567Y-44221803D01*
X-271745517Y-44158223D01*
X-272056544Y-44063875D01*
X-272298948Y-44040000D01*
X-272298958Y-44040000D01*
X-272380000Y-44032018D01*
X-272461042Y-44040000D01*
X-276018376Y-44040000D01*
X-276014436Y-44000000D01*
X-276014436Y-42300000D01*
X-276036640Y-42074561D01*
X-276102398Y-41857785D01*
X-276209184Y-41658003D01*
X-276352893Y-41482893D01*
X-276514824Y-41350000D01*
X-268763451Y-41350000D01*
X-267044040Y-43069412D01*
X-266992371Y-43132371D01*
X-266754017Y-43327983D01*
X-266741126Y-43338562D01*
X-266454483Y-43491777D01*
X-266143456Y-43586125D01*
X-265820000Y-43617983D01*
X-265738948Y-43610000D01*
X-251066019Y-43610000D01*
X-251104143Y-43667057D01*
X-251281291Y-44094730D01*
X-251371600Y-44548745D01*
X-251371600Y-45011655D01*
X-251281291Y-45465670D01*
X-251104143Y-45893343D01*
X-250846964Y-46278238D01*
X-250519638Y-46605564D01*
X-250134743Y-46862743D01*
X-249707070Y-47039891D01*
X-249253055Y-47130200D01*
X-248790145Y-47130200D01*
X-248336130Y-47039891D01*
X-247908457Y-46862743D01*
X-247523562Y-46605564D01*
X-247196236Y-46278238D01*
X-246939057Y-45893343D01*
X-246761909Y-45465670D01*
X-246671600Y-45011655D01*
X-246671600Y-44548745D01*
X-246761909Y-44094730D01*
X-246939057Y-43667057D01*
X-247196236Y-43282162D01*
X-247371600Y-43106798D01*
X-247371600Y-42009442D01*
X-247363618Y-41928401D01*
X-247371600Y-41847359D01*
X-247371600Y-41847348D01*
X-247395475Y-41604944D01*
X-247489823Y-41293917D01*
X-247643038Y-41007274D01*
X-247849229Y-40756029D01*
X-248100474Y-40549838D01*
X-248387117Y-40396623D01*
X-248698144Y-40302275D01*
X-249021600Y-40270417D01*
X-249345055Y-40302275D01*
X-249370521Y-40310000D01*
X-258090898Y-40310000D01*
X-258051932Y-40283964D01*
X-257836036Y-40068068D01*
X-257666408Y-39814200D01*
X-257549565Y-39532118D01*
X-257490000Y-39232662D01*
X-257490000Y-38927338D01*
X-257549565Y-38627882D01*
X-257666408Y-38345800D01*
X-257836036Y-38091932D01*
X-258051932Y-37876036D01*
X-258305800Y-37706408D01*
X-258587882Y-37589565D01*
X-258887338Y-37530000D01*
X-259192662Y-37530000D01*
X-259492118Y-37589565D01*
X-259774200Y-37706408D01*
X-260028068Y-37876036D01*
X-260243964Y-38091932D01*
X-260413592Y-38345800D01*
X-260530435Y-38627882D01*
X-260544571Y-38698947D01*
X-260576859Y-38536622D01*
X-260727623Y-38172645D01*
X-260747442Y-38142984D01*
X-260689184Y-38071997D01*
X-260582398Y-37872215D01*
X-260516640Y-37655439D01*
X-260494436Y-37430000D01*
X-260494436Y-36990000D01*
X-249305564Y-36990000D01*
X-249305564Y-38690000D01*
X-249283360Y-38915439D01*
X-249217602Y-39132215D01*
X-249110816Y-39331997D01*
X-248967107Y-39507107D01*
X-248791997Y-39650816D01*
X-248592215Y-39757602D01*
X-248375439Y-39823360D01*
X-248150000Y-39845564D01*
X-246450000Y-39845564D01*
X-246224561Y-39823360D01*
X-246007785Y-39757602D01*
X-245808003Y-39650816D01*
X-245737016Y-39592558D01*
X-245707355Y-39612377D01*
X-245343378Y-39763141D01*
X-244956983Y-39840000D01*
X-244563017Y-39840000D01*
X-244176622Y-39763141D01*
X-243812645Y-39612377D01*
X-243485074Y-39393501D01*
X-243206499Y-39114926D01*
X-242987623Y-38787355D01*
X-242836859Y-38423378D01*
X-242760000Y-38036983D01*
X-242760000Y-37643017D01*
X-242836859Y-37256622D01*
X-242987623Y-36892645D01*
X-243206499Y-36565074D01*
X-243485074Y-36286499D01*
X-243812645Y-36067623D01*
X-244176622Y-35916859D01*
X-244563017Y-35840000D01*
X-244956983Y-35840000D01*
X-245343378Y-35916859D01*
X-245707355Y-36067623D01*
X-245737016Y-36087442D01*
X-245808003Y-36029184D01*
X-246007785Y-35922398D01*
X-246224561Y-35856640D01*
X-246450000Y-35834436D01*
X-248150000Y-35834436D01*
X-248375439Y-35856640D01*
X-248592215Y-35922398D01*
X-248791997Y-36029184D01*
X-248967107Y-36172893D01*
X-249110816Y-36348003D01*
X-249217602Y-36547785D01*
X-249283360Y-36764561D01*
X-249305564Y-36990000D01*
X-260494436Y-36990000D01*
X-260494436Y-35730000D01*
X-260516640Y-35504561D01*
X-260582398Y-35287785D01*
X-260689184Y-35088003D01*
X-260832893Y-34912893D01*
X-261008003Y-34769184D01*
X-261207785Y-34662398D01*
X-261424561Y-34596640D01*
X-261650000Y-34574436D01*
X-263350000Y-34574436D01*
X-263575439Y-34596640D01*
X-263792215Y-34662398D01*
X-263991997Y-34769184D01*
X-264167107Y-34912893D01*
X-264310816Y-35088003D01*
X-264417602Y-35287785D01*
X-264483360Y-35504561D01*
X-264505564Y-35730000D01*
X-264505564Y-37430000D01*
X-264483360Y-37655439D01*
X-264417602Y-37872215D01*
X-264310816Y-38071997D01*
X-264252558Y-38142984D01*
X-264272377Y-38172645D01*
X-264423141Y-38536622D01*
X-264500000Y-38923017D01*
X-264500000Y-39316983D01*
X-264423141Y-39703378D01*
X-264272377Y-40067355D01*
X-264110247Y-40310000D01*
X-265136548Y-40310000D01*
X-266855956Y-38590593D01*
X-266907629Y-38527629D01*
X-267158874Y-38321438D01*
X-267445517Y-38168223D01*
X-267756544Y-38073875D01*
X-267998948Y-38050000D01*
X-267998958Y-38050000D01*
X-268080000Y-38042018D01*
X-268161042Y-38050000D01*
X-286258959Y-38050000D01*
X-286340001Y-38042018D01*
X-286421043Y-38050000D01*
X-286421052Y-38050000D01*
X-286663456Y-38073875D01*
X-286974483Y-38168223D01*
X-287261126Y-38321438D01*
X-287261128Y-38321439D01*
X-287261127Y-38321439D01*
X-287449415Y-38475962D01*
X-287449418Y-38475965D01*
X-287512371Y-38527629D01*
X-287564036Y-38590583D01*
X-288694038Y-39720587D01*
X-288848561Y-39908874D01*
X-289001777Y-40195518D01*
X-289096124Y-40506544D01*
X-289127982Y-40830000D01*
X-289096124Y-41153456D01*
X-289001777Y-41464482D01*
X-288848561Y-41751126D01*
X-288642371Y-42002371D01*
X-288391126Y-42208561D01*
X-288104482Y-42361777D01*
X-287793456Y-42456124D01*
X-287470000Y-42487982D01*
X-287146544Y-42456124D01*
X-286835518Y-42361777D01*
X-286548874Y-42208561D01*
X-286360587Y-42054038D01*
X-285656548Y-41350000D01*
X-279525176Y-41350000D01*
X-279687107Y-41482893D01*
X-279830816Y-41658003D01*
X-279937602Y-41857785D01*
X-280003360Y-42074561D01*
X-280025564Y-42300000D01*
X-280025564Y-44000000D01*
X-280003360Y-44225439D01*
X-279937602Y-44442215D01*
X-279830816Y-44641997D01*
X-279772558Y-44712984D01*
X-279792377Y-44742645D01*
X-279943141Y-45106622D01*
X-280020000Y-45493017D01*
X-280020000Y-45886983D01*
X-279943141Y-46273378D01*
X-279792377Y-46637355D01*
X-279576792Y-46960000D01*
X-279792377Y-47282645D01*
X-279943141Y-47646622D01*
X-280020000Y-48033017D01*
X-280020000Y-48426983D01*
X-279943141Y-48813378D01*
X-279792377Y-49177355D01*
X-279573501Y-49504926D01*
X-279294926Y-49783501D01*
X-279152616Y-49878589D01*
X-279212371Y-49927629D01*
X-279418562Y-50178874D01*
X-279571777Y-50465517D01*
X-279666125Y-50776544D01*
X-279697983Y-51100000D01*
X-279666125Y-51423456D01*
X-279571777Y-51734483D01*
X-279418562Y-52021126D01*
X-279212371Y-52272371D01*
X-278961126Y-52478562D01*
X-278674483Y-52631777D01*
X-278363456Y-52726125D01*
X-278121052Y-52750000D01*
X-276291042Y-52750000D01*
X-276210000Y-52757982D01*
X-276128958Y-52750000D01*
X-276128948Y-52750000D01*
X-275886544Y-52726125D01*
X-275575517Y-52631777D01*
X-275288874Y-52478562D01*
X-275037629Y-52272371D01*
X-274985956Y-52209407D01*
X-271590000Y-48813452D01*
X-270104036Y-50299417D01*
X-270052371Y-50362371D01*
X-269989418Y-50414035D01*
X-269989415Y-50414038D01*
X-269926687Y-50465517D01*
X-269801126Y-50568562D01*
X-269514483Y-50721777D01*
X-269203456Y-50816125D01*
X-268961052Y-50840000D01*
X-268961043Y-50840000D01*
X-268880001Y-50847982D01*
X-268798959Y-50840000D01*
X-266023451Y-50840000D01*
X-265744045Y-51119406D01*
X-265692371Y-51182371D01*
X-265441126Y-51388562D01*
X-265154483Y-51541777D01*
X-264843456Y-51636125D01*
X-264601052Y-51660000D01*
X-264601043Y-51660000D01*
X-264520001Y-51667982D01*
X-264438959Y-51660000D01*
X-244443451Y-51660000D01*
X-244479411Y-51695960D01*
X-244542370Y-51747629D01*
X-244699064Y-51938562D01*
X-244748561Y-51998874D01*
X-244901777Y-52285518D01*
X-244996124Y-52596544D01*
X-245027982Y-52920000D01*
X-245019999Y-53001052D01*
X-245020000Y-58951566D01*
X-245171777Y-59235518D01*
X-245266124Y-59546544D01*
X-245297982Y-59870000D01*
X-245289999Y-59951051D01*
X-245289999Y-60280000D01*
X-246958948Y-60280000D01*
X-247040000Y-60272017D01*
X-247121052Y-60280000D01*
X-247363456Y-60303875D01*
X-247674483Y-60398223D01*
X-247961126Y-60551438D01*
X-248212371Y-60757629D01*
X-248418562Y-61008874D01*
X-248571777Y-61295517D01*
X-248666125Y-61606544D01*
X-248697983Y-61930000D01*
X-248689999Y-62011061D01*
X-248690000Y-64248958D01*
X-248697982Y-64330000D01*
X-248690000Y-64411042D01*
X-248690000Y-64411051D01*
X-248666125Y-64653455D01*
X-248571777Y-64964482D01*
X-248449999Y-65192311D01*
X-248450000Y-67167691D01*
X-248571777Y-67395518D01*
X-248625347Y-67572118D01*
X-248666124Y-67706544D01*
X-248690000Y-67948948D01*
X-248690000Y-67948958D01*
X-248697982Y-68030000D01*
X-248690000Y-68111042D01*
X-248690000Y-69771051D01*
X-248666125Y-70013455D01*
X-248585270Y-70280000D01*
X-261785548Y-70280000D01*
X-261866600Y-70272017D01*
X-261947652Y-70280000D01*
X-262190056Y-70303875D01*
X-262501083Y-70398223D01*
X-262787726Y-70551438D01*
X-263038971Y-70757629D01*
X-263090640Y-70820588D01*
X-263732388Y-71462336D01*
X-263854500Y-71462336D01*
X-263979500Y-71474648D01*
X-264104500Y-71462336D01*
X-264254500Y-71462336D01*
X-264254500Y-65205552D01*
X-264246517Y-65124500D01*
X-264278375Y-64801044D01*
X-264372723Y-64490017D01*
X-264525938Y-64203374D01*
X-264732129Y-63952129D01*
X-264983374Y-63745938D01*
X-265270017Y-63592723D01*
X-265581044Y-63498375D01*
X-265823448Y-63474500D01*
X-265904500Y-63466517D01*
X-265985552Y-63474500D01*
X-266227956Y-63498375D01*
X-266538983Y-63592723D01*
X-266825626Y-63745938D01*
X-267076871Y-63952129D01*
X-267283062Y-64203374D01*
X-267436277Y-64490017D01*
X-267530625Y-64801044D01*
X-267562483Y-65124500D01*
X-267554499Y-65205562D01*
X-267554500Y-70592048D01*
X-275013308Y-63133240D01*
X-274975518Y-63121777D01*
X-274688875Y-62968562D01*
X-274437629Y-62762371D01*
X-274231438Y-62511126D01*
X-274078223Y-62224483D01*
X-273983875Y-61913456D01*
X-273969002Y-61762454D01*
X-271550479Y-59343932D01*
X-271516074Y-59457352D01*
X-271478565Y-59547908D01*
X-271371777Y-59747696D01*
X-271370000Y-59750355D01*
X-271370000Y-60568948D01*
X-271377983Y-60650000D01*
X-271346125Y-60973456D01*
X-271251777Y-61284483D01*
X-271098562Y-61571126D01*
X-270892371Y-61822371D01*
X-270641126Y-62028562D01*
X-270354483Y-62181777D01*
X-270043456Y-62276125D01*
X-269801052Y-62300000D01*
X-269720000Y-62307983D01*
X-269396544Y-62276125D01*
X-269085517Y-62181777D01*
X-268798874Y-62028562D01*
X-268547629Y-61822371D01*
X-268341438Y-61571126D01*
X-268188223Y-61284483D01*
X-268093875Y-60973456D01*
X-268070000Y-60731052D01*
X-268062017Y-60650000D01*
X-268070000Y-60568948D01*
X-268070000Y-59750355D01*
X-268068223Y-59747696D01*
X-267961435Y-59547908D01*
X-267923926Y-59457352D01*
X-267858170Y-59240581D01*
X-267839048Y-59144448D01*
X-267816844Y-58919009D01*
X-267816844Y-58894449D01*
X-267814436Y-58870000D01*
X-267814436Y-58320000D01*
X-267826748Y-58195000D01*
X-267814436Y-58070000D01*
X-267814436Y-57070000D01*
X-267836640Y-56844561D01*
X-267902398Y-56627785D01*
X-268009184Y-56428003D01*
X-268152893Y-56252893D01*
X-268328003Y-56109184D01*
X-268527785Y-56002398D01*
X-268744561Y-55936640D01*
X-268970000Y-55914436D01*
X-270470000Y-55914436D01*
X-270526492Y-55920000D01*
X-272028959Y-55920000D01*
X-272110001Y-55912018D01*
X-272191043Y-55920000D01*
X-272191052Y-55920000D01*
X-272433456Y-55943875D01*
X-272744483Y-56038223D01*
X-273031126Y-56191438D01*
X-273031128Y-56191439D01*
X-273031127Y-56191439D01*
X-273219415Y-56345962D01*
X-273219418Y-56345965D01*
X-273282371Y-56397629D01*
X-273334036Y-56460583D01*
X-276719408Y-59845957D01*
X-276782371Y-59897629D01*
X-276988562Y-60148874D01*
X-277141777Y-60435517D01*
X-277236125Y-60746544D01*
X-277250725Y-60894781D01*
X-277297629Y-60837629D01*
X-277548874Y-60631438D01*
X-277835517Y-60478223D01*
X-278146544Y-60383875D01*
X-278388948Y-60360000D01*
X-278388958Y-60360000D01*
X-278470000Y-60352018D01*
X-278551042Y-60360000D01*
X-292966548Y-60360000D01*
X-296629626Y-56696922D01*
X-291102721Y-56696922D01*
X-290976945Y-57140100D01*
X-290767126Y-57550225D01*
X-290481327Y-57911536D01*
X-290130532Y-58210148D01*
X-289728221Y-58434586D01*
X-289289854Y-58576224D01*
X-289206922Y-58592720D01*
X-288840000Y-58341894D01*
X-288840000Y-56330000D01*
X-288740000Y-56330000D01*
X-288740000Y-58341894D01*
X-288373078Y-58592720D01*
X-288290146Y-58576224D01*
X-287851779Y-58434586D01*
X-287449468Y-58210148D01*
X-287098673Y-57911536D01*
X-286812874Y-57550225D01*
X-286603055Y-57140100D01*
X-286562421Y-56996922D01*
X-281122721Y-56996922D01*
X-280996945Y-57440100D01*
X-280787126Y-57850225D01*
X-280501327Y-58211536D01*
X-280150532Y-58510148D01*
X-279748221Y-58734586D01*
X-279309854Y-58876224D01*
X-279226922Y-58892720D01*
X-278860000Y-58641894D01*
X-278860000Y-56630000D01*
X-278760000Y-56630000D01*
X-278760000Y-58641894D01*
X-278393078Y-58892720D01*
X-278310146Y-58876224D01*
X-277871779Y-58734586D01*
X-277469468Y-58510148D01*
X-277118673Y-58211536D01*
X-276832874Y-57850225D01*
X-276623055Y-57440100D01*
X-276497279Y-56996922D01*
X-276748031Y-56630000D01*
X-278760000Y-56630000D01*
X-278860000Y-56630000D01*
X-280871969Y-56630000D01*
X-281122721Y-56996922D01*
X-286562421Y-56996922D01*
X-286477279Y-56696922D01*
X-286728031Y-56330000D01*
X-288740000Y-56330000D01*
X-288840000Y-56330000D01*
X-290851969Y-56330000D01*
X-291102721Y-56696922D01*
X-296629626Y-56696922D01*
X-297340000Y-55986549D01*
X-297340000Y-55863078D01*
X-291102721Y-55863078D01*
X-290851969Y-56230000D01*
X-288840000Y-56230000D01*
X-288840000Y-54218106D01*
X-288740000Y-54218106D01*
X-288740000Y-56230000D01*
X-286728031Y-56230000D01*
X-286682297Y-56163078D01*
X-281122721Y-56163078D01*
X-280871969Y-56530000D01*
X-278860000Y-56530000D01*
X-278860000Y-54518106D01*
X-278760000Y-54518106D01*
X-278760000Y-56530000D01*
X-276748031Y-56530000D01*
X-276497279Y-56163078D01*
X-276569103Y-55910000D01*
X-263127983Y-55910000D01*
X-263096125Y-56233456D01*
X-263001777Y-56544483D01*
X-262848562Y-56831126D01*
X-262642371Y-57082371D01*
X-262391126Y-57288562D01*
X-262104483Y-57441777D01*
X-261793456Y-57536125D01*
X-261551052Y-57560000D01*
X-261078820Y-57560000D01*
X-261095564Y-57730000D01*
X-261095564Y-60230000D01*
X-261073360Y-60455439D01*
X-261007602Y-60672215D01*
X-260900816Y-60871997D01*
X-260757107Y-61047107D01*
X-260581997Y-61190816D01*
X-260382215Y-61297602D01*
X-260339999Y-61310408D01*
X-260339999Y-62038939D01*
X-260347983Y-62120000D01*
X-260316125Y-62443456D01*
X-260221777Y-62754483D01*
X-260068562Y-63041126D01*
X-259862371Y-63292371D01*
X-259611126Y-63498562D01*
X-259324483Y-63651777D01*
X-259013456Y-63746125D01*
X-258771052Y-63770000D01*
X-258690000Y-63777983D01*
X-258608948Y-63770000D01*
X-258266315Y-63770000D01*
X-258256125Y-63873455D01*
X-258161777Y-64184482D01*
X-258008562Y-64471125D01*
X-257802371Y-64722371D01*
X-257551126Y-64928562D01*
X-257264483Y-65081777D01*
X-256953456Y-65176125D01*
X-256630000Y-65207983D01*
X-256306545Y-65176125D01*
X-255995518Y-65081777D01*
X-255708875Y-64928562D01*
X-255457629Y-64722371D01*
X-255251438Y-64471126D01*
X-255098223Y-64184483D01*
X-255003875Y-63873456D01*
X-254980000Y-63631052D01*
X-254980000Y-62361041D01*
X-254972018Y-62279999D01*
X-254980000Y-62198958D01*
X-254980000Y-62198948D01*
X-255003875Y-61956544D01*
X-255098223Y-61645517D01*
X-255251438Y-61358874D01*
X-255457629Y-61107629D01*
X-255520594Y-61055955D01*
X-255565955Y-61010594D01*
X-255617629Y-60947629D01*
X-255868874Y-60741438D01*
X-256155517Y-60588223D01*
X-256330791Y-60535055D01*
X-256306640Y-60455439D01*
X-256284436Y-60230000D01*
X-256284436Y-57730000D01*
X-256301180Y-57560000D01*
X-254725564Y-57560000D01*
X-254725564Y-59890000D01*
X-254703360Y-60115439D01*
X-254637602Y-60332215D01*
X-254530816Y-60531997D01*
X-254387107Y-60707107D01*
X-254211997Y-60850816D01*
X-254012215Y-60957602D01*
X-253970000Y-60970408D01*
X-253969999Y-64438948D01*
X-253977982Y-64520000D01*
X-253946124Y-64843456D01*
X-253851777Y-65154482D01*
X-253716621Y-65407338D01*
X-253698561Y-65441126D01*
X-253492370Y-65692371D01*
X-253429411Y-65744040D01*
X-253359413Y-65814038D01*
X-253171126Y-65968561D01*
X-252884482Y-66121777D01*
X-252573456Y-66216125D01*
X-252250000Y-66247983D01*
X-251926544Y-66216125D01*
X-251615518Y-66121777D01*
X-251328874Y-65968561D01*
X-251077629Y-65762371D01*
X-250871439Y-65511126D01*
X-250718223Y-65224482D01*
X-250623875Y-64913456D01*
X-250592017Y-64590000D01*
X-250623875Y-64266544D01*
X-250670000Y-64114489D01*
X-250670000Y-60970408D01*
X-250627785Y-60957602D01*
X-250428003Y-60850816D01*
X-250252893Y-60707107D01*
X-250109184Y-60531997D01*
X-250002398Y-60332215D01*
X-249936640Y-60115439D01*
X-249914436Y-59890000D01*
X-249914436Y-57390000D01*
X-249936640Y-57164561D01*
X-250002398Y-56947785D01*
X-250109184Y-56748003D01*
X-250252893Y-56572893D01*
X-250428003Y-56429184D01*
X-250627785Y-56322398D01*
X-250670000Y-56309592D01*
X-250670000Y-56001041D01*
X-250662018Y-55919999D01*
X-250670000Y-55838958D01*
X-250670000Y-55838948D01*
X-250693875Y-55596544D01*
X-250788223Y-55285517D01*
X-250941438Y-54998874D01*
X-251147629Y-54747629D01*
X-251153121Y-54743121D01*
X-251157629Y-54737629D01*
X-251408874Y-54531438D01*
X-251695517Y-54378223D01*
X-252006544Y-54283875D01*
X-252248948Y-54260000D01*
X-252248958Y-54260000D01*
X-252330000Y-54252018D01*
X-252411042Y-54260000D01*
X-261551052Y-54260000D01*
X-261793456Y-54283875D01*
X-262104483Y-54378223D01*
X-262391126Y-54531438D01*
X-262642371Y-54737629D01*
X-262848562Y-54988874D01*
X-263001777Y-55275517D01*
X-263096125Y-55586544D01*
X-263127983Y-55910000D01*
X-276569103Y-55910000D01*
X-276623055Y-55719900D01*
X-276832874Y-55309775D01*
X-277118673Y-54948464D01*
X-277469468Y-54649852D01*
X-277871779Y-54425414D01*
X-278310146Y-54283776D01*
X-278393078Y-54267280D01*
X-278760000Y-54518106D01*
X-278860000Y-54518106D01*
X-279226922Y-54267280D01*
X-279309854Y-54283776D01*
X-279748221Y-54425414D01*
X-280150532Y-54649852D01*
X-280501327Y-54948464D01*
X-280787126Y-55309775D01*
X-280996945Y-55719900D01*
X-281122721Y-56163078D01*
X-286682297Y-56163078D01*
X-286477279Y-55863078D01*
X-286603055Y-55419900D01*
X-286812874Y-55009775D01*
X-287098673Y-54648464D01*
X-287449468Y-54349852D01*
X-287851779Y-54125414D01*
X-288290146Y-53983776D01*
X-288373078Y-53967280D01*
X-288740000Y-54218106D01*
X-288840000Y-54218106D01*
X-289206922Y-53967280D01*
X-289289854Y-53983776D01*
X-289728221Y-54125414D01*
X-290130532Y-54349852D01*
X-290481327Y-54648464D01*
X-290767126Y-55009775D01*
X-290976945Y-55419900D01*
X-291102721Y-55863078D01*
X-297340000Y-55863078D01*
X-297340000Y-55738545D01*
X-297430309Y-55284530D01*
X-297607457Y-54856857D01*
X-297864636Y-54471962D01*
X-298191962Y-54144636D01*
X-298576857Y-53887457D01*
X-299004530Y-53710309D01*
X-299458545Y-53620000D01*
X-299921455Y-53620000D01*
X-300375470Y-53710309D01*
X-300803143Y-53887457D01*
X-301188038Y-54144636D01*
X-301515364Y-54471962D01*
X-301772543Y-54856857D01*
X-301949691Y-55284530D01*
X-302040000Y-55738545D01*
X-302040000Y-56201455D01*
X-301949691Y-56655470D01*
X-301772543Y-57083143D01*
X-301515364Y-57468038D01*
X-301188038Y-57795364D01*
X-300803143Y-58052543D01*
X-300375470Y-58229691D01*
X-299921455Y-58320000D01*
X-299673451Y-58320000D01*
X-294874040Y-63119412D01*
X-294822371Y-63182371D01*
X-294701597Y-63281487D01*
X-294571127Y-63388562D01*
X-294284483Y-63541777D01*
X-293973457Y-63636125D01*
X-293650000Y-63667983D01*
X-293568948Y-63660000D01*
X-279153451Y-63660000D01*
X-277343451Y-65470000D01*
X-277418948Y-65470000D01*
X-277500000Y-65462017D01*
X-277581052Y-65470000D01*
X-277823456Y-65493875D01*
X-277942545Y-65530000D01*
X-288768958Y-65530000D01*
X-288850000Y-65522018D01*
X-288931042Y-65530000D01*
X-303140000Y-65530000D01*
X-303140000Y-52891041D01*
X-303132018Y-52809999D01*
X-303140000Y-52728957D01*
X-303140000Y-52728948D01*
X-303163875Y-52486544D01*
X-303258223Y-52175517D01*
X-303411438Y-51888874D01*
X-303617629Y-51637629D01*
X-303680588Y-51585961D01*
X-304475956Y-50790593D01*
X-304527629Y-50727629D01*
X-304778874Y-50521438D01*
X-305000080Y-50403200D01*
X-285473564Y-50403200D01*
X-285468000Y-50665700D01*
X-285180500Y-50953200D01*
X-283968000Y-50953200D01*
X-283968000Y-51053200D01*
X-285180500Y-51053200D01*
X-285468000Y-51340700D01*
X-285473564Y-51603200D01*
X-285451360Y-51828639D01*
X-285385602Y-52045415D01*
X-285278816Y-52245197D01*
X-285135107Y-52420307D01*
X-284959997Y-52564016D01*
X-284760215Y-52670802D01*
X-284543439Y-52736560D01*
X-284318000Y-52758764D01*
X-284055500Y-52753200D01*
X-283768000Y-52465700D01*
X-283768000Y-51833378D01*
X-283668000Y-51983039D01*
X-283668000Y-52465700D01*
X-283380500Y-52753200D01*
X-283118000Y-52758764D01*
X-282892561Y-52736560D01*
X-282726802Y-52686278D01*
X-282390360Y-52753200D01*
X-282045640Y-52753200D01*
X-281707544Y-52685949D01*
X-281389064Y-52554030D01*
X-281102440Y-52362514D01*
X-280858686Y-52118760D01*
X-280667170Y-51832136D01*
X-280535251Y-51513656D01*
X-280468000Y-51175560D01*
X-280468000Y-50830840D01*
X-280535251Y-50492744D01*
X-280568000Y-50413681D01*
X-280568000Y-45003052D01*
X-280560017Y-44922000D01*
X-280585251Y-44665800D01*
X-280591875Y-44598544D01*
X-280686223Y-44287517D01*
X-280839438Y-44000874D01*
X-281045629Y-43749629D01*
X-281108592Y-43697957D01*
X-281280587Y-43525962D01*
X-281468874Y-43371439D01*
X-281755518Y-43218223D01*
X-282066544Y-43123876D01*
X-282390000Y-43092018D01*
X-282713456Y-43123876D01*
X-283024482Y-43218223D01*
X-283311126Y-43371439D01*
X-283562371Y-43577629D01*
X-283768561Y-43828874D01*
X-283921777Y-44115518D01*
X-284016124Y-44426544D01*
X-284047982Y-44750000D01*
X-284016124Y-45073456D01*
X-283921777Y-45384482D01*
X-283868000Y-45485091D01*
X-283867999Y-49440701D01*
X-284055500Y-49253200D01*
X-284318000Y-49247636D01*
X-284543439Y-49269840D01*
X-284760215Y-49335598D01*
X-284959997Y-49442384D01*
X-285135107Y-49586093D01*
X-285278816Y-49761203D01*
X-285385602Y-49960985D01*
X-285451360Y-50177761D01*
X-285473564Y-50403200D01*
X-305000080Y-50403200D01*
X-305065517Y-50368223D01*
X-305376544Y-50273875D01*
X-305618948Y-50250000D01*
X-305618958Y-50250000D01*
X-305700000Y-50242018D01*
X-305781042Y-50250000D01*
X-313070000Y-50250000D01*
X-313070000Y-46455924D01*
X-313049419Y-46451830D01*
X-312832648Y-46386074D01*
X-312742092Y-46348565D01*
X-312542304Y-46241777D01*
X-312539645Y-46240000D01*
X-307344800Y-46240000D01*
X-307046303Y-46439448D01*
X-306709625Y-46578905D01*
X-306352209Y-46650000D01*
X-305987791Y-46650000D01*
X-305630375Y-46578905D01*
X-305293697Y-46439448D01*
X-304990694Y-46236989D01*
X-304733011Y-45979306D01*
X-304530552Y-45676303D01*
X-304391095Y-45339625D01*
X-304320000Y-44982209D01*
X-304320000Y-44617791D01*
X-300400000Y-44617791D01*
X-300400000Y-44982209D01*
X-300328905Y-45339625D01*
X-300189448Y-45676303D01*
X-299986989Y-45979306D01*
X-299729306Y-46236989D01*
X-299426303Y-46439448D01*
X-299089625Y-46578905D01*
X-298732209Y-46650000D01*
X-298367791Y-46650000D01*
X-298010375Y-46578905D01*
X-297699172Y-46450000D01*
X-292477476Y-46450000D01*
X-292367908Y-46508565D01*
X-292277352Y-46546074D01*
X-292060581Y-46611830D01*
X-291964448Y-46630952D01*
X-291739009Y-46653156D01*
X-291714449Y-46653156D01*
X-291690000Y-46655564D01*
X-291190000Y-46655564D01*
X-291040000Y-46640790D01*
X-290890000Y-46655564D01*
X-290390000Y-46655564D01*
X-290365551Y-46653156D01*
X-290340991Y-46653156D01*
X-290115552Y-46630952D01*
X-290019419Y-46611830D01*
X-289802648Y-46546074D01*
X-289712092Y-46508565D01*
X-289512304Y-46401777D01*
X-289509645Y-46400000D01*
X-287488948Y-46400000D01*
X-287246544Y-46376125D01*
X-286935517Y-46281777D01*
X-286648874Y-46128562D01*
X-286397629Y-45922371D01*
X-286191438Y-45671126D01*
X-286038223Y-45384483D01*
X-285943875Y-45073456D01*
X-285912017Y-44750000D01*
X-285943875Y-44426544D01*
X-286038223Y-44115517D01*
X-286191438Y-43828874D01*
X-286397629Y-43577629D01*
X-286648874Y-43371438D01*
X-286935517Y-43218223D01*
X-287246544Y-43123875D01*
X-287488948Y-43100000D01*
X-289509645Y-43100000D01*
X-289512304Y-43098223D01*
X-289712092Y-42991435D01*
X-289802648Y-42953926D01*
X-290019419Y-42888170D01*
X-290115552Y-42869048D01*
X-290340991Y-42846844D01*
X-290365551Y-42846844D01*
X-290390000Y-42844436D01*
X-290890000Y-42844436D01*
X-291040000Y-42859210D01*
X-291190000Y-42844436D01*
X-291690000Y-42844436D01*
X-291714449Y-42846844D01*
X-291739009Y-42846844D01*
X-291964448Y-42869048D01*
X-292060581Y-42888170D01*
X-292277352Y-42953926D01*
X-292367908Y-42991435D01*
X-292567696Y-43098223D01*
X-292645186Y-43150000D01*
X-297699172Y-43150000D01*
X-298010375Y-43021095D01*
X-298367791Y-42950000D01*
X-298732209Y-42950000D01*
X-299089625Y-43021095D01*
X-299426303Y-43160552D01*
X-299729306Y-43363011D01*
X-299986989Y-43620694D01*
X-300189448Y-43923697D01*
X-300328905Y-44260375D01*
X-300400000Y-44617791D01*
X-304320000Y-44617791D01*
X-304391095Y-44260375D01*
X-304530552Y-43923697D01*
X-304733011Y-43620694D01*
X-304990694Y-43363011D01*
X-305293697Y-43160552D01*
X-305630375Y-43021095D01*
X-305987791Y-42950000D01*
X-306197418Y-42950000D01*
X-306298948Y-42940000D01*
X-306298958Y-42940000D01*
X-306380000Y-42932018D01*
X-306461042Y-42940000D01*
X-312539645Y-42940000D01*
X-312542304Y-42938223D01*
X-312742092Y-42831435D01*
X-312832648Y-42793926D01*
X-313049419Y-42728170D01*
X-313145552Y-42709048D01*
X-313370991Y-42686844D01*
X-313395551Y-42686844D01*
X-313420000Y-42684436D01*
X-313920000Y-42684436D01*
X-314070000Y-42699210D01*
X-314220000Y-42684436D01*
X-314720000Y-42684436D01*
X-314744449Y-42686844D01*
X-314769009Y-42686844D01*
X-314994448Y-42709048D01*
X-315090581Y-42728170D01*
X-315307352Y-42793926D01*
X-315397908Y-42831435D01*
X-315597696Y-42938223D01*
X-315679195Y-42992679D01*
X-315854304Y-43136388D01*
X-315923612Y-43205696D01*
X-316067321Y-43380805D01*
X-316121777Y-43462304D01*
X-316228565Y-43662092D01*
X-316266074Y-43752648D01*
X-316331830Y-43969419D01*
X-316350952Y-44065552D01*
X-316373156Y-44290991D01*
X-316373156Y-44315551D01*
X-316375564Y-44340000D01*
X-316375564Y-44840000D01*
X-316373156Y-44864449D01*
X-316373156Y-44889009D01*
X-316370000Y-44921053D01*
X-316369999Y-51518948D01*
X-316377982Y-51600000D01*
X-351449173Y-51600000D01*
X-351441067Y-51132769D01*
X-331091800Y-30578545D01*
X-305220000Y-30578545D01*
X-305220000Y-31041455D01*
X-305129691Y-31495470D01*
X-304952543Y-31923143D01*
X-304695364Y-32308038D01*
X-304368038Y-32635364D01*
X-303983143Y-32892543D01*
X-303555470Y-33069691D01*
X-303101455Y-33160000D01*
X-302638545Y-33160000D01*
X-302184530Y-33069691D01*
X-301756857Y-32892543D01*
X-301371962Y-32635364D01*
X-301044636Y-32308038D01*
X-300787457Y-31923143D01*
X-300610309Y-31495470D01*
X-300520000Y-31041455D01*
X-300520000Y-30578545D01*
X-284900000Y-30578545D01*
X-284900000Y-31041455D01*
X-284809691Y-31495470D01*
X-284632543Y-31923143D01*
X-284375364Y-32308038D01*
X-284048038Y-32635364D01*
X-283663143Y-32892543D01*
X-283235470Y-33069691D01*
X-282781455Y-33160000D01*
X-282318545Y-33160000D01*
X-281864530Y-33069691D01*
X-281436857Y-32892543D01*
X-281051962Y-32635364D01*
X-280724636Y-32308038D01*
X-280467457Y-31923143D01*
X-280290309Y-31495470D01*
X-280200000Y-31041455D01*
X-280200000Y-30578545D01*
X-280290309Y-30124530D01*
X-280467457Y-29696857D01*
X-280724636Y-29311962D01*
X-280865853Y-29170745D01*
X-265515800Y-29170745D01*
X-265515800Y-29633655D01*
X-265425491Y-30087670D01*
X-265248343Y-30515343D01*
X-264991164Y-30900238D01*
X-264663838Y-31227564D01*
X-264278943Y-31484743D01*
X-263851270Y-31661891D01*
X-263397255Y-31752200D01*
X-262934345Y-31752200D01*
X-262480330Y-31661891D01*
X-262052657Y-31484743D01*
X-261667762Y-31227564D01*
X-261340436Y-30900238D01*
X-261083257Y-30515343D01*
X-260915800Y-30111066D01*
X-260915800Y-31302908D01*
X-260886138Y-31604069D01*
X-260768917Y-31990496D01*
X-260578560Y-32346630D01*
X-260322383Y-32658783D01*
X-260010230Y-32914960D01*
X-259654097Y-33105317D01*
X-259267670Y-33222538D01*
X-258865800Y-33262119D01*
X-258463931Y-33222538D01*
X-258077504Y-33105317D01*
X-257721370Y-32914960D01*
X-257409217Y-32658783D01*
X-257153040Y-32346630D01*
X-257115800Y-32276959D01*
X-257078560Y-32346630D01*
X-256822383Y-32658783D01*
X-256510230Y-32914960D01*
X-256154097Y-33105317D01*
X-255767670Y-33222538D01*
X-255365800Y-33262119D01*
X-254963931Y-33222538D01*
X-254577504Y-33105317D01*
X-254221370Y-32914960D01*
X-253909217Y-32658783D01*
X-253653040Y-32346630D01*
X-253615800Y-32276959D01*
X-253578560Y-32346630D01*
X-253322383Y-32658783D01*
X-253010230Y-32914960D01*
X-252654097Y-33105317D01*
X-252267670Y-33222538D01*
X-251865800Y-33262119D01*
X-251463931Y-33222538D01*
X-251077504Y-33105317D01*
X-250721370Y-32914960D01*
X-250409217Y-32658783D01*
X-250153040Y-32346630D01*
X-250115800Y-32276959D01*
X-250078560Y-32346630D01*
X-249822383Y-32658783D01*
X-249510230Y-32914960D01*
X-249154097Y-33105317D01*
X-248767670Y-33222538D01*
X-248365800Y-33262119D01*
X-247963931Y-33222538D01*
X-247577504Y-33105317D01*
X-247221370Y-32914960D01*
X-246909217Y-32658783D01*
X-246653040Y-32346630D01*
X-246615800Y-32276959D01*
X-246578560Y-32346630D01*
X-246322383Y-32658783D01*
X-246010230Y-32914960D01*
X-245654097Y-33105317D01*
X-245267670Y-33222538D01*
X-244865800Y-33262119D01*
X-244463931Y-33222538D01*
X-244077504Y-33105317D01*
X-243721370Y-32914960D01*
X-243409217Y-32658783D01*
X-243153040Y-32346630D01*
X-243115800Y-32276959D01*
X-243078560Y-32346630D01*
X-242822383Y-32658783D01*
X-242510230Y-32914960D01*
X-242154097Y-33105317D01*
X-241767670Y-33222538D01*
X-241365800Y-33262119D01*
X-240963931Y-33222538D01*
X-240577504Y-33105317D01*
X-240221370Y-32914960D01*
X-239909217Y-32658783D01*
X-239653040Y-32346630D01*
X-239615800Y-32276959D01*
X-239578560Y-32346630D01*
X-239322383Y-32658783D01*
X-239010230Y-32914960D01*
X-238654097Y-33105317D01*
X-238267670Y-33222538D01*
X-237865800Y-33262119D01*
X-237463931Y-33222538D01*
X-237077504Y-33105317D01*
X-236721370Y-32914960D01*
X-236409217Y-32658783D01*
X-236264806Y-32482818D01*
X-236184484Y-32633090D01*
X-236009684Y-32846084D01*
X-235796690Y-33020884D01*
X-235553686Y-33150772D01*
X-235290012Y-33230756D01*
X-235015800Y-33257764D01*
X-233715800Y-33257764D01*
X-233441588Y-33230756D01*
X-233177914Y-33150772D01*
X-232934910Y-33020884D01*
X-232721916Y-32846084D01*
X-232547116Y-32633090D01*
X-232417228Y-32390086D01*
X-232337244Y-32126412D01*
X-232310236Y-31852200D01*
X-232310236Y-30124499D01*
X-232148343Y-30515343D01*
X-231891164Y-30900238D01*
X-231563838Y-31227564D01*
X-231178943Y-31484743D01*
X-230751270Y-31661891D01*
X-230297255Y-31752200D01*
X-229834345Y-31752200D01*
X-229380330Y-31661891D01*
X-228952657Y-31484743D01*
X-228567762Y-31227564D01*
X-228240436Y-30900238D01*
X-227983257Y-30515343D01*
X-227806109Y-30087670D01*
X-227715800Y-29633655D01*
X-227715800Y-29170745D01*
X-227806109Y-28716730D01*
X-227983257Y-28289057D01*
X-228240436Y-27904162D01*
X-228567762Y-27576836D01*
X-228952657Y-27319657D01*
X-229380330Y-27142509D01*
X-229834345Y-27052200D01*
X-230297255Y-27052200D01*
X-230751270Y-27142509D01*
X-231178943Y-27319657D01*
X-231563838Y-27576836D01*
X-231891164Y-27904162D01*
X-232148343Y-28289057D01*
X-232315989Y-28693790D01*
X-232337244Y-28477988D01*
X-232417228Y-28214314D01*
X-232547116Y-27971310D01*
X-232721916Y-27758316D01*
X-232934910Y-27583516D01*
X-233177914Y-27453628D01*
X-233441588Y-27373644D01*
X-233715800Y-27346636D01*
X-235015800Y-27346636D01*
X-235290012Y-27373644D01*
X-235553686Y-27453628D01*
X-235796690Y-27583516D01*
X-236009684Y-27758316D01*
X-236184484Y-27971310D01*
X-236264806Y-28121582D01*
X-236409217Y-27945617D01*
X-236721370Y-27689440D01*
X-237077503Y-27499083D01*
X-237463930Y-27381862D01*
X-237865800Y-27342281D01*
X-238267669Y-27381862D01*
X-238654096Y-27499083D01*
X-239010229Y-27689440D01*
X-239322382Y-27945617D01*
X-239578559Y-28257770D01*
X-239615800Y-28327442D01*
X-239653040Y-28257770D01*
X-239909217Y-27945617D01*
X-240221370Y-27689440D01*
X-240577503Y-27499083D01*
X-240963930Y-27381862D01*
X-241365800Y-27342281D01*
X-241767669Y-27381862D01*
X-242154096Y-27499083D01*
X-242510229Y-27689440D01*
X-242822382Y-27945617D01*
X-243078559Y-28257770D01*
X-243115800Y-28327442D01*
X-243153040Y-28257770D01*
X-243409217Y-27945617D01*
X-243721370Y-27689440D01*
X-244077503Y-27499083D01*
X-244463930Y-27381862D01*
X-244865800Y-27342281D01*
X-245267669Y-27381862D01*
X-245654096Y-27499083D01*
X-246010229Y-27689440D01*
X-246322382Y-27945617D01*
X-246578559Y-28257770D01*
X-246615800Y-28327442D01*
X-246653040Y-28257770D01*
X-246909217Y-27945617D01*
X-247221370Y-27689440D01*
X-247577503Y-27499083D01*
X-247963930Y-27381862D01*
X-248365800Y-27342281D01*
X-248767669Y-27381862D01*
X-249154096Y-27499083D01*
X-249510229Y-27689440D01*
X-249822382Y-27945617D01*
X-250078559Y-28257770D01*
X-250115800Y-28327442D01*
X-250153040Y-28257770D01*
X-250409217Y-27945617D01*
X-250721370Y-27689440D01*
X-251077503Y-27499083D01*
X-251463930Y-27381862D01*
X-251865800Y-27342281D01*
X-252267669Y-27381862D01*
X-252654096Y-27499083D01*
X-253010229Y-27689440D01*
X-253322382Y-27945617D01*
X-253578559Y-28257770D01*
X-253615800Y-28327442D01*
X-253653040Y-28257770D01*
X-253909217Y-27945617D01*
X-254221370Y-27689440D01*
X-254577503Y-27499083D01*
X-254963930Y-27381862D01*
X-255365800Y-27342281D01*
X-255767669Y-27381862D01*
X-256154096Y-27499083D01*
X-256510229Y-27689440D01*
X-256822382Y-27945617D01*
X-257078559Y-28257770D01*
X-257115800Y-28327442D01*
X-257153040Y-28257770D01*
X-257409217Y-27945617D01*
X-257721370Y-27689440D01*
X-258077503Y-27499083D01*
X-258463930Y-27381862D01*
X-258865800Y-27342281D01*
X-259267669Y-27381862D01*
X-259654096Y-27499083D01*
X-260010229Y-27689440D01*
X-260322382Y-27945617D01*
X-260578559Y-28257770D01*
X-260768916Y-28613903D01*
X-260864129Y-28927779D01*
X-260906109Y-28716730D01*
X-261083257Y-28289057D01*
X-261340436Y-27904162D01*
X-261667762Y-27576836D01*
X-262052657Y-27319657D01*
X-262480330Y-27142509D01*
X-262934345Y-27052200D01*
X-263397255Y-27052200D01*
X-263851270Y-27142509D01*
X-264278943Y-27319657D01*
X-264663838Y-27576836D01*
X-264991164Y-27904162D01*
X-265248343Y-28289057D01*
X-265425491Y-28716730D01*
X-265515800Y-29170745D01*
X-280865853Y-29170745D01*
X-281051962Y-28984636D01*
X-281436857Y-28727457D01*
X-281864530Y-28550309D01*
X-282318545Y-28460000D01*
X-282781455Y-28460000D01*
X-283235470Y-28550309D01*
X-283663143Y-28727457D01*
X-284048038Y-28984636D01*
X-284375364Y-29311962D01*
X-284632543Y-29696857D01*
X-284809691Y-30124530D01*
X-284900000Y-30578545D01*
X-300520000Y-30578545D01*
X-300610309Y-30124530D01*
X-300787457Y-29696857D01*
X-301044636Y-29311962D01*
X-301371962Y-28984636D01*
X-301756857Y-28727457D01*
X-302184530Y-28550309D01*
X-302638545Y-28460000D01*
X-303101455Y-28460000D01*
X-303555470Y-28550309D01*
X-303983143Y-28727457D01*
X-304368038Y-28984636D01*
X-304695364Y-29311962D01*
X-304952543Y-29696857D01*
X-305129691Y-30124530D01*
X-305220000Y-30578545D01*
X-331091800Y-30578545D01*
X-309828102Y-9100681D01*
X-184887975Y-10458401D01*
G37*
%TD.AperFunction*%
D27*
X-220651052Y-50320000D02*
X-220651043Y-50320000D01*
X-220570001Y-50327982D01*
X-220488959Y-50320000D01*
X-219033451Y-50320000D01*
X-218764045Y-50589406D01*
X-218712371Y-50652371D01*
X-218461126Y-50858562D01*
X-218174483Y-51011777D01*
X-217863456Y-51106125D01*
X-217621052Y-51130000D01*
X-217621042Y-51130000D01*
X-217540000Y-51137982D01*
X-217458958Y-51130000D01*
X-217458948Y-51130000D01*
X-217216544Y-51106125D01*
X-216905517Y-51011777D01*
X-216618874Y-50858562D01*
X-216367629Y-50652371D01*
X-216179868Y-50423583D01*
X-216160000Y-50443452D01*
X-216160000Y-51997061D01*
X-216328003Y-51859184D01*
X-216527785Y-51752398D01*
X-216744561Y-51686640D01*
X-216970000Y-51664436D01*
X-218670000Y-51664436D01*
X-218895439Y-51686640D01*
X-219112215Y-51752398D01*
X-219311997Y-51859184D01*
X-219395693Y-51927872D01*
X-219621072Y-51811508D01*
X-219997844Y-51703061D01*
X-220310000Y-51958124D01*
X-220310000Y-53620000D01*
X-220290000Y-53620000D01*
X-220290000Y-53720000D01*
X-220310000Y-53720000D01*
X-220310000Y-53740000D01*
X-220410000Y-53740000D01*
X-220410000Y-53720000D01*
X-222071770Y-53720000D01*
X-222326938Y-54032156D01*
X-222315806Y-54088126D01*
X-222196653Y-54461651D01*
X-222006919Y-54804753D01*
X-221904458Y-54926031D01*
X-221913501Y-54935074D01*
X-222132377Y-55262645D01*
X-222283141Y-55626622D01*
X-222360000Y-56013017D01*
X-222360000Y-56406983D01*
X-222283141Y-56793378D01*
X-222132377Y-57157355D01*
X-221916792Y-57480000D01*
X-222132377Y-57802645D01*
X-222283141Y-58166622D01*
X-222360000Y-58553017D01*
X-222360000Y-58946983D01*
X-222283141Y-59333378D01*
X-222132377Y-59697355D01*
X-221916792Y-60020000D01*
X-222132377Y-60342645D01*
X-222283141Y-60706622D01*
X-222360000Y-61093017D01*
X-222360000Y-61486983D01*
X-222283141Y-61873378D01*
X-222132377Y-62237355D01*
X-221916792Y-62560000D01*
X-222132377Y-62882645D01*
X-222283141Y-63246622D01*
X-222360000Y-63633017D01*
X-222360000Y-64026983D01*
X-222283141Y-64413378D01*
X-222132377Y-64777355D01*
X-221916792Y-65100000D01*
X-222132377Y-65422645D01*
X-222283141Y-65786622D01*
X-222360000Y-66173017D01*
X-222360000Y-66566983D01*
X-222283141Y-66953378D01*
X-222132377Y-67317355D01*
X-221916792Y-67640000D01*
X-222132377Y-67962645D01*
X-222283141Y-68326622D01*
X-222360000Y-68713017D01*
X-222360000Y-69106983D01*
X-222283141Y-69493378D01*
X-222132377Y-69857355D01*
X-221916792Y-70180000D01*
X-222132377Y-70502645D01*
X-222283141Y-70866622D01*
X-222360000Y-71253017D01*
X-222360000Y-71646983D01*
X-222283141Y-72033378D01*
X-222132377Y-72397355D01*
X-221916792Y-72720000D01*
X-222132377Y-73042645D01*
X-222283141Y-73406622D01*
X-222360000Y-73793017D01*
X-222360000Y-74186983D01*
X-222283141Y-74573378D01*
X-222132377Y-74937355D01*
X-221916792Y-75260000D01*
X-222132377Y-75582645D01*
X-222283141Y-75946622D01*
X-222360000Y-76333017D01*
X-222360000Y-76726983D01*
X-222283141Y-77113378D01*
X-222132377Y-77477355D01*
X-221916792Y-77800000D01*
X-222132377Y-78122645D01*
X-222283141Y-78486622D01*
X-222360000Y-78873017D01*
X-222360000Y-79266983D01*
X-222283141Y-79653378D01*
X-222132377Y-80017355D01*
X-221916792Y-80340000D01*
X-222132377Y-80662645D01*
X-222283141Y-81026622D01*
X-222360000Y-81413017D01*
X-222360000Y-81806983D01*
X-222283141Y-82193378D01*
X-222132377Y-82557355D01*
X-221916792Y-82880000D01*
X-222132377Y-83202645D01*
X-222283141Y-83566622D01*
X-222360000Y-83953017D01*
X-222360000Y-84346983D01*
X-222283141Y-84733378D01*
X-222132377Y-85097355D01*
X-221916792Y-85420000D01*
X-222132377Y-85742645D01*
X-222283141Y-86106622D01*
X-222360000Y-86493017D01*
X-222360000Y-86886983D01*
X-222283141Y-87273378D01*
X-222132377Y-87637355D01*
X-221916792Y-87960000D01*
X-222132377Y-88282645D01*
X-222283141Y-88646622D01*
X-222360000Y-89033017D01*
X-222360000Y-89426983D01*
X-222283141Y-89813378D01*
X-222132377Y-90177355D01*
X-221916792Y-90500000D01*
X-222132377Y-90822645D01*
X-222283141Y-91186622D01*
X-222360000Y-91573017D01*
X-222360000Y-91966983D01*
X-222283141Y-92353378D01*
X-222132377Y-92717355D01*
X-221916792Y-93040000D01*
X-222132377Y-93362645D01*
X-222283141Y-93726622D01*
X-222360000Y-94113017D01*
X-222360000Y-94506983D01*
X-222283141Y-94893378D01*
X-222132377Y-95257355D01*
X-221916792Y-95580000D01*
X-222132377Y-95902645D01*
X-222283141Y-96266622D01*
X-222360000Y-96653017D01*
X-222360000Y-97046983D01*
X-222283141Y-97433378D01*
X-222132377Y-97797355D01*
X-221916792Y-98120000D01*
X-222132377Y-98442645D01*
X-222283141Y-98806622D01*
X-222360000Y-99193017D01*
X-222360000Y-99586983D01*
X-222283141Y-99973378D01*
X-222132377Y-100337355D01*
X-221916792Y-100660000D01*
X-222132377Y-100982645D01*
X-222283141Y-101346622D01*
X-222360000Y-101733017D01*
X-222360000Y-102126983D01*
X-222283141Y-102513378D01*
X-222132377Y-102877355D01*
X-221913501Y-103204926D01*
X-221634926Y-103483501D01*
X-221307355Y-103702377D01*
X-220943378Y-103853141D01*
X-220556983Y-103930000D01*
X-220163017Y-103930000D01*
X-219776622Y-103853141D01*
X-219412645Y-103702377D01*
X-219090000Y-103486792D01*
X-218767355Y-103702377D01*
X-218403378Y-103853141D01*
X-218016983Y-103930000D01*
X-217623017Y-103930000D01*
X-217236622Y-103853141D01*
X-216872645Y-103702377D01*
X-216545074Y-103483501D01*
X-216266499Y-103204926D01*
X-216047623Y-102877355D01*
X-215910000Y-102545103D01*
X-215910000Y-104300000D01*
X-226630000Y-104300000D01*
X-226630000Y-80318948D01*
X-226653875Y-80076544D01*
X-226748223Y-79765517D01*
X-226901438Y-79478874D01*
X-227107629Y-79227629D01*
X-227358875Y-79021438D01*
X-227645518Y-78868223D01*
X-227956545Y-78773875D01*
X-228280000Y-78742017D01*
X-228603456Y-78773875D01*
X-228914483Y-78868223D01*
X-229201126Y-79021438D01*
X-229452371Y-79227629D01*
X-229658562Y-79478875D01*
X-229700000Y-79556399D01*
X-229700000Y-77471041D01*
X-229692018Y-77389999D01*
X-229700000Y-77308957D01*
X-229700000Y-77308948D01*
X-229723875Y-77066544D01*
X-229818223Y-76755517D01*
X-229971438Y-76468874D01*
X-230177629Y-76217629D01*
X-230240592Y-76165957D01*
X-230505955Y-75900594D01*
X-230557629Y-75837629D01*
X-230808874Y-75631438D01*
X-231095517Y-75478223D01*
X-231406544Y-75383875D01*
X-231648948Y-75360000D01*
X-231648958Y-75360000D01*
X-231730000Y-75352018D01*
X-231811042Y-75360000D01*
X-233008328Y-75360000D01*
X-232963875Y-75213456D01*
X-232940000Y-74971052D01*
X-232940000Y-68553451D01*
X-231648203Y-67261655D01*
X-231548874Y-67208562D01*
X-231297629Y-67002371D01*
X-231245956Y-66939407D01*
X-227620586Y-63314038D01*
X-227557629Y-63262371D01*
X-227351438Y-63011126D01*
X-227198223Y-62724483D01*
X-227103875Y-62413456D01*
X-227072017Y-62090000D01*
X-227103875Y-61766544D01*
X-227198223Y-61455517D01*
X-227351438Y-61168874D01*
X-227557629Y-60917629D01*
X-227732124Y-60774425D01*
X-227740000Y-60766549D01*
X-227740000Y-52621350D01*
X-227638562Y-52811126D01*
X-227432371Y-53062371D01*
X-227181126Y-53268562D01*
X-226894483Y-53421777D01*
X-226583456Y-53516125D01*
X-226341052Y-53540000D01*
X-224311042Y-53540000D01*
X-224230000Y-53547982D01*
X-224148958Y-53540000D01*
X-224148948Y-53540000D01*
X-223906544Y-53516125D01*
X-223595517Y-53421777D01*
X-223382365Y-53307844D01*
X-222326938Y-53307844D01*
X-222071770Y-53620000D01*
X-220410000Y-53620000D01*
X-220410000Y-51958124D01*
X-220722156Y-51703061D01*
X-221098928Y-51811508D01*
X-221447304Y-51991376D01*
X-221753895Y-52235753D01*
X-222006919Y-52535247D01*
X-222196653Y-52878349D01*
X-222315806Y-53251874D01*
X-222326938Y-53307844D01*
X-223382365Y-53307844D01*
X-223308874Y-53268562D01*
X-223057629Y-53062371D01*
X-223005955Y-52999406D01*
X-221260594Y-51254045D01*
X-221197629Y-51202371D01*
X-220991438Y-50951126D01*
X-220838223Y-50664483D01*
X-220743875Y-50353456D01*
X-220739720Y-50311267D01*
X-220651052Y-50320000D01*
%TA.AperFunction,Conductor*%
D28*
G36*
X-220651052Y-50320000D02*
G01*
X-220651043Y-50320000D01*
X-220570001Y-50327982D01*
X-220488959Y-50320000D01*
X-219033451Y-50320000D01*
X-218764045Y-50589406D01*
X-218712371Y-50652371D01*
X-218461126Y-50858562D01*
X-218174483Y-51011777D01*
X-217863456Y-51106125D01*
X-217621052Y-51130000D01*
X-217621042Y-51130000D01*
X-217540000Y-51137982D01*
X-217458958Y-51130000D01*
X-217458948Y-51130000D01*
X-217216544Y-51106125D01*
X-216905517Y-51011777D01*
X-216618874Y-50858562D01*
X-216367629Y-50652371D01*
X-216179868Y-50423583D01*
X-216160000Y-50443452D01*
X-216160000Y-51997061D01*
X-216328003Y-51859184D01*
X-216527785Y-51752398D01*
X-216744561Y-51686640D01*
X-216970000Y-51664436D01*
X-218670000Y-51664436D01*
X-218895439Y-51686640D01*
X-219112215Y-51752398D01*
X-219311997Y-51859184D01*
X-219395693Y-51927872D01*
X-219621072Y-51811508D01*
X-219997844Y-51703061D01*
X-220310000Y-51958124D01*
X-220310000Y-53620000D01*
X-220290000Y-53620000D01*
X-220290000Y-53720000D01*
X-220310000Y-53720000D01*
X-220310000Y-53740000D01*
X-220410000Y-53740000D01*
X-220410000Y-53720000D01*
X-222071770Y-53720000D01*
X-222326938Y-54032156D01*
X-222315806Y-54088126D01*
X-222196653Y-54461651D01*
X-222006919Y-54804753D01*
X-221904458Y-54926031D01*
X-221913501Y-54935074D01*
X-222132377Y-55262645D01*
X-222283141Y-55626622D01*
X-222360000Y-56013017D01*
X-222360000Y-56406983D01*
X-222283141Y-56793378D01*
X-222132377Y-57157355D01*
X-221916792Y-57480000D01*
X-222132377Y-57802645D01*
X-222283141Y-58166622D01*
X-222360000Y-58553017D01*
X-222360000Y-58946983D01*
X-222283141Y-59333378D01*
X-222132377Y-59697355D01*
X-221916792Y-60020000D01*
X-222132377Y-60342645D01*
X-222283141Y-60706622D01*
X-222360000Y-61093017D01*
X-222360000Y-61486983D01*
X-222283141Y-61873378D01*
X-222132377Y-62237355D01*
X-221916792Y-62560000D01*
X-222132377Y-62882645D01*
X-222283141Y-63246622D01*
X-222360000Y-63633017D01*
X-222360000Y-64026983D01*
X-222283141Y-64413378D01*
X-222132377Y-64777355D01*
X-221916792Y-65100000D01*
X-222132377Y-65422645D01*
X-222283141Y-65786622D01*
X-222360000Y-66173017D01*
X-222360000Y-66566983D01*
X-222283141Y-66953378D01*
X-222132377Y-67317355D01*
X-221916792Y-67640000D01*
X-222132377Y-67962645D01*
X-222283141Y-68326622D01*
X-222360000Y-68713017D01*
X-222360000Y-69106983D01*
X-222283141Y-69493378D01*
X-222132377Y-69857355D01*
X-221916792Y-70180000D01*
X-222132377Y-70502645D01*
X-222283141Y-70866622D01*
X-222360000Y-71253017D01*
X-222360000Y-71646983D01*
X-222283141Y-72033378D01*
X-222132377Y-72397355D01*
X-221916792Y-72720000D01*
X-222132377Y-73042645D01*
X-222283141Y-73406622D01*
X-222360000Y-73793017D01*
X-222360000Y-74186983D01*
X-222283141Y-74573378D01*
X-222132377Y-74937355D01*
X-221916792Y-75260000D01*
X-222132377Y-75582645D01*
X-222283141Y-75946622D01*
X-222360000Y-76333017D01*
X-222360000Y-76726983D01*
X-222283141Y-77113378D01*
X-222132377Y-77477355D01*
X-221916792Y-77800000D01*
X-222132377Y-78122645D01*
X-222283141Y-78486622D01*
X-222360000Y-78873017D01*
X-222360000Y-79266983D01*
X-222283141Y-79653378D01*
X-222132377Y-80017355D01*
X-221916792Y-80340000D01*
X-222132377Y-80662645D01*
X-222283141Y-81026622D01*
X-222360000Y-81413017D01*
X-222360000Y-81806983D01*
X-222283141Y-82193378D01*
X-222132377Y-82557355D01*
X-221916792Y-82880000D01*
X-222132377Y-83202645D01*
X-222283141Y-83566622D01*
X-222360000Y-83953017D01*
X-222360000Y-84346983D01*
X-222283141Y-84733378D01*
X-222132377Y-85097355D01*
X-221916792Y-85420000D01*
X-222132377Y-85742645D01*
X-222283141Y-86106622D01*
X-222360000Y-86493017D01*
X-222360000Y-86886983D01*
X-222283141Y-87273378D01*
X-222132377Y-87637355D01*
X-221916792Y-87960000D01*
X-222132377Y-88282645D01*
X-222283141Y-88646622D01*
X-222360000Y-89033017D01*
X-222360000Y-89426983D01*
X-222283141Y-89813378D01*
X-222132377Y-90177355D01*
X-221916792Y-90500000D01*
X-222132377Y-90822645D01*
X-222283141Y-91186622D01*
X-222360000Y-91573017D01*
X-222360000Y-91966983D01*
X-222283141Y-92353378D01*
X-222132377Y-92717355D01*
X-221916792Y-93040000D01*
X-222132377Y-93362645D01*
X-222283141Y-93726622D01*
X-222360000Y-94113017D01*
X-222360000Y-94506983D01*
X-222283141Y-94893378D01*
X-222132377Y-95257355D01*
X-221916792Y-95580000D01*
X-222132377Y-95902645D01*
X-222283141Y-96266622D01*
X-222360000Y-96653017D01*
X-222360000Y-97046983D01*
X-222283141Y-97433378D01*
X-222132377Y-97797355D01*
X-221916792Y-98120000D01*
X-222132377Y-98442645D01*
X-222283141Y-98806622D01*
X-222360000Y-99193017D01*
X-222360000Y-99586983D01*
X-222283141Y-99973378D01*
X-222132377Y-100337355D01*
X-221916792Y-100660000D01*
X-222132377Y-100982645D01*
X-222283141Y-101346622D01*
X-222360000Y-101733017D01*
X-222360000Y-102126983D01*
X-222283141Y-102513378D01*
X-222132377Y-102877355D01*
X-221913501Y-103204926D01*
X-221634926Y-103483501D01*
X-221307355Y-103702377D01*
X-220943378Y-103853141D01*
X-220556983Y-103930000D01*
X-220163017Y-103930000D01*
X-219776622Y-103853141D01*
X-219412645Y-103702377D01*
X-219090000Y-103486792D01*
X-218767355Y-103702377D01*
X-218403378Y-103853141D01*
X-218016983Y-103930000D01*
X-217623017Y-103930000D01*
X-217236622Y-103853141D01*
X-216872645Y-103702377D01*
X-216545074Y-103483501D01*
X-216266499Y-103204926D01*
X-216047623Y-102877355D01*
X-215910000Y-102545103D01*
X-215910000Y-104300000D01*
X-226630000Y-104300000D01*
X-226630000Y-80318948D01*
X-226653875Y-80076544D01*
X-226748223Y-79765517D01*
X-226901438Y-79478874D01*
X-227107629Y-79227629D01*
X-227358875Y-79021438D01*
X-227645518Y-78868223D01*
X-227956545Y-78773875D01*
X-228280000Y-78742017D01*
X-228603456Y-78773875D01*
X-228914483Y-78868223D01*
X-229201126Y-79021438D01*
X-229452371Y-79227629D01*
X-229658562Y-79478875D01*
X-229700000Y-79556399D01*
X-229700000Y-77471041D01*
X-229692018Y-77389999D01*
X-229700000Y-77308957D01*
X-229700000Y-77308948D01*
X-229723875Y-77066544D01*
X-229818223Y-76755517D01*
X-229971438Y-76468874D01*
X-230177629Y-76217629D01*
X-230240592Y-76165957D01*
X-230505955Y-75900594D01*
X-230557629Y-75837629D01*
X-230808874Y-75631438D01*
X-231095517Y-75478223D01*
X-231406544Y-75383875D01*
X-231648948Y-75360000D01*
X-231648958Y-75360000D01*
X-231730000Y-75352018D01*
X-231811042Y-75360000D01*
X-233008328Y-75360000D01*
X-232963875Y-75213456D01*
X-232940000Y-74971052D01*
X-232940000Y-68553451D01*
X-231648203Y-67261655D01*
X-231548874Y-67208562D01*
X-231297629Y-67002371D01*
X-231245956Y-66939407D01*
X-227620586Y-63314038D01*
X-227557629Y-63262371D01*
X-227351438Y-63011126D01*
X-227198223Y-62724483D01*
X-227103875Y-62413456D01*
X-227072017Y-62090000D01*
X-227103875Y-61766544D01*
X-227198223Y-61455517D01*
X-227351438Y-61168874D01*
X-227557629Y-60917629D01*
X-227732124Y-60774425D01*
X-227740000Y-60766549D01*
X-227740000Y-52621350D01*
X-227638562Y-52811126D01*
X-227432371Y-53062371D01*
X-227181126Y-53268562D01*
X-226894483Y-53421777D01*
X-226583456Y-53516125D01*
X-226341052Y-53540000D01*
X-224311042Y-53540000D01*
X-224230000Y-53547982D01*
X-224148958Y-53540000D01*
X-224148948Y-53540000D01*
X-223906544Y-53516125D01*
X-223595517Y-53421777D01*
X-223382365Y-53307844D01*
X-222326938Y-53307844D01*
X-222071770Y-53620000D01*
X-220410000Y-53620000D01*
X-220410000Y-51958124D01*
X-220722156Y-51703061D01*
X-221098928Y-51811508D01*
X-221447304Y-51991376D01*
X-221753895Y-52235753D01*
X-222006919Y-52535247D01*
X-222196653Y-52878349D01*
X-222315806Y-53251874D01*
X-222326938Y-53307844D01*
X-223382365Y-53307844D01*
X-223308874Y-53268562D01*
X-223057629Y-53062371D01*
X-223005955Y-52999406D01*
X-221260594Y-51254045D01*
X-221197629Y-51202371D01*
X-220991438Y-50951126D01*
X-220838223Y-50664483D01*
X-220743875Y-50353456D01*
X-220739720Y-50311267D01*
X-220651052Y-50320000D01*
G37*
%TD.AperFunction*%
D27*
X-235390000Y-63270659D02*
X-235541126Y-63351438D01*
X-235792371Y-63557629D01*
X-235998562Y-63808874D01*
X-236070788Y-63943999D01*
X-236137623Y-63782645D01*
X-236353208Y-63460000D01*
X-236137623Y-63137355D01*
X-235986859Y-62773378D01*
X-235910000Y-62386983D01*
X-235910000Y-61993017D01*
X-235986859Y-61606622D01*
X-236137623Y-61242645D01*
X-236353208Y-60920000D01*
X-236137623Y-60597355D01*
X-235986859Y-60233378D01*
X-235910000Y-59846983D01*
X-235910000Y-59453017D01*
X-235986859Y-59066622D01*
X-236137623Y-58702645D01*
X-236353208Y-58380000D01*
X-236137623Y-58057355D01*
X-235986859Y-57693378D01*
X-235910000Y-57306983D01*
X-235910000Y-56913017D01*
X-235986859Y-56526622D01*
X-236137623Y-56162645D01*
X-236356499Y-55835074D01*
X-236604888Y-55586685D01*
X-236447789Y-55351568D01*
X-236323408Y-55051287D01*
X-236260000Y-54732511D01*
X-236260000Y-54407489D01*
X-236323408Y-54088713D01*
X-236447789Y-53788432D01*
X-236628361Y-53518186D01*
X-236858186Y-53288361D01*
X-237128432Y-53107789D01*
X-237428713Y-52983408D01*
X-237747489Y-52920000D01*
X-238072511Y-52920000D01*
X-238391287Y-52983408D01*
X-238691568Y-53107789D01*
X-238961814Y-53288361D01*
X-239180000Y-53506547D01*
X-239398186Y-53288361D01*
X-239668432Y-53107789D01*
X-239968713Y-52983408D01*
X-240287489Y-52920000D01*
X-240612511Y-52920000D01*
X-240931287Y-52983408D01*
X-241219225Y-53102676D01*
X-240326548Y-52210000D01*
X-235389999Y-52210000D01*
X-235390000Y-63270659D01*
%TA.AperFunction,Conductor*%
D28*
G36*
X-235390000Y-63270659D02*
G01*
X-235541126Y-63351438D01*
X-235792371Y-63557629D01*
X-235998562Y-63808874D01*
X-236070788Y-63943999D01*
X-236137623Y-63782645D01*
X-236353208Y-63460000D01*
X-236137623Y-63137355D01*
X-235986859Y-62773378D01*
X-235910000Y-62386983D01*
X-235910000Y-61993017D01*
X-235986859Y-61606622D01*
X-236137623Y-61242645D01*
X-236353208Y-60920000D01*
X-236137623Y-60597355D01*
X-235986859Y-60233378D01*
X-235910000Y-59846983D01*
X-235910000Y-59453017D01*
X-235986859Y-59066622D01*
X-236137623Y-58702645D01*
X-236353208Y-58380000D01*
X-236137623Y-58057355D01*
X-235986859Y-57693378D01*
X-235910000Y-57306983D01*
X-235910000Y-56913017D01*
X-235986859Y-56526622D01*
X-236137623Y-56162645D01*
X-236356499Y-55835074D01*
X-236604888Y-55586685D01*
X-236447789Y-55351568D01*
X-236323408Y-55051287D01*
X-236260000Y-54732511D01*
X-236260000Y-54407489D01*
X-236323408Y-54088713D01*
X-236447789Y-53788432D01*
X-236628361Y-53518186D01*
X-236858186Y-53288361D01*
X-237128432Y-53107789D01*
X-237428713Y-52983408D01*
X-237747489Y-52920000D01*
X-238072511Y-52920000D01*
X-238391287Y-52983408D01*
X-238691568Y-53107789D01*
X-238961814Y-53288361D01*
X-239180000Y-53506547D01*
X-239398186Y-53288361D01*
X-239668432Y-53107789D01*
X-239968713Y-52983408D01*
X-240287489Y-52920000D01*
X-240612511Y-52920000D01*
X-240931287Y-52983408D01*
X-241219225Y-53102676D01*
X-240326548Y-52210000D01*
X-235389999Y-52210000D01*
X-235390000Y-63270659D01*
G37*
%TD.AperFunction*%
%TD*%
M02*
